<?xml version="1.0" encoding="utf-8"?>
<svg xmlns="http://www.w3.org/2000/svg" xmlns:xlink="http://www.w3.org/1999/xlink" width="800" height="420" viewBox="0 0 3200 1680">
<defs>
  <clipPath id="clip450">
    <rect x="0" y="0" width="3200" height="1680"/>
  </clipPath>
</defs>
<path clip-path="url(#clip450)" d="M0 1680 L3200 1680 L3200 0 L0 0  Z" fill="#ffffff" fill-rule="evenodd" fill-opacity="1"/>
<defs>
  <clipPath id="clip451">
    <rect x="640" y="0" width="2241" height="1680"/>
  </clipPath>
</defs>
<path clip-path="url(#clip450)" d="M252.472 1546.66 L3011.02 1546.66 L3011.02 204.724 L252.472 204.724  Z" fill="#ffffff" fill-rule="evenodd" fill-opacity="1"/>
<defs>
  <clipPath id="clip452">
    <rect x="252" y="204" width="2760" height="1343"/>
  </clipPath>
</defs>
<polyline clip-path="url(#clip452)" style="stroke:#000000; stroke-linecap:round; stroke-linejoin:round; stroke-width:2; stroke-opacity:0.1; fill:none" points="949.776,1546.66 949.776,204.724 "/>
<polyline clip-path="url(#clip452)" style="stroke:#000000; stroke-linecap:round; stroke-linejoin:round; stroke-width:2; stroke-opacity:0.1; fill:none" points="2313.72,1546.66 2313.72,204.724 "/>
<polyline clip-path="url(#clip450)" style="stroke:#000000; stroke-linecap:round; stroke-linejoin:round; stroke-width:4; stroke-opacity:1; fill:none" points="252.472,1546.66 3011.02,1546.66 "/>
<polyline clip-path="url(#clip450)" style="stroke:#000000; stroke-linecap:round; stroke-linejoin:round; stroke-width:4; stroke-opacity:1; fill:none" points="949.776,1546.66 949.776,1527.77 "/>
<polyline clip-path="url(#clip450)" style="stroke:#000000; stroke-linecap:round; stroke-linejoin:round; stroke-width:4; stroke-opacity:1; fill:none" points="2313.72,1546.66 2313.72,1527.77 "/>
<path clip-path="url(#clip450)" d="M963.12 1623.56 L963.12 1615.92 L936.755 1615.92 L938.422 1624.23 L934.162 1624.23 L932.496 1615.97 L932.496 1611.29 L963.12 1611.29 L963.12 1603.65 L967.056 1603.65 L967.056 1623.56 L963.12 1623.56 Z" fill="#000000" fill-rule="nonzero" fill-opacity="1" /><path clip-path="url(#clip450)" d="M935.574 1584.21 Q935.574 1587.82 939.139 1589.65 Q942.681 1591.45 949.81 1591.45 Q956.917 1591.45 960.482 1589.65 Q964.023 1587.82 964.023 1584.21 Q964.023 1580.57 960.482 1578.77 Q956.917 1576.94 949.81 1576.94 Q942.681 1576.94 939.139 1578.77 Q935.574 1580.57 935.574 1584.21 M931.871 1584.21 Q931.871 1578.4 936.477 1575.34 Q941.06 1572.26 949.81 1572.26 Q958.537 1572.26 963.144 1575.34 Q967.727 1578.4 967.727 1584.21 Q967.727 1590.02 963.144 1593.1 Q958.537 1596.15 949.81 1596.15 Q941.06 1596.15 936.477 1593.1 Q931.871 1590.02 931.871 1584.21 Z" fill="#000000" fill-rule="nonzero" fill-opacity="1" /><path clip-path="url(#clip450)" d="M2327.07 1622.33 L2327.07 1614.69 L2300.7 1614.69 L2302.37 1623.01 L2298.11 1623.01 L2296.44 1614.74 L2296.44 1610.07 L2327.07 1610.07 L2327.07 1602.43 L2331 1602.43 L2331 1622.33 L2327.07 1622.33 Z" fill="#000000" fill-rule="nonzero" fill-opacity="1" /><path clip-path="url(#clip450)" d="M2327.07 1592.17 L2327.07 1584.53 L2300.7 1584.53 L2302.37 1592.84 L2298.11 1592.84 L2296.44 1584.58 L2296.44 1579.9 L2327.07 1579.9 L2327.07 1572.26 L2331 1572.26 L2331 1592.17 L2327.07 1592.17 Z" fill="#000000" fill-rule="nonzero" fill-opacity="1" /><path clip-path="url(#clip450)" d="M1506.58 1680.96 L1506.58 1698.37 L1516.89 1698.37 Q1522.08 1698.37 1524.57 1696.24 Q1527.08 1694.08 1527.08 1689.65 Q1527.08 1685.2 1524.57 1683.09 Q1522.08 1680.96 1516.89 1680.96 L1506.58 1680.96 M1506.58 1661.42 L1506.58 1675.74 L1516.1 1675.74 Q1520.81 1675.74 1523.1 1673.99 Q1525.42 1672.21 1525.42 1668.58 Q1525.42 1664.98 1523.1 1663.2 Q1520.81 1661.42 1516.1 1661.42 L1506.58 1661.42 M1500.15 1656.14 L1516.58 1656.14 Q1523.93 1656.14 1527.91 1659.19 Q1531.89 1662.25 1531.89 1667.88 Q1531.89 1672.24 1529.85 1674.82 Q1527.81 1677.4 1523.87 1678.03 Q1528.61 1679.05 1531.22 1682.3 Q1533.86 1685.51 1533.86 1690.35 Q1533.86 1696.72 1529.53 1700.19 Q1525.2 1703.66 1517.21 1703.66 L1500.15 1703.66 L1500.15 1656.14 Z" fill="#000000" fill-rule="nonzero" fill-opacity="1" /><path clip-path="url(#clip450)" d="M1544.62 1668.01 L1550.47 1668.01 L1550.47 1703.66 L1544.62 1703.66 L1544.62 1668.01 M1544.62 1654.13 L1550.47 1654.13 L1550.47 1661.55 L1544.62 1661.55 L1544.62 1654.13 Z" fill="#000000" fill-rule="nonzero" fill-opacity="1" /><path clip-path="url(#clip450)" d="M1568.52 1657.89 L1568.52 1668.01 L1580.58 1668.01 L1580.58 1672.56 L1568.52 1672.56 L1568.52 1691.91 Q1568.52 1696.27 1569.7 1697.51 Q1570.91 1698.75 1574.57 1698.75 L1580.58 1698.75 L1580.58 1703.66 L1574.57 1703.66 Q1567.79 1703.66 1565.21 1701.14 Q1562.63 1698.6 1562.63 1691.91 L1562.63 1672.56 L1558.34 1672.56 L1558.34 1668.01 L1562.63 1668.01 L1562.63 1657.89 L1568.52 1657.89 Z" fill="#000000" fill-rule="nonzero" fill-opacity="1" /><path clip-path="url(#clip450)" d="M1611.01 1669.06 L1611.01 1674.6 Q1608.53 1673.32 1605.86 1672.69 Q1603.18 1672.05 1600.32 1672.05 Q1595.96 1672.05 1593.76 1673.39 Q1591.6 1674.72 1591.6 1677.4 Q1591.6 1679.43 1593.16 1680.61 Q1594.72 1681.76 1599.43 1682.81 L1601.43 1683.25 Q1607.67 1684.59 1610.28 1687.04 Q1612.92 1689.46 1612.92 1693.82 Q1612.92 1698.79 1608.97 1701.68 Q1605.06 1704.58 1598.18 1704.58 Q1595.32 1704.58 1592.2 1704.01 Q1589.11 1703.46 1585.68 1702.35 L1585.68 1696.3 Q1588.92 1697.99 1592.07 1698.85 Q1595.22 1699.68 1598.31 1699.68 Q1602.45 1699.68 1604.68 1698.28 Q1606.91 1696.84 1606.91 1694.27 Q1606.91 1691.88 1605.28 1690.61 Q1603.69 1689.33 1598.25 1688.16 L1596.21 1687.68 Q1590.77 1686.53 1588.35 1684.18 Q1585.93 1681.79 1585.93 1677.65 Q1585.93 1672.62 1589.5 1669.89 Q1593.06 1667.15 1599.62 1667.15 Q1602.86 1667.15 1605.73 1667.63 Q1608.59 1668.1 1611.01 1669.06 Z" fill="#000000" fill-rule="nonzero" fill-opacity="1" /><path clip-path="url(#clip450)" d="M1628.04 1657.89 L1628.04 1668.01 L1640.1 1668.01 L1640.1 1672.56 L1628.04 1672.56 L1628.04 1691.91 Q1628.04 1696.27 1629.22 1697.51 Q1630.43 1698.75 1634.09 1698.75 L1640.1 1698.75 L1640.1 1703.66 L1634.09 1703.66 Q1627.31 1703.66 1624.73 1701.14 Q1622.15 1698.6 1622.15 1691.91 L1622.15 1672.56 L1617.85 1672.56 L1617.85 1668.01 L1622.15 1668.01 L1622.15 1657.89 L1628.04 1657.89 Z" fill="#000000" fill-rule="nonzero" fill-opacity="1" /><path clip-path="url(#clip450)" d="M1668.46 1673.48 Q1667.48 1672.91 1666.3 1672.65 Q1665.15 1672.37 1663.75 1672.37 Q1658.79 1672.37 1656.11 1675.61 Q1653.47 1678.83 1653.47 1684.88 L1653.47 1703.66 L1647.58 1703.66 L1647.58 1668.01 L1653.47 1668.01 L1653.47 1673.55 Q1655.32 1670.3 1658.28 1668.74 Q1661.24 1667.15 1665.47 1667.15 Q1666.08 1667.15 1666.81 1667.24 Q1667.54 1667.31 1668.43 1667.47 L1668.46 1673.48 Z" fill="#000000" fill-rule="nonzero" fill-opacity="1" /><path clip-path="url(#clip450)" d="M1674.61 1668.01 L1680.46 1668.01 L1680.46 1703.66 L1674.61 1703.66 L1674.61 1668.01 M1674.61 1654.13 L1680.46 1654.13 L1680.46 1661.55 L1674.61 1661.55 L1674.61 1654.13 Z" fill="#000000" fill-rule="nonzero" fill-opacity="1" /><path clip-path="url(#clip450)" d="M1722.35 1682.14 L1722.35 1703.66 L1716.49 1703.66 L1716.49 1682.33 Q1716.49 1677.27 1714.52 1674.76 Q1712.54 1672.24 1708.6 1672.24 Q1703.86 1672.24 1701.12 1675.26 Q1698.38 1678.29 1698.38 1683.51 L1698.38 1703.66 L1692.49 1703.66 L1692.49 1668.01 L1698.38 1668.01 L1698.38 1673.55 Q1700.48 1670.33 1703.31 1668.74 Q1706.18 1667.15 1709.9 1667.15 Q1716.05 1667.15 1719.2 1670.97 Q1722.35 1674.76 1722.35 1682.14 Z" fill="#000000" fill-rule="nonzero" fill-opacity="1" /><path clip-path="url(#clip450)" d="M1757.49 1685.42 Q1757.49 1679.05 1754.84 1675.55 Q1752.23 1672.05 1747.49 1672.05 Q1742.78 1672.05 1740.14 1675.55 Q1737.53 1679.05 1737.53 1685.42 Q1737.53 1691.75 1740.14 1695.25 Q1742.78 1698.75 1747.49 1698.75 Q1752.23 1698.75 1754.84 1695.25 Q1757.49 1691.75 1757.49 1685.42 M1763.34 1699.23 Q1763.34 1708.33 1759.3 1712.76 Q1755.26 1717.21 1746.92 1717.21 Q1743.83 1717.21 1741.09 1716.74 Q1738.36 1716.29 1735.78 1715.34 L1735.78 1709.64 Q1738.36 1711.04 1740.87 1711.71 Q1743.39 1712.38 1746 1712.38 Q1751.76 1712.38 1754.62 1709.35 Q1757.49 1706.36 1757.49 1700.28 L1757.49 1697.39 Q1755.67 1700.54 1752.84 1702.1 Q1750.01 1703.66 1746.06 1703.66 Q1739.5 1703.66 1735.49 1698.66 Q1731.48 1693.66 1731.48 1685.42 Q1731.48 1677.14 1735.49 1672.15 Q1739.5 1667.15 1746.06 1667.15 Q1750.01 1667.15 1752.84 1668.71 Q1755.67 1670.27 1757.49 1673.42 L1757.49 1668.01 L1763.34 1668.01 L1763.34 1699.23 Z" fill="#000000" fill-rule="nonzero" fill-opacity="1" /><polyline clip-path="url(#clip452)" style="stroke:#000000; stroke-linecap:round; stroke-linejoin:round; stroke-width:2; stroke-opacity:0.1; fill:none" points="252.472,1546.66 3011.02,1546.66 "/>
<polyline clip-path="url(#clip452)" style="stroke:#000000; stroke-linecap:round; stroke-linejoin:round; stroke-width:2; stroke-opacity:0.1; fill:none" points="252.472,1279.35 3011.02,1279.35 "/>
<polyline clip-path="url(#clip452)" style="stroke:#000000; stroke-linecap:round; stroke-linejoin:round; stroke-width:2; stroke-opacity:0.1; fill:none" points="252.472,1012.03 3011.02,1012.03 "/>
<polyline clip-path="url(#clip452)" style="stroke:#000000; stroke-linecap:round; stroke-linejoin:round; stroke-width:2; stroke-opacity:0.1; fill:none" points="252.472,744.708 3011.02,744.708 "/>
<polyline clip-path="url(#clip452)" style="stroke:#000000; stroke-linecap:round; stroke-linejoin:round; stroke-width:2; stroke-opacity:0.1; fill:none" points="252.472,477.39 3011.02,477.39 "/>
<polyline clip-path="url(#clip452)" style="stroke:#000000; stroke-linecap:round; stroke-linejoin:round; stroke-width:2; stroke-opacity:0.1; fill:none" points="252.472,210.071 3011.02,210.071 "/>
<polyline clip-path="url(#clip450)" style="stroke:#000000; stroke-linecap:round; stroke-linejoin:round; stroke-width:4; stroke-opacity:1; fill:none" points="252.472,1546.66 252.472,204.724 "/>
<polyline clip-path="url(#clip450)" style="stroke:#000000; stroke-linecap:round; stroke-linejoin:round; stroke-width:4; stroke-opacity:1; fill:none" points="252.472,1546.66 271.37,1546.66 "/>
<polyline clip-path="url(#clip450)" style="stroke:#000000; stroke-linecap:round; stroke-linejoin:round; stroke-width:4; stroke-opacity:1; fill:none" points="252.472,1279.35 271.37,1279.35 "/>
<polyline clip-path="url(#clip450)" style="stroke:#000000; stroke-linecap:round; stroke-linejoin:round; stroke-width:4; stroke-opacity:1; fill:none" points="252.472,1012.03 271.37,1012.03 "/>
<polyline clip-path="url(#clip450)" style="stroke:#000000; stroke-linecap:round; stroke-linejoin:round; stroke-width:4; stroke-opacity:1; fill:none" points="252.472,744.708 271.37,744.708 "/>
<polyline clip-path="url(#clip450)" style="stroke:#000000; stroke-linecap:round; stroke-linejoin:round; stroke-width:4; stroke-opacity:1; fill:none" points="252.472,477.39 271.37,477.39 "/>
<polyline clip-path="url(#clip450)" style="stroke:#000000; stroke-linecap:round; stroke-linejoin:round; stroke-width:4; stroke-opacity:1; fill:none" points="252.472,210.071 271.37,210.071 "/>
<path clip-path="url(#clip450)" d="M192.528 1532.46 Q188.917 1532.46 187.088 1536.03 Q185.283 1539.57 185.283 1546.7 Q185.283 1553.81 187.088 1557.37 Q188.917 1560.91 192.528 1560.91 Q196.162 1560.91 197.968 1557.37 Q199.797 1553.81 199.797 1546.7 Q199.797 1539.57 197.968 1536.03 Q196.162 1532.46 192.528 1532.46 M192.528 1528.76 Q198.338 1528.76 201.394 1533.37 Q204.472 1537.95 204.472 1546.7 Q204.472 1555.43 201.394 1560.03 Q198.338 1564.62 192.528 1564.62 Q186.718 1564.62 183.639 1560.03 Q180.584 1555.43 180.584 1546.7 Q180.584 1537.95 183.639 1533.37 Q186.718 1528.76 192.528 1528.76 Z" fill="#000000" fill-rule="nonzero" fill-opacity="1" /><path clip-path="url(#clip450)" d="M123.015 1292.69 L130.653 1292.69 L130.653 1266.33 L122.343 1267.99 L122.343 1263.73 L130.607 1262.07 L135.283 1262.07 L135.283 1292.69 L142.922 1292.69 L142.922 1296.63 L123.015 1296.63 L123.015 1292.69 Z" fill="#000000" fill-rule="nonzero" fill-opacity="1" /><path clip-path="url(#clip450)" d="M162.366 1265.14 Q158.755 1265.14 156.926 1268.71 Q155.121 1272.25 155.121 1279.38 Q155.121 1286.49 156.926 1290.05 Q158.755 1293.59 162.366 1293.59 Q166 1293.59 167.806 1290.05 Q169.635 1286.49 169.635 1279.38 Q169.635 1272.25 167.806 1268.71 Q166 1265.14 162.366 1265.14 M162.366 1261.44 Q168.176 1261.44 171.232 1266.05 Q174.311 1270.63 174.311 1279.38 Q174.311 1288.11 171.232 1292.71 Q168.176 1297.3 162.366 1297.3 Q156.556 1297.3 153.477 1292.71 Q150.422 1288.11 150.422 1279.38 Q150.422 1270.63 153.477 1266.05 Q156.556 1261.44 162.366 1261.44 Z" fill="#000000" fill-rule="nonzero" fill-opacity="1" /><path clip-path="url(#clip450)" d="M192.528 1265.14 Q188.917 1265.14 187.088 1268.71 Q185.283 1272.25 185.283 1279.38 Q185.283 1286.49 187.088 1290.05 Q188.917 1293.59 192.528 1293.59 Q196.162 1293.59 197.968 1290.05 Q199.797 1286.49 199.797 1279.38 Q199.797 1272.25 197.968 1268.71 Q196.162 1265.14 192.528 1265.14 M192.528 1261.44 Q198.338 1261.44 201.394 1266.05 Q204.472 1270.63 204.472 1279.38 Q204.472 1288.11 201.394 1292.71 Q198.338 1297.3 192.528 1297.3 Q186.718 1297.3 183.639 1292.71 Q180.584 1288.11 180.584 1279.38 Q180.584 1270.63 183.639 1266.05 Q186.718 1261.44 192.528 1261.44 Z" fill="#000000" fill-rule="nonzero" fill-opacity="1" /><path clip-path="url(#clip450)" d="M126.232 1025.37 L142.551 1025.37 L142.551 1029.31 L120.607 1029.31 L120.607 1025.37 Q123.269 1022.62 127.852 1017.99 Q132.459 1013.33 133.639 1011.99 Q135.885 1009.47 136.764 1007.73 Q137.667 1005.97 137.667 1004.28 Q137.667 1001.53 135.723 999.793 Q133.802 998.057 130.7 998.057 Q128.501 998.057 126.047 998.821 Q123.616 999.585 120.839 1001.14 L120.839 996.414 Q123.663 995.279 126.116 994.701 Q128.57 994.122 130.607 994.122 Q135.977 994.122 139.172 996.807 Q142.366 999.492 142.366 1003.98 Q142.366 1006.11 141.556 1008.03 Q140.769 1009.93 138.663 1012.52 Q138.084 1013.2 134.982 1016.41 Q131.88 1019.61 126.232 1025.37 Z" fill="#000000" fill-rule="nonzero" fill-opacity="1" /><path clip-path="url(#clip450)" d="M162.366 997.826 Q158.755 997.826 156.926 1001.39 Q155.121 1004.93 155.121 1012.06 Q155.121 1019.17 156.926 1022.73 Q158.755 1026.27 162.366 1026.27 Q166 1026.27 167.806 1022.73 Q169.635 1019.17 169.635 1012.06 Q169.635 1004.93 167.806 1001.39 Q166 997.826 162.366 997.826 M162.366 994.122 Q168.176 994.122 171.232 998.729 Q174.311 1003.31 174.311 1012.06 Q174.311 1020.79 171.232 1025.4 Q168.176 1029.98 162.366 1029.98 Q156.556 1029.98 153.477 1025.4 Q150.422 1020.79 150.422 1012.06 Q150.422 1003.31 153.477 998.729 Q156.556 994.122 162.366 994.122 Z" fill="#000000" fill-rule="nonzero" fill-opacity="1" /><path clip-path="url(#clip450)" d="M192.528 997.826 Q188.917 997.826 187.088 1001.39 Q185.283 1004.93 185.283 1012.06 Q185.283 1019.17 187.088 1022.73 Q188.917 1026.27 192.528 1026.27 Q196.162 1026.27 197.968 1022.73 Q199.797 1019.17 199.797 1012.06 Q199.797 1004.93 197.968 1001.39 Q196.162 997.826 192.528 997.826 M192.528 994.122 Q198.338 994.122 201.394 998.729 Q204.472 1003.31 204.472 1012.06 Q204.472 1020.79 201.394 1025.4 Q198.338 1029.98 192.528 1029.98 Q186.718 1029.98 183.639 1025.4 Q180.584 1020.79 180.584 1012.06 Q180.584 1003.31 183.639 998.729 Q186.718 994.122 192.528 994.122 Z" fill="#000000" fill-rule="nonzero" fill-opacity="1" /><path clip-path="url(#clip450)" d="M136.371 743.354 Q139.727 744.072 141.602 746.34 Q143.501 748.609 143.501 751.942 Q143.501 757.058 139.982 759.859 Q136.464 762.66 129.982 762.66 Q127.806 762.66 125.491 762.22 Q123.2 761.803 120.746 760.947 L120.746 756.433 Q122.69 757.567 125.005 758.146 Q127.32 758.724 129.843 758.724 Q134.241 758.724 136.533 756.988 Q138.848 755.252 138.848 751.942 Q138.848 748.887 136.695 747.174 Q134.565 745.437 130.746 745.437 L126.718 745.437 L126.718 741.595 L130.931 741.595 Q134.38 741.595 136.209 740.229 Q138.038 738.84 138.038 736.248 Q138.038 733.586 136.139 732.174 Q134.264 730.738 130.746 730.738 Q128.825 730.738 126.626 731.155 Q124.427 731.572 121.788 732.451 L121.788 728.285 Q124.45 727.544 126.765 727.174 Q129.102 726.803 131.163 726.803 Q136.487 726.803 139.589 729.234 Q142.69 731.641 142.69 735.762 Q142.69 738.632 141.047 740.623 Q139.403 742.59 136.371 743.354 Z" fill="#000000" fill-rule="nonzero" fill-opacity="1" /><path clip-path="url(#clip450)" d="M162.366 730.507 Q158.755 730.507 156.926 734.072 Q155.121 737.613 155.121 744.743 Q155.121 751.849 156.926 755.414 Q158.755 758.956 162.366 758.956 Q166 758.956 167.806 755.414 Q169.635 751.849 169.635 744.743 Q169.635 737.613 167.806 734.072 Q166 730.507 162.366 730.507 M162.366 726.803 Q168.176 726.803 171.232 731.41 Q174.311 735.993 174.311 744.743 Q174.311 753.47 171.232 758.076 Q168.176 762.66 162.366 762.66 Q156.556 762.66 153.477 758.076 Q150.422 753.47 150.422 744.743 Q150.422 735.993 153.477 731.41 Q156.556 726.803 162.366 726.803 Z" fill="#000000" fill-rule="nonzero" fill-opacity="1" /><path clip-path="url(#clip450)" d="M192.528 730.507 Q188.917 730.507 187.088 734.072 Q185.283 737.613 185.283 744.743 Q185.283 751.849 187.088 755.414 Q188.917 758.956 192.528 758.956 Q196.162 758.956 197.968 755.414 Q199.797 751.849 199.797 744.743 Q199.797 737.613 197.968 734.072 Q196.162 730.507 192.528 730.507 M192.528 726.803 Q198.338 726.803 201.394 731.41 Q204.472 735.993 204.472 744.743 Q204.472 753.47 201.394 758.076 Q198.338 762.66 192.528 762.66 Q186.718 762.66 183.639 758.076 Q180.584 753.47 180.584 744.743 Q180.584 735.993 183.639 731.41 Q186.718 726.803 192.528 726.803 Z" fill="#000000" fill-rule="nonzero" fill-opacity="1" /><path clip-path="url(#clip450)" d="M135.052 464.184 L123.246 482.633 L135.052 482.633 L135.052 464.184 M133.825 460.11 L139.704 460.11 L139.704 482.633 L144.635 482.633 L144.635 486.521 L139.704 486.521 L139.704 494.67 L135.052 494.67 L135.052 486.521 L119.45 486.521 L119.45 482.008 L133.825 460.11 Z" fill="#000000" fill-rule="nonzero" fill-opacity="1" /><path clip-path="url(#clip450)" d="M162.366 463.188 Q158.755 463.188 156.926 466.753 Q155.121 470.295 155.121 477.424 Q155.121 484.531 156.926 488.096 Q158.755 491.637 162.366 491.637 Q166 491.637 167.806 488.096 Q169.635 484.531 169.635 477.424 Q169.635 470.295 167.806 466.753 Q166 463.188 162.366 463.188 M162.366 459.485 Q168.176 459.485 171.232 464.091 Q174.311 468.674 174.311 477.424 Q174.311 486.151 171.232 490.758 Q168.176 495.341 162.366 495.341 Q156.556 495.341 153.477 490.758 Q150.422 486.151 150.422 477.424 Q150.422 468.674 153.477 464.091 Q156.556 459.485 162.366 459.485 Z" fill="#000000" fill-rule="nonzero" fill-opacity="1" /><path clip-path="url(#clip450)" d="M192.528 463.188 Q188.917 463.188 187.088 466.753 Q185.283 470.295 185.283 477.424 Q185.283 484.531 187.088 488.096 Q188.917 491.637 192.528 491.637 Q196.162 491.637 197.968 488.096 Q199.797 484.531 199.797 477.424 Q199.797 470.295 197.968 466.753 Q196.162 463.188 192.528 463.188 M192.528 459.485 Q198.338 459.485 201.394 464.091 Q204.472 468.674 204.472 477.424 Q204.472 486.151 201.394 490.758 Q198.338 495.341 192.528 495.341 Q186.718 495.341 183.639 490.758 Q180.584 486.151 180.584 477.424 Q180.584 468.674 183.639 464.091 Q186.718 459.485 192.528 459.485 Z" fill="#000000" fill-rule="nonzero" fill-opacity="1" /><path clip-path="url(#clip450)" d="M122.251 192.791 L140.607 192.791 L140.607 196.726 L126.533 196.726 L126.533 205.198 Q127.552 204.851 128.57 204.689 Q129.589 204.504 130.607 204.504 Q136.394 204.504 139.774 207.675 Q143.153 210.846 143.153 216.263 Q143.153 221.842 139.681 224.943 Q136.209 228.022 129.89 228.022 Q127.714 228.022 125.445 227.652 Q123.2 227.281 120.792 226.541 L120.792 221.842 Q122.876 222.976 125.098 223.531 Q127.32 224.087 129.797 224.087 Q133.802 224.087 136.139 221.98 Q138.477 219.874 138.477 216.263 Q138.477 212.652 136.139 210.545 Q133.802 208.439 129.797 208.439 Q127.922 208.439 126.047 208.856 Q124.195 209.272 122.251 210.152 L122.251 192.791 Z" fill="#000000" fill-rule="nonzero" fill-opacity="1" /><path clip-path="url(#clip450)" d="M162.366 195.869 Q158.755 195.869 156.926 199.434 Q155.121 202.976 155.121 210.106 Q155.121 217.212 156.926 220.777 Q158.755 224.318 162.366 224.318 Q166 224.318 167.806 220.777 Q169.635 217.212 169.635 210.106 Q169.635 202.976 167.806 199.434 Q166 195.869 162.366 195.869 M162.366 192.166 Q168.176 192.166 171.232 196.772 Q174.311 201.356 174.311 210.106 Q174.311 218.832 171.232 223.439 Q168.176 228.022 162.366 228.022 Q156.556 228.022 153.477 223.439 Q150.422 218.832 150.422 210.106 Q150.422 201.356 153.477 196.772 Q156.556 192.166 162.366 192.166 Z" fill="#000000" fill-rule="nonzero" fill-opacity="1" /><path clip-path="url(#clip450)" d="M192.528 195.869 Q188.917 195.869 187.088 199.434 Q185.283 202.976 185.283 210.106 Q185.283 217.212 187.088 220.777 Q188.917 224.318 192.528 224.318 Q196.162 224.318 197.968 220.777 Q199.797 217.212 199.797 210.106 Q199.797 202.976 197.968 199.434 Q196.162 195.869 192.528 195.869 M192.528 192.166 Q198.338 192.166 201.394 196.772 Q204.472 201.356 204.472 210.106 Q204.472 218.832 201.394 223.439 Q198.338 228.022 192.528 228.022 Q186.718 228.022 183.639 223.439 Q180.584 218.832 180.584 210.106 Q180.584 201.356 183.639 196.772 Q186.718 192.166 192.528 192.166 Z" fill="#000000" fill-rule="nonzero" fill-opacity="1" /><path clip-path="url(#clip450)" d="M13.334 1211.09 L20.1135 1211.09 Q17.0898 1214.33 15.5939 1218.03 Q14.0979 1221.69 14.0979 1225.82 Q14.0979 1233.97 19.095 1238.3 Q24.0602 1242.63 33.4815 1242.63 Q42.8709 1242.63 47.868 1238.3 Q52.8332 1233.97 52.8332 1225.82 Q52.8332 1221.69 51.3373 1218.03 Q49.8414 1214.33 46.8176 1211.09 L53.5335 1211.09 Q55.8251 1214.46 56.9709 1218.25 Q58.1168 1222 58.1168 1226.21 Q58.1168 1237 51.5283 1243.2 Q44.9079 1249.41 33.4815 1249.41 Q22.0232 1249.41 15.4347 1243.2 Q8.81438 1237 8.81438 1226.21 Q8.81438 1221.94 9.96021 1218.19 Q11.0742 1214.4 13.334 1211.09 Z" fill="#000000" fill-rule="nonzero" fill-opacity="1" /><path clip-path="url(#clip450)" d="M25.6517 1187.6 Q25.6517 1192.31 29.3438 1195.05 Q33.0041 1197.78 39.4016 1197.78 Q45.7991 1197.78 49.4912 1195.08 Q53.1515 1192.34 53.1515 1187.6 Q53.1515 1182.92 49.4594 1180.18 Q45.7673 1177.44 39.4016 1177.44 Q33.0677 1177.44 29.3756 1180.18 Q25.6517 1182.92 25.6517 1187.6 M20.6864 1187.6 Q20.6864 1179.96 25.6517 1175.6 Q30.6169 1171.24 39.4016 1171.24 Q48.1544 1171.24 53.1515 1175.6 Q58.1168 1179.96 58.1168 1187.6 Q58.1168 1195.27 53.1515 1199.63 Q48.1544 1203.96 39.4016 1203.96 Q30.6169 1203.96 25.6517 1199.63 Q20.6864 1195.27 20.6864 1187.6 Z" fill="#000000" fill-rule="nonzero" fill-opacity="1" /><path clip-path="url(#clip450)" d="M43.1255 1162.14 L21.5458 1162.14 L21.5458 1156.28 L42.9027 1156.28 Q47.9635 1156.28 50.5098 1154.31 Q53.0242 1152.33 53.0242 1148.39 Q53.0242 1143.64 50.0005 1140.91 Q46.9768 1138.14 41.7569 1138.14 L21.5458 1138.14 L21.5458 1132.28 L57.1937 1132.28 L57.1937 1138.14 L51.7192 1138.14 Q54.9658 1140.27 56.5572 1143.1 Q58.1168 1145.9 58.1168 1149.63 Q58.1168 1155.77 54.2974 1158.95 Q50.4779 1162.14 43.1255 1162.14 M20.6864 1147.4 L20.6864 1147.4 Z" fill="#000000" fill-rule="nonzero" fill-opacity="1" /><path clip-path="url(#clip450)" d="M35.6777 1090.58 L57.1937 1090.58 L57.1937 1096.44 L35.8686 1096.44 Q30.8079 1096.44 28.2934 1098.41 Q25.779 1100.39 25.779 1104.33 Q25.779 1109.08 28.8027 1111.81 Q31.8264 1114.55 37.0463 1114.55 L57.1937 1114.55 L57.1937 1120.44 L21.5458 1120.44 L21.5458 1114.55 L27.084 1114.55 Q23.8693 1112.45 22.2778 1109.62 Q20.6864 1106.75 20.6864 1103.03 Q20.6864 1096.89 24.5058 1093.74 Q28.2934 1090.58 35.6777 1090.58 Z" fill="#000000" fill-rule="nonzero" fill-opacity="1" /><path clip-path="url(#clip450)" d="M11.4243 1073.11 L21.5458 1073.11 L21.5458 1061.05 L26.0973 1061.05 L26.0973 1073.11 L45.449 1073.11 Q49.8095 1073.11 51.0508 1071.93 Q52.2922 1070.72 52.2922 1067.06 L52.2922 1061.05 L57.1937 1061.05 L57.1937 1067.06 Q57.1937 1073.84 54.6793 1076.42 Q52.133 1079 45.449 1079 L26.0973 1079 L26.0973 1083.3 L21.5458 1083.3 L21.5458 1079 L11.4243 1079 L11.4243 1073.11 Z" fill="#000000" fill-rule="nonzero" fill-opacity="1" /><path clip-path="url(#clip450)" d="M22.5961 1030.62 L28.1343 1030.62 Q26.8612 1033.1 26.2246 1035.78 Q25.588 1038.45 25.588 1041.31 Q25.588 1045.67 26.9248 1047.87 Q28.2616 1050.04 30.9352 1050.04 Q32.9722 1050.04 34.1499 1048.48 Q35.2957 1046.92 36.3461 1042.21 L36.7917 1040.2 Q38.1285 1033.96 40.5793 1031.35 Q42.9982 1028.71 47.3587 1028.71 Q52.324 1028.71 55.2204 1032.66 Q58.1168 1036.57 58.1168 1043.45 Q58.1168 1046.31 57.5439 1049.43 Q57.0028 1052.52 55.8888 1055.96 L49.8414 1055.96 Q51.5283 1052.71 52.3876 1049.56 Q53.2152 1046.41 53.2152 1043.32 Q53.2152 1039.18 51.8147 1036.95 Q50.3824 1034.73 47.8043 1034.73 Q45.4172 1034.73 44.144 1036.35 Q42.8709 1037.94 41.6933 1043.38 L41.2158 1045.42 Q40.07 1050.86 37.7147 1053.28 Q35.3275 1055.7 31.1898 1055.7 Q26.1609 1055.7 23.4237 1052.14 Q20.6864 1048.57 20.6864 1042.01 Q20.6864 1038.77 21.1638 1035.9 Q21.6413 1033.04 22.5961 1030.62 Z" fill="#000000" fill-rule="nonzero" fill-opacity="1" /><path clip-path="url(#clip450)" d="M7.73221 984.596 Q15.0528 988.861 22.2142 990.93 Q29.3756 992.999 36.728 992.999 Q44.0804 992.999 51.3055 990.93 Q58.4987 988.829 65.7875 984.596 L65.7875 989.688 Q58.3077 994.463 51.0827 996.85 Q43.8576 999.205 36.728 999.205 Q29.6302 999.205 22.437 996.85 Q15.2437 994.494 7.73221 989.688 L7.73221 984.596 Z" fill="#000000" fill-rule="nonzero" fill-opacity="1" /><path clip-path="url(#clip450)" d="M51.7829 971.291 L51.7829 960.788 L15.5302 960.788 L17.8219 972.215 L11.9654 972.215 L9.67375 960.852 L9.67375 954.422 L51.7829 954.422 L51.7829 943.919 L57.1937 943.919 L57.1937 971.291 L51.7829 971.291 Z" fill="#000000" fill-rule="nonzero" fill-opacity="1" /><path clip-path="url(#clip450)" d="M13.9069 917.183 Q13.9069 922.148 18.8085 924.663 Q23.6783 927.145 33.4815 927.145 Q43.2529 927.145 48.1544 924.663 Q53.0242 922.148 53.0242 917.183 Q53.0242 912.186 48.1544 909.703 Q43.2529 907.189 33.4815 907.189 Q23.6783 907.189 18.8085 909.703 Q13.9069 912.186 13.9069 917.183 M8.81438 917.183 Q8.81438 909.194 15.1483 904.993 Q21.4503 900.759 33.4815 900.759 Q45.4808 900.759 51.8147 904.993 Q58.1168 909.194 58.1168 917.183 Q58.1168 925.172 51.8147 929.405 Q45.4808 933.607 33.4815 933.607 Q21.4503 933.607 15.1483 929.405 Q8.81438 925.172 8.81438 917.183 Z" fill="#000000" fill-rule="nonzero" fill-opacity="1" /><path clip-path="url(#clip450)" d="M13.9069 875.71 Q13.9069 880.676 18.8085 883.19 Q23.6783 885.673 33.4815 885.673 Q43.2529 885.673 48.1544 883.19 Q53.0242 880.676 53.0242 875.71 Q53.0242 870.713 48.1544 868.231 Q43.2529 865.716 33.4815 865.716 Q23.6783 865.716 18.8085 868.231 Q13.9069 870.713 13.9069 875.71 M8.81438 875.71 Q8.81438 867.721 15.1483 863.52 Q21.4503 859.287 33.4815 859.287 Q45.4808 859.287 51.8147 863.52 Q58.1168 867.721 58.1168 875.71 Q58.1168 883.699 51.8147 887.933 Q45.4808 892.134 33.4815 892.134 Q21.4503 892.134 15.1483 887.933 Q8.81438 883.699 8.81438 875.71 Z" fill="#000000" fill-rule="nonzero" fill-opacity="1" /><path clip-path="url(#clip450)" d="M13.9069 834.238 Q13.9069 839.203 18.8085 841.718 Q23.6783 844.2 33.4815 844.2 Q43.2529 844.2 48.1544 841.718 Q53.0242 839.203 53.0242 834.238 Q53.0242 829.241 48.1544 826.758 Q43.2529 824.244 33.4815 824.244 Q23.6783 824.244 18.8085 826.758 Q13.9069 829.241 13.9069 834.238 M8.81438 834.238 Q8.81438 826.249 15.1483 822.047 Q21.4503 817.814 33.4815 817.814 Q45.4808 817.814 51.8147 822.047 Q58.1168 826.249 58.1168 834.238 Q58.1168 842.227 51.8147 846.46 Q45.4808 850.661 33.4815 850.661 Q21.4503 850.661 15.1483 846.46 Q8.81438 842.227 8.81438 834.238 Z" fill="#000000" fill-rule="nonzero" fill-opacity="1" /><path clip-path="url(#clip450)" d="M22.5961 763.897 L28.1343 763.897 Q26.8612 766.379 26.2246 769.053 Q25.588 771.727 25.588 774.591 Q25.588 778.952 26.9248 781.148 Q28.2616 783.312 30.9352 783.312 Q32.9722 783.312 34.1499 781.753 Q35.2957 780.193 36.3461 775.482 L36.7917 773.477 Q38.1285 767.239 40.5793 764.629 Q42.9982 761.987 47.3587 761.987 Q52.324 761.987 55.2204 765.934 Q58.1168 769.849 58.1168 776.724 Q58.1168 779.588 57.5439 782.707 Q57.0028 785.795 55.8888 789.232 L49.8414 789.232 Q51.5283 785.986 52.3876 782.835 Q53.2152 779.684 53.2152 776.596 Q53.2152 772.459 51.8147 770.231 Q50.3824 768.003 47.8043 768.003 Q45.4172 768.003 44.144 769.626 Q42.8709 771.217 41.6933 776.66 L41.2158 778.697 Q40.07 784.14 37.7147 786.559 Q35.3275 788.978 31.1898 788.978 Q26.1609 788.978 23.4237 785.413 Q20.6864 781.848 20.6864 775.291 Q20.6864 772.045 21.1638 769.18 Q21.6413 766.316 22.5961 763.897 Z" fill="#000000" fill-rule="nonzero" fill-opacity="1" /><path clip-path="url(#clip450)" d="M39.2743 736.461 Q39.2743 743.558 40.8975 746.296 Q42.5208 749.033 46.4357 749.033 Q49.5549 749.033 51.401 746.996 Q53.2152 744.927 53.2152 741.394 Q53.2152 736.524 49.7777 733.596 Q46.3084 730.636 40.5793 730.636 L39.2743 730.636 L39.2743 736.461 M36.8553 724.779 L57.1937 724.779 L57.1937 730.636 L51.7829 730.636 Q55.0294 732.641 56.589 735.633 Q58.1168 738.625 58.1168 742.954 Q58.1168 748.428 55.0612 751.675 Q51.9739 754.889 46.8176 754.889 Q40.8021 754.889 37.7465 750.879 Q34.691 746.837 34.691 738.848 L34.691 730.636 L34.1181 730.636 Q30.0758 730.636 27.8797 733.31 Q25.6517 735.951 25.6517 740.757 Q25.6517 743.813 26.3837 746.709 Q27.1158 749.606 28.5799 752.279 L23.169 752.279 Q21.9277 749.065 21.323 746.041 Q20.6864 743.017 20.6864 740.153 Q20.6864 732.418 24.6968 728.599 Q28.7072 724.779 36.8553 724.779 Z" fill="#000000" fill-rule="nonzero" fill-opacity="1" /><path clip-path="url(#clip450)" d="M28.3889 684.962 Q24.4422 682.766 22.5643 679.71 Q20.6864 676.655 20.6864 672.517 Q20.6864 666.947 24.6013 663.923 Q28.4844 660.9 35.6777 660.9 L57.1937 660.9 L57.1937 666.788 L35.8686 666.788 Q30.7442 666.788 28.2616 668.602 Q25.779 670.416 25.779 674.14 Q25.779 678.692 28.8027 681.334 Q31.8264 683.975 37.0463 683.975 L57.1937 683.975 L57.1937 689.864 L35.8686 689.864 Q30.7124 689.864 28.2616 691.678 Q25.779 693.492 25.779 697.28 Q25.779 701.767 28.8345 704.409 Q31.8582 707.051 37.0463 707.051 L57.1937 707.051 L57.1937 712.939 L21.5458 712.939 L21.5458 707.051 L27.084 707.051 Q23.8056 705.046 22.246 702.245 Q20.6864 699.444 20.6864 695.593 Q20.6864 691.71 22.6598 689.004 Q24.6332 686.267 28.3889 684.962 Z" fill="#000000" fill-rule="nonzero" fill-opacity="1" /><path clip-path="url(#clip450)" d="M51.8466 643.553 L70.7527 643.553 L70.7527 649.441 L21.5458 649.441 L21.5458 643.553 L26.9566 643.553 Q23.7738 641.707 22.246 638.906 Q20.6864 636.073 20.6864 632.158 Q20.6864 625.665 25.8426 621.623 Q30.9989 617.549 39.4016 617.549 Q47.8043 617.549 52.9606 621.623 Q58.1168 625.665 58.1168 632.158 Q58.1168 636.073 56.589 638.906 Q55.0294 641.707 51.8466 643.553 M39.4016 623.628 Q32.9404 623.628 29.2801 626.302 Q25.588 628.944 25.588 633.591 Q25.588 638.238 29.2801 640.911 Q32.9404 643.553 39.4016 643.553 Q45.8628 643.553 49.5549 640.911 Q53.2152 638.238 53.2152 633.591 Q53.2152 628.944 49.5549 626.302 Q45.8628 623.628 39.4016 623.628 Z" fill="#000000" fill-rule="nonzero" fill-opacity="1" /><path clip-path="url(#clip450)" d="M7.66855 607.841 L7.66855 601.985 L57.1937 601.985 L57.1937 607.841 L7.66855 607.841 Z" fill="#000000" fill-rule="nonzero" fill-opacity="1" /><path clip-path="url(#clip450)" d="M37.9057 559.239 L40.7702 559.239 L40.7702 586.166 Q46.8176 585.784 50.0005 582.538 Q53.1515 579.259 53.1515 573.435 Q53.1515 570.061 52.324 566.91 Q51.4964 563.727 49.8414 560.608 L55.3795 560.608 Q56.7163 563.759 57.4165 567.069 Q58.1168 570.379 58.1168 573.785 Q58.1168 582.315 53.1515 587.312 Q48.1863 592.277 39.7199 592.277 Q30.967 592.277 25.8426 587.567 Q20.6864 582.824 20.6864 574.803 Q20.6864 567.61 25.3334 563.441 Q29.9485 559.239 37.9057 559.239 M36.1869 565.096 Q31.3808 565.159 28.5162 567.801 Q25.6517 570.411 25.6517 574.74 Q25.6517 579.641 28.4208 582.601 Q31.1898 585.53 36.2187 585.975 L36.1869 565.096 Z" fill="#000000" fill-rule="nonzero" fill-opacity="1" /><path clip-path="url(#clip450)" d="M22.5961 526.902 L28.1343 526.902 Q26.8612 529.384 26.2246 532.058 Q25.588 534.731 25.588 537.596 Q25.588 541.956 26.9248 544.153 Q28.2616 546.317 30.9352 546.317 Q32.9722 546.317 34.1499 544.757 Q35.2957 543.198 36.3461 538.487 L36.7917 536.482 Q38.1285 530.244 40.5793 527.634 Q42.9982 524.992 47.3587 524.992 Q52.324 524.992 55.2204 528.939 Q58.1168 532.853 58.1168 539.728 Q58.1168 542.593 57.5439 545.712 Q57.0028 548.8 55.8888 552.237 L49.8414 552.237 Q51.5283 548.991 52.3876 545.839 Q53.2152 542.688 53.2152 539.601 Q53.2152 535.463 51.8147 533.235 Q50.3824 531.007 47.8043 531.007 Q45.4172 531.007 44.144 532.631 Q42.8709 534.222 41.6933 539.665 L41.2158 541.702 Q40.07 547.144 37.7147 549.563 Q35.3275 551.982 31.1898 551.982 Q26.1609 551.982 23.4237 548.418 Q20.6864 544.853 20.6864 538.296 Q20.6864 535.05 21.1638 532.185 Q21.6413 529.32 22.5961 526.902 Z" fill="#000000" fill-rule="nonzero" fill-opacity="1" /><path clip-path="url(#clip450)" d="M7.73221 516.589 L7.73221 511.496 Q15.2437 506.722 22.437 504.367 Q29.6302 501.98 36.728 501.98 Q43.8576 501.98 51.0827 504.367 Q58.3077 506.722 65.7875 511.496 L65.7875 516.589 Q58.4987 512.356 51.3055 510.287 Q44.0804 508.186 36.728 508.186 Q29.3756 508.186 22.2142 510.287 Q15.0528 512.356 7.73221 516.589 Z" fill="#000000" fill-rule="nonzero" fill-opacity="1" /><path clip-path="url(#clip450)" d="M850.896 12.096 L863.089 12.096 L878.523 53.2532 L894.038 12.096 L906.231 12.096 L906.231 72.576 L898.251 72.576 L898.251 19.4686 L882.655 60.9499 L874.431 60.9499 L858.836 19.4686 L858.836 72.576 L850.896 72.576 L850.896 12.096 Z" fill="#000000" fill-rule="nonzero" fill-opacity="1" /><path clip-path="url(#clip450)" d="M922.475 12.096 L930.658 12.096 L930.658 72.576 L922.475 72.576 L922.475 12.096 Z" fill="#000000" fill-rule="nonzero" fill-opacity="1" /><path clip-path="url(#clip450)" d="M946.943 12.096 L959.136 12.096 L974.57 53.2532 L990.085 12.096 L1002.28 12.096 L1002.28 72.576 L994.298 72.576 L994.298 19.4686 L978.702 60.9499 L970.478 60.9499 L954.882 19.4686 L954.882 72.576 L946.943 72.576 L946.943 12.096 Z" fill="#000000" fill-rule="nonzero" fill-opacity="1" /><path clip-path="url(#clip450)" d="M1018.52 12.096 L1026.7 12.096 L1026.7 72.576 L1018.52 72.576 L1018.52 12.096 Z" fill="#000000" fill-rule="nonzero" fill-opacity="1" /><path clip-path="url(#clip450)" d="M1067.54 17.6457 Q1058.63 17.6457 1053.36 24.2892 Q1048.13 30.9327 1048.13 42.3968 Q1048.13 53.8203 1053.36 60.4638 Q1058.63 67.1073 1067.54 67.1073 Q1076.45 67.1073 1081.64 60.4638 Q1086.86 53.8203 1086.86 42.3968 Q1086.86 30.9327 1081.64 24.2892 Q1076.45 17.6457 1067.54 17.6457 M1079 71.4823 L1089.78 83.2704 L1079.89 83.2704 L1070.94 73.5887 Q1069.6 73.6697 1068.87 73.7103 Q1068.19 73.7508 1067.54 73.7508 Q1054.78 73.7508 1047.12 65.2439 Q1039.51 56.6965 1039.51 42.3968 Q1039.51 28.0566 1047.12 19.5497 Q1054.78 11.0023 1067.54 11.0023 Q1080.26 11.0023 1087.87 19.5497 Q1095.49 28.0566 1095.49 42.3968 Q1095.49 52.9291 1091.24 60.4233 Q1087.02 67.9175 1079 71.4823 Z" fill="#000000" fill-rule="nonzero" fill-opacity="1" /><path clip-path="url(#clip450)" d="M1106.51 46.5287 L1128.34 46.5287 L1128.34 53.1722 L1106.51 53.1722 L1106.51 46.5287 Z" fill="#000000" fill-rule="nonzero" fill-opacity="1" /><path clip-path="url(#clip450)" d="M1176.79 14.0809 L1176.79 22.0612 Q1172.13 19.8332 1168 18.7395 Q1163.87 17.6457 1160.02 17.6457 Q1153.34 17.6457 1149.69 20.2383 Q1146.09 22.8309 1146.09 27.611 Q1146.09 31.6214 1148.48 33.6873 Q1150.91 35.7128 1157.63 36.9686 L1162.57 37.9813 Q1171.73 39.7232 1176.06 44.1387 Q1180.44 48.5136 1180.44 55.8863 Q1180.44 64.6767 1174.52 69.2137 Q1168.65 73.7508 1157.27 73.7508 Q1152.97 73.7508 1148.11 72.7785 Q1143.29 71.8063 1138.1 69.9024 L1138.1 61.4765 Q1143.09 64.2716 1147.87 65.6895 Q1152.65 67.1073 1157.27 67.1073 Q1164.27 67.1073 1168.08 64.3527 Q1171.89 61.598 1171.89 56.4939 Q1171.89 52.0379 1169.13 49.5264 Q1166.42 47.0148 1160.18 45.759 L1155.2 44.7868 Q1146.04 42.9639 1141.95 39.075 Q1137.86 35.1862 1137.86 28.2591 Q1137.86 20.2383 1143.49 15.6203 Q1149.16 11.0023 1159.09 11.0023 Q1163.34 11.0023 1167.76 11.7719 Q1172.17 12.5416 1176.79 14.0809 Z" fill="#000000" fill-rule="nonzero" fill-opacity="1" /><path clip-path="url(#clip450)" d="M1200.25 14.324 L1200.25 27.2059 L1215.6 27.2059 L1215.6 32.9987 L1200.25 32.9987 L1200.25 57.6282 Q1200.25 63.1779 1201.74 64.7578 Q1203.28 66.3376 1207.94 66.3376 L1215.6 66.3376 L1215.6 72.576 L1207.94 72.576 Q1199.31 72.576 1196.03 69.3758 Q1192.75 66.1351 1192.75 57.6282 L1192.75 32.9987 L1187.28 32.9987 L1187.28 27.2059 L1192.75 27.2059 L1192.75 14.324 L1200.25 14.324 Z" fill="#000000" fill-rule="nonzero" fill-opacity="1" /><path clip-path="url(#clip450)" d="M1246.02 49.7694 Q1236.99 49.7694 1233.5 51.8354 Q1230.02 53.9013 1230.02 58.8839 Q1230.02 62.8538 1232.61 65.2034 Q1235.25 67.5124 1239.74 67.5124 Q1245.94 67.5124 1249.67 63.1374 Q1253.43 58.7219 1253.43 51.4303 L1253.43 49.7694 L1246.02 49.7694 M1260.89 46.6907 L1260.89 72.576 L1253.43 72.576 L1253.43 65.6895 Q1250.88 69.8214 1247.07 71.8063 Q1243.27 73.7508 1237.76 73.7508 Q1230.79 73.7508 1226.66 69.8619 Q1222.57 65.9325 1222.57 59.3701 Q1222.57 51.7138 1227.67 47.825 Q1232.81 43.9361 1242.98 43.9361 L1253.43 43.9361 L1253.43 43.2069 Q1253.43 38.0623 1250.03 35.2672 Q1246.67 32.4315 1240.55 32.4315 Q1236.66 32.4315 1232.98 33.3632 Q1229.29 34.295 1225.89 36.1584 L1225.89 29.2718 Q1229.98 27.692 1233.83 26.9223 Q1237.68 26.1121 1241.32 26.1121 Q1251.17 26.1121 1256.03 31.2163 Q1260.89 36.3204 1260.89 46.6907 Z" fill="#000000" fill-rule="nonzero" fill-opacity="1" /><path clip-path="url(#clip450)" d="M1283.61 14.324 L1283.61 27.2059 L1298.97 27.2059 L1298.97 32.9987 L1283.61 32.9987 L1283.61 57.6282 Q1283.61 63.1779 1285.11 64.7578 Q1286.65 66.3376 1291.31 66.3376 L1298.97 66.3376 L1298.97 72.576 L1291.31 72.576 Q1282.68 72.576 1279.4 69.3758 Q1276.12 66.1351 1276.12 57.6282 L1276.12 32.9987 L1270.65 32.9987 L1270.65 27.2059 L1276.12 27.2059 L1276.12 14.324 L1283.61 14.324 Z" fill="#000000" fill-rule="nonzero" fill-opacity="1" /><path clip-path="url(#clip450)" d="M1347.58 48.0275 L1347.58 51.6733 L1313.31 51.6733 Q1313.79 59.3701 1317.92 63.421 Q1322.1 67.4314 1329.51 67.4314 Q1333.8 67.4314 1337.81 66.3781 Q1341.87 65.3249 1345.84 63.2184 L1345.84 70.267 Q1341.82 71.9684 1337.61 72.8596 Q1333.4 73.7508 1329.06 73.7508 Q1318.21 73.7508 1311.85 67.4314 Q1305.53 61.1119 1305.53 50.3365 Q1305.53 39.1965 1311.52 32.6746 Q1317.56 26.1121 1327.77 26.1121 Q1336.92 26.1121 1342.23 32.0264 Q1347.58 37.9003 1347.58 48.0275 M1340.12 45.84 Q1340.04 39.7232 1336.68 36.0774 Q1333.36 32.4315 1327.85 32.4315 Q1321.61 32.4315 1317.84 35.9558 Q1314.12 39.4801 1313.55 45.8805 L1340.12 45.84 Z" fill="#000000" fill-rule="nonzero" fill-opacity="1" /><path clip-path="url(#clip450)" d="M1375.73 72.576 L1352.64 12.096 L1361.19 12.096 L1380.35 63.0159 L1399.55 12.096 L1408.06 12.096 L1385.01 72.576 L1375.73 72.576 Z" fill="#000000" fill-rule="nonzero" fill-opacity="1" /><path clip-path="url(#clip450)" d="M1448.93 48.0275 L1448.93 51.6733 L1414.66 51.6733 Q1415.15 59.3701 1419.28 63.421 Q1423.45 67.4314 1430.86 67.4314 Q1435.16 67.4314 1439.17 66.3781 Q1443.22 65.3249 1447.19 63.2184 L1447.19 70.267 Q1443.18 71.9684 1438.97 72.8596 Q1434.75 73.7508 1430.42 73.7508 Q1419.56 73.7508 1413.2 67.4314 Q1406.88 61.1119 1406.88 50.3365 Q1406.88 39.1965 1412.88 32.6746 Q1418.91 26.1121 1429.12 26.1121 Q1438.28 26.1121 1443.58 32.0264 Q1448.93 37.9003 1448.93 48.0275 M1441.48 45.84 Q1441.4 39.7232 1438.03 36.0774 Q1434.71 32.4315 1429.2 32.4315 Q1422.96 32.4315 1419.2 35.9558 Q1415.47 39.4801 1414.9 45.8805 L1441.48 45.84 Z" fill="#000000" fill-rule="nonzero" fill-opacity="1" /><path clip-path="url(#clip450)" d="M1493.81 28.9478 L1493.81 35.9153 Q1490.66 34.1734 1487.45 33.3227 Q1484.3 32.4315 1481.05 32.4315 Q1473.8 32.4315 1469.79 37.0496 Q1465.78 41.6271 1465.78 49.9314 Q1465.78 58.2358 1469.79 62.8538 Q1473.8 67.4314 1481.05 67.4314 Q1484.3 67.4314 1487.45 66.5807 Q1490.66 65.6895 1493.81 63.9476 L1493.81 70.8341 Q1490.7 72.2924 1487.33 73.0216 Q1484.01 73.7508 1480.24 73.7508 Q1470 73.7508 1463.96 67.3098 Q1457.92 60.8689 1457.92 49.9314 Q1457.92 38.832 1464 32.472 Q1470.12 26.1121 1480.73 26.1121 Q1484.17 26.1121 1487.45 26.8413 Q1490.74 27.5299 1493.81 28.9478 Z" fill="#000000" fill-rule="nonzero" fill-opacity="1" /><path clip-path="url(#clip450)" d="M1514.15 14.324 L1514.15 27.2059 L1529.5 27.2059 L1529.5 32.9987 L1514.15 32.9987 L1514.15 57.6282 Q1514.15 63.1779 1515.65 64.7578 Q1517.19 66.3376 1521.85 66.3376 L1529.5 66.3376 L1529.5 72.576 L1521.85 72.576 Q1513.22 72.576 1509.94 69.3758 Q1506.66 66.1351 1506.66 57.6282 L1506.66 32.9987 L1501.19 32.9987 L1501.19 27.2059 L1506.66 27.2059 L1506.66 14.324 L1514.15 14.324 Z" fill="#000000" fill-rule="nonzero" fill-opacity="1" /><path clip-path="url(#clip450)" d="M1556.89 32.4315 Q1550.89 32.4315 1547.41 37.1306 Q1543.92 41.7891 1543.92 49.9314 Q1543.92 58.0738 1547.37 62.7728 Q1550.85 67.4314 1556.89 67.4314 Q1562.84 67.4314 1566.33 62.7323 Q1569.81 58.0333 1569.81 49.9314 Q1569.81 41.8701 1566.33 37.1711 Q1562.84 32.4315 1556.89 32.4315 M1556.89 26.1121 Q1566.61 26.1121 1572.16 32.4315 Q1577.71 38.7509 1577.71 49.9314 Q1577.71 61.0714 1572.16 67.4314 Q1566.61 73.7508 1556.89 73.7508 Q1547.12 73.7508 1541.57 67.4314 Q1536.07 61.0714 1536.07 49.9314 Q1536.07 38.7509 1541.57 32.4315 Q1547.12 26.1121 1556.89 26.1121 Z" fill="#000000" fill-rule="nonzero" fill-opacity="1" /><path clip-path="url(#clip450)" d="M1616.35 34.1734 Q1615.1 33.4443 1613.6 33.1202 Q1612.14 32.7556 1610.36 32.7556 Q1604.04 32.7556 1600.64 36.8875 Q1597.27 40.9789 1597.27 48.6757 L1597.27 72.576 L1589.78 72.576 L1589.78 27.2059 L1597.27 27.2059 L1597.27 34.2544 Q1599.62 30.1225 1603.39 28.1376 Q1607.16 26.1121 1612.55 26.1121 Q1613.32 26.1121 1614.25 26.2337 Q1615.18 26.3147 1616.31 26.5172 L1616.35 34.1734 Z" fill="#000000" fill-rule="nonzero" fill-opacity="1" /><path clip-path="url(#clip450)" d="M1669.1 17.4837 Q1662.78 17.4837 1659.58 23.7221 Q1656.42 29.92 1656.42 42.3968 Q1656.42 54.833 1659.58 61.0714 Q1662.78 67.2693 1669.1 67.2693 Q1675.46 67.2693 1678.62 61.0714 Q1681.82 54.833 1681.82 42.3968 Q1681.82 29.92 1678.62 23.7221 Q1675.46 17.4837 1669.1 17.4837 M1669.1 11.0023 Q1679.27 11.0023 1684.61 19.0636 Q1690 27.0843 1690 42.3968 Q1690 57.6687 1684.61 65.73 Q1679.27 73.7508 1669.1 73.7508 Q1658.93 73.7508 1653.54 65.73 Q1648.19 57.6687 1648.19 42.3968 Q1648.19 27.0843 1653.54 19.0636 Q1658.93 11.0023 1669.1 11.0023 Z" fill="#000000" fill-rule="nonzero" fill-opacity="1" /><path clip-path="url(#clip450)" d="M1704.38 62.2867 L1712.93 62.2867 L1712.93 72.576 L1704.38 72.576 L1704.38 62.2867 Z" fill="#000000" fill-rule="nonzero" fill-opacity="1" /><path clip-path="url(#clip450)" d="M1732.17 65.6895 L1745.54 65.6895 L1745.54 19.5497 L1731 22.4663 L1731 15.0127 L1745.46 12.096 L1753.64 12.096 L1753.64 65.6895 L1767.01 65.6895 L1767.01 72.576 L1732.17 72.576 L1732.17 65.6895 Z" fill="#000000" fill-rule="nonzero" fill-opacity="1" /><path clip-path="url(#clip450)" d="M1790.58 65.6895 L1819.14 65.6895 L1819.14 72.576 L1780.74 72.576 L1780.74 65.6895 Q1785.4 60.8689 1793.42 52.7671 Q1801.48 44.6248 1803.55 42.2752 Q1807.48 37.8598 1809.02 34.8216 Q1810.6 31.7429 1810.6 28.7857 Q1810.6 23.9651 1807.19 20.927 Q1803.83 17.8888 1798.4 17.8888 Q1794.55 17.8888 1790.26 19.2256 Q1786.01 20.5624 1781.15 23.2765 L1781.15 15.0127 Q1786.09 13.0277 1790.38 12.015 Q1794.68 11.0023 1798.24 11.0023 Q1807.64 11.0023 1813.23 15.7013 Q1818.82 20.4004 1818.82 28.2591 Q1818.82 31.9859 1817.4 35.3482 Q1816.02 38.6699 1812.34 43.2069 Q1811.32 44.3817 1805.9 50.0125 Q1800.47 55.6027 1790.58 65.6895 Z" fill="#000000" fill-rule="nonzero" fill-opacity="1" /><path clip-path="url(#clip450)" d="M1836.32 62.2867 L1844.87 62.2867 L1844.87 72.576 L1836.32 72.576 L1836.32 62.2867 Z" fill="#000000" fill-rule="nonzero" fill-opacity="1" /><path clip-path="url(#clip450)" d="M1880.19 17.4837 Q1873.87 17.4837 1870.67 23.7221 Q1867.51 29.92 1867.51 42.3968 Q1867.51 54.833 1870.67 61.0714 Q1873.87 67.2693 1880.19 67.2693 Q1886.55 67.2693 1889.71 61.0714 Q1892.91 54.833 1892.91 42.3968 Q1892.91 29.92 1889.71 23.7221 Q1886.55 17.4837 1880.19 17.4837 M1880.19 11.0023 Q1890.36 11.0023 1895.7 19.0636 Q1901.09 27.0843 1901.09 42.3968 Q1901.09 57.6687 1895.7 65.73 Q1890.36 73.7508 1880.19 73.7508 Q1870.02 73.7508 1864.63 65.73 Q1859.29 57.6687 1859.29 42.3968 Q1859.29 27.0843 1864.63 19.0636 Q1870.02 11.0023 1880.19 11.0023 Z" fill="#000000" fill-rule="nonzero" fill-opacity="1" /><path clip-path="url(#clip450)" d="M1963.76 9.54393 L1963.76 15.7418 L1956.63 15.7418 Q1952.62 15.7418 1951.04 17.3622 Q1949.5 18.9825 1949.5 23.1955 L1949.5 27.2059 L1961.78 27.2059 L1961.78 32.9987 L1949.5 32.9987 L1949.5 72.576 L1942.01 72.576 L1942.01 32.9987 L1934.88 32.9987 L1934.88 27.2059 L1942.01 27.2059 L1942.01 24.0462 Q1942.01 16.471 1945.53 13.0277 Q1949.06 9.54393 1956.71 9.54393 L1963.76 9.54393 Z" fill="#000000" fill-rule="nonzero" fill-opacity="1" /><path clip-path="url(#clip450)" d="M1970 27.2059 L1977.45 27.2059 L1977.45 72.576 L1970 72.576 L1970 27.2059 M1970 9.54393 L1977.45 9.54393 L1977.45 18.9825 L1970 18.9825 L1970 9.54393 Z" fill="#000000" fill-rule="nonzero" fill-opacity="1" /><path clip-path="url(#clip450)" d="M2022.9 34.0924 L2022.9 9.54393 L2030.36 9.54393 L2030.36 72.576 L2022.9 72.576 L2022.9 65.7705 Q2020.55 69.8214 2016.95 71.8063 Q2013.38 73.7508 2008.36 73.7508 Q2000.14 73.7508 1994.95 67.1883 Q1989.81 60.6258 1989.81 49.9314 Q1989.81 39.2371 1994.95 32.6746 Q2000.14 26.1121 2008.36 26.1121 Q2013.38 26.1121 2016.95 28.0971 Q2020.55 30.0415 2022.9 34.0924 M1997.5 49.9314 Q1997.5 58.1548 2000.87 62.8538 Q2004.27 67.5124 2010.18 67.5124 Q2016.1 67.5124 2019.5 62.8538 Q2022.9 58.1548 2022.9 49.9314 Q2022.9 41.7081 2019.5 37.0496 Q2016.1 32.3505 2010.18 32.3505 Q2004.27 32.3505 2000.87 37.0496 Q1997.5 41.7081 1997.5 49.9314 Z" fill="#000000" fill-rule="nonzero" fill-opacity="1" /><path clip-path="url(#clip450)" d="M2084.52 48.0275 L2084.52 51.6733 L2050.25 51.6733 Q2050.73 59.3701 2054.86 63.421 Q2059.04 67.4314 2066.45 67.4314 Q2070.74 67.4314 2074.75 66.3781 Q2078.81 65.3249 2082.78 63.2184 L2082.78 70.267 Q2078.77 71.9684 2074.55 72.8596 Q2070.34 73.7508 2066 73.7508 Q2055.15 73.7508 2048.79 67.4314 Q2042.47 61.1119 2042.47 50.3365 Q2042.47 39.1965 2048.46 32.6746 Q2054.5 26.1121 2064.71 26.1121 Q2073.86 26.1121 2079.17 32.0264 Q2084.52 37.9003 2084.52 48.0275 M2077.06 45.84 Q2076.98 39.7232 2073.62 36.0774 Q2070.3 32.4315 2064.79 32.4315 Q2058.55 32.4315 2054.78 35.9558 Q2051.06 39.4801 2050.49 45.8805 L2077.06 45.84 Z" fill="#000000" fill-rule="nonzero" fill-opacity="1" /><path clip-path="url(#clip450)" d="M2096.75 9.54393 L2104.2 9.54393 L2104.2 72.576 L2096.75 72.576 L2096.75 9.54393 Z" fill="#000000" fill-rule="nonzero" fill-opacity="1" /><path clip-path="url(#clip450)" d="M2119.8 27.2059 L2127.25 27.2059 L2127.25 72.576 L2119.8 72.576 L2119.8 27.2059 M2119.8 9.54393 L2127.25 9.54393 L2127.25 18.9825 L2119.8 18.9825 L2119.8 9.54393 Z" fill="#000000" fill-rule="nonzero" fill-opacity="1" /><path clip-path="url(#clip450)" d="M2150.22 14.324 L2150.22 27.2059 L2165.58 27.2059 L2165.58 32.9987 L2150.22 32.9987 L2150.22 57.6282 Q2150.22 63.1779 2151.72 64.7578 Q2153.26 66.3376 2157.92 66.3376 L2165.58 66.3376 L2165.58 72.576 L2157.92 72.576 Q2149.29 72.576 2146.01 69.3758 Q2142.73 66.1351 2142.73 57.6282 L2142.73 32.9987 L2137.26 32.9987 L2137.26 27.2059 L2142.73 27.2059 L2142.73 14.324 L2150.22 14.324 Z" fill="#000000" fill-rule="nonzero" fill-opacity="1" /><path clip-path="url(#clip450)" d="M2194.26 76.7889 Q2191.1 84.8907 2188.1 87.3618 Q2185.1 89.8329 2180.08 89.8329 L2174.12 89.8329 L2174.12 83.5945 L2178.5 83.5945 Q2181.58 83.5945 2183.28 82.1361 Q2184.98 80.6778 2187.05 75.2496 L2188.38 71.8468 L2170.03 27.2059 L2177.93 27.2059 L2192.11 62.6918 L2206.29 27.2059 L2214.19 27.2059 L2194.26 76.7889 Z" fill="#000000" fill-rule="nonzero" fill-opacity="1" /><path clip-path="url(#clip450)" d="M2225.45 34.9026 L2277.38 34.9026 L2277.38 41.7081 L2225.45 41.7081 L2225.45 34.9026 M2225.45 51.4303 L2277.38 51.4303 L2277.38 58.3168 L2225.45 58.3168 L2225.45 51.4303 Z" fill="#000000" fill-rule="nonzero" fill-opacity="1" /><path clip-path="url(#clip450)" d="M2296.46 65.6895 L2309.83 65.6895 L2309.83 19.5497 L2295.29 22.4663 L2295.29 15.0127 L2309.75 12.096 L2317.93 12.096 L2317.93 65.6895 L2331.3 65.6895 L2331.3 72.576 L2296.46 72.576 L2296.46 65.6895 Z" fill="#000000" fill-rule="nonzero" fill-opacity="1" /><path clip-path="url(#clip450)" d="M2347.83 62.2867 L2356.37 62.2867 L2356.37 72.576 L2347.83 72.576 L2347.83 62.2867 Z" fill="#000000" fill-rule="nonzero" fill-opacity="1" /><path clip-path="url(#clip450)" d="M2391.7 17.4837 Q2385.38 17.4837 2382.18 23.7221 Q2379.02 29.92 2379.02 42.3968 Q2379.02 54.833 2382.18 61.0714 Q2385.38 67.2693 2391.7 67.2693 Q2398.06 67.2693 2401.22 61.0714 Q2404.42 54.833 2404.42 42.3968 Q2404.42 29.92 2401.22 23.7221 Q2398.06 17.4837 2391.7 17.4837 M2391.7 11.0023 Q2401.87 11.0023 2407.21 19.0636 Q2412.6 27.0843 2412.6 42.3968 Q2412.6 57.6687 2407.21 65.73 Q2401.87 73.7508 2391.7 73.7508 Q2381.53 73.7508 2376.14 65.73 Q2370.79 57.6687 2370.79 42.3968 Q2370.79 27.0843 2376.14 19.0636 Q2381.53 11.0023 2391.7 11.0023 Z" fill="#000000" fill-rule="nonzero" fill-opacity="1" /><path clip-path="url(#clip452)" d="M404.198 204.724 L404.198 1546.66 L1495.35 1546.66 L1495.35 204.724 L404.198 204.724 L404.198 204.724  Z" fill="#0c7e8f" fill-rule="evenodd" fill-opacity="1"/>
<polyline clip-path="url(#clip452)" style="stroke:#000000; stroke-linecap:round; stroke-linejoin:round; stroke-width:4; stroke-opacity:1; fill:none" points="404.198,204.724 404.198,1546.66 1495.35,1546.66 1495.35,204.724 404.198,204.724 "/>
<path clip-path="url(#clip452)" d="M1768.14 215.417 L1768.14 1546.66 L2859.3 1546.66 L2859.3 215.417 L1768.14 215.417 L1768.14 215.417  Z" fill="#0c7e8f" fill-rule="evenodd" fill-opacity="1"/>
<polyline clip-path="url(#clip452)" style="stroke:#000000; stroke-linecap:round; stroke-linejoin:round; stroke-width:4; stroke-opacity:1; fill:none" points="1768.14,215.417 1768.14,1546.66 2859.3,1546.66 2859.3,215.417 1768.14,215.417 "/>
<circle clip-path="url(#clip452)" style="fill:#009af9; stroke:none; fill-opacity:0" cx="949.776" cy="204.724" r="2"/>
<circle clip-path="url(#clip452)" style="fill:#009af9; stroke:none; fill-opacity:0" cx="2313.72" cy="215.417" r="2"/>
</svg>
