<?xml version="1.0" encoding="utf-8"?>
<svg xmlns="http://www.w3.org/2000/svg" xmlns:xlink="http://www.w3.org/1999/xlink" width="800" height="500" viewBox="0 0 3200 2000">
<defs>
  <clipPath id="clip800">
    <rect x="0" y="0" width="3200" height="2000"/>
  </clipPath>
</defs>
<path clip-path="url(#clip800)" d="M0 2000 L3200 2000 L3200 0 L0 0  Z" fill="#ffffff" fill-rule="evenodd" fill-opacity="1"/>
<defs>
  <clipPath id="clip801">
    <rect x="640" y="0" width="2241" height="2000"/>
  </clipPath>
</defs>
<path clip-path="url(#clip800)" d="M382.045 1420.15 L3011.02 1420.15 L3011.02 261.424 L382.045 261.424  Z" fill="#ffffff" fill-rule="evenodd" fill-opacity="1"/>
<defs>
  <clipPath id="clip802">
    <rect x="382" y="261" width="2630" height="1160"/>
  </clipPath>
</defs>
<polyline clip-path="url(#clip802)" style="stroke:#000000; stroke-linecap:round; stroke-linejoin:round; stroke-width:2; stroke-opacity:0.1; fill:none" points="1046.6,1420.15 1046.6,261.424 "/>
<polyline clip-path="url(#clip802)" style="stroke:#000000; stroke-linecap:round; stroke-linejoin:round; stroke-width:2; stroke-opacity:0.1; fill:none" points="2346.47,1420.15 2346.47,261.424 "/>
<polyline clip-path="url(#clip802)" style="stroke:#000000; stroke-linecap:round; stroke-linejoin:round; stroke-width:2; stroke-opacity:0.1; fill:none" points="382.045,1420.15 3011.02,1420.15 "/>
<polyline clip-path="url(#clip802)" style="stroke:#000000; stroke-linecap:round; stroke-linejoin:round; stroke-width:2; stroke-opacity:0.1; fill:none" points="382.045,1193.84 3011.02,1193.84 "/>
<polyline clip-path="url(#clip802)" style="stroke:#000000; stroke-linecap:round; stroke-linejoin:round; stroke-width:2; stroke-opacity:0.1; fill:none" points="382.045,967.523 3011.02,967.523 "/>
<polyline clip-path="url(#clip802)" style="stroke:#000000; stroke-linecap:round; stroke-linejoin:round; stroke-width:2; stroke-opacity:0.1; fill:none" points="382.045,741.209 3011.02,741.209 "/>
<polyline clip-path="url(#clip802)" style="stroke:#000000; stroke-linecap:round; stroke-linejoin:round; stroke-width:2; stroke-opacity:0.1; fill:none" points="382.045,514.896 3011.02,514.896 "/>
<polyline clip-path="url(#clip802)" style="stroke:#000000; stroke-linecap:round; stroke-linejoin:round; stroke-width:2; stroke-opacity:0.1; fill:none" points="382.045,288.582 3011.02,288.582 "/>
<polyline clip-path="url(#clip800)" style="stroke:#000000; stroke-linecap:round; stroke-linejoin:round; stroke-width:4; stroke-opacity:1; fill:none" points="382.045,1420.15 3011.02,1420.15 "/>
<polyline clip-path="url(#clip800)" style="stroke:#000000; stroke-linecap:round; stroke-linejoin:round; stroke-width:4; stroke-opacity:1; fill:none" points="1046.6,1420.15 1046.6,1401.25 "/>
<polyline clip-path="url(#clip800)" style="stroke:#000000; stroke-linecap:round; stroke-linejoin:round; stroke-width:4; stroke-opacity:1; fill:none" points="2346.47,1420.15 2346.47,1401.25 "/>
<path clip-path="url(#clip800)" d="M1032.39 1729.15 Q1032.39 1732.76 1035.96 1734.59 Q1039.5 1736.4 1046.63 1736.4 Q1053.74 1736.4 1057.3 1734.59 Q1060.84 1732.76 1060.84 1729.15 Q1060.84 1725.52 1057.3 1723.71 Q1053.74 1721.88 1046.63 1721.88 Q1039.5 1721.88 1035.96 1723.71 Q1032.39 1725.52 1032.39 1729.15 M1028.69 1729.15 Q1028.69 1723.34 1033.3 1720.29 Q1037.88 1717.21 1046.63 1717.21 Q1055.36 1717.21 1059.96 1720.29 Q1064.55 1723.34 1064.55 1729.15 Q1064.55 1734.96 1059.96 1738.04 Q1055.36 1741.1 1046.63 1741.1 Q1037.88 1741.1 1033.3 1738.04 Q1028.69 1734.96 1028.69 1729.15 Z" fill="#000000" fill-rule="nonzero" fill-opacity="1" /><path clip-path="url(#clip800)" d="M1032.39 1698.99 Q1032.39 1702.6 1035.96 1704.43 Q1039.5 1706.24 1046.63 1706.24 Q1053.74 1706.24 1057.3 1704.43 Q1060.84 1702.6 1060.84 1698.99 Q1060.84 1695.36 1057.3 1693.55 Q1053.74 1691.72 1046.63 1691.72 Q1039.5 1691.72 1035.96 1693.55 Q1032.39 1695.36 1032.39 1698.99 M1028.69 1698.99 Q1028.69 1693.18 1033.3 1690.12 Q1037.88 1687.05 1046.63 1687.05 Q1055.36 1687.05 1059.96 1690.12 Q1064.55 1693.18 1064.55 1698.99 Q1064.55 1704.8 1059.96 1707.88 Q1055.36 1710.93 1046.63 1710.93 Q1037.88 1710.93 1033.3 1707.88 Q1028.69 1704.8 1028.69 1698.99 Z" fill="#000000" fill-rule="nonzero" fill-opacity="1" /><path clip-path="url(#clip800)" d="M1032.39 1668.83 Q1032.39 1672.44 1035.96 1674.27 Q1039.5 1676.07 1046.63 1676.07 Q1053.74 1676.07 1057.3 1674.27 Q1060.84 1672.44 1060.84 1668.83 Q1060.84 1665.19 1057.3 1663.39 Q1053.74 1661.56 1046.63 1661.56 Q1039.5 1661.56 1035.96 1663.39 Q1032.39 1665.19 1032.39 1668.83 M1028.69 1668.83 Q1028.69 1663.02 1033.3 1659.96 Q1037.88 1656.88 1046.63 1656.88 Q1055.36 1656.88 1059.96 1659.96 Q1064.55 1663.02 1064.55 1668.83 Q1064.55 1674.64 1059.96 1677.72 Q1055.36 1680.77 1046.63 1680.77 Q1037.88 1680.77 1033.3 1677.72 Q1028.69 1674.64 1028.69 1668.83 Z" fill="#000000" fill-rule="nonzero" fill-opacity="1" /><path clip-path="url(#clip800)" d="M1032.39 1638.67 Q1032.39 1642.28 1035.96 1644.11 Q1039.5 1645.91 1046.63 1645.91 Q1053.74 1645.91 1057.3 1644.11 Q1060.84 1642.28 1060.84 1638.67 Q1060.84 1635.03 1057.3 1633.23 Q1053.74 1631.4 1046.63 1631.4 Q1039.5 1631.4 1035.96 1633.23 Q1032.39 1635.03 1032.39 1638.67 M1028.69 1638.67 Q1028.69 1632.86 1033.3 1629.8 Q1037.88 1626.72 1046.63 1626.72 Q1055.36 1626.72 1059.96 1629.8 Q1064.55 1632.86 1064.55 1638.67 Q1064.55 1644.48 1059.96 1647.55 Q1055.36 1650.61 1046.63 1650.61 Q1037.88 1650.61 1033.3 1647.55 Q1028.69 1644.48 1028.69 1638.67 Z" fill="#000000" fill-rule="nonzero" fill-opacity="1" /><path clip-path="url(#clip800)" d="M1032.39 1608.5 Q1032.39 1612.12 1035.96 1613.94 Q1039.5 1615.75 1046.63 1615.75 Q1053.74 1615.75 1057.3 1613.94 Q1060.84 1612.12 1060.84 1608.5 Q1060.84 1604.87 1057.3 1603.06 Q1053.74 1601.24 1046.63 1601.24 Q1039.5 1601.24 1035.96 1603.06 Q1032.39 1604.87 1032.39 1608.5 M1028.69 1608.5 Q1028.69 1602.69 1033.3 1599.64 Q1037.88 1596.56 1046.63 1596.56 Q1055.36 1596.56 1059.96 1599.64 Q1064.55 1602.69 1064.55 1608.5 Q1064.55 1614.31 1059.96 1617.39 Q1055.36 1620.45 1046.63 1620.45 Q1037.88 1620.45 1033.3 1617.39 Q1028.69 1614.31 1028.69 1608.5 Z" fill="#000000" fill-rule="nonzero" fill-opacity="1" /><path clip-path="url(#clip800)" d="M1032.39 1578.34 Q1032.39 1581.95 1035.96 1583.78 Q1039.5 1585.59 1046.63 1585.59 Q1053.74 1585.59 1057.3 1583.78 Q1060.84 1581.95 1060.84 1578.34 Q1060.84 1574.71 1057.3 1572.9 Q1053.74 1571.07 1046.63 1571.07 Q1039.5 1571.07 1035.96 1572.9 Q1032.39 1574.71 1032.39 1578.34 M1028.69 1578.34 Q1028.69 1572.53 1033.3 1569.48 Q1037.88 1566.4 1046.63 1566.4 Q1055.36 1566.4 1059.96 1569.48 Q1064.55 1572.53 1064.55 1578.34 Q1064.55 1584.15 1059.96 1587.23 Q1055.36 1590.29 1046.63 1590.29 Q1037.88 1590.29 1033.3 1587.23 Q1028.69 1584.15 1028.69 1578.34 Z" fill="#000000" fill-rule="nonzero" fill-opacity="1" /><path clip-path="url(#clip800)" d="M1032.39 1548.18 Q1032.39 1551.79 1035.96 1553.62 Q1039.5 1555.43 1046.63 1555.43 Q1053.74 1555.43 1057.3 1553.62 Q1060.84 1551.79 1060.84 1548.18 Q1060.84 1544.55 1057.3 1542.74 Q1053.74 1540.91 1046.63 1540.91 Q1039.5 1540.91 1035.96 1542.74 Q1032.39 1544.55 1032.39 1548.18 M1028.69 1548.18 Q1028.69 1542.37 1033.3 1539.31 Q1037.88 1536.24 1046.63 1536.24 Q1055.36 1536.24 1059.96 1539.31 Q1064.55 1542.37 1064.55 1548.18 Q1064.55 1553.99 1059.96 1557.07 Q1055.36 1560.12 1046.63 1560.12 Q1037.88 1560.12 1033.3 1557.07 Q1028.69 1553.99 1028.69 1548.18 Z" fill="#000000" fill-rule="nonzero" fill-opacity="1" /><path clip-path="url(#clip800)" d="M1032.39 1518.02 Q1032.39 1521.63 1035.96 1523.46 Q1039.5 1525.26 1046.63 1525.26 Q1053.74 1525.26 1057.3 1523.46 Q1060.84 1521.63 1060.84 1518.02 Q1060.84 1514.38 1057.3 1512.58 Q1053.74 1510.75 1046.63 1510.75 Q1039.5 1510.75 1035.96 1512.58 Q1032.39 1514.38 1032.39 1518.02 M1028.69 1518.02 Q1028.69 1512.21 1033.3 1509.15 Q1037.88 1506.07 1046.63 1506.07 Q1055.36 1506.07 1059.96 1509.15 Q1064.55 1512.21 1064.55 1518.02 Q1064.55 1523.83 1059.96 1526.91 Q1055.36 1529.96 1046.63 1529.96 Q1037.88 1529.96 1033.3 1526.91 Q1028.69 1523.83 1028.69 1518.02 Z" fill="#000000" fill-rule="nonzero" fill-opacity="1" /><path clip-path="url(#clip800)" d="M1032.39 1487.86 Q1032.39 1491.47 1035.96 1493.3 Q1039.5 1495.1 1046.63 1495.1 Q1053.74 1495.1 1057.3 1493.3 Q1060.84 1491.47 1060.84 1487.86 Q1060.84 1484.22 1057.3 1482.42 Q1053.74 1480.59 1046.63 1480.59 Q1039.5 1480.59 1035.96 1482.42 Q1032.39 1484.22 1032.39 1487.86 M1028.69 1487.86 Q1028.69 1482.05 1033.3 1478.99 Q1037.88 1475.91 1046.63 1475.91 Q1055.36 1475.91 1059.96 1478.99 Q1064.55 1482.05 1064.55 1487.86 Q1064.55 1493.67 1059.96 1496.75 Q1055.36 1499.8 1046.63 1499.8 Q1037.88 1499.8 1033.3 1496.75 Q1028.69 1493.67 1028.69 1487.86 Z" fill="#000000" fill-rule="nonzero" fill-opacity="1" /><path clip-path="url(#clip800)" d="M1032.39 1457.69 Q1032.39 1461.31 1035.96 1463.13 Q1039.5 1464.94 1046.63 1464.94 Q1053.74 1464.94 1057.3 1463.13 Q1060.84 1461.31 1060.84 1457.69 Q1060.84 1454.06 1057.3 1452.25 Q1053.74 1450.43 1046.63 1450.43 Q1039.5 1450.43 1035.96 1452.25 Q1032.39 1454.06 1032.39 1457.69 M1028.69 1457.69 Q1028.69 1451.88 1033.3 1448.83 Q1037.88 1445.75 1046.63 1445.75 Q1055.36 1445.75 1059.96 1448.83 Q1064.55 1451.88 1064.55 1457.69 Q1064.55 1463.5 1059.96 1466.58 Q1055.36 1469.64 1046.63 1469.64 Q1037.88 1469.64 1033.3 1466.58 Q1028.69 1463.5 1028.69 1457.69 Z" fill="#000000" fill-rule="nonzero" fill-opacity="1" /><path clip-path="url(#clip800)" d="M2359.82 1737.11 L2359.82 1729.48 L2333.45 1729.48 L2335.12 1737.79 L2330.86 1737.79 L2329.19 1729.52 L2329.19 1724.85 L2359.82 1724.85 L2359.82 1717.21 L2363.75 1717.21 L2363.75 1737.11 L2359.82 1737.11 Z" fill="#000000" fill-rule="nonzero" fill-opacity="1" /><path clip-path="url(#clip800)" d="M2359.82 1706.95 L2359.82 1699.31 L2333.45 1699.31 L2335.12 1707.62 L2330.86 1707.62 L2329.19 1699.36 L2329.19 1694.68 L2359.82 1694.68 L2359.82 1687.05 L2363.75 1687.05 L2363.75 1706.95 L2359.82 1706.95 Z" fill="#000000" fill-rule="nonzero" fill-opacity="1" /><path clip-path="url(#clip800)" d="M2359.82 1676.79 L2359.82 1669.15 L2333.45 1669.15 L2335.12 1677.46 L2330.86 1677.46 L2329.19 1669.2 L2329.19 1664.52 L2359.82 1664.52 L2359.82 1656.88 L2363.75 1656.88 L2363.75 1676.79 L2359.82 1676.79 Z" fill="#000000" fill-rule="nonzero" fill-opacity="1" /><path clip-path="url(#clip800)" d="M2359.82 1646.63 L2359.82 1638.99 L2333.45 1638.99 L2335.12 1647.3 L2330.86 1647.3 L2329.19 1639.04 L2329.19 1634.36 L2359.82 1634.36 L2359.82 1626.72 L2363.75 1626.72 L2363.75 1646.63 L2359.82 1646.63 Z" fill="#000000" fill-rule="nonzero" fill-opacity="1" /><path clip-path="url(#clip800)" d="M2359.82 1616.47 L2359.82 1608.83 L2333.45 1608.83 L2335.12 1617.14 L2330.86 1617.14 L2329.19 1608.87 L2329.19 1604.2 L2359.82 1604.2 L2359.82 1596.56 L2363.75 1596.56 L2363.75 1616.47 L2359.82 1616.47 Z" fill="#000000" fill-rule="nonzero" fill-opacity="1" /><path clip-path="url(#clip800)" d="M2359.82 1586.31 L2359.82 1578.67 L2333.45 1578.67 L2335.12 1586.98 L2330.86 1586.98 L2329.19 1578.71 L2329.19 1574.04 L2359.82 1574.04 L2359.82 1566.4 L2363.75 1566.4 L2363.75 1586.31 L2359.82 1586.31 Z" fill="#000000" fill-rule="nonzero" fill-opacity="1" /><path clip-path="url(#clip800)" d="M2359.82 1556.14 L2359.82 1548.5 L2333.45 1548.5 L2335.12 1556.81 L2330.86 1556.81 L2329.19 1548.55 L2329.19 1543.87 L2359.82 1543.87 L2359.82 1536.24 L2363.75 1536.24 L2363.75 1556.14 L2359.82 1556.14 Z" fill="#000000" fill-rule="nonzero" fill-opacity="1" /><path clip-path="url(#clip800)" d="M2359.82 1525.98 L2359.82 1518.34 L2333.45 1518.34 L2335.12 1526.65 L2330.86 1526.65 L2329.19 1518.39 L2329.19 1513.71 L2359.82 1513.71 L2359.82 1506.07 L2363.75 1506.07 L2363.75 1525.98 L2359.82 1525.98 Z" fill="#000000" fill-rule="nonzero" fill-opacity="1" /><path clip-path="url(#clip800)" d="M2359.82 1495.82 L2359.82 1488.18 L2333.45 1488.18 L2335.12 1496.49 L2330.86 1496.49 L2329.19 1488.23 L2329.19 1483.55 L2359.82 1483.55 L2359.82 1475.91 L2363.75 1475.91 L2363.75 1495.82 L2359.82 1495.82 Z" fill="#000000" fill-rule="nonzero" fill-opacity="1" /><path clip-path="url(#clip800)" d="M2359.82 1465.66 L2359.82 1458.02 L2333.45 1458.02 L2335.12 1466.33 L2330.86 1466.33 L2329.19 1458.07 L2329.19 1453.39 L2359.82 1453.39 L2359.82 1445.75 L2363.75 1445.75 L2363.75 1465.66 L2359.82 1465.66 Z" fill="#000000" fill-rule="nonzero" fill-opacity="1" /><path clip-path="url(#clip800)" d="M1571.37 1797.83 L1571.37 1815.24 L1581.68 1815.24 Q1586.87 1815.24 1589.35 1813.1 Q1591.87 1810.94 1591.87 1806.52 Q1591.87 1802.06 1589.35 1799.96 Q1586.87 1797.83 1581.68 1797.83 L1571.37 1797.83 M1571.37 1778.28 L1571.37 1792.61 L1580.89 1792.61 Q1585.6 1792.61 1587.89 1790.86 Q1590.21 1789.07 1590.21 1785.44 Q1590.21 1781.85 1587.89 1780.07 Q1585.6 1778.28 1580.89 1778.28 L1571.37 1778.28 M1564.94 1773 L1581.36 1773 Q1588.72 1773 1592.69 1776.06 Q1596.67 1779.11 1596.67 1784.74 Q1596.67 1789.11 1594.64 1791.68 Q1592.6 1794.26 1588.65 1794.9 Q1593.39 1795.92 1596 1799.16 Q1598.65 1802.38 1598.65 1807.22 Q1598.65 1813.58 1594.32 1817.05 Q1589.99 1820.52 1582 1820.52 L1564.94 1820.52 L1564.94 1773 Z" fill="#000000" fill-rule="nonzero" fill-opacity="1" /><path clip-path="url(#clip800)" d="M1609.4 1784.87 L1615.26 1784.87 L1615.26 1820.52 L1609.4 1820.52 L1609.4 1784.87 M1609.4 1770.99 L1615.26 1770.99 L1615.26 1778.41 L1609.4 1778.41 L1609.4 1770.99 Z" fill="#000000" fill-rule="nonzero" fill-opacity="1" /><path clip-path="url(#clip800)" d="M1633.31 1774.75 L1633.31 1784.87 L1645.37 1784.87 L1645.37 1789.42 L1633.31 1789.42 L1633.31 1808.78 Q1633.31 1813.14 1634.48 1814.38 Q1635.69 1815.62 1639.35 1815.62 L1645.37 1815.62 L1645.37 1820.52 L1639.35 1820.52 Q1632.57 1820.52 1630 1818.01 Q1627.42 1815.46 1627.42 1808.78 L1627.42 1789.42 L1623.12 1789.42 L1623.12 1784.87 L1627.42 1784.87 L1627.42 1774.75 L1633.31 1774.75 Z" fill="#000000" fill-rule="nonzero" fill-opacity="1" /><path clip-path="url(#clip800)" d="M1675.8 1785.92 L1675.8 1791.46 Q1673.32 1790.19 1670.64 1789.55 Q1667.97 1788.91 1665.1 1788.91 Q1660.74 1788.91 1658.55 1790.25 Q1656.38 1791.59 1656.38 1794.26 Q1656.38 1796.3 1657.94 1797.48 Q1659.5 1798.62 1664.21 1799.67 L1666.22 1800.12 Q1672.46 1801.45 1675.07 1803.91 Q1677.71 1806.32 1677.71 1810.68 Q1677.71 1815.65 1673.76 1818.55 Q1669.85 1821.44 1662.97 1821.44 Q1660.11 1821.44 1656.99 1820.87 Q1653.9 1820.33 1650.46 1819.21 L1650.46 1813.17 Q1653.71 1814.85 1656.86 1815.71 Q1660.01 1816.54 1663.1 1816.54 Q1667.24 1816.54 1669.46 1815.14 Q1671.69 1813.71 1671.69 1811.13 Q1671.69 1808.74 1670.07 1807.47 Q1668.48 1806.2 1663.03 1805.02 L1661 1804.54 Q1655.56 1803.4 1653.14 1801.04 Q1650.72 1798.65 1650.72 1794.52 Q1650.72 1789.49 1654.28 1786.75 Q1657.85 1784.01 1664.4 1784.01 Q1667.65 1784.01 1670.51 1784.49 Q1673.38 1784.97 1675.8 1785.92 Z" fill="#000000" fill-rule="nonzero" fill-opacity="1" /><path clip-path="url(#clip800)" d="M1692.83 1774.75 L1692.83 1784.87 L1704.89 1784.87 L1704.89 1789.42 L1692.83 1789.42 L1692.83 1808.78 Q1692.83 1813.14 1694 1814.38 Q1695.21 1815.62 1698.87 1815.62 L1704.89 1815.62 L1704.89 1820.52 L1698.87 1820.52 Q1692.09 1820.52 1689.52 1818.01 Q1686.94 1815.46 1686.94 1808.78 L1686.94 1789.42 L1682.64 1789.42 L1682.64 1784.87 L1686.94 1784.87 L1686.94 1774.75 L1692.83 1774.75 Z" fill="#000000" fill-rule="nonzero" fill-opacity="1" /><path clip-path="url(#clip800)" d="M1733.25 1790.35 Q1732.26 1789.77 1731.08 1789.52 Q1729.94 1789.23 1728.54 1789.23 Q1723.57 1789.23 1720.9 1792.48 Q1718.26 1795.69 1718.26 1801.74 L1718.26 1820.52 L1712.37 1820.52 L1712.37 1784.87 L1718.26 1784.87 L1718.26 1790.41 Q1720.1 1787.16 1723.06 1785.6 Q1726.02 1784.01 1730.26 1784.01 Q1730.86 1784.01 1731.59 1784.11 Q1732.33 1784.17 1733.22 1784.33 L1733.25 1790.35 Z" fill="#000000" fill-rule="nonzero" fill-opacity="1" /><path clip-path="url(#clip800)" d="M1739.39 1784.87 L1745.25 1784.87 L1745.25 1820.52 L1739.39 1820.52 L1739.39 1784.87 M1739.39 1770.99 L1745.25 1770.99 L1745.25 1778.41 L1739.39 1778.41 L1739.39 1770.99 Z" fill="#000000" fill-rule="nonzero" fill-opacity="1" /><path clip-path="url(#clip800)" d="M1787.13 1799 L1787.13 1820.52 L1781.28 1820.52 L1781.28 1799.19 Q1781.28 1794.13 1779.3 1791.62 Q1777.33 1789.11 1773.38 1789.11 Q1768.64 1789.11 1765.9 1792.13 Q1763.17 1795.15 1763.17 1800.37 L1763.17 1820.52 L1757.28 1820.52 L1757.28 1784.87 L1763.17 1784.87 L1763.17 1790.41 Q1765.27 1787.2 1768.1 1785.6 Q1770.97 1784.01 1774.69 1784.01 Q1780.83 1784.01 1783.98 1787.83 Q1787.13 1791.62 1787.13 1799 Z" fill="#000000" fill-rule="nonzero" fill-opacity="1" /><path clip-path="url(#clip800)" d="M1822.27 1802.28 Q1822.27 1795.92 1819.63 1792.42 Q1817.02 1788.91 1812.28 1788.91 Q1807.57 1788.91 1804.93 1792.42 Q1802.32 1795.92 1802.32 1802.28 Q1802.32 1808.62 1804.93 1812.12 Q1807.57 1815.62 1812.28 1815.62 Q1817.02 1815.62 1819.63 1812.12 Q1822.27 1808.62 1822.27 1802.28 M1828.13 1816.1 Q1828.13 1825.2 1824.09 1829.62 Q1820.05 1834.08 1811.71 1834.08 Q1808.62 1834.08 1805.88 1833.6 Q1803.14 1833.16 1800.57 1832.2 L1800.57 1826.5 Q1803.14 1827.9 1805.66 1828.57 Q1808.17 1829.24 1810.78 1829.24 Q1816.54 1829.24 1819.41 1826.22 Q1822.27 1823.23 1822.27 1817.15 L1822.27 1814.25 Q1820.46 1817.4 1817.63 1818.96 Q1814.79 1820.52 1810.85 1820.52 Q1804.29 1820.52 1800.28 1815.52 Q1796.27 1810.53 1796.27 1802.28 Q1796.27 1794.01 1800.28 1789.01 Q1804.29 1784.01 1810.85 1784.01 Q1814.79 1784.01 1817.63 1785.57 Q1820.46 1787.13 1822.27 1790.28 L1822.27 1784.87 L1828.13 1784.87 L1828.13 1816.1 Z" fill="#000000" fill-rule="nonzero" fill-opacity="1" /><polyline clip-path="url(#clip800)" style="stroke:#000000; stroke-linecap:round; stroke-linejoin:round; stroke-width:4; stroke-opacity:1; fill:none" points="382.045,1420.15 382.045,261.424 "/>
<polyline clip-path="url(#clip800)" style="stroke:#000000; stroke-linecap:round; stroke-linejoin:round; stroke-width:4; stroke-opacity:1; fill:none" points="382.045,1420.15 400.943,1420.15 "/>
<polyline clip-path="url(#clip800)" style="stroke:#000000; stroke-linecap:round; stroke-linejoin:round; stroke-width:4; stroke-opacity:1; fill:none" points="382.045,1193.84 400.943,1193.84 "/>
<polyline clip-path="url(#clip800)" style="stroke:#000000; stroke-linecap:round; stroke-linejoin:round; stroke-width:4; stroke-opacity:1; fill:none" points="382.045,967.523 400.943,967.523 "/>
<polyline clip-path="url(#clip800)" style="stroke:#000000; stroke-linecap:round; stroke-linejoin:round; stroke-width:4; stroke-opacity:1; fill:none" points="382.045,741.209 400.943,741.209 "/>
<polyline clip-path="url(#clip800)" style="stroke:#000000; stroke-linecap:round; stroke-linejoin:round; stroke-width:4; stroke-opacity:1; fill:none" points="382.045,514.896 400.943,514.896 "/>
<polyline clip-path="url(#clip800)" style="stroke:#000000; stroke-linecap:round; stroke-linejoin:round; stroke-width:4; stroke-opacity:1; fill:none" points="382.045,288.582 400.943,288.582 "/>
<path clip-path="url(#clip800)" d="M322.101 1405.95 Q318.49 1405.95 316.661 1409.51 Q314.855 1413.06 314.855 1420.19 Q314.855 1427.29 316.661 1430.86 Q318.49 1434.4 322.101 1434.4 Q325.735 1434.4 327.541 1430.86 Q329.369 1427.29 329.369 1420.19 Q329.369 1413.06 327.541 1409.51 Q325.735 1405.95 322.101 1405.95 M322.101 1402.25 Q327.911 1402.25 330.966 1406.85 Q334.045 1411.44 334.045 1420.19 Q334.045 1428.91 330.966 1433.52 Q327.911 1438.1 322.101 1438.1 Q316.291 1438.1 313.212 1433.52 Q310.156 1428.91 310.156 1420.19 Q310.156 1411.44 313.212 1406.85 Q316.291 1402.25 322.101 1402.25 Z" fill="#000000" fill-rule="nonzero" fill-opacity="1" /><path clip-path="url(#clip800)" d="M252.587 1207.18 L260.226 1207.18 L260.226 1180.82 L251.916 1182.48 L251.916 1178.22 L260.18 1176.56 L264.856 1176.56 L264.856 1207.18 L272.495 1207.18 L272.495 1211.12 L252.587 1211.12 L252.587 1207.18 Z" fill="#000000" fill-rule="nonzero" fill-opacity="1" /><path clip-path="url(#clip800)" d="M291.939 1179.64 Q288.328 1179.64 286.499 1183.2 Q284.694 1186.74 284.694 1193.87 Q284.694 1200.98 286.499 1204.54 Q288.328 1208.08 291.939 1208.08 Q295.573 1208.08 297.379 1204.54 Q299.207 1200.98 299.207 1193.87 Q299.207 1186.74 297.379 1183.2 Q295.573 1179.64 291.939 1179.64 M291.939 1175.93 Q297.749 1175.93 300.805 1180.54 Q303.883 1185.12 303.883 1193.87 Q303.883 1202.6 300.805 1207.2 Q297.749 1211.79 291.939 1211.79 Q286.129 1211.79 283.05 1207.2 Q279.994 1202.6 279.994 1193.87 Q279.994 1185.12 283.05 1180.54 Q286.129 1175.93 291.939 1175.93 Z" fill="#000000" fill-rule="nonzero" fill-opacity="1" /><path clip-path="url(#clip800)" d="M322.101 1179.64 Q318.49 1179.64 316.661 1183.2 Q314.855 1186.74 314.855 1193.87 Q314.855 1200.98 316.661 1204.54 Q318.49 1208.08 322.101 1208.08 Q325.735 1208.08 327.541 1204.54 Q329.369 1200.98 329.369 1193.87 Q329.369 1186.74 327.541 1183.2 Q325.735 1179.64 322.101 1179.64 M322.101 1175.93 Q327.911 1175.93 330.966 1180.54 Q334.045 1185.12 334.045 1193.87 Q334.045 1202.6 330.966 1207.2 Q327.911 1211.79 322.101 1211.79 Q316.291 1211.79 313.212 1207.2 Q310.156 1202.6 310.156 1193.87 Q310.156 1185.12 313.212 1180.54 Q316.291 1175.93 322.101 1175.93 Z" fill="#000000" fill-rule="nonzero" fill-opacity="1" /><path clip-path="url(#clip800)" d="M255.805 980.868 L272.124 980.868 L272.124 984.803 L250.18 984.803 L250.18 980.868 Q252.842 978.113 257.425 973.484 Q262.032 968.831 263.212 967.488 Q265.458 964.965 266.337 963.229 Q267.24 961.47 267.24 959.78 Q267.24 957.025 265.296 955.289 Q263.374 953.553 260.272 953.553 Q258.073 953.553 255.62 954.317 Q253.189 955.081 250.411 956.632 L250.411 951.91 Q253.235 950.775 255.689 950.197 Q258.143 949.618 260.18 949.618 Q265.55 949.618 268.745 952.303 Q271.939 954.988 271.939 959.479 Q271.939 961.609 271.129 963.53 Q270.342 965.428 268.235 968.021 Q267.657 968.692 264.555 971.91 Q261.453 975.104 255.805 980.868 Z" fill="#000000" fill-rule="nonzero" fill-opacity="1" /><path clip-path="url(#clip800)" d="M291.939 953.322 Q288.328 953.322 286.499 956.886 Q284.694 960.428 284.694 967.558 Q284.694 974.664 286.499 978.229 Q288.328 981.771 291.939 981.771 Q295.573 981.771 297.379 978.229 Q299.207 974.664 299.207 967.558 Q299.207 960.428 297.379 956.886 Q295.573 953.322 291.939 953.322 M291.939 949.618 Q297.749 949.618 300.805 954.224 Q303.883 958.808 303.883 967.558 Q303.883 976.285 300.805 980.891 Q297.749 985.474 291.939 985.474 Q286.129 985.474 283.05 980.891 Q279.994 976.285 279.994 967.558 Q279.994 958.808 283.05 954.224 Q286.129 949.618 291.939 949.618 Z" fill="#000000" fill-rule="nonzero" fill-opacity="1" /><path clip-path="url(#clip800)" d="M322.101 953.322 Q318.49 953.322 316.661 956.886 Q314.855 960.428 314.855 967.558 Q314.855 974.664 316.661 978.229 Q318.49 981.771 322.101 981.771 Q325.735 981.771 327.541 978.229 Q329.369 974.664 329.369 967.558 Q329.369 960.428 327.541 956.886 Q325.735 953.322 322.101 953.322 M322.101 949.618 Q327.911 949.618 330.966 954.224 Q334.045 958.808 334.045 967.558 Q334.045 976.285 330.966 980.891 Q327.911 985.474 322.101 985.474 Q316.291 985.474 313.212 980.891 Q310.156 976.285 310.156 967.558 Q310.156 958.808 313.212 954.224 Q316.291 949.618 322.101 949.618 Z" fill="#000000" fill-rule="nonzero" fill-opacity="1" /><path clip-path="url(#clip800)" d="M265.944 739.855 Q269.3 740.573 271.175 742.841 Q273.073 745.11 273.073 748.443 Q273.073 753.559 269.555 756.36 Q266.036 759.161 259.555 759.161 Q257.379 759.161 255.064 758.721 Q252.772 758.304 250.319 757.448 L250.319 752.934 Q252.263 754.068 254.578 754.647 Q256.893 755.225 259.416 755.225 Q263.814 755.225 266.106 753.489 Q268.42 751.753 268.42 748.443 Q268.42 745.388 266.268 743.675 Q264.138 741.939 260.319 741.939 L256.291 741.939 L256.291 738.096 L260.504 738.096 Q263.953 738.096 265.782 736.73 Q267.61 735.341 267.61 732.749 Q267.61 730.087 265.712 728.675 Q263.837 727.24 260.319 727.24 Q258.397 727.24 256.198 727.656 Q253.999 728.073 251.36 728.952 L251.36 724.786 Q254.022 724.045 256.337 723.675 Q258.675 723.304 260.735 723.304 Q266.059 723.304 269.161 725.735 Q272.263 728.142 272.263 732.263 Q272.263 735.133 270.62 737.124 Q268.976 739.091 265.944 739.855 Z" fill="#000000" fill-rule="nonzero" fill-opacity="1" /><path clip-path="url(#clip800)" d="M291.939 727.008 Q288.328 727.008 286.499 730.573 Q284.694 734.114 284.694 741.244 Q284.694 748.351 286.499 751.915 Q288.328 755.457 291.939 755.457 Q295.573 755.457 297.379 751.915 Q299.207 748.351 299.207 741.244 Q299.207 734.114 297.379 730.573 Q295.573 727.008 291.939 727.008 M291.939 723.304 Q297.749 723.304 300.805 727.911 Q303.883 732.494 303.883 741.244 Q303.883 749.971 300.805 754.577 Q297.749 759.161 291.939 759.161 Q286.129 759.161 283.05 754.577 Q279.994 749.971 279.994 741.244 Q279.994 732.494 283.05 727.911 Q286.129 723.304 291.939 723.304 Z" fill="#000000" fill-rule="nonzero" fill-opacity="1" /><path clip-path="url(#clip800)" d="M322.101 727.008 Q318.49 727.008 316.661 730.573 Q314.855 734.114 314.855 741.244 Q314.855 748.351 316.661 751.915 Q318.49 755.457 322.101 755.457 Q325.735 755.457 327.541 751.915 Q329.369 748.351 329.369 741.244 Q329.369 734.114 327.541 730.573 Q325.735 727.008 322.101 727.008 M322.101 723.304 Q327.911 723.304 330.966 727.911 Q334.045 732.494 334.045 741.244 Q334.045 749.971 330.966 754.577 Q327.911 759.161 322.101 759.161 Q316.291 759.161 313.212 754.577 Q310.156 749.971 310.156 741.244 Q310.156 732.494 313.212 727.911 Q316.291 723.304 322.101 723.304 Z" fill="#000000" fill-rule="nonzero" fill-opacity="1" /><path clip-path="url(#clip800)" d="M264.624 501.69 L252.819 520.139 L264.624 520.139 L264.624 501.69 M263.397 497.616 L269.277 497.616 L269.277 520.139 L274.207 520.139 L274.207 524.028 L269.277 524.028 L269.277 532.176 L264.624 532.176 L264.624 524.028 L249.022 524.028 L249.022 519.514 L263.397 497.616 Z" fill="#000000" fill-rule="nonzero" fill-opacity="1" /><path clip-path="url(#clip800)" d="M291.939 500.694 Q288.328 500.694 286.499 504.259 Q284.694 507.801 284.694 514.93 Q284.694 522.037 286.499 525.602 Q288.328 529.143 291.939 529.143 Q295.573 529.143 297.379 525.602 Q299.207 522.037 299.207 514.93 Q299.207 507.801 297.379 504.259 Q295.573 500.694 291.939 500.694 M291.939 496.991 Q297.749 496.991 300.805 501.597 Q303.883 506.18 303.883 514.93 Q303.883 523.657 300.805 528.264 Q297.749 532.847 291.939 532.847 Q286.129 532.847 283.05 528.264 Q279.994 523.657 279.994 514.93 Q279.994 506.18 283.05 501.597 Q286.129 496.991 291.939 496.991 Z" fill="#000000" fill-rule="nonzero" fill-opacity="1" /><path clip-path="url(#clip800)" d="M322.101 500.694 Q318.49 500.694 316.661 504.259 Q314.855 507.801 314.855 514.93 Q314.855 522.037 316.661 525.602 Q318.49 529.143 322.101 529.143 Q325.735 529.143 327.541 525.602 Q329.369 522.037 329.369 514.93 Q329.369 507.801 327.541 504.259 Q325.735 500.694 322.101 500.694 M322.101 496.991 Q327.911 496.991 330.966 501.597 Q334.045 506.18 334.045 514.93 Q334.045 523.657 330.966 528.264 Q327.911 532.847 322.101 532.847 Q316.291 532.847 313.212 528.264 Q310.156 523.657 310.156 514.93 Q310.156 506.18 313.212 501.597 Q316.291 496.991 322.101 496.991 Z" fill="#000000" fill-rule="nonzero" fill-opacity="1" /><path clip-path="url(#clip800)" d="M251.823 271.302 L270.18 271.302 L270.18 275.237 L256.106 275.237 L256.106 283.709 Q257.124 283.362 258.143 283.2 Q259.161 283.015 260.18 283.015 Q265.967 283.015 269.346 286.186 Q272.726 289.358 272.726 294.774 Q272.726 300.353 269.254 303.455 Q265.782 306.533 259.462 306.533 Q257.286 306.533 255.018 306.163 Q252.772 305.793 250.365 305.052 L250.365 300.353 Q252.448 301.487 254.671 302.043 Q256.893 302.598 259.37 302.598 Q263.374 302.598 265.712 300.492 Q268.05 298.385 268.05 294.774 Q268.05 291.163 265.712 289.057 Q263.374 286.95 259.37 286.95 Q257.495 286.95 255.62 287.367 Q253.768 287.783 251.823 288.663 L251.823 271.302 Z" fill="#000000" fill-rule="nonzero" fill-opacity="1" /><path clip-path="url(#clip800)" d="M291.939 274.381 Q288.328 274.381 286.499 277.946 Q284.694 281.487 284.694 288.617 Q284.694 295.723 286.499 299.288 Q288.328 302.83 291.939 302.83 Q295.573 302.83 297.379 299.288 Q299.207 295.723 299.207 288.617 Q299.207 281.487 297.379 277.946 Q295.573 274.381 291.939 274.381 M291.939 270.677 Q297.749 270.677 300.805 275.284 Q303.883 279.867 303.883 288.617 Q303.883 297.344 300.805 301.95 Q297.749 306.533 291.939 306.533 Q286.129 306.533 283.05 301.95 Q279.994 297.344 279.994 288.617 Q279.994 279.867 283.05 275.284 Q286.129 270.677 291.939 270.677 Z" fill="#000000" fill-rule="nonzero" fill-opacity="1" /><path clip-path="url(#clip800)" d="M322.101 274.381 Q318.49 274.381 316.661 277.946 Q314.855 281.487 314.855 288.617 Q314.855 295.723 316.661 299.288 Q318.49 302.83 322.101 302.83 Q325.735 302.83 327.541 299.288 Q329.369 295.723 329.369 288.617 Q329.369 281.487 327.541 277.946 Q325.735 274.381 322.101 274.381 M322.101 270.677 Q327.911 270.677 330.966 275.284 Q334.045 279.867 334.045 288.617 Q334.045 297.344 330.966 301.95 Q327.911 306.533 322.101 306.533 Q316.291 306.533 313.212 301.95 Q310.156 297.344 310.156 288.617 Q310.156 279.867 313.212 275.284 Q316.291 270.677 322.101 270.677 Z" fill="#000000" fill-rule="nonzero" fill-opacity="1" /><path clip-path="url(#clip800)" d="M142.907 1176.18 L149.686 1176.18 Q146.662 1179.43 145.167 1183.12 Q143.671 1186.78 143.671 1190.92 Q143.671 1199.07 148.668 1203.39 Q153.633 1207.72 163.054 1207.72 Q172.444 1207.72 177.441 1203.39 Q182.406 1199.07 182.406 1190.92 Q182.406 1186.78 180.91 1183.12 Q179.414 1179.43 176.39 1176.18 L183.106 1176.18 Q185.398 1179.55 186.544 1183.34 Q187.689 1187.1 187.689 1191.3 Q187.689 1202.09 181.101 1208.3 Q174.481 1214.5 163.054 1214.5 Q151.596 1214.5 145.007 1208.3 Q138.387 1202.09 138.387 1191.3 Q138.387 1187.03 139.533 1183.28 Q140.647 1179.49 142.907 1176.18 Z" fill="#000000" fill-rule="nonzero" fill-opacity="1" /><path clip-path="url(#clip800)" d="M155.224 1152.69 Q155.224 1157.4 158.916 1160.14 Q162.577 1162.88 168.974 1162.88 Q175.372 1162.88 179.064 1160.17 Q182.724 1157.43 182.724 1152.69 Q182.724 1148.01 179.032 1145.28 Q175.34 1142.54 168.974 1142.54 Q162.64 1142.54 158.948 1145.28 Q155.224 1148.01 155.224 1152.69 M150.259 1152.69 Q150.259 1145.05 155.224 1140.69 Q160.19 1136.33 168.974 1136.33 Q177.727 1136.33 182.724 1140.69 Q187.689 1145.05 187.689 1152.69 Q187.689 1160.36 182.724 1164.72 Q177.727 1169.05 168.974 1169.05 Q160.19 1169.05 155.224 1164.72 Q150.259 1160.36 150.259 1152.69 Z" fill="#000000" fill-rule="nonzero" fill-opacity="1" /><path clip-path="url(#clip800)" d="M172.698 1127.23 L151.118 1127.23 L151.118 1121.37 L172.475 1121.37 Q177.536 1121.37 180.082 1119.4 Q182.597 1117.43 182.597 1113.48 Q182.597 1108.74 179.573 1106 Q176.549 1103.23 171.33 1103.23 L151.118 1103.23 L151.118 1097.37 L186.766 1097.37 L186.766 1103.23 L181.292 1103.23 Q184.538 1105.36 186.13 1108.19 Q187.689 1111 187.689 1114.72 Q187.689 1120.86 183.87 1124.05 Q180.051 1127.23 172.698 1127.23 M150.259 1112.49 L150.259 1112.49 Z" fill="#000000" fill-rule="nonzero" fill-opacity="1" /><path clip-path="url(#clip800)" d="M165.25 1055.68 L186.766 1055.68 L186.766 1061.53 L165.441 1061.53 Q160.381 1061.53 157.866 1063.51 Q155.352 1065.48 155.352 1069.43 Q155.352 1074.17 158.375 1076.91 Q161.399 1079.64 166.619 1079.64 L186.766 1079.64 L186.766 1085.53 L151.118 1085.53 L151.118 1079.64 L156.657 1079.64 Q153.442 1077.54 151.851 1074.71 Q150.259 1071.85 150.259 1068.12 Q150.259 1061.98 154.079 1058.83 Q157.866 1055.68 165.25 1055.68 Z" fill="#000000" fill-rule="nonzero" fill-opacity="1" /><path clip-path="url(#clip800)" d="M140.997 1038.2 L151.118 1038.2 L151.118 1026.14 L155.67 1026.14 L155.67 1038.2 L175.022 1038.2 Q179.382 1038.2 180.624 1037.03 Q181.865 1035.82 181.865 1032.16 L181.865 1026.14 L186.766 1026.14 L186.766 1032.16 Q186.766 1038.94 184.252 1041.51 Q181.706 1044.09 175.022 1044.09 L155.67 1044.09 L155.67 1048.39 L151.118 1048.39 L151.118 1044.09 L140.997 1044.09 L140.997 1038.2 Z" fill="#000000" fill-rule="nonzero" fill-opacity="1" /><path clip-path="url(#clip800)" d="M152.169 995.713 L157.707 995.713 Q156.434 998.195 155.797 1000.87 Q155.161 1003.54 155.161 1006.41 Q155.161 1010.77 156.498 1012.96 Q157.834 1015.13 160.508 1015.13 Q162.545 1015.13 163.723 1013.57 Q164.868 1012.01 165.919 1007.3 L166.364 1005.29 Q167.701 999.055 170.152 996.445 Q172.571 993.803 176.931 993.803 Q181.897 993.803 184.793 997.75 Q187.689 1001.66 187.689 1008.54 Q187.689 1011.4 187.117 1014.52 Q186.575 1017.61 185.461 1021.05 L179.414 1021.05 Q181.101 1017.8 181.96 1014.65 Q182.788 1011.5 182.788 1008.41 Q182.788 1004.27 181.387 1002.05 Q179.955 999.819 177.377 999.819 Q174.99 999.819 173.717 1001.44 Q172.444 1003.03 171.266 1008.48 L170.789 1010.51 Q169.643 1015.96 167.287 1018.37 Q164.9 1020.79 160.763 1020.79 Q155.734 1020.79 152.996 1017.23 Q150.259 1013.66 150.259 1007.11 Q150.259 1003.86 150.737 1001 Q151.214 998.132 152.169 995.713 Z" fill="#000000" fill-rule="nonzero" fill-opacity="1" /><path clip-path="url(#clip800)" d="M137.305 949.689 Q144.625 953.954 151.787 956.023 Q158.948 958.091 166.301 958.091 Q173.653 958.091 180.878 956.023 Q188.071 953.922 195.36 949.689 L195.36 954.781 Q187.88 959.556 180.655 961.943 Q173.43 964.298 166.301 964.298 Q159.203 964.298 152.01 961.943 Q144.816 959.587 137.305 954.781 L137.305 949.689 Z" fill="#000000" fill-rule="nonzero" fill-opacity="1" /><path clip-path="url(#clip800)" d="M181.356 936.384 L181.356 925.881 L145.103 925.881 L147.395 937.307 L141.538 937.307 L139.246 925.945 L139.246 919.515 L181.356 919.515 L181.356 909.012 L186.766 909.012 L186.766 936.384 L181.356 936.384 Z" fill="#000000" fill-rule="nonzero" fill-opacity="1" /><path clip-path="url(#clip800)" d="M143.48 882.276 Q143.48 887.241 148.381 889.756 Q153.251 892.238 163.054 892.238 Q172.826 892.238 177.727 889.756 Q182.597 887.241 182.597 882.276 Q182.597 877.279 177.727 874.796 Q172.826 872.282 163.054 872.282 Q153.251 872.282 148.381 874.796 Q143.48 877.279 143.48 882.276 M138.387 882.276 Q138.387 874.287 144.721 870.086 Q151.023 865.852 163.054 865.852 Q175.054 865.852 181.387 870.086 Q187.689 874.287 187.689 882.276 Q187.689 890.265 181.387 894.498 Q175.054 898.699 163.054 898.699 Q151.023 898.699 144.721 894.498 Q138.387 890.265 138.387 882.276 Z" fill="#000000" fill-rule="nonzero" fill-opacity="1" /><path clip-path="url(#clip800)" d="M143.48 840.803 Q143.48 845.769 148.381 848.283 Q153.251 850.766 163.054 850.766 Q172.826 850.766 177.727 848.283 Q182.597 845.769 182.597 840.803 Q182.597 835.806 177.727 833.324 Q172.826 830.809 163.054 830.809 Q153.251 830.809 148.381 833.324 Q143.48 835.806 143.48 840.803 M138.387 840.803 Q138.387 832.814 144.721 828.613 Q151.023 824.38 163.054 824.38 Q175.054 824.38 181.387 828.613 Q187.689 832.814 187.689 840.803 Q187.689 848.792 181.387 853.025 Q175.054 857.227 163.054 857.227 Q151.023 857.227 144.721 853.025 Q138.387 848.792 138.387 840.803 Z" fill="#000000" fill-rule="nonzero" fill-opacity="1" /><path clip-path="url(#clip800)" d="M143.48 799.331 Q143.48 804.296 148.381 806.81 Q153.251 809.293 163.054 809.293 Q172.826 809.293 177.727 806.81 Q182.597 804.296 182.597 799.331 Q182.597 794.334 177.727 791.851 Q172.826 789.337 163.054 789.337 Q153.251 789.337 148.381 791.851 Q143.48 794.334 143.48 799.331 M138.387 799.331 Q138.387 791.342 144.721 787.14 Q151.023 782.907 163.054 782.907 Q175.054 782.907 181.387 787.14 Q187.689 791.342 187.689 799.331 Q187.689 807.32 181.387 811.553 Q175.054 815.754 163.054 815.754 Q151.023 815.754 144.721 811.553 Q138.387 807.32 138.387 799.331 Z" fill="#000000" fill-rule="nonzero" fill-opacity="1" /><path clip-path="url(#clip800)" d="M152.169 728.99 L157.707 728.99 Q156.434 731.472 155.797 734.146 Q155.161 736.819 155.161 739.684 Q155.161 744.045 156.498 746.241 Q157.834 748.405 160.508 748.405 Q162.545 748.405 163.723 746.845 Q164.868 745.286 165.919 740.575 L166.364 738.57 Q167.701 732.332 170.152 729.722 Q172.571 727.08 176.931 727.08 Q181.897 727.08 184.793 731.027 Q187.689 734.942 187.689 741.817 Q187.689 744.681 187.117 747.8 Q186.575 750.888 185.461 754.325 L179.414 754.325 Q181.101 751.079 181.96 747.928 Q182.788 744.777 182.788 741.689 Q182.788 737.552 181.387 735.324 Q179.955 733.096 177.377 733.096 Q174.99 733.096 173.717 734.719 Q172.444 736.31 171.266 741.753 L170.789 743.79 Q169.643 749.233 167.287 751.652 Q164.9 754.071 160.763 754.071 Q155.734 754.071 152.996 750.506 Q150.259 746.941 150.259 740.384 Q150.259 737.138 150.737 734.273 Q151.214 731.409 152.169 728.99 Z" fill="#000000" fill-rule="nonzero" fill-opacity="1" /><path clip-path="url(#clip800)" d="M168.847 701.553 Q168.847 708.651 170.47 711.388 Q172.093 714.126 176.008 714.126 Q179.128 714.126 180.974 712.089 Q182.788 710.02 182.788 706.487 Q182.788 701.617 179.35 698.689 Q175.881 695.729 170.152 695.729 L168.847 695.729 L168.847 701.553 M166.428 689.872 L186.766 689.872 L186.766 695.729 L181.356 695.729 Q184.602 697.734 186.162 700.726 Q187.689 703.718 187.689 708.046 Q187.689 713.521 184.634 716.767 Q181.547 719.982 176.39 719.982 Q170.375 719.982 167.319 715.972 Q164.264 711.93 164.264 703.941 L164.264 695.729 L163.691 695.729 Q159.649 695.729 157.452 698.402 Q155.224 701.044 155.224 705.85 Q155.224 708.906 155.956 711.802 Q156.688 714.699 158.153 717.372 L152.742 717.372 Q151.5 714.158 150.896 711.134 Q150.259 708.11 150.259 705.246 Q150.259 697.511 154.27 693.692 Q158.28 689.872 166.428 689.872 Z" fill="#000000" fill-rule="nonzero" fill-opacity="1" /><path clip-path="url(#clip800)" d="M157.962 650.055 Q154.015 647.859 152.137 644.803 Q150.259 641.748 150.259 637.61 Q150.259 632.04 154.174 629.016 Q158.057 625.993 165.25 625.993 L186.766 625.993 L186.766 631.881 L165.441 631.881 Q160.317 631.881 157.834 633.695 Q155.352 635.509 155.352 639.233 Q155.352 643.785 158.375 646.426 Q161.399 649.068 166.619 649.068 L186.766 649.068 L186.766 654.956 L165.441 654.956 Q160.285 654.956 157.834 656.771 Q155.352 658.585 155.352 662.373 Q155.352 666.86 158.407 669.502 Q161.431 672.144 166.619 672.144 L186.766 672.144 L186.766 678.032 L151.118 678.032 L151.118 672.144 L156.657 672.144 Q153.378 670.139 151.819 667.338 Q150.259 664.537 150.259 660.686 Q150.259 656.803 152.232 654.097 Q154.206 651.36 157.962 650.055 Z" fill="#000000" fill-rule="nonzero" fill-opacity="1" /><path clip-path="url(#clip800)" d="M181.419 608.646 L200.325 608.646 L200.325 614.534 L151.118 614.534 L151.118 608.646 L156.529 608.646 Q153.346 606.8 151.819 603.999 Q150.259 601.166 150.259 597.251 Q150.259 590.758 155.415 586.716 Q160.572 582.642 168.974 582.642 Q177.377 582.642 182.533 586.716 Q187.689 590.758 187.689 597.251 Q187.689 601.166 186.162 603.999 Q184.602 606.8 181.419 608.646 M168.974 588.721 Q162.513 588.721 158.853 591.395 Q155.161 594.037 155.161 598.684 Q155.161 603.331 158.853 606.004 Q162.513 608.646 168.974 608.646 Q175.435 608.646 179.128 606.004 Q182.788 603.331 182.788 598.684 Q182.788 594.037 179.128 591.395 Q175.435 588.721 168.974 588.721 Z" fill="#000000" fill-rule="nonzero" fill-opacity="1" /><path clip-path="url(#clip800)" d="M137.241 572.934 L137.241 567.078 L186.766 567.078 L186.766 572.934 L137.241 572.934 Z" fill="#000000" fill-rule="nonzero" fill-opacity="1" /><path clip-path="url(#clip800)" d="M167.478 524.332 L170.343 524.332 L170.343 551.259 Q176.39 550.877 179.573 547.631 Q182.724 544.352 182.724 538.528 Q182.724 535.154 181.897 532.003 Q181.069 528.82 179.414 525.701 L184.952 525.701 Q186.289 528.852 186.989 532.162 Q187.689 535.472 187.689 538.878 Q187.689 547.408 182.724 552.405 Q177.759 557.37 169.293 557.37 Q160.54 557.37 155.415 552.66 Q150.259 547.917 150.259 539.896 Q150.259 532.703 154.906 528.534 Q159.521 524.332 167.478 524.332 M165.76 530.189 Q160.954 530.252 158.089 532.894 Q155.224 535.504 155.224 539.833 Q155.224 544.734 157.993 547.694 Q160.763 550.623 165.791 551.068 L165.76 530.189 Z" fill="#000000" fill-rule="nonzero" fill-opacity="1" /><path clip-path="url(#clip800)" d="M152.169 491.994 L157.707 491.994 Q156.434 494.477 155.797 497.151 Q155.161 499.824 155.161 502.689 Q155.161 507.049 156.498 509.245 Q157.834 511.41 160.508 511.41 Q162.545 511.41 163.723 509.85 Q164.868 508.291 165.919 503.58 L166.364 501.575 Q167.701 495.336 170.152 492.726 Q172.571 490.085 176.931 490.085 Q181.897 490.085 184.793 494.031 Q187.689 497.946 187.689 504.821 Q187.689 507.686 187.117 510.805 Q186.575 513.892 185.461 517.33 L179.414 517.33 Q181.101 514.083 181.96 510.932 Q182.788 507.781 182.788 504.694 Q182.788 500.556 181.387 498.328 Q179.955 496.1 177.377 496.1 Q174.99 496.1 173.717 497.724 Q172.444 499.315 171.266 504.758 L170.789 506.795 Q169.643 512.237 167.287 514.656 Q164.9 517.075 160.763 517.075 Q155.734 517.075 152.996 513.51 Q150.259 509.946 150.259 503.389 Q150.259 500.142 150.737 497.278 Q151.214 494.413 152.169 491.994 Z" fill="#000000" fill-rule="nonzero" fill-opacity="1" /><path clip-path="url(#clip800)" d="M137.305 481.682 L137.305 476.589 Q144.816 471.815 152.01 469.46 Q159.203 467.073 166.301 467.073 Q173.43 467.073 180.655 469.46 Q187.88 471.815 195.36 476.589 L195.36 481.682 Q188.071 477.449 180.878 475.38 Q173.653 473.279 166.301 473.279 Q158.948 473.279 151.787 475.38 Q144.625 477.449 137.305 481.682 Z" fill="#000000" fill-rule="nonzero" fill-opacity="1" /><path clip-path="url(#clip800)" d="M915.682 12.096 L927.875 12.096 L943.309 53.2532 L958.824 12.096 L971.017 12.096 L971.017 72.576 L963.037 72.576 L963.037 19.4686 L947.441 60.9499 L939.218 60.9499 L923.622 19.4686 L923.622 72.576 L915.682 72.576 L915.682 12.096 Z" fill="#000000" fill-rule="nonzero" fill-opacity="1" /><path clip-path="url(#clip800)" d="M987.262 12.096 L995.444 12.096 L995.444 72.576 L987.262 72.576 L987.262 12.096 Z" fill="#000000" fill-rule="nonzero" fill-opacity="1" /><path clip-path="url(#clip800)" d="M1011.73 12.096 L1023.92 12.096 L1039.36 53.2532 L1054.87 12.096 L1067.06 12.096 L1067.06 72.576 L1059.08 72.576 L1059.08 19.4686 L1043.49 60.9499 L1035.26 60.9499 L1019.67 19.4686 L1019.67 72.576 L1011.73 72.576 L1011.73 12.096 Z" fill="#000000" fill-rule="nonzero" fill-opacity="1" /><path clip-path="url(#clip800)" d="M1083.31 12.096 L1091.49 12.096 L1091.49 72.576 L1083.31 72.576 L1083.31 12.096 Z" fill="#000000" fill-rule="nonzero" fill-opacity="1" /><path clip-path="url(#clip800)" d="M1132.32 17.6457 Q1123.41 17.6457 1118.15 24.2892 Q1112.92 30.9327 1112.92 42.3968 Q1112.92 53.8203 1118.15 60.4638 Q1123.41 67.1073 1132.32 67.1073 Q1141.24 67.1073 1146.42 60.4638 Q1151.65 53.8203 1151.65 42.3968 Q1151.65 30.9327 1146.42 24.2892 Q1141.24 17.6457 1132.32 17.6457 M1143.79 71.4823 L1154.56 83.2704 L1144.68 83.2704 L1135.73 73.5887 Q1134.39 73.6697 1133.66 73.7103 Q1132.97 73.7508 1132.32 73.7508 Q1119.56 73.7508 1111.91 65.2439 Q1104.29 56.6965 1104.29 42.3968 Q1104.29 28.0566 1111.91 19.5497 Q1119.56 11.0023 1132.32 11.0023 Q1145.04 11.0023 1152.66 19.5497 Q1160.28 28.0566 1160.28 42.3968 Q1160.28 52.9291 1156.02 60.4233 Q1151.81 67.9175 1143.79 71.4823 Z" fill="#000000" fill-rule="nonzero" fill-opacity="1" /><path clip-path="url(#clip800)" d="M1171.29 46.5287 L1193.13 46.5287 L1193.13 53.1722 L1171.29 53.1722 L1171.29 46.5287 Z" fill="#000000" fill-rule="nonzero" fill-opacity="1" /><path clip-path="url(#clip800)" d="M1241.58 14.0809 L1241.58 22.0612 Q1236.92 19.8332 1232.79 18.7395 Q1228.65 17.6457 1224.81 17.6457 Q1218.12 17.6457 1214.48 20.2383 Q1210.87 22.8309 1210.87 27.611 Q1210.87 31.6214 1213.26 33.6873 Q1215.69 35.7128 1222.42 36.9686 L1227.36 37.9813 Q1236.51 39.7232 1240.85 44.1387 Q1245.22 48.5136 1245.22 55.8863 Q1245.22 64.6767 1239.31 69.2137 Q1233.44 73.7508 1222.05 73.7508 Q1217.76 73.7508 1212.9 72.7785 Q1208.08 71.8063 1202.89 69.9024 L1202.89 61.4765 Q1207.87 64.2716 1212.65 65.6895 Q1217.43 67.1073 1222.05 67.1073 Q1229.06 67.1073 1232.87 64.3527 Q1236.68 61.598 1236.68 56.4939 Q1236.68 52.0379 1233.92 49.5264 Q1231.21 47.0148 1224.97 45.759 L1219.99 44.7868 Q1210.83 42.9639 1206.74 39.075 Q1202.65 35.1862 1202.65 28.2591 Q1202.65 20.2383 1208.28 15.6203 Q1213.95 11.0023 1223.87 11.0023 Q1228.13 11.0023 1232.54 11.7719 Q1236.96 12.5416 1241.58 14.0809 Z" fill="#000000" fill-rule="nonzero" fill-opacity="1" /><path clip-path="url(#clip800)" d="M1265.03 14.324 L1265.03 27.2059 L1280.38 27.2059 L1280.38 32.9987 L1265.03 32.9987 L1265.03 57.6282 Q1265.03 63.1779 1266.53 64.7578 Q1268.07 66.3376 1272.73 66.3376 L1280.38 66.3376 L1280.38 72.576 L1272.73 72.576 Q1264.1 72.576 1260.82 69.3758 Q1257.54 66.1351 1257.54 57.6282 L1257.54 32.9987 L1252.07 32.9987 L1252.07 27.2059 L1257.54 27.2059 L1257.54 14.324 L1265.03 14.324 Z" fill="#000000" fill-rule="nonzero" fill-opacity="1" /><path clip-path="url(#clip800)" d="M1310.81 49.7694 Q1301.77 49.7694 1298.29 51.8354 Q1294.81 53.9013 1294.81 58.8839 Q1294.81 62.8538 1297.4 65.2034 Q1300.03 67.5124 1304.53 67.5124 Q1310.73 67.5124 1314.45 63.1374 Q1318.22 58.7219 1318.22 51.4303 L1318.22 49.7694 L1310.81 49.7694 M1325.67 46.6907 L1325.67 72.576 L1318.22 72.576 L1318.22 65.6895 Q1315.67 69.8214 1311.86 71.8063 Q1308.05 73.7508 1302.54 73.7508 Q1295.58 73.7508 1291.44 69.8619 Q1287.35 65.9325 1287.35 59.3701 Q1287.35 51.7138 1292.46 47.825 Q1297.6 43.9361 1307.77 43.9361 L1318.22 43.9361 L1318.22 43.2069 Q1318.22 38.0623 1314.82 35.2672 Q1311.46 32.4315 1305.34 32.4315 Q1301.45 32.4315 1297.76 33.3632 Q1294.08 34.295 1290.67 36.1584 L1290.67 29.2718 Q1294.77 27.692 1298.61 26.9223 Q1302.46 26.1121 1306.11 26.1121 Q1315.95 26.1121 1320.81 31.2163 Q1325.67 36.3204 1325.67 46.6907 Z" fill="#000000" fill-rule="nonzero" fill-opacity="1" /><path clip-path="url(#clip800)" d="M1348.4 14.324 L1348.4 27.2059 L1363.75 27.2059 L1363.75 32.9987 L1348.4 32.9987 L1348.4 57.6282 Q1348.4 63.1779 1349.9 64.7578 Q1351.44 66.3376 1356.1 66.3376 L1363.75 66.3376 L1363.75 72.576 L1356.1 72.576 Q1347.47 72.576 1344.19 69.3758 Q1340.91 66.1351 1340.91 57.6282 L1340.91 32.9987 L1335.44 32.9987 L1335.44 27.2059 L1340.91 27.2059 L1340.91 14.324 L1348.4 14.324 Z" fill="#000000" fill-rule="nonzero" fill-opacity="1" /><path clip-path="url(#clip800)" d="M1412.36 48.0275 L1412.36 51.6733 L1378.09 51.6733 Q1378.58 59.3701 1382.71 63.421 Q1386.88 67.4314 1394.3 67.4314 Q1398.59 67.4314 1402.6 66.3781 Q1406.65 65.3249 1410.62 63.2184 L1410.62 70.267 Q1406.61 71.9684 1402.4 72.8596 Q1398.19 73.7508 1393.85 73.7508 Q1382.99 73.7508 1376.63 67.4314 Q1370.32 61.1119 1370.32 50.3365 Q1370.32 39.1965 1376.31 32.6746 Q1382.35 26.1121 1392.55 26.1121 Q1401.71 26.1121 1407.02 32.0264 Q1412.36 37.9003 1412.36 48.0275 M1404.91 45.84 Q1404.83 39.7232 1401.47 36.0774 Q1398.14 32.4315 1392.64 32.4315 Q1386.4 32.4315 1382.63 35.9558 Q1378.9 39.4801 1378.34 45.8805 L1404.91 45.84 Z" fill="#000000" fill-rule="nonzero" fill-opacity="1" /><path clip-path="url(#clip800)" d="M1440.52 72.576 L1417.43 12.096 L1425.97 12.096 L1445.14 63.0159 L1464.34 12.096 L1472.84 12.096 L1449.79 72.576 L1440.52 72.576 Z" fill="#000000" fill-rule="nonzero" fill-opacity="1" /><path clip-path="url(#clip800)" d="M1513.72 48.0275 L1513.72 51.6733 L1479.45 51.6733 Q1479.93 59.3701 1484.06 63.421 Q1488.24 67.4314 1495.65 67.4314 Q1499.94 67.4314 1503.95 66.3781 Q1508.01 65.3249 1511.98 63.2184 L1511.98 70.267 Q1507.96 71.9684 1503.75 72.8596 Q1499.54 73.7508 1495.2 73.7508 Q1484.35 73.7508 1477.99 67.4314 Q1471.67 61.1119 1471.67 50.3365 Q1471.67 39.1965 1477.66 32.6746 Q1483.7 26.1121 1493.91 26.1121 Q1503.06 26.1121 1508.37 32.0264 Q1513.72 37.9003 1513.72 48.0275 M1506.26 45.84 Q1506.18 39.7232 1502.82 36.0774 Q1499.5 32.4315 1493.99 32.4315 Q1487.75 32.4315 1483.98 35.9558 Q1480.26 39.4801 1479.69 45.8805 L1506.26 45.84 Z" fill="#000000" fill-rule="nonzero" fill-opacity="1" /><path clip-path="url(#clip800)" d="M1558.6 28.9478 L1558.6 35.9153 Q1555.44 34.1734 1552.24 33.3227 Q1549.08 32.4315 1545.84 32.4315 Q1538.59 32.4315 1534.58 37.0496 Q1530.57 41.6271 1530.57 49.9314 Q1530.57 58.2358 1534.58 62.8538 Q1538.59 67.4314 1545.84 67.4314 Q1549.08 67.4314 1552.24 66.5807 Q1555.44 65.6895 1558.6 63.9476 L1558.6 70.8341 Q1555.48 72.2924 1552.12 73.0216 Q1548.8 73.7508 1545.03 73.7508 Q1534.78 73.7508 1528.75 67.3098 Q1522.71 60.8689 1522.71 49.9314 Q1522.71 38.832 1528.79 32.472 Q1534.9 26.1121 1545.52 26.1121 Q1548.96 26.1121 1552.24 26.8413 Q1555.52 27.5299 1558.6 28.9478 Z" fill="#000000" fill-rule="nonzero" fill-opacity="1" /><path clip-path="url(#clip800)" d="M1578.94 14.324 L1578.94 27.2059 L1594.29 27.2059 L1594.29 32.9987 L1578.94 32.9987 L1578.94 57.6282 Q1578.94 63.1779 1580.44 64.7578 Q1581.97 66.3376 1586.63 66.3376 L1594.29 66.3376 L1594.29 72.576 L1586.63 72.576 Q1578 72.576 1574.72 69.3758 Q1571.44 66.1351 1571.44 57.6282 L1571.44 32.9987 L1565.97 32.9987 L1565.97 27.2059 L1571.44 27.2059 L1571.44 14.324 L1578.94 14.324 Z" fill="#000000" fill-rule="nonzero" fill-opacity="1" /><path clip-path="url(#clip800)" d="M1621.67 32.4315 Q1615.68 32.4315 1612.19 37.1306 Q1608.71 41.7891 1608.71 49.9314 Q1608.71 58.0738 1612.15 62.7728 Q1615.64 67.4314 1621.67 67.4314 Q1627.63 67.4314 1631.11 62.7323 Q1634.6 58.0333 1634.6 49.9314 Q1634.6 41.8701 1631.11 37.1711 Q1627.63 32.4315 1621.67 32.4315 M1621.67 26.1121 Q1631.4 26.1121 1636.95 32.4315 Q1642.5 38.7509 1642.5 49.9314 Q1642.5 61.0714 1636.95 67.4314 Q1631.4 73.7508 1621.67 73.7508 Q1611.91 73.7508 1606.36 67.4314 Q1600.85 61.0714 1600.85 49.9314 Q1600.85 38.7509 1606.36 32.4315 Q1611.91 26.1121 1621.67 26.1121 Z" fill="#000000" fill-rule="nonzero" fill-opacity="1" /><path clip-path="url(#clip800)" d="M1681.14 34.1734 Q1679.89 33.4443 1678.39 33.1202 Q1676.93 32.7556 1675.15 32.7556 Q1668.83 32.7556 1665.42 36.8875 Q1662.06 40.9789 1662.06 48.6757 L1662.06 72.576 L1654.57 72.576 L1654.57 27.2059 L1662.06 27.2059 L1662.06 34.2544 Q1664.41 30.1225 1668.18 28.1376 Q1671.95 26.1121 1677.33 26.1121 Q1678.1 26.1121 1679.03 26.2337 Q1679.97 26.3147 1681.1 26.5172 L1681.14 34.1734 Z" fill="#000000" fill-rule="nonzero" fill-opacity="1" /><path clip-path="url(#clip800)" d="M1733.88 17.4837 Q1727.56 17.4837 1724.36 23.7221 Q1721.2 29.92 1721.2 42.3968 Q1721.2 54.833 1724.36 61.0714 Q1727.56 67.2693 1733.88 67.2693 Q1740.24 67.2693 1743.4 61.0714 Q1746.6 54.833 1746.6 42.3968 Q1746.6 29.92 1743.4 23.7221 Q1740.24 17.4837 1733.88 17.4837 M1733.88 11.0023 Q1744.05 11.0023 1749.4 19.0636 Q1754.79 27.0843 1754.79 42.3968 Q1754.79 57.6687 1749.4 65.73 Q1744.05 73.7508 1733.88 73.7508 Q1723.72 73.7508 1718.33 65.73 Q1712.98 57.6687 1712.98 42.3968 Q1712.98 27.0843 1718.33 19.0636 Q1723.72 11.0023 1733.88 11.0023 Z" fill="#000000" fill-rule="nonzero" fill-opacity="1" /><path clip-path="url(#clip800)" d="M1769.17 62.2867 L1777.71 62.2867 L1777.71 72.576 L1769.17 72.576 L1769.17 62.2867 Z" fill="#000000" fill-rule="nonzero" fill-opacity="1" /><path clip-path="url(#clip800)" d="M1796.96 65.6895 L1810.32 65.6895 L1810.32 19.5497 L1795.78 22.4663 L1795.78 15.0127 L1810.24 12.096 L1818.43 12.096 L1818.43 65.6895 L1831.79 65.6895 L1831.79 72.576 L1796.96 72.576 L1796.96 65.6895 Z" fill="#000000" fill-rule="nonzero" fill-opacity="1" /><path clip-path="url(#clip800)" d="M1865.82 43.8551 Q1859.99 43.8551 1856.63 46.9743 Q1853.3 50.0935 1853.3 55.5622 Q1853.3 61.0309 1856.63 64.1501 Q1859.99 67.2693 1865.82 67.2693 Q1871.65 67.2693 1875.02 64.1501 Q1878.38 60.9904 1878.38 55.5622 Q1878.38 50.0935 1875.02 46.9743 Q1871.7 43.8551 1865.82 43.8551 M1857.64 40.3713 Q1852.37 39.075 1849.42 35.4697 Q1846.5 31.8644 1846.5 26.6793 Q1846.5 19.4281 1851.64 15.2152 Q1856.83 11.0023 1865.82 11.0023 Q1874.86 11.0023 1880 15.2152 Q1885.14 19.4281 1885.14 26.6793 Q1885.14 31.8644 1882.19 35.4697 Q1879.27 39.075 1874.05 40.3713 Q1879.96 41.7486 1883.24 45.759 Q1886.56 49.7694 1886.56 55.5622 Q1886.56 64.3527 1881.17 69.0517 Q1875.83 73.7508 1865.82 73.7508 Q1855.82 73.7508 1850.43 69.0517 Q1845.08 64.3527 1845.08 55.5622 Q1845.08 49.7694 1848.4 45.759 Q1851.72 41.7486 1857.64 40.3713 M1854.64 27.4489 Q1854.64 32.148 1857.56 34.7811 Q1860.51 37.4142 1865.82 37.4142 Q1871.09 37.4142 1874.05 34.7811 Q1877.04 32.148 1877.04 27.4489 Q1877.04 22.7499 1874.05 20.1168 Q1871.09 17.4837 1865.82 17.4837 Q1860.51 17.4837 1857.56 20.1168 Q1854.64 22.7499 1854.64 27.4489 Z" fill="#000000" fill-rule="nonzero" fill-opacity="1" /><path clip-path="url(#clip800)" d="M1901.11 62.2867 L1909.65 62.2867 L1909.65 72.576 L1901.11 72.576 L1901.11 62.2867 Z" fill="#000000" fill-rule="nonzero" fill-opacity="1" /><path clip-path="url(#clip800)" d="M1928.89 65.6895 L1942.26 65.6895 L1942.26 19.5497 L1927.72 22.4663 L1927.72 15.0127 L1942.18 12.096 L1950.36 12.096 L1950.36 65.6895 L1963.73 65.6895 L1963.73 72.576 L1928.89 72.576 L1928.89 65.6895 Z" fill="#000000" fill-rule="nonzero" fill-opacity="1" /><path clip-path="url(#clip800)" d="M2028.55 9.54393 L2028.55 15.7418 L2021.42 15.7418 Q2017.41 15.7418 2015.83 17.3622 Q2014.29 18.9825 2014.29 23.1955 L2014.29 27.2059 L2026.56 27.2059 L2026.56 32.9987 L2014.29 32.9987 L2014.29 72.576 L2006.79 72.576 L2006.79 32.9987 L1999.66 32.9987 L1999.66 27.2059 L2006.79 27.2059 L2006.79 24.0462 Q2006.79 16.471 2010.32 13.0277 Q2013.84 9.54393 2021.5 9.54393 L2028.55 9.54393 Z" fill="#000000" fill-rule="nonzero" fill-opacity="1" /><path clip-path="url(#clip800)" d="M2034.78 27.2059 L2042.24 27.2059 L2042.24 72.576 L2034.78 72.576 L2034.78 27.2059 M2034.78 9.54393 L2042.24 9.54393 L2042.24 18.9825 L2034.78 18.9825 L2034.78 9.54393 Z" fill="#000000" fill-rule="nonzero" fill-opacity="1" /><path clip-path="url(#clip800)" d="M2087.69 34.0924 L2087.69 9.54393 L2095.14 9.54393 L2095.14 72.576 L2087.69 72.576 L2087.69 65.7705 Q2085.34 69.8214 2081.73 71.8063 Q2078.17 73.7508 2073.15 73.7508 Q2064.92 73.7508 2059.74 67.1883 Q2054.59 60.6258 2054.59 49.9314 Q2054.59 39.2371 2059.74 32.6746 Q2064.92 26.1121 2073.15 26.1121 Q2078.17 26.1121 2081.73 28.0971 Q2085.34 30.0415 2087.69 34.0924 M2062.29 49.9314 Q2062.29 58.1548 2065.65 62.8538 Q2069.06 67.5124 2074.97 67.5124 Q2080.88 67.5124 2084.29 62.8538 Q2087.69 58.1548 2087.69 49.9314 Q2087.69 41.7081 2084.29 37.0496 Q2080.88 32.3505 2074.97 32.3505 Q2069.06 32.3505 2065.65 37.0496 Q2062.29 41.7081 2062.29 49.9314 Z" fill="#000000" fill-rule="nonzero" fill-opacity="1" /><path clip-path="url(#clip800)" d="M2149.3 48.0275 L2149.3 51.6733 L2115.03 51.6733 Q2115.52 59.3701 2119.65 63.421 Q2123.82 67.4314 2131.24 67.4314 Q2135.53 67.4314 2139.54 66.3781 Q2143.59 65.3249 2147.56 63.2184 L2147.56 70.267 Q2143.55 71.9684 2139.34 72.8596 Q2135.13 73.7508 2130.79 73.7508 Q2119.93 73.7508 2113.57 67.4314 Q2107.26 61.1119 2107.26 50.3365 Q2107.26 39.1965 2113.25 32.6746 Q2119.29 26.1121 2129.5 26.1121 Q2138.65 26.1121 2143.96 32.0264 Q2149.3 37.9003 2149.3 48.0275 M2141.85 45.84 Q2141.77 39.7232 2138.41 36.0774 Q2135.09 32.4315 2129.58 32.4315 Q2123.34 32.4315 2119.57 35.9558 Q2115.84 39.4801 2115.28 45.8805 L2141.85 45.84 Z" fill="#000000" fill-rule="nonzero" fill-opacity="1" /><path clip-path="url(#clip800)" d="M2161.54 9.54393 L2168.99 9.54393 L2168.99 72.576 L2161.54 72.576 L2161.54 9.54393 Z" fill="#000000" fill-rule="nonzero" fill-opacity="1" /><path clip-path="url(#clip800)" d="M2184.59 27.2059 L2192.04 27.2059 L2192.04 72.576 L2184.59 72.576 L2184.59 27.2059 M2184.59 9.54393 L2192.04 9.54393 L2192.04 18.9825 L2184.59 18.9825 L2184.59 9.54393 Z" fill="#000000" fill-rule="nonzero" fill-opacity="1" /><path clip-path="url(#clip800)" d="M2215.01 14.324 L2215.01 27.2059 L2230.36 27.2059 L2230.36 32.9987 L2215.01 32.9987 L2215.01 57.6282 Q2215.01 63.1779 2216.51 64.7578 Q2218.05 66.3376 2222.71 66.3376 L2230.36 66.3376 L2230.36 72.576 L2222.71 72.576 Q2214.08 72.576 2210.8 69.3758 Q2207.52 66.1351 2207.52 57.6282 L2207.52 32.9987 L2202.05 32.9987 L2202.05 27.2059 L2207.52 27.2059 L2207.52 14.324 L2215.01 14.324 Z" fill="#000000" fill-rule="nonzero" fill-opacity="1" /><path clip-path="url(#clip800)" d="M2259.04 76.7889 Q2255.88 84.8907 2252.89 87.3618 Q2249.89 89.8329 2244.86 89.8329 L2238.91 89.8329 L2238.91 83.5945 L2243.28 83.5945 Q2246.36 83.5945 2248.06 82.1361 Q2249.77 80.6778 2251.83 75.2496 L2253.17 71.8468 L2234.82 27.2059 L2242.72 27.2059 L2256.9 62.6918 L2271.07 27.2059 L2278.97 27.2059 L2259.04 76.7889 Z" fill="#000000" fill-rule="nonzero" fill-opacity="1" /><path clip-path="url(#clip800)" d="M2290.23 34.9026 L2342.17 34.9026 L2342.17 41.7081 L2290.23 41.7081 L2290.23 34.9026 M2290.23 51.4303 L2342.17 51.4303 L2342.17 58.3168 L2290.23 58.3168 L2290.23 51.4303 Z" fill="#000000" fill-rule="nonzero" fill-opacity="1" /><path clip-path="url(#clip800)" d="M2361.25 65.6895 L2374.62 65.6895 L2374.62 19.5497 L2360.07 22.4663 L2360.07 15.0127 L2374.53 12.096 L2382.72 12.096 L2382.72 65.6895 L2396.09 65.6895 L2396.09 72.576 L2361.25 72.576 L2361.25 65.6895 Z" fill="#000000" fill-rule="nonzero" fill-opacity="1" /><path clip-path="url(#clip800)" d="M2412.61 62.2867 L2421.16 62.2867 L2421.16 72.576 L2412.61 72.576 L2412.61 62.2867 Z" fill="#000000" fill-rule="nonzero" fill-opacity="1" /><path clip-path="url(#clip800)" d="M2456.48 17.4837 Q2450.16 17.4837 2446.96 23.7221 Q2443.8 29.92 2443.8 42.3968 Q2443.8 54.833 2446.96 61.0714 Q2450.16 67.2693 2456.48 67.2693 Q2462.84 67.2693 2466 61.0714 Q2469.2 54.833 2469.2 42.3968 Q2469.2 29.92 2466 23.7221 Q2462.84 17.4837 2456.48 17.4837 M2456.48 11.0023 Q2466.65 11.0023 2472 19.0636 Q2477.39 27.0843 2477.39 42.3968 Q2477.39 57.6687 2472 65.73 Q2466.65 73.7508 2456.48 73.7508 Q2446.32 73.7508 2440.93 65.73 Q2435.58 57.6687 2435.58 42.3968 Q2435.58 27.0843 2440.93 19.0636 Q2446.32 11.0023 2456.48 11.0023 Z" fill="#000000" fill-rule="nonzero" fill-opacity="1" /><path clip-path="url(#clip802)" d="M526.644 261.424 L526.644 1420.15 L1566.55 1420.15 L1566.55 261.424 L526.644 261.424 L526.644 261.424  Z" fill="#0c7e8f" fill-rule="evenodd" fill-opacity="1"/>
<polyline clip-path="url(#clip802)" style="stroke:#000000; stroke-linecap:round; stroke-linejoin:round; stroke-width:4; stroke-opacity:1; fill:none" points="526.644,261.424 526.644,1420.15 1566.55,1420.15 1566.55,261.424 526.644,261.424 "/>
<path clip-path="url(#clip802)" d="M1826.52 315.74 L1826.52 1420.15 L2866.43 1420.15 L2866.43 315.74 L1826.52 315.74 L1826.52 315.74  Z" fill="#0c7e8f" fill-rule="evenodd" fill-opacity="1"/>
<polyline clip-path="url(#clip802)" style="stroke:#000000; stroke-linecap:round; stroke-linejoin:round; stroke-width:4; stroke-opacity:1; fill:none" points="1826.52,315.74 1826.52,1420.15 2866.43,1420.15 2866.43,315.74 1826.52,315.74 "/>
<circle clip-path="url(#clip802)" style="fill:#009af9; stroke:none; fill-opacity:0" cx="1046.6" cy="261.424" r="2"/>
<circle clip-path="url(#clip802)" style="fill:#009af9; stroke:none; fill-opacity:0" cx="2346.47" cy="315.74" r="2"/>
</svg>
