<?xml version="1.0" encoding="utf-8"?>
<svg xmlns="http://www.w3.org/2000/svg" xmlns:xlink="http://www.w3.org/1999/xlink" width="800" height="450" viewBox="0 0 3200 1800">
<defs>
  <clipPath id="clip420">
    <rect x="0" y="0" width="3200" height="1800"/>
  </clipPath>
</defs>
<path clip-path="url(#clip420)" d="M0 1800 L3200 1800 L3200 0 L0 0  Z" fill="#ffffff" fill-rule="evenodd" fill-opacity="1"/>
<defs>
  <clipPath id="clip421">
    <rect x="376" y="255" width="2636" height="1209"/>
  </clipPath>
</defs>
<path clip-path="url(#clip420)" d="M376.433 1463.75 L3011.02 1463.75 L3011.02 255.754 L376.433 255.754  Z" fill="#ffffff" fill-rule="evenodd" fill-opacity="1"/>
<polyline clip-path="url(#clip421)" style="stroke:#000000; stroke-linecap:round; stroke-linejoin:round; stroke-width:2; stroke-opacity:0.1; fill:none" points="584.712,1463.75 584.712,255.754 "/>
<polyline clip-path="url(#clip421)" style="stroke:#000000; stroke-linecap:round; stroke-linejoin:round; stroke-width:2; stroke-opacity:0.1; fill:none" points="743.143,1463.75 743.143,255.754 "/>
<polyline clip-path="url(#clip421)" style="stroke:#000000; stroke-linecap:round; stroke-linejoin:round; stroke-width:2; stroke-opacity:0.1; fill:none" points="901.574,1463.75 901.574,255.754 "/>
<polyline clip-path="url(#clip421)" style="stroke:#000000; stroke-linecap:round; stroke-linejoin:round; stroke-width:2; stroke-opacity:0.1; fill:none" points="1060,1463.75 1060,255.754 "/>
<polyline clip-path="url(#clip421)" style="stroke:#000000; stroke-linecap:round; stroke-linejoin:round; stroke-width:2; stroke-opacity:0.1; fill:none" points="1218.44,1463.75 1218.44,255.754 "/>
<polyline clip-path="url(#clip421)" style="stroke:#000000; stroke-linecap:round; stroke-linejoin:round; stroke-width:2; stroke-opacity:0.1; fill:none" points="1376.87,1463.75 1376.87,255.754 "/>
<polyline clip-path="url(#clip421)" style="stroke:#000000; stroke-linecap:round; stroke-linejoin:round; stroke-width:2; stroke-opacity:0.1; fill:none" points="1535.3,1463.75 1535.3,255.754 "/>
<polyline clip-path="url(#clip421)" style="stroke:#000000; stroke-linecap:round; stroke-linejoin:round; stroke-width:2; stroke-opacity:0.1; fill:none" points="1693.73,1463.75 1693.73,255.754 "/>
<polyline clip-path="url(#clip421)" style="stroke:#000000; stroke-linecap:round; stroke-linejoin:round; stroke-width:2; stroke-opacity:0.1; fill:none" points="1852.16,1463.75 1852.16,255.754 "/>
<polyline clip-path="url(#clip421)" style="stroke:#000000; stroke-linecap:round; stroke-linejoin:round; stroke-width:2; stroke-opacity:0.1; fill:none" points="2010.59,1463.75 2010.59,255.754 "/>
<polyline clip-path="url(#clip421)" style="stroke:#000000; stroke-linecap:round; stroke-linejoin:round; stroke-width:2; stroke-opacity:0.1; fill:none" points="2169.02,1463.75 2169.02,255.754 "/>
<polyline clip-path="url(#clip421)" style="stroke:#000000; stroke-linecap:round; stroke-linejoin:round; stroke-width:2; stroke-opacity:0.1; fill:none" points="2327.45,1463.75 2327.45,255.754 "/>
<polyline clip-path="url(#clip421)" style="stroke:#000000; stroke-linecap:round; stroke-linejoin:round; stroke-width:2; stroke-opacity:0.1; fill:none" points="2485.88,1463.75 2485.88,255.754 "/>
<polyline clip-path="url(#clip421)" style="stroke:#000000; stroke-linecap:round; stroke-linejoin:round; stroke-width:2; stroke-opacity:0.1; fill:none" points="2644.31,1463.75 2644.31,255.754 "/>
<polyline clip-path="url(#clip421)" style="stroke:#000000; stroke-linecap:round; stroke-linejoin:round; stroke-width:2; stroke-opacity:0.1; fill:none" points="2802.74,1463.75 2802.74,255.754 "/>
<polyline clip-path="url(#clip421)" style="stroke:#000000; stroke-linecap:round; stroke-linejoin:round; stroke-width:2; stroke-opacity:0.1; fill:none" points="376.433,1463.75 3011.02,1463.75 "/>
<polyline clip-path="url(#clip421)" style="stroke:#000000; stroke-linecap:round; stroke-linejoin:round; stroke-width:2; stroke-opacity:0.1; fill:none" points="376.433,1259.01 3011.02,1259.01 "/>
<polyline clip-path="url(#clip421)" style="stroke:#000000; stroke-linecap:round; stroke-linejoin:round; stroke-width:2; stroke-opacity:0.1; fill:none" points="376.433,1054.26 3011.02,1054.26 "/>
<polyline clip-path="url(#clip421)" style="stroke:#000000; stroke-linecap:round; stroke-linejoin:round; stroke-width:2; stroke-opacity:0.1; fill:none" points="376.433,849.516 3011.02,849.516 "/>
<polyline clip-path="url(#clip421)" style="stroke:#000000; stroke-linecap:round; stroke-linejoin:round; stroke-width:2; stroke-opacity:0.1; fill:none" points="376.433,644.771 3011.02,644.771 "/>
<polyline clip-path="url(#clip421)" style="stroke:#000000; stroke-linecap:round; stroke-linejoin:round; stroke-width:2; stroke-opacity:0.1; fill:none" points="376.433,440.025 3011.02,440.025 "/>
<polyline clip-path="url(#clip420)" style="stroke:#000000; stroke-linecap:round; stroke-linejoin:round; stroke-width:4; stroke-opacity:1; fill:none" points="376.433,1463.75 3011.02,1463.75 "/>
<polyline clip-path="url(#clip420)" style="stroke:#000000; stroke-linecap:round; stroke-linejoin:round; stroke-width:4; stroke-opacity:1; fill:none" points="584.712,1463.75 584.712,1444.86 "/>
<polyline clip-path="url(#clip420)" style="stroke:#000000; stroke-linecap:round; stroke-linejoin:round; stroke-width:4; stroke-opacity:1; fill:none" points="743.143,1463.75 743.143,1444.86 "/>
<polyline clip-path="url(#clip420)" style="stroke:#000000; stroke-linecap:round; stroke-linejoin:round; stroke-width:4; stroke-opacity:1; fill:none" points="901.574,1463.75 901.574,1444.86 "/>
<polyline clip-path="url(#clip420)" style="stroke:#000000; stroke-linecap:round; stroke-linejoin:round; stroke-width:4; stroke-opacity:1; fill:none" points="1060,1463.75 1060,1444.86 "/>
<polyline clip-path="url(#clip420)" style="stroke:#000000; stroke-linecap:round; stroke-linejoin:round; stroke-width:4; stroke-opacity:1; fill:none" points="1218.44,1463.75 1218.44,1444.86 "/>
<polyline clip-path="url(#clip420)" style="stroke:#000000; stroke-linecap:round; stroke-linejoin:round; stroke-width:4; stroke-opacity:1; fill:none" points="1376.87,1463.75 1376.87,1444.86 "/>
<polyline clip-path="url(#clip420)" style="stroke:#000000; stroke-linecap:round; stroke-linejoin:round; stroke-width:4; stroke-opacity:1; fill:none" points="1535.3,1463.75 1535.3,1444.86 "/>
<polyline clip-path="url(#clip420)" style="stroke:#000000; stroke-linecap:round; stroke-linejoin:round; stroke-width:4; stroke-opacity:1; fill:none" points="1693.73,1463.75 1693.73,1444.86 "/>
<polyline clip-path="url(#clip420)" style="stroke:#000000; stroke-linecap:round; stroke-linejoin:round; stroke-width:4; stroke-opacity:1; fill:none" points="1852.16,1463.75 1852.16,1444.86 "/>
<polyline clip-path="url(#clip420)" style="stroke:#000000; stroke-linecap:round; stroke-linejoin:round; stroke-width:4; stroke-opacity:1; fill:none" points="2010.59,1463.75 2010.59,1444.86 "/>
<polyline clip-path="url(#clip420)" style="stroke:#000000; stroke-linecap:round; stroke-linejoin:round; stroke-width:4; stroke-opacity:1; fill:none" points="2169.02,1463.75 2169.02,1444.86 "/>
<polyline clip-path="url(#clip420)" style="stroke:#000000; stroke-linecap:round; stroke-linejoin:round; stroke-width:4; stroke-opacity:1; fill:none" points="2327.45,1463.75 2327.45,1444.86 "/>
<polyline clip-path="url(#clip420)" style="stroke:#000000; stroke-linecap:round; stroke-linejoin:round; stroke-width:4; stroke-opacity:1; fill:none" points="2485.88,1463.75 2485.88,1444.86 "/>
<polyline clip-path="url(#clip420)" style="stroke:#000000; stroke-linecap:round; stroke-linejoin:round; stroke-width:4; stroke-opacity:1; fill:none" points="2644.31,1463.75 2644.31,1444.86 "/>
<polyline clip-path="url(#clip420)" style="stroke:#000000; stroke-linecap:round; stroke-linejoin:round; stroke-width:4; stroke-opacity:1; fill:none" points="2802.74,1463.75 2802.74,1444.86 "/>
<path clip-path="url(#clip420)" d="M570.511 1621.94 Q570.511 1625.56 574.076 1627.38 Q577.617 1629.19 584.747 1629.19 Q591.853 1629.19 595.418 1627.38 Q598.96 1625.56 598.96 1621.94 Q598.96 1618.31 595.418 1616.51 Q591.853 1614.68 584.747 1614.68 Q577.617 1614.68 574.076 1616.51 Q570.511 1618.31 570.511 1621.94 M566.807 1621.94 Q566.807 1616.13 571.414 1613.08 Q575.997 1610 584.747 1610 Q593.474 1610 598.08 1613.08 Q602.664 1616.13 602.664 1621.94 Q602.664 1627.75 598.08 1630.83 Q593.474 1633.89 584.747 1633.89 Q575.997 1633.89 571.414 1630.83 Q566.807 1627.75 566.807 1621.94 Z" fill="#000000" fill-rule="nonzero" fill-opacity="1" /><path clip-path="url(#clip420)" d="M570.511 1591.78 Q570.511 1595.39 574.076 1597.22 Q577.617 1599.03 584.747 1599.03 Q591.853 1599.03 595.418 1597.22 Q598.96 1595.39 598.96 1591.78 Q598.96 1588.15 595.418 1586.34 Q591.853 1584.51 584.747 1584.51 Q577.617 1584.51 574.076 1586.34 Q570.511 1588.15 570.511 1591.78 M566.807 1591.78 Q566.807 1585.97 571.414 1582.92 Q575.997 1579.84 584.747 1579.84 Q593.474 1579.84 598.08 1582.92 Q602.664 1585.97 602.664 1591.78 Q602.664 1597.59 598.08 1600.67 Q593.474 1603.73 584.747 1603.73 Q575.997 1603.73 571.414 1600.67 Q566.807 1597.59 566.807 1591.78 Z" fill="#000000" fill-rule="nonzero" fill-opacity="1" /><path clip-path="url(#clip420)" d="M570.511 1561.62 Q570.511 1565.23 574.076 1567.06 Q577.617 1568.87 584.747 1568.87 Q591.853 1568.87 595.418 1567.06 Q598.96 1565.23 598.96 1561.62 Q598.96 1557.99 595.418 1556.18 Q591.853 1554.35 584.747 1554.35 Q577.617 1554.35 574.076 1556.18 Q570.511 1557.99 570.511 1561.62 M566.807 1561.62 Q566.807 1555.81 571.414 1552.76 Q575.997 1549.68 584.747 1549.68 Q593.474 1549.68 598.08 1552.76 Q602.664 1555.81 602.664 1561.62 Q602.664 1567.43 598.08 1570.51 Q593.474 1573.57 584.747 1573.57 Q575.997 1573.57 571.414 1570.51 Q566.807 1567.43 566.807 1561.62 Z" fill="#000000" fill-rule="nonzero" fill-opacity="1" /><path clip-path="url(#clip420)" d="M570.511 1531.46 Q570.511 1535.07 574.076 1536.9 Q577.617 1538.7 584.747 1538.7 Q591.853 1538.7 595.418 1536.9 Q598.96 1535.07 598.96 1531.46 Q598.96 1527.82 595.418 1526.02 Q591.853 1524.19 584.747 1524.19 Q577.617 1524.19 574.076 1526.02 Q570.511 1527.82 570.511 1531.46 M566.807 1531.46 Q566.807 1525.65 571.414 1522.59 Q575.997 1519.51 584.747 1519.51 Q593.474 1519.51 598.08 1522.59 Q602.664 1525.65 602.664 1531.46 Q602.664 1537.27 598.08 1540.35 Q593.474 1543.4 584.747 1543.4 Q575.997 1543.4 571.414 1540.35 Q566.807 1537.27 566.807 1531.46 Z" fill="#000000" fill-rule="nonzero" fill-opacity="1" /><path clip-path="url(#clip420)" d="M570.511 1501.3 Q570.511 1504.91 574.076 1506.74 Q577.617 1508.54 584.747 1508.54 Q591.853 1508.54 595.418 1506.74 Q598.96 1504.91 598.96 1501.3 Q598.96 1497.66 595.418 1495.86 Q591.853 1494.03 584.747 1494.03 Q577.617 1494.03 574.076 1495.86 Q570.511 1497.66 570.511 1501.3 M566.807 1501.3 Q566.807 1495.49 571.414 1492.43 Q575.997 1489.35 584.747 1489.35 Q593.474 1489.35 598.08 1492.43 Q602.664 1495.49 602.664 1501.3 Q602.664 1507.11 598.08 1510.19 Q593.474 1513.24 584.747 1513.24 Q575.997 1513.24 571.414 1510.19 Q566.807 1507.11 566.807 1501.3 Z" fill="#000000" fill-rule="nonzero" fill-opacity="1" /><path clip-path="url(#clip420)" d="M756.488 1629.91 L756.488 1622.27 L730.122 1622.27 L731.789 1630.58 L727.53 1630.58 L725.863 1622.32 L725.863 1617.64 L756.488 1617.64 L756.488 1610 L760.423 1610 L760.423 1629.91 L756.488 1629.91 Z" fill="#000000" fill-rule="nonzero" fill-opacity="1" /><path clip-path="url(#clip420)" d="M756.488 1599.75 L756.488 1592.11 L730.122 1592.11 L731.789 1600.42 L727.53 1600.42 L725.863 1592.15 L725.863 1587.48 L756.488 1587.48 L756.488 1579.84 L760.423 1579.84 L760.423 1599.75 L756.488 1599.75 Z" fill="#000000" fill-rule="nonzero" fill-opacity="1" /><path clip-path="url(#clip420)" d="M756.488 1569.58 L756.488 1561.95 L730.122 1561.95 L731.789 1570.26 L727.53 1570.26 L725.863 1561.99 L725.863 1557.32 L756.488 1557.32 L756.488 1549.68 L760.423 1549.68 L760.423 1569.58 L756.488 1569.58 Z" fill="#000000" fill-rule="nonzero" fill-opacity="1" /><path clip-path="url(#clip420)" d="M756.488 1539.42 L756.488 1531.78 L730.122 1531.78 L731.789 1540.09 L727.53 1540.09 L725.863 1531.83 L725.863 1527.15 L756.488 1527.15 L756.488 1519.51 L760.423 1519.51 L760.423 1539.42 L756.488 1539.42 Z" fill="#000000" fill-rule="nonzero" fill-opacity="1" /><path clip-path="url(#clip420)" d="M756.488 1509.26 L756.488 1501.62 L730.122 1501.62 L731.789 1509.93 L727.53 1509.93 L725.863 1501.67 L725.863 1496.99 L756.488 1496.99 L756.488 1489.35 L760.423 1489.35 L760.423 1509.26 L756.488 1509.26 Z" fill="#000000" fill-rule="nonzero" fill-opacity="1" /><path clip-path="url(#clip420)" d="M914.919 1629.91 L914.919 1622.27 L888.553 1622.27 L890.22 1630.58 L885.961 1630.58 L884.294 1622.32 L884.294 1617.64 L914.919 1617.64 L914.919 1610 L918.854 1610 L918.854 1629.91 L914.919 1629.91 Z" fill="#000000" fill-rule="nonzero" fill-opacity="1" /><path clip-path="url(#clip420)" d="M887.373 1590.56 Q887.373 1594.17 890.937 1596 Q894.479 1597.8 901.609 1597.8 Q908.715 1597.8 912.28 1596 Q915.822 1594.17 915.822 1590.56 Q915.822 1586.92 912.28 1585.12 Q908.715 1583.29 901.609 1583.29 Q894.479 1583.29 890.937 1585.12 Q887.373 1586.92 887.373 1590.56 M883.669 1590.56 Q883.669 1584.75 888.275 1581.69 Q892.859 1578.61 901.609 1578.61 Q910.335 1578.61 914.942 1581.69 Q919.525 1584.75 919.525 1590.56 Q919.525 1596.37 914.942 1599.44 Q910.335 1602.5 901.609 1602.5 Q892.859 1602.5 888.275 1599.44 Q883.669 1596.37 883.669 1590.56 Z" fill="#000000" fill-rule="nonzero" fill-opacity="1" /><path clip-path="url(#clip420)" d="M914.919 1569.58 L914.919 1561.95 L888.553 1561.95 L890.22 1570.26 L885.961 1570.26 L884.294 1561.99 L884.294 1557.32 L914.919 1557.32 L914.919 1549.68 L918.854 1549.68 L918.854 1569.58 L914.919 1569.58 Z" fill="#000000" fill-rule="nonzero" fill-opacity="1" /><path clip-path="url(#clip420)" d="M914.919 1539.42 L914.919 1531.78 L888.553 1531.78 L890.22 1540.09 L885.961 1540.09 L884.294 1531.83 L884.294 1527.15 L914.919 1527.15 L914.919 1519.51 L918.854 1519.51 L918.854 1539.42 L914.919 1539.42 Z" fill="#000000" fill-rule="nonzero" fill-opacity="1" /><path clip-path="url(#clip420)" d="M914.919 1509.26 L914.919 1501.62 L888.553 1501.62 L890.22 1509.93 L885.961 1509.93 L884.294 1501.67 L884.294 1496.99 L914.919 1496.99 L914.919 1489.35 L918.854 1489.35 L918.854 1509.26 L914.919 1509.26 Z" fill="#000000" fill-rule="nonzero" fill-opacity="1" /><path clip-path="url(#clip420)" d="M1045.8 1621.94 Q1045.8 1625.56 1049.37 1627.38 Q1052.91 1629.19 1060.04 1629.19 Q1067.15 1629.19 1070.71 1627.38 Q1074.25 1625.56 1074.25 1621.94 Q1074.25 1618.31 1070.71 1616.51 Q1067.15 1614.68 1060.04 1614.68 Q1052.91 1614.68 1049.37 1616.51 Q1045.8 1618.31 1045.8 1621.94 M1042.1 1621.94 Q1042.1 1616.13 1046.71 1613.08 Q1051.29 1610 1060.04 1610 Q1068.77 1610 1073.37 1613.08 Q1077.96 1616.13 1077.96 1621.94 Q1077.96 1627.75 1073.37 1630.83 Q1068.77 1633.89 1060.04 1633.89 Q1051.29 1633.89 1046.71 1630.83 Q1042.1 1627.75 1042.1 1621.94 Z" fill="#000000" fill-rule="nonzero" fill-opacity="1" /><path clip-path="url(#clip420)" d="M1073.35 1600.97 L1073.35 1593.33 L1046.98 1593.33 L1048.65 1601.64 L1044.39 1601.64 L1042.72 1593.38 L1042.72 1588.7 L1073.35 1588.7 L1073.35 1581.07 L1077.28 1581.07 L1077.28 1600.97 L1073.35 1600.97 Z" fill="#000000" fill-rule="nonzero" fill-opacity="1" /><path clip-path="url(#clip420)" d="M1045.8 1561.62 Q1045.8 1565.23 1049.37 1567.06 Q1052.91 1568.87 1060.04 1568.87 Q1067.15 1568.87 1070.71 1567.06 Q1074.25 1565.23 1074.25 1561.62 Q1074.25 1557.99 1070.71 1556.18 Q1067.15 1554.35 1060.04 1554.35 Q1052.91 1554.35 1049.37 1556.18 Q1045.8 1557.99 1045.8 1561.62 M1042.1 1561.62 Q1042.1 1555.81 1046.71 1552.76 Q1051.29 1549.68 1060.04 1549.68 Q1068.77 1549.68 1073.37 1552.76 Q1077.96 1555.81 1077.96 1561.62 Q1077.96 1567.43 1073.37 1570.51 Q1068.77 1573.57 1060.04 1573.57 Q1051.29 1573.57 1046.71 1570.51 Q1042.1 1567.43 1042.1 1561.62 Z" fill="#000000" fill-rule="nonzero" fill-opacity="1" /><path clip-path="url(#clip420)" d="M1045.8 1531.46 Q1045.8 1535.07 1049.37 1536.9 Q1052.91 1538.7 1060.04 1538.7 Q1067.15 1538.7 1070.71 1536.9 Q1074.25 1535.07 1074.25 1531.46 Q1074.25 1527.82 1070.71 1526.02 Q1067.15 1524.19 1060.04 1524.19 Q1052.91 1524.19 1049.37 1526.02 Q1045.8 1527.82 1045.8 1531.46 M1042.1 1531.46 Q1042.1 1525.65 1046.71 1522.59 Q1051.29 1519.51 1060.04 1519.51 Q1068.77 1519.51 1073.37 1522.59 Q1077.96 1525.65 1077.96 1531.46 Q1077.96 1537.27 1073.37 1540.35 Q1068.77 1543.4 1060.04 1543.4 Q1051.29 1543.4 1046.71 1540.35 Q1042.1 1537.27 1042.1 1531.46 Z" fill="#000000" fill-rule="nonzero" fill-opacity="1" /><path clip-path="url(#clip420)" d="M1045.8 1501.3 Q1045.8 1504.91 1049.37 1506.74 Q1052.91 1508.54 1060.04 1508.54 Q1067.15 1508.54 1070.71 1506.74 Q1074.25 1504.91 1074.25 1501.3 Q1074.25 1497.66 1070.71 1495.86 Q1067.15 1494.03 1060.04 1494.03 Q1052.91 1494.03 1049.37 1495.86 Q1045.8 1497.66 1045.8 1501.3 M1042.1 1501.3 Q1042.1 1495.49 1046.71 1492.43 Q1051.29 1489.35 1060.04 1489.35 Q1068.77 1489.35 1073.37 1492.43 Q1077.96 1495.49 1077.96 1501.3 Q1077.96 1507.11 1073.37 1510.19 Q1068.77 1513.24 1060.04 1513.24 Q1051.29 1513.24 1046.71 1510.19 Q1042.1 1507.11 1042.1 1501.3 Z" fill="#000000" fill-rule="nonzero" fill-opacity="1" /><path clip-path="url(#clip420)" d="M1204.23 1621.94 Q1204.23 1625.56 1207.8 1627.38 Q1211.34 1629.19 1218.47 1629.19 Q1225.58 1629.19 1229.14 1627.38 Q1232.68 1625.56 1232.68 1621.94 Q1232.68 1618.31 1229.14 1616.51 Q1225.58 1614.68 1218.47 1614.68 Q1211.34 1614.68 1207.8 1616.51 Q1204.23 1618.31 1204.23 1621.94 M1200.53 1621.94 Q1200.53 1616.13 1205.14 1613.08 Q1209.72 1610 1218.47 1610 Q1227.2 1610 1231.8 1613.08 Q1236.39 1616.13 1236.39 1621.94 Q1236.39 1627.75 1231.8 1630.83 Q1227.2 1633.89 1218.47 1633.89 Q1209.72 1633.89 1205.14 1630.83 Q1200.53 1627.75 1200.53 1621.94 Z" fill="#000000" fill-rule="nonzero" fill-opacity="1" /><path clip-path="url(#clip420)" d="M1231.78 1600.97 L1231.78 1593.33 L1205.41 1593.33 L1207.08 1601.64 L1202.82 1601.64 L1201.16 1593.38 L1201.16 1588.7 L1231.78 1588.7 L1231.78 1581.07 L1235.72 1581.07 L1235.72 1600.97 L1231.78 1600.97 Z" fill="#000000" fill-rule="nonzero" fill-opacity="1" /><path clip-path="url(#clip420)" d="M1231.78 1570.81 L1231.78 1563.17 L1205.41 1563.17 L1207.08 1571.48 L1202.82 1571.48 L1201.16 1563.22 L1201.16 1558.54 L1231.78 1558.54 L1231.78 1550.9 L1235.72 1550.9 L1235.72 1570.81 L1231.78 1570.81 Z" fill="#000000" fill-rule="nonzero" fill-opacity="1" /><path clip-path="url(#clip420)" d="M1204.23 1531.46 Q1204.23 1535.07 1207.8 1536.9 Q1211.34 1538.7 1218.47 1538.7 Q1225.58 1538.7 1229.14 1536.9 Q1232.68 1535.07 1232.68 1531.46 Q1232.68 1527.82 1229.14 1526.02 Q1225.58 1524.19 1218.47 1524.19 Q1211.34 1524.19 1207.8 1526.02 Q1204.23 1527.82 1204.23 1531.46 M1200.53 1531.46 Q1200.53 1525.65 1205.14 1522.59 Q1209.72 1519.51 1218.47 1519.51 Q1227.2 1519.51 1231.8 1522.59 Q1236.39 1525.65 1236.39 1531.46 Q1236.39 1537.27 1231.8 1540.35 Q1227.2 1543.4 1218.47 1543.4 Q1209.72 1543.4 1205.14 1540.35 Q1200.53 1537.27 1200.53 1531.46 Z" fill="#000000" fill-rule="nonzero" fill-opacity="1" /><path clip-path="url(#clip420)" d="M1204.23 1501.3 Q1204.23 1504.91 1207.8 1506.74 Q1211.34 1508.54 1218.47 1508.54 Q1225.58 1508.54 1229.14 1506.74 Q1232.68 1504.91 1232.68 1501.3 Q1232.68 1497.66 1229.14 1495.86 Q1225.58 1494.03 1218.47 1494.03 Q1211.34 1494.03 1207.8 1495.86 Q1204.23 1497.66 1204.23 1501.3 M1200.53 1501.3 Q1200.53 1495.49 1205.14 1492.43 Q1209.72 1489.35 1218.47 1489.35 Q1227.2 1489.35 1231.8 1492.43 Q1236.39 1495.49 1236.39 1501.3 Q1236.39 1507.11 1231.8 1510.19 Q1227.2 1513.24 1218.47 1513.24 Q1209.72 1513.24 1205.14 1510.19 Q1200.53 1507.11 1200.53 1501.3 Z" fill="#000000" fill-rule="nonzero" fill-opacity="1" /><path clip-path="url(#clip420)" d="M1390.21 1631.13 L1390.21 1623.5 L1363.85 1623.5 L1365.51 1631.81 L1361.25 1631.81 L1359.59 1623.54 L1359.59 1618.87 L1390.21 1618.87 L1390.21 1611.23 L1394.15 1611.23 L1394.15 1631.13 L1390.21 1631.13 Z" fill="#000000" fill-rule="nonzero" fill-opacity="1" /><path clip-path="url(#clip420)" d="M1390.21 1600.97 L1390.21 1593.33 L1363.85 1593.33 L1365.51 1601.64 L1361.25 1601.64 L1359.59 1593.38 L1359.59 1588.7 L1390.21 1588.7 L1390.21 1581.07 L1394.15 1581.07 L1394.15 1600.97 L1390.21 1600.97 Z" fill="#000000" fill-rule="nonzero" fill-opacity="1" /><path clip-path="url(#clip420)" d="M1390.21 1570.81 L1390.21 1563.17 L1363.85 1563.17 L1365.51 1571.48 L1361.25 1571.48 L1359.59 1563.22 L1359.59 1558.54 L1390.21 1558.54 L1390.21 1550.9 L1394.15 1550.9 L1394.15 1570.81 L1390.21 1570.81 Z" fill="#000000" fill-rule="nonzero" fill-opacity="1" /><path clip-path="url(#clip420)" d="M1390.21 1540.65 L1390.21 1533.01 L1363.85 1533.01 L1365.51 1541.32 L1361.25 1541.32 L1359.59 1533.06 L1359.59 1528.38 L1390.21 1528.38 L1390.21 1520.74 L1394.15 1520.74 L1394.15 1540.65 L1390.21 1540.65 Z" fill="#000000" fill-rule="nonzero" fill-opacity="1" /><path clip-path="url(#clip420)" d="M1362.67 1501.3 Q1362.67 1504.91 1366.23 1506.74 Q1369.77 1508.54 1376.9 1508.54 Q1384.01 1508.54 1387.57 1506.74 Q1391.11 1504.91 1391.11 1501.3 Q1391.11 1497.66 1387.57 1495.86 Q1384.01 1494.03 1376.9 1494.03 Q1369.77 1494.03 1366.23 1495.86 Q1362.67 1497.66 1362.67 1501.3 M1358.96 1501.3 Q1358.96 1495.49 1363.57 1492.43 Q1368.15 1489.35 1376.9 1489.35 Q1385.63 1489.35 1390.23 1492.43 Q1394.82 1495.49 1394.82 1501.3 Q1394.82 1507.11 1390.23 1510.19 Q1385.63 1513.24 1376.9 1513.24 Q1368.15 1513.24 1363.57 1510.19 Q1358.96 1507.11 1358.96 1501.3 Z" fill="#000000" fill-rule="nonzero" fill-opacity="1" /><path clip-path="url(#clip420)" d="M1548.64 1629.91 L1548.64 1622.27 L1522.28 1622.27 L1523.94 1630.58 L1519.68 1630.58 L1518.02 1622.32 L1518.02 1617.64 L1548.64 1617.64 L1548.64 1610 L1552.58 1610 L1552.58 1629.91 L1548.64 1629.91 Z" fill="#000000" fill-rule="nonzero" fill-opacity="1" /><path clip-path="url(#clip420)" d="M1548.64 1599.75 L1548.64 1592.11 L1522.28 1592.11 L1523.94 1600.42 L1519.68 1600.42 L1518.02 1592.15 L1518.02 1587.48 L1548.64 1587.48 L1548.64 1579.84 L1552.58 1579.84 L1552.58 1599.75 L1548.64 1599.75 Z" fill="#000000" fill-rule="nonzero" fill-opacity="1" /><path clip-path="url(#clip420)" d="M1521.1 1560.39 Q1521.1 1564.01 1524.66 1565.83 Q1528.2 1567.64 1535.33 1567.64 Q1542.44 1567.64 1546 1565.83 Q1549.54 1564.01 1549.54 1560.39 Q1549.54 1556.76 1546 1554.95 Q1542.44 1553.13 1535.33 1553.13 Q1528.2 1553.13 1524.66 1554.95 Q1521.1 1556.76 1521.1 1560.39 M1517.39 1560.39 Q1517.39 1554.58 1522 1551.53 Q1526.58 1548.45 1535.33 1548.45 Q1544.06 1548.45 1548.67 1551.53 Q1553.25 1554.58 1553.25 1560.39 Q1553.25 1566.2 1548.67 1569.28 Q1544.06 1572.34 1535.33 1572.34 Q1526.58 1572.34 1522 1569.28 Q1517.39 1566.2 1517.39 1560.39 Z" fill="#000000" fill-rule="nonzero" fill-opacity="1" /><path clip-path="url(#clip420)" d="M1548.64 1539.42 L1548.64 1531.78 L1522.28 1531.78 L1523.94 1540.09 L1519.68 1540.09 L1518.02 1531.83 L1518.02 1527.15 L1548.64 1527.15 L1548.64 1519.51 L1552.58 1519.51 L1552.58 1539.42 L1548.64 1539.42 Z" fill="#000000" fill-rule="nonzero" fill-opacity="1" /><path clip-path="url(#clip420)" d="M1548.64 1509.26 L1548.64 1501.62 L1522.28 1501.62 L1523.94 1509.93 L1519.68 1509.93 L1518.02 1501.67 L1518.02 1496.99 L1548.64 1496.99 L1548.64 1489.35 L1552.58 1489.35 L1552.58 1509.26 L1548.64 1509.26 Z" fill="#000000" fill-rule="nonzero" fill-opacity="1" /><path clip-path="url(#clip420)" d="M1707.07 1631.13 L1707.07 1623.5 L1680.71 1623.5 L1682.37 1631.81 L1678.11 1631.81 L1676.45 1623.54 L1676.45 1618.87 L1707.07 1618.87 L1707.07 1611.23 L1711.01 1611.23 L1711.01 1631.13 L1707.07 1631.13 Z" fill="#000000" fill-rule="nonzero" fill-opacity="1" /><path clip-path="url(#clip420)" d="M1679.53 1591.78 Q1679.53 1595.39 1683.09 1597.22 Q1686.63 1599.03 1693.76 1599.03 Q1700.87 1599.03 1704.43 1597.22 Q1707.98 1595.39 1707.98 1591.78 Q1707.98 1588.15 1704.43 1586.34 Q1700.87 1584.51 1693.76 1584.51 Q1686.63 1584.51 1683.09 1586.34 Q1679.53 1588.15 1679.53 1591.78 M1675.82 1591.78 Q1675.82 1585.97 1680.43 1582.92 Q1685.01 1579.84 1693.76 1579.84 Q1702.49 1579.84 1707.1 1582.92 Q1711.68 1585.97 1711.68 1591.78 Q1711.68 1597.59 1707.1 1600.67 Q1702.49 1603.73 1693.76 1603.73 Q1685.01 1603.73 1680.43 1600.67 Q1675.82 1597.59 1675.82 1591.78 Z" fill="#000000" fill-rule="nonzero" fill-opacity="1" /><path clip-path="url(#clip420)" d="M1679.53 1561.62 Q1679.53 1565.23 1683.09 1567.06 Q1686.63 1568.87 1693.76 1568.87 Q1700.87 1568.87 1704.43 1567.06 Q1707.98 1565.23 1707.98 1561.62 Q1707.98 1557.99 1704.43 1556.18 Q1700.87 1554.35 1693.76 1554.35 Q1686.63 1554.35 1683.09 1556.18 Q1679.53 1557.99 1679.53 1561.62 M1675.82 1561.62 Q1675.82 1555.81 1680.43 1552.76 Q1685.01 1549.68 1693.76 1549.68 Q1702.49 1549.68 1707.1 1552.76 Q1711.68 1555.81 1711.68 1561.62 Q1711.68 1567.43 1707.1 1570.51 Q1702.49 1573.57 1693.76 1573.57 Q1685.01 1573.57 1680.43 1570.51 Q1675.82 1567.43 1675.82 1561.62 Z" fill="#000000" fill-rule="nonzero" fill-opacity="1" /><path clip-path="url(#clip420)" d="M1679.53 1531.46 Q1679.53 1535.07 1683.09 1536.9 Q1686.63 1538.7 1693.76 1538.7 Q1700.87 1538.7 1704.43 1536.9 Q1707.98 1535.07 1707.98 1531.46 Q1707.98 1527.82 1704.43 1526.02 Q1700.87 1524.19 1693.76 1524.19 Q1686.63 1524.19 1683.09 1526.02 Q1679.53 1527.82 1679.53 1531.46 M1675.82 1531.46 Q1675.82 1525.65 1680.43 1522.59 Q1685.01 1519.51 1693.76 1519.51 Q1702.49 1519.51 1707.1 1522.59 Q1711.68 1525.65 1711.68 1531.46 Q1711.68 1537.27 1707.1 1540.35 Q1702.49 1543.4 1693.76 1543.4 Q1685.01 1543.4 1680.43 1540.35 Q1675.82 1537.27 1675.82 1531.46 Z" fill="#000000" fill-rule="nonzero" fill-opacity="1" /><path clip-path="url(#clip420)" d="M1679.53 1501.3 Q1679.53 1504.91 1683.09 1506.74 Q1686.63 1508.54 1693.76 1508.54 Q1700.87 1508.54 1704.43 1506.74 Q1707.98 1504.91 1707.98 1501.3 Q1707.98 1497.66 1704.43 1495.86 Q1700.87 1494.03 1693.76 1494.03 Q1686.63 1494.03 1683.09 1495.86 Q1679.53 1497.66 1679.53 1501.3 M1675.82 1501.3 Q1675.82 1495.49 1680.43 1492.43 Q1685.01 1489.35 1693.76 1489.35 Q1702.49 1489.35 1707.1 1492.43 Q1711.68 1495.49 1711.68 1501.3 Q1711.68 1507.11 1707.1 1510.19 Q1702.49 1513.24 1693.76 1513.24 Q1685.01 1513.24 1680.43 1510.19 Q1675.82 1507.11 1675.82 1501.3 Z" fill="#000000" fill-rule="nonzero" fill-opacity="1" /><path clip-path="url(#clip420)" d="M1837.96 1620.72 Q1837.96 1624.33 1841.52 1626.16 Q1845.06 1627.96 1852.19 1627.96 Q1859.3 1627.96 1862.86 1626.16 Q1866.41 1624.33 1866.41 1620.72 Q1866.41 1617.08 1862.86 1615.28 Q1859.3 1613.45 1852.19 1613.45 Q1845.06 1613.45 1841.52 1615.28 Q1837.96 1617.08 1837.96 1620.72 M1834.25 1620.72 Q1834.25 1614.91 1838.86 1611.85 Q1843.44 1608.77 1852.19 1608.77 Q1860.92 1608.77 1865.53 1611.85 Q1870.11 1614.91 1870.11 1620.72 Q1870.11 1626.53 1865.53 1629.61 Q1860.92 1632.66 1852.19 1632.66 Q1843.44 1632.66 1838.86 1629.61 Q1834.25 1626.53 1834.25 1620.72 Z" fill="#000000" fill-rule="nonzero" fill-opacity="1" /><path clip-path="url(#clip420)" d="M1865.5 1599.75 L1865.5 1592.11 L1839.14 1592.11 L1840.8 1600.42 L1836.55 1600.42 L1834.88 1592.15 L1834.88 1587.48 L1865.5 1587.48 L1865.5 1579.84 L1869.44 1579.84 L1869.44 1599.75 L1865.5 1599.75 Z" fill="#000000" fill-rule="nonzero" fill-opacity="1" /><path clip-path="url(#clip420)" d="M1865.5 1569.58 L1865.5 1561.95 L1839.14 1561.95 L1840.8 1570.26 L1836.55 1570.26 L1834.88 1561.99 L1834.88 1557.32 L1865.5 1557.32 L1865.5 1549.68 L1869.44 1549.68 L1869.44 1569.58 L1865.5 1569.58 Z" fill="#000000" fill-rule="nonzero" fill-opacity="1" /><path clip-path="url(#clip420)" d="M1865.5 1539.42 L1865.5 1531.78 L1839.14 1531.78 L1840.8 1540.09 L1836.55 1540.09 L1834.88 1531.83 L1834.88 1527.15 L1865.5 1527.15 L1865.5 1519.51 L1869.44 1519.51 L1869.44 1539.42 L1865.5 1539.42 Z" fill="#000000" fill-rule="nonzero" fill-opacity="1" /><path clip-path="url(#clip420)" d="M1865.5 1509.26 L1865.5 1501.62 L1839.14 1501.62 L1840.8 1509.93 L1836.55 1509.93 L1834.88 1501.67 L1834.88 1496.99 L1865.5 1496.99 L1865.5 1489.35 L1869.44 1489.35 L1869.44 1509.26 L1865.5 1509.26 Z" fill="#000000" fill-rule="nonzero" fill-opacity="1" /><path clip-path="url(#clip420)" d="M2023.93 1629.91 L2023.93 1622.27 L1997.57 1622.27 L1999.24 1630.58 L1994.98 1630.58 L1993.31 1622.32 L1993.31 1617.64 L2023.93 1617.64 L2023.93 1610 L2027.87 1610 L2027.87 1629.91 L2023.93 1629.91 Z" fill="#000000" fill-rule="nonzero" fill-opacity="1" /><path clip-path="url(#clip420)" d="M2023.93 1599.75 L2023.93 1592.11 L1997.57 1592.11 L1999.24 1600.42 L1994.98 1600.42 L1993.31 1592.15 L1993.31 1587.48 L2023.93 1587.48 L2023.93 1579.84 L2027.87 1579.84 L2027.87 1599.75 L2023.93 1599.75 Z" fill="#000000" fill-rule="nonzero" fill-opacity="1" /><path clip-path="url(#clip420)" d="M2023.93 1569.58 L2023.93 1561.95 L1997.57 1561.95 L1999.24 1570.26 L1994.98 1570.26 L1993.31 1561.99 L1993.31 1557.32 L2023.93 1557.32 L2023.93 1549.68 L2027.87 1549.68 L2027.87 1569.58 L2023.93 1569.58 Z" fill="#000000" fill-rule="nonzero" fill-opacity="1" /><path clip-path="url(#clip420)" d="M1996.39 1530.23 Q1996.39 1533.84 1999.95 1535.67 Q2003.49 1537.48 2010.62 1537.48 Q2017.73 1537.48 2021.3 1535.67 Q2024.84 1533.84 2024.84 1530.23 Q2024.84 1526.6 2021.3 1524.79 Q2017.73 1522.96 2010.62 1522.96 Q2003.49 1522.96 1999.95 1524.79 Q1996.39 1526.6 1996.39 1530.23 M1992.68 1530.23 Q1992.68 1524.42 1997.29 1521.37 Q2001.87 1518.29 2010.62 1518.29 Q2019.35 1518.29 2023.96 1521.37 Q2028.54 1524.42 2028.54 1530.23 Q2028.54 1536.04 2023.96 1539.12 Q2019.35 1542.18 2010.62 1542.18 Q2001.87 1542.18 1997.29 1539.12 Q1992.68 1536.04 1992.68 1530.23 Z" fill="#000000" fill-rule="nonzero" fill-opacity="1" /><path clip-path="url(#clip420)" d="M2023.93 1509.26 L2023.93 1501.62 L1997.57 1501.62 L1999.24 1509.93 L1994.98 1509.93 L1993.31 1501.67 L1993.31 1496.99 L2023.93 1496.99 L2023.93 1489.35 L2027.87 1489.35 L2027.87 1509.26 L2023.93 1509.26 Z" fill="#000000" fill-rule="nonzero" fill-opacity="1" /><path clip-path="url(#clip420)" d="M2154.82 1621.94 Q2154.82 1625.56 2158.38 1627.38 Q2161.93 1629.19 2169.06 1629.19 Q2176.16 1629.19 2179.73 1627.38 Q2183.27 1625.56 2183.27 1621.94 Q2183.27 1618.31 2179.73 1616.51 Q2176.16 1614.68 2169.06 1614.68 Q2161.93 1614.68 2158.38 1616.51 Q2154.82 1618.31 2154.82 1621.94 M2151.12 1621.94 Q2151.12 1616.13 2155.72 1613.08 Q2160.31 1610 2169.06 1610 Q2177.78 1610 2182.39 1613.08 Q2186.97 1616.13 2186.97 1621.94 Q2186.97 1627.75 2182.39 1630.83 Q2177.78 1633.89 2169.06 1633.89 Q2160.31 1633.89 2155.72 1630.83 Q2151.12 1627.75 2151.12 1621.94 Z" fill="#000000" fill-rule="nonzero" fill-opacity="1" /><path clip-path="url(#clip420)" d="M2154.82 1591.78 Q2154.82 1595.39 2158.38 1597.22 Q2161.93 1599.03 2169.06 1599.03 Q2176.16 1599.03 2179.73 1597.22 Q2183.27 1595.39 2183.27 1591.78 Q2183.27 1588.15 2179.73 1586.34 Q2176.16 1584.51 2169.06 1584.51 Q2161.93 1584.51 2158.38 1586.34 Q2154.82 1588.15 2154.82 1591.78 M2151.12 1591.78 Q2151.12 1585.97 2155.72 1582.92 Q2160.31 1579.84 2169.06 1579.84 Q2177.78 1579.84 2182.39 1582.92 Q2186.97 1585.97 2186.97 1591.78 Q2186.97 1597.59 2182.39 1600.67 Q2177.78 1603.73 2169.06 1603.73 Q2160.31 1603.73 2155.72 1600.67 Q2151.12 1597.59 2151.12 1591.78 Z" fill="#000000" fill-rule="nonzero" fill-opacity="1" /><path clip-path="url(#clip420)" d="M2154.82 1561.62 Q2154.82 1565.23 2158.38 1567.06 Q2161.93 1568.87 2169.06 1568.87 Q2176.16 1568.87 2179.73 1567.06 Q2183.27 1565.23 2183.27 1561.62 Q2183.27 1557.99 2179.73 1556.18 Q2176.16 1554.35 2169.06 1554.35 Q2161.93 1554.35 2158.38 1556.18 Q2154.82 1557.99 2154.82 1561.62 M2151.12 1561.62 Q2151.12 1555.81 2155.72 1552.76 Q2160.31 1549.68 2169.06 1549.68 Q2177.78 1549.68 2182.39 1552.76 Q2186.97 1555.81 2186.97 1561.62 Q2186.97 1567.43 2182.39 1570.51 Q2177.78 1573.57 2169.06 1573.57 Q2160.31 1573.57 2155.72 1570.51 Q2151.12 1567.43 2151.12 1561.62 Z" fill="#000000" fill-rule="nonzero" fill-opacity="1" /><path clip-path="url(#clip420)" d="M2182.37 1540.65 L2182.37 1533.01 L2156 1533.01 L2157.67 1541.32 L2153.41 1541.32 L2151.74 1533.06 L2151.74 1528.38 L2182.37 1528.38 L2182.37 1520.74 L2186.3 1520.74 L2186.3 1540.65 L2182.37 1540.65 Z" fill="#000000" fill-rule="nonzero" fill-opacity="1" /><path clip-path="url(#clip420)" d="M2154.82 1501.3 Q2154.82 1504.91 2158.38 1506.74 Q2161.93 1508.54 2169.06 1508.54 Q2176.16 1508.54 2179.73 1506.74 Q2183.27 1504.91 2183.27 1501.3 Q2183.27 1497.66 2179.73 1495.86 Q2176.16 1494.03 2169.06 1494.03 Q2161.93 1494.03 2158.38 1495.86 Q2154.82 1497.66 2154.82 1501.3 M2151.12 1501.3 Q2151.12 1495.49 2155.72 1492.43 Q2160.31 1489.35 2169.06 1489.35 Q2177.78 1489.35 2182.39 1492.43 Q2186.97 1495.49 2186.97 1501.3 Q2186.97 1507.11 2182.39 1510.19 Q2177.78 1513.24 2169.06 1513.24 Q2160.31 1513.24 2155.72 1510.19 Q2151.12 1507.11 2151.12 1501.3 Z" fill="#000000" fill-rule="nonzero" fill-opacity="1" /><path clip-path="url(#clip420)" d="M2340.8 1629.91 L2340.8 1622.27 L2314.43 1622.27 L2316.1 1630.58 L2311.84 1630.58 L2310.17 1622.32 L2310.17 1617.64 L2340.8 1617.64 L2340.8 1610 L2344.73 1610 L2344.73 1629.91 L2340.8 1629.91 Z" fill="#000000" fill-rule="nonzero" fill-opacity="1" /><path clip-path="url(#clip420)" d="M2313.25 1590.56 Q2313.25 1594.17 2316.82 1596 Q2320.36 1597.8 2327.49 1597.8 Q2334.59 1597.8 2338.16 1596 Q2341.7 1594.17 2341.7 1590.56 Q2341.7 1586.92 2338.16 1585.12 Q2334.59 1583.29 2327.49 1583.29 Q2320.36 1583.29 2316.82 1585.12 Q2313.25 1586.92 2313.25 1590.56 M2309.55 1590.56 Q2309.55 1584.75 2314.15 1581.69 Q2318.74 1578.61 2327.49 1578.61 Q2336.21 1578.61 2340.82 1581.69 Q2345.4 1584.75 2345.4 1590.56 Q2345.4 1596.37 2340.82 1599.44 Q2336.21 1602.5 2327.49 1602.5 Q2318.74 1602.5 2314.15 1599.44 Q2309.55 1596.37 2309.55 1590.56 Z" fill="#000000" fill-rule="nonzero" fill-opacity="1" /><path clip-path="url(#clip420)" d="M2313.25 1560.39 Q2313.25 1564.01 2316.82 1565.83 Q2320.36 1567.64 2327.49 1567.64 Q2334.59 1567.64 2338.16 1565.83 Q2341.7 1564.01 2341.7 1560.39 Q2341.7 1556.76 2338.16 1554.95 Q2334.59 1553.13 2327.49 1553.13 Q2320.36 1553.13 2316.82 1554.95 Q2313.25 1556.76 2313.25 1560.39 M2309.55 1560.39 Q2309.55 1554.58 2314.15 1551.53 Q2318.74 1548.45 2327.49 1548.45 Q2336.21 1548.45 2340.82 1551.53 Q2345.4 1554.58 2345.4 1560.39 Q2345.4 1566.2 2340.82 1569.28 Q2336.21 1572.34 2327.49 1572.34 Q2318.74 1572.34 2314.15 1569.28 Q2309.55 1566.2 2309.55 1560.39 Z" fill="#000000" fill-rule="nonzero" fill-opacity="1" /><path clip-path="url(#clip420)" d="M2313.25 1530.23 Q2313.25 1533.84 2316.82 1535.67 Q2320.36 1537.48 2327.49 1537.48 Q2334.59 1537.48 2338.16 1535.67 Q2341.7 1533.84 2341.7 1530.23 Q2341.7 1526.6 2338.16 1524.79 Q2334.59 1522.96 2327.49 1522.96 Q2320.36 1522.96 2316.82 1524.79 Q2313.25 1526.6 2313.25 1530.23 M2309.55 1530.23 Q2309.55 1524.42 2314.15 1521.37 Q2318.74 1518.29 2327.49 1518.29 Q2336.21 1518.29 2340.82 1521.37 Q2345.4 1524.42 2345.4 1530.23 Q2345.4 1536.04 2340.82 1539.12 Q2336.21 1542.18 2327.49 1542.18 Q2318.74 1542.18 2314.15 1539.12 Q2309.55 1536.04 2309.55 1530.23 Z" fill="#000000" fill-rule="nonzero" fill-opacity="1" /><path clip-path="url(#clip420)" d="M2340.8 1509.26 L2340.8 1501.62 L2314.43 1501.62 L2316.1 1509.93 L2311.84 1509.93 L2310.17 1501.67 L2310.17 1496.99 L2340.8 1496.99 L2340.8 1489.35 L2344.73 1489.35 L2344.73 1509.26 L2340.8 1509.26 Z" fill="#000000" fill-rule="nonzero" fill-opacity="1" /><path clip-path="url(#clip420)" d="M2471.68 1621.94 Q2471.68 1625.56 2475.25 1627.38 Q2478.79 1629.19 2485.92 1629.19 Q2493.02 1629.19 2496.59 1627.38 Q2500.13 1625.56 2500.13 1621.94 Q2500.13 1618.31 2496.59 1616.51 Q2493.02 1614.68 2485.92 1614.68 Q2478.79 1614.68 2475.25 1616.51 Q2471.68 1618.31 2471.68 1621.94 M2467.98 1621.94 Q2467.98 1616.13 2472.58 1613.08 Q2477.17 1610 2485.92 1610 Q2494.64 1610 2499.25 1613.08 Q2503.83 1616.13 2503.83 1621.94 Q2503.83 1627.75 2499.25 1630.83 Q2494.64 1633.89 2485.92 1633.89 Q2477.17 1633.89 2472.58 1630.83 Q2467.98 1627.75 2467.98 1621.94 Z" fill="#000000" fill-rule="nonzero" fill-opacity="1" /><path clip-path="url(#clip420)" d="M2471.68 1591.78 Q2471.68 1595.39 2475.25 1597.22 Q2478.79 1599.03 2485.92 1599.03 Q2493.02 1599.03 2496.59 1597.22 Q2500.13 1595.39 2500.13 1591.78 Q2500.13 1588.15 2496.59 1586.34 Q2493.02 1584.51 2485.92 1584.51 Q2478.79 1584.51 2475.25 1586.34 Q2471.68 1588.15 2471.68 1591.78 M2467.98 1591.78 Q2467.98 1585.97 2472.58 1582.92 Q2477.17 1579.84 2485.92 1579.84 Q2494.64 1579.84 2499.25 1582.92 Q2503.83 1585.97 2503.83 1591.78 Q2503.83 1597.59 2499.25 1600.67 Q2494.64 1603.73 2485.92 1603.73 Q2477.17 1603.73 2472.58 1600.67 Q2467.98 1597.59 2467.98 1591.78 Z" fill="#000000" fill-rule="nonzero" fill-opacity="1" /><path clip-path="url(#clip420)" d="M2499.23 1570.81 L2499.23 1563.17 L2472.86 1563.17 L2474.53 1571.48 L2470.27 1571.48 L2468.6 1563.22 L2468.6 1558.54 L2499.23 1558.54 L2499.23 1550.9 L2503.16 1550.9 L2503.16 1570.81 L2499.23 1570.81 Z" fill="#000000" fill-rule="nonzero" fill-opacity="1" /><path clip-path="url(#clip420)" d="M2471.68 1531.46 Q2471.68 1535.07 2475.25 1536.9 Q2478.79 1538.7 2485.92 1538.7 Q2493.02 1538.7 2496.59 1536.9 Q2500.13 1535.07 2500.13 1531.46 Q2500.13 1527.82 2496.59 1526.02 Q2493.02 1524.19 2485.92 1524.19 Q2478.79 1524.19 2475.25 1526.02 Q2471.68 1527.82 2471.68 1531.46 M2467.98 1531.46 Q2467.98 1525.65 2472.58 1522.59 Q2477.17 1519.51 2485.92 1519.51 Q2494.64 1519.51 2499.25 1522.59 Q2503.83 1525.65 2503.83 1531.46 Q2503.83 1537.27 2499.25 1540.35 Q2494.64 1543.4 2485.92 1543.4 Q2477.17 1543.4 2472.58 1540.35 Q2467.98 1537.27 2467.98 1531.46 Z" fill="#000000" fill-rule="nonzero" fill-opacity="1" /><path clip-path="url(#clip420)" d="M2471.68 1501.3 Q2471.68 1504.91 2475.25 1506.74 Q2478.79 1508.54 2485.92 1508.54 Q2493.02 1508.54 2496.59 1506.74 Q2500.13 1504.91 2500.13 1501.3 Q2500.13 1497.66 2496.59 1495.86 Q2493.02 1494.03 2485.92 1494.03 Q2478.79 1494.03 2475.25 1495.86 Q2471.68 1497.66 2471.68 1501.3 M2467.98 1501.3 Q2467.98 1495.49 2472.58 1492.43 Q2477.17 1489.35 2485.92 1489.35 Q2494.64 1489.35 2499.25 1492.43 Q2503.83 1495.49 2503.83 1501.3 Q2503.83 1507.11 2499.25 1510.19 Q2494.64 1513.24 2485.92 1513.24 Q2477.17 1513.24 2472.58 1510.19 Q2467.98 1507.11 2467.98 1501.3 Z" fill="#000000" fill-rule="nonzero" fill-opacity="1" /><path clip-path="url(#clip420)" d="M2630.11 1620.72 Q2630.11 1624.33 2633.68 1626.16 Q2637.22 1627.96 2644.35 1627.96 Q2651.45 1627.96 2655.02 1626.16 Q2658.56 1624.33 2658.56 1620.72 Q2658.56 1617.08 2655.02 1615.28 Q2651.45 1613.45 2644.35 1613.45 Q2637.22 1613.45 2633.68 1615.28 Q2630.11 1617.08 2630.11 1620.72 M2626.41 1620.72 Q2626.41 1614.91 2631.01 1611.85 Q2635.6 1608.77 2644.35 1608.77 Q2653.07 1608.77 2657.68 1611.85 Q2662.26 1614.91 2662.26 1620.72 Q2662.26 1626.53 2657.68 1629.61 Q2653.07 1632.66 2644.35 1632.66 Q2635.6 1632.66 2631.01 1629.61 Q2626.41 1626.53 2626.41 1620.72 Z" fill="#000000" fill-rule="nonzero" fill-opacity="1" /><path clip-path="url(#clip420)" d="M2630.11 1590.56 Q2630.11 1594.17 2633.68 1596 Q2637.22 1597.8 2644.35 1597.8 Q2651.45 1597.8 2655.02 1596 Q2658.56 1594.17 2658.56 1590.56 Q2658.56 1586.92 2655.02 1585.12 Q2651.45 1583.29 2644.35 1583.29 Q2637.22 1583.29 2633.68 1585.12 Q2630.11 1586.92 2630.11 1590.56 M2626.41 1590.56 Q2626.41 1584.75 2631.01 1581.69 Q2635.6 1578.61 2644.35 1578.61 Q2653.07 1578.61 2657.68 1581.69 Q2662.26 1584.75 2662.26 1590.56 Q2662.26 1596.37 2657.68 1599.44 Q2653.07 1602.5 2644.35 1602.5 Q2635.6 1602.5 2631.01 1599.44 Q2626.41 1596.37 2626.41 1590.56 Z" fill="#000000" fill-rule="nonzero" fill-opacity="1" /><path clip-path="url(#clip420)" d="M2630.11 1560.39 Q2630.11 1564.01 2633.68 1565.83 Q2637.22 1567.64 2644.35 1567.64 Q2651.45 1567.64 2655.02 1565.83 Q2658.56 1564.01 2658.56 1560.39 Q2658.56 1556.76 2655.02 1554.95 Q2651.45 1553.13 2644.35 1553.13 Q2637.22 1553.13 2633.68 1554.95 Q2630.11 1556.76 2630.11 1560.39 M2626.41 1560.39 Q2626.41 1554.58 2631.01 1551.53 Q2635.6 1548.45 2644.35 1548.45 Q2653.07 1548.45 2657.68 1551.53 Q2662.26 1554.58 2662.26 1560.39 Q2662.26 1566.2 2657.68 1569.28 Q2653.07 1572.34 2644.35 1572.34 Q2635.6 1572.34 2631.01 1569.28 Q2626.41 1566.2 2626.41 1560.39 Z" fill="#000000" fill-rule="nonzero" fill-opacity="1" /><path clip-path="url(#clip420)" d="M2630.11 1530.23 Q2630.11 1533.84 2633.68 1535.67 Q2637.22 1537.48 2644.35 1537.48 Q2651.45 1537.48 2655.02 1535.67 Q2658.56 1533.84 2658.56 1530.23 Q2658.56 1526.6 2655.02 1524.79 Q2651.45 1522.96 2644.35 1522.96 Q2637.22 1522.96 2633.68 1524.79 Q2630.11 1526.6 2630.11 1530.23 M2626.41 1530.23 Q2626.41 1524.42 2631.01 1521.37 Q2635.6 1518.29 2644.35 1518.29 Q2653.07 1518.29 2657.68 1521.37 Q2662.26 1524.42 2662.26 1530.23 Q2662.26 1536.04 2657.68 1539.12 Q2653.07 1542.18 2644.35 1542.18 Q2635.6 1542.18 2631.01 1539.12 Q2626.41 1536.04 2626.41 1530.23 Z" fill="#000000" fill-rule="nonzero" fill-opacity="1" /><path clip-path="url(#clip420)" d="M2657.66 1509.26 L2657.66 1501.62 L2631.29 1501.62 L2632.96 1509.93 L2628.7 1509.93 L2627.03 1501.67 L2627.03 1496.99 L2657.66 1496.99 L2657.66 1489.35 L2661.59 1489.35 L2661.59 1509.26 L2657.66 1509.26 Z" fill="#000000" fill-rule="nonzero" fill-opacity="1" /><path clip-path="url(#clip420)" d="M2816.09 1629.91 L2816.09 1622.27 L2789.72 1622.27 L2791.39 1630.58 L2787.13 1630.58 L2785.46 1622.32 L2785.46 1617.64 L2816.09 1617.64 L2816.09 1610 L2820.02 1610 L2820.02 1629.91 L2816.09 1629.91 Z" fill="#000000" fill-rule="nonzero" fill-opacity="1" /><path clip-path="url(#clip420)" d="M2788.54 1590.56 Q2788.54 1594.17 2792.11 1596 Q2795.65 1597.8 2802.78 1597.8 Q2809.89 1597.8 2813.45 1596 Q2816.99 1594.17 2816.99 1590.56 Q2816.99 1586.92 2813.45 1585.12 Q2809.89 1583.29 2802.78 1583.29 Q2795.65 1583.29 2792.11 1585.12 Q2788.54 1586.92 2788.54 1590.56 M2784.84 1590.56 Q2784.84 1584.75 2789.45 1581.69 Q2794.03 1578.61 2802.78 1578.61 Q2811.51 1578.61 2816.11 1581.69 Q2820.7 1584.75 2820.7 1590.56 Q2820.7 1596.37 2816.11 1599.44 Q2811.51 1602.5 2802.78 1602.5 Q2794.03 1602.5 2789.45 1599.44 Q2784.84 1596.37 2784.84 1590.56 Z" fill="#000000" fill-rule="nonzero" fill-opacity="1" /><path clip-path="url(#clip420)" d="M2788.54 1560.39 Q2788.54 1564.01 2792.11 1565.83 Q2795.65 1567.64 2802.78 1567.64 Q2809.89 1567.64 2813.45 1565.83 Q2816.99 1564.01 2816.99 1560.39 Q2816.99 1556.76 2813.45 1554.95 Q2809.89 1553.13 2802.78 1553.13 Q2795.65 1553.13 2792.11 1554.95 Q2788.54 1556.76 2788.54 1560.39 M2784.84 1560.39 Q2784.84 1554.58 2789.45 1551.53 Q2794.03 1548.45 2802.78 1548.45 Q2811.51 1548.45 2816.11 1551.53 Q2820.7 1554.58 2820.7 1560.39 Q2820.7 1566.2 2816.11 1569.28 Q2811.51 1572.34 2802.78 1572.34 Q2794.03 1572.34 2789.45 1569.28 Q2784.84 1566.2 2784.84 1560.39 Z" fill="#000000" fill-rule="nonzero" fill-opacity="1" /><path clip-path="url(#clip420)" d="M2816.09 1539.42 L2816.09 1531.78 L2789.72 1531.78 L2791.39 1540.09 L2787.13 1540.09 L2785.46 1531.83 L2785.46 1527.15 L2816.09 1527.15 L2816.09 1519.51 L2820.02 1519.51 L2820.02 1539.42 L2816.09 1539.42 Z" fill="#000000" fill-rule="nonzero" fill-opacity="1" /><path clip-path="url(#clip420)" d="M2816.09 1509.26 L2816.09 1501.62 L2789.72 1501.62 L2791.39 1509.93 L2787.13 1509.93 L2785.46 1501.67 L2785.46 1496.99 L2816.09 1496.99 L2816.09 1489.35 L2820.02 1489.35 L2820.02 1509.26 L2816.09 1509.26 Z" fill="#000000" fill-rule="nonzero" fill-opacity="1" /><path clip-path="url(#clip420)" d="M1568.56 1690.62 L1568.56 1708.03 L1578.87 1708.03 Q1584.06 1708.03 1586.55 1705.9 Q1589.06 1703.73 1589.06 1699.31 Q1589.06 1694.85 1586.55 1692.75 Q1584.06 1690.62 1578.87 1690.62 L1568.56 1690.62 M1568.56 1671.08 L1568.56 1685.4 L1578.08 1685.4 Q1582.79 1685.4 1585.08 1683.65 Q1587.4 1681.87 1587.4 1678.24 Q1587.4 1674.64 1585.08 1672.86 Q1582.79 1671.08 1578.08 1671.08 L1568.56 1671.08 M1562.13 1665.79 L1578.56 1665.79 Q1585.91 1665.79 1589.89 1668.85 Q1593.87 1671.9 1593.87 1677.54 Q1593.87 1681.9 1591.83 1684.48 Q1589.79 1687.05 1585.85 1687.69 Q1590.59 1688.71 1593.2 1691.96 Q1595.84 1695.17 1595.84 1700.01 Q1595.84 1706.37 1591.51 1709.84 Q1587.18 1713.31 1579.19 1713.31 L1562.13 1713.31 L1562.13 1665.79 Z" fill="#000000" fill-rule="nonzero" fill-opacity="1" /><path clip-path="url(#clip420)" d="M1606.6 1677.67 L1612.45 1677.67 L1612.45 1713.31 L1606.6 1713.31 L1606.6 1677.67 M1606.6 1663.79 L1612.45 1663.79 L1612.45 1671.2 L1606.6 1671.2 L1606.6 1663.79 Z" fill="#000000" fill-rule="nonzero" fill-opacity="1" /><path clip-path="url(#clip420)" d="M1630.5 1667.54 L1630.5 1677.67 L1642.56 1677.67 L1642.56 1682.22 L1630.5 1682.22 L1630.5 1701.57 Q1630.5 1705.93 1631.68 1707.17 Q1632.89 1708.41 1636.55 1708.41 L1642.56 1708.41 L1642.56 1713.31 L1636.55 1713.31 Q1629.77 1713.31 1627.19 1710.8 Q1624.61 1708.25 1624.61 1701.57 L1624.61 1682.22 L1620.32 1682.22 L1620.32 1677.67 L1624.61 1677.67 L1624.61 1667.54 L1630.5 1667.54 Z" fill="#000000" fill-rule="nonzero" fill-opacity="1" /><path clip-path="url(#clip420)" d="M1672.99 1678.72 L1672.99 1684.25 Q1670.51 1682.98 1667.84 1682.34 Q1665.16 1681.71 1662.3 1681.71 Q1657.94 1681.71 1655.74 1683.04 Q1653.58 1684.38 1653.58 1687.05 Q1653.58 1689.09 1655.14 1690.27 Q1656.7 1691.42 1661.41 1692.47 L1663.41 1692.91 Q1669.65 1694.25 1672.26 1696.7 Q1674.9 1699.12 1674.9 1703.48 Q1674.9 1708.44 1670.95 1711.34 Q1667.04 1714.24 1660.16 1714.24 Q1657.3 1714.24 1654.18 1713.66 Q1651.09 1713.12 1647.66 1712.01 L1647.66 1705.96 Q1650.9 1707.65 1654.05 1708.51 Q1657.2 1709.33 1660.29 1709.33 Q1664.43 1709.33 1666.66 1707.93 Q1668.89 1706.5 1668.89 1703.92 Q1668.89 1701.54 1667.26 1700.26 Q1665.67 1698.99 1660.23 1697.81 L1658.19 1697.34 Q1652.75 1696.19 1650.33 1693.83 Q1647.91 1691.45 1647.91 1687.31 Q1647.91 1682.28 1651.48 1679.54 Q1655.04 1676.81 1661.6 1676.81 Q1664.84 1676.81 1667.71 1677.28 Q1670.57 1677.76 1672.99 1678.72 Z" fill="#000000" fill-rule="nonzero" fill-opacity="1" /><path clip-path="url(#clip420)" d="M1690.02 1667.54 L1690.02 1677.67 L1702.08 1677.67 L1702.08 1682.22 L1690.02 1682.22 L1690.02 1701.57 Q1690.02 1705.93 1691.2 1707.17 Q1692.41 1708.41 1696.07 1708.41 L1702.08 1708.41 L1702.08 1713.31 L1696.07 1713.31 Q1689.29 1713.31 1686.71 1710.8 Q1684.13 1708.25 1684.13 1701.57 L1684.13 1682.22 L1679.84 1682.22 L1679.84 1677.67 L1684.13 1677.67 L1684.13 1667.54 L1690.02 1667.54 Z" fill="#000000" fill-rule="nonzero" fill-opacity="1" /><path clip-path="url(#clip420)" d="M1730.44 1683.14 Q1729.46 1682.57 1728.28 1682.31 Q1727.13 1682.03 1725.73 1682.03 Q1720.77 1682.03 1718.09 1685.27 Q1715.45 1688.49 1715.45 1694.53 L1715.45 1713.31 L1709.56 1713.31 L1709.56 1677.67 L1715.45 1677.67 L1715.45 1683.2 Q1717.3 1679.96 1720.26 1678.4 Q1723.22 1676.81 1727.45 1676.81 Q1728.06 1676.81 1728.79 1676.9 Q1729.52 1676.97 1730.41 1677.12 L1730.44 1683.14 Z" fill="#000000" fill-rule="nonzero" fill-opacity="1" /><path clip-path="url(#clip420)" d="M1736.59 1677.67 L1742.44 1677.67 L1742.44 1713.31 L1736.59 1713.31 L1736.59 1677.67 M1736.59 1663.79 L1742.44 1663.79 L1742.44 1671.2 L1736.59 1671.2 L1736.59 1663.79 Z" fill="#000000" fill-rule="nonzero" fill-opacity="1" /><path clip-path="url(#clip420)" d="M1784.33 1691.8 L1784.33 1713.31 L1778.47 1713.31 L1778.47 1691.99 Q1778.47 1686.93 1776.5 1684.41 Q1774.52 1681.9 1770.58 1681.9 Q1765.84 1681.9 1763.1 1684.92 Q1760.36 1687.95 1760.36 1693.17 L1760.36 1713.31 L1754.47 1713.31 L1754.47 1677.67 L1760.36 1677.67 L1760.36 1683.2 Q1762.46 1679.99 1765.29 1678.4 Q1768.16 1676.81 1771.88 1676.81 Q1778.03 1676.81 1781.18 1680.63 Q1784.33 1684.41 1784.33 1691.8 Z" fill="#000000" fill-rule="nonzero" fill-opacity="1" /><path clip-path="url(#clip420)" d="M1819.47 1695.08 Q1819.47 1688.71 1816.83 1685.21 Q1814.22 1681.71 1809.47 1681.71 Q1804.76 1681.71 1802.12 1685.21 Q1799.51 1688.71 1799.51 1695.08 Q1799.51 1701.41 1802.12 1704.91 Q1804.76 1708.41 1809.47 1708.41 Q1814.22 1708.41 1816.83 1704.91 Q1819.47 1701.41 1819.47 1695.08 M1825.32 1708.89 Q1825.32 1717.99 1821.28 1722.42 Q1817.24 1726.87 1808.9 1726.87 Q1805.81 1726.87 1803.08 1726.39 Q1800.34 1725.95 1797.76 1724.99 L1797.76 1719.3 Q1800.34 1720.7 1802.85 1721.37 Q1805.37 1722.03 1807.98 1722.03 Q1813.74 1722.03 1816.6 1719.01 Q1819.47 1716.02 1819.47 1709.94 L1819.47 1707.04 Q1817.65 1710.19 1814.82 1711.75 Q1811.99 1713.31 1808.04 1713.31 Q1801.48 1713.31 1797.47 1708.32 Q1793.46 1703.32 1793.46 1695.08 Q1793.46 1686.8 1797.47 1681.8 Q1801.48 1676.81 1808.04 1676.81 Q1811.99 1676.81 1814.82 1678.37 Q1817.65 1679.93 1819.47 1683.08 L1819.47 1677.67 L1825.32 1677.67 L1825.32 1708.89 Z" fill="#000000" fill-rule="nonzero" fill-opacity="1" /><polyline clip-path="url(#clip420)" style="stroke:#000000; stroke-linecap:round; stroke-linejoin:round; stroke-width:4; stroke-opacity:1; fill:none" points="376.433,1463.75 376.433,255.754 "/>
<polyline clip-path="url(#clip420)" style="stroke:#000000; stroke-linecap:round; stroke-linejoin:round; stroke-width:4; stroke-opacity:1; fill:none" points="376.433,1463.75 395.33,1463.75 "/>
<polyline clip-path="url(#clip420)" style="stroke:#000000; stroke-linecap:round; stroke-linejoin:round; stroke-width:4; stroke-opacity:1; fill:none" points="376.433,1259.01 395.33,1259.01 "/>
<polyline clip-path="url(#clip420)" style="stroke:#000000; stroke-linecap:round; stroke-linejoin:round; stroke-width:4; stroke-opacity:1; fill:none" points="376.433,1054.26 395.33,1054.26 "/>
<polyline clip-path="url(#clip420)" style="stroke:#000000; stroke-linecap:round; stroke-linejoin:round; stroke-width:4; stroke-opacity:1; fill:none" points="376.433,849.516 395.33,849.516 "/>
<polyline clip-path="url(#clip420)" style="stroke:#000000; stroke-linecap:round; stroke-linejoin:round; stroke-width:4; stroke-opacity:1; fill:none" points="376.433,644.771 395.33,644.771 "/>
<polyline clip-path="url(#clip420)" style="stroke:#000000; stroke-linecap:round; stroke-linejoin:round; stroke-width:4; stroke-opacity:1; fill:none" points="376.433,440.025 395.33,440.025 "/>
<path clip-path="url(#clip420)" d="M316.488 1449.55 Q312.877 1449.55 311.049 1453.12 Q309.243 1456.66 309.243 1463.79 Q309.243 1470.89 311.049 1474.46 Q312.877 1478 316.488 1478 Q320.123 1478 321.928 1474.46 Q323.757 1470.89 323.757 1463.79 Q323.757 1456.66 321.928 1453.12 Q320.123 1449.55 316.488 1449.55 M316.488 1445.85 Q322.299 1445.85 325.354 1450.45 Q328.433 1455.04 328.433 1463.79 Q328.433 1472.51 325.354 1477.12 Q322.299 1481.7 316.488 1481.7 Q310.678 1481.7 307.6 1477.12 Q304.544 1472.51 304.544 1463.79 Q304.544 1455.04 307.6 1450.45 Q310.678 1445.85 316.488 1445.85 Z" fill="#000000" fill-rule="nonzero" fill-opacity="1" /><path clip-path="url(#clip420)" d="M276.373 1241.73 L294.729 1241.73 L294.729 1245.66 L280.655 1245.66 L280.655 1254.13 Q281.674 1253.79 282.692 1253.63 Q283.711 1253.44 284.729 1253.44 Q290.516 1253.44 293.896 1256.61 Q297.275 1259.78 297.275 1265.2 Q297.275 1270.78 293.803 1273.88 Q290.331 1276.96 284.012 1276.96 Q281.836 1276.96 279.567 1276.59 Q277.322 1276.22 274.915 1275.48 L274.915 1270.78 Q276.998 1271.91 279.22 1272.47 Q281.442 1273.02 283.919 1273.02 Q287.924 1273.02 290.262 1270.92 Q292.6 1268.81 292.6 1265.2 Q292.6 1261.59 290.262 1259.48 Q287.924 1257.38 283.919 1257.38 Q282.044 1257.38 280.169 1257.79 Q278.317 1258.21 276.373 1259.09 L276.373 1241.73 Z" fill="#000000" fill-rule="nonzero" fill-opacity="1" /><path clip-path="url(#clip420)" d="M316.488 1244.81 Q312.877 1244.81 311.049 1248.37 Q309.243 1251.91 309.243 1259.04 Q309.243 1266.15 311.049 1269.71 Q312.877 1273.26 316.488 1273.26 Q320.123 1273.26 321.928 1269.71 Q323.757 1266.15 323.757 1259.04 Q323.757 1251.91 321.928 1248.37 Q320.123 1244.81 316.488 1244.81 M316.488 1241.1 Q322.299 1241.1 325.354 1245.71 Q328.433 1250.29 328.433 1259.04 Q328.433 1267.77 325.354 1272.38 Q322.299 1276.96 316.488 1276.96 Q310.678 1276.96 307.6 1272.38 Q304.544 1267.77 304.544 1259.04 Q304.544 1250.29 307.6 1245.71 Q310.678 1241.1 316.488 1241.1 Z" fill="#000000" fill-rule="nonzero" fill-opacity="1" /><path clip-path="url(#clip420)" d="M246.975 1067.61 L254.614 1067.61 L254.614 1041.24 L246.304 1042.91 L246.304 1038.65 L254.567 1036.98 L259.243 1036.98 L259.243 1067.61 L266.882 1067.61 L266.882 1071.54 L246.975 1071.54 L246.975 1067.61 Z" fill="#000000" fill-rule="nonzero" fill-opacity="1" /><path clip-path="url(#clip420)" d="M286.326 1040.06 Q282.715 1040.06 280.887 1043.63 Q279.081 1047.17 279.081 1054.3 Q279.081 1061.4 280.887 1064.97 Q282.715 1068.51 286.326 1068.51 Q289.961 1068.51 291.766 1064.97 Q293.595 1061.4 293.595 1054.3 Q293.595 1047.17 291.766 1043.63 Q289.961 1040.06 286.326 1040.06 M286.326 1036.36 Q292.137 1036.36 295.192 1040.96 Q298.271 1045.55 298.271 1054.3 Q298.271 1063.02 295.192 1067.63 Q292.137 1072.21 286.326 1072.21 Q280.516 1072.21 277.438 1067.63 Q274.382 1063.02 274.382 1054.3 Q274.382 1045.55 277.438 1040.96 Q280.516 1036.36 286.326 1036.36 Z" fill="#000000" fill-rule="nonzero" fill-opacity="1" /><path clip-path="url(#clip420)" d="M316.488 1040.06 Q312.877 1040.06 311.049 1043.63 Q309.243 1047.17 309.243 1054.3 Q309.243 1061.4 311.049 1064.97 Q312.877 1068.51 316.488 1068.51 Q320.123 1068.51 321.928 1064.97 Q323.757 1061.4 323.757 1054.3 Q323.757 1047.17 321.928 1043.63 Q320.123 1040.06 316.488 1040.06 M316.488 1036.36 Q322.299 1036.36 325.354 1040.96 Q328.433 1045.55 328.433 1054.3 Q328.433 1063.02 325.354 1067.63 Q322.299 1072.21 316.488 1072.21 Q310.678 1072.21 307.6 1067.63 Q304.544 1063.02 304.544 1054.3 Q304.544 1045.55 307.6 1040.96 Q310.678 1036.36 316.488 1036.36 Z" fill="#000000" fill-rule="nonzero" fill-opacity="1" /><path clip-path="url(#clip420)" d="M246.975 862.861 L254.614 862.861 L254.614 836.496 L246.304 838.162 L246.304 833.903 L254.567 832.236 L259.243 832.236 L259.243 862.861 L266.882 862.861 L266.882 866.796 L246.975 866.796 L246.975 862.861 Z" fill="#000000" fill-rule="nonzero" fill-opacity="1" /><path clip-path="url(#clip420)" d="M276.373 832.236 L294.729 832.236 L294.729 836.172 L280.655 836.172 L280.655 844.644 Q281.674 844.297 282.692 844.134 Q283.711 843.949 284.729 843.949 Q290.516 843.949 293.896 847.121 Q297.275 850.292 297.275 855.709 Q297.275 861.287 293.803 864.389 Q290.331 867.468 284.012 867.468 Q281.836 867.468 279.567 867.097 Q277.322 866.727 274.915 865.986 L274.915 861.287 Q276.998 862.421 279.22 862.977 Q281.442 863.533 283.919 863.533 Q287.924 863.533 290.262 861.426 Q292.6 859.32 292.6 855.709 Q292.6 852.097 290.262 849.991 Q287.924 847.884 283.919 847.884 Q282.044 847.884 280.169 848.301 Q278.317 848.718 276.373 849.597 L276.373 832.236 Z" fill="#000000" fill-rule="nonzero" fill-opacity="1" /><path clip-path="url(#clip420)" d="M316.488 835.315 Q312.877 835.315 311.049 838.88 Q309.243 842.422 309.243 849.551 Q309.243 856.658 311.049 860.222 Q312.877 863.764 316.488 863.764 Q320.123 863.764 321.928 860.222 Q323.757 856.658 323.757 849.551 Q323.757 842.422 321.928 838.88 Q320.123 835.315 316.488 835.315 M316.488 831.611 Q322.299 831.611 325.354 836.218 Q328.433 840.801 328.433 849.551 Q328.433 858.278 325.354 862.884 Q322.299 867.468 316.488 867.468 Q310.678 867.468 307.6 862.884 Q304.544 858.278 304.544 849.551 Q304.544 840.801 307.6 836.218 Q310.678 831.611 316.488 831.611 Z" fill="#000000" fill-rule="nonzero" fill-opacity="1" /><path clip-path="url(#clip420)" d="M250.192 658.116 L266.512 658.116 L266.512 662.051 L244.567 662.051 L244.567 658.116 Q247.229 655.361 251.813 650.732 Q256.419 646.079 257.6 644.736 Q259.845 642.213 260.725 640.477 Q261.628 638.718 261.628 637.028 Q261.628 634.273 259.683 632.537 Q257.762 630.801 254.66 630.801 Q252.461 630.801 250.007 631.565 Q247.577 632.329 244.799 633.88 L244.799 629.158 Q247.623 628.023 250.077 627.445 Q252.53 626.866 254.567 626.866 Q259.938 626.866 263.132 629.551 Q266.327 632.236 266.327 636.727 Q266.327 638.857 265.516 640.778 Q264.729 642.676 262.623 645.269 Q262.044 645.94 258.942 649.157 Q255.841 652.352 250.192 658.116 Z" fill="#000000" fill-rule="nonzero" fill-opacity="1" /><path clip-path="url(#clip420)" d="M286.326 630.57 Q282.715 630.57 280.887 634.134 Q279.081 637.676 279.081 644.806 Q279.081 651.912 280.887 655.477 Q282.715 659.019 286.326 659.019 Q289.961 659.019 291.766 655.477 Q293.595 651.912 293.595 644.806 Q293.595 637.676 291.766 634.134 Q289.961 630.57 286.326 630.57 M286.326 626.866 Q292.137 626.866 295.192 631.472 Q298.271 636.056 298.271 644.806 Q298.271 653.532 295.192 658.139 Q292.137 662.722 286.326 662.722 Q280.516 662.722 277.438 658.139 Q274.382 653.532 274.382 644.806 Q274.382 636.056 277.438 631.472 Q280.516 626.866 286.326 626.866 Z" fill="#000000" fill-rule="nonzero" fill-opacity="1" /><path clip-path="url(#clip420)" d="M316.488 630.57 Q312.877 630.57 311.049 634.134 Q309.243 637.676 309.243 644.806 Q309.243 651.912 311.049 655.477 Q312.877 659.019 316.488 659.019 Q320.123 659.019 321.928 655.477 Q323.757 651.912 323.757 644.806 Q323.757 637.676 321.928 634.134 Q320.123 630.57 316.488 630.57 M316.488 626.866 Q322.299 626.866 325.354 631.472 Q328.433 636.056 328.433 644.806 Q328.433 653.532 325.354 658.139 Q322.299 662.722 316.488 662.722 Q310.678 662.722 307.6 658.139 Q304.544 653.532 304.544 644.806 Q304.544 636.056 307.6 631.472 Q310.678 626.866 316.488 626.866 Z" fill="#000000" fill-rule="nonzero" fill-opacity="1" /><path clip-path="url(#clip420)" d="M250.192 453.37 L266.512 453.37 L266.512 457.305 L244.567 457.305 L244.567 453.37 Q247.229 450.616 251.813 445.986 Q256.419 441.333 257.6 439.991 Q259.845 437.468 260.725 435.731 Q261.628 433.972 261.628 432.282 Q261.628 429.528 259.683 427.792 Q257.762 426.056 254.66 426.056 Q252.461 426.056 250.007 426.819 Q247.577 427.583 244.799 429.134 L244.799 424.412 Q247.623 423.278 250.077 422.699 Q252.53 422.12 254.567 422.12 Q259.938 422.12 263.132 424.806 Q266.327 427.491 266.327 431.981 Q266.327 434.111 265.516 436.032 Q264.729 437.93 262.623 440.523 Q262.044 441.194 258.942 444.412 Q255.841 447.606 250.192 453.37 Z" fill="#000000" fill-rule="nonzero" fill-opacity="1" /><path clip-path="url(#clip420)" d="M276.373 422.745 L294.729 422.745 L294.729 426.681 L280.655 426.681 L280.655 435.153 Q281.674 434.805 282.692 434.643 Q283.711 434.458 284.729 434.458 Q290.516 434.458 293.896 437.63 Q297.275 440.801 297.275 446.217 Q297.275 451.796 293.803 454.898 Q290.331 457.977 284.012 457.977 Q281.836 457.977 279.567 457.606 Q277.322 457.236 274.915 456.495 L274.915 451.796 Q276.998 452.93 279.22 453.486 Q281.442 454.042 283.919 454.042 Q287.924 454.042 290.262 451.935 Q292.6 449.829 292.6 446.217 Q292.6 442.606 290.262 440.5 Q287.924 438.393 283.919 438.393 Q282.044 438.393 280.169 438.81 Q278.317 439.227 276.373 440.106 L276.373 422.745 Z" fill="#000000" fill-rule="nonzero" fill-opacity="1" /><path clip-path="url(#clip420)" d="M316.488 425.824 Q312.877 425.824 311.049 429.389 Q309.243 432.931 309.243 440.06 Q309.243 447.167 311.049 450.731 Q312.877 454.273 316.488 454.273 Q320.123 454.273 321.928 450.731 Q323.757 447.167 323.757 440.06 Q323.757 432.931 321.928 429.389 Q320.123 425.824 316.488 425.824 M316.488 422.12 Q322.299 422.12 325.354 426.727 Q328.433 431.31 328.433 440.06 Q328.433 448.787 325.354 453.393 Q322.299 457.977 316.488 457.977 Q310.678 457.977 307.6 453.393 Q304.544 448.787 304.544 440.06 Q304.544 431.31 307.6 426.727 Q310.678 422.12 316.488 422.12 Z" fill="#000000" fill-rule="nonzero" fill-opacity="1" /><path clip-path="url(#clip420)" d="M138.452 1195.15 L145.231 1195.15 Q142.207 1198.39 140.712 1202.09 Q139.216 1205.75 139.216 1209.88 Q139.216 1218.03 144.213 1222.36 Q149.178 1226.69 158.599 1226.69 Q167.989 1226.69 172.986 1222.36 Q177.951 1218.03 177.951 1209.88 Q177.951 1205.75 176.455 1202.09 Q174.959 1198.39 171.935 1195.15 L178.651 1195.15 Q180.943 1198.52 182.089 1202.31 Q183.234 1206.06 183.234 1210.27 Q183.234 1221.06 176.646 1227.26 Q170.026 1233.47 158.599 1233.47 Q147.141 1233.47 140.552 1227.26 Q133.932 1221.06 133.932 1210.27 Q133.932 1206 135.078 1202.24 Q136.192 1198.46 138.452 1195.15 Z" fill="#000000" fill-rule="nonzero" fill-opacity="1" /><path clip-path="url(#clip420)" d="M150.769 1171.66 Q150.769 1176.37 154.461 1179.11 Q158.122 1181.84 164.519 1181.84 Q170.917 1181.84 174.609 1179.14 Q178.269 1176.4 178.269 1171.66 Q178.269 1166.98 174.577 1164.24 Q170.885 1161.5 164.519 1161.5 Q158.185 1161.5 154.493 1164.24 Q150.769 1166.98 150.769 1171.66 M145.804 1171.66 Q145.804 1164.02 150.769 1159.66 Q155.735 1155.3 164.519 1155.3 Q173.272 1155.3 178.269 1159.66 Q183.234 1164.02 183.234 1171.66 Q183.234 1179.33 178.269 1183.69 Q173.272 1188.02 164.519 1188.02 Q155.735 1188.02 150.769 1183.69 Q145.804 1179.33 145.804 1171.66 Z" fill="#000000" fill-rule="nonzero" fill-opacity="1" /><path clip-path="url(#clip420)" d="M168.243 1146.19 L146.663 1146.19 L146.663 1140.34 L168.02 1140.34 Q173.081 1140.34 175.627 1138.36 Q178.142 1136.39 178.142 1132.44 Q178.142 1127.7 175.118 1124.96 Q172.094 1122.2 166.875 1122.2 L146.663 1122.2 L146.663 1116.34 L182.311 1116.34 L182.311 1122.2 L176.837 1122.2 Q180.083 1124.33 181.675 1127.16 Q183.234 1129.96 183.234 1133.69 Q183.234 1139.83 179.415 1143.01 Q175.596 1146.19 168.243 1146.19 M145.804 1131.46 L145.804 1131.46 Z" fill="#000000" fill-rule="nonzero" fill-opacity="1" /><path clip-path="url(#clip420)" d="M160.795 1074.64 L182.311 1074.64 L182.311 1080.5 L160.986 1080.5 Q155.926 1080.5 153.411 1082.47 Q150.897 1084.45 150.897 1088.39 Q150.897 1093.14 153.92 1095.87 Q156.944 1098.61 162.164 1098.61 L182.311 1098.61 L182.311 1104.5 L146.663 1104.5 L146.663 1098.61 L152.202 1098.61 Q148.987 1096.51 147.396 1093.68 Q145.804 1090.81 145.804 1087.09 Q145.804 1080.95 149.624 1077.8 Q153.411 1074.64 160.795 1074.64 Z" fill="#000000" fill-rule="nonzero" fill-opacity="1" /><path clip-path="url(#clip420)" d="M136.542 1057.17 L146.663 1057.17 L146.663 1045.11 L151.215 1045.11 L151.215 1057.17 L170.567 1057.17 Q174.927 1057.17 176.169 1055.99 Q177.41 1054.78 177.41 1051.12 L177.41 1045.11 L182.311 1045.11 L182.311 1051.12 Q182.311 1057.9 179.797 1060.48 Q177.251 1063.06 170.567 1063.06 L151.215 1063.06 L151.215 1067.36 L146.663 1067.36 L146.663 1063.06 L136.542 1063.06 L136.542 1057.17 Z" fill="#000000" fill-rule="nonzero" fill-opacity="1" /><path clip-path="url(#clip420)" d="M147.714 1014.68 L153.252 1014.68 Q151.979 1017.16 151.342 1019.84 Q150.706 1022.51 150.706 1025.37 Q150.706 1029.73 152.043 1031.93 Q153.379 1034.09 156.053 1034.09 Q158.09 1034.09 159.268 1032.53 Q160.413 1030.98 161.464 1026.26 L161.909 1024.26 Q163.246 1018.02 165.697 1015.41 Q168.116 1012.77 172.476 1012.77 Q177.442 1012.77 180.338 1016.72 Q183.234 1020.63 183.234 1027.51 Q183.234 1030.37 182.662 1033.49 Q182.12 1036.58 181.006 1040.01 L174.959 1040.01 Q176.646 1036.77 177.505 1033.62 Q178.333 1030.47 178.333 1027.38 Q178.333 1023.24 176.932 1021.01 Q175.5 1018.78 172.922 1018.78 Q170.535 1018.78 169.262 1020.41 Q167.989 1022 166.811 1027.44 L166.334 1029.48 Q165.188 1034.92 162.832 1037.34 Q160.445 1039.76 156.308 1039.76 Q151.279 1039.76 148.541 1036.2 Q145.804 1032.63 145.804 1026.07 Q145.804 1022.83 146.282 1019.96 Q146.759 1017.1 147.714 1014.68 Z" fill="#000000" fill-rule="nonzero" fill-opacity="1" /><path clip-path="url(#clip420)" d="M132.85 968.655 Q140.17 972.92 147.332 974.989 Q154.493 977.058 161.846 977.058 Q169.198 977.058 176.423 974.989 Q183.616 972.888 190.905 968.655 L190.905 973.748 Q183.425 978.522 176.2 980.909 Q168.975 983.264 161.846 983.264 Q154.748 983.264 147.555 980.909 Q140.361 978.554 132.85 973.748 L132.85 968.655 Z" fill="#000000" fill-rule="nonzero" fill-opacity="1" /><path clip-path="url(#clip420)" d="M176.901 955.351 L176.901 944.847 L140.648 944.847 L142.94 956.274 L137.083 956.274 L134.791 944.911 L134.791 938.482 L176.901 938.482 L176.901 927.978 L182.311 927.978 L182.311 955.351 L176.901 955.351 Z" fill="#000000" fill-rule="nonzero" fill-opacity="1" /><path clip-path="url(#clip420)" d="M139.025 901.242 Q139.025 906.207 143.926 908.722 Q148.796 911.205 158.599 911.205 Q168.371 911.205 173.272 908.722 Q178.142 906.207 178.142 901.242 Q178.142 896.245 173.272 893.762 Q168.371 891.248 158.599 891.248 Q148.796 891.248 143.926 893.762 Q139.025 896.245 139.025 901.242 M133.932 901.242 Q133.932 893.253 140.266 889.052 Q146.568 884.819 158.599 884.819 Q170.599 884.819 176.932 889.052 Q183.234 893.253 183.234 901.242 Q183.234 909.231 176.932 913.464 Q170.599 917.666 158.599 917.666 Q146.568 917.666 140.266 913.464 Q133.932 909.231 133.932 901.242 Z" fill="#000000" fill-rule="nonzero" fill-opacity="1" /><path clip-path="url(#clip420)" d="M139.025 859.77 Q139.025 864.735 143.926 867.249 Q148.796 869.732 158.599 869.732 Q168.371 869.732 173.272 867.249 Q178.142 864.735 178.142 859.77 Q178.142 854.773 173.272 852.29 Q168.371 849.775 158.599 849.775 Q148.796 849.775 143.926 852.29 Q139.025 854.773 139.025 859.77 M133.932 859.77 Q133.932 851.781 140.266 847.579 Q146.568 843.346 158.599 843.346 Q170.599 843.346 176.932 847.579 Q183.234 851.781 183.234 859.77 Q183.234 867.759 176.932 871.992 Q170.599 876.193 158.599 876.193 Q146.568 876.193 140.266 871.992 Q133.932 867.759 133.932 859.77 Z" fill="#000000" fill-rule="nonzero" fill-opacity="1" /><path clip-path="url(#clip420)" d="M139.025 818.297 Q139.025 823.262 143.926 825.777 Q148.796 828.259 158.599 828.259 Q168.371 828.259 173.272 825.777 Q178.142 823.262 178.142 818.297 Q178.142 813.3 173.272 810.817 Q168.371 808.303 158.599 808.303 Q148.796 808.303 143.926 810.817 Q139.025 813.3 139.025 818.297 M133.932 818.297 Q133.932 810.308 140.266 806.107 Q146.568 801.873 158.599 801.873 Q170.599 801.873 176.932 806.107 Q183.234 810.308 183.234 818.297 Q183.234 826.286 176.932 830.519 Q170.599 834.721 158.599 834.721 Q146.568 834.721 140.266 830.519 Q133.932 826.286 133.932 818.297 Z" fill="#000000" fill-rule="nonzero" fill-opacity="1" /><path clip-path="url(#clip420)" d="M147.714 747.956 L153.252 747.956 Q151.979 750.439 151.342 753.112 Q150.706 755.786 150.706 758.65 Q150.706 763.011 152.043 765.207 Q153.379 767.371 156.053 767.371 Q158.09 767.371 159.268 765.812 Q160.413 764.252 161.464 759.542 L161.909 757.536 Q163.246 751.298 165.697 748.688 Q168.116 746.046 172.476 746.046 Q177.442 746.046 180.338 749.993 Q183.234 753.908 183.234 760.783 Q183.234 763.647 182.662 766.767 Q182.12 769.854 181.006 773.291 L174.959 773.291 Q176.646 770.045 177.505 766.894 Q178.333 763.743 178.333 760.656 Q178.333 756.518 176.932 754.29 Q175.5 752.062 172.922 752.062 Q170.535 752.062 169.262 753.685 Q167.989 755.277 166.811 760.719 L166.334 762.756 Q165.188 768.199 162.832 770.618 Q160.445 773.037 156.308 773.037 Q151.279 773.037 148.541 769.472 Q145.804 765.907 145.804 759.351 Q145.804 756.104 146.282 753.239 Q146.759 750.375 147.714 747.956 Z" fill="#000000" fill-rule="nonzero" fill-opacity="1" /><path clip-path="url(#clip420)" d="M164.392 720.52 Q164.392 727.618 166.015 730.355 Q167.638 733.092 171.553 733.092 Q174.673 733.092 176.519 731.055 Q178.333 728.986 178.333 725.453 Q178.333 720.583 174.895 717.655 Q171.426 714.695 165.697 714.695 L164.392 714.695 L164.392 720.52 M161.973 708.839 L182.311 708.839 L182.311 714.695 L176.901 714.695 Q180.147 716.7 181.707 719.692 Q183.234 722.684 183.234 727.013 Q183.234 732.487 180.179 735.734 Q177.092 738.948 171.935 738.948 Q165.92 738.948 162.864 734.938 Q159.809 730.896 159.809 722.907 L159.809 714.695 L159.236 714.695 Q155.194 714.695 152.997 717.369 Q150.769 720.011 150.769 724.817 Q150.769 727.872 151.501 730.769 Q152.233 733.665 153.698 736.339 L148.287 736.339 Q147.045 733.124 146.441 730.1 Q145.804 727.076 145.804 724.212 Q145.804 716.478 149.815 712.658 Q153.825 708.839 161.973 708.839 Z" fill="#000000" fill-rule="nonzero" fill-opacity="1" /><path clip-path="url(#clip420)" d="M153.507 669.021 Q149.56 666.825 147.682 663.769 Q145.804 660.714 145.804 656.576 Q145.804 651.006 149.719 647.983 Q153.602 644.959 160.795 644.959 L182.311 644.959 L182.311 650.847 L160.986 650.847 Q155.862 650.847 153.379 652.661 Q150.897 654.476 150.897 658.199 Q150.897 662.751 153.92 665.393 Q156.944 668.035 162.164 668.035 L182.311 668.035 L182.311 673.923 L160.986 673.923 Q155.83 673.923 153.379 675.737 Q150.897 677.551 150.897 681.339 Q150.897 685.827 153.952 688.468 Q156.976 691.11 162.164 691.11 L182.311 691.11 L182.311 696.998 L146.663 696.998 L146.663 691.11 L152.202 691.11 Q148.923 689.105 147.364 686.304 Q145.804 683.503 145.804 679.652 Q145.804 675.769 147.777 673.063 Q149.751 670.326 153.507 669.021 Z" fill="#000000" fill-rule="nonzero" fill-opacity="1" /><path clip-path="url(#clip420)" d="M176.964 627.612 L195.87 627.612 L195.87 633.501 L146.663 633.501 L146.663 627.612 L152.074 627.612 Q148.891 625.766 147.364 622.965 Q145.804 620.133 145.804 616.218 Q145.804 609.725 150.96 605.682 Q156.117 601.608 164.519 601.608 Q172.922 601.608 178.078 605.682 Q183.234 609.725 183.234 616.218 Q183.234 620.133 181.707 622.965 Q180.147 625.766 176.964 627.612 M164.519 607.688 Q158.058 607.688 154.398 610.361 Q150.706 613.003 150.706 617.65 Q150.706 622.297 154.398 624.971 Q158.058 627.612 164.519 627.612 Q170.98 627.612 174.673 624.971 Q178.333 622.297 178.333 617.65 Q178.333 613.003 174.673 610.361 Q170.98 607.688 164.519 607.688 Z" fill="#000000" fill-rule="nonzero" fill-opacity="1" /><path clip-path="url(#clip420)" d="M132.786 591.901 L132.786 586.044 L182.311 586.044 L182.311 591.901 L132.786 591.901 Z" fill="#000000" fill-rule="nonzero" fill-opacity="1" /><path clip-path="url(#clip420)" d="M163.023 543.298 L165.888 543.298 L165.888 570.225 Q171.935 569.843 175.118 566.597 Q178.269 563.319 178.269 557.494 Q178.269 554.12 177.442 550.969 Q176.614 547.786 174.959 544.667 L180.497 544.667 Q181.834 547.818 182.534 551.128 Q183.234 554.438 183.234 557.844 Q183.234 566.374 178.269 571.371 Q173.304 576.337 164.838 576.337 Q156.085 576.337 150.96 571.626 Q145.804 566.883 145.804 558.863 Q145.804 551.669 150.451 547.5 Q155.066 543.298 163.023 543.298 M161.305 549.155 Q156.499 549.219 153.634 551.86 Q150.769 554.47 150.769 558.799 Q150.769 563.701 153.538 566.661 Q156.308 569.589 161.336 570.034 L161.305 549.155 Z" fill="#000000" fill-rule="nonzero" fill-opacity="1" /><path clip-path="url(#clip420)" d="M147.714 510.961 L153.252 510.961 Q151.979 513.443 151.342 516.117 Q150.706 518.791 150.706 521.655 Q150.706 526.016 152.043 528.212 Q153.379 530.376 156.053 530.376 Q158.09 530.376 159.268 528.817 Q160.413 527.257 161.464 522.546 L161.909 520.541 Q163.246 514.303 165.697 511.693 Q168.116 509.051 172.476 509.051 Q177.442 509.051 180.338 512.998 Q183.234 516.913 183.234 523.788 Q183.234 526.652 182.662 529.771 Q182.12 532.859 181.006 536.296 L174.959 536.296 Q176.646 533.05 177.505 529.899 Q178.333 526.748 178.333 523.66 Q178.333 519.523 176.932 517.295 Q175.5 515.067 172.922 515.067 Q170.535 515.067 169.262 516.69 Q167.989 518.281 166.811 523.724 L166.334 525.761 Q165.188 531.204 162.832 533.623 Q160.445 536.042 156.308 536.042 Q151.279 536.042 148.541 532.477 Q145.804 528.912 145.804 522.355 Q145.804 519.109 146.282 516.244 Q146.759 513.38 147.714 510.961 Z" fill="#000000" fill-rule="nonzero" fill-opacity="1" /><path clip-path="url(#clip420)" d="M132.85 500.648 L132.85 495.556 Q140.361 490.781 147.555 488.426 Q154.748 486.039 161.846 486.039 Q168.975 486.039 176.2 488.426 Q183.425 490.781 190.905 495.556 L190.905 500.648 Q183.616 496.415 176.423 494.346 Q169.198 492.246 161.846 492.246 Q154.493 492.246 147.332 494.346 Q140.17 496.415 132.85 500.648 Z" fill="#000000" fill-rule="nonzero" fill-opacity="1" /><path clip-path="url(#clip420)" d="M912.876 12.096 L925.069 12.096 L940.503 53.2532 L956.018 12.096 L968.211 12.096 L968.211 72.576 L960.231 72.576 L960.231 19.4686 L944.635 60.9499 L936.412 60.9499 L920.816 19.4686 L920.816 72.576 L912.876 72.576 L912.876 12.096 Z" fill="#000000" fill-rule="nonzero" fill-opacity="1" /><path clip-path="url(#clip420)" d="M984.455 12.096 L992.638 12.096 L992.638 72.576 L984.455 72.576 L984.455 12.096 Z" fill="#000000" fill-rule="nonzero" fill-opacity="1" /><path clip-path="url(#clip420)" d="M1008.92 12.096 L1021.12 12.096 L1036.55 53.2532 L1052.06 12.096 L1064.26 12.096 L1064.26 72.576 L1056.28 72.576 L1056.28 19.4686 L1040.68 60.9499 L1032.46 60.9499 L1016.86 19.4686 L1016.86 72.576 L1008.92 72.576 L1008.92 12.096 Z" fill="#000000" fill-rule="nonzero" fill-opacity="1" /><path clip-path="url(#clip420)" d="M1080.5 12.096 L1088.69 12.096 L1088.69 72.576 L1080.5 72.576 L1080.5 12.096 Z" fill="#000000" fill-rule="nonzero" fill-opacity="1" /><path clip-path="url(#clip420)" d="M1129.52 17.6457 Q1120.61 17.6457 1115.34 24.2892 Q1110.11 30.9327 1110.11 42.3968 Q1110.11 53.8203 1115.34 60.4638 Q1120.61 67.1073 1129.52 67.1073 Q1138.43 67.1073 1143.62 60.4638 Q1148.84 53.8203 1148.84 42.3968 Q1148.84 30.9327 1143.62 24.2892 Q1138.43 17.6457 1129.52 17.6457 M1140.98 71.4823 L1151.76 83.2704 L1141.87 83.2704 L1132.92 73.5887 Q1131.58 73.6697 1130.86 73.7103 Q1130.17 73.7508 1129.52 73.7508 Q1116.76 73.7508 1109.1 65.2439 Q1101.49 56.6965 1101.49 42.3968 Q1101.49 28.0566 1109.1 19.5497 Q1116.76 11.0023 1129.52 11.0023 Q1142.24 11.0023 1149.85 19.5497 Q1157.47 28.0566 1157.47 42.3968 Q1157.47 52.9291 1153.22 60.4233 Q1149 67.9175 1140.98 71.4823 Z" fill="#000000" fill-rule="nonzero" fill-opacity="1" /><path clip-path="url(#clip420)" d="M1168.49 46.5287 L1190.32 46.5287 L1190.32 53.1722 L1168.49 53.1722 L1168.49 46.5287 Z" fill="#000000" fill-rule="nonzero" fill-opacity="1" /><path clip-path="url(#clip420)" d="M1238.77 14.0809 L1238.77 22.0612 Q1234.11 19.8332 1229.98 18.7395 Q1225.85 17.6457 1222 17.6457 Q1215.32 17.6457 1211.67 20.2383 Q1208.07 22.8309 1208.07 27.611 Q1208.07 31.6214 1210.46 33.6873 Q1212.89 35.7128 1219.61 36.9686 L1224.55 37.9813 Q1233.71 39.7232 1238.04 44.1387 Q1242.42 48.5136 1242.42 55.8863 Q1242.42 64.6767 1236.5 69.2137 Q1230.63 73.7508 1219.25 73.7508 Q1214.95 73.7508 1210.09 72.7785 Q1205.27 71.8063 1200.08 69.9024 L1200.08 61.4765 Q1205.07 64.2716 1209.85 65.6895 Q1214.63 67.1073 1219.25 67.1073 Q1226.25 67.1073 1230.06 64.3527 Q1233.87 61.598 1233.87 56.4939 Q1233.87 52.0379 1231.11 49.5264 Q1228.4 47.0148 1222.16 45.759 L1217.18 44.7868 Q1208.02 42.9639 1203.93 39.075 Q1199.84 35.1862 1199.84 28.2591 Q1199.84 20.2383 1205.47 15.6203 Q1211.14 11.0023 1221.07 11.0023 Q1225.32 11.0023 1229.74 11.7719 Q1234.15 12.5416 1238.77 14.0809 Z" fill="#000000" fill-rule="nonzero" fill-opacity="1" /><path clip-path="url(#clip420)" d="M1262.23 14.324 L1262.23 27.2059 L1277.58 27.2059 L1277.58 32.9987 L1262.23 32.9987 L1262.23 57.6282 Q1262.23 63.1779 1263.72 64.7578 Q1265.26 66.3376 1269.92 66.3376 L1277.58 66.3376 L1277.58 72.576 L1269.92 72.576 Q1261.29 72.576 1258.01 69.3758 Q1254.73 66.1351 1254.73 57.6282 L1254.73 32.9987 L1249.26 32.9987 L1249.26 27.2059 L1254.73 27.2059 L1254.73 14.324 L1262.23 14.324 Z" fill="#000000" fill-rule="nonzero" fill-opacity="1" /><path clip-path="url(#clip420)" d="M1308 49.7694 Q1298.97 49.7694 1295.48 51.8354 Q1292 53.9013 1292 58.8839 Q1292 62.8538 1294.59 65.2034 Q1297.23 67.5124 1301.72 67.5124 Q1307.92 67.5124 1311.65 63.1374 Q1315.41 58.7219 1315.41 51.4303 L1315.41 49.7694 L1308 49.7694 M1322.87 46.6907 L1322.87 72.576 L1315.41 72.576 L1315.41 65.6895 Q1312.86 69.8214 1309.05 71.8063 Q1305.25 73.7508 1299.74 73.7508 Q1292.77 73.7508 1288.64 69.8619 Q1284.55 65.9325 1284.55 59.3701 Q1284.55 51.7138 1289.65 47.825 Q1294.8 43.9361 1304.96 43.9361 L1315.41 43.9361 L1315.41 43.2069 Q1315.41 38.0623 1312.01 35.2672 Q1308.65 32.4315 1302.53 32.4315 Q1298.64 32.4315 1294.96 33.3632 Q1291.27 34.295 1287.87 36.1584 L1287.87 29.2718 Q1291.96 27.692 1295.81 26.9223 Q1299.66 26.1121 1303.3 26.1121 Q1313.15 26.1121 1318.01 31.2163 Q1322.87 36.3204 1322.87 46.6907 Z" fill="#000000" fill-rule="nonzero" fill-opacity="1" /><path clip-path="url(#clip420)" d="M1345.59 14.324 L1345.59 27.2059 L1360.95 27.2059 L1360.95 32.9987 L1345.59 32.9987 L1345.59 57.6282 Q1345.59 63.1779 1347.09 64.7578 Q1348.63 66.3376 1353.29 66.3376 L1360.95 66.3376 L1360.95 72.576 L1353.29 72.576 Q1344.66 72.576 1341.38 69.3758 Q1338.1 66.1351 1338.1 57.6282 L1338.1 32.9987 L1332.63 32.9987 L1332.63 27.2059 L1338.1 27.2059 L1338.1 14.324 L1345.59 14.324 Z" fill="#000000" fill-rule="nonzero" fill-opacity="1" /><path clip-path="url(#clip420)" d="M1409.56 48.0275 L1409.56 51.6733 L1375.29 51.6733 Q1375.77 59.3701 1379.9 63.421 Q1384.08 67.4314 1391.49 67.4314 Q1395.78 67.4314 1399.79 66.3781 Q1403.85 65.3249 1407.82 63.2184 L1407.82 70.267 Q1403.8 71.9684 1399.59 72.8596 Q1395.38 73.7508 1391.04 73.7508 Q1380.19 73.7508 1373.83 67.4314 Q1367.51 61.1119 1367.51 50.3365 Q1367.51 39.1965 1373.5 32.6746 Q1379.54 26.1121 1389.75 26.1121 Q1398.9 26.1121 1404.21 32.0264 Q1409.56 37.9003 1409.56 48.0275 M1402.1 45.84 Q1402.02 39.7232 1398.66 36.0774 Q1395.34 32.4315 1389.83 32.4315 Q1383.59 32.4315 1379.82 35.9558 Q1376.1 39.4801 1375.53 45.8805 L1402.1 45.84 Z" fill="#000000" fill-rule="nonzero" fill-opacity="1" /><path clip-path="url(#clip420)" d="M1437.71 72.576 L1414.62 12.096 L1423.17 12.096 L1442.33 63.0159 L1461.53 12.096 L1470.04 12.096 L1446.99 72.576 L1437.71 72.576 Z" fill="#000000" fill-rule="nonzero" fill-opacity="1" /><path clip-path="url(#clip420)" d="M1510.91 48.0275 L1510.91 51.6733 L1476.64 51.6733 Q1477.13 59.3701 1481.26 63.421 Q1485.43 67.4314 1492.84 67.4314 Q1497.14 67.4314 1501.15 66.3781 Q1505.2 65.3249 1509.17 63.2184 L1509.17 70.267 Q1505.16 71.9684 1500.95 72.8596 Q1496.73 73.7508 1492.4 73.7508 Q1481.54 73.7508 1475.18 67.4314 Q1468.86 61.1119 1468.86 50.3365 Q1468.86 39.1965 1474.86 32.6746 Q1480.89 26.1121 1491.1 26.1121 Q1500.26 26.1121 1505.56 32.0264 Q1510.91 37.9003 1510.91 48.0275 M1503.46 45.84 Q1503.38 39.7232 1500.01 36.0774 Q1496.69 32.4315 1491.18 32.4315 Q1484.94 32.4315 1481.18 35.9558 Q1477.45 39.4801 1476.88 45.8805 L1503.46 45.84 Z" fill="#000000" fill-rule="nonzero" fill-opacity="1" /><path clip-path="url(#clip420)" d="M1555.79 28.9478 L1555.79 35.9153 Q1552.64 34.1734 1549.43 33.3227 Q1546.28 32.4315 1543.03 32.4315 Q1535.78 32.4315 1531.77 37.0496 Q1527.76 41.6271 1527.76 49.9314 Q1527.76 58.2358 1531.77 62.8538 Q1535.78 67.4314 1543.03 67.4314 Q1546.28 67.4314 1549.43 66.5807 Q1552.64 65.6895 1555.79 63.9476 L1555.79 70.8341 Q1552.68 72.2924 1549.31 73.0216 Q1545.99 73.7508 1542.22 73.7508 Q1531.98 73.7508 1525.94 67.3098 Q1519.9 60.8689 1519.9 49.9314 Q1519.9 38.832 1525.98 32.472 Q1532.1 26.1121 1542.71 26.1121 Q1546.15 26.1121 1549.43 26.8413 Q1552.72 27.5299 1555.79 28.9478 Z" fill="#000000" fill-rule="nonzero" fill-opacity="1" /><path clip-path="url(#clip420)" d="M1576.13 14.324 L1576.13 27.2059 L1591.48 27.2059 L1591.48 32.9987 L1576.13 32.9987 L1576.13 57.6282 Q1576.13 63.1779 1577.63 64.7578 Q1579.17 66.3376 1583.83 66.3376 L1591.48 66.3376 L1591.48 72.576 L1583.83 72.576 Q1575.2 72.576 1571.92 69.3758 Q1568.64 66.1351 1568.64 57.6282 L1568.64 32.9987 L1563.17 32.9987 L1563.17 27.2059 L1568.64 27.2059 L1568.64 14.324 L1576.13 14.324 Z" fill="#000000" fill-rule="nonzero" fill-opacity="1" /><path clip-path="url(#clip420)" d="M1618.87 32.4315 Q1612.87 32.4315 1609.39 37.1306 Q1605.9 41.7891 1605.9 49.9314 Q1605.9 58.0738 1609.35 62.7728 Q1612.83 67.4314 1618.87 67.4314 Q1624.82 67.4314 1628.31 62.7323 Q1631.79 58.0333 1631.79 49.9314 Q1631.79 41.8701 1628.31 37.1711 Q1624.82 32.4315 1618.87 32.4315 M1618.87 26.1121 Q1628.59 26.1121 1634.14 32.4315 Q1639.69 38.7509 1639.69 49.9314 Q1639.69 61.0714 1634.14 67.4314 Q1628.59 73.7508 1618.87 73.7508 Q1609.1 73.7508 1603.56 67.4314 Q1598.05 61.0714 1598.05 49.9314 Q1598.05 38.7509 1603.56 32.4315 Q1609.1 26.1121 1618.87 26.1121 Z" fill="#000000" fill-rule="nonzero" fill-opacity="1" /><path clip-path="url(#clip420)" d="M1678.33 34.1734 Q1677.08 33.4443 1675.58 33.1202 Q1674.12 32.7556 1672.34 32.7556 Q1666.02 32.7556 1662.62 36.8875 Q1659.25 40.9789 1659.25 48.6757 L1659.25 72.576 L1651.76 72.576 L1651.76 27.2059 L1659.25 27.2059 L1659.25 34.2544 Q1661.6 30.1225 1665.37 28.1376 Q1669.14 26.1121 1674.53 26.1121 Q1675.3 26.1121 1676.23 26.2337 Q1677.16 26.3147 1678.29 26.5172 L1678.33 34.1734 Z" fill="#000000" fill-rule="nonzero" fill-opacity="1" /><path clip-path="url(#clip420)" d="M1731.08 17.4837 Q1724.76 17.4837 1721.56 23.7221 Q1718.4 29.92 1718.4 42.3968 Q1718.4 54.833 1721.56 61.0714 Q1724.76 67.2693 1731.08 67.2693 Q1737.44 67.2693 1740.6 61.0714 Q1743.8 54.833 1743.8 42.3968 Q1743.8 29.92 1740.6 23.7221 Q1737.44 17.4837 1731.08 17.4837 M1731.08 11.0023 Q1741.25 11.0023 1746.59 19.0636 Q1751.98 27.0843 1751.98 42.3968 Q1751.98 57.6687 1746.59 65.73 Q1741.25 73.7508 1731.08 73.7508 Q1720.91 73.7508 1715.52 65.73 Q1710.17 57.6687 1710.17 42.3968 Q1710.17 27.0843 1715.52 19.0636 Q1720.91 11.0023 1731.08 11.0023 Z" fill="#000000" fill-rule="nonzero" fill-opacity="1" /><path clip-path="url(#clip420)" d="M1766.36 62.2867 L1774.91 62.2867 L1774.91 72.576 L1766.36 72.576 L1766.36 62.2867 Z" fill="#000000" fill-rule="nonzero" fill-opacity="1" /><path clip-path="url(#clip420)" d="M1799.78 65.6895 L1828.34 65.6895 L1828.34 72.576 L1789.94 72.576 L1789.94 65.6895 Q1794.6 60.8689 1802.62 52.7671 Q1810.68 44.6248 1812.74 42.2752 Q1816.67 37.8598 1818.21 34.8216 Q1819.79 31.7429 1819.79 28.7857 Q1819.79 23.9651 1816.39 20.927 Q1813.03 17.8888 1807.6 17.8888 Q1803.75 17.8888 1799.46 19.2256 Q1795.2 20.5624 1790.34 23.2765 L1790.34 15.0127 Q1795.28 13.0277 1799.58 12.015 Q1803.87 11.0023 1807.44 11.0023 Q1816.84 11.0023 1822.43 15.7013 Q1828.02 20.4004 1828.02 28.2591 Q1828.02 31.9859 1826.6 35.3482 Q1825.22 38.6699 1821.53 43.2069 Q1820.52 44.3817 1815.09 50.0125 Q1809.67 55.6027 1799.78 65.6895 Z" fill="#000000" fill-rule="nonzero" fill-opacity="1" /><path clip-path="url(#clip420)" d="M1868 19.2256 L1847.34 51.5113 L1868 51.5113 L1868 19.2256 M1865.85 12.096 L1876.14 12.096 L1876.14 51.5113 L1884.77 51.5113 L1884.77 58.3168 L1876.14 58.3168 L1876.14 72.576 L1868 72.576 L1868 58.3168 L1840.69 58.3168 L1840.69 50.4176 L1865.85 12.096 Z" fill="#000000" fill-rule="nonzero" fill-opacity="1" /><path clip-path="url(#clip420)" d="M1898.3 62.2867 L1906.85 62.2867 L1906.85 72.576 L1898.3 72.576 L1898.3 62.2867 Z" fill="#000000" fill-rule="nonzero" fill-opacity="1" /><path clip-path="url(#clip420)" d="M1931.72 65.6895 L1960.28 65.6895 L1960.28 72.576 L1921.88 72.576 L1921.88 65.6895 Q1926.53 60.8689 1934.55 52.7671 Q1942.62 44.6248 1944.68 42.2752 Q1948.61 37.8598 1950.15 34.8216 Q1951.73 31.7429 1951.73 28.7857 Q1951.73 23.9651 1948.33 20.927 Q1944.97 17.8888 1939.54 17.8888 Q1935.69 17.8888 1931.39 19.2256 Q1927.14 20.5624 1922.28 23.2765 L1922.28 15.0127 Q1927.22 13.0277 1931.52 12.015 Q1935.81 11.0023 1939.38 11.0023 Q1948.77 11.0023 1954.36 15.7013 Q1959.95 20.4004 1959.95 28.2591 Q1959.95 31.9859 1958.54 35.3482 Q1957.16 38.6699 1953.47 43.2069 Q1952.46 44.3817 1947.03 50.0125 Q1941.6 55.6027 1931.72 65.6895 Z" fill="#000000" fill-rule="nonzero" fill-opacity="1" /><path clip-path="url(#clip420)" d="M2025.74 9.54393 L2025.74 15.7418 L2018.61 15.7418 Q2014.6 15.7418 2013.02 17.3622 Q2011.48 18.9825 2011.48 23.1955 L2011.48 27.2059 L2023.76 27.2059 L2023.76 32.9987 L2011.48 32.9987 L2011.48 72.576 L2003.99 72.576 L2003.99 32.9987 L1996.86 32.9987 L1996.86 27.2059 L2003.99 27.2059 L2003.99 24.0462 Q2003.99 16.471 2007.51 13.0277 Q2011.04 9.54393 2018.69 9.54393 L2025.74 9.54393 Z" fill="#000000" fill-rule="nonzero" fill-opacity="1" /><path clip-path="url(#clip420)" d="M2031.98 27.2059 L2039.43 27.2059 L2039.43 72.576 L2031.98 72.576 L2031.98 27.2059 M2031.98 9.54393 L2039.43 9.54393 L2039.43 18.9825 L2031.98 18.9825 L2031.98 9.54393 Z" fill="#000000" fill-rule="nonzero" fill-opacity="1" /><path clip-path="url(#clip420)" d="M2084.88 34.0924 L2084.88 9.54393 L2092.34 9.54393 L2092.34 72.576 L2084.88 72.576 L2084.88 65.7705 Q2082.53 69.8214 2078.93 71.8063 Q2075.36 73.7508 2070.34 73.7508 Q2062.12 73.7508 2056.93 67.1883 Q2051.79 60.6258 2051.79 49.9314 Q2051.79 39.2371 2056.93 32.6746 Q2062.12 26.1121 2070.34 26.1121 Q2075.36 26.1121 2078.93 28.0971 Q2082.53 30.0415 2084.88 34.0924 M2059.48 49.9314 Q2059.48 58.1548 2062.85 62.8538 Q2066.25 67.5124 2072.16 67.5124 Q2078.08 67.5124 2081.48 62.8538 Q2084.88 58.1548 2084.88 49.9314 Q2084.88 41.7081 2081.48 37.0496 Q2078.08 32.3505 2072.16 32.3505 Q2066.25 32.3505 2062.85 37.0496 Q2059.48 41.7081 2059.48 49.9314 Z" fill="#000000" fill-rule="nonzero" fill-opacity="1" /><path clip-path="url(#clip420)" d="M2146.5 48.0275 L2146.5 51.6733 L2112.23 51.6733 Q2112.71 59.3701 2116.85 63.421 Q2121.02 67.4314 2128.43 67.4314 Q2132.72 67.4314 2136.74 66.3781 Q2140.79 65.3249 2144.76 63.2184 L2144.76 70.267 Q2140.75 71.9684 2136.53 72.8596 Q2132.32 73.7508 2127.99 73.7508 Q2117.13 73.7508 2110.77 67.4314 Q2104.45 61.1119 2104.45 50.3365 Q2104.45 39.1965 2110.44 32.6746 Q2116.48 26.1121 2126.69 26.1121 Q2135.84 26.1121 2141.15 32.0264 Q2146.5 37.9003 2146.5 48.0275 M2139.04 45.84 Q2138.96 39.7232 2135.6 36.0774 Q2132.28 32.4315 2126.77 32.4315 Q2120.53 32.4315 2116.76 35.9558 Q2113.04 39.4801 2112.47 45.8805 L2139.04 45.84 Z" fill="#000000" fill-rule="nonzero" fill-opacity="1" /><path clip-path="url(#clip420)" d="M2158.73 9.54393 L2166.19 9.54393 L2166.19 72.576 L2158.73 72.576 L2158.73 9.54393 Z" fill="#000000" fill-rule="nonzero" fill-opacity="1" /><path clip-path="url(#clip420)" d="M2181.78 27.2059 L2189.23 27.2059 L2189.23 72.576 L2181.78 72.576 L2181.78 27.2059 M2181.78 9.54393 L2189.23 9.54393 L2189.23 18.9825 L2181.78 18.9825 L2181.78 9.54393 Z" fill="#000000" fill-rule="nonzero" fill-opacity="1" /><path clip-path="url(#clip420)" d="M2212.2 14.324 L2212.2 27.2059 L2227.56 27.2059 L2227.56 32.9987 L2212.2 32.9987 L2212.2 57.6282 Q2212.2 63.1779 2213.7 64.7578 Q2215.24 66.3376 2219.9 66.3376 L2227.56 66.3376 L2227.56 72.576 L2219.9 72.576 Q2211.27 72.576 2207.99 69.3758 Q2204.71 66.1351 2204.71 57.6282 L2204.71 32.9987 L2199.24 32.9987 L2199.24 27.2059 L2204.71 27.2059 L2204.71 14.324 L2212.2 14.324 Z" fill="#000000" fill-rule="nonzero" fill-opacity="1" /><path clip-path="url(#clip420)" d="M2256.24 76.7889 Q2253.08 84.8907 2250.08 87.3618 Q2247.08 89.8329 2242.06 89.8329 L2236.1 89.8329 L2236.1 83.5945 L2240.48 83.5945 Q2243.56 83.5945 2245.26 82.1361 Q2246.96 80.6778 2249.03 75.2496 L2250.36 71.8468 L2232.01 27.2059 L2239.91 27.2059 L2254.09 62.6918 L2268.27 27.2059 L2276.17 27.2059 L2256.24 76.7889 Z" fill="#000000" fill-rule="nonzero" fill-opacity="1" /><path clip-path="url(#clip420)" d="M2287.43 34.9026 L2339.36 34.9026 L2339.36 41.7081 L2287.43 41.7081 L2287.43 34.9026 M2287.43 51.4303 L2339.36 51.4303 L2339.36 58.3168 L2287.43 58.3168 L2287.43 51.4303 Z" fill="#000000" fill-rule="nonzero" fill-opacity="1" /><path clip-path="url(#clip420)" d="M2358.44 65.6895 L2371.81 65.6895 L2371.81 19.5497 L2357.27 22.4663 L2357.27 15.0127 L2371.73 12.096 L2379.91 12.096 L2379.91 65.6895 L2393.28 65.6895 L2393.28 72.576 L2358.44 72.576 L2358.44 65.6895 Z" fill="#000000" fill-rule="nonzero" fill-opacity="1" /><path clip-path="url(#clip420)" d="M2409.81 62.2867 L2418.35 62.2867 L2418.35 72.576 L2409.81 72.576 L2409.81 62.2867 Z" fill="#000000" fill-rule="nonzero" fill-opacity="1" /><path clip-path="url(#clip420)" d="M2453.68 17.4837 Q2447.36 17.4837 2444.16 23.7221 Q2441 29.92 2441 42.3968 Q2441 54.833 2444.16 61.0714 Q2447.36 67.2693 2453.68 67.2693 Q2460.04 67.2693 2463.2 61.0714 Q2466.4 54.833 2466.4 42.3968 Q2466.4 29.92 2463.2 23.7221 Q2460.04 17.4837 2453.68 17.4837 M2453.68 11.0023 Q2463.85 11.0023 2469.19 19.0636 Q2474.58 27.0843 2474.58 42.3968 Q2474.58 57.6687 2469.19 65.73 Q2463.85 73.7508 2453.68 73.7508 Q2443.51 73.7508 2438.12 65.73 Q2432.78 57.6687 2432.78 42.3968 Q2432.78 27.0843 2438.12 19.0636 Q2443.51 11.0023 2453.68 11.0023 Z" fill="#000000" fill-rule="nonzero" fill-opacity="1" /><path clip-path="url(#clip421)" d="M521.34 255.754 L521.34 1463.75 L648.085 1463.75 L648.085 255.754 L521.34 255.754 L521.34 255.754  Z" fill="#0c7e8f" fill-rule="evenodd" fill-opacity="1"/>
<polyline clip-path="url(#clip421)" style="stroke:#000000; stroke-linecap:round; stroke-linejoin:round; stroke-width:4; stroke-opacity:1; fill:none" points="521.34,255.754 521.34,1463.75 648.085,1463.75 648.085,255.754 521.34,255.754 "/>
<path clip-path="url(#clip421)" d="M679.771 300.798 L679.771 1463.75 L806.515 1463.75 L806.515 300.798 L679.771 300.798 L679.771 300.798  Z" fill="#0c7e8f" fill-rule="evenodd" fill-opacity="1"/>
<polyline clip-path="url(#clip421)" style="stroke:#000000; stroke-linecap:round; stroke-linejoin:round; stroke-width:4; stroke-opacity:1; fill:none" points="679.771,300.798 679.771,1463.75 806.515,1463.75 806.515,300.798 679.771,300.798 "/>
<path clip-path="url(#clip421)" d="M838.202 1271.29 L838.202 1463.75 L964.946 1463.75 L964.946 1271.29 L838.202 1271.29 L838.202 1271.29  Z" fill="#0c7e8f" fill-rule="evenodd" fill-opacity="1"/>
<polyline clip-path="url(#clip421)" style="stroke:#000000; stroke-linecap:round; stroke-linejoin:round; stroke-width:4; stroke-opacity:1; fill:none" points="838.202,1271.29 838.202,1463.75 964.946,1463.75 964.946,1271.29 838.202,1271.29 "/>
<path clip-path="url(#clip421)" d="M996.632 1283.58 L996.632 1463.75 L1123.38 1463.75 L1123.38 1283.58 L996.632 1283.58 L996.632 1283.58  Z" fill="#0c7e8f" fill-rule="evenodd" fill-opacity="1"/>
<polyline clip-path="url(#clip421)" style="stroke:#000000; stroke-linecap:round; stroke-linejoin:round; stroke-width:4; stroke-opacity:1; fill:none" points="996.632,1283.58 996.632,1463.75 1123.38,1463.75 1123.38,1283.58 996.632,1283.58 "/>
<path clip-path="url(#clip421)" d="M1155.06 1357.29 L1155.06 1463.75 L1281.81 1463.75 L1281.81 1357.29 L1155.06 1357.29 L1155.06 1357.29  Z" fill="#0c7e8f" fill-rule="evenodd" fill-opacity="1"/>
<polyline clip-path="url(#clip421)" style="stroke:#000000; stroke-linecap:round; stroke-linejoin:round; stroke-width:4; stroke-opacity:1; fill:none" points="1155.06,1357.29 1155.06,1463.75 1281.81,1463.75 1281.81,1357.29 1155.06,1357.29 "/>
<path clip-path="url(#clip421)" d="M1313.49 1357.29 L1313.49 1463.75 L1440.24 1463.75 L1440.24 1357.29 L1313.49 1357.29 L1313.49 1357.29  Z" fill="#0c7e8f" fill-rule="evenodd" fill-opacity="1"/>
<polyline clip-path="url(#clip421)" style="stroke:#000000; stroke-linecap:round; stroke-linejoin:round; stroke-width:4; stroke-opacity:1; fill:none" points="1313.49,1357.29 1313.49,1463.75 1440.24,1463.75 1440.24,1357.29 1313.49,1357.29 "/>
<path clip-path="url(#clip421)" d="M1471.92 1361.38 L1471.92 1463.75 L1598.67 1463.75 L1598.67 1361.38 L1471.92 1361.38 L1471.92 1361.38  Z" fill="#0c7e8f" fill-rule="evenodd" fill-opacity="1"/>
<polyline clip-path="url(#clip421)" style="stroke:#000000; stroke-linecap:round; stroke-linejoin:round; stroke-width:4; stroke-opacity:1; fill:none" points="1471.92,1361.38 1471.92,1463.75 1598.67,1463.75 1598.67,1361.38 1471.92,1361.38 "/>
<path clip-path="url(#clip421)" d="M1630.36 1361.38 L1630.36 1463.75 L1757.1 1463.75 L1757.1 1361.38 L1630.36 1361.38 L1630.36 1361.38  Z" fill="#0c7e8f" fill-rule="evenodd" fill-opacity="1"/>
<polyline clip-path="url(#clip421)" style="stroke:#000000; stroke-linecap:round; stroke-linejoin:round; stroke-width:4; stroke-opacity:1; fill:none" points="1630.36,1361.38 1630.36,1463.75 1757.1,1463.75 1757.1,1361.38 1630.36,1361.38 "/>
<path clip-path="url(#clip421)" d="M1788.79 1361.38 L1788.79 1463.75 L1915.53 1463.75 L1915.53 1361.38 L1788.79 1361.38 L1788.79 1361.38  Z" fill="#0c7e8f" fill-rule="evenodd" fill-opacity="1"/>
<polyline clip-path="url(#clip421)" style="stroke:#000000; stroke-linecap:round; stroke-linejoin:round; stroke-width:4; stroke-opacity:1; fill:none" points="1788.79,1361.38 1788.79,1463.75 1915.53,1463.75 1915.53,1361.38 1788.79,1361.38 "/>
<path clip-path="url(#clip421)" d="M1947.22 1361.38 L1947.22 1463.75 L2073.96 1463.75 L2073.96 1361.38 L1947.22 1361.38 L1947.22 1361.38  Z" fill="#0c7e8f" fill-rule="evenodd" fill-opacity="1"/>
<polyline clip-path="url(#clip421)" style="stroke:#000000; stroke-linecap:round; stroke-linejoin:round; stroke-width:4; stroke-opacity:1; fill:none" points="1947.22,1361.38 1947.22,1463.75 2073.96,1463.75 2073.96,1361.38 1947.22,1361.38 "/>
<path clip-path="url(#clip421)" d="M2105.65 1361.38 L2105.65 1463.75 L2232.39 1463.75 L2232.39 1361.38 L2105.65 1361.38 L2105.65 1361.38  Z" fill="#0c7e8f" fill-rule="evenodd" fill-opacity="1"/>
<polyline clip-path="url(#clip421)" style="stroke:#000000; stroke-linecap:round; stroke-linejoin:round; stroke-width:4; stroke-opacity:1; fill:none" points="2105.65,1361.38 2105.65,1463.75 2232.39,1463.75 2232.39,1361.38 2105.65,1361.38 "/>
<path clip-path="url(#clip421)" d="M2264.08 1369.57 L2264.08 1463.75 L2390.82 1463.75 L2390.82 1369.57 L2264.08 1369.57 L2264.08 1369.57  Z" fill="#0c7e8f" fill-rule="evenodd" fill-opacity="1"/>
<polyline clip-path="url(#clip421)" style="stroke:#000000; stroke-linecap:round; stroke-linejoin:round; stroke-width:4; stroke-opacity:1; fill:none" points="2264.08,1369.57 2264.08,1463.75 2390.82,1463.75 2390.82,1369.57 2264.08,1369.57 "/>
<path clip-path="url(#clip421)" d="M2422.51 1377.76 L2422.51 1463.75 L2549.25 1463.75 L2549.25 1377.76 L2422.51 1377.76 L2422.51 1377.76  Z" fill="#0c7e8f" fill-rule="evenodd" fill-opacity="1"/>
<polyline clip-path="url(#clip421)" style="stroke:#000000; stroke-linecap:round; stroke-linejoin:round; stroke-width:4; stroke-opacity:1; fill:none" points="2422.51,1377.76 2422.51,1463.75 2549.25,1463.75 2549.25,1377.76 2422.51,1377.76 "/>
<path clip-path="url(#clip421)" d="M2580.94 1381.85 L2580.94 1463.75 L2707.69 1463.75 L2707.69 1381.85 L2580.94 1381.85 L2580.94 1381.85  Z" fill="#0c7e8f" fill-rule="evenodd" fill-opacity="1"/>
<polyline clip-path="url(#clip421)" style="stroke:#000000; stroke-linecap:round; stroke-linejoin:round; stroke-width:4; stroke-opacity:1; fill:none" points="2580.94,1381.85 2580.94,1463.75 2707.69,1463.75 2707.69,1381.85 2580.94,1381.85 "/>
<path clip-path="url(#clip421)" d="M2739.37 1385.95 L2739.37 1463.75 L2866.12 1463.75 L2866.12 1385.95 L2739.37 1385.95 L2739.37 1385.95  Z" fill="#0c7e8f" fill-rule="evenodd" fill-opacity="1"/>
<polyline clip-path="url(#clip421)" style="stroke:#000000; stroke-linecap:round; stroke-linejoin:round; stroke-width:4; stroke-opacity:1; fill:none" points="2739.37,1385.95 2739.37,1463.75 2866.12,1463.75 2866.12,1385.95 2739.37,1385.95 "/>
<circle clip-path="url(#clip421)" style="fill:#009af9; stroke:none; fill-opacity:0" cx="584.712" cy="255.754" r="2"/>
<circle clip-path="url(#clip421)" style="fill:#009af9; stroke:none; fill-opacity:0" cx="743.143" cy="300.798" r="2"/>
<circle clip-path="url(#clip421)" style="fill:#009af9; stroke:none; fill-opacity:0" cx="901.574" cy="1271.29" r="2"/>
<circle clip-path="url(#clip421)" style="fill:#009af9; stroke:none; fill-opacity:0" cx="1060" cy="1283.58" r="2"/>
<circle clip-path="url(#clip421)" style="fill:#009af9; stroke:none; fill-opacity:0" cx="1218.44" cy="1357.29" r="2"/>
<circle clip-path="url(#clip421)" style="fill:#009af9; stroke:none; fill-opacity:0" cx="1376.87" cy="1357.29" r="2"/>
<circle clip-path="url(#clip421)" style="fill:#009af9; stroke:none; fill-opacity:0" cx="1535.3" cy="1361.38" r="2"/>
<circle clip-path="url(#clip421)" style="fill:#009af9; stroke:none; fill-opacity:0" cx="1693.73" cy="1361.38" r="2"/>
<circle clip-path="url(#clip421)" style="fill:#009af9; stroke:none; fill-opacity:0" cx="1852.16" cy="1361.38" r="2"/>
<circle clip-path="url(#clip421)" style="fill:#009af9; stroke:none; fill-opacity:0" cx="2010.59" cy="1361.38" r="2"/>
<circle clip-path="url(#clip421)" style="fill:#009af9; stroke:none; fill-opacity:0" cx="2169.02" cy="1361.38" r="2"/>
<circle clip-path="url(#clip421)" style="fill:#009af9; stroke:none; fill-opacity:0" cx="2327.45" cy="1369.57" r="2"/>
<circle clip-path="url(#clip421)" style="fill:#009af9; stroke:none; fill-opacity:0" cx="2485.88" cy="1377.76" r="2"/>
<circle clip-path="url(#clip421)" style="fill:#009af9; stroke:none; fill-opacity:0" cx="2644.31" cy="1381.85" r="2"/>
<circle clip-path="url(#clip421)" style="fill:#009af9; stroke:none; fill-opacity:0" cx="2802.74" cy="1385.95" r="2"/>
</svg>
