<?xml version="1.0" encoding="utf-8"?>
<svg xmlns="http://www.w3.org/2000/svg" xmlns:xlink="http://www.w3.org/1999/xlink" width="800" height="500" viewBox="0 0 3200 2000">
<defs>
  <clipPath id="clip740">
    <rect x="0" y="0" width="3200" height="2000"/>
  </clipPath>
</defs>
<path clip-path="url(#clip740)" d="M0 2000 L3200 2000 L3200 0 L0 0  Z" fill="#ffffff" fill-rule="evenodd" fill-opacity="1"/>
<defs>
  <clipPath id="clip741">
    <rect x="382" y="261" width="2630" height="1160"/>
  </clipPath>
</defs>
<path clip-path="url(#clip740)" d="M382.045 1420.15 L3011.02 1420.15 L3011.02 261.424 L382.045 261.424  Z" fill="#ffffff" fill-rule="evenodd" fill-opacity="1"/>
<polyline clip-path="url(#clip741)" style="stroke:#000000; stroke-linecap:round; stroke-linejoin:round; stroke-width:2; stroke-opacity:0.1; fill:none" points="1046.6,1420.15 1046.6,261.424 "/>
<polyline clip-path="url(#clip741)" style="stroke:#000000; stroke-linecap:round; stroke-linejoin:round; stroke-width:2; stroke-opacity:0.1; fill:none" points="2346.47,1420.15 2346.47,261.424 "/>
<polyline clip-path="url(#clip741)" style="stroke:#000000; stroke-linecap:round; stroke-linejoin:round; stroke-width:2; stroke-opacity:0.1; fill:none" points="382.045,1420.15 3011.02,1420.15 "/>
<polyline clip-path="url(#clip741)" style="stroke:#000000; stroke-linecap:round; stroke-linejoin:round; stroke-width:2; stroke-opacity:0.1; fill:none" points="382.045,1190.24 3011.02,1190.24 "/>
<polyline clip-path="url(#clip741)" style="stroke:#000000; stroke-linecap:round; stroke-linejoin:round; stroke-width:2; stroke-opacity:0.1; fill:none" points="382.045,960.338 3011.02,960.338 "/>
<polyline clip-path="url(#clip741)" style="stroke:#000000; stroke-linecap:round; stroke-linejoin:round; stroke-width:2; stroke-opacity:0.1; fill:none" points="382.045,730.433 3011.02,730.433 "/>
<polyline clip-path="url(#clip741)" style="stroke:#000000; stroke-linecap:round; stroke-linejoin:round; stroke-width:2; stroke-opacity:0.1; fill:none" points="382.045,500.527 3011.02,500.527 "/>
<polyline clip-path="url(#clip741)" style="stroke:#000000; stroke-linecap:round; stroke-linejoin:round; stroke-width:2; stroke-opacity:0.1; fill:none" points="382.045,270.621 3011.02,270.621 "/>
<polyline clip-path="url(#clip740)" style="stroke:#000000; stroke-linecap:round; stroke-linejoin:round; stroke-width:4; stroke-opacity:1; fill:none" points="382.045,1420.15 3011.02,1420.15 "/>
<polyline clip-path="url(#clip740)" style="stroke:#000000; stroke-linecap:round; stroke-linejoin:round; stroke-width:4; stroke-opacity:1; fill:none" points="1046.6,1420.15 1046.6,1401.25 "/>
<polyline clip-path="url(#clip740)" style="stroke:#000000; stroke-linecap:round; stroke-linejoin:round; stroke-width:4; stroke-opacity:1; fill:none" points="2346.47,1420.15 2346.47,1401.25 "/>
<path clip-path="url(#clip740)" d="M1059.94 1737.11 L1059.94 1729.48 L1033.57 1729.48 L1035.24 1737.79 L1030.98 1737.79 L1029.32 1729.52 L1029.32 1724.85 L1059.94 1724.85 L1059.94 1717.21 L1063.88 1717.21 L1063.88 1737.11 L1059.94 1737.11 Z" fill="#000000" fill-rule="nonzero" fill-opacity="1" /><path clip-path="url(#clip740)" d="M1059.94 1706.95 L1059.94 1699.31 L1033.57 1699.31 L1035.24 1707.62 L1030.98 1707.62 L1029.32 1699.36 L1029.32 1694.68 L1059.94 1694.68 L1059.94 1687.05 L1063.88 1687.05 L1063.88 1706.95 L1059.94 1706.95 Z" fill="#000000" fill-rule="nonzero" fill-opacity="1" /><path clip-path="url(#clip740)" d="M1059.94 1676.79 L1059.94 1669.15 L1033.57 1669.15 L1035.24 1677.46 L1030.98 1677.46 L1029.32 1669.2 L1029.32 1664.52 L1059.94 1664.52 L1059.94 1656.88 L1063.88 1656.88 L1063.88 1676.79 L1059.94 1676.79 Z" fill="#000000" fill-rule="nonzero" fill-opacity="1" /><path clip-path="url(#clip740)" d="M1059.94 1646.63 L1059.94 1638.99 L1033.57 1638.99 L1035.24 1647.3 L1030.98 1647.3 L1029.32 1639.04 L1029.32 1634.36 L1059.94 1634.36 L1059.94 1626.72 L1063.88 1626.72 L1063.88 1646.63 L1059.94 1646.63 Z" fill="#000000" fill-rule="nonzero" fill-opacity="1" /><path clip-path="url(#clip740)" d="M1059.94 1616.47 L1059.94 1608.83 L1033.57 1608.83 L1035.24 1617.14 L1030.98 1617.14 L1029.32 1608.87 L1029.32 1604.2 L1059.94 1604.2 L1059.94 1596.56 L1063.88 1596.56 L1063.88 1616.47 L1059.94 1616.47 Z" fill="#000000" fill-rule="nonzero" fill-opacity="1" /><path clip-path="url(#clip740)" d="M1059.94 1586.31 L1059.94 1578.67 L1033.57 1578.67 L1035.24 1586.98 L1030.98 1586.98 L1029.32 1578.71 L1029.32 1574.04 L1059.94 1574.04 L1059.94 1566.4 L1063.88 1566.4 L1063.88 1586.31 L1059.94 1586.31 Z" fill="#000000" fill-rule="nonzero" fill-opacity="1" /><path clip-path="url(#clip740)" d="M1059.94 1556.14 L1059.94 1548.5 L1033.57 1548.5 L1035.24 1556.81 L1030.98 1556.81 L1029.32 1548.55 L1029.32 1543.87 L1059.94 1543.87 L1059.94 1536.24 L1063.88 1536.24 L1063.88 1556.14 L1059.94 1556.14 Z" fill="#000000" fill-rule="nonzero" fill-opacity="1" /><path clip-path="url(#clip740)" d="M1059.94 1525.98 L1059.94 1518.34 L1033.57 1518.34 L1035.24 1526.65 L1030.98 1526.65 L1029.32 1518.39 L1029.32 1513.71 L1059.94 1513.71 L1059.94 1506.07 L1063.88 1506.07 L1063.88 1525.98 L1059.94 1525.98 Z" fill="#000000" fill-rule="nonzero" fill-opacity="1" /><path clip-path="url(#clip740)" d="M1059.94 1495.82 L1059.94 1488.18 L1033.57 1488.18 L1035.24 1496.49 L1030.98 1496.49 L1029.32 1488.23 L1029.32 1483.55 L1059.94 1483.55 L1059.94 1475.91 L1063.88 1475.91 L1063.88 1495.82 L1059.94 1495.82 Z" fill="#000000" fill-rule="nonzero" fill-opacity="1" /><path clip-path="url(#clip740)" d="M1059.94 1465.66 L1059.94 1458.02 L1033.57 1458.02 L1035.24 1466.33 L1030.98 1466.33 L1029.32 1458.07 L1029.32 1453.39 L1059.94 1453.39 L1059.94 1445.75 L1063.88 1445.75 L1063.88 1465.66 L1059.94 1465.66 Z" fill="#000000" fill-rule="nonzero" fill-opacity="1" /><path clip-path="url(#clip740)" d="M2332.27 1729.15 Q2332.27 1732.76 2335.84 1734.59 Q2339.38 1736.4 2346.51 1736.4 Q2353.61 1736.4 2357.18 1734.59 Q2360.72 1732.76 2360.72 1729.15 Q2360.72 1725.52 2357.18 1723.71 Q2353.61 1721.88 2346.51 1721.88 Q2339.38 1721.88 2335.84 1723.71 Q2332.27 1725.52 2332.27 1729.15 M2328.57 1729.15 Q2328.57 1723.34 2333.18 1720.29 Q2337.76 1717.21 2346.51 1717.21 Q2355.24 1717.21 2359.84 1720.29 Q2364.42 1723.34 2364.42 1729.15 Q2364.42 1734.96 2359.84 1738.04 Q2355.24 1741.1 2346.51 1741.1 Q2337.76 1741.1 2333.18 1738.04 Q2328.57 1734.96 2328.57 1729.15 Z" fill="#000000" fill-rule="nonzero" fill-opacity="1" /><path clip-path="url(#clip740)" d="M2332.27 1698.99 Q2332.27 1702.6 2335.84 1704.43 Q2339.38 1706.24 2346.51 1706.24 Q2353.61 1706.24 2357.18 1704.43 Q2360.72 1702.6 2360.72 1698.99 Q2360.72 1695.36 2357.18 1693.55 Q2353.61 1691.72 2346.51 1691.72 Q2339.38 1691.72 2335.84 1693.55 Q2332.27 1695.36 2332.27 1698.99 M2328.57 1698.99 Q2328.57 1693.18 2333.18 1690.12 Q2337.76 1687.05 2346.51 1687.05 Q2355.24 1687.05 2359.84 1690.12 Q2364.42 1693.18 2364.42 1698.99 Q2364.42 1704.8 2359.84 1707.88 Q2355.24 1710.93 2346.51 1710.93 Q2337.76 1710.93 2333.18 1707.88 Q2328.57 1704.8 2328.57 1698.99 Z" fill="#000000" fill-rule="nonzero" fill-opacity="1" /><path clip-path="url(#clip740)" d="M2332.27 1668.83 Q2332.27 1672.44 2335.84 1674.27 Q2339.38 1676.07 2346.51 1676.07 Q2353.61 1676.07 2357.18 1674.27 Q2360.72 1672.44 2360.72 1668.83 Q2360.72 1665.19 2357.18 1663.39 Q2353.61 1661.56 2346.51 1661.56 Q2339.38 1661.56 2335.84 1663.39 Q2332.27 1665.19 2332.27 1668.83 M2328.57 1668.83 Q2328.57 1663.02 2333.18 1659.96 Q2337.76 1656.88 2346.51 1656.88 Q2355.24 1656.88 2359.84 1659.96 Q2364.42 1663.02 2364.42 1668.83 Q2364.42 1674.64 2359.84 1677.72 Q2355.24 1680.77 2346.51 1680.77 Q2337.76 1680.77 2333.18 1677.72 Q2328.57 1674.64 2328.57 1668.83 Z" fill="#000000" fill-rule="nonzero" fill-opacity="1" /><path clip-path="url(#clip740)" d="M2332.27 1638.67 Q2332.27 1642.28 2335.84 1644.11 Q2339.38 1645.91 2346.51 1645.91 Q2353.61 1645.91 2357.18 1644.11 Q2360.72 1642.28 2360.72 1638.67 Q2360.72 1635.03 2357.18 1633.23 Q2353.61 1631.4 2346.51 1631.4 Q2339.38 1631.4 2335.84 1633.23 Q2332.27 1635.03 2332.27 1638.67 M2328.57 1638.67 Q2328.57 1632.86 2333.18 1629.8 Q2337.76 1626.72 2346.51 1626.72 Q2355.24 1626.72 2359.84 1629.8 Q2364.42 1632.86 2364.42 1638.67 Q2364.42 1644.48 2359.84 1647.55 Q2355.24 1650.61 2346.51 1650.61 Q2337.76 1650.61 2333.18 1647.55 Q2328.57 1644.48 2328.57 1638.67 Z" fill="#000000" fill-rule="nonzero" fill-opacity="1" /><path clip-path="url(#clip740)" d="M2332.27 1608.5 Q2332.27 1612.12 2335.84 1613.94 Q2339.38 1615.75 2346.51 1615.75 Q2353.61 1615.75 2357.18 1613.94 Q2360.72 1612.12 2360.72 1608.5 Q2360.72 1604.87 2357.18 1603.06 Q2353.61 1601.24 2346.51 1601.24 Q2339.38 1601.24 2335.84 1603.06 Q2332.27 1604.87 2332.27 1608.5 M2328.57 1608.5 Q2328.57 1602.69 2333.18 1599.64 Q2337.76 1596.56 2346.51 1596.56 Q2355.24 1596.56 2359.84 1599.64 Q2364.42 1602.69 2364.42 1608.5 Q2364.42 1614.31 2359.84 1617.39 Q2355.24 1620.45 2346.51 1620.45 Q2337.76 1620.45 2333.18 1617.39 Q2328.57 1614.31 2328.57 1608.5 Z" fill="#000000" fill-rule="nonzero" fill-opacity="1" /><path clip-path="url(#clip740)" d="M2332.27 1578.34 Q2332.27 1581.95 2335.84 1583.78 Q2339.38 1585.59 2346.51 1585.59 Q2353.61 1585.59 2357.18 1583.78 Q2360.72 1581.95 2360.72 1578.34 Q2360.72 1574.71 2357.18 1572.9 Q2353.61 1571.07 2346.51 1571.07 Q2339.38 1571.07 2335.84 1572.9 Q2332.27 1574.71 2332.27 1578.34 M2328.57 1578.34 Q2328.57 1572.53 2333.18 1569.48 Q2337.76 1566.4 2346.51 1566.4 Q2355.24 1566.4 2359.84 1569.48 Q2364.42 1572.53 2364.42 1578.34 Q2364.42 1584.15 2359.84 1587.23 Q2355.24 1590.29 2346.51 1590.29 Q2337.76 1590.29 2333.18 1587.23 Q2328.57 1584.15 2328.57 1578.34 Z" fill="#000000" fill-rule="nonzero" fill-opacity="1" /><path clip-path="url(#clip740)" d="M2332.27 1548.18 Q2332.27 1551.79 2335.84 1553.62 Q2339.38 1555.43 2346.51 1555.43 Q2353.61 1555.43 2357.18 1553.62 Q2360.72 1551.79 2360.72 1548.18 Q2360.72 1544.55 2357.18 1542.74 Q2353.61 1540.91 2346.51 1540.91 Q2339.38 1540.91 2335.84 1542.74 Q2332.27 1544.55 2332.27 1548.18 M2328.57 1548.18 Q2328.57 1542.37 2333.18 1539.31 Q2337.76 1536.24 2346.51 1536.24 Q2355.24 1536.24 2359.84 1539.31 Q2364.42 1542.37 2364.42 1548.18 Q2364.42 1553.99 2359.84 1557.07 Q2355.24 1560.12 2346.51 1560.12 Q2337.76 1560.12 2333.18 1557.07 Q2328.57 1553.99 2328.57 1548.18 Z" fill="#000000" fill-rule="nonzero" fill-opacity="1" /><path clip-path="url(#clip740)" d="M2332.27 1518.02 Q2332.27 1521.63 2335.84 1523.46 Q2339.38 1525.26 2346.51 1525.26 Q2353.61 1525.26 2357.18 1523.46 Q2360.72 1521.63 2360.72 1518.02 Q2360.72 1514.38 2357.18 1512.58 Q2353.61 1510.75 2346.51 1510.75 Q2339.38 1510.75 2335.84 1512.58 Q2332.27 1514.38 2332.27 1518.02 M2328.57 1518.02 Q2328.57 1512.21 2333.18 1509.15 Q2337.76 1506.07 2346.51 1506.07 Q2355.24 1506.07 2359.84 1509.15 Q2364.42 1512.21 2364.42 1518.02 Q2364.42 1523.83 2359.84 1526.91 Q2355.24 1529.96 2346.51 1529.96 Q2337.76 1529.96 2333.18 1526.91 Q2328.57 1523.83 2328.57 1518.02 Z" fill="#000000" fill-rule="nonzero" fill-opacity="1" /><path clip-path="url(#clip740)" d="M2332.27 1487.86 Q2332.27 1491.47 2335.84 1493.3 Q2339.38 1495.1 2346.51 1495.1 Q2353.61 1495.1 2357.18 1493.3 Q2360.72 1491.47 2360.72 1487.86 Q2360.72 1484.22 2357.18 1482.42 Q2353.61 1480.59 2346.51 1480.59 Q2339.38 1480.59 2335.84 1482.42 Q2332.27 1484.22 2332.27 1487.86 M2328.57 1487.86 Q2328.57 1482.05 2333.18 1478.99 Q2337.76 1475.91 2346.51 1475.91 Q2355.24 1475.91 2359.84 1478.99 Q2364.42 1482.05 2364.42 1487.86 Q2364.42 1493.67 2359.84 1496.75 Q2355.24 1499.8 2346.51 1499.8 Q2337.76 1499.8 2333.18 1496.75 Q2328.57 1493.67 2328.57 1487.86 Z" fill="#000000" fill-rule="nonzero" fill-opacity="1" /><path clip-path="url(#clip740)" d="M2332.27 1457.69 Q2332.27 1461.31 2335.84 1463.13 Q2339.38 1464.94 2346.51 1464.94 Q2353.61 1464.94 2357.18 1463.13 Q2360.72 1461.31 2360.72 1457.69 Q2360.72 1454.06 2357.18 1452.25 Q2353.61 1450.43 2346.51 1450.43 Q2339.38 1450.43 2335.84 1452.25 Q2332.27 1454.06 2332.27 1457.69 M2328.57 1457.69 Q2328.57 1451.88 2333.18 1448.83 Q2337.76 1445.75 2346.51 1445.75 Q2355.24 1445.75 2359.84 1448.83 Q2364.42 1451.88 2364.42 1457.69 Q2364.42 1463.5 2359.84 1466.58 Q2355.24 1469.64 2346.51 1469.64 Q2337.76 1469.64 2333.18 1466.58 Q2328.57 1463.5 2328.57 1457.69 Z" fill="#000000" fill-rule="nonzero" fill-opacity="1" /><path clip-path="url(#clip740)" d="M1571.37 1797.83 L1571.37 1815.24 L1581.68 1815.24 Q1586.87 1815.24 1589.35 1813.1 Q1591.87 1810.94 1591.87 1806.52 Q1591.87 1802.06 1589.35 1799.96 Q1586.87 1797.83 1581.68 1797.83 L1571.37 1797.83 M1571.37 1778.28 L1571.37 1792.61 L1580.89 1792.61 Q1585.6 1792.61 1587.89 1790.86 Q1590.21 1789.07 1590.21 1785.44 Q1590.21 1781.85 1587.89 1780.07 Q1585.6 1778.28 1580.89 1778.28 L1571.37 1778.28 M1564.94 1773 L1581.36 1773 Q1588.72 1773 1592.69 1776.06 Q1596.67 1779.11 1596.67 1784.74 Q1596.67 1789.11 1594.64 1791.68 Q1592.6 1794.26 1588.65 1794.9 Q1593.39 1795.92 1596 1799.16 Q1598.65 1802.38 1598.65 1807.22 Q1598.65 1813.58 1594.32 1817.05 Q1589.99 1820.52 1582 1820.52 L1564.94 1820.52 L1564.94 1773 Z" fill="#000000" fill-rule="nonzero" fill-opacity="1" /><path clip-path="url(#clip740)" d="M1609.4 1784.87 L1615.26 1784.87 L1615.26 1820.52 L1609.4 1820.52 L1609.4 1784.87 M1609.4 1770.99 L1615.26 1770.99 L1615.26 1778.41 L1609.4 1778.41 L1609.4 1770.99 Z" fill="#000000" fill-rule="nonzero" fill-opacity="1" /><path clip-path="url(#clip740)" d="M1633.31 1774.75 L1633.31 1784.87 L1645.37 1784.87 L1645.37 1789.42 L1633.31 1789.42 L1633.31 1808.78 Q1633.31 1813.14 1634.48 1814.38 Q1635.69 1815.62 1639.35 1815.62 L1645.37 1815.62 L1645.37 1820.52 L1639.35 1820.52 Q1632.57 1820.52 1630 1818.01 Q1627.42 1815.46 1627.42 1808.78 L1627.42 1789.42 L1623.12 1789.42 L1623.12 1784.87 L1627.42 1784.87 L1627.42 1774.75 L1633.31 1774.75 Z" fill="#000000" fill-rule="nonzero" fill-opacity="1" /><path clip-path="url(#clip740)" d="M1675.8 1785.92 L1675.8 1791.46 Q1673.32 1790.19 1670.64 1789.55 Q1667.97 1788.91 1665.1 1788.91 Q1660.74 1788.91 1658.55 1790.25 Q1656.38 1791.59 1656.38 1794.26 Q1656.38 1796.3 1657.94 1797.48 Q1659.5 1798.62 1664.21 1799.67 L1666.22 1800.12 Q1672.46 1801.45 1675.07 1803.91 Q1677.71 1806.32 1677.71 1810.68 Q1677.71 1815.65 1673.76 1818.55 Q1669.85 1821.44 1662.97 1821.44 Q1660.11 1821.44 1656.99 1820.87 Q1653.9 1820.33 1650.46 1819.21 L1650.46 1813.17 Q1653.71 1814.85 1656.86 1815.71 Q1660.01 1816.54 1663.1 1816.54 Q1667.24 1816.54 1669.46 1815.14 Q1671.69 1813.71 1671.69 1811.13 Q1671.69 1808.74 1670.07 1807.47 Q1668.48 1806.2 1663.03 1805.02 L1661 1804.54 Q1655.56 1803.4 1653.14 1801.04 Q1650.72 1798.65 1650.72 1794.52 Q1650.72 1789.49 1654.28 1786.75 Q1657.85 1784.01 1664.4 1784.01 Q1667.65 1784.01 1670.51 1784.49 Q1673.38 1784.97 1675.8 1785.92 Z" fill="#000000" fill-rule="nonzero" fill-opacity="1" /><path clip-path="url(#clip740)" d="M1692.83 1774.75 L1692.83 1784.87 L1704.89 1784.87 L1704.89 1789.42 L1692.83 1789.42 L1692.83 1808.78 Q1692.83 1813.14 1694 1814.38 Q1695.21 1815.62 1698.87 1815.62 L1704.89 1815.62 L1704.89 1820.52 L1698.87 1820.52 Q1692.09 1820.52 1689.52 1818.01 Q1686.94 1815.46 1686.94 1808.78 L1686.94 1789.42 L1682.64 1789.42 L1682.64 1784.87 L1686.94 1784.87 L1686.94 1774.75 L1692.83 1774.75 Z" fill="#000000" fill-rule="nonzero" fill-opacity="1" /><path clip-path="url(#clip740)" d="M1733.25 1790.35 Q1732.26 1789.77 1731.08 1789.52 Q1729.94 1789.23 1728.54 1789.23 Q1723.57 1789.23 1720.9 1792.48 Q1718.26 1795.69 1718.26 1801.74 L1718.26 1820.52 L1712.37 1820.52 L1712.37 1784.87 L1718.26 1784.87 L1718.26 1790.41 Q1720.1 1787.16 1723.06 1785.6 Q1726.02 1784.01 1730.26 1784.01 Q1730.86 1784.01 1731.59 1784.11 Q1732.33 1784.17 1733.22 1784.33 L1733.25 1790.35 Z" fill="#000000" fill-rule="nonzero" fill-opacity="1" /><path clip-path="url(#clip740)" d="M1739.39 1784.87 L1745.25 1784.87 L1745.25 1820.52 L1739.39 1820.52 L1739.39 1784.87 M1739.39 1770.99 L1745.25 1770.99 L1745.25 1778.41 L1739.39 1778.41 L1739.39 1770.99 Z" fill="#000000" fill-rule="nonzero" fill-opacity="1" /><path clip-path="url(#clip740)" d="M1787.13 1799 L1787.13 1820.52 L1781.28 1820.52 L1781.28 1799.19 Q1781.28 1794.13 1779.3 1791.62 Q1777.33 1789.11 1773.38 1789.11 Q1768.64 1789.11 1765.9 1792.13 Q1763.17 1795.15 1763.17 1800.37 L1763.17 1820.52 L1757.28 1820.52 L1757.28 1784.87 L1763.17 1784.87 L1763.17 1790.41 Q1765.27 1787.2 1768.1 1785.6 Q1770.97 1784.01 1774.69 1784.01 Q1780.83 1784.01 1783.98 1787.83 Q1787.13 1791.62 1787.13 1799 Z" fill="#000000" fill-rule="nonzero" fill-opacity="1" /><path clip-path="url(#clip740)" d="M1822.27 1802.28 Q1822.27 1795.92 1819.63 1792.42 Q1817.02 1788.91 1812.28 1788.91 Q1807.57 1788.91 1804.93 1792.42 Q1802.32 1795.92 1802.32 1802.28 Q1802.32 1808.62 1804.93 1812.12 Q1807.57 1815.62 1812.28 1815.62 Q1817.02 1815.62 1819.63 1812.12 Q1822.27 1808.62 1822.27 1802.28 M1828.13 1816.1 Q1828.13 1825.2 1824.09 1829.62 Q1820.05 1834.08 1811.71 1834.08 Q1808.62 1834.08 1805.88 1833.6 Q1803.14 1833.16 1800.57 1832.2 L1800.57 1826.5 Q1803.14 1827.9 1805.66 1828.57 Q1808.17 1829.24 1810.78 1829.24 Q1816.54 1829.24 1819.41 1826.22 Q1822.27 1823.23 1822.27 1817.15 L1822.27 1814.25 Q1820.46 1817.4 1817.63 1818.96 Q1814.79 1820.52 1810.85 1820.52 Q1804.29 1820.52 1800.28 1815.52 Q1796.27 1810.53 1796.27 1802.28 Q1796.27 1794.01 1800.28 1789.01 Q1804.29 1784.01 1810.85 1784.01 Q1814.79 1784.01 1817.63 1785.57 Q1820.46 1787.13 1822.27 1790.28 L1822.27 1784.87 L1828.13 1784.87 L1828.13 1816.1 Z" fill="#000000" fill-rule="nonzero" fill-opacity="1" /><polyline clip-path="url(#clip740)" style="stroke:#000000; stroke-linecap:round; stroke-linejoin:round; stroke-width:4; stroke-opacity:1; fill:none" points="382.045,1420.15 382.045,261.424 "/>
<polyline clip-path="url(#clip740)" style="stroke:#000000; stroke-linecap:round; stroke-linejoin:round; stroke-width:4; stroke-opacity:1; fill:none" points="382.045,1420.15 400.943,1420.15 "/>
<polyline clip-path="url(#clip740)" style="stroke:#000000; stroke-linecap:round; stroke-linejoin:round; stroke-width:4; stroke-opacity:1; fill:none" points="382.045,1190.24 400.943,1190.24 "/>
<polyline clip-path="url(#clip740)" style="stroke:#000000; stroke-linecap:round; stroke-linejoin:round; stroke-width:4; stroke-opacity:1; fill:none" points="382.045,960.338 400.943,960.338 "/>
<polyline clip-path="url(#clip740)" style="stroke:#000000; stroke-linecap:round; stroke-linejoin:round; stroke-width:4; stroke-opacity:1; fill:none" points="382.045,730.433 400.943,730.433 "/>
<polyline clip-path="url(#clip740)" style="stroke:#000000; stroke-linecap:round; stroke-linejoin:round; stroke-width:4; stroke-opacity:1; fill:none" points="382.045,500.527 400.943,500.527 "/>
<polyline clip-path="url(#clip740)" style="stroke:#000000; stroke-linecap:round; stroke-linejoin:round; stroke-width:4; stroke-opacity:1; fill:none" points="382.045,270.621 400.943,270.621 "/>
<path clip-path="url(#clip740)" d="M322.101 1405.95 Q318.49 1405.95 316.661 1409.51 Q314.855 1413.06 314.855 1420.19 Q314.855 1427.29 316.661 1430.86 Q318.49 1434.4 322.101 1434.4 Q325.735 1434.4 327.541 1430.86 Q329.369 1427.29 329.369 1420.19 Q329.369 1413.06 327.541 1409.51 Q325.735 1405.95 322.101 1405.95 M322.101 1402.25 Q327.911 1402.25 330.966 1406.85 Q334.045 1411.44 334.045 1420.19 Q334.045 1428.91 330.966 1433.52 Q327.911 1438.1 322.101 1438.1 Q316.291 1438.1 313.212 1433.52 Q310.156 1428.91 310.156 1420.19 Q310.156 1411.44 313.212 1406.85 Q316.291 1402.25 322.101 1402.25 Z" fill="#000000" fill-rule="nonzero" fill-opacity="1" /><path clip-path="url(#clip740)" d="M252.587 1203.59 L260.226 1203.59 L260.226 1177.22 L251.916 1178.89 L251.916 1174.63 L260.18 1172.96 L264.856 1172.96 L264.856 1203.59 L272.495 1203.59 L272.495 1207.52 L252.587 1207.52 L252.587 1203.59 Z" fill="#000000" fill-rule="nonzero" fill-opacity="1" /><path clip-path="url(#clip740)" d="M291.939 1176.04 Q288.328 1176.04 286.499 1179.61 Q284.694 1183.15 284.694 1190.28 Q284.694 1197.39 286.499 1200.95 Q288.328 1204.49 291.939 1204.49 Q295.573 1204.49 297.379 1200.95 Q299.207 1197.39 299.207 1190.28 Q299.207 1183.15 297.379 1179.61 Q295.573 1176.04 291.939 1176.04 M291.939 1172.34 Q297.749 1172.34 300.805 1176.95 Q303.883 1181.53 303.883 1190.28 Q303.883 1199.01 300.805 1203.61 Q297.749 1208.2 291.939 1208.2 Q286.129 1208.2 283.05 1203.61 Q279.994 1199.01 279.994 1190.28 Q279.994 1181.53 283.05 1176.95 Q286.129 1172.34 291.939 1172.34 Z" fill="#000000" fill-rule="nonzero" fill-opacity="1" /><path clip-path="url(#clip740)" d="M322.101 1176.04 Q318.49 1176.04 316.661 1179.61 Q314.855 1183.15 314.855 1190.28 Q314.855 1197.39 316.661 1200.95 Q318.49 1204.49 322.101 1204.49 Q325.735 1204.49 327.541 1200.95 Q329.369 1197.39 329.369 1190.28 Q329.369 1183.15 327.541 1179.61 Q325.735 1176.04 322.101 1176.04 M322.101 1172.34 Q327.911 1172.34 330.966 1176.95 Q334.045 1181.53 334.045 1190.28 Q334.045 1199.01 330.966 1203.61 Q327.911 1208.2 322.101 1208.2 Q316.291 1208.2 313.212 1203.61 Q310.156 1199.01 310.156 1190.28 Q310.156 1181.53 313.212 1176.95 Q316.291 1172.34 322.101 1172.34 Z" fill="#000000" fill-rule="nonzero" fill-opacity="1" /><path clip-path="url(#clip740)" d="M255.805 973.683 L272.124 973.683 L272.124 977.618 L250.18 977.618 L250.18 973.683 Q252.842 970.929 257.425 966.299 Q262.032 961.646 263.212 960.304 Q265.458 957.781 266.337 956.044 Q267.24 954.285 267.24 952.595 Q267.24 949.841 265.296 948.105 Q263.374 946.369 260.272 946.369 Q258.073 946.369 255.62 947.132 Q253.189 947.896 250.411 949.447 L250.411 944.725 Q253.235 943.591 255.689 943.012 Q258.143 942.433 260.18 942.433 Q265.55 942.433 268.745 945.119 Q271.939 947.804 271.939 952.295 Q271.939 954.424 271.129 956.345 Q270.342 958.244 268.235 960.836 Q267.657 961.507 264.555 964.725 Q261.453 967.919 255.805 973.683 Z" fill="#000000" fill-rule="nonzero" fill-opacity="1" /><path clip-path="url(#clip740)" d="M291.939 946.137 Q288.328 946.137 286.499 949.702 Q284.694 953.244 284.694 960.373 Q284.694 967.48 286.499 971.044 Q288.328 974.586 291.939 974.586 Q295.573 974.586 297.379 971.044 Q299.207 967.48 299.207 960.373 Q299.207 953.244 297.379 949.702 Q295.573 946.137 291.939 946.137 M291.939 942.433 Q297.749 942.433 300.805 947.04 Q303.883 951.623 303.883 960.373 Q303.883 969.1 300.805 973.706 Q297.749 978.29 291.939 978.29 Q286.129 978.29 283.05 973.706 Q279.994 969.1 279.994 960.373 Q279.994 951.623 283.05 947.04 Q286.129 942.433 291.939 942.433 Z" fill="#000000" fill-rule="nonzero" fill-opacity="1" /><path clip-path="url(#clip740)" d="M322.101 946.137 Q318.49 946.137 316.661 949.702 Q314.855 953.244 314.855 960.373 Q314.855 967.48 316.661 971.044 Q318.49 974.586 322.101 974.586 Q325.735 974.586 327.541 971.044 Q329.369 967.48 329.369 960.373 Q329.369 953.244 327.541 949.702 Q325.735 946.137 322.101 946.137 M322.101 942.433 Q327.911 942.433 330.966 947.04 Q334.045 951.623 334.045 960.373 Q334.045 969.1 330.966 973.706 Q327.911 978.29 322.101 978.29 Q316.291 978.29 313.212 973.706 Q310.156 969.1 310.156 960.373 Q310.156 951.623 313.212 947.04 Q316.291 942.433 322.101 942.433 Z" fill="#000000" fill-rule="nonzero" fill-opacity="1" /><path clip-path="url(#clip740)" d="M265.944 729.078 Q269.3 729.796 271.175 732.064 Q273.073 734.333 273.073 737.666 Q273.073 742.782 269.555 745.583 Q266.036 748.384 259.555 748.384 Q257.379 748.384 255.064 747.944 Q252.772 747.527 250.319 746.671 L250.319 742.157 Q252.263 743.291 254.578 743.87 Q256.893 744.449 259.416 744.449 Q263.814 744.449 266.106 742.713 Q268.42 740.976 268.42 737.666 Q268.42 734.611 266.268 732.898 Q264.138 731.162 260.319 731.162 L256.291 731.162 L256.291 727.319 L260.504 727.319 Q263.953 727.319 265.782 725.953 Q267.61 724.564 267.61 721.972 Q267.61 719.31 265.712 717.898 Q263.837 716.463 260.319 716.463 Q258.397 716.463 256.198 716.879 Q253.999 717.296 251.36 718.176 L251.36 714.009 Q254.022 713.268 256.337 712.898 Q258.675 712.528 260.735 712.528 Q266.059 712.528 269.161 714.958 Q272.263 717.365 272.263 721.486 Q272.263 724.356 270.62 726.347 Q268.976 728.314 265.944 729.078 Z" fill="#000000" fill-rule="nonzero" fill-opacity="1" /><path clip-path="url(#clip740)" d="M291.939 716.231 Q288.328 716.231 286.499 719.796 Q284.694 723.338 284.694 730.467 Q284.694 737.574 286.499 741.138 Q288.328 744.68 291.939 744.68 Q295.573 744.68 297.379 741.138 Q299.207 737.574 299.207 730.467 Q299.207 723.338 297.379 719.796 Q295.573 716.231 291.939 716.231 M291.939 712.528 Q297.749 712.528 300.805 717.134 Q303.883 721.717 303.883 730.467 Q303.883 739.194 300.805 743.8 Q297.749 748.384 291.939 748.384 Q286.129 748.384 283.05 743.8 Q279.994 739.194 279.994 730.467 Q279.994 721.717 283.05 717.134 Q286.129 712.528 291.939 712.528 Z" fill="#000000" fill-rule="nonzero" fill-opacity="1" /><path clip-path="url(#clip740)" d="M322.101 716.231 Q318.49 716.231 316.661 719.796 Q314.855 723.338 314.855 730.467 Q314.855 737.574 316.661 741.138 Q318.49 744.68 322.101 744.68 Q325.735 744.68 327.541 741.138 Q329.369 737.574 329.369 730.467 Q329.369 723.338 327.541 719.796 Q325.735 716.231 322.101 716.231 M322.101 712.528 Q327.911 712.528 330.966 717.134 Q334.045 721.717 334.045 730.467 Q334.045 739.194 330.966 743.8 Q327.911 748.384 322.101 748.384 Q316.291 748.384 313.212 743.8 Q310.156 739.194 310.156 730.467 Q310.156 721.717 313.212 717.134 Q316.291 712.528 322.101 712.528 Z" fill="#000000" fill-rule="nonzero" fill-opacity="1" /><path clip-path="url(#clip740)" d="M264.624 487.321 L252.819 505.77 L264.624 505.77 L264.624 487.321 M263.397 483.247 L269.277 483.247 L269.277 505.77 L274.207 505.77 L274.207 509.658 L269.277 509.658 L269.277 517.807 L264.624 517.807 L264.624 509.658 L249.022 509.658 L249.022 505.145 L263.397 483.247 Z" fill="#000000" fill-rule="nonzero" fill-opacity="1" /><path clip-path="url(#clip740)" d="M291.939 486.325 Q288.328 486.325 286.499 489.89 Q284.694 493.432 284.694 500.561 Q284.694 507.668 286.499 511.233 Q288.328 514.774 291.939 514.774 Q295.573 514.774 297.379 511.233 Q299.207 507.668 299.207 500.561 Q299.207 493.432 297.379 489.89 Q295.573 486.325 291.939 486.325 M291.939 482.622 Q297.749 482.622 300.805 487.228 Q303.883 491.811 303.883 500.561 Q303.883 509.288 300.805 513.895 Q297.749 518.478 291.939 518.478 Q286.129 518.478 283.05 513.895 Q279.994 509.288 279.994 500.561 Q279.994 491.811 283.05 487.228 Q286.129 482.622 291.939 482.622 Z" fill="#000000" fill-rule="nonzero" fill-opacity="1" /><path clip-path="url(#clip740)" d="M322.101 486.325 Q318.49 486.325 316.661 489.89 Q314.855 493.432 314.855 500.561 Q314.855 507.668 316.661 511.233 Q318.49 514.774 322.101 514.774 Q325.735 514.774 327.541 511.233 Q329.369 507.668 329.369 500.561 Q329.369 493.432 327.541 489.89 Q325.735 486.325 322.101 486.325 M322.101 482.622 Q327.911 482.622 330.966 487.228 Q334.045 491.811 334.045 500.561 Q334.045 509.288 330.966 513.895 Q327.911 518.478 322.101 518.478 Q316.291 518.478 313.212 513.895 Q310.156 509.288 310.156 500.561 Q310.156 491.811 313.212 487.228 Q316.291 482.622 322.101 482.622 Z" fill="#000000" fill-rule="nonzero" fill-opacity="1" /><path clip-path="url(#clip740)" d="M251.823 253.341 L270.18 253.341 L270.18 257.276 L256.106 257.276 L256.106 265.748 Q257.124 265.401 258.143 265.239 Q259.161 265.054 260.18 265.054 Q265.967 265.054 269.346 268.225 Q272.726 271.396 272.726 276.813 Q272.726 282.391 269.254 285.493 Q265.782 288.572 259.462 288.572 Q257.286 288.572 255.018 288.202 Q252.772 287.831 250.365 287.09 L250.365 282.391 Q252.448 283.526 254.671 284.081 Q256.893 284.637 259.37 284.637 Q263.374 284.637 265.712 282.53 Q268.05 280.424 268.05 276.813 Q268.05 273.202 265.712 271.095 Q263.374 268.989 259.37 268.989 Q257.495 268.989 255.62 269.405 Q253.768 269.822 251.823 270.702 L251.823 253.341 Z" fill="#000000" fill-rule="nonzero" fill-opacity="1" /><path clip-path="url(#clip740)" d="M291.939 256.419 Q288.328 256.419 286.499 259.984 Q284.694 263.526 284.694 270.655 Q284.694 277.762 286.499 281.327 Q288.328 284.868 291.939 284.868 Q295.573 284.868 297.379 281.327 Q299.207 277.762 299.207 270.655 Q299.207 263.526 297.379 259.984 Q295.573 256.419 291.939 256.419 M291.939 252.716 Q297.749 252.716 300.805 257.322 Q303.883 261.905 303.883 270.655 Q303.883 279.382 300.805 283.989 Q297.749 288.572 291.939 288.572 Q286.129 288.572 283.05 283.989 Q279.994 279.382 279.994 270.655 Q279.994 261.905 283.05 257.322 Q286.129 252.716 291.939 252.716 Z" fill="#000000" fill-rule="nonzero" fill-opacity="1" /><path clip-path="url(#clip740)" d="M322.101 256.419 Q318.49 256.419 316.661 259.984 Q314.855 263.526 314.855 270.655 Q314.855 277.762 316.661 281.327 Q318.49 284.868 322.101 284.868 Q325.735 284.868 327.541 281.327 Q329.369 277.762 329.369 270.655 Q329.369 263.526 327.541 259.984 Q325.735 256.419 322.101 256.419 M322.101 252.716 Q327.911 252.716 330.966 257.322 Q334.045 261.905 334.045 270.655 Q334.045 279.382 330.966 283.989 Q327.911 288.572 322.101 288.572 Q316.291 288.572 313.212 283.989 Q310.156 279.382 310.156 270.655 Q310.156 261.905 313.212 257.322 Q316.291 252.716 322.101 252.716 Z" fill="#000000" fill-rule="nonzero" fill-opacity="1" /><path clip-path="url(#clip740)" d="M142.907 1176.18 L149.686 1176.18 Q146.662 1179.43 145.167 1183.12 Q143.671 1186.78 143.671 1190.92 Q143.671 1199.07 148.668 1203.39 Q153.633 1207.72 163.054 1207.72 Q172.444 1207.72 177.441 1203.39 Q182.406 1199.07 182.406 1190.92 Q182.406 1186.78 180.91 1183.12 Q179.414 1179.43 176.39 1176.18 L183.106 1176.18 Q185.398 1179.55 186.544 1183.34 Q187.689 1187.1 187.689 1191.3 Q187.689 1202.09 181.101 1208.3 Q174.481 1214.5 163.054 1214.5 Q151.596 1214.5 145.007 1208.3 Q138.387 1202.09 138.387 1191.3 Q138.387 1187.03 139.533 1183.28 Q140.647 1179.49 142.907 1176.18 Z" fill="#000000" fill-rule="nonzero" fill-opacity="1" /><path clip-path="url(#clip740)" d="M155.224 1152.69 Q155.224 1157.4 158.916 1160.14 Q162.577 1162.88 168.974 1162.88 Q175.372 1162.88 179.064 1160.17 Q182.724 1157.43 182.724 1152.69 Q182.724 1148.01 179.032 1145.28 Q175.34 1142.54 168.974 1142.54 Q162.64 1142.54 158.948 1145.28 Q155.224 1148.01 155.224 1152.69 M150.259 1152.69 Q150.259 1145.05 155.224 1140.69 Q160.19 1136.33 168.974 1136.33 Q177.727 1136.33 182.724 1140.69 Q187.689 1145.05 187.689 1152.69 Q187.689 1160.36 182.724 1164.72 Q177.727 1169.05 168.974 1169.05 Q160.19 1169.05 155.224 1164.72 Q150.259 1160.36 150.259 1152.69 Z" fill="#000000" fill-rule="nonzero" fill-opacity="1" /><path clip-path="url(#clip740)" d="M172.698 1127.23 L151.118 1127.23 L151.118 1121.37 L172.475 1121.37 Q177.536 1121.37 180.082 1119.4 Q182.597 1117.43 182.597 1113.48 Q182.597 1108.74 179.573 1106 Q176.549 1103.23 171.33 1103.23 L151.118 1103.23 L151.118 1097.37 L186.766 1097.37 L186.766 1103.23 L181.292 1103.23 Q184.538 1105.36 186.13 1108.19 Q187.689 1111 187.689 1114.72 Q187.689 1120.86 183.87 1124.05 Q180.051 1127.23 172.698 1127.23 M150.259 1112.49 L150.259 1112.49 Z" fill="#000000" fill-rule="nonzero" fill-opacity="1" /><path clip-path="url(#clip740)" d="M165.25 1055.68 L186.766 1055.68 L186.766 1061.53 L165.441 1061.53 Q160.381 1061.53 157.866 1063.51 Q155.352 1065.48 155.352 1069.43 Q155.352 1074.17 158.375 1076.91 Q161.399 1079.64 166.619 1079.64 L186.766 1079.64 L186.766 1085.53 L151.118 1085.53 L151.118 1079.64 L156.657 1079.64 Q153.442 1077.54 151.851 1074.71 Q150.259 1071.85 150.259 1068.12 Q150.259 1061.98 154.079 1058.83 Q157.866 1055.68 165.25 1055.68 Z" fill="#000000" fill-rule="nonzero" fill-opacity="1" /><path clip-path="url(#clip740)" d="M140.997 1038.2 L151.118 1038.2 L151.118 1026.14 L155.67 1026.14 L155.67 1038.2 L175.022 1038.2 Q179.382 1038.2 180.624 1037.03 Q181.865 1035.82 181.865 1032.16 L181.865 1026.14 L186.766 1026.14 L186.766 1032.16 Q186.766 1038.94 184.252 1041.51 Q181.706 1044.09 175.022 1044.09 L155.67 1044.09 L155.67 1048.39 L151.118 1048.39 L151.118 1044.09 L140.997 1044.09 L140.997 1038.2 Z" fill="#000000" fill-rule="nonzero" fill-opacity="1" /><path clip-path="url(#clip740)" d="M152.169 995.713 L157.707 995.713 Q156.434 998.195 155.797 1000.87 Q155.161 1003.54 155.161 1006.41 Q155.161 1010.77 156.498 1012.96 Q157.834 1015.13 160.508 1015.13 Q162.545 1015.13 163.723 1013.57 Q164.868 1012.01 165.919 1007.3 L166.364 1005.29 Q167.701 999.055 170.152 996.445 Q172.571 993.803 176.931 993.803 Q181.897 993.803 184.793 997.75 Q187.689 1001.66 187.689 1008.54 Q187.689 1011.4 187.117 1014.52 Q186.575 1017.61 185.461 1021.05 L179.414 1021.05 Q181.101 1017.8 181.96 1014.65 Q182.788 1011.5 182.788 1008.41 Q182.788 1004.27 181.387 1002.05 Q179.955 999.819 177.377 999.819 Q174.99 999.819 173.717 1001.44 Q172.444 1003.03 171.266 1008.48 L170.789 1010.51 Q169.643 1015.96 167.287 1018.37 Q164.9 1020.79 160.763 1020.79 Q155.734 1020.79 152.996 1017.23 Q150.259 1013.66 150.259 1007.11 Q150.259 1003.86 150.737 1001 Q151.214 998.132 152.169 995.713 Z" fill="#000000" fill-rule="nonzero" fill-opacity="1" /><path clip-path="url(#clip740)" d="M137.305 949.689 Q144.625 953.954 151.787 956.023 Q158.948 958.091 166.301 958.091 Q173.653 958.091 180.878 956.023 Q188.071 953.922 195.36 949.689 L195.36 954.781 Q187.88 959.556 180.655 961.943 Q173.43 964.298 166.301 964.298 Q159.203 964.298 152.01 961.943 Q144.816 959.587 137.305 954.781 L137.305 949.689 Z" fill="#000000" fill-rule="nonzero" fill-opacity="1" /><path clip-path="url(#clip740)" d="M181.356 936.384 L181.356 925.881 L145.103 925.881 L147.395 937.307 L141.538 937.307 L139.246 925.945 L139.246 919.515 L181.356 919.515 L181.356 909.012 L186.766 909.012 L186.766 936.384 L181.356 936.384 Z" fill="#000000" fill-rule="nonzero" fill-opacity="1" /><path clip-path="url(#clip740)" d="M143.48 882.276 Q143.48 887.241 148.381 889.756 Q153.251 892.238 163.054 892.238 Q172.826 892.238 177.727 889.756 Q182.597 887.241 182.597 882.276 Q182.597 877.279 177.727 874.796 Q172.826 872.282 163.054 872.282 Q153.251 872.282 148.381 874.796 Q143.48 877.279 143.48 882.276 M138.387 882.276 Q138.387 874.287 144.721 870.086 Q151.023 865.852 163.054 865.852 Q175.054 865.852 181.387 870.086 Q187.689 874.287 187.689 882.276 Q187.689 890.265 181.387 894.498 Q175.054 898.699 163.054 898.699 Q151.023 898.699 144.721 894.498 Q138.387 890.265 138.387 882.276 Z" fill="#000000" fill-rule="nonzero" fill-opacity="1" /><path clip-path="url(#clip740)" d="M143.48 840.803 Q143.48 845.769 148.381 848.283 Q153.251 850.766 163.054 850.766 Q172.826 850.766 177.727 848.283 Q182.597 845.769 182.597 840.803 Q182.597 835.806 177.727 833.324 Q172.826 830.809 163.054 830.809 Q153.251 830.809 148.381 833.324 Q143.48 835.806 143.48 840.803 M138.387 840.803 Q138.387 832.814 144.721 828.613 Q151.023 824.38 163.054 824.38 Q175.054 824.38 181.387 828.613 Q187.689 832.814 187.689 840.803 Q187.689 848.792 181.387 853.025 Q175.054 857.227 163.054 857.227 Q151.023 857.227 144.721 853.025 Q138.387 848.792 138.387 840.803 Z" fill="#000000" fill-rule="nonzero" fill-opacity="1" /><path clip-path="url(#clip740)" d="M143.48 799.331 Q143.48 804.296 148.381 806.81 Q153.251 809.293 163.054 809.293 Q172.826 809.293 177.727 806.81 Q182.597 804.296 182.597 799.331 Q182.597 794.334 177.727 791.851 Q172.826 789.337 163.054 789.337 Q153.251 789.337 148.381 791.851 Q143.48 794.334 143.48 799.331 M138.387 799.331 Q138.387 791.342 144.721 787.14 Q151.023 782.907 163.054 782.907 Q175.054 782.907 181.387 787.14 Q187.689 791.342 187.689 799.331 Q187.689 807.32 181.387 811.553 Q175.054 815.754 163.054 815.754 Q151.023 815.754 144.721 811.553 Q138.387 807.32 138.387 799.331 Z" fill="#000000" fill-rule="nonzero" fill-opacity="1" /><path clip-path="url(#clip740)" d="M152.169 728.99 L157.707 728.99 Q156.434 731.472 155.797 734.146 Q155.161 736.819 155.161 739.684 Q155.161 744.045 156.498 746.241 Q157.834 748.405 160.508 748.405 Q162.545 748.405 163.723 746.845 Q164.868 745.286 165.919 740.575 L166.364 738.57 Q167.701 732.332 170.152 729.722 Q172.571 727.08 176.931 727.08 Q181.897 727.08 184.793 731.027 Q187.689 734.942 187.689 741.817 Q187.689 744.681 187.117 747.8 Q186.575 750.888 185.461 754.325 L179.414 754.325 Q181.101 751.079 181.96 747.928 Q182.788 744.777 182.788 741.689 Q182.788 737.552 181.387 735.324 Q179.955 733.096 177.377 733.096 Q174.99 733.096 173.717 734.719 Q172.444 736.31 171.266 741.753 L170.789 743.79 Q169.643 749.233 167.287 751.652 Q164.9 754.071 160.763 754.071 Q155.734 754.071 152.996 750.506 Q150.259 746.941 150.259 740.384 Q150.259 737.138 150.737 734.273 Q151.214 731.409 152.169 728.99 Z" fill="#000000" fill-rule="nonzero" fill-opacity="1" /><path clip-path="url(#clip740)" d="M168.847 701.553 Q168.847 708.651 170.47 711.388 Q172.093 714.126 176.008 714.126 Q179.128 714.126 180.974 712.089 Q182.788 710.02 182.788 706.487 Q182.788 701.617 179.35 698.689 Q175.881 695.729 170.152 695.729 L168.847 695.729 L168.847 701.553 M166.428 689.872 L186.766 689.872 L186.766 695.729 L181.356 695.729 Q184.602 697.734 186.162 700.726 Q187.689 703.718 187.689 708.046 Q187.689 713.521 184.634 716.767 Q181.547 719.982 176.39 719.982 Q170.375 719.982 167.319 715.972 Q164.264 711.93 164.264 703.941 L164.264 695.729 L163.691 695.729 Q159.649 695.729 157.452 698.402 Q155.224 701.044 155.224 705.85 Q155.224 708.906 155.956 711.802 Q156.688 714.699 158.153 717.372 L152.742 717.372 Q151.5 714.158 150.896 711.134 Q150.259 708.11 150.259 705.246 Q150.259 697.511 154.27 693.692 Q158.28 689.872 166.428 689.872 Z" fill="#000000" fill-rule="nonzero" fill-opacity="1" /><path clip-path="url(#clip740)" d="M157.962 650.055 Q154.015 647.859 152.137 644.803 Q150.259 641.748 150.259 637.61 Q150.259 632.04 154.174 629.016 Q158.057 625.993 165.25 625.993 L186.766 625.993 L186.766 631.881 L165.441 631.881 Q160.317 631.881 157.834 633.695 Q155.352 635.509 155.352 639.233 Q155.352 643.785 158.375 646.426 Q161.399 649.068 166.619 649.068 L186.766 649.068 L186.766 654.956 L165.441 654.956 Q160.285 654.956 157.834 656.771 Q155.352 658.585 155.352 662.373 Q155.352 666.86 158.407 669.502 Q161.431 672.144 166.619 672.144 L186.766 672.144 L186.766 678.032 L151.118 678.032 L151.118 672.144 L156.657 672.144 Q153.378 670.139 151.819 667.338 Q150.259 664.537 150.259 660.686 Q150.259 656.803 152.232 654.097 Q154.206 651.36 157.962 650.055 Z" fill="#000000" fill-rule="nonzero" fill-opacity="1" /><path clip-path="url(#clip740)" d="M181.419 608.646 L200.325 608.646 L200.325 614.534 L151.118 614.534 L151.118 608.646 L156.529 608.646 Q153.346 606.8 151.819 603.999 Q150.259 601.166 150.259 597.251 Q150.259 590.758 155.415 586.716 Q160.572 582.642 168.974 582.642 Q177.377 582.642 182.533 586.716 Q187.689 590.758 187.689 597.251 Q187.689 601.166 186.162 603.999 Q184.602 606.8 181.419 608.646 M168.974 588.721 Q162.513 588.721 158.853 591.395 Q155.161 594.037 155.161 598.684 Q155.161 603.331 158.853 606.004 Q162.513 608.646 168.974 608.646 Q175.435 608.646 179.128 606.004 Q182.788 603.331 182.788 598.684 Q182.788 594.037 179.128 591.395 Q175.435 588.721 168.974 588.721 Z" fill="#000000" fill-rule="nonzero" fill-opacity="1" /><path clip-path="url(#clip740)" d="M137.241 572.934 L137.241 567.078 L186.766 567.078 L186.766 572.934 L137.241 572.934 Z" fill="#000000" fill-rule="nonzero" fill-opacity="1" /><path clip-path="url(#clip740)" d="M167.478 524.332 L170.343 524.332 L170.343 551.259 Q176.39 550.877 179.573 547.631 Q182.724 544.352 182.724 538.528 Q182.724 535.154 181.897 532.003 Q181.069 528.82 179.414 525.701 L184.952 525.701 Q186.289 528.852 186.989 532.162 Q187.689 535.472 187.689 538.878 Q187.689 547.408 182.724 552.405 Q177.759 557.37 169.293 557.37 Q160.54 557.37 155.415 552.66 Q150.259 547.917 150.259 539.896 Q150.259 532.703 154.906 528.534 Q159.521 524.332 167.478 524.332 M165.76 530.189 Q160.954 530.252 158.089 532.894 Q155.224 535.504 155.224 539.833 Q155.224 544.734 157.993 547.694 Q160.763 550.623 165.791 551.068 L165.76 530.189 Z" fill="#000000" fill-rule="nonzero" fill-opacity="1" /><path clip-path="url(#clip740)" d="M152.169 491.994 L157.707 491.994 Q156.434 494.477 155.797 497.151 Q155.161 499.824 155.161 502.689 Q155.161 507.049 156.498 509.245 Q157.834 511.41 160.508 511.41 Q162.545 511.41 163.723 509.85 Q164.868 508.291 165.919 503.58 L166.364 501.575 Q167.701 495.336 170.152 492.726 Q172.571 490.085 176.931 490.085 Q181.897 490.085 184.793 494.031 Q187.689 497.946 187.689 504.821 Q187.689 507.686 187.117 510.805 Q186.575 513.892 185.461 517.33 L179.414 517.33 Q181.101 514.083 181.96 510.932 Q182.788 507.781 182.788 504.694 Q182.788 500.556 181.387 498.328 Q179.955 496.1 177.377 496.1 Q174.99 496.1 173.717 497.724 Q172.444 499.315 171.266 504.758 L170.789 506.795 Q169.643 512.237 167.287 514.656 Q164.9 517.075 160.763 517.075 Q155.734 517.075 152.996 513.51 Q150.259 509.946 150.259 503.389 Q150.259 500.142 150.737 497.278 Q151.214 494.413 152.169 491.994 Z" fill="#000000" fill-rule="nonzero" fill-opacity="1" /><path clip-path="url(#clip740)" d="M137.305 481.682 L137.305 476.589 Q144.816 471.815 152.01 469.46 Q159.203 467.073 166.301 467.073 Q173.43 467.073 180.655 469.46 Q187.88 471.815 195.36 476.589 L195.36 481.682 Q188.071 477.449 180.878 475.38 Q173.653 473.279 166.301 473.279 Q158.948 473.279 151.787 475.38 Q144.625 477.449 137.305 481.682 Z" fill="#000000" fill-rule="nonzero" fill-opacity="1" /><path clip-path="url(#clip740)" d="M915.682 12.096 L927.875 12.096 L943.309 53.2532 L958.824 12.096 L971.017 12.096 L971.017 72.576 L963.037 72.576 L963.037 19.4686 L947.441 60.9499 L939.218 60.9499 L923.622 19.4686 L923.622 72.576 L915.682 72.576 L915.682 12.096 Z" fill="#000000" fill-rule="nonzero" fill-opacity="1" /><path clip-path="url(#clip740)" d="M987.262 12.096 L995.444 12.096 L995.444 72.576 L987.262 72.576 L987.262 12.096 Z" fill="#000000" fill-rule="nonzero" fill-opacity="1" /><path clip-path="url(#clip740)" d="M1011.73 12.096 L1023.92 12.096 L1039.36 53.2532 L1054.87 12.096 L1067.06 12.096 L1067.06 72.576 L1059.08 72.576 L1059.08 19.4686 L1043.49 60.9499 L1035.26 60.9499 L1019.67 19.4686 L1019.67 72.576 L1011.73 72.576 L1011.73 12.096 Z" fill="#000000" fill-rule="nonzero" fill-opacity="1" /><path clip-path="url(#clip740)" d="M1083.31 12.096 L1091.49 12.096 L1091.49 72.576 L1083.31 72.576 L1083.31 12.096 Z" fill="#000000" fill-rule="nonzero" fill-opacity="1" /><path clip-path="url(#clip740)" d="M1132.32 17.6457 Q1123.41 17.6457 1118.15 24.2892 Q1112.92 30.9327 1112.92 42.3968 Q1112.92 53.8203 1118.15 60.4638 Q1123.41 67.1073 1132.32 67.1073 Q1141.24 67.1073 1146.42 60.4638 Q1151.65 53.8203 1151.65 42.3968 Q1151.65 30.9327 1146.42 24.2892 Q1141.24 17.6457 1132.32 17.6457 M1143.79 71.4823 L1154.56 83.2704 L1144.68 83.2704 L1135.73 73.5887 Q1134.39 73.6697 1133.66 73.7103 Q1132.97 73.7508 1132.32 73.7508 Q1119.56 73.7508 1111.91 65.2439 Q1104.29 56.6965 1104.29 42.3968 Q1104.29 28.0566 1111.91 19.5497 Q1119.56 11.0023 1132.32 11.0023 Q1145.04 11.0023 1152.66 19.5497 Q1160.28 28.0566 1160.28 42.3968 Q1160.28 52.9291 1156.02 60.4233 Q1151.81 67.9175 1143.79 71.4823 Z" fill="#000000" fill-rule="nonzero" fill-opacity="1" /><path clip-path="url(#clip740)" d="M1171.29 46.5287 L1193.13 46.5287 L1193.13 53.1722 L1171.29 53.1722 L1171.29 46.5287 Z" fill="#000000" fill-rule="nonzero" fill-opacity="1" /><path clip-path="url(#clip740)" d="M1241.58 14.0809 L1241.58 22.0612 Q1236.92 19.8332 1232.79 18.7395 Q1228.65 17.6457 1224.81 17.6457 Q1218.12 17.6457 1214.48 20.2383 Q1210.87 22.8309 1210.87 27.611 Q1210.87 31.6214 1213.26 33.6873 Q1215.69 35.7128 1222.42 36.9686 L1227.36 37.9813 Q1236.51 39.7232 1240.85 44.1387 Q1245.22 48.5136 1245.22 55.8863 Q1245.22 64.6767 1239.31 69.2137 Q1233.44 73.7508 1222.05 73.7508 Q1217.76 73.7508 1212.9 72.7785 Q1208.08 71.8063 1202.89 69.9024 L1202.89 61.4765 Q1207.87 64.2716 1212.65 65.6895 Q1217.43 67.1073 1222.05 67.1073 Q1229.06 67.1073 1232.87 64.3527 Q1236.68 61.598 1236.68 56.4939 Q1236.68 52.0379 1233.92 49.5264 Q1231.21 47.0148 1224.97 45.759 L1219.99 44.7868 Q1210.83 42.9639 1206.74 39.075 Q1202.65 35.1862 1202.65 28.2591 Q1202.65 20.2383 1208.28 15.6203 Q1213.95 11.0023 1223.87 11.0023 Q1228.13 11.0023 1232.54 11.7719 Q1236.96 12.5416 1241.58 14.0809 Z" fill="#000000" fill-rule="nonzero" fill-opacity="1" /><path clip-path="url(#clip740)" d="M1265.03 14.324 L1265.03 27.2059 L1280.38 27.2059 L1280.38 32.9987 L1265.03 32.9987 L1265.03 57.6282 Q1265.03 63.1779 1266.53 64.7578 Q1268.07 66.3376 1272.73 66.3376 L1280.38 66.3376 L1280.38 72.576 L1272.73 72.576 Q1264.1 72.576 1260.82 69.3758 Q1257.54 66.1351 1257.54 57.6282 L1257.54 32.9987 L1252.07 32.9987 L1252.07 27.2059 L1257.54 27.2059 L1257.54 14.324 L1265.03 14.324 Z" fill="#000000" fill-rule="nonzero" fill-opacity="1" /><path clip-path="url(#clip740)" d="M1310.81 49.7694 Q1301.77 49.7694 1298.29 51.8354 Q1294.81 53.9013 1294.81 58.8839 Q1294.81 62.8538 1297.4 65.2034 Q1300.03 67.5124 1304.53 67.5124 Q1310.73 67.5124 1314.45 63.1374 Q1318.22 58.7219 1318.22 51.4303 L1318.22 49.7694 L1310.81 49.7694 M1325.67 46.6907 L1325.67 72.576 L1318.22 72.576 L1318.22 65.6895 Q1315.67 69.8214 1311.86 71.8063 Q1308.05 73.7508 1302.54 73.7508 Q1295.58 73.7508 1291.44 69.8619 Q1287.35 65.9325 1287.35 59.3701 Q1287.35 51.7138 1292.46 47.825 Q1297.6 43.9361 1307.77 43.9361 L1318.22 43.9361 L1318.22 43.2069 Q1318.22 38.0623 1314.82 35.2672 Q1311.46 32.4315 1305.34 32.4315 Q1301.45 32.4315 1297.76 33.3632 Q1294.08 34.295 1290.67 36.1584 L1290.67 29.2718 Q1294.77 27.692 1298.61 26.9223 Q1302.46 26.1121 1306.11 26.1121 Q1315.95 26.1121 1320.81 31.2163 Q1325.67 36.3204 1325.67 46.6907 Z" fill="#000000" fill-rule="nonzero" fill-opacity="1" /><path clip-path="url(#clip740)" d="M1348.4 14.324 L1348.4 27.2059 L1363.75 27.2059 L1363.75 32.9987 L1348.4 32.9987 L1348.4 57.6282 Q1348.4 63.1779 1349.9 64.7578 Q1351.44 66.3376 1356.1 66.3376 L1363.75 66.3376 L1363.75 72.576 L1356.1 72.576 Q1347.47 72.576 1344.19 69.3758 Q1340.91 66.1351 1340.91 57.6282 L1340.91 32.9987 L1335.44 32.9987 L1335.44 27.2059 L1340.91 27.2059 L1340.91 14.324 L1348.4 14.324 Z" fill="#000000" fill-rule="nonzero" fill-opacity="1" /><path clip-path="url(#clip740)" d="M1412.36 48.0275 L1412.36 51.6733 L1378.09 51.6733 Q1378.58 59.3701 1382.71 63.421 Q1386.88 67.4314 1394.3 67.4314 Q1398.59 67.4314 1402.6 66.3781 Q1406.65 65.3249 1410.62 63.2184 L1410.62 70.267 Q1406.61 71.9684 1402.4 72.8596 Q1398.19 73.7508 1393.85 73.7508 Q1382.99 73.7508 1376.63 67.4314 Q1370.32 61.1119 1370.32 50.3365 Q1370.32 39.1965 1376.31 32.6746 Q1382.35 26.1121 1392.55 26.1121 Q1401.71 26.1121 1407.02 32.0264 Q1412.36 37.9003 1412.36 48.0275 M1404.91 45.84 Q1404.83 39.7232 1401.47 36.0774 Q1398.14 32.4315 1392.64 32.4315 Q1386.4 32.4315 1382.63 35.9558 Q1378.9 39.4801 1378.34 45.8805 L1404.91 45.84 Z" fill="#000000" fill-rule="nonzero" fill-opacity="1" /><path clip-path="url(#clip740)" d="M1440.52 72.576 L1417.43 12.096 L1425.97 12.096 L1445.14 63.0159 L1464.34 12.096 L1472.84 12.096 L1449.79 72.576 L1440.52 72.576 Z" fill="#000000" fill-rule="nonzero" fill-opacity="1" /><path clip-path="url(#clip740)" d="M1513.72 48.0275 L1513.72 51.6733 L1479.45 51.6733 Q1479.93 59.3701 1484.06 63.421 Q1488.24 67.4314 1495.65 67.4314 Q1499.94 67.4314 1503.95 66.3781 Q1508.01 65.3249 1511.98 63.2184 L1511.98 70.267 Q1507.96 71.9684 1503.75 72.8596 Q1499.54 73.7508 1495.2 73.7508 Q1484.35 73.7508 1477.99 67.4314 Q1471.67 61.1119 1471.67 50.3365 Q1471.67 39.1965 1477.66 32.6746 Q1483.7 26.1121 1493.91 26.1121 Q1503.06 26.1121 1508.37 32.0264 Q1513.72 37.9003 1513.72 48.0275 M1506.26 45.84 Q1506.18 39.7232 1502.82 36.0774 Q1499.5 32.4315 1493.99 32.4315 Q1487.75 32.4315 1483.98 35.9558 Q1480.26 39.4801 1479.69 45.8805 L1506.26 45.84 Z" fill="#000000" fill-rule="nonzero" fill-opacity="1" /><path clip-path="url(#clip740)" d="M1558.6 28.9478 L1558.6 35.9153 Q1555.44 34.1734 1552.24 33.3227 Q1549.08 32.4315 1545.84 32.4315 Q1538.59 32.4315 1534.58 37.0496 Q1530.57 41.6271 1530.57 49.9314 Q1530.57 58.2358 1534.58 62.8538 Q1538.59 67.4314 1545.84 67.4314 Q1549.08 67.4314 1552.24 66.5807 Q1555.44 65.6895 1558.6 63.9476 L1558.6 70.8341 Q1555.48 72.2924 1552.12 73.0216 Q1548.8 73.7508 1545.03 73.7508 Q1534.78 73.7508 1528.75 67.3098 Q1522.71 60.8689 1522.71 49.9314 Q1522.71 38.832 1528.79 32.472 Q1534.9 26.1121 1545.52 26.1121 Q1548.96 26.1121 1552.24 26.8413 Q1555.52 27.5299 1558.6 28.9478 Z" fill="#000000" fill-rule="nonzero" fill-opacity="1" /><path clip-path="url(#clip740)" d="M1578.94 14.324 L1578.94 27.2059 L1594.29 27.2059 L1594.29 32.9987 L1578.94 32.9987 L1578.94 57.6282 Q1578.94 63.1779 1580.44 64.7578 Q1581.97 66.3376 1586.63 66.3376 L1594.29 66.3376 L1594.29 72.576 L1586.63 72.576 Q1578 72.576 1574.72 69.3758 Q1571.44 66.1351 1571.44 57.6282 L1571.44 32.9987 L1565.97 32.9987 L1565.97 27.2059 L1571.44 27.2059 L1571.44 14.324 L1578.94 14.324 Z" fill="#000000" fill-rule="nonzero" fill-opacity="1" /><path clip-path="url(#clip740)" d="M1621.67 32.4315 Q1615.68 32.4315 1612.19 37.1306 Q1608.71 41.7891 1608.71 49.9314 Q1608.71 58.0738 1612.15 62.7728 Q1615.64 67.4314 1621.67 67.4314 Q1627.63 67.4314 1631.11 62.7323 Q1634.6 58.0333 1634.6 49.9314 Q1634.6 41.8701 1631.11 37.1711 Q1627.63 32.4315 1621.67 32.4315 M1621.67 26.1121 Q1631.4 26.1121 1636.95 32.4315 Q1642.5 38.7509 1642.5 49.9314 Q1642.5 61.0714 1636.95 67.4314 Q1631.4 73.7508 1621.67 73.7508 Q1611.91 73.7508 1606.36 67.4314 Q1600.85 61.0714 1600.85 49.9314 Q1600.85 38.7509 1606.36 32.4315 Q1611.91 26.1121 1621.67 26.1121 Z" fill="#000000" fill-rule="nonzero" fill-opacity="1" /><path clip-path="url(#clip740)" d="M1681.14 34.1734 Q1679.89 33.4443 1678.39 33.1202 Q1676.93 32.7556 1675.15 32.7556 Q1668.83 32.7556 1665.42 36.8875 Q1662.06 40.9789 1662.06 48.6757 L1662.06 72.576 L1654.57 72.576 L1654.57 27.2059 L1662.06 27.2059 L1662.06 34.2544 Q1664.41 30.1225 1668.18 28.1376 Q1671.95 26.1121 1677.33 26.1121 Q1678.1 26.1121 1679.03 26.2337 Q1679.97 26.3147 1681.1 26.5172 L1681.14 34.1734 Z" fill="#000000" fill-rule="nonzero" fill-opacity="1" /><path clip-path="url(#clip740)" d="M1733.88 17.4837 Q1727.56 17.4837 1724.36 23.7221 Q1721.2 29.92 1721.2 42.3968 Q1721.2 54.833 1724.36 61.0714 Q1727.56 67.2693 1733.88 67.2693 Q1740.24 67.2693 1743.4 61.0714 Q1746.6 54.833 1746.6 42.3968 Q1746.6 29.92 1743.4 23.7221 Q1740.24 17.4837 1733.88 17.4837 M1733.88 11.0023 Q1744.05 11.0023 1749.4 19.0636 Q1754.79 27.0843 1754.79 42.3968 Q1754.79 57.6687 1749.4 65.73 Q1744.05 73.7508 1733.88 73.7508 Q1723.72 73.7508 1718.33 65.73 Q1712.98 57.6687 1712.98 42.3968 Q1712.98 27.0843 1718.33 19.0636 Q1723.72 11.0023 1733.88 11.0023 Z" fill="#000000" fill-rule="nonzero" fill-opacity="1" /><path clip-path="url(#clip740)" d="M1769.17 62.2867 L1777.71 62.2867 L1777.71 72.576 L1769.17 72.576 L1769.17 62.2867 Z" fill="#000000" fill-rule="nonzero" fill-opacity="1" /><path clip-path="url(#clip740)" d="M1802.59 65.6895 L1831.15 65.6895 L1831.15 72.576 L1792.74 72.576 L1792.74 65.6895 Q1797.4 60.8689 1805.42 52.7671 Q1813.48 44.6248 1815.55 42.2752 Q1819.48 37.8598 1821.02 34.8216 Q1822.6 31.7429 1822.6 28.7857 Q1822.6 23.9651 1819.2 20.927 Q1815.83 17.8888 1810.41 17.8888 Q1806.56 17.8888 1802.26 19.2256 Q1798.01 20.5624 1793.15 23.2765 L1793.15 15.0127 Q1798.09 13.0277 1802.38 12.015 Q1806.68 11.0023 1810.24 11.0023 Q1819.64 11.0023 1825.23 15.7013 Q1830.82 20.4004 1830.82 28.2591 Q1830.82 31.9859 1829.4 35.3482 Q1828.03 38.6699 1824.34 43.2069 Q1823.33 44.3817 1817.9 50.0125 Q1812.47 55.6027 1802.59 65.6895 Z" fill="#000000" fill-rule="nonzero" fill-opacity="1" /><path clip-path="url(#clip740)" d="M1870.8 19.2256 L1850.14 51.5113 L1870.8 51.5113 L1870.8 19.2256 M1868.66 12.096 L1878.95 12.096 L1878.95 51.5113 L1887.58 51.5113 L1887.58 58.3168 L1878.95 58.3168 L1878.95 72.576 L1870.8 72.576 L1870.8 58.3168 L1843.5 58.3168 L1843.5 50.4176 L1868.66 12.096 Z" fill="#000000" fill-rule="nonzero" fill-opacity="1" /><path clip-path="url(#clip740)" d="M1901.11 62.2867 L1909.65 62.2867 L1909.65 72.576 L1901.11 72.576 L1901.11 62.2867 Z" fill="#000000" fill-rule="nonzero" fill-opacity="1" /><path clip-path="url(#clip740)" d="M1934.53 65.6895 L1963.08 65.6895 L1963.08 72.576 L1924.68 72.576 L1924.68 65.6895 Q1929.34 60.8689 1937.36 52.7671 Q1945.42 44.6248 1947.49 42.2752 Q1951.42 37.8598 1952.96 34.8216 Q1954.54 31.7429 1954.54 28.7857 Q1954.54 23.9651 1951.13 20.927 Q1947.77 17.8888 1942.34 17.8888 Q1938.49 17.8888 1934.2 19.2256 Q1929.95 20.5624 1925.09 23.2765 L1925.09 15.0127 Q1930.03 13.0277 1934.32 12.015 Q1938.62 11.0023 1942.18 11.0023 Q1951.58 11.0023 1957.17 15.7013 Q1962.76 20.4004 1962.76 28.2591 Q1962.76 31.9859 1961.34 35.3482 Q1959.96 38.6699 1956.28 43.2069 Q1955.27 44.3817 1949.84 50.0125 Q1944.41 55.6027 1934.53 65.6895 Z" fill="#000000" fill-rule="nonzero" fill-opacity="1" /><path clip-path="url(#clip740)" d="M2028.55 9.54393 L2028.55 15.7418 L2021.42 15.7418 Q2017.41 15.7418 2015.83 17.3622 Q2014.29 18.9825 2014.29 23.1955 L2014.29 27.2059 L2026.56 27.2059 L2026.56 32.9987 L2014.29 32.9987 L2014.29 72.576 L2006.79 72.576 L2006.79 32.9987 L1999.66 32.9987 L1999.66 27.2059 L2006.79 27.2059 L2006.79 24.0462 Q2006.79 16.471 2010.32 13.0277 Q2013.84 9.54393 2021.5 9.54393 L2028.55 9.54393 Z" fill="#000000" fill-rule="nonzero" fill-opacity="1" /><path clip-path="url(#clip740)" d="M2034.78 27.2059 L2042.24 27.2059 L2042.24 72.576 L2034.78 72.576 L2034.78 27.2059 M2034.78 9.54393 L2042.24 9.54393 L2042.24 18.9825 L2034.78 18.9825 L2034.78 9.54393 Z" fill="#000000" fill-rule="nonzero" fill-opacity="1" /><path clip-path="url(#clip740)" d="M2087.69 34.0924 L2087.69 9.54393 L2095.14 9.54393 L2095.14 72.576 L2087.69 72.576 L2087.69 65.7705 Q2085.34 69.8214 2081.73 71.8063 Q2078.17 73.7508 2073.15 73.7508 Q2064.92 73.7508 2059.74 67.1883 Q2054.59 60.6258 2054.59 49.9314 Q2054.59 39.2371 2059.74 32.6746 Q2064.92 26.1121 2073.15 26.1121 Q2078.17 26.1121 2081.73 28.0971 Q2085.34 30.0415 2087.69 34.0924 M2062.29 49.9314 Q2062.29 58.1548 2065.65 62.8538 Q2069.06 67.5124 2074.97 67.5124 Q2080.88 67.5124 2084.29 62.8538 Q2087.69 58.1548 2087.69 49.9314 Q2087.69 41.7081 2084.29 37.0496 Q2080.88 32.3505 2074.97 32.3505 Q2069.06 32.3505 2065.65 37.0496 Q2062.29 41.7081 2062.29 49.9314 Z" fill="#000000" fill-rule="nonzero" fill-opacity="1" /><path clip-path="url(#clip740)" d="M2149.3 48.0275 L2149.3 51.6733 L2115.03 51.6733 Q2115.52 59.3701 2119.65 63.421 Q2123.82 67.4314 2131.24 67.4314 Q2135.53 67.4314 2139.54 66.3781 Q2143.59 65.3249 2147.56 63.2184 L2147.56 70.267 Q2143.55 71.9684 2139.34 72.8596 Q2135.13 73.7508 2130.79 73.7508 Q2119.93 73.7508 2113.57 67.4314 Q2107.26 61.1119 2107.26 50.3365 Q2107.26 39.1965 2113.25 32.6746 Q2119.29 26.1121 2129.5 26.1121 Q2138.65 26.1121 2143.96 32.0264 Q2149.3 37.9003 2149.3 48.0275 M2141.85 45.84 Q2141.77 39.7232 2138.41 36.0774 Q2135.09 32.4315 2129.58 32.4315 Q2123.34 32.4315 2119.57 35.9558 Q2115.84 39.4801 2115.28 45.8805 L2141.85 45.84 Z" fill="#000000" fill-rule="nonzero" fill-opacity="1" /><path clip-path="url(#clip740)" d="M2161.54 9.54393 L2168.99 9.54393 L2168.99 72.576 L2161.54 72.576 L2161.54 9.54393 Z" fill="#000000" fill-rule="nonzero" fill-opacity="1" /><path clip-path="url(#clip740)" d="M2184.59 27.2059 L2192.04 27.2059 L2192.04 72.576 L2184.59 72.576 L2184.59 27.2059 M2184.59 9.54393 L2192.04 9.54393 L2192.04 18.9825 L2184.59 18.9825 L2184.59 9.54393 Z" fill="#000000" fill-rule="nonzero" fill-opacity="1" /><path clip-path="url(#clip740)" d="M2215.01 14.324 L2215.01 27.2059 L2230.36 27.2059 L2230.36 32.9987 L2215.01 32.9987 L2215.01 57.6282 Q2215.01 63.1779 2216.51 64.7578 Q2218.05 66.3376 2222.71 66.3376 L2230.36 66.3376 L2230.36 72.576 L2222.71 72.576 Q2214.08 72.576 2210.8 69.3758 Q2207.52 66.1351 2207.52 57.6282 L2207.52 32.9987 L2202.05 32.9987 L2202.05 27.2059 L2207.52 27.2059 L2207.52 14.324 L2215.01 14.324 Z" fill="#000000" fill-rule="nonzero" fill-opacity="1" /><path clip-path="url(#clip740)" d="M2259.04 76.7889 Q2255.88 84.8907 2252.89 87.3618 Q2249.89 89.8329 2244.86 89.8329 L2238.91 89.8329 L2238.91 83.5945 L2243.28 83.5945 Q2246.36 83.5945 2248.06 82.1361 Q2249.77 80.6778 2251.83 75.2496 L2253.17 71.8468 L2234.82 27.2059 L2242.72 27.2059 L2256.9 62.6918 L2271.07 27.2059 L2278.97 27.2059 L2259.04 76.7889 Z" fill="#000000" fill-rule="nonzero" fill-opacity="1" /><path clip-path="url(#clip740)" d="M2290.23 34.9026 L2342.17 34.9026 L2342.17 41.7081 L2290.23 41.7081 L2290.23 34.9026 M2290.23 51.4303 L2342.17 51.4303 L2342.17 58.3168 L2290.23 58.3168 L2290.23 51.4303 Z" fill="#000000" fill-rule="nonzero" fill-opacity="1" /><path clip-path="url(#clip740)" d="M2361.25 65.6895 L2374.62 65.6895 L2374.62 19.5497 L2360.07 22.4663 L2360.07 15.0127 L2374.53 12.096 L2382.72 12.096 L2382.72 65.6895 L2396.09 65.6895 L2396.09 72.576 L2361.25 72.576 L2361.25 65.6895 Z" fill="#000000" fill-rule="nonzero" fill-opacity="1" /><path clip-path="url(#clip740)" d="M2412.61 62.2867 L2421.16 62.2867 L2421.16 72.576 L2412.61 72.576 L2412.61 62.2867 Z" fill="#000000" fill-rule="nonzero" fill-opacity="1" /><path clip-path="url(#clip740)" d="M2456.48 17.4837 Q2450.16 17.4837 2446.96 23.7221 Q2443.8 29.92 2443.8 42.3968 Q2443.8 54.833 2446.96 61.0714 Q2450.16 67.2693 2456.48 67.2693 Q2462.84 67.2693 2466 61.0714 Q2469.2 54.833 2469.2 42.3968 Q2469.2 29.92 2466 23.7221 Q2462.84 17.4837 2456.48 17.4837 M2456.48 11.0023 Q2466.65 11.0023 2472 19.0636 Q2477.39 27.0843 2477.39 42.3968 Q2477.39 57.6687 2472 65.73 Q2466.65 73.7508 2456.48 73.7508 Q2446.32 73.7508 2440.93 65.73 Q2435.58 57.6687 2435.58 42.3968 Q2435.58 27.0843 2440.93 19.0636 Q2446.32 11.0023 2456.48 11.0023 Z" fill="#000000" fill-rule="nonzero" fill-opacity="1" /><path clip-path="url(#clip741)" d="M526.644 261.424 L526.644 1420.15 L1566.55 1420.15 L1566.55 261.424 L526.644 261.424 L526.644 261.424  Z" fill="#0c7e8f" fill-rule="evenodd" fill-opacity="1"/>
<polyline clip-path="url(#clip741)" style="stroke:#000000; stroke-linecap:round; stroke-linejoin:round; stroke-width:4; stroke-opacity:1; fill:none" points="526.644,261.424 526.644,1420.15 1566.55,1420.15 1566.55,261.424 526.644,261.424 "/>
<path clip-path="url(#clip741)" d="M1826.52 279.817 L1826.52 1420.15 L2866.43 1420.15 L2866.43 279.817 L1826.52 279.817 L1826.52 279.817  Z" fill="#0c7e8f" fill-rule="evenodd" fill-opacity="1"/>
<polyline clip-path="url(#clip741)" style="stroke:#000000; stroke-linecap:round; stroke-linejoin:round; stroke-width:4; stroke-opacity:1; fill:none" points="1826.52,279.817 1826.52,1420.15 2866.43,1420.15 2866.43,279.817 1826.52,279.817 "/>
<circle clip-path="url(#clip741)" style="fill:#009af9; stroke:none; fill-opacity:0" cx="1046.6" cy="261.424" r="2"/>
<circle clip-path="url(#clip741)" style="fill:#009af9; stroke:none; fill-opacity:0" cx="2346.47" cy="279.817" r="2"/>
</svg>
