<?xml version="1.0" encoding="utf-8"?>
<svg xmlns="http://www.w3.org/2000/svg" xmlns:xlink="http://www.w3.org/1999/xlink" width="800" height="500" viewBox="0 0 3200 2000">
<defs>
  <clipPath id="clip510">
    <rect x="0" y="0" width="3200" height="2000"/>
  </clipPath>
</defs>
<path clip-path="url(#clip510)" d="M0 2000 L3200 2000 L3200 0 L0 0  Z" fill="#ffffff" fill-rule="evenodd" fill-opacity="1"/>
<defs>
  <clipPath id="clip511">
    <rect x="640" y="0" width="2241" height="2000"/>
  </clipPath>
</defs>
<path clip-path="url(#clip510)" d="M252.472 1649.29 L3011.02 1649.29 L3011.02 204.724 L252.472 204.724  Z" fill="#ffffff" fill-rule="evenodd" fill-opacity="1"/>
<defs>
  <clipPath id="clip512">
    <rect x="252" y="204" width="2760" height="1446"/>
  </clipPath>
</defs>
<polyline clip-path="url(#clip512)" style="stroke:#000000; stroke-linecap:round; stroke-linejoin:round; stroke-width:2; stroke-opacity:0.1; fill:none" points="949.776,1649.29 949.776,204.724 "/>
<polyline clip-path="url(#clip512)" style="stroke:#000000; stroke-linecap:round; stroke-linejoin:round; stroke-width:2; stroke-opacity:0.1; fill:none" points="2313.72,1649.29 2313.72,204.724 "/>
<polyline clip-path="url(#clip510)" style="stroke:#000000; stroke-linecap:round; stroke-linejoin:round; stroke-width:4; stroke-opacity:1; fill:none" points="252.472,1649.29 3011.02,1649.29 "/>
<polyline clip-path="url(#clip510)" style="stroke:#000000; stroke-linecap:round; stroke-linejoin:round; stroke-width:4; stroke-opacity:1; fill:none" points="949.776,1649.29 949.776,1630.39 "/>
<polyline clip-path="url(#clip510)" style="stroke:#000000; stroke-linecap:round; stroke-linejoin:round; stroke-width:4; stroke-opacity:1; fill:none" points="2313.72,1649.29 2313.72,1630.39 "/>
<path clip-path="url(#clip510)" d="M963.12 1966.26 L963.12 1958.62 L936.755 1958.62 L938.422 1966.93 L934.162 1966.93 L932.496 1958.66 L932.496 1953.99 L963.12 1953.99 L963.12 1946.35 L967.056 1946.35 L967.056 1966.26 L963.12 1966.26 Z" fill="#000000" fill-rule="nonzero" fill-opacity="1" /><path clip-path="url(#clip510)" d="M963.12 1936.09 L963.12 1928.45 L936.755 1928.45 L938.422 1936.76 L934.162 1936.76 L932.496 1928.5 L932.496 1923.83 L963.12 1923.83 L963.12 1916.19 L967.056 1916.19 L967.056 1936.09 L963.12 1936.09 Z" fill="#000000" fill-rule="nonzero" fill-opacity="1" /><path clip-path="url(#clip510)" d="M963.12 1905.93 L963.12 1898.29 L936.755 1898.29 L938.422 1906.6 L934.162 1906.6 L932.496 1898.34 L932.496 1893.66 L963.12 1893.66 L963.12 1886.02 L967.056 1886.02 L967.056 1905.93 L963.12 1905.93 Z" fill="#000000" fill-rule="nonzero" fill-opacity="1" /><path clip-path="url(#clip510)" d="M963.12 1875.77 L963.12 1868.13 L936.755 1868.13 L938.422 1876.44 L934.162 1876.44 L932.496 1868.18 L932.496 1863.5 L963.12 1863.5 L963.12 1855.86 L967.056 1855.86 L967.056 1875.77 L963.12 1875.77 Z" fill="#000000" fill-rule="nonzero" fill-opacity="1" /><path clip-path="url(#clip510)" d="M963.12 1845.61 L963.12 1837.97 L936.755 1837.97 L938.422 1846.28 L934.162 1846.28 L932.496 1838.02 L932.496 1833.34 L963.12 1833.34 L963.12 1825.7 L967.056 1825.7 L967.056 1845.61 L963.12 1845.61 Z" fill="#000000" fill-rule="nonzero" fill-opacity="1" /><path clip-path="url(#clip510)" d="M963.12 1815.45 L963.12 1807.81 L936.755 1807.81 L938.422 1816.12 L934.162 1816.12 L932.496 1807.85 L932.496 1803.18 L963.12 1803.18 L963.12 1795.54 L967.056 1795.54 L967.056 1815.45 L963.12 1815.45 Z" fill="#000000" fill-rule="nonzero" fill-opacity="1" /><path clip-path="url(#clip510)" d="M963.12 1785.28 L963.12 1777.65 L936.755 1777.65 L938.422 1785.96 L934.162 1785.96 L932.496 1777.69 L932.496 1773.02 L963.12 1773.02 L963.12 1765.38 L967.056 1765.38 L967.056 1785.28 L963.12 1785.28 Z" fill="#000000" fill-rule="nonzero" fill-opacity="1" /><path clip-path="url(#clip510)" d="M963.12 1755.12 L963.12 1747.48 L936.755 1747.48 L938.422 1755.79 L934.162 1755.79 L932.496 1747.53 L932.496 1742.85 L963.12 1742.85 L963.12 1735.22 L967.056 1735.22 L967.056 1755.12 L963.12 1755.12 Z" fill="#000000" fill-rule="nonzero" fill-opacity="1" /><path clip-path="url(#clip510)" d="M963.12 1724.96 L963.12 1717.32 L936.755 1717.32 L938.422 1725.63 L934.162 1725.63 L932.496 1717.37 L932.496 1712.69 L963.12 1712.69 L963.12 1705.05 L967.056 1705.05 L967.056 1724.96 L963.12 1724.96 Z" fill="#000000" fill-rule="nonzero" fill-opacity="1" /><path clip-path="url(#clip510)" d="M963.12 1694.8 L963.12 1687.16 L936.755 1687.16 L938.422 1695.47 L934.162 1695.47 L932.496 1687.21 L932.496 1682.53 L963.12 1682.53 L963.12 1674.89 L967.056 1674.89 L967.056 1694.8 L963.12 1694.8 Z" fill="#000000" fill-rule="nonzero" fill-opacity="1" /><path clip-path="url(#clip510)" d="M2299.52 1958.29 Q2299.52 1961.9 2303.08 1963.73 Q2306.63 1965.54 2313.76 1965.54 Q2320.86 1965.54 2324.43 1963.73 Q2327.97 1961.9 2327.97 1958.29 Q2327.97 1954.66 2324.43 1952.85 Q2320.86 1951.02 2313.76 1951.02 Q2306.63 1951.02 2303.08 1952.85 Q2299.52 1954.66 2299.52 1958.29 M2295.82 1958.29 Q2295.82 1952.48 2300.42 1949.43 Q2305.01 1946.35 2313.76 1946.35 Q2322.48 1946.35 2327.09 1949.43 Q2331.67 1952.48 2331.67 1958.29 Q2331.67 1964.1 2327.09 1967.18 Q2322.48 1970.24 2313.76 1970.24 Q2305.01 1970.24 2300.42 1967.18 Q2295.82 1964.1 2295.82 1958.29 Z" fill="#000000" fill-rule="nonzero" fill-opacity="1" /><path clip-path="url(#clip510)" d="M2299.52 1928.13 Q2299.52 1931.74 2303.08 1933.57 Q2306.63 1935.38 2313.76 1935.38 Q2320.86 1935.38 2324.43 1933.57 Q2327.97 1931.74 2327.97 1928.13 Q2327.97 1924.5 2324.43 1922.69 Q2320.86 1920.86 2313.76 1920.86 Q2306.63 1920.86 2303.08 1922.69 Q2299.52 1924.5 2299.52 1928.13 M2295.82 1928.13 Q2295.82 1922.32 2300.42 1919.27 Q2305.01 1916.19 2313.76 1916.19 Q2322.48 1916.19 2327.09 1919.27 Q2331.67 1922.32 2331.67 1928.13 Q2331.67 1933.94 2327.09 1937.02 Q2322.48 1940.08 2313.76 1940.08 Q2305.01 1940.08 2300.42 1937.02 Q2295.82 1933.94 2295.82 1928.13 Z" fill="#000000" fill-rule="nonzero" fill-opacity="1" /><path clip-path="url(#clip510)" d="M2299.52 1897.97 Q2299.52 1901.58 2303.08 1903.41 Q2306.63 1905.21 2313.76 1905.21 Q2320.86 1905.21 2324.43 1903.41 Q2327.97 1901.58 2327.97 1897.97 Q2327.97 1894.33 2324.43 1892.53 Q2320.86 1890.7 2313.76 1890.7 Q2306.63 1890.7 2303.08 1892.53 Q2299.52 1894.33 2299.52 1897.97 M2295.82 1897.97 Q2295.82 1892.16 2300.42 1889.1 Q2305.01 1886.02 2313.76 1886.02 Q2322.48 1886.02 2327.09 1889.1 Q2331.67 1892.16 2331.67 1897.97 Q2331.67 1903.78 2327.09 1906.86 Q2322.48 1909.91 2313.76 1909.91 Q2305.01 1909.91 2300.42 1906.86 Q2295.82 1903.78 2295.82 1897.97 Z" fill="#000000" fill-rule="nonzero" fill-opacity="1" /><path clip-path="url(#clip510)" d="M2299.52 1867.81 Q2299.52 1871.42 2303.08 1873.25 Q2306.63 1875.05 2313.76 1875.05 Q2320.86 1875.05 2324.43 1873.25 Q2327.97 1871.42 2327.97 1867.81 Q2327.97 1864.17 2324.43 1862.37 Q2320.86 1860.54 2313.76 1860.54 Q2306.63 1860.54 2303.08 1862.37 Q2299.52 1864.17 2299.52 1867.81 M2295.82 1867.81 Q2295.82 1862 2300.42 1858.94 Q2305.01 1855.86 2313.76 1855.86 Q2322.48 1855.86 2327.09 1858.94 Q2331.67 1862 2331.67 1867.81 Q2331.67 1873.62 2327.09 1876.7 Q2322.48 1879.75 2313.76 1879.75 Q2305.01 1879.75 2300.42 1876.7 Q2295.82 1873.62 2295.82 1867.81 Z" fill="#000000" fill-rule="nonzero" fill-opacity="1" /><path clip-path="url(#clip510)" d="M2299.52 1837.65 Q2299.52 1841.26 2303.08 1843.08 Q2306.63 1844.89 2313.76 1844.89 Q2320.86 1844.89 2324.43 1843.08 Q2327.97 1841.26 2327.97 1837.65 Q2327.97 1834.01 2324.43 1832.21 Q2320.86 1830.38 2313.76 1830.38 Q2306.63 1830.38 2303.08 1832.21 Q2299.52 1834.01 2299.52 1837.65 M2295.82 1837.65 Q2295.82 1831.83 2300.42 1828.78 Q2305.01 1825.7 2313.76 1825.7 Q2322.48 1825.7 2327.09 1828.78 Q2331.67 1831.83 2331.67 1837.65 Q2331.67 1843.46 2327.09 1846.53 Q2322.48 1849.59 2313.76 1849.59 Q2305.01 1849.59 2300.42 1846.53 Q2295.82 1843.46 2295.82 1837.65 Z" fill="#000000" fill-rule="nonzero" fill-opacity="1" /><path clip-path="url(#clip510)" d="M2299.52 1807.48 Q2299.52 1811.09 2303.08 1812.92 Q2306.63 1814.73 2313.76 1814.73 Q2320.86 1814.73 2324.43 1812.92 Q2327.97 1811.09 2327.97 1807.48 Q2327.97 1803.85 2324.43 1802.04 Q2320.86 1800.21 2313.76 1800.21 Q2306.63 1800.21 2303.08 1802.04 Q2299.52 1803.85 2299.52 1807.48 M2295.82 1807.48 Q2295.82 1801.67 2300.42 1798.62 Q2305.01 1795.54 2313.76 1795.54 Q2322.48 1795.54 2327.09 1798.62 Q2331.67 1801.67 2331.67 1807.48 Q2331.67 1813.29 2327.09 1816.37 Q2322.48 1819.43 2313.76 1819.43 Q2305.01 1819.43 2300.42 1816.37 Q2295.82 1813.29 2295.82 1807.48 Z" fill="#000000" fill-rule="nonzero" fill-opacity="1" /><path clip-path="url(#clip510)" d="M2299.52 1777.32 Q2299.52 1780.93 2303.08 1782.76 Q2306.63 1784.57 2313.76 1784.57 Q2320.86 1784.57 2324.43 1782.76 Q2327.97 1780.93 2327.97 1777.32 Q2327.97 1773.69 2324.43 1771.88 Q2320.86 1770.05 2313.76 1770.05 Q2306.63 1770.05 2303.08 1771.88 Q2299.52 1773.69 2299.52 1777.32 M2295.82 1777.32 Q2295.82 1771.51 2300.42 1768.46 Q2305.01 1765.38 2313.76 1765.38 Q2322.48 1765.38 2327.09 1768.46 Q2331.67 1771.51 2331.67 1777.32 Q2331.67 1783.13 2327.09 1786.21 Q2322.48 1789.27 2313.76 1789.27 Q2305.01 1789.27 2300.42 1786.21 Q2295.82 1783.13 2295.82 1777.32 Z" fill="#000000" fill-rule="nonzero" fill-opacity="1" /><path clip-path="url(#clip510)" d="M2299.52 1747.16 Q2299.52 1750.77 2303.08 1752.6 Q2306.63 1754.4 2313.76 1754.4 Q2320.86 1754.4 2324.43 1752.6 Q2327.97 1750.77 2327.97 1747.16 Q2327.97 1743.53 2324.43 1741.72 Q2320.86 1739.89 2313.76 1739.89 Q2306.63 1739.89 2303.08 1741.72 Q2299.52 1743.53 2299.52 1747.16 M2295.82 1747.16 Q2295.82 1741.35 2300.42 1738.29 Q2305.01 1735.22 2313.76 1735.22 Q2322.48 1735.22 2327.09 1738.29 Q2331.67 1741.35 2331.67 1747.16 Q2331.67 1752.97 2327.09 1756.05 Q2322.48 1759.1 2313.76 1759.1 Q2305.01 1759.1 2300.42 1756.05 Q2295.82 1752.97 2295.82 1747.16 Z" fill="#000000" fill-rule="nonzero" fill-opacity="1" /><path clip-path="url(#clip510)" d="M2299.52 1717 Q2299.52 1720.61 2303.08 1722.44 Q2306.63 1724.24 2313.76 1724.24 Q2320.86 1724.24 2324.43 1722.44 Q2327.97 1720.61 2327.97 1717 Q2327.97 1713.36 2324.43 1711.56 Q2320.86 1709.73 2313.76 1709.73 Q2306.63 1709.73 2303.08 1711.56 Q2299.52 1713.36 2299.52 1717 M2295.82 1717 Q2295.82 1711.19 2300.42 1708.13 Q2305.01 1705.05 2313.76 1705.05 Q2322.48 1705.05 2327.09 1708.13 Q2331.67 1711.19 2331.67 1717 Q2331.67 1722.81 2327.09 1725.89 Q2322.48 1728.94 2313.76 1728.94 Q2305.01 1728.94 2300.42 1725.89 Q2295.82 1722.81 2295.82 1717 Z" fill="#000000" fill-rule="nonzero" fill-opacity="1" /><path clip-path="url(#clip510)" d="M2299.52 1686.84 Q2299.52 1690.45 2303.08 1692.28 Q2306.63 1694.08 2313.76 1694.08 Q2320.86 1694.08 2324.43 1692.28 Q2327.97 1690.45 2327.97 1686.84 Q2327.97 1683.2 2324.43 1681.4 Q2320.86 1679.57 2313.76 1679.57 Q2306.63 1679.57 2303.08 1681.4 Q2299.52 1683.2 2299.52 1686.84 M2295.82 1686.84 Q2295.82 1681.03 2300.42 1677.97 Q2305.01 1674.89 2313.76 1674.89 Q2322.48 1674.89 2327.09 1677.97 Q2331.67 1681.03 2331.67 1686.84 Q2331.67 1692.65 2327.09 1695.72 Q2322.48 1698.78 2313.76 1698.78 Q2305.01 1698.78 2300.42 1695.72 Q2295.82 1692.65 2295.82 1686.84 Z" fill="#000000" fill-rule="nonzero" fill-opacity="1" /><path clip-path="url(#clip510)" d="M1506.58 2026.97 L1506.58 2044.38 L1516.89 2044.38 Q1522.08 2044.38 1524.57 2042.24 Q1527.08 2040.08 1527.08 2035.66 Q1527.08 2031.2 1524.57 2029.1 Q1522.08 2026.97 1516.89 2026.97 L1506.58 2026.97 M1506.58 2007.42 L1506.58 2021.75 L1516.1 2021.75 Q1520.81 2021.75 1523.1 2020 Q1525.42 2018.21 1525.42 2014.59 Q1525.42 2010.99 1523.1 2009.21 Q1520.81 2007.42 1516.1 2007.42 L1506.58 2007.42 M1500.15 2002.14 L1516.58 2002.14 Q1523.93 2002.14 1527.91 2005.2 Q1531.89 2008.25 1531.89 2013.89 Q1531.89 2018.25 1529.85 2020.82 Q1527.81 2023.4 1523.87 2024.04 Q1528.61 2025.06 1531.22 2028.3 Q1533.86 2031.52 1533.86 2036.36 Q1533.86 2042.72 1529.53 2046.19 Q1525.2 2049.66 1517.21 2049.66 L1500.15 2049.66 L1500.15 2002.14 Z" fill="#000000" fill-rule="nonzero" fill-opacity="1" /><path clip-path="url(#clip510)" d="M1544.62 2014.01 L1550.47 2014.01 L1550.47 2049.66 L1544.62 2049.66 L1544.62 2014.01 M1544.62 2000.14 L1550.47 2000.14 L1550.47 2007.55 L1544.62 2007.55 L1544.62 2000.14 Z" fill="#000000" fill-rule="nonzero" fill-opacity="1" /><path clip-path="url(#clip510)" d="M1568.52 2003.89 L1568.52 2014.01 L1580.58 2014.01 L1580.58 2018.56 L1568.52 2018.56 L1568.52 2037.92 Q1568.52 2042.28 1569.7 2043.52 Q1570.91 2044.76 1574.57 2044.76 L1580.58 2044.76 L1580.58 2049.66 L1574.57 2049.66 Q1567.79 2049.66 1565.21 2047.15 Q1562.63 2044.6 1562.63 2037.92 L1562.63 2018.56 L1558.34 2018.56 L1558.34 2014.01 L1562.63 2014.01 L1562.63 2003.89 L1568.52 2003.89 Z" fill="#000000" fill-rule="nonzero" fill-opacity="1" /><path clip-path="url(#clip510)" d="M1611.01 2015.06 L1611.01 2020.6 Q1608.53 2019.33 1605.86 2018.69 Q1603.18 2018.06 1600.32 2018.06 Q1595.96 2018.06 1593.76 2019.39 Q1591.6 2020.73 1591.6 2023.4 Q1591.6 2025.44 1593.16 2026.62 Q1594.72 2027.76 1599.43 2028.81 L1601.43 2029.26 Q1607.67 2030.6 1610.28 2033.05 Q1612.92 2035.47 1612.92 2039.83 Q1612.92 2044.79 1608.97 2047.69 Q1605.06 2050.58 1598.18 2050.58 Q1595.32 2050.58 1592.2 2050.01 Q1589.11 2049.47 1585.68 2048.36 L1585.68 2042.31 Q1588.92 2044 1592.07 2044.85 Q1595.22 2045.68 1598.31 2045.68 Q1602.45 2045.68 1604.68 2044.28 Q1606.91 2042.85 1606.91 2040.27 Q1606.91 2037.88 1605.28 2036.61 Q1603.69 2035.34 1598.25 2034.16 L1596.21 2033.68 Q1590.77 2032.54 1588.35 2030.18 Q1585.93 2027.79 1585.93 2023.66 Q1585.93 2018.63 1589.5 2015.89 Q1593.06 2013.15 1599.62 2013.15 Q1602.86 2013.15 1605.73 2013.63 Q1608.59 2014.11 1611.01 2015.06 Z" fill="#000000" fill-rule="nonzero" fill-opacity="1" /><path clip-path="url(#clip510)" d="M1628.04 2003.89 L1628.04 2014.01 L1640.1 2014.01 L1640.1 2018.56 L1628.04 2018.56 L1628.04 2037.92 Q1628.04 2042.28 1629.22 2043.52 Q1630.43 2044.76 1634.09 2044.76 L1640.1 2044.76 L1640.1 2049.66 L1634.09 2049.66 Q1627.31 2049.66 1624.73 2047.15 Q1622.15 2044.6 1622.15 2037.92 L1622.15 2018.56 L1617.85 2018.56 L1617.85 2014.01 L1622.15 2014.01 L1622.15 2003.89 L1628.04 2003.89 Z" fill="#000000" fill-rule="nonzero" fill-opacity="1" /><path clip-path="url(#clip510)" d="M1668.46 2019.49 Q1667.48 2018.91 1666.3 2018.66 Q1665.15 2018.37 1663.75 2018.37 Q1658.79 2018.37 1656.11 2021.62 Q1653.47 2024.83 1653.47 2030.88 L1653.47 2049.66 L1647.58 2049.66 L1647.58 2014.01 L1653.47 2014.01 L1653.47 2019.55 Q1655.32 2016.3 1658.28 2014.75 Q1661.24 2013.15 1665.47 2013.15 Q1666.08 2013.15 1666.81 2013.25 Q1667.54 2013.31 1668.43 2013.47 L1668.46 2019.49 Z" fill="#000000" fill-rule="nonzero" fill-opacity="1" /><path clip-path="url(#clip510)" d="M1674.61 2014.01 L1680.46 2014.01 L1680.46 2049.66 L1674.61 2049.66 L1674.61 2014.01 M1674.61 2000.14 L1680.46 2000.14 L1680.46 2007.55 L1674.61 2007.55 L1674.61 2000.14 Z" fill="#000000" fill-rule="nonzero" fill-opacity="1" /><path clip-path="url(#clip510)" d="M1722.35 2028.14 L1722.35 2049.66 L1716.49 2049.66 L1716.49 2028.34 Q1716.49 2023.28 1714.52 2020.76 Q1712.54 2018.25 1708.6 2018.25 Q1703.86 2018.25 1701.12 2021.27 Q1698.38 2024.29 1698.38 2029.51 L1698.38 2049.66 L1692.49 2049.66 L1692.49 2014.01 L1698.38 2014.01 L1698.38 2019.55 Q1700.48 2016.34 1703.31 2014.75 Q1706.18 2013.15 1709.9 2013.15 Q1716.05 2013.15 1719.2 2016.97 Q1722.35 2020.76 1722.35 2028.14 Z" fill="#000000" fill-rule="nonzero" fill-opacity="1" /><path clip-path="url(#clip510)" d="M1757.49 2031.42 Q1757.49 2025.06 1754.84 2021.56 Q1752.23 2018.06 1747.49 2018.06 Q1742.78 2018.06 1740.14 2021.56 Q1737.53 2025.06 1737.53 2031.42 Q1737.53 2037.76 1740.14 2041.26 Q1742.78 2044.76 1747.49 2044.76 Q1752.23 2044.76 1754.84 2041.26 Q1757.49 2037.76 1757.49 2031.42 M1763.34 2045.24 Q1763.34 2054.34 1759.3 2058.76 Q1755.26 2063.22 1746.92 2063.22 Q1743.83 2063.22 1741.09 2062.74 Q1738.36 2062.3 1735.78 2061.34 L1735.78 2055.64 Q1738.36 2057.05 1740.87 2057.71 Q1743.39 2058.38 1746 2058.38 Q1751.76 2058.38 1754.62 2055.36 Q1757.49 2052.37 1757.49 2046.29 L1757.49 2043.39 Q1755.67 2046.54 1752.84 2048.1 Q1750.01 2049.66 1746.06 2049.66 Q1739.5 2049.66 1735.49 2044.66 Q1731.48 2039.67 1731.48 2031.42 Q1731.48 2023.15 1735.49 2018.15 Q1739.5 2013.15 1746.06 2013.15 Q1750.01 2013.15 1752.84 2014.71 Q1755.67 2016.27 1757.49 2019.42 L1757.49 2014.01 L1763.34 2014.01 L1763.34 2045.24 Z" fill="#000000" fill-rule="nonzero" fill-opacity="1" /><polyline clip-path="url(#clip512)" style="stroke:#000000; stroke-linecap:round; stroke-linejoin:round; stroke-width:2; stroke-opacity:0.1; fill:none" points="252.472,1649.29 3011.02,1649.29 "/>
<polyline clip-path="url(#clip512)" style="stroke:#000000; stroke-linecap:round; stroke-linejoin:round; stroke-width:2; stroke-opacity:0.1; fill:none" points="252.472,1371.49 3011.02,1371.49 "/>
<polyline clip-path="url(#clip512)" style="stroke:#000000; stroke-linecap:round; stroke-linejoin:round; stroke-width:2; stroke-opacity:0.1; fill:none" points="252.472,1093.69 3011.02,1093.69 "/>
<polyline clip-path="url(#clip512)" style="stroke:#000000; stroke-linecap:round; stroke-linejoin:round; stroke-width:2; stroke-opacity:0.1; fill:none" points="252.472,815.887 3011.02,815.887 "/>
<polyline clip-path="url(#clip512)" style="stroke:#000000; stroke-linecap:round; stroke-linejoin:round; stroke-width:2; stroke-opacity:0.1; fill:none" points="252.472,538.086 3011.02,538.086 "/>
<polyline clip-path="url(#clip512)" style="stroke:#000000; stroke-linecap:round; stroke-linejoin:round; stroke-width:2; stroke-opacity:0.1; fill:none" points="252.472,260.285 3011.02,260.285 "/>
<polyline clip-path="url(#clip510)" style="stroke:#000000; stroke-linecap:round; stroke-linejoin:round; stroke-width:4; stroke-opacity:1; fill:none" points="252.472,1649.29 252.472,204.724 "/>
<polyline clip-path="url(#clip510)" style="stroke:#000000; stroke-linecap:round; stroke-linejoin:round; stroke-width:4; stroke-opacity:1; fill:none" points="252.472,1649.29 271.37,1649.29 "/>
<polyline clip-path="url(#clip510)" style="stroke:#000000; stroke-linecap:round; stroke-linejoin:round; stroke-width:4; stroke-opacity:1; fill:none" points="252.472,1371.49 271.37,1371.49 "/>
<polyline clip-path="url(#clip510)" style="stroke:#000000; stroke-linecap:round; stroke-linejoin:round; stroke-width:4; stroke-opacity:1; fill:none" points="252.472,1093.69 271.37,1093.69 "/>
<polyline clip-path="url(#clip510)" style="stroke:#000000; stroke-linecap:round; stroke-linejoin:round; stroke-width:4; stroke-opacity:1; fill:none" points="252.472,815.887 271.37,815.887 "/>
<polyline clip-path="url(#clip510)" style="stroke:#000000; stroke-linecap:round; stroke-linejoin:round; stroke-width:4; stroke-opacity:1; fill:none" points="252.472,538.086 271.37,538.086 "/>
<polyline clip-path="url(#clip510)" style="stroke:#000000; stroke-linecap:round; stroke-linejoin:round; stroke-width:4; stroke-opacity:1; fill:none" points="252.472,260.285 271.37,260.285 "/>
<path clip-path="url(#clip510)" d="M192.528 1635.09 Q188.917 1635.09 187.088 1638.65 Q185.283 1642.2 185.283 1649.33 Q185.283 1656.43 187.088 1660 Q188.917 1663.54 192.528 1663.54 Q196.162 1663.54 197.968 1660 Q199.797 1656.43 199.797 1649.33 Q199.797 1642.2 197.968 1638.65 Q196.162 1635.09 192.528 1635.09 M192.528 1631.39 Q198.338 1631.39 201.394 1635.99 Q204.472 1640.58 204.472 1649.33 Q204.472 1658.05 201.394 1662.66 Q198.338 1667.24 192.528 1667.24 Q186.718 1667.24 183.639 1662.66 Q180.584 1658.05 180.584 1649.33 Q180.584 1640.58 183.639 1635.99 Q186.718 1631.39 192.528 1631.39 Z" fill="#000000" fill-rule="nonzero" fill-opacity="1" /><path clip-path="url(#clip510)" d="M123.015 1384.83 L130.653 1384.83 L130.653 1358.47 L122.343 1360.14 L122.343 1355.88 L130.607 1354.21 L135.283 1354.21 L135.283 1384.83 L142.922 1384.83 L142.922 1388.77 L123.015 1388.77 L123.015 1384.83 Z" fill="#000000" fill-rule="nonzero" fill-opacity="1" /><path clip-path="url(#clip510)" d="M162.366 1357.29 Q158.755 1357.29 156.926 1360.85 Q155.121 1364.4 155.121 1371.52 Q155.121 1378.63 156.926 1382.2 Q158.755 1385.74 162.366 1385.74 Q166 1385.74 167.806 1382.2 Q169.635 1378.63 169.635 1371.52 Q169.635 1364.4 167.806 1360.85 Q166 1357.29 162.366 1357.29 M162.366 1353.59 Q168.176 1353.59 171.232 1358.19 Q174.311 1362.77 174.311 1371.52 Q174.311 1380.25 171.232 1384.86 Q168.176 1389.44 162.366 1389.44 Q156.556 1389.44 153.477 1384.86 Q150.422 1380.25 150.422 1371.52 Q150.422 1362.77 153.477 1358.19 Q156.556 1353.59 162.366 1353.59 Z" fill="#000000" fill-rule="nonzero" fill-opacity="1" /><path clip-path="url(#clip510)" d="M192.528 1357.29 Q188.917 1357.29 187.088 1360.85 Q185.283 1364.4 185.283 1371.52 Q185.283 1378.63 187.088 1382.2 Q188.917 1385.74 192.528 1385.74 Q196.162 1385.74 197.968 1382.2 Q199.797 1378.63 199.797 1371.52 Q199.797 1364.4 197.968 1360.85 Q196.162 1357.29 192.528 1357.29 M192.528 1353.59 Q198.338 1353.59 201.394 1358.19 Q204.472 1362.77 204.472 1371.52 Q204.472 1380.25 201.394 1384.86 Q198.338 1389.44 192.528 1389.44 Q186.718 1389.44 183.639 1384.86 Q180.584 1380.25 180.584 1371.52 Q180.584 1362.77 183.639 1358.19 Q186.718 1353.59 192.528 1353.59 Z" fill="#000000" fill-rule="nonzero" fill-opacity="1" /><path clip-path="url(#clip510)" d="M126.232 1107.03 L142.551 1107.03 L142.551 1110.97 L120.607 1110.97 L120.607 1107.03 Q123.269 1104.28 127.852 1099.65 Q132.459 1095 133.639 1093.65 Q135.885 1091.13 136.764 1089.39 Q137.667 1087.64 137.667 1085.95 Q137.667 1083.19 135.723 1081.45 Q133.802 1079.72 130.7 1079.72 Q128.501 1079.72 126.047 1080.48 Q123.616 1081.25 120.839 1082.8 L120.839 1078.08 Q123.663 1076.94 126.116 1076.36 Q128.57 1075.78 130.607 1075.78 Q135.977 1075.78 139.172 1078.47 Q142.366 1081.15 142.366 1085.64 Q142.366 1087.77 141.556 1089.7 Q140.769 1091.59 138.663 1094.19 Q138.084 1094.86 134.982 1098.08 Q131.88 1101.27 126.232 1107.03 Z" fill="#000000" fill-rule="nonzero" fill-opacity="1" /><path clip-path="url(#clip510)" d="M162.366 1079.49 Q158.755 1079.49 156.926 1083.05 Q155.121 1086.59 155.121 1093.72 Q155.121 1100.83 156.926 1104.39 Q158.755 1107.94 162.366 1107.94 Q166 1107.94 167.806 1104.39 Q169.635 1100.83 169.635 1093.72 Q169.635 1086.59 167.806 1083.05 Q166 1079.49 162.366 1079.49 M162.366 1075.78 Q168.176 1075.78 171.232 1080.39 Q174.311 1084.97 174.311 1093.72 Q174.311 1102.45 171.232 1107.06 Q168.176 1111.64 162.366 1111.64 Q156.556 1111.64 153.477 1107.06 Q150.422 1102.45 150.422 1093.72 Q150.422 1084.97 153.477 1080.39 Q156.556 1075.78 162.366 1075.78 Z" fill="#000000" fill-rule="nonzero" fill-opacity="1" /><path clip-path="url(#clip510)" d="M192.528 1079.49 Q188.917 1079.49 187.088 1083.05 Q185.283 1086.59 185.283 1093.72 Q185.283 1100.83 187.088 1104.39 Q188.917 1107.94 192.528 1107.94 Q196.162 1107.94 197.968 1104.39 Q199.797 1100.83 199.797 1093.72 Q199.797 1086.59 197.968 1083.05 Q196.162 1079.49 192.528 1079.49 M192.528 1075.78 Q198.338 1075.78 201.394 1080.39 Q204.472 1084.97 204.472 1093.72 Q204.472 1102.45 201.394 1107.06 Q198.338 1111.64 192.528 1111.64 Q186.718 1111.64 183.639 1107.06 Q180.584 1102.45 180.584 1093.72 Q180.584 1084.97 183.639 1080.39 Q186.718 1075.78 192.528 1075.78 Z" fill="#000000" fill-rule="nonzero" fill-opacity="1" /><path clip-path="url(#clip510)" d="M136.371 814.533 Q139.727 815.251 141.602 817.519 Q143.501 819.788 143.501 823.121 Q143.501 828.237 139.982 831.038 Q136.464 833.839 129.982 833.839 Q127.806 833.839 125.491 833.399 Q123.2 832.982 120.746 832.126 L120.746 827.612 Q122.69 828.746 125.005 829.325 Q127.32 829.903 129.843 829.903 Q134.241 829.903 136.533 828.167 Q138.848 826.431 138.848 823.121 Q138.848 820.066 136.695 818.353 Q134.565 816.617 130.746 816.617 L126.718 816.617 L126.718 812.774 L130.931 812.774 Q134.38 812.774 136.209 811.408 Q138.038 810.019 138.038 807.427 Q138.038 804.765 136.139 803.353 Q134.264 801.918 130.746 801.918 Q128.825 801.918 126.626 802.334 Q124.427 802.751 121.788 803.63 L121.788 799.464 Q124.45 798.723 126.765 798.353 Q129.102 797.982 131.163 797.982 Q136.487 797.982 139.589 800.413 Q142.69 802.82 142.69 806.941 Q142.69 809.811 141.047 811.802 Q139.403 813.769 136.371 814.533 Z" fill="#000000" fill-rule="nonzero" fill-opacity="1" /><path clip-path="url(#clip510)" d="M162.366 801.686 Q158.755 801.686 156.926 805.251 Q155.121 808.792 155.121 815.922 Q155.121 823.029 156.926 826.593 Q158.755 830.135 162.366 830.135 Q166 830.135 167.806 826.593 Q169.635 823.029 169.635 815.922 Q169.635 808.792 167.806 805.251 Q166 801.686 162.366 801.686 M162.366 797.982 Q168.176 797.982 171.232 802.589 Q174.311 807.172 174.311 815.922 Q174.311 824.649 171.232 829.255 Q168.176 833.839 162.366 833.839 Q156.556 833.839 153.477 829.255 Q150.422 824.649 150.422 815.922 Q150.422 807.172 153.477 802.589 Q156.556 797.982 162.366 797.982 Z" fill="#000000" fill-rule="nonzero" fill-opacity="1" /><path clip-path="url(#clip510)" d="M192.528 801.686 Q188.917 801.686 187.088 805.251 Q185.283 808.792 185.283 815.922 Q185.283 823.029 187.088 826.593 Q188.917 830.135 192.528 830.135 Q196.162 830.135 197.968 826.593 Q199.797 823.029 199.797 815.922 Q199.797 808.792 197.968 805.251 Q196.162 801.686 192.528 801.686 M192.528 797.982 Q198.338 797.982 201.394 802.589 Q204.472 807.172 204.472 815.922 Q204.472 824.649 201.394 829.255 Q198.338 833.839 192.528 833.839 Q186.718 833.839 183.639 829.255 Q180.584 824.649 180.584 815.922 Q180.584 807.172 183.639 802.589 Q186.718 797.982 192.528 797.982 Z" fill="#000000" fill-rule="nonzero" fill-opacity="1" /><path clip-path="url(#clip510)" d="M135.052 524.88 L123.246 543.329 L135.052 543.329 L135.052 524.88 M133.825 520.806 L139.704 520.806 L139.704 543.329 L144.635 543.329 L144.635 547.218 L139.704 547.218 L139.704 555.366 L135.052 555.366 L135.052 547.218 L119.45 547.218 L119.45 542.704 L133.825 520.806 Z" fill="#000000" fill-rule="nonzero" fill-opacity="1" /><path clip-path="url(#clip510)" d="M162.366 523.885 Q158.755 523.885 156.926 527.449 Q155.121 530.991 155.121 538.121 Q155.121 545.227 156.926 548.792 Q158.755 552.334 162.366 552.334 Q166 552.334 167.806 548.792 Q169.635 545.227 169.635 538.121 Q169.635 530.991 167.806 527.449 Q166 523.885 162.366 523.885 M162.366 520.181 Q168.176 520.181 171.232 524.787 Q174.311 529.371 174.311 538.121 Q174.311 546.848 171.232 551.454 Q168.176 556.037 162.366 556.037 Q156.556 556.037 153.477 551.454 Q150.422 546.848 150.422 538.121 Q150.422 529.371 153.477 524.787 Q156.556 520.181 162.366 520.181 Z" fill="#000000" fill-rule="nonzero" fill-opacity="1" /><path clip-path="url(#clip510)" d="M192.528 523.885 Q188.917 523.885 187.088 527.449 Q185.283 530.991 185.283 538.121 Q185.283 545.227 187.088 548.792 Q188.917 552.334 192.528 552.334 Q196.162 552.334 197.968 548.792 Q199.797 545.227 199.797 538.121 Q199.797 530.991 197.968 527.449 Q196.162 523.885 192.528 523.885 M192.528 520.181 Q198.338 520.181 201.394 524.787 Q204.472 529.371 204.472 538.121 Q204.472 546.848 201.394 551.454 Q198.338 556.037 192.528 556.037 Q186.718 556.037 183.639 551.454 Q180.584 546.848 180.584 538.121 Q180.584 529.371 183.639 524.787 Q186.718 520.181 192.528 520.181 Z" fill="#000000" fill-rule="nonzero" fill-opacity="1" /><path clip-path="url(#clip510)" d="M122.251 243.005 L140.607 243.005 L140.607 246.94 L126.533 246.94 L126.533 255.412 Q127.552 255.065 128.57 254.903 Q129.589 254.718 130.607 254.718 Q136.394 254.718 139.774 257.889 Q143.153 261.06 143.153 266.477 Q143.153 272.055 139.681 275.157 Q136.209 278.236 129.89 278.236 Q127.714 278.236 125.445 277.866 Q123.2 277.495 120.792 276.754 L120.792 272.055 Q122.876 273.19 125.098 273.745 Q127.32 274.301 129.797 274.301 Q133.802 274.301 136.139 272.194 Q138.477 270.088 138.477 266.477 Q138.477 262.866 136.139 260.759 Q133.802 258.653 129.797 258.653 Q127.922 258.653 126.047 259.069 Q124.195 259.486 122.251 260.366 L122.251 243.005 Z" fill="#000000" fill-rule="nonzero" fill-opacity="1" /><path clip-path="url(#clip510)" d="M162.366 246.083 Q158.755 246.083 156.926 249.648 Q155.121 253.19 155.121 260.319 Q155.121 267.426 156.926 270.991 Q158.755 274.532 162.366 274.532 Q166 274.532 167.806 270.991 Q169.635 267.426 169.635 260.319 Q169.635 253.19 167.806 249.648 Q166 246.083 162.366 246.083 M162.366 242.38 Q168.176 242.38 171.232 246.986 Q174.311 251.569 174.311 260.319 Q174.311 269.046 171.232 273.653 Q168.176 278.236 162.366 278.236 Q156.556 278.236 153.477 273.653 Q150.422 269.046 150.422 260.319 Q150.422 251.569 153.477 246.986 Q156.556 242.38 162.366 242.38 Z" fill="#000000" fill-rule="nonzero" fill-opacity="1" /><path clip-path="url(#clip510)" d="M192.528 246.083 Q188.917 246.083 187.088 249.648 Q185.283 253.19 185.283 260.319 Q185.283 267.426 187.088 270.991 Q188.917 274.532 192.528 274.532 Q196.162 274.532 197.968 270.991 Q199.797 267.426 199.797 260.319 Q199.797 253.19 197.968 249.648 Q196.162 246.083 192.528 246.083 M192.528 242.38 Q198.338 242.38 201.394 246.986 Q204.472 251.569 204.472 260.319 Q204.472 269.046 201.394 273.653 Q198.338 278.236 192.528 278.236 Q186.718 278.236 183.639 273.653 Q180.584 269.046 180.584 260.319 Q180.584 251.569 183.639 246.986 Q186.718 242.38 192.528 242.38 Z" fill="#000000" fill-rule="nonzero" fill-opacity="1" /><path clip-path="url(#clip510)" d="M13.334 1262.4 L20.1135 1262.4 Q17.0898 1265.65 15.5939 1269.34 Q14.0979 1273 14.0979 1277.14 Q14.0979 1285.29 19.095 1289.61 Q24.0602 1293.94 33.4815 1293.94 Q42.8709 1293.94 47.868 1289.61 Q52.8332 1285.29 52.8332 1277.14 Q52.8332 1273 51.3373 1269.34 Q49.8414 1265.65 46.8176 1262.4 L53.5335 1262.4 Q55.8251 1265.77 56.9709 1269.56 Q58.1168 1273.32 58.1168 1277.52 Q58.1168 1288.31 51.5283 1294.52 Q44.9079 1300.72 33.4815 1300.72 Q22.0232 1300.72 15.4347 1294.52 Q8.81438 1288.31 8.81438 1277.52 Q8.81438 1273.25 9.96021 1269.5 Q11.0742 1265.71 13.334 1262.4 Z" fill="#000000" fill-rule="nonzero" fill-opacity="1" /><path clip-path="url(#clip510)" d="M25.6517 1238.91 Q25.6517 1243.62 29.3438 1246.36 Q33.0041 1249.1 39.4016 1249.1 Q45.7991 1249.1 49.4912 1246.39 Q53.1515 1243.65 53.1515 1238.91 Q53.1515 1234.23 49.4594 1231.5 Q45.7673 1228.76 39.4016 1228.76 Q33.0677 1228.76 29.3756 1231.5 Q25.6517 1234.23 25.6517 1238.91 M20.6864 1238.91 Q20.6864 1231.27 25.6517 1226.91 Q30.6169 1222.55 39.4016 1222.55 Q48.1544 1222.55 53.1515 1226.91 Q58.1168 1231.27 58.1168 1238.91 Q58.1168 1246.58 53.1515 1250.94 Q48.1544 1255.27 39.4016 1255.27 Q30.6169 1255.27 25.6517 1250.94 Q20.6864 1246.58 20.6864 1238.91 Z" fill="#000000" fill-rule="nonzero" fill-opacity="1" /><path clip-path="url(#clip510)" d="M43.1255 1213.45 L21.5458 1213.45 L21.5458 1207.59 L42.9027 1207.59 Q47.9635 1207.59 50.5098 1205.62 Q53.0242 1203.65 53.0242 1199.7 Q53.0242 1194.96 50.0005 1192.22 Q46.9768 1189.45 41.7569 1189.45 L21.5458 1189.45 L21.5458 1183.59 L57.1937 1183.59 L57.1937 1189.45 L51.7192 1189.45 Q54.9658 1191.58 56.5572 1194.42 Q58.1168 1197.22 58.1168 1200.94 Q58.1168 1207.08 54.2974 1210.27 Q50.4779 1213.45 43.1255 1213.45 M20.6864 1198.71 L20.6864 1198.71 Z" fill="#000000" fill-rule="nonzero" fill-opacity="1" /><path clip-path="url(#clip510)" d="M35.6777 1141.9 L57.1937 1141.9 L57.1937 1147.75 L35.8686 1147.75 Q30.8079 1147.75 28.2934 1149.73 Q25.779 1151.7 25.779 1155.65 Q25.779 1160.39 28.8027 1163.13 Q31.8264 1165.87 37.0463 1165.87 L57.1937 1165.87 L57.1937 1171.75 L21.5458 1171.75 L21.5458 1165.87 L27.084 1165.87 Q23.8693 1163.76 22.2778 1160.93 Q20.6864 1158.07 20.6864 1154.34 Q20.6864 1148.2 24.5058 1145.05 Q28.2934 1141.9 35.6777 1141.9 Z" fill="#000000" fill-rule="nonzero" fill-opacity="1" /><path clip-path="url(#clip510)" d="M11.4243 1124.42 L21.5458 1124.42 L21.5458 1112.36 L26.0973 1112.36 L26.0973 1124.42 L45.449 1124.42 Q49.8095 1124.42 51.0508 1123.25 Q52.2922 1122.04 52.2922 1118.38 L52.2922 1112.36 L57.1937 1112.36 L57.1937 1118.38 Q57.1937 1125.16 54.6793 1127.73 Q52.133 1130.31 45.449 1130.31 L26.0973 1130.31 L26.0973 1134.61 L21.5458 1134.61 L21.5458 1130.31 L11.4243 1130.31 L11.4243 1124.42 Z" fill="#000000" fill-rule="nonzero" fill-opacity="1" /><path clip-path="url(#clip510)" d="M22.5961 1081.93 L28.1343 1081.93 Q26.8612 1084.42 26.2246 1087.09 Q25.588 1089.76 25.588 1092.63 Q25.588 1096.99 26.9248 1099.18 Q28.2616 1101.35 30.9352 1101.35 Q32.9722 1101.35 34.1499 1099.79 Q35.2957 1098.23 36.3461 1093.52 L36.7917 1091.51 Q38.1285 1085.28 40.5793 1082.67 Q42.9982 1080.02 47.3587 1080.02 Q52.324 1080.02 55.2204 1083.97 Q58.1168 1087.89 58.1168 1094.76 Q58.1168 1097.62 57.5439 1100.74 Q57.0028 1103.83 55.8888 1107.27 L49.8414 1107.27 Q51.5283 1104.02 52.3876 1100.87 Q53.2152 1097.72 53.2152 1094.63 Q53.2152 1090.5 51.8147 1088.27 Q50.3824 1086.04 47.8043 1086.04 Q45.4172 1086.04 44.144 1087.66 Q42.8709 1089.25 41.6933 1094.7 L41.2158 1096.73 Q40.07 1102.18 37.7147 1104.6 Q35.3275 1107.01 31.1898 1107.01 Q26.1609 1107.01 23.4237 1103.45 Q20.6864 1099.88 20.6864 1093.33 Q20.6864 1090.08 21.1638 1087.22 Q21.6413 1084.35 22.5961 1081.93 Z" fill="#000000" fill-rule="nonzero" fill-opacity="1" /><path clip-path="url(#clip510)" d="M7.73221 1035.91 Q15.0528 1040.17 22.2142 1042.24 Q29.3756 1044.31 36.728 1044.31 Q44.0804 1044.31 51.3055 1042.24 Q58.4987 1040.14 65.7875 1035.91 L65.7875 1041 Q58.3077 1045.78 51.0827 1048.16 Q43.8576 1050.52 36.728 1050.52 Q29.6302 1050.52 22.437 1048.16 Q15.2437 1045.81 7.73221 1041 L7.73221 1035.91 Z" fill="#000000" fill-rule="nonzero" fill-opacity="1" /><path clip-path="url(#clip510)" d="M51.7829 1022.6 L51.7829 1012.1 L15.5302 1012.1 L17.8219 1023.53 L11.9654 1023.53 L9.67375 1012.17 L9.67375 1005.74 L51.7829 1005.74 L51.7829 995.232 L57.1937 995.232 L57.1937 1022.6 L51.7829 1022.6 Z" fill="#000000" fill-rule="nonzero" fill-opacity="1" /><path clip-path="url(#clip510)" d="M13.9069 968.496 Q13.9069 973.462 18.8085 975.976 Q23.6783 978.459 33.4815 978.459 Q43.2529 978.459 48.1544 975.976 Q53.0242 973.462 53.0242 968.496 Q53.0242 963.499 48.1544 961.017 Q43.2529 958.502 33.4815 958.502 Q23.6783 958.502 18.8085 961.017 Q13.9069 963.499 13.9069 968.496 M8.81438 968.496 Q8.81438 960.507 15.1483 956.306 Q21.4503 952.073 33.4815 952.073 Q45.4808 952.073 51.8147 956.306 Q58.1168 960.507 58.1168 968.496 Q58.1168 976.485 51.8147 980.719 Q45.4808 984.92 33.4815 984.92 Q21.4503 984.92 15.1483 980.719 Q8.81438 976.485 8.81438 968.496 Z" fill="#000000" fill-rule="nonzero" fill-opacity="1" /><path clip-path="url(#clip510)" d="M13.9069 927.024 Q13.9069 931.989 18.8085 934.503 Q23.6783 936.986 33.4815 936.986 Q43.2529 936.986 48.1544 934.503 Q53.0242 931.989 53.0242 927.024 Q53.0242 922.027 48.1544 919.544 Q43.2529 917.03 33.4815 917.03 Q23.6783 917.03 18.8085 919.544 Q13.9069 922.027 13.9069 927.024 M8.81438 927.024 Q8.81438 919.035 15.1483 914.833 Q21.4503 910.6 33.4815 910.6 Q45.4808 910.6 51.8147 914.833 Q58.1168 919.035 58.1168 927.024 Q58.1168 935.013 51.8147 939.246 Q45.4808 943.447 33.4815 943.447 Q21.4503 943.447 15.1483 939.246 Q8.81438 935.013 8.81438 927.024 Z" fill="#000000" fill-rule="nonzero" fill-opacity="1" /><path clip-path="url(#clip510)" d="M13.9069 885.551 Q13.9069 890.516 18.8085 893.031 Q23.6783 895.514 33.4815 895.514 Q43.2529 895.514 48.1544 893.031 Q53.0242 890.516 53.0242 885.551 Q53.0242 880.554 48.1544 878.072 Q43.2529 875.557 33.4815 875.557 Q23.6783 875.557 18.8085 878.072 Q13.9069 880.554 13.9069 885.551 M8.81438 885.551 Q8.81438 877.562 15.1483 873.361 Q21.4503 869.128 33.4815 869.128 Q45.4808 869.128 51.8147 873.361 Q58.1168 877.562 58.1168 885.551 Q58.1168 893.54 51.8147 897.773 Q45.4808 901.975 33.4815 901.975 Q21.4503 901.975 15.1483 897.773 Q8.81438 893.54 8.81438 885.551 Z" fill="#000000" fill-rule="nonzero" fill-opacity="1" /><path clip-path="url(#clip510)" d="M22.5961 815.21 L28.1343 815.21 Q26.8612 817.693 26.2246 820.366 Q25.588 823.04 25.588 825.905 Q25.588 830.265 26.9248 832.461 Q28.2616 834.626 30.9352 834.626 Q32.9722 834.626 34.1499 833.066 Q35.2957 831.506 36.3461 826.796 L36.7917 824.791 Q38.1285 818.552 40.5793 815.942 Q42.9982 813.3 47.3587 813.3 Q52.324 813.3 55.2204 817.247 Q58.1168 821.162 58.1168 828.037 Q58.1168 830.902 57.5439 834.021 Q57.0028 837.108 55.8888 840.546 L49.8414 840.546 Q51.5283 837.299 52.3876 834.148 Q53.2152 830.997 53.2152 827.91 Q53.2152 823.772 51.8147 821.544 Q50.3824 819.316 47.8043 819.316 Q45.4172 819.316 44.144 820.939 Q42.8709 822.531 41.6933 827.973 L41.2158 830.01 Q40.07 835.453 37.7147 837.872 Q35.3275 840.291 31.1898 840.291 Q26.1609 840.291 23.4237 836.726 Q20.6864 833.161 20.6864 826.605 Q20.6864 823.358 21.1638 820.494 Q21.6413 817.629 22.5961 815.21 Z" fill="#000000" fill-rule="nonzero" fill-opacity="1" /><path clip-path="url(#clip510)" d="M39.2743 787.774 Q39.2743 794.872 40.8975 797.609 Q42.5208 800.346 46.4357 800.346 Q49.5549 800.346 51.401 798.309 Q53.2152 796.24 53.2152 792.707 Q53.2152 787.838 49.7777 784.909 Q46.3084 781.949 40.5793 781.949 L39.2743 781.949 L39.2743 787.774 M36.8553 776.093 L57.1937 776.093 L57.1937 781.949 L51.7829 781.949 Q55.0294 783.955 56.589 786.946 Q58.1168 789.938 58.1168 794.267 Q58.1168 799.741 55.0612 802.988 Q51.9739 806.203 46.8176 806.203 Q40.8021 806.203 37.7465 802.192 Q34.691 798.15 34.691 790.161 L34.691 781.949 L34.1181 781.949 Q30.0758 781.949 27.8797 784.623 Q25.6517 787.265 25.6517 792.071 Q25.6517 795.126 26.3837 798.023 Q27.1158 800.919 28.5799 803.593 L23.169 803.593 Q21.9277 800.378 21.323 797.354 Q20.6864 794.331 20.6864 791.466 Q20.6864 783.732 24.6968 779.912 Q28.7072 776.093 36.8553 776.093 Z" fill="#000000" fill-rule="nonzero" fill-opacity="1" /><path clip-path="url(#clip510)" d="M28.3889 736.275 Q24.4422 734.079 22.5643 731.024 Q20.6864 727.968 20.6864 723.83 Q20.6864 718.26 24.6013 715.237 Q28.4844 712.213 35.6777 712.213 L57.1937 712.213 L57.1937 718.101 L35.8686 718.101 Q30.7442 718.101 28.2616 719.916 Q25.779 721.73 25.779 725.454 Q25.779 730.005 28.8027 732.647 Q31.8264 735.289 37.0463 735.289 L57.1937 735.289 L57.1937 741.177 L35.8686 741.177 Q30.7124 741.177 28.2616 742.991 Q25.779 744.805 25.779 748.593 Q25.779 753.081 28.8345 755.723 Q31.8582 758.364 37.0463 758.364 L57.1937 758.364 L57.1937 764.253 L21.5458 764.253 L21.5458 758.364 L27.084 758.364 Q23.8056 756.359 22.246 753.558 Q20.6864 750.757 20.6864 746.906 Q20.6864 743.023 22.6598 740.318 Q24.6332 737.58 28.3889 736.275 Z" fill="#000000" fill-rule="nonzero" fill-opacity="1" /><path clip-path="url(#clip510)" d="M51.8466 694.866 L70.7527 694.866 L70.7527 700.755 L21.5458 700.755 L21.5458 694.866 L26.9566 694.866 Q23.7738 693.02 22.246 690.22 Q20.6864 687.387 20.6864 683.472 Q20.6864 676.979 25.8426 672.937 Q30.9989 668.863 39.4016 668.863 Q47.8043 668.863 52.9606 672.937 Q58.1168 676.979 58.1168 683.472 Q58.1168 687.387 56.589 690.22 Q55.0294 693.02 51.8466 694.866 M39.4016 674.942 Q32.9404 674.942 29.2801 677.615 Q25.588 680.257 25.588 684.904 Q25.588 689.551 29.2801 692.225 Q32.9404 694.866 39.4016 694.866 Q45.8628 694.866 49.5549 692.225 Q53.2152 689.551 53.2152 684.904 Q53.2152 680.257 49.5549 677.615 Q45.8628 674.942 39.4016 674.942 Z" fill="#000000" fill-rule="nonzero" fill-opacity="1" /><path clip-path="url(#clip510)" d="M7.66855 659.155 L7.66855 653.298 L57.1937 653.298 L57.1937 659.155 L7.66855 659.155 Z" fill="#000000" fill-rule="nonzero" fill-opacity="1" /><path clip-path="url(#clip510)" d="M37.9057 610.553 L40.7702 610.553 L40.7702 637.48 Q46.8176 637.098 50.0005 633.851 Q53.1515 630.573 53.1515 624.748 Q53.1515 621.374 52.324 618.223 Q51.4964 615.041 49.8414 611.921 L55.3795 611.921 Q56.7163 615.072 57.4165 618.383 Q58.1168 621.693 58.1168 625.098 Q58.1168 633.628 53.1515 638.625 Q48.1863 643.591 39.7199 643.591 Q30.967 643.591 25.8426 638.88 Q20.6864 634.138 20.6864 626.117 Q20.6864 618.924 25.3334 614.754 Q29.9485 610.553 37.9057 610.553 M36.1869 616.409 Q31.3808 616.473 28.5162 619.115 Q25.6517 621.724 25.6517 626.053 Q25.6517 630.955 28.4208 633.915 Q31.1898 636.843 36.2187 637.289 L36.1869 616.409 Z" fill="#000000" fill-rule="nonzero" fill-opacity="1" /><path clip-path="url(#clip510)" d="M22.5961 578.215 L28.1343 578.215 Q26.8612 580.698 26.2246 583.371 Q25.588 586.045 25.588 588.909 Q25.588 593.27 26.9248 595.466 Q28.2616 597.63 30.9352 597.63 Q32.9722 597.63 34.1499 596.071 Q35.2957 594.511 36.3461 589.8 L36.7917 587.795 Q38.1285 581.557 40.5793 578.947 Q42.9982 576.305 47.3587 576.305 Q52.324 576.305 55.2204 580.252 Q58.1168 584.167 58.1168 591.042 Q58.1168 593.906 57.5439 597.026 Q57.0028 600.113 55.8888 603.55 L49.8414 603.55 Q51.5283 600.304 52.3876 597.153 Q53.2152 594.002 53.2152 590.914 Q53.2152 586.777 51.8147 584.549 Q50.3824 582.321 47.8043 582.321 Q45.4172 582.321 44.144 583.944 Q42.8709 585.535 41.6933 590.978 L41.2158 593.015 Q40.07 598.458 37.7147 600.877 Q35.3275 603.296 31.1898 603.296 Q26.1609 603.296 23.4237 599.731 Q20.6864 596.166 20.6864 589.61 Q20.6864 586.363 21.1638 583.498 Q21.6413 580.634 22.5961 578.215 Z" fill="#000000" fill-rule="nonzero" fill-opacity="1" /><path clip-path="url(#clip510)" d="M7.73221 567.902 L7.73221 562.81 Q15.2437 558.036 22.437 555.68 Q29.6302 553.293 36.728 553.293 Q43.8576 553.293 51.0827 555.68 Q58.3077 558.036 65.7875 562.81 L65.7875 567.902 Q58.4987 563.669 51.3055 561.6 Q44.0804 559.5 36.728 559.5 Q29.3756 559.5 22.2142 561.6 Q15.0528 563.669 7.73221 567.902 Z" fill="#000000" fill-rule="nonzero" fill-opacity="1" /><path clip-path="url(#clip510)" d="M850.896 12.096 L863.089 12.096 L878.523 53.2532 L894.038 12.096 L906.231 12.096 L906.231 72.576 L898.251 72.576 L898.251 19.4686 L882.655 60.9499 L874.431 60.9499 L858.836 19.4686 L858.836 72.576 L850.896 72.576 L850.896 12.096 Z" fill="#000000" fill-rule="nonzero" fill-opacity="1" /><path clip-path="url(#clip510)" d="M922.475 12.096 L930.658 12.096 L930.658 72.576 L922.475 72.576 L922.475 12.096 Z" fill="#000000" fill-rule="nonzero" fill-opacity="1" /><path clip-path="url(#clip510)" d="M946.943 12.096 L959.136 12.096 L974.57 53.2532 L990.085 12.096 L1002.28 12.096 L1002.28 72.576 L994.298 72.576 L994.298 19.4686 L978.702 60.9499 L970.478 60.9499 L954.882 19.4686 L954.882 72.576 L946.943 72.576 L946.943 12.096 Z" fill="#000000" fill-rule="nonzero" fill-opacity="1" /><path clip-path="url(#clip510)" d="M1018.52 12.096 L1026.7 12.096 L1026.7 72.576 L1018.52 72.576 L1018.52 12.096 Z" fill="#000000" fill-rule="nonzero" fill-opacity="1" /><path clip-path="url(#clip510)" d="M1067.54 17.6457 Q1058.63 17.6457 1053.36 24.2892 Q1048.13 30.9327 1048.13 42.3968 Q1048.13 53.8203 1053.36 60.4638 Q1058.63 67.1073 1067.54 67.1073 Q1076.45 67.1073 1081.64 60.4638 Q1086.86 53.8203 1086.86 42.3968 Q1086.86 30.9327 1081.64 24.2892 Q1076.45 17.6457 1067.54 17.6457 M1079 71.4823 L1089.78 83.2704 L1079.89 83.2704 L1070.94 73.5887 Q1069.6 73.6697 1068.87 73.7103 Q1068.19 73.7508 1067.54 73.7508 Q1054.78 73.7508 1047.12 65.2439 Q1039.51 56.6965 1039.51 42.3968 Q1039.51 28.0566 1047.12 19.5497 Q1054.78 11.0023 1067.54 11.0023 Q1080.26 11.0023 1087.87 19.5497 Q1095.49 28.0566 1095.49 42.3968 Q1095.49 52.9291 1091.24 60.4233 Q1087.02 67.9175 1079 71.4823 Z" fill="#000000" fill-rule="nonzero" fill-opacity="1" /><path clip-path="url(#clip510)" d="M1106.51 46.5287 L1128.34 46.5287 L1128.34 53.1722 L1106.51 53.1722 L1106.51 46.5287 Z" fill="#000000" fill-rule="nonzero" fill-opacity="1" /><path clip-path="url(#clip510)" d="M1176.79 14.0809 L1176.79 22.0612 Q1172.13 19.8332 1168 18.7395 Q1163.87 17.6457 1160.02 17.6457 Q1153.34 17.6457 1149.69 20.2383 Q1146.09 22.8309 1146.09 27.611 Q1146.09 31.6214 1148.48 33.6873 Q1150.91 35.7128 1157.63 36.9686 L1162.57 37.9813 Q1171.73 39.7232 1176.06 44.1387 Q1180.44 48.5136 1180.44 55.8863 Q1180.44 64.6767 1174.52 69.2137 Q1168.65 73.7508 1157.27 73.7508 Q1152.97 73.7508 1148.11 72.7785 Q1143.29 71.8063 1138.1 69.9024 L1138.1 61.4765 Q1143.09 64.2716 1147.87 65.6895 Q1152.65 67.1073 1157.27 67.1073 Q1164.27 67.1073 1168.08 64.3527 Q1171.89 61.598 1171.89 56.4939 Q1171.89 52.0379 1169.13 49.5264 Q1166.42 47.0148 1160.18 45.759 L1155.2 44.7868 Q1146.04 42.9639 1141.95 39.075 Q1137.86 35.1862 1137.86 28.2591 Q1137.86 20.2383 1143.49 15.6203 Q1149.16 11.0023 1159.09 11.0023 Q1163.34 11.0023 1167.76 11.7719 Q1172.17 12.5416 1176.79 14.0809 Z" fill="#000000" fill-rule="nonzero" fill-opacity="1" /><path clip-path="url(#clip510)" d="M1200.25 14.324 L1200.25 27.2059 L1215.6 27.2059 L1215.6 32.9987 L1200.25 32.9987 L1200.25 57.6282 Q1200.25 63.1779 1201.74 64.7578 Q1203.28 66.3376 1207.94 66.3376 L1215.6 66.3376 L1215.6 72.576 L1207.94 72.576 Q1199.31 72.576 1196.03 69.3758 Q1192.75 66.1351 1192.75 57.6282 L1192.75 32.9987 L1187.28 32.9987 L1187.28 27.2059 L1192.75 27.2059 L1192.75 14.324 L1200.25 14.324 Z" fill="#000000" fill-rule="nonzero" fill-opacity="1" /><path clip-path="url(#clip510)" d="M1246.02 49.7694 Q1236.99 49.7694 1233.5 51.8354 Q1230.02 53.9013 1230.02 58.8839 Q1230.02 62.8538 1232.61 65.2034 Q1235.25 67.5124 1239.74 67.5124 Q1245.94 67.5124 1249.67 63.1374 Q1253.43 58.7219 1253.43 51.4303 L1253.43 49.7694 L1246.02 49.7694 M1260.89 46.6907 L1260.89 72.576 L1253.43 72.576 L1253.43 65.6895 Q1250.88 69.8214 1247.07 71.8063 Q1243.27 73.7508 1237.76 73.7508 Q1230.79 73.7508 1226.66 69.8619 Q1222.57 65.9325 1222.57 59.3701 Q1222.57 51.7138 1227.67 47.825 Q1232.81 43.9361 1242.98 43.9361 L1253.43 43.9361 L1253.43 43.2069 Q1253.43 38.0623 1250.03 35.2672 Q1246.67 32.4315 1240.55 32.4315 Q1236.66 32.4315 1232.98 33.3632 Q1229.29 34.295 1225.89 36.1584 L1225.89 29.2718 Q1229.98 27.692 1233.83 26.9223 Q1237.68 26.1121 1241.32 26.1121 Q1251.17 26.1121 1256.03 31.2163 Q1260.89 36.3204 1260.89 46.6907 Z" fill="#000000" fill-rule="nonzero" fill-opacity="1" /><path clip-path="url(#clip510)" d="M1283.61 14.324 L1283.61 27.2059 L1298.97 27.2059 L1298.97 32.9987 L1283.61 32.9987 L1283.61 57.6282 Q1283.61 63.1779 1285.11 64.7578 Q1286.65 66.3376 1291.31 66.3376 L1298.97 66.3376 L1298.97 72.576 L1291.31 72.576 Q1282.68 72.576 1279.4 69.3758 Q1276.12 66.1351 1276.12 57.6282 L1276.12 32.9987 L1270.65 32.9987 L1270.65 27.2059 L1276.12 27.2059 L1276.12 14.324 L1283.61 14.324 Z" fill="#000000" fill-rule="nonzero" fill-opacity="1" /><path clip-path="url(#clip510)" d="M1347.58 48.0275 L1347.58 51.6733 L1313.31 51.6733 Q1313.79 59.3701 1317.92 63.421 Q1322.1 67.4314 1329.51 67.4314 Q1333.8 67.4314 1337.81 66.3781 Q1341.87 65.3249 1345.84 63.2184 L1345.84 70.267 Q1341.82 71.9684 1337.61 72.8596 Q1333.4 73.7508 1329.06 73.7508 Q1318.21 73.7508 1311.85 67.4314 Q1305.53 61.1119 1305.53 50.3365 Q1305.53 39.1965 1311.52 32.6746 Q1317.56 26.1121 1327.77 26.1121 Q1336.92 26.1121 1342.23 32.0264 Q1347.58 37.9003 1347.58 48.0275 M1340.12 45.84 Q1340.04 39.7232 1336.68 36.0774 Q1333.36 32.4315 1327.85 32.4315 Q1321.61 32.4315 1317.84 35.9558 Q1314.12 39.4801 1313.55 45.8805 L1340.12 45.84 Z" fill="#000000" fill-rule="nonzero" fill-opacity="1" /><path clip-path="url(#clip510)" d="M1375.73 72.576 L1352.64 12.096 L1361.19 12.096 L1380.35 63.0159 L1399.55 12.096 L1408.06 12.096 L1385.01 72.576 L1375.73 72.576 Z" fill="#000000" fill-rule="nonzero" fill-opacity="1" /><path clip-path="url(#clip510)" d="M1448.93 48.0275 L1448.93 51.6733 L1414.66 51.6733 Q1415.15 59.3701 1419.28 63.421 Q1423.45 67.4314 1430.86 67.4314 Q1435.16 67.4314 1439.17 66.3781 Q1443.22 65.3249 1447.19 63.2184 L1447.19 70.267 Q1443.18 71.9684 1438.97 72.8596 Q1434.75 73.7508 1430.42 73.7508 Q1419.56 73.7508 1413.2 67.4314 Q1406.88 61.1119 1406.88 50.3365 Q1406.88 39.1965 1412.88 32.6746 Q1418.91 26.1121 1429.12 26.1121 Q1438.28 26.1121 1443.58 32.0264 Q1448.93 37.9003 1448.93 48.0275 M1441.48 45.84 Q1441.4 39.7232 1438.03 36.0774 Q1434.71 32.4315 1429.2 32.4315 Q1422.96 32.4315 1419.2 35.9558 Q1415.47 39.4801 1414.9 45.8805 L1441.48 45.84 Z" fill="#000000" fill-rule="nonzero" fill-opacity="1" /><path clip-path="url(#clip510)" d="M1493.81 28.9478 L1493.81 35.9153 Q1490.66 34.1734 1487.45 33.3227 Q1484.3 32.4315 1481.05 32.4315 Q1473.8 32.4315 1469.79 37.0496 Q1465.78 41.6271 1465.78 49.9314 Q1465.78 58.2358 1469.79 62.8538 Q1473.8 67.4314 1481.05 67.4314 Q1484.3 67.4314 1487.45 66.5807 Q1490.66 65.6895 1493.81 63.9476 L1493.81 70.8341 Q1490.7 72.2924 1487.33 73.0216 Q1484.01 73.7508 1480.24 73.7508 Q1470 73.7508 1463.96 67.3098 Q1457.92 60.8689 1457.92 49.9314 Q1457.92 38.832 1464 32.472 Q1470.12 26.1121 1480.73 26.1121 Q1484.17 26.1121 1487.45 26.8413 Q1490.74 27.5299 1493.81 28.9478 Z" fill="#000000" fill-rule="nonzero" fill-opacity="1" /><path clip-path="url(#clip510)" d="M1514.15 14.324 L1514.15 27.2059 L1529.5 27.2059 L1529.5 32.9987 L1514.15 32.9987 L1514.15 57.6282 Q1514.15 63.1779 1515.65 64.7578 Q1517.19 66.3376 1521.85 66.3376 L1529.5 66.3376 L1529.5 72.576 L1521.85 72.576 Q1513.22 72.576 1509.94 69.3758 Q1506.66 66.1351 1506.66 57.6282 L1506.66 32.9987 L1501.19 32.9987 L1501.19 27.2059 L1506.66 27.2059 L1506.66 14.324 L1514.15 14.324 Z" fill="#000000" fill-rule="nonzero" fill-opacity="1" /><path clip-path="url(#clip510)" d="M1556.89 32.4315 Q1550.89 32.4315 1547.41 37.1306 Q1543.92 41.7891 1543.92 49.9314 Q1543.92 58.0738 1547.37 62.7728 Q1550.85 67.4314 1556.89 67.4314 Q1562.84 67.4314 1566.33 62.7323 Q1569.81 58.0333 1569.81 49.9314 Q1569.81 41.8701 1566.33 37.1711 Q1562.84 32.4315 1556.89 32.4315 M1556.89 26.1121 Q1566.61 26.1121 1572.16 32.4315 Q1577.71 38.7509 1577.71 49.9314 Q1577.71 61.0714 1572.16 67.4314 Q1566.61 73.7508 1556.89 73.7508 Q1547.12 73.7508 1541.57 67.4314 Q1536.07 61.0714 1536.07 49.9314 Q1536.07 38.7509 1541.57 32.4315 Q1547.12 26.1121 1556.89 26.1121 Z" fill="#000000" fill-rule="nonzero" fill-opacity="1" /><path clip-path="url(#clip510)" d="M1616.35 34.1734 Q1615.1 33.4443 1613.6 33.1202 Q1612.14 32.7556 1610.36 32.7556 Q1604.04 32.7556 1600.64 36.8875 Q1597.27 40.9789 1597.27 48.6757 L1597.27 72.576 L1589.78 72.576 L1589.78 27.2059 L1597.27 27.2059 L1597.27 34.2544 Q1599.62 30.1225 1603.39 28.1376 Q1607.16 26.1121 1612.55 26.1121 Q1613.32 26.1121 1614.25 26.2337 Q1615.18 26.3147 1616.31 26.5172 L1616.35 34.1734 Z" fill="#000000" fill-rule="nonzero" fill-opacity="1" /><path clip-path="url(#clip510)" d="M1669.1 17.4837 Q1662.78 17.4837 1659.58 23.7221 Q1656.42 29.92 1656.42 42.3968 Q1656.42 54.833 1659.58 61.0714 Q1662.78 67.2693 1669.1 67.2693 Q1675.46 67.2693 1678.62 61.0714 Q1681.82 54.833 1681.82 42.3968 Q1681.82 29.92 1678.62 23.7221 Q1675.46 17.4837 1669.1 17.4837 M1669.1 11.0023 Q1679.27 11.0023 1684.61 19.0636 Q1690 27.0843 1690 42.3968 Q1690 57.6687 1684.61 65.73 Q1679.27 73.7508 1669.1 73.7508 Q1658.93 73.7508 1653.54 65.73 Q1648.19 57.6687 1648.19 42.3968 Q1648.19 27.0843 1653.54 19.0636 Q1658.93 11.0023 1669.1 11.0023 Z" fill="#000000" fill-rule="nonzero" fill-opacity="1" /><path clip-path="url(#clip510)" d="M1704.38 62.2867 L1712.93 62.2867 L1712.93 72.576 L1704.38 72.576 L1704.38 62.2867 Z" fill="#000000" fill-rule="nonzero" fill-opacity="1" /><path clip-path="url(#clip510)" d="M1732.17 65.6895 L1745.54 65.6895 L1745.54 19.5497 L1731 22.4663 L1731 15.0127 L1745.46 12.096 L1753.64 12.096 L1753.64 65.6895 L1767.01 65.6895 L1767.01 72.576 L1732.17 72.576 L1732.17 65.6895 Z" fill="#000000" fill-rule="nonzero" fill-opacity="1" /><path clip-path="url(#clip510)" d="M1790.58 65.6895 L1819.14 65.6895 L1819.14 72.576 L1780.74 72.576 L1780.74 65.6895 Q1785.4 60.8689 1793.42 52.7671 Q1801.48 44.6248 1803.55 42.2752 Q1807.48 37.8598 1809.02 34.8216 Q1810.6 31.7429 1810.6 28.7857 Q1810.6 23.9651 1807.19 20.927 Q1803.83 17.8888 1798.4 17.8888 Q1794.55 17.8888 1790.26 19.2256 Q1786.01 20.5624 1781.15 23.2765 L1781.15 15.0127 Q1786.09 13.0277 1790.38 12.015 Q1794.68 11.0023 1798.24 11.0023 Q1807.64 11.0023 1813.23 15.7013 Q1818.82 20.4004 1818.82 28.2591 Q1818.82 31.9859 1817.4 35.3482 Q1816.02 38.6699 1812.34 43.2069 Q1811.32 44.3817 1805.9 50.0125 Q1800.47 55.6027 1790.58 65.6895 Z" fill="#000000" fill-rule="nonzero" fill-opacity="1" /><path clip-path="url(#clip510)" d="M1836.32 62.2867 L1844.87 62.2867 L1844.87 72.576 L1836.32 72.576 L1836.32 62.2867 Z" fill="#000000" fill-rule="nonzero" fill-opacity="1" /><path clip-path="url(#clip510)" d="M1880.19 17.4837 Q1873.87 17.4837 1870.67 23.7221 Q1867.51 29.92 1867.51 42.3968 Q1867.51 54.833 1870.67 61.0714 Q1873.87 67.2693 1880.19 67.2693 Q1886.55 67.2693 1889.71 61.0714 Q1892.91 54.833 1892.91 42.3968 Q1892.91 29.92 1889.71 23.7221 Q1886.55 17.4837 1880.19 17.4837 M1880.19 11.0023 Q1890.36 11.0023 1895.7 19.0636 Q1901.09 27.0843 1901.09 42.3968 Q1901.09 57.6687 1895.7 65.73 Q1890.36 73.7508 1880.19 73.7508 Q1870.02 73.7508 1864.63 65.73 Q1859.29 57.6687 1859.29 42.3968 Q1859.29 27.0843 1864.63 19.0636 Q1870.02 11.0023 1880.19 11.0023 Z" fill="#000000" fill-rule="nonzero" fill-opacity="1" /><path clip-path="url(#clip510)" d="M1963.76 9.54393 L1963.76 15.7418 L1956.63 15.7418 Q1952.62 15.7418 1951.04 17.3622 Q1949.5 18.9825 1949.5 23.1955 L1949.5 27.2059 L1961.78 27.2059 L1961.78 32.9987 L1949.5 32.9987 L1949.5 72.576 L1942.01 72.576 L1942.01 32.9987 L1934.88 32.9987 L1934.88 27.2059 L1942.01 27.2059 L1942.01 24.0462 Q1942.01 16.471 1945.53 13.0277 Q1949.06 9.54393 1956.71 9.54393 L1963.76 9.54393 Z" fill="#000000" fill-rule="nonzero" fill-opacity="1" /><path clip-path="url(#clip510)" d="M1970 27.2059 L1977.45 27.2059 L1977.45 72.576 L1970 72.576 L1970 27.2059 M1970 9.54393 L1977.45 9.54393 L1977.45 18.9825 L1970 18.9825 L1970 9.54393 Z" fill="#000000" fill-rule="nonzero" fill-opacity="1" /><path clip-path="url(#clip510)" d="M2022.9 34.0924 L2022.9 9.54393 L2030.36 9.54393 L2030.36 72.576 L2022.9 72.576 L2022.9 65.7705 Q2020.55 69.8214 2016.95 71.8063 Q2013.38 73.7508 2008.36 73.7508 Q2000.14 73.7508 1994.95 67.1883 Q1989.81 60.6258 1989.81 49.9314 Q1989.81 39.2371 1994.95 32.6746 Q2000.14 26.1121 2008.36 26.1121 Q2013.38 26.1121 2016.95 28.0971 Q2020.55 30.0415 2022.9 34.0924 M1997.5 49.9314 Q1997.5 58.1548 2000.87 62.8538 Q2004.27 67.5124 2010.18 67.5124 Q2016.1 67.5124 2019.5 62.8538 Q2022.9 58.1548 2022.9 49.9314 Q2022.9 41.7081 2019.5 37.0496 Q2016.1 32.3505 2010.18 32.3505 Q2004.27 32.3505 2000.87 37.0496 Q1997.5 41.7081 1997.5 49.9314 Z" fill="#000000" fill-rule="nonzero" fill-opacity="1" /><path clip-path="url(#clip510)" d="M2084.52 48.0275 L2084.52 51.6733 L2050.25 51.6733 Q2050.73 59.3701 2054.86 63.421 Q2059.04 67.4314 2066.45 67.4314 Q2070.74 67.4314 2074.75 66.3781 Q2078.81 65.3249 2082.78 63.2184 L2082.78 70.267 Q2078.77 71.9684 2074.55 72.8596 Q2070.34 73.7508 2066 73.7508 Q2055.15 73.7508 2048.79 67.4314 Q2042.47 61.1119 2042.47 50.3365 Q2042.47 39.1965 2048.46 32.6746 Q2054.5 26.1121 2064.71 26.1121 Q2073.86 26.1121 2079.17 32.0264 Q2084.52 37.9003 2084.52 48.0275 M2077.06 45.84 Q2076.98 39.7232 2073.62 36.0774 Q2070.3 32.4315 2064.79 32.4315 Q2058.55 32.4315 2054.78 35.9558 Q2051.06 39.4801 2050.49 45.8805 L2077.06 45.84 Z" fill="#000000" fill-rule="nonzero" fill-opacity="1" /><path clip-path="url(#clip510)" d="M2096.75 9.54393 L2104.2 9.54393 L2104.2 72.576 L2096.75 72.576 L2096.75 9.54393 Z" fill="#000000" fill-rule="nonzero" fill-opacity="1" /><path clip-path="url(#clip510)" d="M2119.8 27.2059 L2127.25 27.2059 L2127.25 72.576 L2119.8 72.576 L2119.8 27.2059 M2119.8 9.54393 L2127.25 9.54393 L2127.25 18.9825 L2119.8 18.9825 L2119.8 9.54393 Z" fill="#000000" fill-rule="nonzero" fill-opacity="1" /><path clip-path="url(#clip510)" d="M2150.22 14.324 L2150.22 27.2059 L2165.58 27.2059 L2165.58 32.9987 L2150.22 32.9987 L2150.22 57.6282 Q2150.22 63.1779 2151.72 64.7578 Q2153.26 66.3376 2157.92 66.3376 L2165.58 66.3376 L2165.58 72.576 L2157.92 72.576 Q2149.29 72.576 2146.01 69.3758 Q2142.73 66.1351 2142.73 57.6282 L2142.73 32.9987 L2137.26 32.9987 L2137.26 27.2059 L2142.73 27.2059 L2142.73 14.324 L2150.22 14.324 Z" fill="#000000" fill-rule="nonzero" fill-opacity="1" /><path clip-path="url(#clip510)" d="M2194.26 76.7889 Q2191.1 84.8907 2188.1 87.3618 Q2185.1 89.8329 2180.08 89.8329 L2174.12 89.8329 L2174.12 83.5945 L2178.5 83.5945 Q2181.58 83.5945 2183.28 82.1361 Q2184.98 80.6778 2187.05 75.2496 L2188.38 71.8468 L2170.03 27.2059 L2177.93 27.2059 L2192.11 62.6918 L2206.29 27.2059 L2214.19 27.2059 L2194.26 76.7889 Z" fill="#000000" fill-rule="nonzero" fill-opacity="1" /><path clip-path="url(#clip510)" d="M2225.45 34.9026 L2277.38 34.9026 L2277.38 41.7081 L2225.45 41.7081 L2225.45 34.9026 M2225.45 51.4303 L2277.38 51.4303 L2277.38 58.3168 L2225.45 58.3168 L2225.45 51.4303 Z" fill="#000000" fill-rule="nonzero" fill-opacity="1" /><path clip-path="url(#clip510)" d="M2296.46 65.6895 L2309.83 65.6895 L2309.83 19.5497 L2295.29 22.4663 L2295.29 15.0127 L2309.75 12.096 L2317.93 12.096 L2317.93 65.6895 L2331.3 65.6895 L2331.3 72.576 L2296.46 72.576 L2296.46 65.6895 Z" fill="#000000" fill-rule="nonzero" fill-opacity="1" /><path clip-path="url(#clip510)" d="M2347.83 62.2867 L2356.37 62.2867 L2356.37 72.576 L2347.83 72.576 L2347.83 62.2867 Z" fill="#000000" fill-rule="nonzero" fill-opacity="1" /><path clip-path="url(#clip510)" d="M2391.7 17.4837 Q2385.38 17.4837 2382.18 23.7221 Q2379.02 29.92 2379.02 42.3968 Q2379.02 54.833 2382.18 61.0714 Q2385.38 67.2693 2391.7 67.2693 Q2398.06 67.2693 2401.22 61.0714 Q2404.42 54.833 2404.42 42.3968 Q2404.42 29.92 2401.22 23.7221 Q2398.06 17.4837 2391.7 17.4837 M2391.7 11.0023 Q2401.87 11.0023 2407.21 19.0636 Q2412.6 27.0843 2412.6 42.3968 Q2412.6 57.6687 2407.21 65.73 Q2401.87 73.7508 2391.7 73.7508 Q2381.53 73.7508 2376.14 65.73 Q2370.79 57.6687 2370.79 42.3968 Q2370.79 27.0843 2376.14 19.0636 Q2381.53 11.0023 2391.7 11.0023 Z" fill="#000000" fill-rule="nonzero" fill-opacity="1" /><path clip-path="url(#clip512)" d="M404.198 204.724 L404.198 1649.29 L1495.35 1649.29 L1495.35 204.724 L404.198 204.724 L404.198 204.724  Z" fill="#0c7e8f" fill-rule="evenodd" fill-opacity="1"/>
<polyline clip-path="url(#clip512)" style="stroke:#000000; stroke-linecap:round; stroke-linejoin:round; stroke-width:4; stroke-opacity:1; fill:none" points="404.198,204.724 404.198,1649.29 1495.35,1649.29 1495.35,204.724 404.198,204.724 "/>
<path clip-path="url(#clip512)" d="M1768.14 315.845 L1768.14 1649.29 L2859.3 1649.29 L2859.3 315.845 L1768.14 315.845 L1768.14 315.845  Z" fill="#0c7e8f" fill-rule="evenodd" fill-opacity="1"/>
<polyline clip-path="url(#clip512)" style="stroke:#000000; stroke-linecap:round; stroke-linejoin:round; stroke-width:4; stroke-opacity:1; fill:none" points="1768.14,315.845 1768.14,1649.29 2859.3,1649.29 2859.3,315.845 1768.14,315.845 "/>
<circle clip-path="url(#clip512)" style="fill:#009af9; stroke:none; fill-opacity:0" cx="949.776" cy="204.724" r="2"/>
<circle clip-path="url(#clip512)" style="fill:#009af9; stroke:none; fill-opacity:0" cx="2313.72" cy="315.845" r="2"/>
</svg>
