<?xml version="1.0" encoding="utf-8"?>
<svg xmlns="http://www.w3.org/2000/svg" xmlns:xlink="http://www.w3.org/1999/xlink" width="800" height="420" viewBox="0 0 3200 1680">
<defs>
  <clipPath id="clip640">
    <rect x="0" y="0" width="3200" height="1680"/>
  </clipPath>
</defs>
<path clip-path="url(#clip640)" d="M0 1680 L3200 1680 L3200 0 L0 0  Z" fill="#ffffff" fill-rule="evenodd" fill-opacity="1"/>
<defs>
  <clipPath id="clip641">
    <rect x="374" y="252" width="2637" height="1231"/>
  </clipPath>
</defs>
<path clip-path="url(#clip640)" d="M374.917 1481.96 L3011.02 1481.96 L3011.02 252.352 L374.917 252.352  Z" fill="#ffffff" fill-rule="evenodd" fill-opacity="1"/>
<polyline clip-path="url(#clip641)" style="stroke:#000000; stroke-linecap:round; stroke-linejoin:round; stroke-width:2; stroke-opacity:0.1; fill:none" points="1041.27,1481.96 1041.27,252.352 "/>
<polyline clip-path="url(#clip641)" style="stroke:#000000; stroke-linecap:round; stroke-linejoin:round; stroke-width:2; stroke-opacity:0.1; fill:none" points="2344.67,1481.96 2344.67,252.352 "/>
<polyline clip-path="url(#clip641)" style="stroke:#000000; stroke-linecap:round; stroke-linejoin:round; stroke-width:2; stroke-opacity:0.1; fill:none" points="374.917,1481.96 3011.02,1481.96 "/>
<polyline clip-path="url(#clip641)" style="stroke:#000000; stroke-linecap:round; stroke-linejoin:round; stroke-width:2; stroke-opacity:0.1; fill:none" points="374.917,1237.99 3011.02,1237.99 "/>
<polyline clip-path="url(#clip641)" style="stroke:#000000; stroke-linecap:round; stroke-linejoin:round; stroke-width:2; stroke-opacity:0.1; fill:none" points="374.917,994.02 3011.02,994.02 "/>
<polyline clip-path="url(#clip641)" style="stroke:#000000; stroke-linecap:round; stroke-linejoin:round; stroke-width:2; stroke-opacity:0.1; fill:none" points="374.917,750.051 3011.02,750.051 "/>
<polyline clip-path="url(#clip641)" style="stroke:#000000; stroke-linecap:round; stroke-linejoin:round; stroke-width:2; stroke-opacity:0.1; fill:none" points="374.917,506.081 3011.02,506.081 "/>
<polyline clip-path="url(#clip641)" style="stroke:#000000; stroke-linecap:round; stroke-linejoin:round; stroke-width:2; stroke-opacity:0.1; fill:none" points="374.917,262.111 3011.02,262.111 "/>
<polyline clip-path="url(#clip640)" style="stroke:#000000; stroke-linecap:round; stroke-linejoin:round; stroke-width:4; stroke-opacity:1; fill:none" points="374.917,1481.96 3011.02,1481.96 "/>
<polyline clip-path="url(#clip640)" style="stroke:#000000; stroke-linecap:round; stroke-linejoin:round; stroke-width:4; stroke-opacity:1; fill:none" points="1041.27,1481.96 1041.27,1463.06 "/>
<polyline clip-path="url(#clip640)" style="stroke:#000000; stroke-linecap:round; stroke-linejoin:round; stroke-width:4; stroke-opacity:1; fill:none" points="2344.67,1481.96 2344.67,1463.06 "/>
<path clip-path="url(#clip640)" d="M1054.61 1557.63 L1054.61 1549.99 L1028.25 1549.99 L1029.91 1558.3 L1025.66 1558.3 L1023.99 1550.04 L1023.99 1545.36 L1054.61 1545.36 L1054.61 1537.72 L1058.55 1537.72 L1058.55 1557.63 L1054.61 1557.63 Z" fill="#000000" fill-rule="nonzero" fill-opacity="1" /><path clip-path="url(#clip640)" d="M1054.61 1527.47 L1054.61 1519.83 L1028.25 1519.83 L1029.91 1528.14 L1025.66 1528.14 L1023.99 1519.87 L1023.99 1515.2 L1054.61 1515.2 L1054.61 1507.56 L1058.55 1507.56 L1058.55 1527.47 L1054.61 1527.47 Z" fill="#000000" fill-rule="nonzero" fill-opacity="1" /><path clip-path="url(#clip640)" d="M2358.02 1558.86 L2358.02 1551.22 L2331.65 1551.22 L2333.32 1559.53 L2329.06 1559.53 L2327.39 1551.26 L2327.39 1546.59 L2358.02 1546.59 L2358.02 1538.95 L2361.95 1538.95 L2361.95 1558.86 L2358.02 1558.86 Z" fill="#000000" fill-rule="nonzero" fill-opacity="1" /><path clip-path="url(#clip640)" d="M2330.47 1519.5 Q2330.47 1523.12 2334.04 1524.94 Q2337.58 1526.75 2344.71 1526.75 Q2351.81 1526.75 2355.38 1524.94 Q2358.92 1523.12 2358.92 1519.5 Q2358.92 1515.87 2355.38 1514.06 Q2351.81 1512.24 2344.71 1512.24 Q2337.58 1512.24 2334.04 1514.06 Q2330.47 1515.87 2330.47 1519.5 M2326.77 1519.5 Q2326.77 1513.69 2331.37 1510.64 Q2335.96 1507.56 2344.71 1507.56 Q2353.43 1507.56 2358.04 1510.64 Q2362.62 1513.69 2362.62 1519.5 Q2362.62 1525.31 2358.04 1528.39 Q2353.43 1531.45 2344.71 1531.45 Q2335.96 1531.45 2331.37 1528.39 Q2326.77 1525.31 2326.77 1519.5 Z" fill="#000000" fill-rule="nonzero" fill-opacity="1" /><path clip-path="url(#clip640)" d="M1567.8 1616.26 L1567.8 1633.67 L1578.12 1633.67 Q1583.31 1633.67 1585.79 1631.53 Q1588.3 1629.37 1588.3 1624.95 Q1588.3 1620.49 1585.79 1618.39 Q1583.31 1616.26 1578.12 1616.26 L1567.8 1616.26 M1567.8 1596.71 L1567.8 1611.04 L1577.32 1611.04 Q1582.03 1611.04 1584.32 1609.29 Q1586.65 1607.5 1586.65 1603.88 Q1586.65 1600.28 1584.32 1598.5 Q1582.03 1596.71 1577.32 1596.71 L1567.8 1596.71 M1561.38 1591.43 L1577.8 1591.43 Q1585.15 1591.43 1589.13 1594.49 Q1593.11 1597.54 1593.11 1603.18 Q1593.11 1607.54 1591.07 1610.11 Q1589.03 1612.69 1585.09 1613.33 Q1589.83 1614.35 1592.44 1617.59 Q1595.08 1620.81 1595.08 1625.65 Q1595.08 1632.01 1590.75 1635.48 Q1586.42 1638.95 1578.44 1638.95 L1561.38 1638.95 L1561.38 1591.43 Z" fill="#000000" fill-rule="nonzero" fill-opacity="1" /><path clip-path="url(#clip640)" d="M1605.84 1603.3 L1611.7 1603.3 L1611.7 1638.95 L1605.84 1638.95 L1605.84 1603.3 M1605.84 1589.43 L1611.7 1589.43 L1611.7 1596.84 L1605.84 1596.84 L1605.84 1589.43 Z" fill="#000000" fill-rule="nonzero" fill-opacity="1" /><path clip-path="url(#clip640)" d="M1629.74 1593.18 L1629.74 1603.3 L1641.81 1603.3 L1641.81 1607.85 L1629.74 1607.85 L1629.74 1627.21 Q1629.74 1631.57 1630.92 1632.81 Q1632.13 1634.05 1635.79 1634.05 L1641.81 1634.05 L1641.81 1638.95 L1635.79 1638.95 Q1629.01 1638.95 1626.43 1636.44 Q1623.85 1633.89 1623.85 1627.21 L1623.85 1607.85 L1619.56 1607.85 L1619.56 1603.3 L1623.85 1603.3 L1623.85 1593.18 L1629.74 1593.18 Z" fill="#000000" fill-rule="nonzero" fill-opacity="1" /><path clip-path="url(#clip640)" d="M1672.23 1604.35 L1672.23 1609.89 Q1669.75 1608.62 1667.08 1607.98 Q1664.4 1607.35 1661.54 1607.35 Q1657.18 1607.35 1654.98 1608.68 Q1652.82 1610.02 1652.82 1612.69 Q1652.82 1614.73 1654.38 1615.91 Q1655.94 1617.05 1660.65 1618.1 L1662.65 1618.55 Q1668.89 1619.89 1671.5 1622.34 Q1674.14 1624.76 1674.14 1629.12 Q1674.14 1634.08 1670.2 1636.98 Q1666.28 1639.87 1659.41 1639.87 Q1656.54 1639.87 1653.42 1639.3 Q1650.34 1638.76 1646.9 1637.65 L1646.9 1631.6 Q1650.15 1633.29 1653.3 1634.14 Q1656.45 1634.97 1659.53 1634.97 Q1663.67 1634.97 1665.9 1633.57 Q1668.13 1632.14 1668.13 1629.56 Q1668.13 1627.17 1666.5 1625.9 Q1664.91 1624.63 1659.47 1623.45 L1657.43 1622.97 Q1651.99 1621.83 1649.57 1619.47 Q1647.15 1617.08 1647.15 1612.95 Q1647.15 1607.92 1650.72 1605.18 Q1654.28 1602.44 1660.84 1602.44 Q1664.09 1602.44 1666.95 1602.92 Q1669.82 1603.4 1672.23 1604.35 Z" fill="#000000" fill-rule="nonzero" fill-opacity="1" /><path clip-path="url(#clip640)" d="M1689.26 1593.18 L1689.26 1603.3 L1701.33 1603.3 L1701.33 1607.85 L1689.26 1607.85 L1689.26 1627.21 Q1689.26 1631.57 1690.44 1632.81 Q1691.65 1634.05 1695.31 1634.05 L1701.33 1634.05 L1701.33 1638.95 L1695.31 1638.95 Q1688.53 1638.95 1685.95 1636.44 Q1683.37 1633.89 1683.37 1627.21 L1683.37 1607.85 L1679.08 1607.85 L1679.08 1603.3 L1683.37 1603.3 L1683.37 1593.18 L1689.26 1593.18 Z" fill="#000000" fill-rule="nonzero" fill-opacity="1" /><path clip-path="url(#clip640)" d="M1729.68 1608.78 Q1728.7 1608.2 1727.52 1607.95 Q1726.37 1607.66 1724.97 1607.66 Q1720.01 1607.66 1717.34 1610.91 Q1714.69 1614.12 1714.69 1620.17 L1714.69 1638.95 L1708.81 1638.95 L1708.81 1603.3 L1714.69 1603.3 L1714.69 1608.84 Q1716.54 1605.59 1719.5 1604.04 Q1722.46 1602.44 1726.69 1602.44 Q1727.3 1602.44 1728.03 1602.54 Q1728.76 1602.6 1729.65 1602.76 L1729.68 1608.78 Z" fill="#000000" fill-rule="nonzero" fill-opacity="1" /><path clip-path="url(#clip640)" d="M1735.83 1603.3 L1741.68 1603.3 L1741.68 1638.95 L1735.83 1638.95 L1735.83 1603.3 M1735.83 1589.43 L1741.68 1589.43 L1741.68 1596.84 L1735.83 1596.84 L1735.83 1589.43 Z" fill="#000000" fill-rule="nonzero" fill-opacity="1" /><path clip-path="url(#clip640)" d="M1783.57 1617.43 L1783.57 1638.95 L1777.71 1638.95 L1777.71 1617.63 Q1777.71 1612.57 1775.74 1610.05 Q1773.77 1607.54 1769.82 1607.54 Q1765.08 1607.54 1762.34 1610.56 Q1759.6 1613.58 1759.6 1618.8 L1759.6 1638.95 L1753.72 1638.95 L1753.72 1603.3 L1759.6 1603.3 L1759.6 1608.84 Q1761.7 1605.63 1764.54 1604.04 Q1767.4 1602.44 1771.13 1602.44 Q1777.27 1602.44 1780.42 1606.26 Q1783.57 1610.05 1783.57 1617.43 Z" fill="#000000" fill-rule="nonzero" fill-opacity="1" /><path clip-path="url(#clip640)" d="M1818.71 1620.71 Q1818.71 1614.35 1816.07 1610.85 Q1813.46 1607.35 1808.71 1607.35 Q1804 1607.35 1801.36 1610.85 Q1798.75 1614.35 1798.75 1620.71 Q1798.75 1627.05 1801.36 1630.55 Q1804 1634.05 1808.71 1634.05 Q1813.46 1634.05 1816.07 1630.55 Q1818.71 1627.05 1818.71 1620.71 M1824.57 1634.53 Q1824.57 1643.63 1820.52 1648.05 Q1816.48 1652.51 1808.14 1652.51 Q1805.05 1652.51 1802.32 1652.03 Q1799.58 1651.59 1797 1650.63 L1797 1644.93 Q1799.58 1646.34 1802.09 1647 Q1804.61 1647.67 1807.22 1647.67 Q1812.98 1647.67 1815.84 1644.65 Q1818.71 1641.66 1818.71 1635.58 L1818.71 1632.68 Q1816.89 1635.83 1814.06 1637.39 Q1811.23 1638.95 1807.28 1638.95 Q1800.73 1638.95 1796.72 1633.95 Q1792.71 1628.96 1792.71 1620.71 Q1792.71 1612.44 1796.72 1607.44 Q1800.73 1602.44 1807.28 1602.44 Q1811.23 1602.44 1814.06 1604 Q1816.89 1605.56 1818.71 1608.71 L1818.71 1603.3 L1824.57 1603.3 L1824.57 1634.53 Z" fill="#000000" fill-rule="nonzero" fill-opacity="1" /><polyline clip-path="url(#clip640)" style="stroke:#000000; stroke-linecap:round; stroke-linejoin:round; stroke-width:4; stroke-opacity:1; fill:none" points="374.917,1481.96 374.917,252.352 "/>
<polyline clip-path="url(#clip640)" style="stroke:#000000; stroke-linecap:round; stroke-linejoin:round; stroke-width:4; stroke-opacity:1; fill:none" points="374.917,1481.96 393.815,1481.96 "/>
<polyline clip-path="url(#clip640)" style="stroke:#000000; stroke-linecap:round; stroke-linejoin:round; stroke-width:4; stroke-opacity:1; fill:none" points="374.917,1237.99 393.815,1237.99 "/>
<polyline clip-path="url(#clip640)" style="stroke:#000000; stroke-linecap:round; stroke-linejoin:round; stroke-width:4; stroke-opacity:1; fill:none" points="374.917,994.02 393.815,994.02 "/>
<polyline clip-path="url(#clip640)" style="stroke:#000000; stroke-linecap:round; stroke-linejoin:round; stroke-width:4; stroke-opacity:1; fill:none" points="374.917,750.051 393.815,750.051 "/>
<polyline clip-path="url(#clip640)" style="stroke:#000000; stroke-linecap:round; stroke-linejoin:round; stroke-width:4; stroke-opacity:1; fill:none" points="374.917,506.081 393.815,506.081 "/>
<polyline clip-path="url(#clip640)" style="stroke:#000000; stroke-linecap:round; stroke-linejoin:round; stroke-width:4; stroke-opacity:1; fill:none" points="374.917,262.111 393.815,262.111 "/>
<path clip-path="url(#clip640)" d="M314.973 1467.76 Q311.362 1467.76 309.533 1471.32 Q307.727 1474.86 307.727 1481.99 Q307.727 1489.1 309.533 1492.67 Q311.362 1496.21 314.973 1496.21 Q318.607 1496.21 320.413 1492.67 Q322.241 1489.1 322.241 1481.99 Q322.241 1474.86 320.413 1471.32 Q318.607 1467.76 314.973 1467.76 M314.973 1464.05 Q320.783 1464.05 323.838 1468.66 Q326.917 1473.24 326.917 1481.99 Q326.917 1490.72 323.838 1495.33 Q320.783 1499.91 314.973 1499.91 Q309.163 1499.91 306.084 1495.33 Q303.028 1490.72 303.028 1481.99 Q303.028 1473.24 306.084 1468.66 Q309.163 1464.05 314.973 1464.05 Z" fill="#000000" fill-rule="nonzero" fill-opacity="1" /><path clip-path="url(#clip640)" d="M245.459 1251.33 L253.098 1251.33 L253.098 1224.97 L244.788 1226.64 L244.788 1222.38 L253.052 1220.71 L257.728 1220.71 L257.728 1251.33 L265.367 1251.33 L265.367 1255.27 L245.459 1255.27 L245.459 1251.33 Z" fill="#000000" fill-rule="nonzero" fill-opacity="1" /><path clip-path="url(#clip640)" d="M284.811 1223.79 Q281.2 1223.79 279.371 1227.35 Q277.566 1230.9 277.566 1238.02 Q277.566 1245.13 279.371 1248.7 Q281.2 1252.24 284.811 1252.24 Q288.445 1252.24 290.251 1248.7 Q292.079 1245.13 292.079 1238.02 Q292.079 1230.9 290.251 1227.35 Q288.445 1223.79 284.811 1223.79 M284.811 1220.09 Q290.621 1220.09 293.677 1224.69 Q296.755 1229.27 296.755 1238.02 Q296.755 1246.75 293.677 1251.36 Q290.621 1255.94 284.811 1255.94 Q279.001 1255.94 275.922 1251.36 Q272.866 1246.75 272.866 1238.02 Q272.866 1229.27 275.922 1224.69 Q279.001 1220.09 284.811 1220.09 Z" fill="#000000" fill-rule="nonzero" fill-opacity="1" /><path clip-path="url(#clip640)" d="M314.973 1223.79 Q311.362 1223.79 309.533 1227.35 Q307.727 1230.9 307.727 1238.02 Q307.727 1245.13 309.533 1248.7 Q311.362 1252.24 314.973 1252.24 Q318.607 1252.24 320.413 1248.7 Q322.241 1245.13 322.241 1238.02 Q322.241 1230.9 320.413 1227.35 Q318.607 1223.79 314.973 1223.79 M314.973 1220.09 Q320.783 1220.09 323.838 1224.69 Q326.917 1229.27 326.917 1238.02 Q326.917 1246.75 323.838 1251.36 Q320.783 1255.94 314.973 1255.94 Q309.163 1255.94 306.084 1251.36 Q303.028 1246.75 303.028 1238.02 Q303.028 1229.27 306.084 1224.69 Q309.163 1220.09 314.973 1220.09 Z" fill="#000000" fill-rule="nonzero" fill-opacity="1" /><path clip-path="url(#clip640)" d="M248.677 1007.37 L264.996 1007.37 L264.996 1011.3 L243.052 1011.3 L243.052 1007.37 Q245.714 1004.61 250.297 999.981 Q254.904 995.328 256.084 993.986 Q258.33 991.462 259.209 989.726 Q260.112 987.967 260.112 986.277 Q260.112 983.523 258.168 981.787 Q256.246 980.05 253.144 980.05 Q250.945 980.05 248.492 980.814 Q246.061 981.578 243.283 983.129 L243.283 978.407 Q246.107 977.273 248.561 976.694 Q251.015 976.115 253.052 976.115 Q258.422 976.115 261.617 978.8 Q264.811 981.486 264.811 985.976 Q264.811 988.106 264.001 990.027 Q263.214 991.925 261.107 994.518 Q260.529 995.189 257.427 998.407 Q254.325 1001.6 248.677 1007.37 Z" fill="#000000" fill-rule="nonzero" fill-opacity="1" /><path clip-path="url(#clip640)" d="M284.811 979.819 Q281.2 979.819 279.371 983.384 Q277.566 986.925 277.566 994.055 Q277.566 1001.16 279.371 1004.73 Q281.2 1008.27 284.811 1008.27 Q288.445 1008.27 290.251 1004.73 Q292.079 1001.16 292.079 994.055 Q292.079 986.925 290.251 983.384 Q288.445 979.819 284.811 979.819 M284.811 976.115 Q290.621 976.115 293.677 980.722 Q296.755 985.305 296.755 994.055 Q296.755 1002.78 293.677 1007.39 Q290.621 1011.97 284.811 1011.97 Q279.001 1011.97 275.922 1007.39 Q272.866 1002.78 272.866 994.055 Q272.866 985.305 275.922 980.722 Q279.001 976.115 284.811 976.115 Z" fill="#000000" fill-rule="nonzero" fill-opacity="1" /><path clip-path="url(#clip640)" d="M314.973 979.819 Q311.362 979.819 309.533 983.384 Q307.727 986.925 307.727 994.055 Q307.727 1001.16 309.533 1004.73 Q311.362 1008.27 314.973 1008.27 Q318.607 1008.27 320.413 1004.73 Q322.241 1001.16 322.241 994.055 Q322.241 986.925 320.413 983.384 Q318.607 979.819 314.973 979.819 M314.973 976.115 Q320.783 976.115 323.838 980.722 Q326.917 985.305 326.917 994.055 Q326.917 1002.78 323.838 1007.39 Q320.783 1011.97 314.973 1011.97 Q309.163 1011.97 306.084 1007.39 Q303.028 1002.78 303.028 994.055 Q303.028 985.305 306.084 980.722 Q309.163 976.115 314.973 976.115 Z" fill="#000000" fill-rule="nonzero" fill-opacity="1" /><path clip-path="url(#clip640)" d="M258.816 748.696 Q262.172 749.414 264.047 751.683 Q265.945 753.951 265.945 757.284 Q265.945 762.4 262.427 765.201 Q258.908 768.002 252.427 768.002 Q250.251 768.002 247.936 767.562 Q245.644 767.145 243.191 766.289 L243.191 761.775 Q245.135 762.909 247.45 763.488 Q249.765 764.067 252.288 764.067 Q256.686 764.067 258.978 762.331 Q261.292 760.595 261.292 757.284 Q261.292 754.229 259.14 752.516 Q257.01 750.78 253.191 750.78 L249.163 750.78 L249.163 746.937 L253.376 746.937 Q256.825 746.937 258.654 745.571 Q260.482 744.183 260.482 741.59 Q260.482 738.928 258.584 737.516 Q256.709 736.081 253.191 736.081 Q251.269 736.081 249.07 736.497 Q246.871 736.914 244.232 737.794 L244.232 733.627 Q246.894 732.886 249.209 732.516 Q251.547 732.146 253.607 732.146 Q258.931 732.146 262.033 734.576 Q265.135 736.984 265.135 741.104 Q265.135 743.974 263.492 745.965 Q261.848 747.933 258.816 748.696 Z" fill="#000000" fill-rule="nonzero" fill-opacity="1" /><path clip-path="url(#clip640)" d="M284.811 735.849 Q281.2 735.849 279.371 739.414 Q277.566 742.956 277.566 750.085 Q277.566 757.192 279.371 760.757 Q281.2 764.298 284.811 764.298 Q288.445 764.298 290.251 760.757 Q292.079 757.192 292.079 750.085 Q292.079 742.956 290.251 739.414 Q288.445 735.849 284.811 735.849 M284.811 732.146 Q290.621 732.146 293.677 736.752 Q296.755 741.335 296.755 750.085 Q296.755 758.812 293.677 763.419 Q290.621 768.002 284.811 768.002 Q279.001 768.002 275.922 763.419 Q272.866 758.812 272.866 750.085 Q272.866 741.335 275.922 736.752 Q279.001 732.146 284.811 732.146 Z" fill="#000000" fill-rule="nonzero" fill-opacity="1" /><path clip-path="url(#clip640)" d="M314.973 735.849 Q311.362 735.849 309.533 739.414 Q307.727 742.956 307.727 750.085 Q307.727 757.192 309.533 760.757 Q311.362 764.298 314.973 764.298 Q318.607 764.298 320.413 760.757 Q322.241 757.192 322.241 750.085 Q322.241 742.956 320.413 739.414 Q318.607 735.849 314.973 735.849 M314.973 732.146 Q320.783 732.146 323.838 736.752 Q326.917 741.335 326.917 750.085 Q326.917 758.812 323.838 763.419 Q320.783 768.002 314.973 768.002 Q309.163 768.002 306.084 763.419 Q303.028 758.812 303.028 750.085 Q303.028 741.335 306.084 736.752 Q309.163 732.146 314.973 732.146 Z" fill="#000000" fill-rule="nonzero" fill-opacity="1" /><path clip-path="url(#clip640)" d="M257.496 492.875 L245.691 511.324 L257.496 511.324 L257.496 492.875 M256.269 488.801 L262.149 488.801 L262.149 511.324 L267.079 511.324 L267.079 515.213 L262.149 515.213 L262.149 523.361 L257.496 523.361 L257.496 515.213 L241.894 515.213 L241.894 510.699 L256.269 488.801 Z" fill="#000000" fill-rule="nonzero" fill-opacity="1" /><path clip-path="url(#clip640)" d="M284.811 491.88 Q281.2 491.88 279.371 495.444 Q277.566 498.986 277.566 506.116 Q277.566 513.222 279.371 516.787 Q281.2 520.329 284.811 520.329 Q288.445 520.329 290.251 516.787 Q292.079 513.222 292.079 506.116 Q292.079 498.986 290.251 495.444 Q288.445 491.88 284.811 491.88 M284.811 488.176 Q290.621 488.176 293.677 492.782 Q296.755 497.366 296.755 506.116 Q296.755 514.842 293.677 519.449 Q290.621 524.032 284.811 524.032 Q279.001 524.032 275.922 519.449 Q272.866 514.842 272.866 506.116 Q272.866 497.366 275.922 492.782 Q279.001 488.176 284.811 488.176 Z" fill="#000000" fill-rule="nonzero" fill-opacity="1" /><path clip-path="url(#clip640)" d="M314.973 491.88 Q311.362 491.88 309.533 495.444 Q307.727 498.986 307.727 506.116 Q307.727 513.222 309.533 516.787 Q311.362 520.329 314.973 520.329 Q318.607 520.329 320.413 516.787 Q322.241 513.222 322.241 506.116 Q322.241 498.986 320.413 495.444 Q318.607 491.88 314.973 491.88 M314.973 488.176 Q320.783 488.176 323.838 492.782 Q326.917 497.366 326.917 506.116 Q326.917 514.842 323.838 519.449 Q320.783 524.032 314.973 524.032 Q309.163 524.032 306.084 519.449 Q303.028 514.842 303.028 506.116 Q303.028 497.366 306.084 492.782 Q309.163 488.176 314.973 488.176 Z" fill="#000000" fill-rule="nonzero" fill-opacity="1" /><path clip-path="url(#clip640)" d="M244.695 244.831 L263.052 244.831 L263.052 248.766 L248.978 248.766 L248.978 257.239 Q249.996 256.891 251.015 256.729 Q252.033 256.544 253.052 256.544 Q258.839 256.544 262.218 259.715 Q265.598 262.887 265.598 268.303 Q265.598 273.882 262.126 276.984 Q258.654 280.062 252.334 280.062 Q250.158 280.062 247.89 279.692 Q245.644 279.322 243.237 278.581 L243.237 273.882 Q245.32 275.016 247.543 275.572 Q249.765 276.127 252.242 276.127 Q256.246 276.127 258.584 274.021 Q260.922 271.914 260.922 268.303 Q260.922 264.692 258.584 262.586 Q256.246 260.479 252.242 260.479 Q250.367 260.479 248.492 260.896 Q246.64 261.313 244.695 262.192 L244.695 244.831 Z" fill="#000000" fill-rule="nonzero" fill-opacity="1" /><path clip-path="url(#clip640)" d="M284.811 247.91 Q281.2 247.91 279.371 251.475 Q277.566 255.016 277.566 262.146 Q277.566 269.252 279.371 272.817 Q281.2 276.359 284.811 276.359 Q288.445 276.359 290.251 272.817 Q292.079 269.252 292.079 262.146 Q292.079 255.016 290.251 251.475 Q288.445 247.91 284.811 247.91 M284.811 244.206 Q290.621 244.206 293.677 248.813 Q296.755 253.396 296.755 262.146 Q296.755 270.873 293.677 275.479 Q290.621 280.062 284.811 280.062 Q279.001 280.062 275.922 275.479 Q272.866 270.873 272.866 262.146 Q272.866 253.396 275.922 248.813 Q279.001 244.206 284.811 244.206 Z" fill="#000000" fill-rule="nonzero" fill-opacity="1" /><path clip-path="url(#clip640)" d="M314.973 247.91 Q311.362 247.91 309.533 251.475 Q307.727 255.016 307.727 262.146 Q307.727 269.252 309.533 272.817 Q311.362 276.359 314.973 276.359 Q318.607 276.359 320.413 272.817 Q322.241 269.252 322.241 262.146 Q322.241 255.016 320.413 251.475 Q318.607 247.91 314.973 247.91 M314.973 244.206 Q320.783 244.206 323.838 248.813 Q326.917 253.396 326.917 262.146 Q326.917 270.873 323.838 275.479 Q320.783 280.062 314.973 280.062 Q309.163 280.062 306.084 275.479 Q303.028 270.873 303.028 262.146 Q303.028 253.396 306.084 248.813 Q309.163 244.206 314.973 244.206 Z" fill="#000000" fill-rule="nonzero" fill-opacity="1" /><path clip-path="url(#clip640)" d="M135.779 1202.55 L142.558 1202.55 Q139.534 1205.8 138.039 1209.49 Q136.543 1213.15 136.543 1217.29 Q136.543 1225.43 141.54 1229.76 Q146.505 1234.09 155.926 1234.09 Q165.316 1234.09 170.313 1229.76 Q175.278 1225.43 175.278 1217.29 Q175.278 1213.15 173.782 1209.49 Q172.286 1205.8 169.262 1202.55 L175.978 1202.55 Q178.27 1205.92 179.416 1209.71 Q180.561 1213.47 180.561 1217.67 Q180.561 1228.46 173.973 1234.66 Q167.353 1240.87 155.926 1240.87 Q144.468 1240.87 137.879 1234.66 Q131.259 1228.46 131.259 1217.67 Q131.259 1213.4 132.405 1209.65 Q133.519 1205.86 135.779 1202.55 Z" fill="#000000" fill-rule="nonzero" fill-opacity="1" /><path clip-path="url(#clip640)" d="M148.096 1179.06 Q148.096 1183.77 151.788 1186.51 Q155.449 1189.24 161.846 1189.24 Q168.244 1189.24 171.936 1186.54 Q175.596 1183.8 175.596 1179.06 Q175.596 1174.38 171.904 1171.64 Q168.212 1168.91 161.846 1168.91 Q155.512 1168.91 151.82 1171.64 Q148.096 1174.38 148.096 1179.06 M143.131 1179.06 Q143.131 1171.42 148.096 1167.06 Q153.062 1162.7 161.846 1162.7 Q170.599 1162.7 175.596 1167.06 Q180.561 1171.42 180.561 1179.06 Q180.561 1186.73 175.596 1191.09 Q170.599 1195.42 161.846 1195.42 Q153.062 1195.42 148.096 1191.09 Q143.131 1186.73 143.131 1179.06 Z" fill="#000000" fill-rule="nonzero" fill-opacity="1" /><path clip-path="url(#clip640)" d="M165.57 1153.6 L143.99 1153.6 L143.99 1147.74 L165.347 1147.74 Q170.408 1147.74 172.954 1145.77 Q175.469 1143.79 175.469 1139.85 Q175.469 1135.1 172.445 1132.37 Q169.421 1129.6 164.202 1129.6 L143.99 1129.6 L143.99 1123.74 L179.638 1123.74 L179.638 1129.6 L174.164 1129.6 Q177.41 1131.73 179.002 1134.56 Q180.561 1137.36 180.561 1141.09 Q180.561 1147.23 176.742 1150.41 Q172.923 1153.6 165.57 1153.6 M143.131 1138.86 L143.131 1138.86 Z" fill="#000000" fill-rule="nonzero" fill-opacity="1" /><path clip-path="url(#clip640)" d="M158.122 1082.05 L179.638 1082.05 L179.638 1087.9 L158.313 1087.9 Q153.253 1087.9 150.738 1089.88 Q148.224 1091.85 148.224 1095.8 Q148.224 1100.54 151.247 1103.28 Q154.271 1106.01 159.491 1106.01 L179.638 1106.01 L179.638 1111.9 L143.99 1111.9 L143.99 1106.01 L149.529 1106.01 Q146.314 1103.91 144.723 1101.08 Q143.131 1098.22 143.131 1094.49 Q143.131 1088.35 146.951 1085.2 Q150.738 1082.05 158.122 1082.05 Z" fill="#000000" fill-rule="nonzero" fill-opacity="1" /><path clip-path="url(#clip640)" d="M133.869 1064.57 L143.99 1064.57 L143.99 1052.51 L148.542 1052.51 L148.542 1064.57 L167.894 1064.57 Q172.254 1064.57 173.496 1063.39 Q174.737 1062.19 174.737 1058.53 L174.737 1052.51 L179.638 1052.51 L179.638 1058.53 Q179.638 1065.3 177.124 1067.88 Q174.578 1070.46 167.894 1070.46 L148.542 1070.46 L148.542 1074.76 L143.99 1074.76 L143.99 1070.46 L133.869 1070.46 L133.869 1064.57 Z" fill="#000000" fill-rule="nonzero" fill-opacity="1" /><path clip-path="url(#clip640)" d="M145.041 1022.08 L150.579 1022.08 Q149.306 1024.56 148.669 1027.24 Q148.033 1029.91 148.033 1032.78 Q148.033 1037.14 149.37 1039.33 Q150.706 1041.5 153.38 1041.5 Q155.417 1041.5 156.595 1039.94 Q157.74 1038.38 158.791 1033.67 L159.236 1031.66 Q160.573 1025.42 163.024 1022.81 Q165.443 1020.17 169.803 1020.17 Q174.769 1020.17 177.665 1024.12 Q180.561 1028.03 180.561 1034.91 Q180.561 1037.77 179.989 1040.89 Q179.447 1043.98 178.333 1047.42 L172.286 1047.42 Q173.973 1044.17 174.832 1041.02 Q175.66 1037.87 175.66 1034.78 Q175.66 1030.64 174.259 1028.42 Q172.827 1026.19 170.249 1026.19 Q167.862 1026.19 166.589 1027.81 Q165.316 1029.4 164.138 1034.84 L163.661 1036.88 Q162.515 1042.32 160.159 1044.74 Q157.772 1047.16 153.635 1047.16 Q148.606 1047.16 145.868 1043.6 Q143.131 1040.03 143.131 1033.48 Q143.131 1030.23 143.609 1027.36 Q144.086 1024.5 145.041 1022.08 Z" fill="#000000" fill-rule="nonzero" fill-opacity="1" /><path clip-path="url(#clip640)" d="M130.177 976.057 Q137.497 980.322 144.659 982.391 Q151.82 984.46 159.173 984.46 Q166.525 984.46 173.75 982.391 Q180.943 980.291 188.232 976.057 L188.232 981.15 Q180.752 985.924 173.527 988.311 Q166.302 990.667 159.173 990.667 Q152.075 990.667 144.882 988.311 Q137.688 985.956 130.177 981.15 L130.177 976.057 Z" fill="#000000" fill-rule="nonzero" fill-opacity="1" /><path clip-path="url(#clip640)" d="M174.228 962.753 L174.228 952.25 L137.975 952.25 L140.267 963.676 L134.41 963.676 L132.118 952.313 L132.118 945.884 L174.228 945.884 L174.228 935.381 L179.638 935.381 L179.638 962.753 L174.228 962.753 Z" fill="#000000" fill-rule="nonzero" fill-opacity="1" /><path clip-path="url(#clip640)" d="M136.352 908.645 Q136.352 913.61 141.253 916.124 Q146.123 918.607 155.926 918.607 Q165.698 918.607 170.599 916.124 Q175.469 913.61 175.469 908.645 Q175.469 903.647 170.599 901.165 Q165.698 898.65 155.926 898.65 Q146.123 898.65 141.253 901.165 Q136.352 903.647 136.352 908.645 M131.259 908.645 Q131.259 900.656 137.593 896.454 Q143.895 892.221 155.926 892.221 Q167.926 892.221 174.259 896.454 Q180.561 900.656 180.561 908.645 Q180.561 916.634 174.259 920.867 Q167.926 925.068 155.926 925.068 Q143.895 925.068 137.593 920.867 Q131.259 916.634 131.259 908.645 Z" fill="#000000" fill-rule="nonzero" fill-opacity="1" /><path clip-path="url(#clip640)" d="M136.352 867.172 Q136.352 872.137 141.253 874.652 Q146.123 877.134 155.926 877.134 Q165.698 877.134 170.599 874.652 Q175.469 872.137 175.469 867.172 Q175.469 862.175 170.599 859.692 Q165.698 857.178 155.926 857.178 Q146.123 857.178 141.253 859.692 Q136.352 862.175 136.352 867.172 M131.259 867.172 Q131.259 859.183 137.593 854.982 Q143.895 850.748 155.926 850.748 Q167.926 850.748 174.259 854.982 Q180.561 859.183 180.561 867.172 Q180.561 875.161 174.259 879.394 Q167.926 883.596 155.926 883.596 Q143.895 883.596 137.593 879.394 Q131.259 875.161 131.259 867.172 Z" fill="#000000" fill-rule="nonzero" fill-opacity="1" /><path clip-path="url(#clip640)" d="M136.352 825.699 Q136.352 830.665 141.253 833.179 Q146.123 835.662 155.926 835.662 Q165.698 835.662 170.599 833.179 Q175.469 830.665 175.469 825.699 Q175.469 820.702 170.599 818.22 Q165.698 815.705 155.926 815.705 Q146.123 815.705 141.253 818.22 Q136.352 820.702 136.352 825.699 M131.259 825.699 Q131.259 817.71 137.593 813.509 Q143.895 809.276 155.926 809.276 Q167.926 809.276 174.259 813.509 Q180.561 817.71 180.561 825.699 Q180.561 833.688 174.259 837.922 Q167.926 842.123 155.926 842.123 Q143.895 842.123 137.593 837.922 Q131.259 833.688 131.259 825.699 Z" fill="#000000" fill-rule="nonzero" fill-opacity="1" /><path clip-path="url(#clip640)" d="M145.041 755.358 L150.579 755.358 Q149.306 757.841 148.669 760.515 Q148.033 763.188 148.033 766.053 Q148.033 770.413 149.37 772.609 Q150.706 774.774 153.38 774.774 Q155.417 774.774 156.595 773.214 Q157.74 771.655 158.791 766.944 L159.236 764.939 Q160.573 758.7 163.024 756.09 Q165.443 753.449 169.803 753.449 Q174.769 753.449 177.665 757.395 Q180.561 761.31 180.561 768.185 Q180.561 771.05 179.989 774.169 Q179.447 777.256 178.333 780.694 L172.286 780.694 Q173.973 777.447 174.832 774.296 Q175.66 771.145 175.66 768.058 Q175.66 763.92 174.259 761.692 Q172.827 759.464 170.249 759.464 Q167.862 759.464 166.589 761.087 Q165.316 762.679 164.138 768.122 L163.661 770.159 Q162.515 775.601 160.159 778.02 Q157.772 780.439 153.635 780.439 Q148.606 780.439 145.868 776.874 Q143.131 773.31 143.131 766.753 Q143.131 763.506 143.609 760.642 Q144.086 757.777 145.041 755.358 Z" fill="#000000" fill-rule="nonzero" fill-opacity="1" /><path clip-path="url(#clip640)" d="M161.719 727.922 Q161.719 735.02 163.342 737.757 Q164.965 740.494 168.88 740.494 Q172 740.494 173.846 738.457 Q175.66 736.389 175.66 732.856 Q175.66 727.986 172.222 725.058 Q168.753 722.098 163.024 722.098 L161.719 722.098 L161.719 727.922 M159.3 716.241 L179.638 716.241 L179.638 722.098 L174.228 722.098 Q177.474 724.103 179.034 727.095 Q180.561 730.086 180.561 734.415 Q180.561 739.89 177.506 743.136 Q174.419 746.351 169.262 746.351 Q163.247 746.351 160.191 742.34 Q157.136 738.298 157.136 730.309 L157.136 722.098 L156.563 722.098 Q152.521 722.098 150.324 724.771 Q148.096 727.413 148.096 732.219 Q148.096 735.275 148.828 738.171 Q149.56 741.067 151.025 743.741 L145.614 743.741 Q144.372 740.526 143.768 737.503 Q143.131 734.479 143.131 731.614 Q143.131 723.88 147.142 720.061 Q151.152 716.241 159.3 716.241 Z" fill="#000000" fill-rule="nonzero" fill-opacity="1" /><path clip-path="url(#clip640)" d="M150.834 676.424 Q146.887 674.227 145.009 671.172 Q143.131 668.116 143.131 663.979 Q143.131 658.409 147.046 655.385 Q150.929 652.361 158.122 652.361 L179.638 652.361 L179.638 658.249 L158.313 658.249 Q153.189 658.249 150.706 660.064 Q148.224 661.878 148.224 665.602 Q148.224 670.153 151.247 672.795 Q154.271 675.437 159.491 675.437 L179.638 675.437 L179.638 681.325 L158.313 681.325 Q153.157 681.325 150.706 683.139 Q148.224 684.954 148.224 688.741 Q148.224 693.229 151.279 695.871 Q154.303 698.513 159.491 698.513 L179.638 698.513 L179.638 704.401 L143.99 704.401 L143.99 698.513 L149.529 698.513 Q146.25 696.507 144.691 693.706 Q143.131 690.906 143.131 687.054 Q143.131 683.171 145.104 680.466 Q147.078 677.729 150.834 676.424 Z" fill="#000000" fill-rule="nonzero" fill-opacity="1" /><path clip-path="url(#clip640)" d="M174.291 635.015 L193.197 635.015 L193.197 640.903 L143.99 640.903 L143.99 635.015 L149.401 635.015 Q146.218 633.169 144.691 630.368 Q143.131 627.535 143.131 623.62 Q143.131 617.127 148.287 613.085 Q153.444 609.011 161.846 609.011 Q170.249 609.011 175.405 613.085 Q180.561 617.127 180.561 623.62 Q180.561 627.535 179.034 630.368 Q177.474 633.169 174.291 635.015 M161.846 615.09 Q155.385 615.09 151.725 617.764 Q148.033 620.405 148.033 625.052 Q148.033 629.699 151.725 632.373 Q155.385 635.015 161.846 635.015 Q168.307 635.015 172 632.373 Q175.66 629.699 175.66 625.052 Q175.66 620.405 172 617.764 Q168.307 615.09 161.846 615.09 Z" fill="#000000" fill-rule="nonzero" fill-opacity="1" /><path clip-path="url(#clip640)" d="M130.113 599.303 L130.113 593.447 L179.638 593.447 L179.638 599.303 L130.113 599.303 Z" fill="#000000" fill-rule="nonzero" fill-opacity="1" /><path clip-path="url(#clip640)" d="M160.35 550.701 L163.215 550.701 L163.215 577.628 Q169.262 577.246 172.445 573.999 Q175.596 570.721 175.596 564.896 Q175.596 561.523 174.769 558.372 Q173.941 555.189 172.286 552.07 L177.824 552.07 Q179.161 555.221 179.861 558.531 Q180.561 561.841 180.561 565.247 Q180.561 573.777 175.596 578.774 Q170.631 583.739 162.165 583.739 Q153.412 583.739 148.287 579.028 Q143.131 574.286 143.131 566.265 Q143.131 559.072 147.778 554.902 Q152.393 550.701 160.35 550.701 M158.632 556.557 Q153.826 556.621 150.961 559.263 Q148.096 561.873 148.096 566.201 Q148.096 571.103 150.865 574.063 Q153.635 576.991 158.663 577.437 L158.632 556.557 Z" fill="#000000" fill-rule="nonzero" fill-opacity="1" /><path clip-path="url(#clip640)" d="M145.041 518.363 L150.579 518.363 Q149.306 520.846 148.669 523.519 Q148.033 526.193 148.033 529.057 Q148.033 533.418 149.37 535.614 Q150.706 537.778 153.38 537.778 Q155.417 537.778 156.595 536.219 Q157.74 534.659 158.791 529.949 L159.236 527.943 Q160.573 521.705 163.024 519.095 Q165.443 516.453 169.803 516.453 Q174.769 516.453 177.665 520.4 Q180.561 524.315 180.561 531.19 Q180.561 534.055 179.989 537.174 Q179.447 540.261 178.333 543.699 L172.286 543.699 Q173.973 540.452 174.832 537.301 Q175.66 534.15 175.66 531.063 Q175.66 526.925 174.259 524.697 Q172.827 522.469 170.249 522.469 Q167.862 522.469 166.589 524.092 Q165.316 525.684 164.138 531.126 L163.661 533.163 Q162.515 538.606 160.159 541.025 Q157.772 543.444 153.635 543.444 Q148.606 543.444 145.868 539.879 Q143.131 536.314 143.131 529.758 Q143.131 526.511 143.609 523.647 Q144.086 520.782 145.041 518.363 Z" fill="#000000" fill-rule="nonzero" fill-opacity="1" /><path clip-path="url(#clip640)" d="M130.177 508.051 L130.177 502.958 Q137.688 498.184 144.882 495.828 Q152.075 493.441 159.173 493.441 Q166.302 493.441 173.527 495.828 Q180.752 498.184 188.232 502.958 L188.232 508.051 Q180.943 503.817 173.75 501.749 Q166.525 499.648 159.173 499.648 Q151.82 499.648 144.659 501.749 Q137.497 503.817 130.177 508.051 Z" fill="#000000" fill-rule="nonzero" fill-opacity="1" /><path clip-path="url(#clip640)" d="M912.118 12.096 L924.311 12.096 L939.745 53.2532 L955.26 12.096 L967.453 12.096 L967.453 72.576 L959.473 72.576 L959.473 19.4686 L943.877 60.9499 L935.654 60.9499 L920.058 19.4686 L920.058 72.576 L912.118 72.576 L912.118 12.096 Z" fill="#000000" fill-rule="nonzero" fill-opacity="1" /><path clip-path="url(#clip640)" d="M983.698 12.096 L991.88 12.096 L991.88 72.576 L983.698 72.576 L983.698 12.096 Z" fill="#000000" fill-rule="nonzero" fill-opacity="1" /><path clip-path="url(#clip640)" d="M1008.17 12.096 L1020.36 12.096 L1035.79 53.2532 L1051.31 12.096 L1063.5 12.096 L1063.5 72.576 L1055.52 72.576 L1055.52 19.4686 L1039.92 60.9499 L1031.7 60.9499 L1016.1 19.4686 L1016.1 72.576 L1008.17 72.576 L1008.17 12.096 Z" fill="#000000" fill-rule="nonzero" fill-opacity="1" /><path clip-path="url(#clip640)" d="M1079.74 12.096 L1087.93 12.096 L1087.93 72.576 L1079.74 72.576 L1079.74 12.096 Z" fill="#000000" fill-rule="nonzero" fill-opacity="1" /><path clip-path="url(#clip640)" d="M1128.76 17.6457 Q1119.85 17.6457 1114.58 24.2892 Q1109.36 30.9327 1109.36 42.3968 Q1109.36 53.8203 1114.58 60.4638 Q1119.85 67.1073 1128.76 67.1073 Q1137.67 67.1073 1142.86 60.4638 Q1148.08 53.8203 1148.08 42.3968 Q1148.08 30.9327 1142.86 24.2892 Q1137.67 17.6457 1128.76 17.6457 M1140.22 71.4823 L1151 83.2704 L1141.12 83.2704 L1132.16 73.5887 Q1130.83 73.6697 1130.1 73.7103 Q1129.41 73.7508 1128.76 73.7508 Q1116 73.7508 1108.34 65.2439 Q1100.73 56.6965 1100.73 42.3968 Q1100.73 28.0566 1108.34 19.5497 Q1116 11.0023 1128.76 11.0023 Q1141.48 11.0023 1149.1 19.5497 Q1156.71 28.0566 1156.71 42.3968 Q1156.71 52.9291 1152.46 60.4233 Q1148.25 67.9175 1140.22 71.4823 Z" fill="#000000" fill-rule="nonzero" fill-opacity="1" /><path clip-path="url(#clip640)" d="M1167.73 46.5287 L1189.56 46.5287 L1189.56 53.1722 L1167.73 53.1722 L1167.73 46.5287 Z" fill="#000000" fill-rule="nonzero" fill-opacity="1" /><path clip-path="url(#clip640)" d="M1238.01 14.0809 L1238.01 22.0612 Q1233.35 19.8332 1229.22 18.7395 Q1225.09 17.6457 1221.24 17.6457 Q1214.56 17.6457 1210.91 20.2383 Q1207.31 22.8309 1207.31 27.611 Q1207.31 31.6214 1209.7 33.6873 Q1212.13 35.7128 1218.85 36.9686 L1223.79 37.9813 Q1232.95 39.7232 1237.28 44.1387 Q1241.66 48.5136 1241.66 55.8863 Q1241.66 64.6767 1235.74 69.2137 Q1229.87 73.7508 1218.49 73.7508 Q1214.19 73.7508 1209.33 72.7785 Q1204.51 71.8063 1199.33 69.9024 L1199.33 61.4765 Q1204.31 64.2716 1209.09 65.6895 Q1213.87 67.1073 1218.49 67.1073 Q1225.5 67.1073 1229.3 64.3527 Q1233.11 61.598 1233.11 56.4939 Q1233.11 52.0379 1230.36 49.5264 Q1227.64 47.0148 1221.4 45.759 L1216.42 44.7868 Q1207.27 42.9639 1203.18 39.075 Q1199.08 35.1862 1199.08 28.2591 Q1199.08 20.2383 1204.71 15.6203 Q1210.39 11.0023 1220.31 11.0023 Q1224.56 11.0023 1228.98 11.7719 Q1233.4 12.5416 1238.01 14.0809 Z" fill="#000000" fill-rule="nonzero" fill-opacity="1" /><path clip-path="url(#clip640)" d="M1261.47 14.324 L1261.47 27.2059 L1276.82 27.2059 L1276.82 32.9987 L1261.47 32.9987 L1261.47 57.6282 Q1261.47 63.1779 1262.97 64.7578 Q1264.51 66.3376 1269.16 66.3376 L1276.82 66.3376 L1276.82 72.576 L1269.16 72.576 Q1260.54 72.576 1257.26 69.3758 Q1253.97 66.1351 1253.97 57.6282 L1253.97 32.9987 L1248.51 32.9987 L1248.51 27.2059 L1253.97 27.2059 L1253.97 14.324 L1261.47 14.324 Z" fill="#000000" fill-rule="nonzero" fill-opacity="1" /><path clip-path="url(#clip640)" d="M1307.24 49.7694 Q1298.21 49.7694 1294.73 51.8354 Q1291.24 53.9013 1291.24 58.8839 Q1291.24 62.8538 1293.83 65.2034 Q1296.47 67.5124 1300.96 67.5124 Q1307.16 67.5124 1310.89 63.1374 Q1314.66 58.7219 1314.66 51.4303 L1314.66 49.7694 L1307.24 49.7694 M1322.11 46.6907 L1322.11 72.576 L1314.66 72.576 L1314.66 65.6895 Q1312.1 69.8214 1308.3 71.8063 Q1304.49 73.7508 1298.98 73.7508 Q1292.01 73.7508 1287.88 69.8619 Q1283.79 65.9325 1283.79 59.3701 Q1283.79 51.7138 1288.89 47.825 Q1294.04 43.9361 1304.21 43.9361 L1314.66 43.9361 L1314.66 43.2069 Q1314.66 38.0623 1311.25 35.2672 Q1307.89 32.4315 1301.77 32.4315 Q1297.89 32.4315 1294.2 33.3632 Q1290.51 34.295 1287.11 36.1584 L1287.11 29.2718 Q1291.2 27.692 1295.05 26.9223 Q1298.9 26.1121 1302.54 26.1121 Q1312.39 26.1121 1317.25 31.2163 Q1322.11 36.3204 1322.11 46.6907 Z" fill="#000000" fill-rule="nonzero" fill-opacity="1" /><path clip-path="url(#clip640)" d="M1344.84 14.324 L1344.84 27.2059 L1360.19 27.2059 L1360.19 32.9987 L1344.84 32.9987 L1344.84 57.6282 Q1344.84 63.1779 1346.33 64.7578 Q1347.87 66.3376 1352.53 66.3376 L1360.19 66.3376 L1360.19 72.576 L1352.53 72.576 Q1343.9 72.576 1340.62 69.3758 Q1337.34 66.1351 1337.34 57.6282 L1337.34 32.9987 L1331.87 32.9987 L1331.87 27.2059 L1337.34 27.2059 L1337.34 14.324 L1344.84 14.324 Z" fill="#000000" fill-rule="nonzero" fill-opacity="1" /><path clip-path="url(#clip640)" d="M1408.8 48.0275 L1408.8 51.6733 L1374.53 51.6733 Q1375.01 59.3701 1379.15 63.421 Q1383.32 67.4314 1390.73 67.4314 Q1395.03 67.4314 1399.04 66.3781 Q1403.09 65.3249 1407.06 63.2184 L1407.06 70.267 Q1403.05 71.9684 1398.83 72.8596 Q1394.62 73.7508 1390.29 73.7508 Q1379.43 73.7508 1373.07 67.4314 Q1366.75 61.1119 1366.75 50.3365 Q1366.75 39.1965 1372.75 32.6746 Q1378.78 26.1121 1388.99 26.1121 Q1398.15 26.1121 1403.45 32.0264 Q1408.8 37.9003 1408.8 48.0275 M1401.35 45.84 Q1401.26 39.7232 1397.9 36.0774 Q1394.58 32.4315 1389.07 32.4315 Q1382.83 32.4315 1379.07 35.9558 Q1375.34 39.4801 1374.77 45.8805 L1401.35 45.84 Z" fill="#000000" fill-rule="nonzero" fill-opacity="1" /><path clip-path="url(#clip640)" d="M1436.95 72.576 L1413.86 12.096 L1422.41 12.096 L1441.57 63.0159 L1460.77 12.096 L1469.28 12.096 L1446.23 72.576 L1436.95 72.576 Z" fill="#000000" fill-rule="nonzero" fill-opacity="1" /><path clip-path="url(#clip640)" d="M1510.15 48.0275 L1510.15 51.6733 L1475.88 51.6733 Q1476.37 59.3701 1480.5 63.421 Q1484.67 67.4314 1492.09 67.4314 Q1496.38 67.4314 1500.39 66.3781 Q1504.44 65.3249 1508.41 63.2184 L1508.41 70.267 Q1504.4 71.9684 1500.19 72.8596 Q1495.97 73.7508 1491.64 73.7508 Q1480.78 73.7508 1474.42 67.4314 Q1468.1 61.1119 1468.1 50.3365 Q1468.1 39.1965 1474.1 32.6746 Q1480.14 26.1121 1490.34 26.1121 Q1499.5 26.1121 1504.81 32.0264 Q1510.15 37.9003 1510.15 48.0275 M1502.7 45.84 Q1502.62 39.7232 1499.26 36.0774 Q1495.93 32.4315 1490.43 32.4315 Q1484.19 32.4315 1480.42 35.9558 Q1476.69 39.4801 1476.13 45.8805 L1502.7 45.84 Z" fill="#000000" fill-rule="nonzero" fill-opacity="1" /><path clip-path="url(#clip640)" d="M1555.04 28.9478 L1555.04 35.9153 Q1551.88 34.1734 1548.68 33.3227 Q1545.52 32.4315 1542.28 32.4315 Q1535.03 32.4315 1531.02 37.0496 Q1527 41.6271 1527 49.9314 Q1527 58.2358 1531.02 62.8538 Q1535.03 67.4314 1542.28 67.4314 Q1545.52 67.4314 1548.68 66.5807 Q1551.88 65.6895 1555.04 63.9476 L1555.04 70.8341 Q1551.92 72.2924 1548.56 73.0216 Q1545.23 73.7508 1541.47 73.7508 Q1531.22 73.7508 1525.18 67.3098 Q1519.15 60.8689 1519.15 49.9314 Q1519.15 38.832 1525.22 32.472 Q1531.34 26.1121 1541.95 26.1121 Q1545.4 26.1121 1548.68 26.8413 Q1551.96 27.5299 1555.04 28.9478 Z" fill="#000000" fill-rule="nonzero" fill-opacity="1" /><path clip-path="url(#clip640)" d="M1575.37 14.324 L1575.37 27.2059 L1590.73 27.2059 L1590.73 32.9987 L1575.37 32.9987 L1575.37 57.6282 Q1575.37 63.1779 1576.87 64.7578 Q1578.41 66.3376 1583.07 66.3376 L1590.73 66.3376 L1590.73 72.576 L1583.07 72.576 Q1574.44 72.576 1571.16 69.3758 Q1567.88 66.1351 1567.88 57.6282 L1567.88 32.9987 L1562.41 32.9987 L1562.41 27.2059 L1567.88 27.2059 L1567.88 14.324 L1575.37 14.324 Z" fill="#000000" fill-rule="nonzero" fill-opacity="1" /><path clip-path="url(#clip640)" d="M1618.11 32.4315 Q1612.11 32.4315 1608.63 37.1306 Q1605.15 41.7891 1605.15 49.9314 Q1605.15 58.0738 1608.59 62.7728 Q1612.07 67.4314 1618.11 67.4314 Q1624.06 67.4314 1627.55 62.7323 Q1631.03 58.0333 1631.03 49.9314 Q1631.03 41.8701 1627.55 37.1711 Q1624.06 32.4315 1618.11 32.4315 M1618.11 26.1121 Q1627.83 26.1121 1633.38 32.4315 Q1638.93 38.7509 1638.93 49.9314 Q1638.93 61.0714 1633.38 67.4314 Q1627.83 73.7508 1618.11 73.7508 Q1608.35 73.7508 1602.8 67.4314 Q1597.29 61.0714 1597.29 49.9314 Q1597.29 38.7509 1602.8 32.4315 Q1608.35 26.1121 1618.11 26.1121 Z" fill="#000000" fill-rule="nonzero" fill-opacity="1" /><path clip-path="url(#clip640)" d="M1677.58 34.1734 Q1676.32 33.4443 1674.82 33.1202 Q1673.36 32.7556 1671.58 32.7556 Q1665.26 32.7556 1661.86 36.8875 Q1658.5 40.9789 1658.5 48.6757 L1658.5 72.576 L1651 72.576 L1651 27.2059 L1658.5 27.2059 L1658.5 34.2544 Q1660.85 30.1225 1664.61 28.1376 Q1668.38 26.1121 1673.77 26.1121 Q1674.54 26.1121 1675.47 26.2337 Q1676.4 26.3147 1677.54 26.5172 L1677.58 34.1734 Z" fill="#000000" fill-rule="nonzero" fill-opacity="1" /><path clip-path="url(#clip640)" d="M1730.32 17.4837 Q1724 17.4837 1720.8 23.7221 Q1717.64 29.92 1717.64 42.3968 Q1717.64 54.833 1720.8 61.0714 Q1724 67.2693 1730.32 67.2693 Q1736.68 67.2693 1739.84 61.0714 Q1743.04 54.833 1743.04 42.3968 Q1743.04 29.92 1739.84 23.7221 Q1736.68 17.4837 1730.32 17.4837 M1730.32 11.0023 Q1740.49 11.0023 1745.83 19.0636 Q1751.22 27.0843 1751.22 42.3968 Q1751.22 57.6687 1745.83 65.73 Q1740.49 73.7508 1730.32 73.7508 Q1720.15 73.7508 1714.76 65.73 Q1709.42 57.6687 1709.42 42.3968 Q1709.42 27.0843 1714.76 19.0636 Q1720.15 11.0023 1730.32 11.0023 Z" fill="#000000" fill-rule="nonzero" fill-opacity="1" /><path clip-path="url(#clip640)" d="M1765.6 62.2867 L1774.15 62.2867 L1774.15 72.576 L1765.6 72.576 L1765.6 62.2867 Z" fill="#000000" fill-rule="nonzero" fill-opacity="1" /><path clip-path="url(#clip640)" d="M1799.02 65.6895 L1827.58 65.6895 L1827.58 72.576 L1789.18 72.576 L1789.18 65.6895 Q1793.84 60.8689 1801.86 52.7671 Q1809.92 44.6248 1811.99 42.2752 Q1815.92 37.8598 1817.45 34.8216 Q1819.03 31.7429 1819.03 28.7857 Q1819.03 23.9651 1815.63 20.927 Q1812.27 17.8888 1806.84 17.8888 Q1802.99 17.8888 1798.7 19.2256 Q1794.45 20.5624 1789.58 23.2765 L1789.58 15.0127 Q1794.53 13.0277 1798.82 12.015 Q1803.11 11.0023 1806.68 11.0023 Q1816.08 11.0023 1821.67 15.7013 Q1827.26 20.4004 1827.26 28.2591 Q1827.26 31.9859 1825.84 35.3482 Q1824.46 38.6699 1820.78 43.2069 Q1819.76 44.3817 1814.34 50.0125 Q1808.91 55.6027 1799.02 65.6895 Z" fill="#000000" fill-rule="nonzero" fill-opacity="1" /><path clip-path="url(#clip640)" d="M1867.24 19.2256 L1846.58 51.5113 L1867.24 51.5113 L1867.24 19.2256 M1865.09 12.096 L1875.38 12.096 L1875.38 51.5113 L1884.01 51.5113 L1884.01 58.3168 L1875.38 58.3168 L1875.38 72.576 L1867.24 72.576 L1867.24 58.3168 L1839.94 58.3168 L1839.94 50.4176 L1865.09 12.096 Z" fill="#000000" fill-rule="nonzero" fill-opacity="1" /><path clip-path="url(#clip640)" d="M1897.54 62.2867 L1906.09 62.2867 L1906.09 72.576 L1897.54 72.576 L1897.54 62.2867 Z" fill="#000000" fill-rule="nonzero" fill-opacity="1" /><path clip-path="url(#clip640)" d="M1930.96 65.6895 L1959.52 65.6895 L1959.52 72.576 L1921.12 72.576 L1921.12 65.6895 Q1925.78 60.8689 1933.8 52.7671 Q1941.86 44.6248 1943.92 42.2752 Q1947.85 37.8598 1949.39 34.8216 Q1950.97 31.7429 1950.97 28.7857 Q1950.97 23.9651 1947.57 20.927 Q1944.21 17.8888 1938.78 17.8888 Q1934.93 17.8888 1930.64 19.2256 Q1926.38 20.5624 1921.52 23.2765 L1921.52 15.0127 Q1926.46 13.0277 1930.76 12.015 Q1935.05 11.0023 1938.62 11.0023 Q1948.02 11.0023 1953.61 15.7013 Q1959.2 20.4004 1959.2 28.2591 Q1959.2 31.9859 1957.78 35.3482 Q1956.4 38.6699 1952.71 43.2069 Q1951.7 44.3817 1946.27 50.0125 Q1940.85 55.6027 1930.96 65.6895 Z" fill="#000000" fill-rule="nonzero" fill-opacity="1" /><path clip-path="url(#clip640)" d="M2024.98 9.54393 L2024.98 15.7418 L2017.85 15.7418 Q2013.84 15.7418 2012.26 17.3622 Q2010.72 18.9825 2010.72 23.1955 L2010.72 27.2059 L2023 27.2059 L2023 32.9987 L2010.72 32.9987 L2010.72 72.576 L2003.23 72.576 L2003.23 32.9987 L1996.1 32.9987 L1996.1 27.2059 L2003.23 27.2059 L2003.23 24.0462 Q2003.23 16.471 2006.75 13.0277 Q2010.28 9.54393 2017.93 9.54393 L2024.98 9.54393 Z" fill="#000000" fill-rule="nonzero" fill-opacity="1" /><path clip-path="url(#clip640)" d="M2031.22 27.2059 L2038.67 27.2059 L2038.67 72.576 L2031.22 72.576 L2031.22 27.2059 M2031.22 9.54393 L2038.67 9.54393 L2038.67 18.9825 L2031.22 18.9825 L2031.22 9.54393 Z" fill="#000000" fill-rule="nonzero" fill-opacity="1" /><path clip-path="url(#clip640)" d="M2084.13 34.0924 L2084.13 9.54393 L2091.58 9.54393 L2091.58 72.576 L2084.13 72.576 L2084.13 65.7705 Q2081.78 69.8214 2078.17 71.8063 Q2074.61 73.7508 2069.58 73.7508 Q2061.36 73.7508 2056.17 67.1883 Q2051.03 60.6258 2051.03 49.9314 Q2051.03 39.2371 2056.17 32.6746 Q2061.36 26.1121 2069.58 26.1121 Q2074.61 26.1121 2078.17 28.0971 Q2081.78 30.0415 2084.13 34.0924 M2058.73 49.9314 Q2058.73 58.1548 2062.09 62.8538 Q2065.49 67.5124 2071.41 67.5124 Q2077.32 67.5124 2080.72 62.8538 Q2084.13 58.1548 2084.13 49.9314 Q2084.13 41.7081 2080.72 37.0496 Q2077.32 32.3505 2071.41 32.3505 Q2065.49 32.3505 2062.09 37.0496 Q2058.73 41.7081 2058.73 49.9314 Z" fill="#000000" fill-rule="nonzero" fill-opacity="1" /><path clip-path="url(#clip640)" d="M2145.74 48.0275 L2145.74 51.6733 L2111.47 51.6733 Q2111.96 59.3701 2116.09 63.421 Q2120.26 67.4314 2127.67 67.4314 Q2131.97 67.4314 2135.98 66.3781 Q2140.03 65.3249 2144 63.2184 L2144 70.267 Q2139.99 71.9684 2135.77 72.8596 Q2131.56 73.7508 2127.23 73.7508 Q2116.37 73.7508 2110.01 67.4314 Q2103.69 61.1119 2103.69 50.3365 Q2103.69 39.1965 2109.69 32.6746 Q2115.72 26.1121 2125.93 26.1121 Q2135.09 26.1121 2140.39 32.0264 Q2145.74 37.9003 2145.74 48.0275 M2138.29 45.84 Q2138.21 39.7232 2134.84 36.0774 Q2131.52 32.4315 2126.01 32.4315 Q2119.77 32.4315 2116.01 35.9558 Q2112.28 39.4801 2111.71 45.8805 L2138.29 45.84 Z" fill="#000000" fill-rule="nonzero" fill-opacity="1" /><path clip-path="url(#clip640)" d="M2157.97 9.54393 L2165.43 9.54393 L2165.43 72.576 L2157.97 72.576 L2157.97 9.54393 Z" fill="#000000" fill-rule="nonzero" fill-opacity="1" /><path clip-path="url(#clip640)" d="M2181.02 27.2059 L2188.48 27.2059 L2188.48 72.576 L2181.02 72.576 L2181.02 27.2059 M2181.02 9.54393 L2188.48 9.54393 L2188.48 18.9825 L2181.02 18.9825 L2181.02 9.54393 Z" fill="#000000" fill-rule="nonzero" fill-opacity="1" /><path clip-path="url(#clip640)" d="M2211.45 14.324 L2211.45 27.2059 L2226.8 27.2059 L2226.8 32.9987 L2211.45 32.9987 L2211.45 57.6282 Q2211.45 63.1779 2212.94 64.7578 Q2214.48 66.3376 2219.14 66.3376 L2226.8 66.3376 L2226.8 72.576 L2219.14 72.576 Q2210.51 72.576 2207.23 69.3758 Q2203.95 66.1351 2203.95 57.6282 L2203.95 32.9987 L2198.48 32.9987 L2198.48 27.2059 L2203.95 27.2059 L2203.95 14.324 L2211.45 14.324 Z" fill="#000000" fill-rule="nonzero" fill-opacity="1" /><path clip-path="url(#clip640)" d="M2255.48 76.7889 Q2252.32 84.8907 2249.32 87.3618 Q2246.32 89.8329 2241.3 89.8329 L2235.35 89.8329 L2235.35 83.5945 L2239.72 83.5945 Q2242.8 83.5945 2244.5 82.1361 Q2246.2 80.6778 2248.27 75.2496 L2249.61 71.8468 L2231.25 27.2059 L2239.15 27.2059 L2253.33 62.6918 L2267.51 27.2059 L2275.41 27.2059 L2255.48 76.7889 Z" fill="#000000" fill-rule="nonzero" fill-opacity="1" /><path clip-path="url(#clip640)" d="M2286.67 34.9026 L2338.6 34.9026 L2338.6 41.7081 L2286.67 41.7081 L2286.67 34.9026 M2286.67 51.4303 L2338.6 51.4303 L2338.6 58.3168 L2286.67 58.3168 L2286.67 51.4303 Z" fill="#000000" fill-rule="nonzero" fill-opacity="1" /><path clip-path="url(#clip640)" d="M2357.68 65.6895 L2371.05 65.6895 L2371.05 19.5497 L2356.51 22.4663 L2356.51 15.0127 L2370.97 12.096 L2379.15 12.096 L2379.15 65.6895 L2392.52 65.6895 L2392.52 72.576 L2357.68 72.576 L2357.68 65.6895 Z" fill="#000000" fill-rule="nonzero" fill-opacity="1" /><path clip-path="url(#clip640)" d="M2409.05 62.2867 L2417.6 62.2867 L2417.6 72.576 L2409.05 72.576 L2409.05 62.2867 Z" fill="#000000" fill-rule="nonzero" fill-opacity="1" /><path clip-path="url(#clip640)" d="M2452.92 17.4837 Q2446.6 17.4837 2443.4 23.7221 Q2440.24 29.92 2440.24 42.3968 Q2440.24 54.833 2443.4 61.0714 Q2446.6 67.2693 2452.92 67.2693 Q2459.28 67.2693 2462.44 61.0714 Q2465.64 54.833 2465.64 42.3968 Q2465.64 29.92 2462.44 23.7221 Q2459.28 17.4837 2452.92 17.4837 M2452.92 11.0023 Q2463.09 11.0023 2468.43 19.0636 Q2473.82 27.0843 2473.82 42.3968 Q2473.82 57.6687 2468.43 65.73 Q2463.09 73.7508 2452.92 73.7508 Q2442.75 73.7508 2437.36 65.73 Q2432.02 57.6687 2432.02 42.3968 Q2432.02 27.0843 2437.36 19.0636 Q2442.75 11.0023 2452.92 11.0023 Z" fill="#000000" fill-rule="nonzero" fill-opacity="1" /><path clip-path="url(#clip641)" d="M519.908 252.352 L519.908 1481.96 L1562.63 1481.96 L1562.63 252.352 L519.908 252.352 L519.908 252.352  Z" fill="#0c7e8f" fill-rule="evenodd" fill-opacity="1"/>
<polyline clip-path="url(#clip641)" style="stroke:#000000; stroke-linecap:round; stroke-linejoin:round; stroke-width:4; stroke-opacity:1; fill:none" points="519.908,252.352 519.908,1481.96 1562.63,1481.96 1562.63,252.352 519.908,252.352 "/>
<path clip-path="url(#clip641)" d="M1823.31 271.87 L1823.31 1481.96 L2866.03 1481.96 L2866.03 271.87 L1823.31 271.87 L1823.31 271.87  Z" fill="#0c7e8f" fill-rule="evenodd" fill-opacity="1"/>
<polyline clip-path="url(#clip641)" style="stroke:#000000; stroke-linecap:round; stroke-linejoin:round; stroke-width:4; stroke-opacity:1; fill:none" points="1823.31,271.87 1823.31,1481.96 2866.03,1481.96 2866.03,271.87 1823.31,271.87 "/>
<circle clip-path="url(#clip641)" style="fill:#009af9; stroke:none; fill-opacity:0" cx="1041.27" cy="252.352" r="2"/>
<circle clip-path="url(#clip641)" style="fill:#009af9; stroke:none; fill-opacity:0" cx="2344.67" cy="271.87" r="2"/>
</svg>
