<?xml version="1.0" encoding="utf-8"?>
<svg xmlns="http://www.w3.org/2000/svg" xmlns:xlink="http://www.w3.org/1999/xlink" width="800" height="450" viewBox="0 0 3200 1800">
<defs>
  <clipPath id="clip660">
    <rect x="0" y="0" width="3200" height="1800"/>
  </clipPath>
</defs>
<path clip-path="url(#clip660)" d="M0 1800 L3200 1800 L3200 0 L0 0  Z" fill="#ffffff" fill-rule="evenodd" fill-opacity="1"/>
<defs>
  <clipPath id="clip661">
    <rect x="640" y="0" width="2241" height="1800"/>
  </clipPath>
</defs>
<path clip-path="url(#clip660)" d="M376.433 1463.75 L3011.02 1463.75 L3011.02 255.754 L376.433 255.754  Z" fill="#ffffff" fill-rule="evenodd" fill-opacity="1"/>
<defs>
  <clipPath id="clip662">
    <rect x="376" y="255" width="2636" height="1209"/>
  </clipPath>
</defs>
<polyline clip-path="url(#clip662)" style="stroke:#000000; stroke-linecap:round; stroke-linejoin:round; stroke-width:2; stroke-opacity:0.1; fill:none" points="584.712,1463.75 584.712,255.754 "/>
<polyline clip-path="url(#clip662)" style="stroke:#000000; stroke-linecap:round; stroke-linejoin:round; stroke-width:2; stroke-opacity:0.1; fill:none" points="743.143,1463.75 743.143,255.754 "/>
<polyline clip-path="url(#clip662)" style="stroke:#000000; stroke-linecap:round; stroke-linejoin:round; stroke-width:2; stroke-opacity:0.1; fill:none" points="901.574,1463.75 901.574,255.754 "/>
<polyline clip-path="url(#clip662)" style="stroke:#000000; stroke-linecap:round; stroke-linejoin:round; stroke-width:2; stroke-opacity:0.1; fill:none" points="1060,1463.75 1060,255.754 "/>
<polyline clip-path="url(#clip662)" style="stroke:#000000; stroke-linecap:round; stroke-linejoin:round; stroke-width:2; stroke-opacity:0.1; fill:none" points="1218.44,1463.75 1218.44,255.754 "/>
<polyline clip-path="url(#clip662)" style="stroke:#000000; stroke-linecap:round; stroke-linejoin:round; stroke-width:2; stroke-opacity:0.1; fill:none" points="1376.87,1463.75 1376.87,255.754 "/>
<polyline clip-path="url(#clip662)" style="stroke:#000000; stroke-linecap:round; stroke-linejoin:round; stroke-width:2; stroke-opacity:0.1; fill:none" points="1535.3,1463.75 1535.3,255.754 "/>
<polyline clip-path="url(#clip662)" style="stroke:#000000; stroke-linecap:round; stroke-linejoin:round; stroke-width:2; stroke-opacity:0.1; fill:none" points="1693.73,1463.75 1693.73,255.754 "/>
<polyline clip-path="url(#clip662)" style="stroke:#000000; stroke-linecap:round; stroke-linejoin:round; stroke-width:2; stroke-opacity:0.1; fill:none" points="1852.16,1463.75 1852.16,255.754 "/>
<polyline clip-path="url(#clip662)" style="stroke:#000000; stroke-linecap:round; stroke-linejoin:round; stroke-width:2; stroke-opacity:0.1; fill:none" points="2010.59,1463.75 2010.59,255.754 "/>
<polyline clip-path="url(#clip662)" style="stroke:#000000; stroke-linecap:round; stroke-linejoin:round; stroke-width:2; stroke-opacity:0.1; fill:none" points="2169.02,1463.75 2169.02,255.754 "/>
<polyline clip-path="url(#clip662)" style="stroke:#000000; stroke-linecap:round; stroke-linejoin:round; stroke-width:2; stroke-opacity:0.1; fill:none" points="2327.45,1463.75 2327.45,255.754 "/>
<polyline clip-path="url(#clip662)" style="stroke:#000000; stroke-linecap:round; stroke-linejoin:round; stroke-width:2; stroke-opacity:0.1; fill:none" points="2485.88,1463.75 2485.88,255.754 "/>
<polyline clip-path="url(#clip662)" style="stroke:#000000; stroke-linecap:round; stroke-linejoin:round; stroke-width:2; stroke-opacity:0.1; fill:none" points="2644.31,1463.75 2644.31,255.754 "/>
<polyline clip-path="url(#clip662)" style="stroke:#000000; stroke-linecap:round; stroke-linejoin:round; stroke-width:2; stroke-opacity:0.1; fill:none" points="2802.74,1463.75 2802.74,255.754 "/>
<polyline clip-path="url(#clip662)" style="stroke:#000000; stroke-linecap:round; stroke-linejoin:round; stroke-width:2; stroke-opacity:0.1; fill:none" points="376.433,1463.75 3011.02,1463.75 "/>
<polyline clip-path="url(#clip662)" style="stroke:#000000; stroke-linecap:round; stroke-linejoin:round; stroke-width:2; stroke-opacity:0.1; fill:none" points="376.433,1079.04 3011.02,1079.04 "/>
<polyline clip-path="url(#clip662)" style="stroke:#000000; stroke-linecap:round; stroke-linejoin:round; stroke-width:2; stroke-opacity:0.1; fill:none" points="376.433,694.327 3011.02,694.327 "/>
<polyline clip-path="url(#clip662)" style="stroke:#000000; stroke-linecap:round; stroke-linejoin:round; stroke-width:2; stroke-opacity:0.1; fill:none" points="376.433,309.614 3011.02,309.614 "/>
<polyline clip-path="url(#clip660)" style="stroke:#000000; stroke-linecap:round; stroke-linejoin:round; stroke-width:4; stroke-opacity:1; fill:none" points="376.433,1463.75 3011.02,1463.75 "/>
<polyline clip-path="url(#clip660)" style="stroke:#000000; stroke-linecap:round; stroke-linejoin:round; stroke-width:4; stroke-opacity:1; fill:none" points="584.712,1463.75 584.712,1444.86 "/>
<polyline clip-path="url(#clip660)" style="stroke:#000000; stroke-linecap:round; stroke-linejoin:round; stroke-width:4; stroke-opacity:1; fill:none" points="743.143,1463.75 743.143,1444.86 "/>
<polyline clip-path="url(#clip660)" style="stroke:#000000; stroke-linecap:round; stroke-linejoin:round; stroke-width:4; stroke-opacity:1; fill:none" points="901.574,1463.75 901.574,1444.86 "/>
<polyline clip-path="url(#clip660)" style="stroke:#000000; stroke-linecap:round; stroke-linejoin:round; stroke-width:4; stroke-opacity:1; fill:none" points="1060,1463.75 1060,1444.86 "/>
<polyline clip-path="url(#clip660)" style="stroke:#000000; stroke-linecap:round; stroke-linejoin:round; stroke-width:4; stroke-opacity:1; fill:none" points="1218.44,1463.75 1218.44,1444.86 "/>
<polyline clip-path="url(#clip660)" style="stroke:#000000; stroke-linecap:round; stroke-linejoin:round; stroke-width:4; stroke-opacity:1; fill:none" points="1376.87,1463.75 1376.87,1444.86 "/>
<polyline clip-path="url(#clip660)" style="stroke:#000000; stroke-linecap:round; stroke-linejoin:round; stroke-width:4; stroke-opacity:1; fill:none" points="1535.3,1463.75 1535.3,1444.86 "/>
<polyline clip-path="url(#clip660)" style="stroke:#000000; stroke-linecap:round; stroke-linejoin:round; stroke-width:4; stroke-opacity:1; fill:none" points="1693.73,1463.75 1693.73,1444.86 "/>
<polyline clip-path="url(#clip660)" style="stroke:#000000; stroke-linecap:round; stroke-linejoin:round; stroke-width:4; stroke-opacity:1; fill:none" points="1852.16,1463.75 1852.16,1444.86 "/>
<polyline clip-path="url(#clip660)" style="stroke:#000000; stroke-linecap:round; stroke-linejoin:round; stroke-width:4; stroke-opacity:1; fill:none" points="2010.59,1463.75 2010.59,1444.86 "/>
<polyline clip-path="url(#clip660)" style="stroke:#000000; stroke-linecap:round; stroke-linejoin:round; stroke-width:4; stroke-opacity:1; fill:none" points="2169.02,1463.75 2169.02,1444.86 "/>
<polyline clip-path="url(#clip660)" style="stroke:#000000; stroke-linecap:round; stroke-linejoin:round; stroke-width:4; stroke-opacity:1; fill:none" points="2327.45,1463.75 2327.45,1444.86 "/>
<polyline clip-path="url(#clip660)" style="stroke:#000000; stroke-linecap:round; stroke-linejoin:round; stroke-width:4; stroke-opacity:1; fill:none" points="2485.88,1463.75 2485.88,1444.86 "/>
<polyline clip-path="url(#clip660)" style="stroke:#000000; stroke-linecap:round; stroke-linejoin:round; stroke-width:4; stroke-opacity:1; fill:none" points="2644.31,1463.75 2644.31,1444.86 "/>
<polyline clip-path="url(#clip660)" style="stroke:#000000; stroke-linecap:round; stroke-linejoin:round; stroke-width:4; stroke-opacity:1; fill:none" points="2802.74,1463.75 2802.74,1444.86 "/>
<path clip-path="url(#clip660)" d="M570.511 1621.94 Q570.511 1625.56 574.076 1627.38 Q577.617 1629.19 584.747 1629.19 Q591.853 1629.19 595.418 1627.38 Q598.96 1625.56 598.96 1621.94 Q598.96 1618.31 595.418 1616.51 Q591.853 1614.68 584.747 1614.68 Q577.617 1614.68 574.076 1616.51 Q570.511 1618.31 570.511 1621.94 M566.807 1621.94 Q566.807 1616.13 571.414 1613.08 Q575.997 1610 584.747 1610 Q593.474 1610 598.08 1613.08 Q602.664 1616.13 602.664 1621.94 Q602.664 1627.75 598.08 1630.83 Q593.474 1633.89 584.747 1633.89 Q575.997 1633.89 571.414 1630.83 Q566.807 1627.75 566.807 1621.94 Z" fill="#000000" fill-rule="nonzero" fill-opacity="1" /><path clip-path="url(#clip660)" d="M570.511 1591.78 Q570.511 1595.39 574.076 1597.22 Q577.617 1599.03 584.747 1599.03 Q591.853 1599.03 595.418 1597.22 Q598.96 1595.39 598.96 1591.78 Q598.96 1588.15 595.418 1586.34 Q591.853 1584.51 584.747 1584.51 Q577.617 1584.51 574.076 1586.34 Q570.511 1588.15 570.511 1591.78 M566.807 1591.78 Q566.807 1585.97 571.414 1582.92 Q575.997 1579.84 584.747 1579.84 Q593.474 1579.84 598.08 1582.92 Q602.664 1585.97 602.664 1591.78 Q602.664 1597.59 598.08 1600.67 Q593.474 1603.73 584.747 1603.73 Q575.997 1603.73 571.414 1600.67 Q566.807 1597.59 566.807 1591.78 Z" fill="#000000" fill-rule="nonzero" fill-opacity="1" /><path clip-path="url(#clip660)" d="M570.511 1561.62 Q570.511 1565.23 574.076 1567.06 Q577.617 1568.87 584.747 1568.87 Q591.853 1568.87 595.418 1567.06 Q598.96 1565.23 598.96 1561.62 Q598.96 1557.99 595.418 1556.18 Q591.853 1554.35 584.747 1554.35 Q577.617 1554.35 574.076 1556.18 Q570.511 1557.99 570.511 1561.62 M566.807 1561.62 Q566.807 1555.81 571.414 1552.76 Q575.997 1549.68 584.747 1549.68 Q593.474 1549.68 598.08 1552.76 Q602.664 1555.81 602.664 1561.62 Q602.664 1567.43 598.08 1570.51 Q593.474 1573.57 584.747 1573.57 Q575.997 1573.57 571.414 1570.51 Q566.807 1567.43 566.807 1561.62 Z" fill="#000000" fill-rule="nonzero" fill-opacity="1" /><path clip-path="url(#clip660)" d="M570.511 1531.46 Q570.511 1535.07 574.076 1536.9 Q577.617 1538.7 584.747 1538.7 Q591.853 1538.7 595.418 1536.9 Q598.96 1535.07 598.96 1531.46 Q598.96 1527.82 595.418 1526.02 Q591.853 1524.19 584.747 1524.19 Q577.617 1524.19 574.076 1526.02 Q570.511 1527.82 570.511 1531.46 M566.807 1531.46 Q566.807 1525.65 571.414 1522.59 Q575.997 1519.51 584.747 1519.51 Q593.474 1519.51 598.08 1522.59 Q602.664 1525.65 602.664 1531.46 Q602.664 1537.27 598.08 1540.35 Q593.474 1543.4 584.747 1543.4 Q575.997 1543.4 571.414 1540.35 Q566.807 1537.27 566.807 1531.46 Z" fill="#000000" fill-rule="nonzero" fill-opacity="1" /><path clip-path="url(#clip660)" d="M570.511 1501.3 Q570.511 1504.91 574.076 1506.74 Q577.617 1508.54 584.747 1508.54 Q591.853 1508.54 595.418 1506.74 Q598.96 1504.91 598.96 1501.3 Q598.96 1497.66 595.418 1495.86 Q591.853 1494.03 584.747 1494.03 Q577.617 1494.03 574.076 1495.86 Q570.511 1497.66 570.511 1501.3 M566.807 1501.3 Q566.807 1495.49 571.414 1492.43 Q575.997 1489.35 584.747 1489.35 Q593.474 1489.35 598.08 1492.43 Q602.664 1495.49 602.664 1501.3 Q602.664 1507.11 598.08 1510.19 Q593.474 1513.24 584.747 1513.24 Q575.997 1513.24 571.414 1510.19 Q566.807 1507.11 566.807 1501.3 Z" fill="#000000" fill-rule="nonzero" fill-opacity="1" /><path clip-path="url(#clip660)" d="M756.488 1629.91 L756.488 1622.27 L730.122 1622.27 L731.789 1630.58 L727.53 1630.58 L725.863 1622.32 L725.863 1617.64 L756.488 1617.64 L756.488 1610 L760.423 1610 L760.423 1629.91 L756.488 1629.91 Z" fill="#000000" fill-rule="nonzero" fill-opacity="1" /><path clip-path="url(#clip660)" d="M756.488 1599.75 L756.488 1592.11 L730.122 1592.11 L731.789 1600.42 L727.53 1600.42 L725.863 1592.15 L725.863 1587.48 L756.488 1587.48 L756.488 1579.84 L760.423 1579.84 L760.423 1599.75 L756.488 1599.75 Z" fill="#000000" fill-rule="nonzero" fill-opacity="1" /><path clip-path="url(#clip660)" d="M756.488 1569.58 L756.488 1561.95 L730.122 1561.95 L731.789 1570.26 L727.53 1570.26 L725.863 1561.99 L725.863 1557.32 L756.488 1557.32 L756.488 1549.68 L760.423 1549.68 L760.423 1569.58 L756.488 1569.58 Z" fill="#000000" fill-rule="nonzero" fill-opacity="1" /><path clip-path="url(#clip660)" d="M756.488 1539.42 L756.488 1531.78 L730.122 1531.78 L731.789 1540.09 L727.53 1540.09 L725.863 1531.83 L725.863 1527.15 L756.488 1527.15 L756.488 1519.51 L760.423 1519.51 L760.423 1539.42 L756.488 1539.42 Z" fill="#000000" fill-rule="nonzero" fill-opacity="1" /><path clip-path="url(#clip660)" d="M756.488 1509.26 L756.488 1501.62 L730.122 1501.62 L731.789 1509.93 L727.53 1509.93 L725.863 1501.67 L725.863 1496.99 L756.488 1496.99 L756.488 1489.35 L760.423 1489.35 L760.423 1509.26 L756.488 1509.26 Z" fill="#000000" fill-rule="nonzero" fill-opacity="1" /><path clip-path="url(#clip660)" d="M914.919 1631.13 L914.919 1623.5 L888.553 1623.5 L890.22 1631.81 L885.961 1631.81 L884.294 1623.54 L884.294 1618.87 L914.919 1618.87 L914.919 1611.23 L918.854 1611.23 L918.854 1631.13 L914.919 1631.13 Z" fill="#000000" fill-rule="nonzero" fill-opacity="1" /><path clip-path="url(#clip660)" d="M887.373 1591.78 Q887.373 1595.39 890.937 1597.22 Q894.479 1599.03 901.609 1599.03 Q908.715 1599.03 912.28 1597.22 Q915.822 1595.39 915.822 1591.78 Q915.822 1588.15 912.28 1586.34 Q908.715 1584.51 901.609 1584.51 Q894.479 1584.51 890.937 1586.34 Q887.373 1588.15 887.373 1591.78 M883.669 1591.78 Q883.669 1585.97 888.275 1582.92 Q892.859 1579.84 901.609 1579.84 Q910.335 1579.84 914.942 1582.92 Q919.525 1585.97 919.525 1591.78 Q919.525 1597.59 914.942 1600.67 Q910.335 1603.73 901.609 1603.73 Q892.859 1603.73 888.275 1600.67 Q883.669 1597.59 883.669 1591.78 Z" fill="#000000" fill-rule="nonzero" fill-opacity="1" /><path clip-path="url(#clip660)" d="M887.373 1561.62 Q887.373 1565.23 890.937 1567.06 Q894.479 1568.87 901.609 1568.87 Q908.715 1568.87 912.28 1567.06 Q915.822 1565.23 915.822 1561.62 Q915.822 1557.99 912.28 1556.18 Q908.715 1554.35 901.609 1554.35 Q894.479 1554.35 890.937 1556.18 Q887.373 1557.99 887.373 1561.62 M883.669 1561.62 Q883.669 1555.81 888.275 1552.76 Q892.859 1549.68 901.609 1549.68 Q910.335 1549.68 914.942 1552.76 Q919.525 1555.81 919.525 1561.62 Q919.525 1567.43 914.942 1570.51 Q910.335 1573.57 901.609 1573.57 Q892.859 1573.57 888.275 1570.51 Q883.669 1567.43 883.669 1561.62 Z" fill="#000000" fill-rule="nonzero" fill-opacity="1" /><path clip-path="url(#clip660)" d="M887.373 1531.46 Q887.373 1535.07 890.937 1536.9 Q894.479 1538.7 901.609 1538.7 Q908.715 1538.7 912.28 1536.9 Q915.822 1535.07 915.822 1531.46 Q915.822 1527.82 912.28 1526.02 Q908.715 1524.19 901.609 1524.19 Q894.479 1524.19 890.937 1526.02 Q887.373 1527.82 887.373 1531.46 M883.669 1531.46 Q883.669 1525.65 888.275 1522.59 Q892.859 1519.51 901.609 1519.51 Q910.335 1519.51 914.942 1522.59 Q919.525 1525.65 919.525 1531.46 Q919.525 1537.27 914.942 1540.35 Q910.335 1543.4 901.609 1543.4 Q892.859 1543.4 888.275 1540.35 Q883.669 1537.27 883.669 1531.46 Z" fill="#000000" fill-rule="nonzero" fill-opacity="1" /><path clip-path="url(#clip660)" d="M887.373 1501.3 Q887.373 1504.91 890.937 1506.74 Q894.479 1508.54 901.609 1508.54 Q908.715 1508.54 912.28 1506.74 Q915.822 1504.91 915.822 1501.3 Q915.822 1497.66 912.28 1495.86 Q908.715 1494.03 901.609 1494.03 Q894.479 1494.03 890.937 1495.86 Q887.373 1497.66 887.373 1501.3 M883.669 1501.3 Q883.669 1495.49 888.275 1492.43 Q892.859 1489.35 901.609 1489.35 Q910.335 1489.35 914.942 1492.43 Q919.525 1495.49 919.525 1501.3 Q919.525 1507.11 914.942 1510.19 Q910.335 1513.24 901.609 1513.24 Q892.859 1513.24 888.275 1510.19 Q883.669 1507.11 883.669 1501.3 Z" fill="#000000" fill-rule="nonzero" fill-opacity="1" /><path clip-path="url(#clip660)" d="M1073.35 1629.91 L1073.35 1622.27 L1046.98 1622.27 L1048.65 1630.58 L1044.39 1630.58 L1042.72 1622.32 L1042.72 1617.64 L1073.35 1617.64 L1073.35 1610 L1077.28 1610 L1077.28 1629.91 L1073.35 1629.91 Z" fill="#000000" fill-rule="nonzero" fill-opacity="1" /><path clip-path="url(#clip660)" d="M1045.8 1590.56 Q1045.8 1594.17 1049.37 1596 Q1052.91 1597.8 1060.04 1597.8 Q1067.15 1597.8 1070.71 1596 Q1074.25 1594.17 1074.25 1590.56 Q1074.25 1586.92 1070.71 1585.12 Q1067.15 1583.29 1060.04 1583.29 Q1052.91 1583.29 1049.37 1585.12 Q1045.8 1586.92 1045.8 1590.56 M1042.1 1590.56 Q1042.1 1584.75 1046.71 1581.69 Q1051.29 1578.61 1060.04 1578.61 Q1068.77 1578.61 1073.37 1581.69 Q1077.96 1584.75 1077.96 1590.56 Q1077.96 1596.37 1073.37 1599.44 Q1068.77 1602.5 1060.04 1602.5 Q1051.29 1602.5 1046.71 1599.44 Q1042.1 1596.37 1042.1 1590.56 Z" fill="#000000" fill-rule="nonzero" fill-opacity="1" /><path clip-path="url(#clip660)" d="M1073.35 1569.58 L1073.35 1561.95 L1046.98 1561.95 L1048.65 1570.26 L1044.39 1570.26 L1042.72 1561.99 L1042.72 1557.32 L1073.35 1557.32 L1073.35 1549.68 L1077.28 1549.68 L1077.28 1569.58 L1073.35 1569.58 Z" fill="#000000" fill-rule="nonzero" fill-opacity="1" /><path clip-path="url(#clip660)" d="M1073.35 1539.42 L1073.35 1531.78 L1046.98 1531.78 L1048.65 1540.09 L1044.39 1540.09 L1042.72 1531.83 L1042.72 1527.15 L1073.35 1527.15 L1073.35 1519.51 L1077.28 1519.51 L1077.28 1539.42 L1073.35 1539.42 Z" fill="#000000" fill-rule="nonzero" fill-opacity="1" /><path clip-path="url(#clip660)" d="M1073.35 1509.26 L1073.35 1501.62 L1046.98 1501.62 L1048.65 1509.93 L1044.39 1509.93 L1042.72 1501.67 L1042.72 1496.99 L1073.35 1496.99 L1073.35 1489.35 L1077.28 1489.35 L1077.28 1509.26 L1073.35 1509.26 Z" fill="#000000" fill-rule="nonzero" fill-opacity="1" /><path clip-path="url(#clip660)" d="M1204.23 1621.94 Q1204.23 1625.56 1207.8 1627.38 Q1211.34 1629.19 1218.47 1629.19 Q1225.58 1629.19 1229.14 1627.38 Q1232.68 1625.56 1232.68 1621.94 Q1232.68 1618.31 1229.14 1616.51 Q1225.58 1614.68 1218.47 1614.68 Q1211.34 1614.68 1207.8 1616.51 Q1204.23 1618.31 1204.23 1621.94 M1200.53 1621.94 Q1200.53 1616.13 1205.14 1613.08 Q1209.72 1610 1218.47 1610 Q1227.2 1610 1231.8 1613.08 Q1236.39 1616.13 1236.39 1621.94 Q1236.39 1627.75 1231.8 1630.83 Q1227.2 1633.89 1218.47 1633.89 Q1209.72 1633.89 1205.14 1630.83 Q1200.53 1627.75 1200.53 1621.94 Z" fill="#000000" fill-rule="nonzero" fill-opacity="1" /><path clip-path="url(#clip660)" d="M1231.78 1600.97 L1231.78 1593.33 L1205.41 1593.33 L1207.08 1601.64 L1202.82 1601.64 L1201.16 1593.38 L1201.16 1588.7 L1231.78 1588.7 L1231.78 1581.07 L1235.72 1581.07 L1235.72 1600.97 L1231.78 1600.97 Z" fill="#000000" fill-rule="nonzero" fill-opacity="1" /><path clip-path="url(#clip660)" d="M1204.23 1561.62 Q1204.23 1565.23 1207.8 1567.06 Q1211.34 1568.87 1218.47 1568.87 Q1225.58 1568.87 1229.14 1567.06 Q1232.68 1565.23 1232.68 1561.62 Q1232.68 1557.99 1229.14 1556.18 Q1225.58 1554.35 1218.47 1554.35 Q1211.34 1554.35 1207.8 1556.18 Q1204.23 1557.99 1204.23 1561.62 M1200.53 1561.62 Q1200.53 1555.81 1205.14 1552.76 Q1209.72 1549.68 1218.47 1549.68 Q1227.2 1549.68 1231.8 1552.76 Q1236.39 1555.81 1236.39 1561.62 Q1236.39 1567.43 1231.8 1570.51 Q1227.2 1573.57 1218.47 1573.57 Q1209.72 1573.57 1205.14 1570.51 Q1200.53 1567.43 1200.53 1561.62 Z" fill="#000000" fill-rule="nonzero" fill-opacity="1" /><path clip-path="url(#clip660)" d="M1204.23 1531.46 Q1204.23 1535.07 1207.8 1536.9 Q1211.34 1538.7 1218.47 1538.7 Q1225.58 1538.7 1229.14 1536.9 Q1232.68 1535.07 1232.68 1531.46 Q1232.68 1527.82 1229.14 1526.02 Q1225.58 1524.19 1218.47 1524.19 Q1211.34 1524.19 1207.8 1526.02 Q1204.23 1527.82 1204.23 1531.46 M1200.53 1531.46 Q1200.53 1525.65 1205.14 1522.59 Q1209.72 1519.51 1218.47 1519.51 Q1227.2 1519.51 1231.8 1522.59 Q1236.39 1525.65 1236.39 1531.46 Q1236.39 1537.27 1231.8 1540.35 Q1227.2 1543.4 1218.47 1543.4 Q1209.72 1543.4 1205.14 1540.35 Q1200.53 1537.27 1200.53 1531.46 Z" fill="#000000" fill-rule="nonzero" fill-opacity="1" /><path clip-path="url(#clip660)" d="M1204.23 1501.3 Q1204.23 1504.91 1207.8 1506.74 Q1211.34 1508.54 1218.47 1508.54 Q1225.58 1508.54 1229.14 1506.74 Q1232.68 1504.91 1232.68 1501.3 Q1232.68 1497.66 1229.14 1495.86 Q1225.58 1494.03 1218.47 1494.03 Q1211.34 1494.03 1207.8 1495.86 Q1204.23 1497.66 1204.23 1501.3 M1200.53 1501.3 Q1200.53 1495.49 1205.14 1492.43 Q1209.72 1489.35 1218.47 1489.35 Q1227.2 1489.35 1231.8 1492.43 Q1236.39 1495.49 1236.39 1501.3 Q1236.39 1507.11 1231.8 1510.19 Q1227.2 1513.24 1218.47 1513.24 Q1209.72 1513.24 1205.14 1510.19 Q1200.53 1507.11 1200.53 1501.3 Z" fill="#000000" fill-rule="nonzero" fill-opacity="1" /><path clip-path="url(#clip660)" d="M1362.67 1620.72 Q1362.67 1624.33 1366.23 1626.16 Q1369.77 1627.96 1376.9 1627.96 Q1384.01 1627.96 1387.57 1626.16 Q1391.11 1624.33 1391.11 1620.72 Q1391.11 1617.08 1387.57 1615.28 Q1384.01 1613.45 1376.9 1613.45 Q1369.77 1613.45 1366.23 1615.28 Q1362.67 1617.08 1362.67 1620.72 M1358.96 1620.72 Q1358.96 1614.91 1363.57 1611.85 Q1368.15 1608.77 1376.9 1608.77 Q1385.63 1608.77 1390.23 1611.85 Q1394.82 1614.91 1394.82 1620.72 Q1394.82 1626.53 1390.23 1629.61 Q1385.63 1632.66 1376.9 1632.66 Q1368.15 1632.66 1363.57 1629.61 Q1358.96 1626.53 1358.96 1620.72 Z" fill="#000000" fill-rule="nonzero" fill-opacity="1" /><path clip-path="url(#clip660)" d="M1390.21 1599.75 L1390.21 1592.11 L1363.85 1592.11 L1365.51 1600.42 L1361.25 1600.42 L1359.59 1592.15 L1359.59 1587.48 L1390.21 1587.48 L1390.21 1579.84 L1394.15 1579.84 L1394.15 1599.75 L1390.21 1599.75 Z" fill="#000000" fill-rule="nonzero" fill-opacity="1" /><path clip-path="url(#clip660)" d="M1390.21 1569.58 L1390.21 1561.95 L1363.85 1561.95 L1365.51 1570.26 L1361.25 1570.26 L1359.59 1561.99 L1359.59 1557.32 L1390.21 1557.32 L1390.21 1549.68 L1394.15 1549.68 L1394.15 1569.58 L1390.21 1569.58 Z" fill="#000000" fill-rule="nonzero" fill-opacity="1" /><path clip-path="url(#clip660)" d="M1390.21 1539.42 L1390.21 1531.78 L1363.85 1531.78 L1365.51 1540.09 L1361.25 1540.09 L1359.59 1531.83 L1359.59 1527.15 L1390.21 1527.15 L1390.21 1519.51 L1394.15 1519.51 L1394.15 1539.42 L1390.21 1539.42 Z" fill="#000000" fill-rule="nonzero" fill-opacity="1" /><path clip-path="url(#clip660)" d="M1390.21 1509.26 L1390.21 1501.62 L1363.85 1501.62 L1365.51 1509.93 L1361.25 1509.93 L1359.59 1501.67 L1359.59 1496.99 L1390.21 1496.99 L1390.21 1489.35 L1394.15 1489.35 L1394.15 1509.26 L1390.21 1509.26 Z" fill="#000000" fill-rule="nonzero" fill-opacity="1" /><path clip-path="url(#clip660)" d="M1548.64 1629.91 L1548.64 1622.27 L1522.28 1622.27 L1523.94 1630.58 L1519.68 1630.58 L1518.02 1622.32 L1518.02 1617.64 L1548.64 1617.64 L1548.64 1610 L1552.58 1610 L1552.58 1629.91 L1548.64 1629.91 Z" fill="#000000" fill-rule="nonzero" fill-opacity="1" /><path clip-path="url(#clip660)" d="M1548.64 1599.75 L1548.64 1592.11 L1522.28 1592.11 L1523.94 1600.42 L1519.68 1600.42 L1518.02 1592.15 L1518.02 1587.48 L1548.64 1587.48 L1548.64 1579.84 L1552.58 1579.84 L1552.58 1599.75 L1548.64 1599.75 Z" fill="#000000" fill-rule="nonzero" fill-opacity="1" /><path clip-path="url(#clip660)" d="M1521.1 1560.39 Q1521.1 1564.01 1524.66 1565.83 Q1528.2 1567.64 1535.33 1567.64 Q1542.44 1567.64 1546 1565.83 Q1549.54 1564.01 1549.54 1560.39 Q1549.54 1556.76 1546 1554.95 Q1542.44 1553.13 1535.33 1553.13 Q1528.2 1553.13 1524.66 1554.95 Q1521.1 1556.76 1521.1 1560.39 M1517.39 1560.39 Q1517.39 1554.58 1522 1551.53 Q1526.58 1548.45 1535.33 1548.45 Q1544.06 1548.45 1548.67 1551.53 Q1553.25 1554.58 1553.25 1560.39 Q1553.25 1566.2 1548.67 1569.28 Q1544.06 1572.34 1535.33 1572.34 Q1526.58 1572.34 1522 1569.28 Q1517.39 1566.2 1517.39 1560.39 Z" fill="#000000" fill-rule="nonzero" fill-opacity="1" /><path clip-path="url(#clip660)" d="M1548.64 1539.42 L1548.64 1531.78 L1522.28 1531.78 L1523.94 1540.09 L1519.68 1540.09 L1518.02 1531.83 L1518.02 1527.15 L1548.64 1527.15 L1548.64 1519.51 L1552.58 1519.51 L1552.58 1539.42 L1548.64 1539.42 Z" fill="#000000" fill-rule="nonzero" fill-opacity="1" /><path clip-path="url(#clip660)" d="M1548.64 1509.26 L1548.64 1501.62 L1522.28 1501.62 L1523.94 1509.93 L1519.68 1509.93 L1518.02 1501.67 L1518.02 1496.99 L1548.64 1496.99 L1548.64 1489.35 L1552.58 1489.35 L1552.58 1509.26 L1548.64 1509.26 Z" fill="#000000" fill-rule="nonzero" fill-opacity="1" /><path clip-path="url(#clip660)" d="M1679.53 1621.94 Q1679.53 1625.56 1683.09 1627.38 Q1686.63 1629.19 1693.76 1629.19 Q1700.87 1629.19 1704.43 1627.38 Q1707.98 1625.56 1707.98 1621.94 Q1707.98 1618.31 1704.43 1616.51 Q1700.87 1614.68 1693.76 1614.68 Q1686.63 1614.68 1683.09 1616.51 Q1679.53 1618.31 1679.53 1621.94 M1675.82 1621.94 Q1675.82 1616.13 1680.43 1613.08 Q1685.01 1610 1693.76 1610 Q1702.49 1610 1707.1 1613.08 Q1711.68 1616.13 1711.68 1621.94 Q1711.68 1627.75 1707.1 1630.83 Q1702.49 1633.89 1693.76 1633.89 Q1685.01 1633.89 1680.43 1630.83 Q1675.82 1627.75 1675.82 1621.94 Z" fill="#000000" fill-rule="nonzero" fill-opacity="1" /><path clip-path="url(#clip660)" d="M1679.53 1591.78 Q1679.53 1595.39 1683.09 1597.22 Q1686.63 1599.03 1693.76 1599.03 Q1700.87 1599.03 1704.43 1597.22 Q1707.98 1595.39 1707.98 1591.78 Q1707.98 1588.15 1704.43 1586.34 Q1700.87 1584.51 1693.76 1584.51 Q1686.63 1584.51 1683.09 1586.34 Q1679.53 1588.15 1679.53 1591.78 M1675.82 1591.78 Q1675.82 1585.97 1680.43 1582.92 Q1685.01 1579.84 1693.76 1579.84 Q1702.49 1579.84 1707.1 1582.92 Q1711.68 1585.97 1711.68 1591.78 Q1711.68 1597.59 1707.1 1600.67 Q1702.49 1603.73 1693.76 1603.73 Q1685.01 1603.73 1680.43 1600.67 Q1675.82 1597.59 1675.82 1591.78 Z" fill="#000000" fill-rule="nonzero" fill-opacity="1" /><path clip-path="url(#clip660)" d="M1707.07 1570.81 L1707.07 1563.17 L1680.71 1563.17 L1682.37 1571.48 L1678.11 1571.48 L1676.45 1563.22 L1676.45 1558.54 L1707.07 1558.54 L1707.07 1550.9 L1711.01 1550.9 L1711.01 1570.81 L1707.07 1570.81 Z" fill="#000000" fill-rule="nonzero" fill-opacity="1" /><path clip-path="url(#clip660)" d="M1679.53 1531.46 Q1679.53 1535.07 1683.09 1536.9 Q1686.63 1538.7 1693.76 1538.7 Q1700.87 1538.7 1704.43 1536.9 Q1707.98 1535.07 1707.98 1531.46 Q1707.98 1527.82 1704.43 1526.02 Q1700.87 1524.19 1693.76 1524.19 Q1686.63 1524.19 1683.09 1526.02 Q1679.53 1527.82 1679.53 1531.46 M1675.82 1531.46 Q1675.82 1525.65 1680.43 1522.59 Q1685.01 1519.51 1693.76 1519.51 Q1702.49 1519.51 1707.1 1522.59 Q1711.68 1525.65 1711.68 1531.46 Q1711.68 1537.27 1707.1 1540.35 Q1702.49 1543.4 1693.76 1543.4 Q1685.01 1543.4 1680.43 1540.35 Q1675.82 1537.27 1675.82 1531.46 Z" fill="#000000" fill-rule="nonzero" fill-opacity="1" /><path clip-path="url(#clip660)" d="M1679.53 1501.3 Q1679.53 1504.91 1683.09 1506.74 Q1686.63 1508.54 1693.76 1508.54 Q1700.87 1508.54 1704.43 1506.74 Q1707.98 1504.91 1707.98 1501.3 Q1707.98 1497.66 1704.43 1495.86 Q1700.87 1494.03 1693.76 1494.03 Q1686.63 1494.03 1683.09 1495.86 Q1679.53 1497.66 1679.53 1501.3 M1675.82 1501.3 Q1675.82 1495.49 1680.43 1492.43 Q1685.01 1489.35 1693.76 1489.35 Q1702.49 1489.35 1707.1 1492.43 Q1711.68 1495.49 1711.68 1501.3 Q1711.68 1507.11 1707.1 1510.19 Q1702.49 1513.24 1693.76 1513.24 Q1685.01 1513.24 1680.43 1510.19 Q1675.82 1507.11 1675.82 1501.3 Z" fill="#000000" fill-rule="nonzero" fill-opacity="1" /><path clip-path="url(#clip660)" d="M1837.96 1621.94 Q1837.96 1625.56 1841.52 1627.38 Q1845.06 1629.19 1852.19 1629.19 Q1859.3 1629.19 1862.86 1627.38 Q1866.41 1625.56 1866.41 1621.94 Q1866.41 1618.31 1862.86 1616.51 Q1859.3 1614.68 1852.19 1614.68 Q1845.06 1614.68 1841.52 1616.51 Q1837.96 1618.31 1837.96 1621.94 M1834.25 1621.94 Q1834.25 1616.13 1838.86 1613.08 Q1843.44 1610 1852.19 1610 Q1860.92 1610 1865.53 1613.08 Q1870.11 1616.13 1870.11 1621.94 Q1870.11 1627.75 1865.53 1630.83 Q1860.92 1633.89 1852.19 1633.89 Q1843.44 1633.89 1838.86 1630.83 Q1834.25 1627.75 1834.25 1621.94 Z" fill="#000000" fill-rule="nonzero" fill-opacity="1" /><path clip-path="url(#clip660)" d="M1837.96 1591.78 Q1837.96 1595.39 1841.52 1597.22 Q1845.06 1599.03 1852.19 1599.03 Q1859.3 1599.03 1862.86 1597.22 Q1866.41 1595.39 1866.41 1591.78 Q1866.41 1588.15 1862.86 1586.34 Q1859.3 1584.51 1852.19 1584.51 Q1845.06 1584.51 1841.52 1586.34 Q1837.96 1588.15 1837.96 1591.78 M1834.25 1591.78 Q1834.25 1585.97 1838.86 1582.92 Q1843.44 1579.84 1852.19 1579.84 Q1860.92 1579.84 1865.53 1582.92 Q1870.11 1585.97 1870.11 1591.78 Q1870.11 1597.59 1865.53 1600.67 Q1860.92 1603.73 1852.19 1603.73 Q1843.44 1603.73 1838.86 1600.67 Q1834.25 1597.59 1834.25 1591.78 Z" fill="#000000" fill-rule="nonzero" fill-opacity="1" /><path clip-path="url(#clip660)" d="M1837.96 1561.62 Q1837.96 1565.23 1841.52 1567.06 Q1845.06 1568.87 1852.19 1568.87 Q1859.3 1568.87 1862.86 1567.06 Q1866.41 1565.23 1866.41 1561.62 Q1866.41 1557.99 1862.86 1556.18 Q1859.3 1554.35 1852.19 1554.35 Q1845.06 1554.35 1841.52 1556.18 Q1837.96 1557.99 1837.96 1561.62 M1834.25 1561.62 Q1834.25 1555.81 1838.86 1552.76 Q1843.44 1549.68 1852.19 1549.68 Q1860.92 1549.68 1865.53 1552.76 Q1870.11 1555.81 1870.11 1561.62 Q1870.11 1567.43 1865.53 1570.51 Q1860.92 1573.57 1852.19 1573.57 Q1843.44 1573.57 1838.86 1570.51 Q1834.25 1567.43 1834.25 1561.62 Z" fill="#000000" fill-rule="nonzero" fill-opacity="1" /><path clip-path="url(#clip660)" d="M1865.5 1540.65 L1865.5 1533.01 L1839.14 1533.01 L1840.8 1541.32 L1836.55 1541.32 L1834.88 1533.06 L1834.88 1528.38 L1865.5 1528.38 L1865.5 1520.74 L1869.44 1520.74 L1869.44 1540.65 L1865.5 1540.65 Z" fill="#000000" fill-rule="nonzero" fill-opacity="1" /><path clip-path="url(#clip660)" d="M1837.96 1501.3 Q1837.96 1504.91 1841.52 1506.74 Q1845.06 1508.54 1852.19 1508.54 Q1859.3 1508.54 1862.86 1506.74 Q1866.41 1504.91 1866.41 1501.3 Q1866.41 1497.66 1862.86 1495.86 Q1859.3 1494.03 1852.19 1494.03 Q1845.06 1494.03 1841.52 1495.86 Q1837.96 1497.66 1837.96 1501.3 M1834.25 1501.3 Q1834.25 1495.49 1838.86 1492.43 Q1843.44 1489.35 1852.19 1489.35 Q1860.92 1489.35 1865.53 1492.43 Q1870.11 1495.49 1870.11 1501.3 Q1870.11 1507.11 1865.53 1510.19 Q1860.92 1513.24 1852.19 1513.24 Q1843.44 1513.24 1838.86 1510.19 Q1834.25 1507.11 1834.25 1501.3 Z" fill="#000000" fill-rule="nonzero" fill-opacity="1" /><path clip-path="url(#clip660)" d="M1996.39 1620.72 Q1996.39 1624.33 1999.95 1626.16 Q2003.49 1627.96 2010.62 1627.96 Q2017.73 1627.96 2021.3 1626.16 Q2024.84 1624.33 2024.84 1620.72 Q2024.84 1617.08 2021.3 1615.28 Q2017.73 1613.45 2010.62 1613.45 Q2003.49 1613.45 1999.95 1615.28 Q1996.39 1617.08 1996.39 1620.72 M1992.68 1620.72 Q1992.68 1614.91 1997.29 1611.85 Q2001.87 1608.77 2010.62 1608.77 Q2019.35 1608.77 2023.96 1611.85 Q2028.54 1614.91 2028.54 1620.72 Q2028.54 1626.53 2023.96 1629.61 Q2019.35 1632.66 2010.62 1632.66 Q2001.87 1632.66 1997.29 1629.61 Q1992.68 1626.53 1992.68 1620.72 Z" fill="#000000" fill-rule="nonzero" fill-opacity="1" /><path clip-path="url(#clip660)" d="M1996.39 1590.56 Q1996.39 1594.17 1999.95 1596 Q2003.49 1597.8 2010.62 1597.8 Q2017.73 1597.8 2021.3 1596 Q2024.84 1594.17 2024.84 1590.56 Q2024.84 1586.92 2021.3 1585.12 Q2017.73 1583.29 2010.62 1583.29 Q2003.49 1583.29 1999.95 1585.12 Q1996.39 1586.92 1996.39 1590.56 M1992.68 1590.56 Q1992.68 1584.75 1997.29 1581.69 Q2001.87 1578.61 2010.62 1578.61 Q2019.35 1578.61 2023.96 1581.69 Q2028.54 1584.75 2028.54 1590.56 Q2028.54 1596.37 2023.96 1599.44 Q2019.35 1602.5 2010.62 1602.5 Q2001.87 1602.5 1997.29 1599.44 Q1992.68 1596.37 1992.68 1590.56 Z" fill="#000000" fill-rule="nonzero" fill-opacity="1" /><path clip-path="url(#clip660)" d="M1996.39 1560.39 Q1996.39 1564.01 1999.95 1565.83 Q2003.49 1567.64 2010.62 1567.64 Q2017.73 1567.64 2021.3 1565.83 Q2024.84 1564.01 2024.84 1560.39 Q2024.84 1556.76 2021.3 1554.95 Q2017.73 1553.13 2010.62 1553.13 Q2003.49 1553.13 1999.95 1554.95 Q1996.39 1556.76 1996.39 1560.39 M1992.68 1560.39 Q1992.68 1554.58 1997.29 1551.53 Q2001.87 1548.45 2010.62 1548.45 Q2019.35 1548.45 2023.96 1551.53 Q2028.54 1554.58 2028.54 1560.39 Q2028.54 1566.2 2023.96 1569.28 Q2019.35 1572.34 2010.62 1572.34 Q2001.87 1572.34 1997.29 1569.28 Q1992.68 1566.2 1992.68 1560.39 Z" fill="#000000" fill-rule="nonzero" fill-opacity="1" /><path clip-path="url(#clip660)" d="M1996.39 1530.23 Q1996.39 1533.84 1999.95 1535.67 Q2003.49 1537.48 2010.62 1537.48 Q2017.73 1537.48 2021.3 1535.67 Q2024.84 1533.84 2024.84 1530.23 Q2024.84 1526.6 2021.3 1524.79 Q2017.73 1522.96 2010.62 1522.96 Q2003.49 1522.96 1999.95 1524.79 Q1996.39 1526.6 1996.39 1530.23 M1992.68 1530.23 Q1992.68 1524.42 1997.29 1521.37 Q2001.87 1518.29 2010.62 1518.29 Q2019.35 1518.29 2023.96 1521.37 Q2028.54 1524.42 2028.54 1530.23 Q2028.54 1536.04 2023.96 1539.12 Q2019.35 1542.18 2010.62 1542.18 Q2001.87 1542.18 1997.29 1539.12 Q1992.68 1536.04 1992.68 1530.23 Z" fill="#000000" fill-rule="nonzero" fill-opacity="1" /><path clip-path="url(#clip660)" d="M2023.93 1509.26 L2023.93 1501.62 L1997.57 1501.62 L1999.24 1509.93 L1994.98 1509.93 L1993.31 1501.67 L1993.31 1496.99 L2023.93 1496.99 L2023.93 1489.35 L2027.87 1489.35 L2027.87 1509.26 L2023.93 1509.26 Z" fill="#000000" fill-rule="nonzero" fill-opacity="1" /><path clip-path="url(#clip660)" d="M2182.37 1629.91 L2182.37 1622.27 L2156 1622.27 L2157.67 1630.58 L2153.41 1630.58 L2151.74 1622.32 L2151.74 1617.64 L2182.37 1617.64 L2182.37 1610 L2186.3 1610 L2186.3 1629.91 L2182.37 1629.91 Z" fill="#000000" fill-rule="nonzero" fill-opacity="1" /><path clip-path="url(#clip660)" d="M2154.82 1590.56 Q2154.82 1594.17 2158.38 1596 Q2161.93 1597.8 2169.06 1597.8 Q2176.16 1597.8 2179.73 1596 Q2183.27 1594.17 2183.27 1590.56 Q2183.27 1586.92 2179.73 1585.12 Q2176.16 1583.29 2169.06 1583.29 Q2161.93 1583.29 2158.38 1585.12 Q2154.82 1586.92 2154.82 1590.56 M2151.12 1590.56 Q2151.12 1584.75 2155.72 1581.69 Q2160.31 1578.61 2169.06 1578.61 Q2177.78 1578.61 2182.39 1581.69 Q2186.97 1584.75 2186.97 1590.56 Q2186.97 1596.37 2182.39 1599.44 Q2177.78 1602.5 2169.06 1602.5 Q2160.31 1602.5 2155.72 1599.44 Q2151.12 1596.37 2151.12 1590.56 Z" fill="#000000" fill-rule="nonzero" fill-opacity="1" /><path clip-path="url(#clip660)" d="M2154.82 1560.39 Q2154.82 1564.01 2158.38 1565.83 Q2161.93 1567.64 2169.06 1567.64 Q2176.16 1567.64 2179.73 1565.83 Q2183.27 1564.01 2183.27 1560.39 Q2183.27 1556.76 2179.73 1554.95 Q2176.16 1553.13 2169.06 1553.13 Q2161.93 1553.13 2158.38 1554.95 Q2154.82 1556.76 2154.82 1560.39 M2151.12 1560.39 Q2151.12 1554.58 2155.72 1551.53 Q2160.31 1548.45 2169.06 1548.45 Q2177.78 1548.45 2182.39 1551.53 Q2186.97 1554.58 2186.97 1560.39 Q2186.97 1566.2 2182.39 1569.28 Q2177.78 1572.34 2169.06 1572.34 Q2160.31 1572.34 2155.72 1569.28 Q2151.12 1566.2 2151.12 1560.39 Z" fill="#000000" fill-rule="nonzero" fill-opacity="1" /><path clip-path="url(#clip660)" d="M2182.37 1539.42 L2182.37 1531.78 L2156 1531.78 L2157.67 1540.09 L2153.41 1540.09 L2151.74 1531.83 L2151.74 1527.15 L2182.37 1527.15 L2182.37 1519.51 L2186.3 1519.51 L2186.3 1539.42 L2182.37 1539.42 Z" fill="#000000" fill-rule="nonzero" fill-opacity="1" /><path clip-path="url(#clip660)" d="M2182.37 1509.26 L2182.37 1501.62 L2156 1501.62 L2157.67 1509.93 L2153.41 1509.93 L2151.74 1501.67 L2151.74 1496.99 L2182.37 1496.99 L2182.37 1489.35 L2186.3 1489.35 L2186.3 1509.26 L2182.37 1509.26 Z" fill="#000000" fill-rule="nonzero" fill-opacity="1" /><path clip-path="url(#clip660)" d="M2340.8 1629.91 L2340.8 1622.27 L2314.43 1622.27 L2316.1 1630.58 L2311.84 1630.58 L2310.17 1622.32 L2310.17 1617.64 L2340.8 1617.64 L2340.8 1610 L2344.73 1610 L2344.73 1629.91 L2340.8 1629.91 Z" fill="#000000" fill-rule="nonzero" fill-opacity="1" /><path clip-path="url(#clip660)" d="M2340.8 1599.75 L2340.8 1592.11 L2314.43 1592.11 L2316.1 1600.42 L2311.84 1600.42 L2310.17 1592.15 L2310.17 1587.48 L2340.8 1587.48 L2340.8 1579.84 L2344.73 1579.84 L2344.73 1599.75 L2340.8 1599.75 Z" fill="#000000" fill-rule="nonzero" fill-opacity="1" /><path clip-path="url(#clip660)" d="M2340.8 1569.58 L2340.8 1561.95 L2314.43 1561.95 L2316.1 1570.26 L2311.84 1570.26 L2310.17 1561.99 L2310.17 1557.32 L2340.8 1557.32 L2340.8 1549.68 L2344.73 1549.68 L2344.73 1569.58 L2340.8 1569.58 Z" fill="#000000" fill-rule="nonzero" fill-opacity="1" /><path clip-path="url(#clip660)" d="M2313.25 1530.23 Q2313.25 1533.84 2316.82 1535.67 Q2320.36 1537.48 2327.49 1537.48 Q2334.59 1537.48 2338.16 1535.67 Q2341.7 1533.84 2341.7 1530.23 Q2341.7 1526.6 2338.16 1524.79 Q2334.59 1522.96 2327.49 1522.96 Q2320.36 1522.96 2316.82 1524.79 Q2313.25 1526.6 2313.25 1530.23 M2309.55 1530.23 Q2309.55 1524.42 2314.15 1521.37 Q2318.74 1518.29 2327.49 1518.29 Q2336.21 1518.29 2340.82 1521.37 Q2345.4 1524.42 2345.4 1530.23 Q2345.4 1536.04 2340.82 1539.12 Q2336.21 1542.18 2327.49 1542.18 Q2318.74 1542.18 2314.15 1539.12 Q2309.55 1536.04 2309.55 1530.23 Z" fill="#000000" fill-rule="nonzero" fill-opacity="1" /><path clip-path="url(#clip660)" d="M2340.8 1509.26 L2340.8 1501.62 L2314.43 1501.62 L2316.1 1509.93 L2311.84 1509.93 L2310.17 1501.67 L2310.17 1496.99 L2340.8 1496.99 L2340.8 1489.35 L2344.73 1489.35 L2344.73 1509.26 L2340.8 1509.26 Z" fill="#000000" fill-rule="nonzero" fill-opacity="1" /><path clip-path="url(#clip660)" d="M2471.68 1621.94 Q2471.68 1625.56 2475.25 1627.38 Q2478.79 1629.19 2485.92 1629.19 Q2493.02 1629.19 2496.59 1627.38 Q2500.13 1625.56 2500.13 1621.94 Q2500.13 1618.31 2496.59 1616.51 Q2493.02 1614.68 2485.92 1614.68 Q2478.79 1614.68 2475.25 1616.51 Q2471.68 1618.31 2471.68 1621.94 M2467.98 1621.94 Q2467.98 1616.13 2472.58 1613.08 Q2477.17 1610 2485.92 1610 Q2494.64 1610 2499.25 1613.08 Q2503.83 1616.13 2503.83 1621.94 Q2503.83 1627.75 2499.25 1630.83 Q2494.64 1633.89 2485.92 1633.89 Q2477.17 1633.89 2472.58 1630.83 Q2467.98 1627.75 2467.98 1621.94 Z" fill="#000000" fill-rule="nonzero" fill-opacity="1" /><path clip-path="url(#clip660)" d="M2499.23 1600.97 L2499.23 1593.33 L2472.86 1593.33 L2474.53 1601.64 L2470.27 1601.64 L2468.6 1593.38 L2468.6 1588.7 L2499.23 1588.7 L2499.23 1581.07 L2503.16 1581.07 L2503.16 1600.97 L2499.23 1600.97 Z" fill="#000000" fill-rule="nonzero" fill-opacity="1" /><path clip-path="url(#clip660)" d="M2499.23 1570.81 L2499.23 1563.17 L2472.86 1563.17 L2474.53 1571.48 L2470.27 1571.48 L2468.6 1563.22 L2468.6 1558.54 L2499.23 1558.54 L2499.23 1550.9 L2503.16 1550.9 L2503.16 1570.81 L2499.23 1570.81 Z" fill="#000000" fill-rule="nonzero" fill-opacity="1" /><path clip-path="url(#clip660)" d="M2471.68 1531.46 Q2471.68 1535.07 2475.25 1536.9 Q2478.79 1538.7 2485.92 1538.7 Q2493.02 1538.7 2496.59 1536.9 Q2500.13 1535.07 2500.13 1531.46 Q2500.13 1527.82 2496.59 1526.02 Q2493.02 1524.19 2485.92 1524.19 Q2478.79 1524.19 2475.25 1526.02 Q2471.68 1527.82 2471.68 1531.46 M2467.98 1531.46 Q2467.98 1525.65 2472.58 1522.59 Q2477.17 1519.51 2485.92 1519.51 Q2494.64 1519.51 2499.25 1522.59 Q2503.83 1525.65 2503.83 1531.46 Q2503.83 1537.27 2499.25 1540.35 Q2494.64 1543.4 2485.92 1543.4 Q2477.17 1543.4 2472.58 1540.35 Q2467.98 1537.27 2467.98 1531.46 Z" fill="#000000" fill-rule="nonzero" fill-opacity="1" /><path clip-path="url(#clip660)" d="M2471.68 1501.3 Q2471.68 1504.91 2475.25 1506.74 Q2478.79 1508.54 2485.92 1508.54 Q2493.02 1508.54 2496.59 1506.74 Q2500.13 1504.91 2500.13 1501.3 Q2500.13 1497.66 2496.59 1495.86 Q2493.02 1494.03 2485.92 1494.03 Q2478.79 1494.03 2475.25 1495.86 Q2471.68 1497.66 2471.68 1501.3 M2467.98 1501.3 Q2467.98 1495.49 2472.58 1492.43 Q2477.17 1489.35 2485.92 1489.35 Q2494.64 1489.35 2499.25 1492.43 Q2503.83 1495.49 2503.83 1501.3 Q2503.83 1507.11 2499.25 1510.19 Q2494.64 1513.24 2485.92 1513.24 Q2477.17 1513.24 2472.58 1510.19 Q2467.98 1507.11 2467.98 1501.3 Z" fill="#000000" fill-rule="nonzero" fill-opacity="1" /><path clip-path="url(#clip660)" d="M2657.66 1631.13 L2657.66 1623.5 L2631.29 1623.5 L2632.96 1631.81 L2628.7 1631.81 L2627.03 1623.54 L2627.03 1618.87 L2657.66 1618.87 L2657.66 1611.23 L2661.59 1611.23 L2661.59 1631.13 L2657.66 1631.13 Z" fill="#000000" fill-rule="nonzero" fill-opacity="1" /><path clip-path="url(#clip660)" d="M2657.66 1600.97 L2657.66 1593.33 L2631.29 1593.33 L2632.96 1601.64 L2628.7 1601.64 L2627.03 1593.38 L2627.03 1588.7 L2657.66 1588.7 L2657.66 1581.07 L2661.59 1581.07 L2661.59 1600.97 L2657.66 1600.97 Z" fill="#000000" fill-rule="nonzero" fill-opacity="1" /><path clip-path="url(#clip660)" d="M2657.66 1570.81 L2657.66 1563.17 L2631.29 1563.17 L2632.96 1571.48 L2628.7 1571.48 L2627.03 1563.22 L2627.03 1558.54 L2657.66 1558.54 L2657.66 1550.9 L2661.59 1550.9 L2661.59 1570.81 L2657.66 1570.81 Z" fill="#000000" fill-rule="nonzero" fill-opacity="1" /><path clip-path="url(#clip660)" d="M2657.66 1540.65 L2657.66 1533.01 L2631.29 1533.01 L2632.96 1541.32 L2628.7 1541.32 L2627.03 1533.06 L2627.03 1528.38 L2657.66 1528.38 L2657.66 1520.74 L2661.59 1520.74 L2661.59 1540.65 L2657.66 1540.65 Z" fill="#000000" fill-rule="nonzero" fill-opacity="1" /><path clip-path="url(#clip660)" d="M2630.11 1501.3 Q2630.11 1504.91 2633.68 1506.74 Q2637.22 1508.54 2644.35 1508.54 Q2651.45 1508.54 2655.02 1506.74 Q2658.56 1504.91 2658.56 1501.3 Q2658.56 1497.66 2655.02 1495.86 Q2651.45 1494.03 2644.35 1494.03 Q2637.22 1494.03 2633.68 1495.86 Q2630.11 1497.66 2630.11 1501.3 M2626.41 1501.3 Q2626.41 1495.49 2631.01 1492.43 Q2635.6 1489.35 2644.35 1489.35 Q2653.07 1489.35 2657.68 1492.43 Q2662.26 1495.49 2662.26 1501.3 Q2662.26 1507.11 2657.68 1510.19 Q2653.07 1513.24 2644.35 1513.24 Q2635.6 1513.24 2631.01 1510.19 Q2626.41 1507.11 2626.41 1501.3 Z" fill="#000000" fill-rule="nonzero" fill-opacity="1" /><path clip-path="url(#clip660)" d="M2788.54 1621.94 Q2788.54 1625.56 2792.11 1627.38 Q2795.65 1629.19 2802.78 1629.19 Q2809.89 1629.19 2813.45 1627.38 Q2816.99 1625.56 2816.99 1621.94 Q2816.99 1618.31 2813.45 1616.51 Q2809.89 1614.68 2802.78 1614.68 Q2795.65 1614.68 2792.11 1616.51 Q2788.54 1618.31 2788.54 1621.94 M2784.84 1621.94 Q2784.84 1616.13 2789.45 1613.08 Q2794.03 1610 2802.78 1610 Q2811.51 1610 2816.11 1613.08 Q2820.7 1616.13 2820.7 1621.94 Q2820.7 1627.75 2816.11 1630.83 Q2811.51 1633.89 2802.78 1633.89 Q2794.03 1633.89 2789.45 1630.83 Q2784.84 1627.75 2784.84 1621.94 Z" fill="#000000" fill-rule="nonzero" fill-opacity="1" /><path clip-path="url(#clip660)" d="M2816.09 1600.97 L2816.09 1593.33 L2789.72 1593.33 L2791.39 1601.64 L2787.13 1601.64 L2785.46 1593.38 L2785.46 1588.7 L2816.09 1588.7 L2816.09 1581.07 L2820.02 1581.07 L2820.02 1600.97 L2816.09 1600.97 Z" fill="#000000" fill-rule="nonzero" fill-opacity="1" /><path clip-path="url(#clip660)" d="M2816.09 1570.81 L2816.09 1563.17 L2789.72 1563.17 L2791.39 1571.48 L2787.13 1571.48 L2785.46 1563.22 L2785.46 1558.54 L2816.09 1558.54 L2816.09 1550.9 L2820.02 1550.9 L2820.02 1570.81 L2816.09 1570.81 Z" fill="#000000" fill-rule="nonzero" fill-opacity="1" /><path clip-path="url(#clip660)" d="M2816.09 1540.65 L2816.09 1533.01 L2789.72 1533.01 L2791.39 1541.32 L2787.13 1541.32 L2785.46 1533.06 L2785.46 1528.38 L2816.09 1528.38 L2816.09 1520.74 L2820.02 1520.74 L2820.02 1540.65 L2816.09 1540.65 Z" fill="#000000" fill-rule="nonzero" fill-opacity="1" /><path clip-path="url(#clip660)" d="M2788.54 1501.3 Q2788.54 1504.91 2792.11 1506.74 Q2795.65 1508.54 2802.78 1508.54 Q2809.89 1508.54 2813.45 1506.74 Q2816.99 1504.91 2816.99 1501.3 Q2816.99 1497.66 2813.45 1495.86 Q2809.89 1494.03 2802.78 1494.03 Q2795.65 1494.03 2792.11 1495.86 Q2788.54 1497.66 2788.54 1501.3 M2784.84 1501.3 Q2784.84 1495.49 2789.45 1492.43 Q2794.03 1489.35 2802.78 1489.35 Q2811.51 1489.35 2816.11 1492.43 Q2820.7 1495.49 2820.7 1501.3 Q2820.7 1507.11 2816.11 1510.19 Q2811.51 1513.24 2802.78 1513.24 Q2794.03 1513.24 2789.45 1510.19 Q2784.84 1507.11 2784.84 1501.3 Z" fill="#000000" fill-rule="nonzero" fill-opacity="1" /><path clip-path="url(#clip660)" d="M1568.56 1690.62 L1568.56 1708.03 L1578.87 1708.03 Q1584.06 1708.03 1586.55 1705.9 Q1589.06 1703.73 1589.06 1699.31 Q1589.06 1694.85 1586.55 1692.75 Q1584.06 1690.62 1578.87 1690.62 L1568.56 1690.62 M1568.56 1671.08 L1568.56 1685.4 L1578.08 1685.4 Q1582.79 1685.4 1585.08 1683.65 Q1587.4 1681.87 1587.4 1678.24 Q1587.4 1674.64 1585.08 1672.86 Q1582.79 1671.08 1578.08 1671.08 L1568.56 1671.08 M1562.13 1665.79 L1578.56 1665.79 Q1585.91 1665.79 1589.89 1668.85 Q1593.87 1671.9 1593.87 1677.54 Q1593.87 1681.9 1591.83 1684.48 Q1589.79 1687.05 1585.85 1687.69 Q1590.59 1688.71 1593.2 1691.96 Q1595.84 1695.17 1595.84 1700.01 Q1595.84 1706.37 1591.51 1709.84 Q1587.18 1713.31 1579.19 1713.31 L1562.13 1713.31 L1562.13 1665.79 Z" fill="#000000" fill-rule="nonzero" fill-opacity="1" /><path clip-path="url(#clip660)" d="M1606.6 1677.67 L1612.45 1677.67 L1612.45 1713.31 L1606.6 1713.31 L1606.6 1677.67 M1606.6 1663.79 L1612.45 1663.79 L1612.45 1671.2 L1606.6 1671.2 L1606.6 1663.79 Z" fill="#000000" fill-rule="nonzero" fill-opacity="1" /><path clip-path="url(#clip660)" d="M1630.5 1667.54 L1630.5 1677.67 L1642.56 1677.67 L1642.56 1682.22 L1630.5 1682.22 L1630.5 1701.57 Q1630.5 1705.93 1631.68 1707.17 Q1632.89 1708.41 1636.55 1708.41 L1642.56 1708.41 L1642.56 1713.31 L1636.55 1713.31 Q1629.77 1713.31 1627.19 1710.8 Q1624.61 1708.25 1624.61 1701.57 L1624.61 1682.22 L1620.32 1682.22 L1620.32 1677.67 L1624.61 1677.67 L1624.61 1667.54 L1630.5 1667.54 Z" fill="#000000" fill-rule="nonzero" fill-opacity="1" /><path clip-path="url(#clip660)" d="M1672.99 1678.72 L1672.99 1684.25 Q1670.51 1682.98 1667.84 1682.34 Q1665.16 1681.71 1662.3 1681.71 Q1657.94 1681.71 1655.74 1683.04 Q1653.58 1684.38 1653.58 1687.05 Q1653.58 1689.09 1655.14 1690.27 Q1656.7 1691.42 1661.41 1692.47 L1663.41 1692.91 Q1669.65 1694.25 1672.26 1696.7 Q1674.9 1699.12 1674.9 1703.48 Q1674.9 1708.44 1670.95 1711.34 Q1667.04 1714.24 1660.16 1714.24 Q1657.3 1714.24 1654.18 1713.66 Q1651.09 1713.12 1647.66 1712.01 L1647.66 1705.96 Q1650.9 1707.65 1654.05 1708.51 Q1657.2 1709.33 1660.29 1709.33 Q1664.43 1709.33 1666.66 1707.93 Q1668.89 1706.5 1668.89 1703.92 Q1668.89 1701.54 1667.26 1700.26 Q1665.67 1698.99 1660.23 1697.81 L1658.19 1697.34 Q1652.75 1696.19 1650.33 1693.83 Q1647.91 1691.45 1647.91 1687.31 Q1647.91 1682.28 1651.48 1679.54 Q1655.04 1676.81 1661.6 1676.81 Q1664.84 1676.81 1667.71 1677.28 Q1670.57 1677.76 1672.99 1678.72 Z" fill="#000000" fill-rule="nonzero" fill-opacity="1" /><path clip-path="url(#clip660)" d="M1690.02 1667.54 L1690.02 1677.67 L1702.08 1677.67 L1702.08 1682.22 L1690.02 1682.22 L1690.02 1701.57 Q1690.02 1705.93 1691.2 1707.17 Q1692.41 1708.41 1696.07 1708.41 L1702.08 1708.41 L1702.08 1713.31 L1696.07 1713.31 Q1689.29 1713.31 1686.71 1710.8 Q1684.13 1708.25 1684.13 1701.57 L1684.13 1682.22 L1679.84 1682.22 L1679.84 1677.67 L1684.13 1677.67 L1684.13 1667.54 L1690.02 1667.54 Z" fill="#000000" fill-rule="nonzero" fill-opacity="1" /><path clip-path="url(#clip660)" d="M1730.44 1683.14 Q1729.46 1682.57 1728.28 1682.31 Q1727.13 1682.03 1725.73 1682.03 Q1720.77 1682.03 1718.09 1685.27 Q1715.45 1688.49 1715.45 1694.53 L1715.45 1713.31 L1709.56 1713.31 L1709.56 1677.67 L1715.45 1677.67 L1715.45 1683.2 Q1717.3 1679.96 1720.26 1678.4 Q1723.22 1676.81 1727.45 1676.81 Q1728.06 1676.81 1728.79 1676.9 Q1729.52 1676.97 1730.41 1677.12 L1730.44 1683.14 Z" fill="#000000" fill-rule="nonzero" fill-opacity="1" /><path clip-path="url(#clip660)" d="M1736.59 1677.67 L1742.44 1677.67 L1742.44 1713.31 L1736.59 1713.31 L1736.59 1677.67 M1736.59 1663.79 L1742.44 1663.79 L1742.44 1671.2 L1736.59 1671.2 L1736.59 1663.79 Z" fill="#000000" fill-rule="nonzero" fill-opacity="1" /><path clip-path="url(#clip660)" d="M1784.33 1691.8 L1784.33 1713.31 L1778.47 1713.31 L1778.47 1691.99 Q1778.47 1686.93 1776.5 1684.41 Q1774.52 1681.9 1770.58 1681.9 Q1765.84 1681.9 1763.1 1684.92 Q1760.36 1687.95 1760.36 1693.17 L1760.36 1713.31 L1754.47 1713.31 L1754.47 1677.67 L1760.36 1677.67 L1760.36 1683.2 Q1762.46 1679.99 1765.29 1678.4 Q1768.16 1676.81 1771.88 1676.81 Q1778.03 1676.81 1781.18 1680.63 Q1784.33 1684.41 1784.33 1691.8 Z" fill="#000000" fill-rule="nonzero" fill-opacity="1" /><path clip-path="url(#clip660)" d="M1819.47 1695.08 Q1819.47 1688.71 1816.83 1685.21 Q1814.22 1681.71 1809.47 1681.71 Q1804.76 1681.71 1802.12 1685.21 Q1799.51 1688.71 1799.51 1695.08 Q1799.51 1701.41 1802.12 1704.91 Q1804.76 1708.41 1809.47 1708.41 Q1814.22 1708.41 1816.83 1704.91 Q1819.47 1701.41 1819.47 1695.08 M1825.32 1708.89 Q1825.32 1717.99 1821.28 1722.42 Q1817.24 1726.87 1808.9 1726.87 Q1805.81 1726.87 1803.08 1726.39 Q1800.34 1725.95 1797.76 1724.99 L1797.76 1719.3 Q1800.34 1720.7 1802.85 1721.37 Q1805.37 1722.03 1807.98 1722.03 Q1813.74 1722.03 1816.6 1719.01 Q1819.47 1716.02 1819.47 1709.94 L1819.47 1707.04 Q1817.65 1710.19 1814.82 1711.75 Q1811.99 1713.31 1808.04 1713.31 Q1801.48 1713.31 1797.47 1708.32 Q1793.46 1703.32 1793.46 1695.08 Q1793.46 1686.8 1797.47 1681.8 Q1801.48 1676.81 1808.04 1676.81 Q1811.99 1676.81 1814.82 1678.37 Q1817.65 1679.93 1819.47 1683.08 L1819.47 1677.67 L1825.32 1677.67 L1825.32 1708.89 Z" fill="#000000" fill-rule="nonzero" fill-opacity="1" /><polyline clip-path="url(#clip660)" style="stroke:#000000; stroke-linecap:round; stroke-linejoin:round; stroke-width:4; stroke-opacity:1; fill:none" points="376.433,1463.75 376.433,255.754 "/>
<polyline clip-path="url(#clip660)" style="stroke:#000000; stroke-linecap:round; stroke-linejoin:round; stroke-width:4; stroke-opacity:1; fill:none" points="376.433,1463.75 395.33,1463.75 "/>
<polyline clip-path="url(#clip660)" style="stroke:#000000; stroke-linecap:round; stroke-linejoin:round; stroke-width:4; stroke-opacity:1; fill:none" points="376.433,1079.04 395.33,1079.04 "/>
<polyline clip-path="url(#clip660)" style="stroke:#000000; stroke-linecap:round; stroke-linejoin:round; stroke-width:4; stroke-opacity:1; fill:none" points="376.433,694.327 395.33,694.327 "/>
<polyline clip-path="url(#clip660)" style="stroke:#000000; stroke-linecap:round; stroke-linejoin:round; stroke-width:4; stroke-opacity:1; fill:none" points="376.433,309.614 395.33,309.614 "/>
<path clip-path="url(#clip660)" d="M316.488 1449.55 Q312.877 1449.55 311.049 1453.12 Q309.243 1456.66 309.243 1463.79 Q309.243 1470.89 311.049 1474.46 Q312.877 1478 316.488 1478 Q320.123 1478 321.928 1474.46 Q323.757 1470.89 323.757 1463.79 Q323.757 1456.66 321.928 1453.12 Q320.123 1449.55 316.488 1449.55 M316.488 1445.85 Q322.299 1445.85 325.354 1450.45 Q328.433 1455.04 328.433 1463.79 Q328.433 1472.51 325.354 1477.12 Q322.299 1481.7 316.488 1481.7 Q310.678 1481.7 307.6 1477.12 Q304.544 1472.51 304.544 1463.79 Q304.544 1455.04 307.6 1450.45 Q310.678 1445.85 316.488 1445.85 Z" fill="#000000" fill-rule="nonzero" fill-opacity="1" /><path clip-path="url(#clip660)" d="M246.975 1092.38 L254.614 1092.38 L254.614 1066.02 L246.304 1067.69 L246.304 1063.43 L254.567 1061.76 L259.243 1061.76 L259.243 1092.38 L266.882 1092.38 L266.882 1096.32 L246.975 1096.32 L246.975 1092.38 Z" fill="#000000" fill-rule="nonzero" fill-opacity="1" /><path clip-path="url(#clip660)" d="M286.326 1064.84 Q282.715 1064.84 280.887 1068.4 Q279.081 1071.95 279.081 1079.07 Q279.081 1086.18 280.887 1089.75 Q282.715 1093.29 286.326 1093.29 Q289.961 1093.29 291.766 1089.75 Q293.595 1086.18 293.595 1079.07 Q293.595 1071.95 291.766 1068.4 Q289.961 1064.84 286.326 1064.84 M286.326 1061.14 Q292.137 1061.14 295.192 1065.74 Q298.271 1070.32 298.271 1079.07 Q298.271 1087.8 295.192 1092.41 Q292.137 1096.99 286.326 1096.99 Q280.516 1096.99 277.438 1092.41 Q274.382 1087.8 274.382 1079.07 Q274.382 1070.32 277.438 1065.74 Q280.516 1061.14 286.326 1061.14 Z" fill="#000000" fill-rule="nonzero" fill-opacity="1" /><path clip-path="url(#clip660)" d="M316.488 1064.84 Q312.877 1064.84 311.049 1068.4 Q309.243 1071.95 309.243 1079.07 Q309.243 1086.18 311.049 1089.75 Q312.877 1093.29 316.488 1093.29 Q320.123 1093.29 321.928 1089.75 Q323.757 1086.18 323.757 1079.07 Q323.757 1071.95 321.928 1068.4 Q320.123 1064.84 316.488 1064.84 M316.488 1061.14 Q322.299 1061.14 325.354 1065.74 Q328.433 1070.32 328.433 1079.07 Q328.433 1087.8 325.354 1092.41 Q322.299 1096.99 316.488 1096.99 Q310.678 1096.99 307.6 1092.41 Q304.544 1087.8 304.544 1079.07 Q304.544 1070.32 307.6 1065.74 Q310.678 1061.14 316.488 1061.14 Z" fill="#000000" fill-rule="nonzero" fill-opacity="1" /><path clip-path="url(#clip660)" d="M250.192 707.672 L266.512 707.672 L266.512 711.607 L244.567 711.607 L244.567 707.672 Q247.229 704.917 251.813 700.288 Q256.419 695.635 257.6 694.292 Q259.845 691.769 260.725 690.033 Q261.628 688.274 261.628 686.584 Q261.628 683.83 259.683 682.093 Q257.762 680.357 254.66 680.357 Q252.461 680.357 250.007 681.121 Q247.577 681.885 244.799 683.436 L244.799 678.714 Q247.623 677.58 250.077 677.001 Q252.53 676.422 254.567 676.422 Q259.938 676.422 263.132 679.107 Q266.327 681.792 266.327 686.283 Q266.327 688.413 265.516 690.334 Q264.729 692.232 262.623 694.825 Q262.044 695.496 258.942 698.714 Q255.841 701.908 250.192 707.672 Z" fill="#000000" fill-rule="nonzero" fill-opacity="1" /><path clip-path="url(#clip660)" d="M286.326 680.126 Q282.715 680.126 280.887 683.691 Q279.081 687.232 279.081 694.362 Q279.081 701.468 280.887 705.033 Q282.715 708.575 286.326 708.575 Q289.961 708.575 291.766 705.033 Q293.595 701.468 293.595 694.362 Q293.595 687.232 291.766 683.691 Q289.961 680.126 286.326 680.126 M286.326 676.422 Q292.137 676.422 295.192 681.029 Q298.271 685.612 298.271 694.362 Q298.271 703.089 295.192 707.695 Q292.137 712.278 286.326 712.278 Q280.516 712.278 277.438 707.695 Q274.382 703.089 274.382 694.362 Q274.382 685.612 277.438 681.029 Q280.516 676.422 286.326 676.422 Z" fill="#000000" fill-rule="nonzero" fill-opacity="1" /><path clip-path="url(#clip660)" d="M316.488 680.126 Q312.877 680.126 311.049 683.691 Q309.243 687.232 309.243 694.362 Q309.243 701.468 311.049 705.033 Q312.877 708.575 316.488 708.575 Q320.123 708.575 321.928 705.033 Q323.757 701.468 323.757 694.362 Q323.757 687.232 321.928 683.691 Q320.123 680.126 316.488 680.126 M316.488 676.422 Q322.299 676.422 325.354 681.029 Q328.433 685.612 328.433 694.362 Q328.433 703.089 325.354 707.695 Q322.299 712.278 316.488 712.278 Q310.678 712.278 307.6 707.695 Q304.544 703.089 304.544 694.362 Q304.544 685.612 307.6 681.029 Q310.678 676.422 316.488 676.422 Z" fill="#000000" fill-rule="nonzero" fill-opacity="1" /><path clip-path="url(#clip660)" d="M260.331 308.26 Q263.688 308.978 265.563 311.246 Q267.461 313.515 267.461 316.848 Q267.461 321.964 263.942 324.765 Q260.424 327.566 253.942 327.566 Q251.766 327.566 249.452 327.126 Q247.16 326.709 244.706 325.853 L244.706 321.339 Q246.651 322.473 248.966 323.052 Q251.28 323.63 253.804 323.63 Q258.202 323.63 260.493 321.894 Q262.808 320.158 262.808 316.848 Q262.808 313.792 260.655 312.079 Q258.526 310.343 254.706 310.343 L250.679 310.343 L250.679 306.501 L254.891 306.501 Q258.341 306.501 260.169 305.135 Q261.998 303.746 261.998 301.154 Q261.998 298.492 260.1 297.08 Q258.225 295.644 254.706 295.644 Q252.785 295.644 250.586 296.061 Q248.387 296.478 245.748 297.357 L245.748 293.191 Q248.41 292.45 250.725 292.08 Q253.063 291.709 255.123 291.709 Q260.447 291.709 263.549 294.14 Q266.651 296.547 266.651 300.668 Q266.651 303.538 265.007 305.529 Q263.364 307.496 260.331 308.26 Z" fill="#000000" fill-rule="nonzero" fill-opacity="1" /><path clip-path="url(#clip660)" d="M286.326 295.413 Q282.715 295.413 280.887 298.978 Q279.081 302.519 279.081 309.649 Q279.081 316.755 280.887 320.32 Q282.715 323.862 286.326 323.862 Q289.961 323.862 291.766 320.32 Q293.595 316.755 293.595 309.649 Q293.595 302.519 291.766 298.978 Q289.961 295.413 286.326 295.413 M286.326 291.709 Q292.137 291.709 295.192 296.316 Q298.271 300.899 298.271 309.649 Q298.271 318.376 295.192 322.982 Q292.137 327.566 286.326 327.566 Q280.516 327.566 277.438 322.982 Q274.382 318.376 274.382 309.649 Q274.382 300.899 277.438 296.316 Q280.516 291.709 286.326 291.709 Z" fill="#000000" fill-rule="nonzero" fill-opacity="1" /><path clip-path="url(#clip660)" d="M316.488 295.413 Q312.877 295.413 311.049 298.978 Q309.243 302.519 309.243 309.649 Q309.243 316.755 311.049 320.32 Q312.877 323.862 316.488 323.862 Q320.123 323.862 321.928 320.32 Q323.757 316.755 323.757 309.649 Q323.757 302.519 321.928 298.978 Q320.123 295.413 316.488 295.413 M316.488 291.709 Q322.299 291.709 325.354 296.316 Q328.433 300.899 328.433 309.649 Q328.433 318.376 325.354 322.982 Q322.299 327.566 316.488 327.566 Q310.678 327.566 307.6 322.982 Q304.544 318.376 304.544 309.649 Q304.544 300.899 307.6 296.316 Q310.678 291.709 316.488 291.709 Z" fill="#000000" fill-rule="nonzero" fill-opacity="1" /><path clip-path="url(#clip660)" d="M138.452 1195.15 L145.231 1195.15 Q142.207 1198.39 140.712 1202.09 Q139.216 1205.75 139.216 1209.88 Q139.216 1218.03 144.213 1222.36 Q149.178 1226.69 158.599 1226.69 Q167.989 1226.69 172.986 1222.36 Q177.951 1218.03 177.951 1209.88 Q177.951 1205.75 176.455 1202.09 Q174.959 1198.39 171.935 1195.15 L178.651 1195.15 Q180.943 1198.52 182.089 1202.31 Q183.234 1206.06 183.234 1210.27 Q183.234 1221.06 176.646 1227.26 Q170.026 1233.47 158.599 1233.47 Q147.141 1233.47 140.552 1227.26 Q133.932 1221.06 133.932 1210.27 Q133.932 1206 135.078 1202.24 Q136.192 1198.46 138.452 1195.15 Z" fill="#000000" fill-rule="nonzero" fill-opacity="1" /><path clip-path="url(#clip660)" d="M150.769 1171.66 Q150.769 1176.37 154.461 1179.11 Q158.122 1181.84 164.519 1181.84 Q170.917 1181.84 174.609 1179.14 Q178.269 1176.4 178.269 1171.66 Q178.269 1166.98 174.577 1164.24 Q170.885 1161.5 164.519 1161.5 Q158.185 1161.5 154.493 1164.24 Q150.769 1166.98 150.769 1171.66 M145.804 1171.66 Q145.804 1164.02 150.769 1159.66 Q155.735 1155.3 164.519 1155.3 Q173.272 1155.3 178.269 1159.66 Q183.234 1164.02 183.234 1171.66 Q183.234 1179.33 178.269 1183.69 Q173.272 1188.02 164.519 1188.02 Q155.735 1188.02 150.769 1183.69 Q145.804 1179.33 145.804 1171.66 Z" fill="#000000" fill-rule="nonzero" fill-opacity="1" /><path clip-path="url(#clip660)" d="M168.243 1146.19 L146.663 1146.19 L146.663 1140.34 L168.02 1140.34 Q173.081 1140.34 175.627 1138.36 Q178.142 1136.39 178.142 1132.44 Q178.142 1127.7 175.118 1124.96 Q172.094 1122.2 166.875 1122.2 L146.663 1122.2 L146.663 1116.34 L182.311 1116.34 L182.311 1122.2 L176.837 1122.2 Q180.083 1124.33 181.675 1127.16 Q183.234 1129.96 183.234 1133.69 Q183.234 1139.83 179.415 1143.01 Q175.596 1146.19 168.243 1146.19 M145.804 1131.46 L145.804 1131.46 Z" fill="#000000" fill-rule="nonzero" fill-opacity="1" /><path clip-path="url(#clip660)" d="M160.795 1074.64 L182.311 1074.64 L182.311 1080.5 L160.986 1080.5 Q155.926 1080.5 153.411 1082.47 Q150.897 1084.45 150.897 1088.39 Q150.897 1093.14 153.92 1095.87 Q156.944 1098.61 162.164 1098.61 L182.311 1098.61 L182.311 1104.5 L146.663 1104.5 L146.663 1098.61 L152.202 1098.61 Q148.987 1096.51 147.396 1093.68 Q145.804 1090.81 145.804 1087.09 Q145.804 1080.95 149.624 1077.8 Q153.411 1074.64 160.795 1074.64 Z" fill="#000000" fill-rule="nonzero" fill-opacity="1" /><path clip-path="url(#clip660)" d="M136.542 1057.17 L146.663 1057.17 L146.663 1045.11 L151.215 1045.11 L151.215 1057.17 L170.567 1057.17 Q174.927 1057.17 176.169 1055.99 Q177.41 1054.78 177.41 1051.12 L177.41 1045.11 L182.311 1045.11 L182.311 1051.12 Q182.311 1057.9 179.797 1060.48 Q177.251 1063.06 170.567 1063.06 L151.215 1063.06 L151.215 1067.36 L146.663 1067.36 L146.663 1063.06 L136.542 1063.06 L136.542 1057.17 Z" fill="#000000" fill-rule="nonzero" fill-opacity="1" /><path clip-path="url(#clip660)" d="M147.714 1014.68 L153.252 1014.68 Q151.979 1017.16 151.342 1019.84 Q150.706 1022.51 150.706 1025.37 Q150.706 1029.73 152.043 1031.93 Q153.379 1034.09 156.053 1034.09 Q158.09 1034.09 159.268 1032.53 Q160.413 1030.98 161.464 1026.26 L161.909 1024.26 Q163.246 1018.02 165.697 1015.41 Q168.116 1012.77 172.476 1012.77 Q177.442 1012.77 180.338 1016.72 Q183.234 1020.63 183.234 1027.51 Q183.234 1030.37 182.662 1033.49 Q182.12 1036.58 181.006 1040.01 L174.959 1040.01 Q176.646 1036.77 177.505 1033.62 Q178.333 1030.47 178.333 1027.38 Q178.333 1023.24 176.932 1021.01 Q175.5 1018.78 172.922 1018.78 Q170.535 1018.78 169.262 1020.41 Q167.989 1022 166.811 1027.44 L166.334 1029.48 Q165.188 1034.92 162.832 1037.34 Q160.445 1039.76 156.308 1039.76 Q151.279 1039.76 148.541 1036.2 Q145.804 1032.63 145.804 1026.07 Q145.804 1022.83 146.282 1019.96 Q146.759 1017.1 147.714 1014.68 Z" fill="#000000" fill-rule="nonzero" fill-opacity="1" /><path clip-path="url(#clip660)" d="M132.85 968.655 Q140.17 972.92 147.332 974.989 Q154.493 977.058 161.846 977.058 Q169.198 977.058 176.423 974.989 Q183.616 972.888 190.905 968.655 L190.905 973.748 Q183.425 978.522 176.2 980.909 Q168.975 983.264 161.846 983.264 Q154.748 983.264 147.555 980.909 Q140.361 978.554 132.85 973.748 L132.85 968.655 Z" fill="#000000" fill-rule="nonzero" fill-opacity="1" /><path clip-path="url(#clip660)" d="M176.901 955.351 L176.901 944.847 L140.648 944.847 L142.94 956.274 L137.083 956.274 L134.791 944.911 L134.791 938.482 L176.901 938.482 L176.901 927.978 L182.311 927.978 L182.311 955.351 L176.901 955.351 Z" fill="#000000" fill-rule="nonzero" fill-opacity="1" /><path clip-path="url(#clip660)" d="M139.025 901.242 Q139.025 906.207 143.926 908.722 Q148.796 911.205 158.599 911.205 Q168.371 911.205 173.272 908.722 Q178.142 906.207 178.142 901.242 Q178.142 896.245 173.272 893.762 Q168.371 891.248 158.599 891.248 Q148.796 891.248 143.926 893.762 Q139.025 896.245 139.025 901.242 M133.932 901.242 Q133.932 893.253 140.266 889.052 Q146.568 884.819 158.599 884.819 Q170.599 884.819 176.932 889.052 Q183.234 893.253 183.234 901.242 Q183.234 909.231 176.932 913.464 Q170.599 917.666 158.599 917.666 Q146.568 917.666 140.266 913.464 Q133.932 909.231 133.932 901.242 Z" fill="#000000" fill-rule="nonzero" fill-opacity="1" /><path clip-path="url(#clip660)" d="M139.025 859.77 Q139.025 864.735 143.926 867.249 Q148.796 869.732 158.599 869.732 Q168.371 869.732 173.272 867.249 Q178.142 864.735 178.142 859.77 Q178.142 854.773 173.272 852.29 Q168.371 849.775 158.599 849.775 Q148.796 849.775 143.926 852.29 Q139.025 854.773 139.025 859.77 M133.932 859.77 Q133.932 851.781 140.266 847.579 Q146.568 843.346 158.599 843.346 Q170.599 843.346 176.932 847.579 Q183.234 851.781 183.234 859.77 Q183.234 867.759 176.932 871.992 Q170.599 876.193 158.599 876.193 Q146.568 876.193 140.266 871.992 Q133.932 867.759 133.932 859.77 Z" fill="#000000" fill-rule="nonzero" fill-opacity="1" /><path clip-path="url(#clip660)" d="M139.025 818.297 Q139.025 823.262 143.926 825.777 Q148.796 828.259 158.599 828.259 Q168.371 828.259 173.272 825.777 Q178.142 823.262 178.142 818.297 Q178.142 813.3 173.272 810.817 Q168.371 808.303 158.599 808.303 Q148.796 808.303 143.926 810.817 Q139.025 813.3 139.025 818.297 M133.932 818.297 Q133.932 810.308 140.266 806.107 Q146.568 801.873 158.599 801.873 Q170.599 801.873 176.932 806.107 Q183.234 810.308 183.234 818.297 Q183.234 826.286 176.932 830.519 Q170.599 834.721 158.599 834.721 Q146.568 834.721 140.266 830.519 Q133.932 826.286 133.932 818.297 Z" fill="#000000" fill-rule="nonzero" fill-opacity="1" /><path clip-path="url(#clip660)" d="M147.714 747.956 L153.252 747.956 Q151.979 750.439 151.342 753.112 Q150.706 755.786 150.706 758.65 Q150.706 763.011 152.043 765.207 Q153.379 767.371 156.053 767.371 Q158.09 767.371 159.268 765.812 Q160.413 764.252 161.464 759.542 L161.909 757.536 Q163.246 751.298 165.697 748.688 Q168.116 746.046 172.476 746.046 Q177.442 746.046 180.338 749.993 Q183.234 753.908 183.234 760.783 Q183.234 763.647 182.662 766.767 Q182.12 769.854 181.006 773.291 L174.959 773.291 Q176.646 770.045 177.505 766.894 Q178.333 763.743 178.333 760.656 Q178.333 756.518 176.932 754.29 Q175.5 752.062 172.922 752.062 Q170.535 752.062 169.262 753.685 Q167.989 755.277 166.811 760.719 L166.334 762.756 Q165.188 768.199 162.832 770.618 Q160.445 773.037 156.308 773.037 Q151.279 773.037 148.541 769.472 Q145.804 765.907 145.804 759.351 Q145.804 756.104 146.282 753.239 Q146.759 750.375 147.714 747.956 Z" fill="#000000" fill-rule="nonzero" fill-opacity="1" /><path clip-path="url(#clip660)" d="M164.392 720.52 Q164.392 727.618 166.015 730.355 Q167.638 733.092 171.553 733.092 Q174.673 733.092 176.519 731.055 Q178.333 728.986 178.333 725.453 Q178.333 720.583 174.895 717.655 Q171.426 714.695 165.697 714.695 L164.392 714.695 L164.392 720.52 M161.973 708.839 L182.311 708.839 L182.311 714.695 L176.901 714.695 Q180.147 716.7 181.707 719.692 Q183.234 722.684 183.234 727.013 Q183.234 732.487 180.179 735.734 Q177.092 738.948 171.935 738.948 Q165.92 738.948 162.864 734.938 Q159.809 730.896 159.809 722.907 L159.809 714.695 L159.236 714.695 Q155.194 714.695 152.997 717.369 Q150.769 720.011 150.769 724.817 Q150.769 727.872 151.501 730.769 Q152.233 733.665 153.698 736.339 L148.287 736.339 Q147.045 733.124 146.441 730.1 Q145.804 727.076 145.804 724.212 Q145.804 716.478 149.815 712.658 Q153.825 708.839 161.973 708.839 Z" fill="#000000" fill-rule="nonzero" fill-opacity="1" /><path clip-path="url(#clip660)" d="M153.507 669.021 Q149.56 666.825 147.682 663.769 Q145.804 660.714 145.804 656.576 Q145.804 651.006 149.719 647.983 Q153.602 644.959 160.795 644.959 L182.311 644.959 L182.311 650.847 L160.986 650.847 Q155.862 650.847 153.379 652.661 Q150.897 654.476 150.897 658.199 Q150.897 662.751 153.92 665.393 Q156.944 668.035 162.164 668.035 L182.311 668.035 L182.311 673.923 L160.986 673.923 Q155.83 673.923 153.379 675.737 Q150.897 677.551 150.897 681.339 Q150.897 685.827 153.952 688.468 Q156.976 691.11 162.164 691.11 L182.311 691.11 L182.311 696.998 L146.663 696.998 L146.663 691.11 L152.202 691.11 Q148.923 689.105 147.364 686.304 Q145.804 683.503 145.804 679.652 Q145.804 675.769 147.777 673.063 Q149.751 670.326 153.507 669.021 Z" fill="#000000" fill-rule="nonzero" fill-opacity="1" /><path clip-path="url(#clip660)" d="M176.964 627.612 L195.87 627.612 L195.87 633.501 L146.663 633.501 L146.663 627.612 L152.074 627.612 Q148.891 625.766 147.364 622.965 Q145.804 620.133 145.804 616.218 Q145.804 609.725 150.96 605.682 Q156.117 601.608 164.519 601.608 Q172.922 601.608 178.078 605.682 Q183.234 609.725 183.234 616.218 Q183.234 620.133 181.707 622.965 Q180.147 625.766 176.964 627.612 M164.519 607.688 Q158.058 607.688 154.398 610.361 Q150.706 613.003 150.706 617.65 Q150.706 622.297 154.398 624.971 Q158.058 627.612 164.519 627.612 Q170.98 627.612 174.673 624.971 Q178.333 622.297 178.333 617.65 Q178.333 613.003 174.673 610.361 Q170.98 607.688 164.519 607.688 Z" fill="#000000" fill-rule="nonzero" fill-opacity="1" /><path clip-path="url(#clip660)" d="M132.786 591.901 L132.786 586.044 L182.311 586.044 L182.311 591.901 L132.786 591.901 Z" fill="#000000" fill-rule="nonzero" fill-opacity="1" /><path clip-path="url(#clip660)" d="M163.023 543.298 L165.888 543.298 L165.888 570.225 Q171.935 569.843 175.118 566.597 Q178.269 563.319 178.269 557.494 Q178.269 554.12 177.442 550.969 Q176.614 547.786 174.959 544.667 L180.497 544.667 Q181.834 547.818 182.534 551.128 Q183.234 554.438 183.234 557.844 Q183.234 566.374 178.269 571.371 Q173.304 576.337 164.838 576.337 Q156.085 576.337 150.96 571.626 Q145.804 566.883 145.804 558.863 Q145.804 551.669 150.451 547.5 Q155.066 543.298 163.023 543.298 M161.305 549.155 Q156.499 549.219 153.634 551.86 Q150.769 554.47 150.769 558.799 Q150.769 563.701 153.538 566.661 Q156.308 569.589 161.336 570.034 L161.305 549.155 Z" fill="#000000" fill-rule="nonzero" fill-opacity="1" /><path clip-path="url(#clip660)" d="M147.714 510.961 L153.252 510.961 Q151.979 513.443 151.342 516.117 Q150.706 518.791 150.706 521.655 Q150.706 526.016 152.043 528.212 Q153.379 530.376 156.053 530.376 Q158.09 530.376 159.268 528.817 Q160.413 527.257 161.464 522.546 L161.909 520.541 Q163.246 514.303 165.697 511.693 Q168.116 509.051 172.476 509.051 Q177.442 509.051 180.338 512.998 Q183.234 516.913 183.234 523.788 Q183.234 526.652 182.662 529.771 Q182.12 532.859 181.006 536.296 L174.959 536.296 Q176.646 533.05 177.505 529.899 Q178.333 526.748 178.333 523.66 Q178.333 519.523 176.932 517.295 Q175.5 515.067 172.922 515.067 Q170.535 515.067 169.262 516.69 Q167.989 518.281 166.811 523.724 L166.334 525.761 Q165.188 531.204 162.832 533.623 Q160.445 536.042 156.308 536.042 Q151.279 536.042 148.541 532.477 Q145.804 528.912 145.804 522.355 Q145.804 519.109 146.282 516.244 Q146.759 513.38 147.714 510.961 Z" fill="#000000" fill-rule="nonzero" fill-opacity="1" /><path clip-path="url(#clip660)" d="M132.85 500.648 L132.85 495.556 Q140.361 490.781 147.555 488.426 Q154.748 486.039 161.846 486.039 Q168.975 486.039 176.2 488.426 Q183.425 490.781 190.905 495.556 L190.905 500.648 Q183.616 496.415 176.423 494.346 Q169.198 492.246 161.846 492.246 Q154.493 492.246 147.332 494.346 Q140.17 496.415 132.85 500.648 Z" fill="#000000" fill-rule="nonzero" fill-opacity="1" /><path clip-path="url(#clip660)" d="M1067.72 12.096 L1079.91 12.096 L1095.35 53.2532 L1110.86 12.096 L1123.06 12.096 L1123.06 72.576 L1115.08 72.576 L1115.08 19.4686 L1099.48 60.9499 L1091.26 60.9499 L1075.66 19.4686 L1075.66 72.576 L1067.72 72.576 L1067.72 12.096 Z" fill="#000000" fill-rule="nonzero" fill-opacity="1" /><path clip-path="url(#clip660)" d="M1139.3 12.096 L1147.48 12.096 L1147.48 72.576 L1139.3 72.576 L1139.3 12.096 Z" fill="#000000" fill-rule="nonzero" fill-opacity="1" /><path clip-path="url(#clip660)" d="M1163.77 12.096 L1175.96 12.096 L1191.4 53.2532 L1206.91 12.096 L1219.1 12.096 L1219.1 72.576 L1211.12 72.576 L1211.12 19.4686 L1195.53 60.9499 L1187.3 60.9499 L1171.71 19.4686 L1171.71 72.576 L1163.77 72.576 L1163.77 12.096 Z" fill="#000000" fill-rule="nonzero" fill-opacity="1" /><path clip-path="url(#clip660)" d="M1235.35 12.096 L1243.53 12.096 L1243.53 72.576 L1235.35 72.576 L1235.35 12.096 Z" fill="#000000" fill-rule="nonzero" fill-opacity="1" /><path clip-path="url(#clip660)" d="M1284.36 17.6457 Q1275.45 17.6457 1270.19 24.2892 Q1264.96 30.9327 1264.96 42.3968 Q1264.96 53.8203 1270.19 60.4638 Q1275.45 67.1073 1284.36 67.1073 Q1293.28 67.1073 1298.46 60.4638 Q1303.69 53.8203 1303.69 42.3968 Q1303.69 30.9327 1298.46 24.2892 Q1293.28 17.6457 1284.36 17.6457 M1295.83 71.4823 L1306.6 83.2704 L1296.72 83.2704 L1287.77 73.5887 Q1286.43 73.6697 1285.7 73.7103 Q1285.01 73.7508 1284.36 73.7508 Q1271.6 73.7508 1263.95 65.2439 Q1256.33 56.6965 1256.33 42.3968 Q1256.33 28.0566 1263.95 19.5497 Q1271.6 11.0023 1284.36 11.0023 Q1297.08 11.0023 1304.7 19.5497 Q1312.32 28.0566 1312.32 42.3968 Q1312.32 52.9291 1308.06 60.4233 Q1303.85 67.9175 1295.83 71.4823 Z" fill="#000000" fill-rule="nonzero" fill-opacity="1" /><path clip-path="url(#clip660)" d="M1323.33 46.5287 L1345.17 46.5287 L1345.17 53.1722 L1323.33 53.1722 L1323.33 46.5287 Z" fill="#000000" fill-rule="nonzero" fill-opacity="1" /><path clip-path="url(#clip660)" d="M1357.36 12.096 L1369.55 12.096 L1384.99 53.2532 L1400.5 12.096 L1412.7 12.096 L1412.7 72.576 L1404.72 72.576 L1404.72 19.4686 L1389.12 60.9499 L1380.9 60.9499 L1365.3 19.4686 L1365.3 72.576 L1357.36 72.576 L1357.36 12.096 Z" fill="#000000" fill-rule="nonzero" fill-opacity="1" /><path clip-path="url(#clip660)" d="M1437.12 18.8205 L1437.12 41.5461 L1447.41 41.5461 Q1453.12 41.5461 1456.24 38.5889 Q1459.36 35.6318 1459.36 30.163 Q1459.36 24.7348 1456.24 21.7777 Q1453.12 18.8205 1447.41 18.8205 L1437.12 18.8205 M1428.94 12.096 L1447.41 12.096 Q1457.58 12.096 1462.77 16.714 Q1467.99 21.2916 1467.99 30.163 Q1467.99 39.1155 1462.77 43.6931 Q1457.58 48.2706 1447.41 48.2706 L1437.12 48.2706 L1437.12 72.576 L1428.94 72.576 L1428.94 12.096 Z" fill="#000000" fill-rule="nonzero" fill-opacity="1" /><path clip-path="url(#clip660)" d="M1515.23 14.0809 L1515.23 22.0612 Q1510.57 19.8332 1506.43 18.7395 Q1502.3 17.6457 1498.45 17.6457 Q1491.77 17.6457 1488.12 20.2383 Q1484.52 22.8309 1484.52 27.611 Q1484.52 31.6214 1486.91 33.6873 Q1489.34 35.7128 1496.06 36.9686 L1501.01 37.9813 Q1510.16 39.7232 1514.5 44.1387 Q1518.87 48.5136 1518.87 55.8863 Q1518.87 64.6767 1512.96 69.2137 Q1507.08 73.7508 1495.7 73.7508 Q1491.41 73.7508 1486.54 72.7785 Q1481.72 71.8063 1476.54 69.9024 L1476.54 61.4765 Q1481.52 64.2716 1486.3 65.6895 Q1491.08 67.1073 1495.7 67.1073 Q1502.71 67.1073 1506.52 64.3527 Q1510.32 61.598 1510.32 56.4939 Q1510.32 52.0379 1507.57 49.5264 Q1504.85 47.0148 1498.62 45.759 L1493.63 44.7868 Q1484.48 42.9639 1480.39 39.075 Q1476.3 35.1862 1476.3 28.2591 Q1476.3 20.2383 1481.93 15.6203 Q1487.6 11.0023 1497.52 11.0023 Q1501.78 11.0023 1506.19 11.7719 Q1510.61 12.5416 1515.23 14.0809 Z" fill="#000000" fill-rule="nonzero" fill-opacity="1" /><path clip-path="url(#clip660)" d="M1576.23 17.4837 Q1569.91 17.4837 1566.71 23.7221 Q1563.55 29.92 1563.55 42.3968 Q1563.55 54.833 1566.71 61.0714 Q1569.91 67.2693 1576.23 67.2693 Q1582.59 67.2693 1585.75 61.0714 Q1588.95 54.833 1588.95 42.3968 Q1588.95 29.92 1585.75 23.7221 Q1582.59 17.4837 1576.23 17.4837 M1576.23 11.0023 Q1586.4 11.0023 1591.75 19.0636 Q1597.13 27.0843 1597.13 42.3968 Q1597.13 57.6687 1591.75 65.73 Q1586.4 73.7508 1576.23 73.7508 Q1566.06 73.7508 1560.68 65.73 Q1555.33 57.6687 1555.33 42.3968 Q1555.33 27.0843 1560.68 19.0636 Q1566.06 11.0023 1576.23 11.0023 Z" fill="#000000" fill-rule="nonzero" fill-opacity="1" /><path clip-path="url(#clip660)" d="M1611.52 62.2867 L1620.06 62.2867 L1620.06 72.576 L1611.52 72.576 L1611.52 62.2867 Z" fill="#000000" fill-rule="nonzero" fill-opacity="1" /><path clip-path="url(#clip660)" d="M1639.3 65.6895 L1652.67 65.6895 L1652.67 19.5497 L1638.13 22.4663 L1638.13 15.0127 L1652.59 12.096 L1660.77 12.096 L1660.77 65.6895 L1674.14 65.6895 L1674.14 72.576 L1639.3 72.576 L1639.3 65.6895 Z" fill="#000000" fill-rule="nonzero" fill-opacity="1" /><path clip-path="url(#clip660)" d="M1709.18 39.075 Q1703.67 39.075 1700.43 42.8424 Q1697.23 46.6097 1697.23 53.1722 Q1697.23 59.6941 1700.43 63.502 Q1703.67 67.2693 1709.18 67.2693 Q1714.69 67.2693 1717.89 63.502 Q1721.13 59.6941 1721.13 53.1722 Q1721.13 46.6097 1717.89 42.8424 Q1714.69 39.075 1709.18 39.075 M1725.43 13.4328 L1725.43 20.8865 Q1722.35 19.4281 1719.19 18.6585 Q1716.07 17.8888 1712.99 17.8888 Q1704.89 17.8888 1700.59 23.3575 Q1696.34 28.8262 1695.73 39.8852 Q1698.12 36.3609 1701.73 34.4975 Q1705.33 32.5936 1709.67 32.5936 Q1718.78 32.5936 1724.05 38.1433 Q1729.36 43.6525 1729.36 53.1722 Q1729.36 62.4892 1723.85 68.12 Q1718.34 73.7508 1709.18 73.7508 Q1698.69 73.7508 1693.14 65.73 Q1687.59 57.6687 1687.59 42.3968 Q1687.59 28.0566 1694.4 19.5497 Q1701.2 11.0023 1712.67 11.0023 Q1715.74 11.0023 1718.86 11.6099 Q1722.02 12.2175 1725.43 13.4328 Z" fill="#000000" fill-rule="nonzero" fill-opacity="1" /><path clip-path="url(#clip660)" d="M1743.45 62.2867 L1752 62.2867 L1752 72.576 L1743.45 72.576 L1743.45 62.2867 Z" fill="#000000" fill-rule="nonzero" fill-opacity="1" /><path clip-path="url(#clip660)" d="M1787.32 17.4837 Q1781 17.4837 1777.8 23.7221 Q1774.64 29.92 1774.64 42.3968 Q1774.64 54.833 1777.8 61.0714 Q1781 67.2693 1787.32 67.2693 Q1793.68 67.2693 1796.84 61.0714 Q1800.04 54.833 1800.04 42.3968 Q1800.04 29.92 1796.84 23.7221 Q1793.68 17.4837 1787.32 17.4837 M1787.32 11.0023 Q1797.49 11.0023 1802.84 19.0636 Q1808.23 27.0843 1808.23 42.3968 Q1808.23 57.6687 1802.84 65.73 Q1797.49 73.7508 1787.32 73.7508 Q1777.16 73.7508 1771.77 65.73 Q1766.42 57.6687 1766.42 42.3968 Q1766.42 27.0843 1771.77 19.0636 Q1777.16 11.0023 1787.32 11.0023 Z" fill="#000000" fill-rule="nonzero" fill-opacity="1" /><path clip-path="url(#clip660)" d="M1870.89 9.54393 L1870.89 15.7418 L1863.76 15.7418 Q1859.75 15.7418 1858.17 17.3622 Q1856.64 18.9825 1856.64 23.1955 L1856.64 27.2059 L1868.91 27.2059 L1868.91 32.9987 L1856.64 32.9987 L1856.64 72.576 L1849.14 72.576 L1849.14 32.9987 L1842.01 32.9987 L1842.01 27.2059 L1849.14 27.2059 L1849.14 24.0462 Q1849.14 16.471 1852.67 13.0277 Q1856.19 9.54393 1863.85 9.54393 L1870.89 9.54393 Z" fill="#000000" fill-rule="nonzero" fill-opacity="1" /><path clip-path="url(#clip660)" d="M1877.13 27.2059 L1884.59 27.2059 L1884.59 72.576 L1877.13 72.576 L1877.13 27.2059 M1877.13 9.54393 L1884.59 9.54393 L1884.59 18.9825 L1877.13 18.9825 L1877.13 9.54393 Z" fill="#000000" fill-rule="nonzero" fill-opacity="1" /><path clip-path="url(#clip660)" d="M1930.04 34.0924 L1930.04 9.54393 L1937.49 9.54393 L1937.49 72.576 L1930.04 72.576 L1930.04 65.7705 Q1927.69 69.8214 1924.08 71.8063 Q1920.52 73.7508 1915.49 73.7508 Q1907.27 73.7508 1902.09 67.1883 Q1896.94 60.6258 1896.94 49.9314 Q1896.94 39.2371 1902.09 32.6746 Q1907.27 26.1121 1915.49 26.1121 Q1920.52 26.1121 1924.08 28.0971 Q1927.69 30.0415 1930.04 34.0924 M1904.64 49.9314 Q1904.64 58.1548 1908 62.8538 Q1911.4 67.5124 1917.32 67.5124 Q1923.23 67.5124 1926.63 62.8538 Q1930.04 58.1548 1930.04 49.9314 Q1930.04 41.7081 1926.63 37.0496 Q1923.23 32.3505 1917.32 32.3505 Q1911.4 32.3505 1908 37.0496 Q1904.64 41.7081 1904.64 49.9314 Z" fill="#000000" fill-rule="nonzero" fill-opacity="1" /><path clip-path="url(#clip660)" d="M1991.65 48.0275 L1991.65 51.6733 L1957.38 51.6733 Q1957.87 59.3701 1962 63.421 Q1966.17 67.4314 1973.58 67.4314 Q1977.88 67.4314 1981.89 66.3781 Q1985.94 65.3249 1989.91 63.2184 L1989.91 70.267 Q1985.9 71.9684 1981.69 72.8596 Q1977.47 73.7508 1973.14 73.7508 Q1962.28 73.7508 1955.92 67.4314 Q1949.6 61.1119 1949.6 50.3365 Q1949.6 39.1965 1955.6 32.6746 Q1961.63 26.1121 1971.84 26.1121 Q1981 26.1121 1986.3 32.0264 Q1991.65 37.9003 1991.65 48.0275 M1984.2 45.84 Q1984.12 39.7232 1980.75 36.0774 Q1977.43 32.4315 1971.92 32.4315 Q1965.69 32.4315 1961.92 35.9558 Q1958.19 39.4801 1957.62 45.8805 L1984.2 45.84 Z" fill="#000000" fill-rule="nonzero" fill-opacity="1" /><path clip-path="url(#clip660)" d="M2003.89 9.54393 L2011.34 9.54393 L2011.34 72.576 L2003.89 72.576 L2003.89 9.54393 Z" fill="#000000" fill-rule="nonzero" fill-opacity="1" /><path clip-path="url(#clip660)" d="M2026.94 27.2059 L2034.39 27.2059 L2034.39 72.576 L2026.94 72.576 L2026.94 27.2059 M2026.94 9.54393 L2034.39 9.54393 L2034.39 18.9825 L2026.94 18.9825 L2026.94 9.54393 Z" fill="#000000" fill-rule="nonzero" fill-opacity="1" /><path clip-path="url(#clip660)" d="M2057.36 14.324 L2057.36 27.2059 L2072.71 27.2059 L2072.71 32.9987 L2057.36 32.9987 L2057.36 57.6282 Q2057.36 63.1779 2058.86 64.7578 Q2060.4 66.3376 2065.05 66.3376 L2072.71 66.3376 L2072.71 72.576 L2065.05 72.576 Q2056.43 72.576 2053.14 69.3758 Q2049.86 66.1351 2049.86 57.6282 L2049.86 32.9987 L2044.39 32.9987 L2044.39 27.2059 L2049.86 27.2059 L2049.86 14.324 L2057.36 14.324 Z" fill="#000000" fill-rule="nonzero" fill-opacity="1" /><path clip-path="url(#clip660)" d="M2101.39 76.7889 Q2098.23 84.8907 2095.23 87.3618 Q2092.24 89.8329 2087.21 89.8329 L2081.26 89.8329 L2081.26 83.5945 L2085.63 83.5945 Q2088.71 83.5945 2090.41 82.1361 Q2092.11 80.6778 2094.18 75.2496 L2095.52 71.8468 L2077.17 27.2059 L2085.07 27.2059 L2099.24 62.6918 L2113.42 27.2059 L2121.32 27.2059 L2101.39 76.7889 Z" fill="#000000" fill-rule="nonzero" fill-opacity="1" /><path clip-path="url(#clip660)" d="M2132.58 34.9026 L2184.52 34.9026 L2184.52 41.7081 L2132.58 41.7081 L2132.58 34.9026 M2132.58 51.4303 L2184.52 51.4303 L2184.52 58.3168 L2132.58 58.3168 L2132.58 51.4303 Z" fill="#000000" fill-rule="nonzero" fill-opacity="1" /><path clip-path="url(#clip660)" d="M2203.6 65.6895 L2216.96 65.6895 L2216.96 19.5497 L2202.42 22.4663 L2202.42 15.0127 L2216.88 12.096 L2225.07 12.096 L2225.07 65.6895 L2238.43 65.6895 L2238.43 72.576 L2203.6 72.576 L2203.6 65.6895 Z" fill="#000000" fill-rule="nonzero" fill-opacity="1" /><path clip-path="url(#clip660)" d="M2254.96 62.2867 L2263.51 62.2867 L2263.51 72.576 L2254.96 72.576 L2254.96 62.2867 Z" fill="#000000" fill-rule="nonzero" fill-opacity="1" /><path clip-path="url(#clip660)" d="M2298.83 17.4837 Q2292.51 17.4837 2289.31 23.7221 Q2286.15 29.92 2286.15 42.3968 Q2286.15 54.833 2289.31 61.0714 Q2292.51 67.2693 2298.83 67.2693 Q2305.19 67.2693 2308.35 61.0714 Q2311.55 54.833 2311.55 42.3968 Q2311.55 29.92 2308.35 23.7221 Q2305.19 17.4837 2298.83 17.4837 M2298.83 11.0023 Q2309 11.0023 2314.35 19.0636 Q2319.73 27.0843 2319.73 42.3968 Q2319.73 57.6687 2314.35 65.73 Q2309 73.7508 2298.83 73.7508 Q2288.66 73.7508 2283.28 65.73 Q2277.93 57.6687 2277.93 42.3968 Q2277.93 27.0843 2283.28 19.0636 Q2288.66 11.0023 2298.83 11.0023 Z" fill="#000000" fill-rule="nonzero" fill-opacity="1" /><path clip-path="url(#clip662)" d="M521.34 255.754 L521.34 1463.75 L648.085 1463.75 L648.085 255.754 L521.34 255.754 L521.34 255.754  Z" fill="#0c7e8f" fill-rule="evenodd" fill-opacity="1"/>
<polyline clip-path="url(#clip662)" style="stroke:#000000; stroke-linecap:round; stroke-linejoin:round; stroke-width:4; stroke-opacity:1; fill:none" points="521.34,255.754 521.34,1463.75 648.085,1463.75 648.085,255.754 521.34,255.754 "/>
<path clip-path="url(#clip662)" d="M679.771 478.888 L679.771 1463.75 L806.515 1463.75 L806.515 478.888 L679.771 478.888 L679.771 478.888  Z" fill="#0c7e8f" fill-rule="evenodd" fill-opacity="1"/>
<polyline clip-path="url(#clip662)" style="stroke:#000000; stroke-linecap:round; stroke-linejoin:round; stroke-width:4; stroke-opacity:1; fill:none" points="679.771,478.888 679.771,1463.75 806.515,1463.75 806.515,478.888 679.771,478.888 "/>
<path clip-path="url(#clip662)" d="M838.202 1290.63 L838.202 1463.75 L964.946 1463.75 L964.946 1290.63 L838.202 1290.63 L838.202 1290.63  Z" fill="#0c7e8f" fill-rule="evenodd" fill-opacity="1"/>
<polyline clip-path="url(#clip662)" style="stroke:#000000; stroke-linecap:round; stroke-linejoin:round; stroke-width:4; stroke-opacity:1; fill:none" points="838.202,1290.63 838.202,1463.75 964.946,1463.75 964.946,1290.63 838.202,1290.63 "/>
<path clip-path="url(#clip662)" d="M996.632 1313.71 L996.632 1463.75 L1123.38 1463.75 L1123.38 1313.71 L996.632 1313.71 L996.632 1313.71  Z" fill="#0c7e8f" fill-rule="evenodd" fill-opacity="1"/>
<polyline clip-path="url(#clip662)" style="stroke:#000000; stroke-linecap:round; stroke-linejoin:round; stroke-width:4; stroke-opacity:1; fill:none" points="996.632,1313.71 996.632,1463.75 1123.38,1463.75 1123.38,1313.71 996.632,1313.71 "/>
<path clip-path="url(#clip662)" d="M1155.06 1313.71 L1155.06 1463.75 L1281.81 1463.75 L1281.81 1313.71 L1155.06 1313.71 L1155.06 1313.71  Z" fill="#0c7e8f" fill-rule="evenodd" fill-opacity="1"/>
<polyline clip-path="url(#clip662)" style="stroke:#000000; stroke-linecap:round; stroke-linejoin:round; stroke-width:4; stroke-opacity:1; fill:none" points="1155.06,1313.71 1155.06,1463.75 1281.81,1463.75 1281.81,1313.71 1155.06,1313.71 "/>
<path clip-path="url(#clip662)" d="M1313.49 1352.19 L1313.49 1463.75 L1440.24 1463.75 L1440.24 1352.19 L1313.49 1352.19 L1313.49 1352.19  Z" fill="#0c7e8f" fill-rule="evenodd" fill-opacity="1"/>
<polyline clip-path="url(#clip662)" style="stroke:#000000; stroke-linecap:round; stroke-linejoin:round; stroke-width:4; stroke-opacity:1; fill:none" points="1313.49,1352.19 1313.49,1463.75 1440.24,1463.75 1440.24,1352.19 1313.49,1352.19 "/>
<path clip-path="url(#clip662)" d="M1471.92 1359.88 L1471.92 1463.75 L1598.67 1463.75 L1598.67 1359.88 L1471.92 1359.88 L1471.92 1359.88  Z" fill="#0c7e8f" fill-rule="evenodd" fill-opacity="1"/>
<polyline clip-path="url(#clip662)" style="stroke:#000000; stroke-linecap:round; stroke-linejoin:round; stroke-width:4; stroke-opacity:1; fill:none" points="1471.92,1359.88 1471.92,1463.75 1598.67,1463.75 1598.67,1359.88 1471.92,1359.88 "/>
<path clip-path="url(#clip662)" d="M1630.36 1363.73 L1630.36 1463.75 L1757.1 1463.75 L1757.1 1363.73 L1630.36 1363.73 L1630.36 1363.73  Z" fill="#0c7e8f" fill-rule="evenodd" fill-opacity="1"/>
<polyline clip-path="url(#clip662)" style="stroke:#000000; stroke-linecap:round; stroke-linejoin:round; stroke-width:4; stroke-opacity:1; fill:none" points="1630.36,1363.73 1630.36,1463.75 1757.1,1463.75 1757.1,1363.73 1630.36,1363.73 "/>
<path clip-path="url(#clip662)" d="M1788.79 1363.73 L1788.79 1463.75 L1915.53 1463.75 L1915.53 1363.73 L1788.79 1363.73 L1788.79 1363.73  Z" fill="#0c7e8f" fill-rule="evenodd" fill-opacity="1"/>
<polyline clip-path="url(#clip662)" style="stroke:#000000; stroke-linecap:round; stroke-linejoin:round; stroke-width:4; stroke-opacity:1; fill:none" points="1788.79,1363.73 1788.79,1463.75 1915.53,1463.75 1915.53,1363.73 1788.79,1363.73 "/>
<path clip-path="url(#clip662)" d="M1947.22 1367.57 L1947.22 1463.75 L2073.96 1463.75 L2073.96 1367.57 L1947.22 1367.57 L1947.22 1367.57  Z" fill="#0c7e8f" fill-rule="evenodd" fill-opacity="1"/>
<polyline clip-path="url(#clip662)" style="stroke:#000000; stroke-linecap:round; stroke-linejoin:round; stroke-width:4; stroke-opacity:1; fill:none" points="1947.22,1367.57 1947.22,1463.75 2073.96,1463.75 2073.96,1367.57 1947.22,1367.57 "/>
<path clip-path="url(#clip662)" d="M2105.65 1371.42 L2105.65 1463.75 L2232.39 1463.75 L2232.39 1371.42 L2105.65 1371.42 L2105.65 1371.42  Z" fill="#0c7e8f" fill-rule="evenodd" fill-opacity="1"/>
<polyline clip-path="url(#clip662)" style="stroke:#000000; stroke-linecap:round; stroke-linejoin:round; stroke-width:4; stroke-opacity:1; fill:none" points="2105.65,1371.42 2105.65,1463.75 2232.39,1463.75 2232.39,1371.42 2105.65,1371.42 "/>
<path clip-path="url(#clip662)" d="M2264.08 1382.96 L2264.08 1463.75 L2390.82 1463.75 L2390.82 1382.96 L2264.08 1382.96 L2264.08 1382.96  Z" fill="#0c7e8f" fill-rule="evenodd" fill-opacity="1"/>
<polyline clip-path="url(#clip662)" style="stroke:#000000; stroke-linecap:round; stroke-linejoin:round; stroke-width:4; stroke-opacity:1; fill:none" points="2264.08,1382.96 2264.08,1463.75 2390.82,1463.75 2390.82,1382.96 2264.08,1382.96 "/>
<path clip-path="url(#clip662)" d="M2422.51 1390.66 L2422.51 1463.75 L2549.25 1463.75 L2549.25 1390.66 L2422.51 1390.66 L2422.51 1390.66  Z" fill="#0c7e8f" fill-rule="evenodd" fill-opacity="1"/>
<polyline clip-path="url(#clip662)" style="stroke:#000000; stroke-linecap:round; stroke-linejoin:round; stroke-width:4; stroke-opacity:1; fill:none" points="2422.51,1390.66 2422.51,1463.75 2549.25,1463.75 2549.25,1390.66 2422.51,1390.66 "/>
<path clip-path="url(#clip662)" d="M2580.94 1390.66 L2580.94 1463.75 L2707.69 1463.75 L2707.69 1390.66 L2580.94 1390.66 L2580.94 1390.66  Z" fill="#0c7e8f" fill-rule="evenodd" fill-opacity="1"/>
<polyline clip-path="url(#clip662)" style="stroke:#000000; stroke-linecap:round; stroke-linejoin:round; stroke-width:4; stroke-opacity:1; fill:none" points="2580.94,1390.66 2580.94,1463.75 2707.69,1463.75 2707.69,1390.66 2580.94,1390.66 "/>
<path clip-path="url(#clip662)" d="M2739.37 1398.35 L2739.37 1463.75 L2866.12 1463.75 L2866.12 1398.35 L2739.37 1398.35 L2739.37 1398.35  Z" fill="#0c7e8f" fill-rule="evenodd" fill-opacity="1"/>
<polyline clip-path="url(#clip662)" style="stroke:#000000; stroke-linecap:round; stroke-linejoin:round; stroke-width:4; stroke-opacity:1; fill:none" points="2739.37,1398.35 2739.37,1463.75 2866.12,1463.75 2866.12,1398.35 2739.37,1398.35 "/>
<circle clip-path="url(#clip662)" style="fill:#009af9; stroke:none; fill-opacity:0" cx="584.712" cy="255.754" r="2"/>
<circle clip-path="url(#clip662)" style="fill:#009af9; stroke:none; fill-opacity:0" cx="743.143" cy="478.888" r="2"/>
<circle clip-path="url(#clip662)" style="fill:#009af9; stroke:none; fill-opacity:0" cx="901.574" cy="1290.63" r="2"/>
<circle clip-path="url(#clip662)" style="fill:#009af9; stroke:none; fill-opacity:0" cx="1060" cy="1313.71" r="2"/>
<circle clip-path="url(#clip662)" style="fill:#009af9; stroke:none; fill-opacity:0" cx="1218.44" cy="1313.71" r="2"/>
<circle clip-path="url(#clip662)" style="fill:#009af9; stroke:none; fill-opacity:0" cx="1376.87" cy="1352.19" r="2"/>
<circle clip-path="url(#clip662)" style="fill:#009af9; stroke:none; fill-opacity:0" cx="1535.3" cy="1359.88" r="2"/>
<circle clip-path="url(#clip662)" style="fill:#009af9; stroke:none; fill-opacity:0" cx="1693.73" cy="1363.73" r="2"/>
<circle clip-path="url(#clip662)" style="fill:#009af9; stroke:none; fill-opacity:0" cx="1852.16" cy="1363.73" r="2"/>
<circle clip-path="url(#clip662)" style="fill:#009af9; stroke:none; fill-opacity:0" cx="2010.59" cy="1367.57" r="2"/>
<circle clip-path="url(#clip662)" style="fill:#009af9; stroke:none; fill-opacity:0" cx="2169.02" cy="1371.42" r="2"/>
<circle clip-path="url(#clip662)" style="fill:#009af9; stroke:none; fill-opacity:0" cx="2327.45" cy="1382.96" r="2"/>
<circle clip-path="url(#clip662)" style="fill:#009af9; stroke:none; fill-opacity:0" cx="2485.88" cy="1390.66" r="2"/>
<circle clip-path="url(#clip662)" style="fill:#009af9; stroke:none; fill-opacity:0" cx="2644.31" cy="1390.66" r="2"/>
<circle clip-path="url(#clip662)" style="fill:#009af9; stroke:none; fill-opacity:0" cx="2802.74" cy="1398.35" r="2"/>
</svg>
