<?xml version="1.0" encoding="utf-8"?>
<svg xmlns="http://www.w3.org/2000/svg" xmlns:xlink="http://www.w3.org/1999/xlink" width="800" height="420" viewBox="0 0 3200 1680">
<defs>
  <clipPath id="clip540">
    <rect x="0" y="0" width="3200" height="1680"/>
  </clipPath>
</defs>
<path clip-path="url(#clip540)" d="M0 1680 L3200 1680 L3200 0 L0 0  Z" fill="#ffffff" fill-rule="evenodd" fill-opacity="1"/>
<defs>
  <clipPath id="clip541">
    <rect x="640" y="0" width="2241" height="1680"/>
  </clipPath>
</defs>
<path clip-path="url(#clip540)" d="M374.917 1481.96 L3011.02 1481.96 L3011.02 252.352 L374.917 252.352  Z" fill="#ffffff" fill-rule="evenodd" fill-opacity="1"/>
<defs>
  <clipPath id="clip542">
    <rect x="374" y="252" width="2637" height="1231"/>
  </clipPath>
</defs>
<polyline clip-path="url(#clip542)" style="stroke:#000000; stroke-linecap:round; stroke-linejoin:round; stroke-width:2; stroke-opacity:0.1; fill:none" points="1041.27,1481.96 1041.27,252.352 "/>
<polyline clip-path="url(#clip542)" style="stroke:#000000; stroke-linecap:round; stroke-linejoin:round; stroke-width:2; stroke-opacity:0.1; fill:none" points="2344.67,1481.96 2344.67,252.352 "/>
<polyline clip-path="url(#clip542)" style="stroke:#000000; stroke-linecap:round; stroke-linejoin:round; stroke-width:2; stroke-opacity:0.1; fill:none" points="374.917,1481.96 3011.02,1481.96 "/>
<polyline clip-path="url(#clip542)" style="stroke:#000000; stroke-linecap:round; stroke-linejoin:round; stroke-width:2; stroke-opacity:0.1; fill:none" points="374.917,1239.91 3011.02,1239.91 "/>
<polyline clip-path="url(#clip542)" style="stroke:#000000; stroke-linecap:round; stroke-linejoin:round; stroke-width:2; stroke-opacity:0.1; fill:none" points="374.917,997.862 3011.02,997.862 "/>
<polyline clip-path="url(#clip542)" style="stroke:#000000; stroke-linecap:round; stroke-linejoin:round; stroke-width:2; stroke-opacity:0.1; fill:none" points="374.917,755.814 3011.02,755.814 "/>
<polyline clip-path="url(#clip542)" style="stroke:#000000; stroke-linecap:round; stroke-linejoin:round; stroke-width:2; stroke-opacity:0.1; fill:none" points="374.917,513.765 3011.02,513.765 "/>
<polyline clip-path="url(#clip542)" style="stroke:#000000; stroke-linecap:round; stroke-linejoin:round; stroke-width:2; stroke-opacity:0.1; fill:none" points="374.917,271.716 3011.02,271.716 "/>
<polyline clip-path="url(#clip540)" style="stroke:#000000; stroke-linecap:round; stroke-linejoin:round; stroke-width:4; stroke-opacity:1; fill:none" points="374.917,1481.96 3011.02,1481.96 "/>
<polyline clip-path="url(#clip540)" style="stroke:#000000; stroke-linecap:round; stroke-linejoin:round; stroke-width:4; stroke-opacity:1; fill:none" points="1041.27,1481.96 1041.27,1463.06 "/>
<polyline clip-path="url(#clip540)" style="stroke:#000000; stroke-linecap:round; stroke-linejoin:round; stroke-width:4; stroke-opacity:1; fill:none" points="2344.67,1481.96 2344.67,1463.06 "/>
<path clip-path="url(#clip540)" d="M1054.61 1557.63 L1054.61 1549.99 L1028.25 1549.99 L1029.91 1558.3 L1025.66 1558.3 L1023.99 1550.04 L1023.99 1545.36 L1054.61 1545.36 L1054.61 1537.72 L1058.55 1537.72 L1058.55 1557.63 L1054.61 1557.63 Z" fill="#000000" fill-rule="nonzero" fill-opacity="1" /><path clip-path="url(#clip540)" d="M1054.61 1527.47 L1054.61 1519.83 L1028.25 1519.83 L1029.91 1528.14 L1025.66 1528.14 L1023.99 1519.87 L1023.99 1515.2 L1054.61 1515.2 L1054.61 1507.56 L1058.55 1507.56 L1058.55 1527.47 L1054.61 1527.47 Z" fill="#000000" fill-rule="nonzero" fill-opacity="1" /><path clip-path="url(#clip540)" d="M2358.02 1558.86 L2358.02 1551.22 L2331.65 1551.22 L2333.32 1559.53 L2329.06 1559.53 L2327.39 1551.26 L2327.39 1546.59 L2358.02 1546.59 L2358.02 1538.95 L2361.95 1538.95 L2361.95 1558.86 L2358.02 1558.86 Z" fill="#000000" fill-rule="nonzero" fill-opacity="1" /><path clip-path="url(#clip540)" d="M2330.47 1519.5 Q2330.47 1523.12 2334.04 1524.94 Q2337.58 1526.75 2344.71 1526.75 Q2351.81 1526.75 2355.38 1524.94 Q2358.92 1523.12 2358.92 1519.5 Q2358.92 1515.87 2355.38 1514.06 Q2351.81 1512.24 2344.71 1512.24 Q2337.58 1512.24 2334.04 1514.06 Q2330.47 1515.87 2330.47 1519.5 M2326.77 1519.5 Q2326.77 1513.69 2331.37 1510.64 Q2335.96 1507.56 2344.71 1507.56 Q2353.43 1507.56 2358.04 1510.64 Q2362.62 1513.69 2362.62 1519.5 Q2362.62 1525.31 2358.04 1528.39 Q2353.43 1531.45 2344.71 1531.45 Q2335.96 1531.45 2331.37 1528.39 Q2326.77 1525.31 2326.77 1519.5 Z" fill="#000000" fill-rule="nonzero" fill-opacity="1" /><path clip-path="url(#clip540)" d="M1567.8 1616.26 L1567.8 1633.67 L1578.12 1633.67 Q1583.31 1633.67 1585.79 1631.53 Q1588.3 1629.37 1588.3 1624.95 Q1588.3 1620.49 1585.79 1618.39 Q1583.31 1616.26 1578.12 1616.26 L1567.8 1616.26 M1567.8 1596.71 L1567.8 1611.04 L1577.32 1611.04 Q1582.03 1611.04 1584.32 1609.29 Q1586.65 1607.5 1586.65 1603.88 Q1586.65 1600.28 1584.32 1598.5 Q1582.03 1596.71 1577.32 1596.71 L1567.8 1596.71 M1561.38 1591.43 L1577.8 1591.43 Q1585.15 1591.43 1589.13 1594.49 Q1593.11 1597.54 1593.11 1603.18 Q1593.11 1607.54 1591.07 1610.11 Q1589.03 1612.69 1585.09 1613.33 Q1589.83 1614.35 1592.44 1617.59 Q1595.08 1620.81 1595.08 1625.65 Q1595.08 1632.01 1590.75 1635.48 Q1586.42 1638.95 1578.44 1638.95 L1561.38 1638.95 L1561.38 1591.43 Z" fill="#000000" fill-rule="nonzero" fill-opacity="1" /><path clip-path="url(#clip540)" d="M1605.84 1603.3 L1611.7 1603.3 L1611.7 1638.95 L1605.84 1638.95 L1605.84 1603.3 M1605.84 1589.43 L1611.7 1589.43 L1611.7 1596.84 L1605.84 1596.84 L1605.84 1589.43 Z" fill="#000000" fill-rule="nonzero" fill-opacity="1" /><path clip-path="url(#clip540)" d="M1629.74 1593.18 L1629.74 1603.3 L1641.81 1603.3 L1641.81 1607.85 L1629.74 1607.85 L1629.74 1627.21 Q1629.74 1631.57 1630.92 1632.81 Q1632.13 1634.05 1635.79 1634.05 L1641.81 1634.05 L1641.81 1638.95 L1635.79 1638.95 Q1629.01 1638.95 1626.43 1636.44 Q1623.85 1633.89 1623.85 1627.21 L1623.85 1607.85 L1619.56 1607.85 L1619.56 1603.3 L1623.85 1603.3 L1623.85 1593.18 L1629.74 1593.18 Z" fill="#000000" fill-rule="nonzero" fill-opacity="1" /><path clip-path="url(#clip540)" d="M1672.23 1604.35 L1672.23 1609.89 Q1669.75 1608.62 1667.08 1607.98 Q1664.4 1607.35 1661.54 1607.35 Q1657.18 1607.35 1654.98 1608.68 Q1652.82 1610.02 1652.82 1612.69 Q1652.82 1614.73 1654.38 1615.91 Q1655.94 1617.05 1660.65 1618.1 L1662.65 1618.55 Q1668.89 1619.89 1671.5 1622.34 Q1674.14 1624.76 1674.14 1629.12 Q1674.14 1634.08 1670.2 1636.98 Q1666.28 1639.87 1659.41 1639.87 Q1656.54 1639.87 1653.42 1639.3 Q1650.34 1638.76 1646.9 1637.65 L1646.9 1631.6 Q1650.15 1633.29 1653.3 1634.14 Q1656.45 1634.97 1659.53 1634.97 Q1663.67 1634.97 1665.9 1633.57 Q1668.13 1632.14 1668.13 1629.56 Q1668.13 1627.17 1666.5 1625.9 Q1664.91 1624.63 1659.47 1623.45 L1657.43 1622.97 Q1651.99 1621.83 1649.57 1619.47 Q1647.15 1617.08 1647.15 1612.95 Q1647.15 1607.92 1650.72 1605.18 Q1654.28 1602.44 1660.84 1602.44 Q1664.09 1602.44 1666.95 1602.92 Q1669.82 1603.4 1672.23 1604.35 Z" fill="#000000" fill-rule="nonzero" fill-opacity="1" /><path clip-path="url(#clip540)" d="M1689.26 1593.18 L1689.26 1603.3 L1701.33 1603.3 L1701.33 1607.85 L1689.26 1607.85 L1689.26 1627.21 Q1689.26 1631.57 1690.44 1632.81 Q1691.65 1634.05 1695.31 1634.05 L1701.33 1634.05 L1701.33 1638.95 L1695.31 1638.95 Q1688.53 1638.95 1685.95 1636.44 Q1683.37 1633.89 1683.37 1627.21 L1683.37 1607.85 L1679.08 1607.85 L1679.08 1603.3 L1683.37 1603.3 L1683.37 1593.18 L1689.26 1593.18 Z" fill="#000000" fill-rule="nonzero" fill-opacity="1" /><path clip-path="url(#clip540)" d="M1729.68 1608.78 Q1728.7 1608.2 1727.52 1607.95 Q1726.37 1607.66 1724.97 1607.66 Q1720.01 1607.66 1717.34 1610.91 Q1714.69 1614.12 1714.69 1620.17 L1714.69 1638.95 L1708.81 1638.95 L1708.81 1603.3 L1714.69 1603.3 L1714.69 1608.84 Q1716.54 1605.59 1719.5 1604.04 Q1722.46 1602.44 1726.69 1602.44 Q1727.3 1602.44 1728.03 1602.54 Q1728.76 1602.6 1729.65 1602.76 L1729.68 1608.78 Z" fill="#000000" fill-rule="nonzero" fill-opacity="1" /><path clip-path="url(#clip540)" d="M1735.83 1603.3 L1741.68 1603.3 L1741.68 1638.95 L1735.83 1638.95 L1735.83 1603.3 M1735.83 1589.43 L1741.68 1589.43 L1741.68 1596.84 L1735.83 1596.84 L1735.83 1589.43 Z" fill="#000000" fill-rule="nonzero" fill-opacity="1" /><path clip-path="url(#clip540)" d="M1783.57 1617.43 L1783.57 1638.95 L1777.71 1638.95 L1777.71 1617.63 Q1777.71 1612.57 1775.74 1610.05 Q1773.77 1607.54 1769.82 1607.54 Q1765.08 1607.54 1762.34 1610.56 Q1759.6 1613.58 1759.6 1618.8 L1759.6 1638.95 L1753.72 1638.95 L1753.72 1603.3 L1759.6 1603.3 L1759.6 1608.84 Q1761.7 1605.63 1764.54 1604.04 Q1767.4 1602.44 1771.13 1602.44 Q1777.27 1602.44 1780.42 1606.26 Q1783.57 1610.05 1783.57 1617.43 Z" fill="#000000" fill-rule="nonzero" fill-opacity="1" /><path clip-path="url(#clip540)" d="M1818.71 1620.71 Q1818.71 1614.35 1816.07 1610.85 Q1813.46 1607.35 1808.71 1607.35 Q1804 1607.35 1801.36 1610.85 Q1798.75 1614.35 1798.75 1620.71 Q1798.75 1627.05 1801.36 1630.55 Q1804 1634.05 1808.71 1634.05 Q1813.46 1634.05 1816.07 1630.55 Q1818.71 1627.05 1818.71 1620.71 M1824.57 1634.53 Q1824.57 1643.63 1820.52 1648.05 Q1816.48 1652.51 1808.14 1652.51 Q1805.05 1652.51 1802.32 1652.03 Q1799.58 1651.59 1797 1650.63 L1797 1644.93 Q1799.58 1646.34 1802.09 1647 Q1804.61 1647.67 1807.22 1647.67 Q1812.98 1647.67 1815.84 1644.65 Q1818.71 1641.66 1818.71 1635.58 L1818.71 1632.68 Q1816.89 1635.83 1814.06 1637.39 Q1811.23 1638.95 1807.28 1638.95 Q1800.73 1638.95 1796.72 1633.95 Q1792.71 1628.96 1792.71 1620.71 Q1792.71 1612.44 1796.72 1607.44 Q1800.73 1602.44 1807.28 1602.44 Q1811.23 1602.44 1814.06 1604 Q1816.89 1605.56 1818.71 1608.71 L1818.71 1603.3 L1824.57 1603.3 L1824.57 1634.53 Z" fill="#000000" fill-rule="nonzero" fill-opacity="1" /><polyline clip-path="url(#clip540)" style="stroke:#000000; stroke-linecap:round; stroke-linejoin:round; stroke-width:4; stroke-opacity:1; fill:none" points="374.917,1481.96 374.917,252.352 "/>
<polyline clip-path="url(#clip540)" style="stroke:#000000; stroke-linecap:round; stroke-linejoin:round; stroke-width:4; stroke-opacity:1; fill:none" points="374.917,1481.96 393.815,1481.96 "/>
<polyline clip-path="url(#clip540)" style="stroke:#000000; stroke-linecap:round; stroke-linejoin:round; stroke-width:4; stroke-opacity:1; fill:none" points="374.917,1239.91 393.815,1239.91 "/>
<polyline clip-path="url(#clip540)" style="stroke:#000000; stroke-linecap:round; stroke-linejoin:round; stroke-width:4; stroke-opacity:1; fill:none" points="374.917,997.862 393.815,997.862 "/>
<polyline clip-path="url(#clip540)" style="stroke:#000000; stroke-linecap:round; stroke-linejoin:round; stroke-width:4; stroke-opacity:1; fill:none" points="374.917,755.814 393.815,755.814 "/>
<polyline clip-path="url(#clip540)" style="stroke:#000000; stroke-linecap:round; stroke-linejoin:round; stroke-width:4; stroke-opacity:1; fill:none" points="374.917,513.765 393.815,513.765 "/>
<polyline clip-path="url(#clip540)" style="stroke:#000000; stroke-linecap:round; stroke-linejoin:round; stroke-width:4; stroke-opacity:1; fill:none" points="374.917,271.716 393.815,271.716 "/>
<path clip-path="url(#clip540)" d="M314.973 1467.76 Q311.362 1467.76 309.533 1471.32 Q307.727 1474.86 307.727 1481.99 Q307.727 1489.1 309.533 1492.67 Q311.362 1496.21 314.973 1496.21 Q318.607 1496.21 320.413 1492.67 Q322.241 1489.1 322.241 1481.99 Q322.241 1474.86 320.413 1471.32 Q318.607 1467.76 314.973 1467.76 M314.973 1464.05 Q320.783 1464.05 323.838 1468.66 Q326.917 1473.24 326.917 1481.99 Q326.917 1490.72 323.838 1495.33 Q320.783 1499.91 314.973 1499.91 Q309.163 1499.91 306.084 1495.33 Q303.028 1490.72 303.028 1481.99 Q303.028 1473.24 306.084 1468.66 Q309.163 1464.05 314.973 1464.05 Z" fill="#000000" fill-rule="nonzero" fill-opacity="1" /><path clip-path="url(#clip540)" d="M245.459 1253.26 L253.098 1253.26 L253.098 1226.89 L244.788 1228.56 L244.788 1224.3 L253.052 1222.63 L257.728 1222.63 L257.728 1253.26 L265.367 1253.26 L265.367 1257.19 L245.459 1257.19 L245.459 1253.26 Z" fill="#000000" fill-rule="nonzero" fill-opacity="1" /><path clip-path="url(#clip540)" d="M284.811 1225.71 Q281.2 1225.71 279.371 1229.27 Q277.566 1232.82 277.566 1239.95 Q277.566 1247.05 279.371 1250.62 Q281.2 1254.16 284.811 1254.16 Q288.445 1254.16 290.251 1250.62 Q292.079 1247.05 292.079 1239.95 Q292.079 1232.82 290.251 1229.27 Q288.445 1225.71 284.811 1225.71 M284.811 1222.01 Q290.621 1222.01 293.677 1226.61 Q296.755 1231.2 296.755 1239.95 Q296.755 1248.67 293.677 1253.28 Q290.621 1257.86 284.811 1257.86 Q279.001 1257.86 275.922 1253.28 Q272.866 1248.67 272.866 1239.95 Q272.866 1231.2 275.922 1226.61 Q279.001 1222.01 284.811 1222.01 Z" fill="#000000" fill-rule="nonzero" fill-opacity="1" /><path clip-path="url(#clip540)" d="M314.973 1225.71 Q311.362 1225.71 309.533 1229.27 Q307.727 1232.82 307.727 1239.95 Q307.727 1247.05 309.533 1250.62 Q311.362 1254.16 314.973 1254.16 Q318.607 1254.16 320.413 1250.62 Q322.241 1247.05 322.241 1239.95 Q322.241 1232.82 320.413 1229.27 Q318.607 1225.71 314.973 1225.71 M314.973 1222.01 Q320.783 1222.01 323.838 1226.61 Q326.917 1231.2 326.917 1239.95 Q326.917 1248.67 323.838 1253.28 Q320.783 1257.86 314.973 1257.86 Q309.163 1257.86 306.084 1253.28 Q303.028 1248.67 303.028 1239.95 Q303.028 1231.2 306.084 1226.61 Q309.163 1222.01 314.973 1222.01 Z" fill="#000000" fill-rule="nonzero" fill-opacity="1" /><path clip-path="url(#clip540)" d="M248.677 1011.21 L264.996 1011.21 L264.996 1015.14 L243.052 1015.14 L243.052 1011.21 Q245.714 1008.45 250.297 1003.82 Q254.904 999.17 256.084 997.828 Q258.33 995.305 259.209 993.568 Q260.112 991.809 260.112 990.119 Q260.112 987.365 258.168 985.629 Q256.246 983.893 253.144 983.893 Q250.945 983.893 248.492 984.656 Q246.061 985.42 243.283 986.971 L243.283 982.249 Q246.107 981.115 248.561 980.536 Q251.015 979.957 253.052 979.957 Q258.422 979.957 261.617 982.643 Q264.811 985.328 264.811 989.818 Q264.811 991.948 264.001 993.869 Q263.214 995.767 261.107 998.36 Q260.529 999.031 257.427 1002.25 Q254.325 1005.44 248.677 1011.21 Z" fill="#000000" fill-rule="nonzero" fill-opacity="1" /><path clip-path="url(#clip540)" d="M284.811 983.661 Q281.2 983.661 279.371 987.226 Q277.566 990.767 277.566 997.897 Q277.566 1005 279.371 1008.57 Q281.2 1012.11 284.811 1012.11 Q288.445 1012.11 290.251 1008.57 Q292.079 1005 292.079 997.897 Q292.079 990.767 290.251 987.226 Q288.445 983.661 284.811 983.661 M284.811 979.957 Q290.621 979.957 293.677 984.564 Q296.755 989.147 296.755 997.897 Q296.755 1006.62 293.677 1011.23 Q290.621 1015.81 284.811 1015.81 Q279.001 1015.81 275.922 1011.23 Q272.866 1006.62 272.866 997.897 Q272.866 989.147 275.922 984.564 Q279.001 979.957 284.811 979.957 Z" fill="#000000" fill-rule="nonzero" fill-opacity="1" /><path clip-path="url(#clip540)" d="M314.973 983.661 Q311.362 983.661 309.533 987.226 Q307.727 990.767 307.727 997.897 Q307.727 1005 309.533 1008.57 Q311.362 1012.11 314.973 1012.11 Q318.607 1012.11 320.413 1008.57 Q322.241 1005 322.241 997.897 Q322.241 990.767 320.413 987.226 Q318.607 983.661 314.973 983.661 M314.973 979.957 Q320.783 979.957 323.838 984.564 Q326.917 989.147 326.917 997.897 Q326.917 1006.62 323.838 1011.23 Q320.783 1015.81 314.973 1015.81 Q309.163 1015.81 306.084 1011.23 Q303.028 1006.62 303.028 997.897 Q303.028 989.147 306.084 984.564 Q309.163 979.957 314.973 979.957 Z" fill="#000000" fill-rule="nonzero" fill-opacity="1" /><path clip-path="url(#clip540)" d="M258.816 754.46 Q262.172 755.177 264.047 757.446 Q265.945 759.714 265.945 763.047 Q265.945 768.163 262.427 770.964 Q258.908 773.765 252.427 773.765 Q250.251 773.765 247.936 773.325 Q245.644 772.908 243.191 772.052 L243.191 767.538 Q245.135 768.672 247.45 769.251 Q249.765 769.83 252.288 769.83 Q256.686 769.83 258.978 768.094 Q261.292 766.358 261.292 763.047 Q261.292 759.992 259.14 758.279 Q257.01 756.543 253.191 756.543 L249.163 756.543 L249.163 752.7 L253.376 752.7 Q256.825 752.7 258.654 751.335 Q260.482 749.946 260.482 747.353 Q260.482 744.691 258.584 743.279 Q256.709 741.844 253.191 741.844 Q251.269 741.844 249.07 742.261 Q246.871 742.677 244.232 743.557 L244.232 739.39 Q246.894 738.649 249.209 738.279 Q251.547 737.909 253.607 737.909 Q258.931 737.909 262.033 740.339 Q265.135 742.747 265.135 746.867 Q265.135 749.737 263.492 751.728 Q261.848 753.696 258.816 754.46 Z" fill="#000000" fill-rule="nonzero" fill-opacity="1" /><path clip-path="url(#clip540)" d="M284.811 741.612 Q281.2 741.612 279.371 745.177 Q277.566 748.719 277.566 755.848 Q277.566 762.955 279.371 766.52 Q281.2 770.061 284.811 770.061 Q288.445 770.061 290.251 766.52 Q292.079 762.955 292.079 755.848 Q292.079 748.719 290.251 745.177 Q288.445 741.612 284.811 741.612 M284.811 737.909 Q290.621 737.909 293.677 742.515 Q296.755 747.098 296.755 755.848 Q296.755 764.575 293.677 769.182 Q290.621 773.765 284.811 773.765 Q279.001 773.765 275.922 769.182 Q272.866 764.575 272.866 755.848 Q272.866 747.098 275.922 742.515 Q279.001 737.909 284.811 737.909 Z" fill="#000000" fill-rule="nonzero" fill-opacity="1" /><path clip-path="url(#clip540)" d="M314.973 741.612 Q311.362 741.612 309.533 745.177 Q307.727 748.719 307.727 755.848 Q307.727 762.955 309.533 766.52 Q311.362 770.061 314.973 770.061 Q318.607 770.061 320.413 766.52 Q322.241 762.955 322.241 755.848 Q322.241 748.719 320.413 745.177 Q318.607 741.612 314.973 741.612 M314.973 737.909 Q320.783 737.909 323.838 742.515 Q326.917 747.098 326.917 755.848 Q326.917 764.575 323.838 769.182 Q320.783 773.765 314.973 773.765 Q309.163 773.765 306.084 769.182 Q303.028 764.575 303.028 755.848 Q303.028 747.098 306.084 742.515 Q309.163 737.909 314.973 737.909 Z" fill="#000000" fill-rule="nonzero" fill-opacity="1" /><path clip-path="url(#clip540)" d="M257.496 500.559 L245.691 519.008 L257.496 519.008 L257.496 500.559 M256.269 496.485 L262.149 496.485 L262.149 519.008 L267.079 519.008 L267.079 522.897 L262.149 522.897 L262.149 531.045 L257.496 531.045 L257.496 522.897 L241.894 522.897 L241.894 518.383 L256.269 496.485 Z" fill="#000000" fill-rule="nonzero" fill-opacity="1" /><path clip-path="url(#clip540)" d="M284.811 499.564 Q281.2 499.564 279.371 503.128 Q277.566 506.67 277.566 513.8 Q277.566 520.906 279.371 524.471 Q281.2 528.013 284.811 528.013 Q288.445 528.013 290.251 524.471 Q292.079 520.906 292.079 513.8 Q292.079 506.67 290.251 503.128 Q288.445 499.564 284.811 499.564 M284.811 495.86 Q290.621 495.86 293.677 500.466 Q296.755 505.05 296.755 513.8 Q296.755 522.527 293.677 527.133 Q290.621 531.716 284.811 531.716 Q279.001 531.716 275.922 527.133 Q272.866 522.527 272.866 513.8 Q272.866 505.05 275.922 500.466 Q279.001 495.86 284.811 495.86 Z" fill="#000000" fill-rule="nonzero" fill-opacity="1" /><path clip-path="url(#clip540)" d="M314.973 499.564 Q311.362 499.564 309.533 503.128 Q307.727 506.67 307.727 513.8 Q307.727 520.906 309.533 524.471 Q311.362 528.013 314.973 528.013 Q318.607 528.013 320.413 524.471 Q322.241 520.906 322.241 513.8 Q322.241 506.67 320.413 503.128 Q318.607 499.564 314.973 499.564 M314.973 495.86 Q320.783 495.86 323.838 500.466 Q326.917 505.05 326.917 513.8 Q326.917 522.527 323.838 527.133 Q320.783 531.716 314.973 531.716 Q309.163 531.716 306.084 527.133 Q303.028 522.527 303.028 513.8 Q303.028 505.05 306.084 500.466 Q309.163 495.86 314.973 495.86 Z" fill="#000000" fill-rule="nonzero" fill-opacity="1" /><path clip-path="url(#clip540)" d="M244.695 254.436 L263.052 254.436 L263.052 258.371 L248.978 258.371 L248.978 266.844 Q249.996 266.496 251.015 266.334 Q252.033 266.149 253.052 266.149 Q258.839 266.149 262.218 269.32 Q265.598 272.492 265.598 277.908 Q265.598 283.487 262.126 286.589 Q258.654 289.668 252.334 289.668 Q250.158 289.668 247.89 289.297 Q245.644 288.927 243.237 288.186 L243.237 283.487 Q245.32 284.621 247.543 285.177 Q249.765 285.732 252.242 285.732 Q256.246 285.732 258.584 283.626 Q260.922 281.519 260.922 277.908 Q260.922 274.297 258.584 272.191 Q256.246 270.084 252.242 270.084 Q250.367 270.084 248.492 270.501 Q246.64 270.918 244.695 271.797 L244.695 254.436 Z" fill="#000000" fill-rule="nonzero" fill-opacity="1" /><path clip-path="url(#clip540)" d="M284.811 257.515 Q281.2 257.515 279.371 261.08 Q277.566 264.621 277.566 271.751 Q277.566 278.857 279.371 282.422 Q281.2 285.964 284.811 285.964 Q288.445 285.964 290.251 282.422 Q292.079 278.857 292.079 271.751 Q292.079 264.621 290.251 261.08 Q288.445 257.515 284.811 257.515 M284.811 253.811 Q290.621 253.811 293.677 258.418 Q296.755 263.001 296.755 271.751 Q296.755 280.478 293.677 285.084 Q290.621 289.668 284.811 289.668 Q279.001 289.668 275.922 285.084 Q272.866 280.478 272.866 271.751 Q272.866 263.001 275.922 258.418 Q279.001 253.811 284.811 253.811 Z" fill="#000000" fill-rule="nonzero" fill-opacity="1" /><path clip-path="url(#clip540)" d="M314.973 257.515 Q311.362 257.515 309.533 261.08 Q307.727 264.621 307.727 271.751 Q307.727 278.857 309.533 282.422 Q311.362 285.964 314.973 285.964 Q318.607 285.964 320.413 282.422 Q322.241 278.857 322.241 271.751 Q322.241 264.621 320.413 261.08 Q318.607 257.515 314.973 257.515 M314.973 253.811 Q320.783 253.811 323.838 258.418 Q326.917 263.001 326.917 271.751 Q326.917 280.478 323.838 285.084 Q320.783 289.668 314.973 289.668 Q309.163 289.668 306.084 285.084 Q303.028 280.478 303.028 271.751 Q303.028 263.001 306.084 258.418 Q309.163 253.811 314.973 253.811 Z" fill="#000000" fill-rule="nonzero" fill-opacity="1" /><path clip-path="url(#clip540)" d="M135.779 1202.55 L142.558 1202.55 Q139.534 1205.8 138.039 1209.49 Q136.543 1213.15 136.543 1217.29 Q136.543 1225.43 141.54 1229.76 Q146.505 1234.09 155.926 1234.09 Q165.316 1234.09 170.313 1229.76 Q175.278 1225.43 175.278 1217.29 Q175.278 1213.15 173.782 1209.49 Q172.286 1205.8 169.262 1202.55 L175.978 1202.55 Q178.27 1205.92 179.416 1209.71 Q180.561 1213.47 180.561 1217.67 Q180.561 1228.46 173.973 1234.66 Q167.353 1240.87 155.926 1240.87 Q144.468 1240.87 137.879 1234.66 Q131.259 1228.46 131.259 1217.67 Q131.259 1213.4 132.405 1209.65 Q133.519 1205.86 135.779 1202.55 Z" fill="#000000" fill-rule="nonzero" fill-opacity="1" /><path clip-path="url(#clip540)" d="M148.096 1179.06 Q148.096 1183.77 151.788 1186.51 Q155.449 1189.24 161.846 1189.24 Q168.244 1189.24 171.936 1186.54 Q175.596 1183.8 175.596 1179.06 Q175.596 1174.38 171.904 1171.64 Q168.212 1168.91 161.846 1168.91 Q155.512 1168.91 151.82 1171.64 Q148.096 1174.38 148.096 1179.06 M143.131 1179.06 Q143.131 1171.42 148.096 1167.06 Q153.062 1162.7 161.846 1162.7 Q170.599 1162.7 175.596 1167.06 Q180.561 1171.42 180.561 1179.06 Q180.561 1186.73 175.596 1191.09 Q170.599 1195.42 161.846 1195.42 Q153.062 1195.42 148.096 1191.09 Q143.131 1186.73 143.131 1179.06 Z" fill="#000000" fill-rule="nonzero" fill-opacity="1" /><path clip-path="url(#clip540)" d="M165.57 1153.6 L143.99 1153.6 L143.99 1147.74 L165.347 1147.74 Q170.408 1147.74 172.954 1145.77 Q175.469 1143.79 175.469 1139.85 Q175.469 1135.1 172.445 1132.37 Q169.421 1129.6 164.202 1129.6 L143.99 1129.6 L143.99 1123.74 L179.638 1123.74 L179.638 1129.6 L174.164 1129.6 Q177.41 1131.73 179.002 1134.56 Q180.561 1137.36 180.561 1141.09 Q180.561 1147.23 176.742 1150.41 Q172.923 1153.6 165.57 1153.6 M143.131 1138.86 L143.131 1138.86 Z" fill="#000000" fill-rule="nonzero" fill-opacity="1" /><path clip-path="url(#clip540)" d="M158.122 1082.05 L179.638 1082.05 L179.638 1087.9 L158.313 1087.9 Q153.253 1087.9 150.738 1089.88 Q148.224 1091.85 148.224 1095.8 Q148.224 1100.54 151.247 1103.28 Q154.271 1106.01 159.491 1106.01 L179.638 1106.01 L179.638 1111.9 L143.99 1111.9 L143.99 1106.01 L149.529 1106.01 Q146.314 1103.91 144.723 1101.08 Q143.131 1098.22 143.131 1094.49 Q143.131 1088.35 146.951 1085.2 Q150.738 1082.05 158.122 1082.05 Z" fill="#000000" fill-rule="nonzero" fill-opacity="1" /><path clip-path="url(#clip540)" d="M133.869 1064.57 L143.99 1064.57 L143.99 1052.51 L148.542 1052.51 L148.542 1064.57 L167.894 1064.57 Q172.254 1064.57 173.496 1063.39 Q174.737 1062.19 174.737 1058.53 L174.737 1052.51 L179.638 1052.51 L179.638 1058.53 Q179.638 1065.3 177.124 1067.88 Q174.578 1070.46 167.894 1070.46 L148.542 1070.46 L148.542 1074.76 L143.99 1074.76 L143.99 1070.46 L133.869 1070.46 L133.869 1064.57 Z" fill="#000000" fill-rule="nonzero" fill-opacity="1" /><path clip-path="url(#clip540)" d="M145.041 1022.08 L150.579 1022.08 Q149.306 1024.56 148.669 1027.24 Q148.033 1029.91 148.033 1032.78 Q148.033 1037.14 149.37 1039.33 Q150.706 1041.5 153.38 1041.5 Q155.417 1041.5 156.595 1039.94 Q157.74 1038.38 158.791 1033.67 L159.236 1031.66 Q160.573 1025.42 163.024 1022.81 Q165.443 1020.17 169.803 1020.17 Q174.769 1020.17 177.665 1024.12 Q180.561 1028.03 180.561 1034.91 Q180.561 1037.77 179.989 1040.89 Q179.447 1043.98 178.333 1047.42 L172.286 1047.42 Q173.973 1044.17 174.832 1041.02 Q175.66 1037.87 175.66 1034.78 Q175.66 1030.64 174.259 1028.42 Q172.827 1026.19 170.249 1026.19 Q167.862 1026.19 166.589 1027.81 Q165.316 1029.4 164.138 1034.84 L163.661 1036.88 Q162.515 1042.32 160.159 1044.74 Q157.772 1047.16 153.635 1047.16 Q148.606 1047.16 145.868 1043.6 Q143.131 1040.03 143.131 1033.48 Q143.131 1030.23 143.609 1027.36 Q144.086 1024.5 145.041 1022.08 Z" fill="#000000" fill-rule="nonzero" fill-opacity="1" /><path clip-path="url(#clip540)" d="M130.177 976.057 Q137.497 980.322 144.659 982.391 Q151.82 984.46 159.173 984.46 Q166.525 984.46 173.75 982.391 Q180.943 980.291 188.232 976.057 L188.232 981.15 Q180.752 985.924 173.527 988.311 Q166.302 990.667 159.173 990.667 Q152.075 990.667 144.882 988.311 Q137.688 985.956 130.177 981.15 L130.177 976.057 Z" fill="#000000" fill-rule="nonzero" fill-opacity="1" /><path clip-path="url(#clip540)" d="M174.228 962.753 L174.228 952.25 L137.975 952.25 L140.267 963.676 L134.41 963.676 L132.118 952.313 L132.118 945.884 L174.228 945.884 L174.228 935.381 L179.638 935.381 L179.638 962.753 L174.228 962.753 Z" fill="#000000" fill-rule="nonzero" fill-opacity="1" /><path clip-path="url(#clip540)" d="M136.352 908.645 Q136.352 913.61 141.253 916.124 Q146.123 918.607 155.926 918.607 Q165.698 918.607 170.599 916.124 Q175.469 913.61 175.469 908.645 Q175.469 903.647 170.599 901.165 Q165.698 898.65 155.926 898.65 Q146.123 898.65 141.253 901.165 Q136.352 903.647 136.352 908.645 M131.259 908.645 Q131.259 900.656 137.593 896.454 Q143.895 892.221 155.926 892.221 Q167.926 892.221 174.259 896.454 Q180.561 900.656 180.561 908.645 Q180.561 916.634 174.259 920.867 Q167.926 925.068 155.926 925.068 Q143.895 925.068 137.593 920.867 Q131.259 916.634 131.259 908.645 Z" fill="#000000" fill-rule="nonzero" fill-opacity="1" /><path clip-path="url(#clip540)" d="M136.352 867.172 Q136.352 872.137 141.253 874.652 Q146.123 877.134 155.926 877.134 Q165.698 877.134 170.599 874.652 Q175.469 872.137 175.469 867.172 Q175.469 862.175 170.599 859.692 Q165.698 857.178 155.926 857.178 Q146.123 857.178 141.253 859.692 Q136.352 862.175 136.352 867.172 M131.259 867.172 Q131.259 859.183 137.593 854.982 Q143.895 850.748 155.926 850.748 Q167.926 850.748 174.259 854.982 Q180.561 859.183 180.561 867.172 Q180.561 875.161 174.259 879.394 Q167.926 883.596 155.926 883.596 Q143.895 883.596 137.593 879.394 Q131.259 875.161 131.259 867.172 Z" fill="#000000" fill-rule="nonzero" fill-opacity="1" /><path clip-path="url(#clip540)" d="M136.352 825.699 Q136.352 830.665 141.253 833.179 Q146.123 835.662 155.926 835.662 Q165.698 835.662 170.599 833.179 Q175.469 830.665 175.469 825.699 Q175.469 820.702 170.599 818.22 Q165.698 815.705 155.926 815.705 Q146.123 815.705 141.253 818.22 Q136.352 820.702 136.352 825.699 M131.259 825.699 Q131.259 817.71 137.593 813.509 Q143.895 809.276 155.926 809.276 Q167.926 809.276 174.259 813.509 Q180.561 817.71 180.561 825.699 Q180.561 833.688 174.259 837.922 Q167.926 842.123 155.926 842.123 Q143.895 842.123 137.593 837.922 Q131.259 833.688 131.259 825.699 Z" fill="#000000" fill-rule="nonzero" fill-opacity="1" /><path clip-path="url(#clip540)" d="M145.041 755.358 L150.579 755.358 Q149.306 757.841 148.669 760.515 Q148.033 763.188 148.033 766.053 Q148.033 770.413 149.37 772.609 Q150.706 774.774 153.38 774.774 Q155.417 774.774 156.595 773.214 Q157.74 771.655 158.791 766.944 L159.236 764.939 Q160.573 758.7 163.024 756.09 Q165.443 753.449 169.803 753.449 Q174.769 753.449 177.665 757.395 Q180.561 761.31 180.561 768.185 Q180.561 771.05 179.989 774.169 Q179.447 777.256 178.333 780.694 L172.286 780.694 Q173.973 777.447 174.832 774.296 Q175.66 771.145 175.66 768.058 Q175.66 763.92 174.259 761.692 Q172.827 759.464 170.249 759.464 Q167.862 759.464 166.589 761.087 Q165.316 762.679 164.138 768.122 L163.661 770.159 Q162.515 775.601 160.159 778.02 Q157.772 780.439 153.635 780.439 Q148.606 780.439 145.868 776.874 Q143.131 773.31 143.131 766.753 Q143.131 763.506 143.609 760.642 Q144.086 757.777 145.041 755.358 Z" fill="#000000" fill-rule="nonzero" fill-opacity="1" /><path clip-path="url(#clip540)" d="M161.719 727.922 Q161.719 735.02 163.342 737.757 Q164.965 740.494 168.88 740.494 Q172 740.494 173.846 738.457 Q175.66 736.389 175.66 732.856 Q175.66 727.986 172.222 725.058 Q168.753 722.098 163.024 722.098 L161.719 722.098 L161.719 727.922 M159.3 716.241 L179.638 716.241 L179.638 722.098 L174.228 722.098 Q177.474 724.103 179.034 727.095 Q180.561 730.086 180.561 734.415 Q180.561 739.89 177.506 743.136 Q174.419 746.351 169.262 746.351 Q163.247 746.351 160.191 742.34 Q157.136 738.298 157.136 730.309 L157.136 722.098 L156.563 722.098 Q152.521 722.098 150.324 724.771 Q148.096 727.413 148.096 732.219 Q148.096 735.275 148.828 738.171 Q149.56 741.067 151.025 743.741 L145.614 743.741 Q144.372 740.526 143.768 737.503 Q143.131 734.479 143.131 731.614 Q143.131 723.88 147.142 720.061 Q151.152 716.241 159.3 716.241 Z" fill="#000000" fill-rule="nonzero" fill-opacity="1" /><path clip-path="url(#clip540)" d="M150.834 676.424 Q146.887 674.227 145.009 671.172 Q143.131 668.116 143.131 663.979 Q143.131 658.409 147.046 655.385 Q150.929 652.361 158.122 652.361 L179.638 652.361 L179.638 658.249 L158.313 658.249 Q153.189 658.249 150.706 660.064 Q148.224 661.878 148.224 665.602 Q148.224 670.153 151.247 672.795 Q154.271 675.437 159.491 675.437 L179.638 675.437 L179.638 681.325 L158.313 681.325 Q153.157 681.325 150.706 683.139 Q148.224 684.954 148.224 688.741 Q148.224 693.229 151.279 695.871 Q154.303 698.513 159.491 698.513 L179.638 698.513 L179.638 704.401 L143.99 704.401 L143.99 698.513 L149.529 698.513 Q146.25 696.507 144.691 693.706 Q143.131 690.906 143.131 687.054 Q143.131 683.171 145.104 680.466 Q147.078 677.729 150.834 676.424 Z" fill="#000000" fill-rule="nonzero" fill-opacity="1" /><path clip-path="url(#clip540)" d="M174.291 635.015 L193.197 635.015 L193.197 640.903 L143.99 640.903 L143.99 635.015 L149.401 635.015 Q146.218 633.169 144.691 630.368 Q143.131 627.535 143.131 623.62 Q143.131 617.127 148.287 613.085 Q153.444 609.011 161.846 609.011 Q170.249 609.011 175.405 613.085 Q180.561 617.127 180.561 623.62 Q180.561 627.535 179.034 630.368 Q177.474 633.169 174.291 635.015 M161.846 615.09 Q155.385 615.09 151.725 617.764 Q148.033 620.405 148.033 625.052 Q148.033 629.699 151.725 632.373 Q155.385 635.015 161.846 635.015 Q168.307 635.015 172 632.373 Q175.66 629.699 175.66 625.052 Q175.66 620.405 172 617.764 Q168.307 615.09 161.846 615.09 Z" fill="#000000" fill-rule="nonzero" fill-opacity="1" /><path clip-path="url(#clip540)" d="M130.113 599.303 L130.113 593.447 L179.638 593.447 L179.638 599.303 L130.113 599.303 Z" fill="#000000" fill-rule="nonzero" fill-opacity="1" /><path clip-path="url(#clip540)" d="M160.35 550.701 L163.215 550.701 L163.215 577.628 Q169.262 577.246 172.445 573.999 Q175.596 570.721 175.596 564.896 Q175.596 561.523 174.769 558.372 Q173.941 555.189 172.286 552.07 L177.824 552.07 Q179.161 555.221 179.861 558.531 Q180.561 561.841 180.561 565.247 Q180.561 573.777 175.596 578.774 Q170.631 583.739 162.165 583.739 Q153.412 583.739 148.287 579.028 Q143.131 574.286 143.131 566.265 Q143.131 559.072 147.778 554.902 Q152.393 550.701 160.35 550.701 M158.632 556.557 Q153.826 556.621 150.961 559.263 Q148.096 561.873 148.096 566.201 Q148.096 571.103 150.865 574.063 Q153.635 576.991 158.663 577.437 L158.632 556.557 Z" fill="#000000" fill-rule="nonzero" fill-opacity="1" /><path clip-path="url(#clip540)" d="M145.041 518.363 L150.579 518.363 Q149.306 520.846 148.669 523.519 Q148.033 526.193 148.033 529.057 Q148.033 533.418 149.37 535.614 Q150.706 537.778 153.38 537.778 Q155.417 537.778 156.595 536.219 Q157.74 534.659 158.791 529.949 L159.236 527.943 Q160.573 521.705 163.024 519.095 Q165.443 516.453 169.803 516.453 Q174.769 516.453 177.665 520.4 Q180.561 524.315 180.561 531.19 Q180.561 534.055 179.989 537.174 Q179.447 540.261 178.333 543.699 L172.286 543.699 Q173.973 540.452 174.832 537.301 Q175.66 534.15 175.66 531.063 Q175.66 526.925 174.259 524.697 Q172.827 522.469 170.249 522.469 Q167.862 522.469 166.589 524.092 Q165.316 525.684 164.138 531.126 L163.661 533.163 Q162.515 538.606 160.159 541.025 Q157.772 543.444 153.635 543.444 Q148.606 543.444 145.868 539.879 Q143.131 536.314 143.131 529.758 Q143.131 526.511 143.609 523.647 Q144.086 520.782 145.041 518.363 Z" fill="#000000" fill-rule="nonzero" fill-opacity="1" /><path clip-path="url(#clip540)" d="M130.177 508.051 L130.177 502.958 Q137.688 498.184 144.882 495.828 Q152.075 493.441 159.173 493.441 Q166.302 493.441 173.527 495.828 Q180.752 498.184 188.232 502.958 L188.232 508.051 Q180.943 503.817 173.75 501.749 Q166.525 499.648 159.173 499.648 Q151.82 499.648 144.659 501.749 Q137.497 503.817 130.177 508.051 Z" fill="#000000" fill-rule="nonzero" fill-opacity="1" /><path clip-path="url(#clip540)" d="M912.118 12.096 L924.311 12.096 L939.745 53.2532 L955.26 12.096 L967.453 12.096 L967.453 72.576 L959.473 72.576 L959.473 19.4686 L943.877 60.9499 L935.654 60.9499 L920.058 19.4686 L920.058 72.576 L912.118 72.576 L912.118 12.096 Z" fill="#000000" fill-rule="nonzero" fill-opacity="1" /><path clip-path="url(#clip540)" d="M983.698 12.096 L991.88 12.096 L991.88 72.576 L983.698 72.576 L983.698 12.096 Z" fill="#000000" fill-rule="nonzero" fill-opacity="1" /><path clip-path="url(#clip540)" d="M1008.17 12.096 L1020.36 12.096 L1035.79 53.2532 L1051.31 12.096 L1063.5 12.096 L1063.5 72.576 L1055.52 72.576 L1055.52 19.4686 L1039.92 60.9499 L1031.7 60.9499 L1016.1 19.4686 L1016.1 72.576 L1008.17 72.576 L1008.17 12.096 Z" fill="#000000" fill-rule="nonzero" fill-opacity="1" /><path clip-path="url(#clip540)" d="M1079.74 12.096 L1087.93 12.096 L1087.93 72.576 L1079.74 72.576 L1079.74 12.096 Z" fill="#000000" fill-rule="nonzero" fill-opacity="1" /><path clip-path="url(#clip540)" d="M1128.76 17.6457 Q1119.85 17.6457 1114.58 24.2892 Q1109.36 30.9327 1109.36 42.3968 Q1109.36 53.8203 1114.58 60.4638 Q1119.85 67.1073 1128.76 67.1073 Q1137.67 67.1073 1142.86 60.4638 Q1148.08 53.8203 1148.08 42.3968 Q1148.08 30.9327 1142.86 24.2892 Q1137.67 17.6457 1128.76 17.6457 M1140.22 71.4823 L1151 83.2704 L1141.12 83.2704 L1132.16 73.5887 Q1130.83 73.6697 1130.1 73.7103 Q1129.41 73.7508 1128.76 73.7508 Q1116 73.7508 1108.34 65.2439 Q1100.73 56.6965 1100.73 42.3968 Q1100.73 28.0566 1108.34 19.5497 Q1116 11.0023 1128.76 11.0023 Q1141.48 11.0023 1149.1 19.5497 Q1156.71 28.0566 1156.71 42.3968 Q1156.71 52.9291 1152.46 60.4233 Q1148.25 67.9175 1140.22 71.4823 Z" fill="#000000" fill-rule="nonzero" fill-opacity="1" /><path clip-path="url(#clip540)" d="M1167.73 46.5287 L1189.56 46.5287 L1189.56 53.1722 L1167.73 53.1722 L1167.73 46.5287 Z" fill="#000000" fill-rule="nonzero" fill-opacity="1" /><path clip-path="url(#clip540)" d="M1238.01 14.0809 L1238.01 22.0612 Q1233.35 19.8332 1229.22 18.7395 Q1225.09 17.6457 1221.24 17.6457 Q1214.56 17.6457 1210.91 20.2383 Q1207.31 22.8309 1207.31 27.611 Q1207.31 31.6214 1209.7 33.6873 Q1212.13 35.7128 1218.85 36.9686 L1223.79 37.9813 Q1232.95 39.7232 1237.28 44.1387 Q1241.66 48.5136 1241.66 55.8863 Q1241.66 64.6767 1235.74 69.2137 Q1229.87 73.7508 1218.49 73.7508 Q1214.19 73.7508 1209.33 72.7785 Q1204.51 71.8063 1199.33 69.9024 L1199.33 61.4765 Q1204.31 64.2716 1209.09 65.6895 Q1213.87 67.1073 1218.49 67.1073 Q1225.5 67.1073 1229.3 64.3527 Q1233.11 61.598 1233.11 56.4939 Q1233.11 52.0379 1230.36 49.5264 Q1227.64 47.0148 1221.4 45.759 L1216.42 44.7868 Q1207.27 42.9639 1203.18 39.075 Q1199.08 35.1862 1199.08 28.2591 Q1199.08 20.2383 1204.71 15.6203 Q1210.39 11.0023 1220.31 11.0023 Q1224.56 11.0023 1228.98 11.7719 Q1233.4 12.5416 1238.01 14.0809 Z" fill="#000000" fill-rule="nonzero" fill-opacity="1" /><path clip-path="url(#clip540)" d="M1261.47 14.324 L1261.47 27.2059 L1276.82 27.2059 L1276.82 32.9987 L1261.47 32.9987 L1261.47 57.6282 Q1261.47 63.1779 1262.97 64.7578 Q1264.51 66.3376 1269.16 66.3376 L1276.82 66.3376 L1276.82 72.576 L1269.16 72.576 Q1260.54 72.576 1257.26 69.3758 Q1253.97 66.1351 1253.97 57.6282 L1253.97 32.9987 L1248.51 32.9987 L1248.51 27.2059 L1253.97 27.2059 L1253.97 14.324 L1261.47 14.324 Z" fill="#000000" fill-rule="nonzero" fill-opacity="1" /><path clip-path="url(#clip540)" d="M1307.24 49.7694 Q1298.21 49.7694 1294.73 51.8354 Q1291.24 53.9013 1291.24 58.8839 Q1291.24 62.8538 1293.83 65.2034 Q1296.47 67.5124 1300.96 67.5124 Q1307.16 67.5124 1310.89 63.1374 Q1314.66 58.7219 1314.66 51.4303 L1314.66 49.7694 L1307.24 49.7694 M1322.11 46.6907 L1322.11 72.576 L1314.66 72.576 L1314.66 65.6895 Q1312.1 69.8214 1308.3 71.8063 Q1304.49 73.7508 1298.98 73.7508 Q1292.01 73.7508 1287.88 69.8619 Q1283.79 65.9325 1283.79 59.3701 Q1283.79 51.7138 1288.89 47.825 Q1294.04 43.9361 1304.21 43.9361 L1314.66 43.9361 L1314.66 43.2069 Q1314.66 38.0623 1311.25 35.2672 Q1307.89 32.4315 1301.77 32.4315 Q1297.89 32.4315 1294.2 33.3632 Q1290.51 34.295 1287.11 36.1584 L1287.11 29.2718 Q1291.2 27.692 1295.05 26.9223 Q1298.9 26.1121 1302.54 26.1121 Q1312.39 26.1121 1317.25 31.2163 Q1322.11 36.3204 1322.11 46.6907 Z" fill="#000000" fill-rule="nonzero" fill-opacity="1" /><path clip-path="url(#clip540)" d="M1344.84 14.324 L1344.84 27.2059 L1360.19 27.2059 L1360.19 32.9987 L1344.84 32.9987 L1344.84 57.6282 Q1344.84 63.1779 1346.33 64.7578 Q1347.87 66.3376 1352.53 66.3376 L1360.19 66.3376 L1360.19 72.576 L1352.53 72.576 Q1343.9 72.576 1340.62 69.3758 Q1337.34 66.1351 1337.34 57.6282 L1337.34 32.9987 L1331.87 32.9987 L1331.87 27.2059 L1337.34 27.2059 L1337.34 14.324 L1344.84 14.324 Z" fill="#000000" fill-rule="nonzero" fill-opacity="1" /><path clip-path="url(#clip540)" d="M1408.8 48.0275 L1408.8 51.6733 L1374.53 51.6733 Q1375.01 59.3701 1379.15 63.421 Q1383.32 67.4314 1390.73 67.4314 Q1395.03 67.4314 1399.04 66.3781 Q1403.09 65.3249 1407.06 63.2184 L1407.06 70.267 Q1403.05 71.9684 1398.83 72.8596 Q1394.62 73.7508 1390.29 73.7508 Q1379.43 73.7508 1373.07 67.4314 Q1366.75 61.1119 1366.75 50.3365 Q1366.75 39.1965 1372.75 32.6746 Q1378.78 26.1121 1388.99 26.1121 Q1398.15 26.1121 1403.45 32.0264 Q1408.8 37.9003 1408.8 48.0275 M1401.35 45.84 Q1401.26 39.7232 1397.9 36.0774 Q1394.58 32.4315 1389.07 32.4315 Q1382.83 32.4315 1379.07 35.9558 Q1375.34 39.4801 1374.77 45.8805 L1401.35 45.84 Z" fill="#000000" fill-rule="nonzero" fill-opacity="1" /><path clip-path="url(#clip540)" d="M1436.95 72.576 L1413.86 12.096 L1422.41 12.096 L1441.57 63.0159 L1460.77 12.096 L1469.28 12.096 L1446.23 72.576 L1436.95 72.576 Z" fill="#000000" fill-rule="nonzero" fill-opacity="1" /><path clip-path="url(#clip540)" d="M1510.15 48.0275 L1510.15 51.6733 L1475.88 51.6733 Q1476.37 59.3701 1480.5 63.421 Q1484.67 67.4314 1492.09 67.4314 Q1496.38 67.4314 1500.39 66.3781 Q1504.44 65.3249 1508.41 63.2184 L1508.41 70.267 Q1504.4 71.9684 1500.19 72.8596 Q1495.97 73.7508 1491.64 73.7508 Q1480.78 73.7508 1474.42 67.4314 Q1468.1 61.1119 1468.1 50.3365 Q1468.1 39.1965 1474.1 32.6746 Q1480.14 26.1121 1490.34 26.1121 Q1499.5 26.1121 1504.81 32.0264 Q1510.15 37.9003 1510.15 48.0275 M1502.7 45.84 Q1502.62 39.7232 1499.26 36.0774 Q1495.93 32.4315 1490.43 32.4315 Q1484.19 32.4315 1480.42 35.9558 Q1476.69 39.4801 1476.13 45.8805 L1502.7 45.84 Z" fill="#000000" fill-rule="nonzero" fill-opacity="1" /><path clip-path="url(#clip540)" d="M1555.04 28.9478 L1555.04 35.9153 Q1551.88 34.1734 1548.68 33.3227 Q1545.52 32.4315 1542.28 32.4315 Q1535.03 32.4315 1531.02 37.0496 Q1527 41.6271 1527 49.9314 Q1527 58.2358 1531.02 62.8538 Q1535.03 67.4314 1542.28 67.4314 Q1545.52 67.4314 1548.68 66.5807 Q1551.88 65.6895 1555.04 63.9476 L1555.04 70.8341 Q1551.92 72.2924 1548.56 73.0216 Q1545.23 73.7508 1541.47 73.7508 Q1531.22 73.7508 1525.18 67.3098 Q1519.15 60.8689 1519.15 49.9314 Q1519.15 38.832 1525.22 32.472 Q1531.34 26.1121 1541.95 26.1121 Q1545.4 26.1121 1548.68 26.8413 Q1551.96 27.5299 1555.04 28.9478 Z" fill="#000000" fill-rule="nonzero" fill-opacity="1" /><path clip-path="url(#clip540)" d="M1575.37 14.324 L1575.37 27.2059 L1590.73 27.2059 L1590.73 32.9987 L1575.37 32.9987 L1575.37 57.6282 Q1575.37 63.1779 1576.87 64.7578 Q1578.41 66.3376 1583.07 66.3376 L1590.73 66.3376 L1590.73 72.576 L1583.07 72.576 Q1574.44 72.576 1571.16 69.3758 Q1567.88 66.1351 1567.88 57.6282 L1567.88 32.9987 L1562.41 32.9987 L1562.41 27.2059 L1567.88 27.2059 L1567.88 14.324 L1575.37 14.324 Z" fill="#000000" fill-rule="nonzero" fill-opacity="1" /><path clip-path="url(#clip540)" d="M1618.11 32.4315 Q1612.11 32.4315 1608.63 37.1306 Q1605.15 41.7891 1605.15 49.9314 Q1605.15 58.0738 1608.59 62.7728 Q1612.07 67.4314 1618.11 67.4314 Q1624.06 67.4314 1627.55 62.7323 Q1631.03 58.0333 1631.03 49.9314 Q1631.03 41.8701 1627.55 37.1711 Q1624.06 32.4315 1618.11 32.4315 M1618.11 26.1121 Q1627.83 26.1121 1633.38 32.4315 Q1638.93 38.7509 1638.93 49.9314 Q1638.93 61.0714 1633.38 67.4314 Q1627.83 73.7508 1618.11 73.7508 Q1608.35 73.7508 1602.8 67.4314 Q1597.29 61.0714 1597.29 49.9314 Q1597.29 38.7509 1602.8 32.4315 Q1608.35 26.1121 1618.11 26.1121 Z" fill="#000000" fill-rule="nonzero" fill-opacity="1" /><path clip-path="url(#clip540)" d="M1677.58 34.1734 Q1676.32 33.4443 1674.82 33.1202 Q1673.36 32.7556 1671.58 32.7556 Q1665.26 32.7556 1661.86 36.8875 Q1658.5 40.9789 1658.5 48.6757 L1658.5 72.576 L1651 72.576 L1651 27.2059 L1658.5 27.2059 L1658.5 34.2544 Q1660.85 30.1225 1664.61 28.1376 Q1668.38 26.1121 1673.77 26.1121 Q1674.54 26.1121 1675.47 26.2337 Q1676.4 26.3147 1677.54 26.5172 L1677.58 34.1734 Z" fill="#000000" fill-rule="nonzero" fill-opacity="1" /><path clip-path="url(#clip540)" d="M1730.32 17.4837 Q1724 17.4837 1720.8 23.7221 Q1717.64 29.92 1717.64 42.3968 Q1717.64 54.833 1720.8 61.0714 Q1724 67.2693 1730.32 67.2693 Q1736.68 67.2693 1739.84 61.0714 Q1743.04 54.833 1743.04 42.3968 Q1743.04 29.92 1739.84 23.7221 Q1736.68 17.4837 1730.32 17.4837 M1730.32 11.0023 Q1740.49 11.0023 1745.83 19.0636 Q1751.22 27.0843 1751.22 42.3968 Q1751.22 57.6687 1745.83 65.73 Q1740.49 73.7508 1730.32 73.7508 Q1720.15 73.7508 1714.76 65.73 Q1709.42 57.6687 1709.42 42.3968 Q1709.42 27.0843 1714.76 19.0636 Q1720.15 11.0023 1730.32 11.0023 Z" fill="#000000" fill-rule="nonzero" fill-opacity="1" /><path clip-path="url(#clip540)" d="M1765.6 62.2867 L1774.15 62.2867 L1774.15 72.576 L1765.6 72.576 L1765.6 62.2867 Z" fill="#000000" fill-rule="nonzero" fill-opacity="1" /><path clip-path="url(#clip540)" d="M1793.39 65.6895 L1806.76 65.6895 L1806.76 19.5497 L1792.22 22.4663 L1792.22 15.0127 L1806.68 12.096 L1814.86 12.096 L1814.86 65.6895 L1828.23 65.6895 L1828.23 72.576 L1793.39 72.576 L1793.39 65.6895 Z" fill="#000000" fill-rule="nonzero" fill-opacity="1" /><path clip-path="url(#clip540)" d="M1862.26 43.8551 Q1856.42 43.8551 1853.06 46.9743 Q1849.74 50.0935 1849.74 55.5622 Q1849.74 61.0309 1853.06 64.1501 Q1856.42 67.2693 1862.26 67.2693 Q1868.09 67.2693 1871.45 64.1501 Q1874.82 60.9904 1874.82 55.5622 Q1874.82 50.0935 1871.45 46.9743 Q1868.13 43.8551 1862.26 43.8551 M1854.07 40.3713 Q1848.81 39.075 1845.85 35.4697 Q1842.93 31.8644 1842.93 26.6793 Q1842.93 19.4281 1848.08 15.2152 Q1853.26 11.0023 1862.26 11.0023 Q1871.29 11.0023 1876.44 15.2152 Q1881.58 19.4281 1881.58 26.6793 Q1881.58 31.8644 1878.62 35.4697 Q1875.71 39.075 1870.48 40.3713 Q1876.4 41.7486 1879.68 45.759 Q1883 49.7694 1883 55.5622 Q1883 64.3527 1877.61 69.0517 Q1872.26 73.7508 1862.26 73.7508 Q1852.25 73.7508 1846.86 69.0517 Q1841.52 64.3527 1841.52 55.5622 Q1841.52 49.7694 1844.84 45.759 Q1848.16 41.7486 1854.07 40.3713 M1851.08 27.4489 Q1851.08 32.148 1853.99 34.7811 Q1856.95 37.4142 1862.26 37.4142 Q1867.52 37.4142 1870.48 34.7811 Q1873.48 32.148 1873.48 27.4489 Q1873.48 22.7499 1870.48 20.1168 Q1867.52 17.4837 1862.26 17.4837 Q1856.95 17.4837 1853.99 20.1168 Q1851.08 22.7499 1851.08 27.4489 Z" fill="#000000" fill-rule="nonzero" fill-opacity="1" /><path clip-path="url(#clip540)" d="M1897.54 62.2867 L1906.09 62.2867 L1906.09 72.576 L1897.54 72.576 L1897.54 62.2867 Z" fill="#000000" fill-rule="nonzero" fill-opacity="1" /><path clip-path="url(#clip540)" d="M1925.33 65.6895 L1938.7 65.6895 L1938.7 19.5497 L1924.16 22.4663 L1924.16 15.0127 L1938.62 12.096 L1946.8 12.096 L1946.8 65.6895 L1960.17 65.6895 L1960.17 72.576 L1925.33 72.576 L1925.33 65.6895 Z" fill="#000000" fill-rule="nonzero" fill-opacity="1" /><path clip-path="url(#clip540)" d="M2024.98 9.54393 L2024.98 15.7418 L2017.85 15.7418 Q2013.84 15.7418 2012.26 17.3622 Q2010.72 18.9825 2010.72 23.1955 L2010.72 27.2059 L2023 27.2059 L2023 32.9987 L2010.72 32.9987 L2010.72 72.576 L2003.23 72.576 L2003.23 32.9987 L1996.1 32.9987 L1996.1 27.2059 L2003.23 27.2059 L2003.23 24.0462 Q2003.23 16.471 2006.75 13.0277 Q2010.28 9.54393 2017.93 9.54393 L2024.98 9.54393 Z" fill="#000000" fill-rule="nonzero" fill-opacity="1" /><path clip-path="url(#clip540)" d="M2031.22 27.2059 L2038.67 27.2059 L2038.67 72.576 L2031.22 72.576 L2031.22 27.2059 M2031.22 9.54393 L2038.67 9.54393 L2038.67 18.9825 L2031.22 18.9825 L2031.22 9.54393 Z" fill="#000000" fill-rule="nonzero" fill-opacity="1" /><path clip-path="url(#clip540)" d="M2084.13 34.0924 L2084.13 9.54393 L2091.58 9.54393 L2091.58 72.576 L2084.13 72.576 L2084.13 65.7705 Q2081.78 69.8214 2078.17 71.8063 Q2074.61 73.7508 2069.58 73.7508 Q2061.36 73.7508 2056.17 67.1883 Q2051.03 60.6258 2051.03 49.9314 Q2051.03 39.2371 2056.17 32.6746 Q2061.36 26.1121 2069.58 26.1121 Q2074.61 26.1121 2078.17 28.0971 Q2081.78 30.0415 2084.13 34.0924 M2058.73 49.9314 Q2058.73 58.1548 2062.09 62.8538 Q2065.49 67.5124 2071.41 67.5124 Q2077.32 67.5124 2080.72 62.8538 Q2084.13 58.1548 2084.13 49.9314 Q2084.13 41.7081 2080.72 37.0496 Q2077.32 32.3505 2071.41 32.3505 Q2065.49 32.3505 2062.09 37.0496 Q2058.73 41.7081 2058.73 49.9314 Z" fill="#000000" fill-rule="nonzero" fill-opacity="1" /><path clip-path="url(#clip540)" d="M2145.74 48.0275 L2145.74 51.6733 L2111.47 51.6733 Q2111.96 59.3701 2116.09 63.421 Q2120.26 67.4314 2127.67 67.4314 Q2131.97 67.4314 2135.98 66.3781 Q2140.03 65.3249 2144 63.2184 L2144 70.267 Q2139.99 71.9684 2135.77 72.8596 Q2131.56 73.7508 2127.23 73.7508 Q2116.37 73.7508 2110.01 67.4314 Q2103.69 61.1119 2103.69 50.3365 Q2103.69 39.1965 2109.69 32.6746 Q2115.72 26.1121 2125.93 26.1121 Q2135.09 26.1121 2140.39 32.0264 Q2145.74 37.9003 2145.74 48.0275 M2138.29 45.84 Q2138.21 39.7232 2134.84 36.0774 Q2131.52 32.4315 2126.01 32.4315 Q2119.77 32.4315 2116.01 35.9558 Q2112.28 39.4801 2111.71 45.8805 L2138.29 45.84 Z" fill="#000000" fill-rule="nonzero" fill-opacity="1" /><path clip-path="url(#clip540)" d="M2157.97 9.54393 L2165.43 9.54393 L2165.43 72.576 L2157.97 72.576 L2157.97 9.54393 Z" fill="#000000" fill-rule="nonzero" fill-opacity="1" /><path clip-path="url(#clip540)" d="M2181.02 27.2059 L2188.48 27.2059 L2188.48 72.576 L2181.02 72.576 L2181.02 27.2059 M2181.02 9.54393 L2188.48 9.54393 L2188.48 18.9825 L2181.02 18.9825 L2181.02 9.54393 Z" fill="#000000" fill-rule="nonzero" fill-opacity="1" /><path clip-path="url(#clip540)" d="M2211.45 14.324 L2211.45 27.2059 L2226.8 27.2059 L2226.8 32.9987 L2211.45 32.9987 L2211.45 57.6282 Q2211.45 63.1779 2212.94 64.7578 Q2214.48 66.3376 2219.14 66.3376 L2226.8 66.3376 L2226.8 72.576 L2219.14 72.576 Q2210.51 72.576 2207.23 69.3758 Q2203.95 66.1351 2203.95 57.6282 L2203.95 32.9987 L2198.48 32.9987 L2198.48 27.2059 L2203.95 27.2059 L2203.95 14.324 L2211.45 14.324 Z" fill="#000000" fill-rule="nonzero" fill-opacity="1" /><path clip-path="url(#clip540)" d="M2255.48 76.7889 Q2252.32 84.8907 2249.32 87.3618 Q2246.32 89.8329 2241.3 89.8329 L2235.35 89.8329 L2235.35 83.5945 L2239.72 83.5945 Q2242.8 83.5945 2244.5 82.1361 Q2246.2 80.6778 2248.27 75.2496 L2249.61 71.8468 L2231.25 27.2059 L2239.15 27.2059 L2253.33 62.6918 L2267.51 27.2059 L2275.41 27.2059 L2255.48 76.7889 Z" fill="#000000" fill-rule="nonzero" fill-opacity="1" /><path clip-path="url(#clip540)" d="M2286.67 34.9026 L2338.6 34.9026 L2338.6 41.7081 L2286.67 41.7081 L2286.67 34.9026 M2286.67 51.4303 L2338.6 51.4303 L2338.6 58.3168 L2286.67 58.3168 L2286.67 51.4303 Z" fill="#000000" fill-rule="nonzero" fill-opacity="1" /><path clip-path="url(#clip540)" d="M2357.68 65.6895 L2371.05 65.6895 L2371.05 19.5497 L2356.51 22.4663 L2356.51 15.0127 L2370.97 12.096 L2379.15 12.096 L2379.15 65.6895 L2392.52 65.6895 L2392.52 72.576 L2357.68 72.576 L2357.68 65.6895 Z" fill="#000000" fill-rule="nonzero" fill-opacity="1" /><path clip-path="url(#clip540)" d="M2409.05 62.2867 L2417.6 62.2867 L2417.6 72.576 L2409.05 72.576 L2409.05 62.2867 Z" fill="#000000" fill-rule="nonzero" fill-opacity="1" /><path clip-path="url(#clip540)" d="M2452.92 17.4837 Q2446.6 17.4837 2443.4 23.7221 Q2440.24 29.92 2440.24 42.3968 Q2440.24 54.833 2443.4 61.0714 Q2446.6 67.2693 2452.92 67.2693 Q2459.28 67.2693 2462.44 61.0714 Q2465.64 54.833 2465.64 42.3968 Q2465.64 29.92 2462.44 23.7221 Q2459.28 17.4837 2452.92 17.4837 M2452.92 11.0023 Q2463.09 11.0023 2468.43 19.0636 Q2473.82 27.0843 2473.82 42.3968 Q2473.82 57.6687 2468.43 65.73 Q2463.09 73.7508 2452.92 73.7508 Q2442.75 73.7508 2437.36 65.73 Q2432.02 57.6687 2432.02 42.3968 Q2432.02 27.0843 2437.36 19.0636 Q2442.75 11.0023 2452.92 11.0023 Z" fill="#000000" fill-rule="nonzero" fill-opacity="1" /><path clip-path="url(#clip542)" d="M519.908 252.352 L519.908 1481.96 L1562.63 1481.96 L1562.63 252.352 L519.908 252.352 L519.908 252.352  Z" fill="#0c7e8f" fill-rule="evenodd" fill-opacity="1"/>
<polyline clip-path="url(#clip542)" style="stroke:#000000; stroke-linecap:round; stroke-linejoin:round; stroke-width:4; stroke-opacity:1; fill:none" points="519.908,252.352 519.908,1481.96 1562.63,1481.96 1562.63,252.352 519.908,252.352 "/>
<path clip-path="url(#clip542)" d="M1823.31 291.08 L1823.31 1481.96 L2866.03 1481.96 L2866.03 291.08 L1823.31 291.08 L1823.31 291.08  Z" fill="#0c7e8f" fill-rule="evenodd" fill-opacity="1"/>
<polyline clip-path="url(#clip542)" style="stroke:#000000; stroke-linecap:round; stroke-linejoin:round; stroke-width:4; stroke-opacity:1; fill:none" points="1823.31,291.08 1823.31,1481.96 2866.03,1481.96 2866.03,291.08 1823.31,291.08 "/>
<circle clip-path="url(#clip542)" style="fill:#009af9; stroke:none; fill-opacity:0" cx="1041.27" cy="252.352" r="2"/>
<circle clip-path="url(#clip542)" style="fill:#009af9; stroke:none; fill-opacity:0" cx="2344.67" cy="291.08" r="2"/>
</svg>
