<?xml version="1.0" encoding="utf-8"?>
<svg xmlns="http://www.w3.org/2000/svg" xmlns:xlink="http://www.w3.org/1999/xlink" width="800" height="450" viewBox="0 0 3200 1800">
<defs>
  <clipPath id="clip770">
    <rect x="0" y="0" width="3200" height="1800"/>
  </clipPath>
</defs>
<path clip-path="url(#clip770)" d="M0 1800 L3200 1800 L3200 0 L0 0  Z" fill="#ffffff" fill-rule="evenodd" fill-opacity="1"/>
<defs>
  <clipPath id="clip771">
    <rect x="376" y="255" width="2636" height="1209"/>
  </clipPath>
</defs>
<path clip-path="url(#clip770)" d="M376.433 1463.75 L3011.02 1463.75 L3011.02 255.754 L376.433 255.754  Z" fill="#ffffff" fill-rule="evenodd" fill-opacity="1"/>
<polyline clip-path="url(#clip771)" style="stroke:#000000; stroke-linecap:round; stroke-linejoin:round; stroke-width:2; stroke-opacity:0.1; fill:none" points="584.712,1463.75 584.712,255.754 "/>
<polyline clip-path="url(#clip771)" style="stroke:#000000; stroke-linecap:round; stroke-linejoin:round; stroke-width:2; stroke-opacity:0.1; fill:none" points="743.143,1463.75 743.143,255.754 "/>
<polyline clip-path="url(#clip771)" style="stroke:#000000; stroke-linecap:round; stroke-linejoin:round; stroke-width:2; stroke-opacity:0.1; fill:none" points="901.574,1463.75 901.574,255.754 "/>
<polyline clip-path="url(#clip771)" style="stroke:#000000; stroke-linecap:round; stroke-linejoin:round; stroke-width:2; stroke-opacity:0.1; fill:none" points="1060,1463.75 1060,255.754 "/>
<polyline clip-path="url(#clip771)" style="stroke:#000000; stroke-linecap:round; stroke-linejoin:round; stroke-width:2; stroke-opacity:0.1; fill:none" points="1218.44,1463.75 1218.44,255.754 "/>
<polyline clip-path="url(#clip771)" style="stroke:#000000; stroke-linecap:round; stroke-linejoin:round; stroke-width:2; stroke-opacity:0.1; fill:none" points="1376.87,1463.75 1376.87,255.754 "/>
<polyline clip-path="url(#clip771)" style="stroke:#000000; stroke-linecap:round; stroke-linejoin:round; stroke-width:2; stroke-opacity:0.1; fill:none" points="1535.3,1463.75 1535.3,255.754 "/>
<polyline clip-path="url(#clip771)" style="stroke:#000000; stroke-linecap:round; stroke-linejoin:round; stroke-width:2; stroke-opacity:0.1; fill:none" points="1693.73,1463.75 1693.73,255.754 "/>
<polyline clip-path="url(#clip771)" style="stroke:#000000; stroke-linecap:round; stroke-linejoin:round; stroke-width:2; stroke-opacity:0.1; fill:none" points="1852.16,1463.75 1852.16,255.754 "/>
<polyline clip-path="url(#clip771)" style="stroke:#000000; stroke-linecap:round; stroke-linejoin:round; stroke-width:2; stroke-opacity:0.1; fill:none" points="2010.59,1463.75 2010.59,255.754 "/>
<polyline clip-path="url(#clip771)" style="stroke:#000000; stroke-linecap:round; stroke-linejoin:round; stroke-width:2; stroke-opacity:0.1; fill:none" points="2169.02,1463.75 2169.02,255.754 "/>
<polyline clip-path="url(#clip771)" style="stroke:#000000; stroke-linecap:round; stroke-linejoin:round; stroke-width:2; stroke-opacity:0.1; fill:none" points="2327.45,1463.75 2327.45,255.754 "/>
<polyline clip-path="url(#clip771)" style="stroke:#000000; stroke-linecap:round; stroke-linejoin:round; stroke-width:2; stroke-opacity:0.1; fill:none" points="2485.88,1463.75 2485.88,255.754 "/>
<polyline clip-path="url(#clip771)" style="stroke:#000000; stroke-linecap:round; stroke-linejoin:round; stroke-width:2; stroke-opacity:0.1; fill:none" points="2644.31,1463.75 2644.31,255.754 "/>
<polyline clip-path="url(#clip771)" style="stroke:#000000; stroke-linecap:round; stroke-linejoin:round; stroke-width:2; stroke-opacity:0.1; fill:none" points="2802.74,1463.75 2802.74,255.754 "/>
<polyline clip-path="url(#clip771)" style="stroke:#000000; stroke-linecap:round; stroke-linejoin:round; stroke-width:2; stroke-opacity:0.1; fill:none" points="376.433,1463.75 3011.02,1463.75 "/>
<polyline clip-path="url(#clip771)" style="stroke:#000000; stroke-linecap:round; stroke-linejoin:round; stroke-width:2; stroke-opacity:0.1; fill:none" points="376.433,1246.49 3011.02,1246.49 "/>
<polyline clip-path="url(#clip771)" style="stroke:#000000; stroke-linecap:round; stroke-linejoin:round; stroke-width:2; stroke-opacity:0.1; fill:none" points="376.433,1029.22 3011.02,1029.22 "/>
<polyline clip-path="url(#clip771)" style="stroke:#000000; stroke-linecap:round; stroke-linejoin:round; stroke-width:2; stroke-opacity:0.1; fill:none" points="376.433,811.955 3011.02,811.955 "/>
<polyline clip-path="url(#clip771)" style="stroke:#000000; stroke-linecap:round; stroke-linejoin:round; stroke-width:2; stroke-opacity:0.1; fill:none" points="376.433,594.689 3011.02,594.689 "/>
<polyline clip-path="url(#clip771)" style="stroke:#000000; stroke-linecap:round; stroke-linejoin:round; stroke-width:2; stroke-opacity:0.1; fill:none" points="376.433,377.423 3011.02,377.423 "/>
<polyline clip-path="url(#clip770)" style="stroke:#000000; stroke-linecap:round; stroke-linejoin:round; stroke-width:4; stroke-opacity:1; fill:none" points="376.433,1463.75 3011.02,1463.75 "/>
<polyline clip-path="url(#clip770)" style="stroke:#000000; stroke-linecap:round; stroke-linejoin:round; stroke-width:4; stroke-opacity:1; fill:none" points="584.712,1463.75 584.712,1444.86 "/>
<polyline clip-path="url(#clip770)" style="stroke:#000000; stroke-linecap:round; stroke-linejoin:round; stroke-width:4; stroke-opacity:1; fill:none" points="743.143,1463.75 743.143,1444.86 "/>
<polyline clip-path="url(#clip770)" style="stroke:#000000; stroke-linecap:round; stroke-linejoin:round; stroke-width:4; stroke-opacity:1; fill:none" points="901.574,1463.75 901.574,1444.86 "/>
<polyline clip-path="url(#clip770)" style="stroke:#000000; stroke-linecap:round; stroke-linejoin:round; stroke-width:4; stroke-opacity:1; fill:none" points="1060,1463.75 1060,1444.86 "/>
<polyline clip-path="url(#clip770)" style="stroke:#000000; stroke-linecap:round; stroke-linejoin:round; stroke-width:4; stroke-opacity:1; fill:none" points="1218.44,1463.75 1218.44,1444.86 "/>
<polyline clip-path="url(#clip770)" style="stroke:#000000; stroke-linecap:round; stroke-linejoin:round; stroke-width:4; stroke-opacity:1; fill:none" points="1376.87,1463.75 1376.87,1444.86 "/>
<polyline clip-path="url(#clip770)" style="stroke:#000000; stroke-linecap:round; stroke-linejoin:round; stroke-width:4; stroke-opacity:1; fill:none" points="1535.3,1463.75 1535.3,1444.86 "/>
<polyline clip-path="url(#clip770)" style="stroke:#000000; stroke-linecap:round; stroke-linejoin:round; stroke-width:4; stroke-opacity:1; fill:none" points="1693.73,1463.75 1693.73,1444.86 "/>
<polyline clip-path="url(#clip770)" style="stroke:#000000; stroke-linecap:round; stroke-linejoin:round; stroke-width:4; stroke-opacity:1; fill:none" points="1852.16,1463.75 1852.16,1444.86 "/>
<polyline clip-path="url(#clip770)" style="stroke:#000000; stroke-linecap:round; stroke-linejoin:round; stroke-width:4; stroke-opacity:1; fill:none" points="2010.59,1463.75 2010.59,1444.86 "/>
<polyline clip-path="url(#clip770)" style="stroke:#000000; stroke-linecap:round; stroke-linejoin:round; stroke-width:4; stroke-opacity:1; fill:none" points="2169.02,1463.75 2169.02,1444.86 "/>
<polyline clip-path="url(#clip770)" style="stroke:#000000; stroke-linecap:round; stroke-linejoin:round; stroke-width:4; stroke-opacity:1; fill:none" points="2327.45,1463.75 2327.45,1444.86 "/>
<polyline clip-path="url(#clip770)" style="stroke:#000000; stroke-linecap:round; stroke-linejoin:round; stroke-width:4; stroke-opacity:1; fill:none" points="2485.88,1463.75 2485.88,1444.86 "/>
<polyline clip-path="url(#clip770)" style="stroke:#000000; stroke-linecap:round; stroke-linejoin:round; stroke-width:4; stroke-opacity:1; fill:none" points="2644.31,1463.75 2644.31,1444.86 "/>
<polyline clip-path="url(#clip770)" style="stroke:#000000; stroke-linecap:round; stroke-linejoin:round; stroke-width:4; stroke-opacity:1; fill:none" points="2802.74,1463.75 2802.74,1444.86 "/>
<path clip-path="url(#clip770)" d="M598.057 1629.91 L598.057 1622.27 L571.691 1622.27 L573.358 1630.58 L569.099 1630.58 L567.432 1622.32 L567.432 1617.64 L598.057 1617.64 L598.057 1610 L601.992 1610 L601.992 1629.91 L598.057 1629.91 Z" fill="#000000" fill-rule="nonzero" fill-opacity="1" /><path clip-path="url(#clip770)" d="M598.057 1599.75 L598.057 1592.11 L571.691 1592.11 L573.358 1600.42 L569.099 1600.42 L567.432 1592.15 L567.432 1587.48 L598.057 1587.48 L598.057 1579.84 L601.992 1579.84 L601.992 1599.75 L598.057 1599.75 Z" fill="#000000" fill-rule="nonzero" fill-opacity="1" /><path clip-path="url(#clip770)" d="M598.057 1569.58 L598.057 1561.95 L571.691 1561.95 L573.358 1570.26 L569.099 1570.26 L567.432 1561.99 L567.432 1557.32 L598.057 1557.32 L598.057 1549.68 L601.992 1549.68 L601.992 1569.58 L598.057 1569.58 Z" fill="#000000" fill-rule="nonzero" fill-opacity="1" /><path clip-path="url(#clip770)" d="M598.057 1539.42 L598.057 1531.78 L571.691 1531.78 L573.358 1540.09 L569.099 1540.09 L567.432 1531.83 L567.432 1527.15 L598.057 1527.15 L598.057 1519.51 L601.992 1519.51 L601.992 1539.42 L598.057 1539.42 Z" fill="#000000" fill-rule="nonzero" fill-opacity="1" /><path clip-path="url(#clip770)" d="M598.057 1509.26 L598.057 1501.62 L571.691 1501.62 L573.358 1509.93 L569.099 1509.93 L567.432 1501.67 L567.432 1496.99 L598.057 1496.99 L598.057 1489.35 L601.992 1489.35 L601.992 1509.26 L598.057 1509.26 Z" fill="#000000" fill-rule="nonzero" fill-opacity="1" /><path clip-path="url(#clip770)" d="M728.942 1621.94 Q728.942 1625.56 732.507 1627.38 Q736.048 1629.19 743.178 1629.19 Q750.284 1629.19 753.849 1627.38 Q757.391 1625.56 757.391 1621.94 Q757.391 1618.31 753.849 1616.51 Q750.284 1614.68 743.178 1614.68 Q736.048 1614.68 732.507 1616.51 Q728.942 1618.31 728.942 1621.94 M725.238 1621.94 Q725.238 1616.13 729.845 1613.08 Q734.428 1610 743.178 1610 Q751.905 1610 756.511 1613.08 Q761.094 1616.13 761.094 1621.94 Q761.094 1627.75 756.511 1630.83 Q751.905 1633.89 743.178 1633.89 Q734.428 1633.89 729.845 1630.83 Q725.238 1627.75 725.238 1621.94 Z" fill="#000000" fill-rule="nonzero" fill-opacity="1" /><path clip-path="url(#clip770)" d="M728.942 1591.78 Q728.942 1595.39 732.507 1597.22 Q736.048 1599.03 743.178 1599.03 Q750.284 1599.03 753.849 1597.22 Q757.391 1595.39 757.391 1591.78 Q757.391 1588.15 753.849 1586.34 Q750.284 1584.51 743.178 1584.51 Q736.048 1584.51 732.507 1586.34 Q728.942 1588.15 728.942 1591.78 M725.238 1591.78 Q725.238 1585.97 729.845 1582.92 Q734.428 1579.84 743.178 1579.84 Q751.905 1579.84 756.511 1582.92 Q761.094 1585.97 761.094 1591.78 Q761.094 1597.59 756.511 1600.67 Q751.905 1603.73 743.178 1603.73 Q734.428 1603.73 729.845 1600.67 Q725.238 1597.59 725.238 1591.78 Z" fill="#000000" fill-rule="nonzero" fill-opacity="1" /><path clip-path="url(#clip770)" d="M728.942 1561.62 Q728.942 1565.23 732.507 1567.06 Q736.048 1568.87 743.178 1568.87 Q750.284 1568.87 753.849 1567.06 Q757.391 1565.23 757.391 1561.62 Q757.391 1557.99 753.849 1556.18 Q750.284 1554.35 743.178 1554.35 Q736.048 1554.35 732.507 1556.18 Q728.942 1557.99 728.942 1561.62 M725.238 1561.62 Q725.238 1555.81 729.845 1552.76 Q734.428 1549.68 743.178 1549.68 Q751.905 1549.68 756.511 1552.76 Q761.094 1555.81 761.094 1561.62 Q761.094 1567.43 756.511 1570.51 Q751.905 1573.57 743.178 1573.57 Q734.428 1573.57 729.845 1570.51 Q725.238 1567.43 725.238 1561.62 Z" fill="#000000" fill-rule="nonzero" fill-opacity="1" /><path clip-path="url(#clip770)" d="M728.942 1531.46 Q728.942 1535.07 732.507 1536.9 Q736.048 1538.7 743.178 1538.7 Q750.284 1538.7 753.849 1536.9 Q757.391 1535.07 757.391 1531.46 Q757.391 1527.82 753.849 1526.02 Q750.284 1524.19 743.178 1524.19 Q736.048 1524.19 732.507 1526.02 Q728.942 1527.82 728.942 1531.46 M725.238 1531.46 Q725.238 1525.65 729.845 1522.59 Q734.428 1519.51 743.178 1519.51 Q751.905 1519.51 756.511 1522.59 Q761.094 1525.65 761.094 1531.46 Q761.094 1537.27 756.511 1540.35 Q751.905 1543.4 743.178 1543.4 Q734.428 1543.4 729.845 1540.35 Q725.238 1537.27 725.238 1531.46 Z" fill="#000000" fill-rule="nonzero" fill-opacity="1" /><path clip-path="url(#clip770)" d="M728.942 1501.3 Q728.942 1504.91 732.507 1506.74 Q736.048 1508.54 743.178 1508.54 Q750.284 1508.54 753.849 1506.74 Q757.391 1504.91 757.391 1501.3 Q757.391 1497.66 753.849 1495.86 Q750.284 1494.03 743.178 1494.03 Q736.048 1494.03 732.507 1495.86 Q728.942 1497.66 728.942 1501.3 M725.238 1501.3 Q725.238 1495.49 729.845 1492.43 Q734.428 1489.35 743.178 1489.35 Q751.905 1489.35 756.511 1492.43 Q761.094 1495.49 761.094 1501.3 Q761.094 1507.11 756.511 1510.19 Q751.905 1513.24 743.178 1513.24 Q734.428 1513.24 729.845 1510.19 Q725.238 1507.11 725.238 1501.3 Z" fill="#000000" fill-rule="nonzero" fill-opacity="1" /><path clip-path="url(#clip770)" d="M914.919 1629.91 L914.919 1622.27 L888.553 1622.27 L890.22 1630.58 L885.961 1630.58 L884.294 1622.32 L884.294 1617.64 L914.919 1617.64 L914.919 1610 L918.854 1610 L918.854 1629.91 L914.919 1629.91 Z" fill="#000000" fill-rule="nonzero" fill-opacity="1" /><path clip-path="url(#clip770)" d="M887.373 1590.56 Q887.373 1594.17 890.937 1596 Q894.479 1597.8 901.609 1597.8 Q908.715 1597.8 912.28 1596 Q915.822 1594.17 915.822 1590.56 Q915.822 1586.92 912.28 1585.12 Q908.715 1583.29 901.609 1583.29 Q894.479 1583.29 890.937 1585.12 Q887.373 1586.92 887.373 1590.56 M883.669 1590.56 Q883.669 1584.75 888.275 1581.69 Q892.859 1578.61 901.609 1578.61 Q910.335 1578.61 914.942 1581.69 Q919.525 1584.75 919.525 1590.56 Q919.525 1596.37 914.942 1599.44 Q910.335 1602.5 901.609 1602.5 Q892.859 1602.5 888.275 1599.44 Q883.669 1596.37 883.669 1590.56 Z" fill="#000000" fill-rule="nonzero" fill-opacity="1" /><path clip-path="url(#clip770)" d="M914.919 1569.58 L914.919 1561.95 L888.553 1561.95 L890.22 1570.26 L885.961 1570.26 L884.294 1561.99 L884.294 1557.32 L914.919 1557.32 L914.919 1549.68 L918.854 1549.68 L918.854 1569.58 L914.919 1569.58 Z" fill="#000000" fill-rule="nonzero" fill-opacity="1" /><path clip-path="url(#clip770)" d="M914.919 1539.42 L914.919 1531.78 L888.553 1531.78 L890.22 1540.09 L885.961 1540.09 L884.294 1531.83 L884.294 1527.15 L914.919 1527.15 L914.919 1519.51 L918.854 1519.51 L918.854 1539.42 L914.919 1539.42 Z" fill="#000000" fill-rule="nonzero" fill-opacity="1" /><path clip-path="url(#clip770)" d="M914.919 1509.26 L914.919 1501.62 L888.553 1501.62 L890.22 1509.93 L885.961 1509.93 L884.294 1501.67 L884.294 1496.99 L914.919 1496.99 L914.919 1489.35 L918.854 1489.35 L918.854 1509.26 L914.919 1509.26 Z" fill="#000000" fill-rule="nonzero" fill-opacity="1" /><path clip-path="url(#clip770)" d="M1045.8 1621.94 Q1045.8 1625.56 1049.37 1627.38 Q1052.91 1629.19 1060.04 1629.19 Q1067.15 1629.19 1070.71 1627.38 Q1074.25 1625.56 1074.25 1621.94 Q1074.25 1618.31 1070.71 1616.51 Q1067.15 1614.68 1060.04 1614.68 Q1052.91 1614.68 1049.37 1616.51 Q1045.8 1618.31 1045.8 1621.94 M1042.1 1621.94 Q1042.1 1616.13 1046.71 1613.08 Q1051.29 1610 1060.04 1610 Q1068.77 1610 1073.37 1613.08 Q1077.96 1616.13 1077.96 1621.94 Q1077.96 1627.75 1073.37 1630.83 Q1068.77 1633.89 1060.04 1633.89 Q1051.29 1633.89 1046.71 1630.83 Q1042.1 1627.75 1042.1 1621.94 Z" fill="#000000" fill-rule="nonzero" fill-opacity="1" /><path clip-path="url(#clip770)" d="M1073.35 1600.97 L1073.35 1593.33 L1046.98 1593.33 L1048.65 1601.64 L1044.39 1601.64 L1042.72 1593.38 L1042.72 1588.7 L1073.35 1588.7 L1073.35 1581.07 L1077.28 1581.07 L1077.28 1600.97 L1073.35 1600.97 Z" fill="#000000" fill-rule="nonzero" fill-opacity="1" /><path clip-path="url(#clip770)" d="M1045.8 1561.62 Q1045.8 1565.23 1049.37 1567.06 Q1052.91 1568.87 1060.04 1568.87 Q1067.15 1568.87 1070.71 1567.06 Q1074.25 1565.23 1074.25 1561.62 Q1074.25 1557.99 1070.71 1556.18 Q1067.15 1554.35 1060.04 1554.35 Q1052.91 1554.35 1049.37 1556.18 Q1045.8 1557.99 1045.8 1561.62 M1042.1 1561.62 Q1042.1 1555.81 1046.71 1552.76 Q1051.29 1549.68 1060.04 1549.68 Q1068.77 1549.68 1073.37 1552.76 Q1077.96 1555.81 1077.96 1561.62 Q1077.96 1567.43 1073.37 1570.51 Q1068.77 1573.57 1060.04 1573.57 Q1051.29 1573.57 1046.71 1570.51 Q1042.1 1567.43 1042.1 1561.62 Z" fill="#000000" fill-rule="nonzero" fill-opacity="1" /><path clip-path="url(#clip770)" d="M1045.8 1531.46 Q1045.8 1535.07 1049.37 1536.9 Q1052.91 1538.7 1060.04 1538.7 Q1067.15 1538.7 1070.71 1536.9 Q1074.25 1535.07 1074.25 1531.46 Q1074.25 1527.82 1070.71 1526.02 Q1067.15 1524.19 1060.04 1524.19 Q1052.91 1524.19 1049.37 1526.02 Q1045.8 1527.82 1045.8 1531.46 M1042.1 1531.46 Q1042.1 1525.65 1046.71 1522.59 Q1051.29 1519.51 1060.04 1519.51 Q1068.77 1519.51 1073.37 1522.59 Q1077.96 1525.65 1077.96 1531.46 Q1077.96 1537.27 1073.37 1540.35 Q1068.77 1543.4 1060.04 1543.4 Q1051.29 1543.4 1046.71 1540.35 Q1042.1 1537.27 1042.1 1531.46 Z" fill="#000000" fill-rule="nonzero" fill-opacity="1" /><path clip-path="url(#clip770)" d="M1045.8 1501.3 Q1045.8 1504.91 1049.37 1506.74 Q1052.91 1508.54 1060.04 1508.54 Q1067.15 1508.54 1070.71 1506.74 Q1074.25 1504.91 1074.25 1501.3 Q1074.25 1497.66 1070.71 1495.86 Q1067.15 1494.03 1060.04 1494.03 Q1052.91 1494.03 1049.37 1495.86 Q1045.8 1497.66 1045.8 1501.3 M1042.1 1501.3 Q1042.1 1495.49 1046.71 1492.43 Q1051.29 1489.35 1060.04 1489.35 Q1068.77 1489.35 1073.37 1492.43 Q1077.96 1495.49 1077.96 1501.3 Q1077.96 1507.11 1073.37 1510.19 Q1068.77 1513.24 1060.04 1513.24 Q1051.29 1513.24 1046.71 1510.19 Q1042.1 1507.11 1042.1 1501.3 Z" fill="#000000" fill-rule="nonzero" fill-opacity="1" /><path clip-path="url(#clip770)" d="M1231.78 1629.91 L1231.78 1622.27 L1205.41 1622.27 L1207.08 1630.58 L1202.82 1630.58 L1201.16 1622.32 L1201.16 1617.64 L1231.78 1617.64 L1231.78 1610 L1235.72 1610 L1235.72 1629.91 L1231.78 1629.91 Z" fill="#000000" fill-rule="nonzero" fill-opacity="1" /><path clip-path="url(#clip770)" d="M1231.78 1599.75 L1231.78 1592.11 L1205.41 1592.11 L1207.08 1600.42 L1202.82 1600.42 L1201.16 1592.15 L1201.16 1587.48 L1231.78 1587.48 L1231.78 1579.84 L1235.72 1579.84 L1235.72 1599.75 L1231.78 1599.75 Z" fill="#000000" fill-rule="nonzero" fill-opacity="1" /><path clip-path="url(#clip770)" d="M1204.23 1560.39 Q1204.23 1564.01 1207.8 1565.83 Q1211.34 1567.64 1218.47 1567.64 Q1225.58 1567.64 1229.14 1565.83 Q1232.68 1564.01 1232.68 1560.39 Q1232.68 1556.76 1229.14 1554.95 Q1225.58 1553.13 1218.47 1553.13 Q1211.34 1553.13 1207.8 1554.95 Q1204.23 1556.76 1204.23 1560.39 M1200.53 1560.39 Q1200.53 1554.58 1205.14 1551.53 Q1209.72 1548.45 1218.47 1548.45 Q1227.2 1548.45 1231.8 1551.53 Q1236.39 1554.58 1236.39 1560.39 Q1236.39 1566.2 1231.8 1569.28 Q1227.2 1572.34 1218.47 1572.34 Q1209.72 1572.34 1205.14 1569.28 Q1200.53 1566.2 1200.53 1560.39 Z" fill="#000000" fill-rule="nonzero" fill-opacity="1" /><path clip-path="url(#clip770)" d="M1231.78 1539.42 L1231.78 1531.78 L1205.41 1531.78 L1207.08 1540.09 L1202.82 1540.09 L1201.16 1531.83 L1201.16 1527.15 L1231.78 1527.15 L1231.78 1519.51 L1235.72 1519.51 L1235.72 1539.42 L1231.78 1539.42 Z" fill="#000000" fill-rule="nonzero" fill-opacity="1" /><path clip-path="url(#clip770)" d="M1231.78 1509.26 L1231.78 1501.62 L1205.41 1501.62 L1207.08 1509.93 L1202.82 1509.93 L1201.16 1501.67 L1201.16 1496.99 L1231.78 1496.99 L1231.78 1489.35 L1235.72 1489.35 L1235.72 1509.26 L1231.78 1509.26 Z" fill="#000000" fill-rule="nonzero" fill-opacity="1" /><path clip-path="url(#clip770)" d="M1362.67 1621.94 Q1362.67 1625.56 1366.23 1627.38 Q1369.77 1629.19 1376.9 1629.19 Q1384.01 1629.19 1387.57 1627.38 Q1391.11 1625.56 1391.11 1621.94 Q1391.11 1618.31 1387.57 1616.51 Q1384.01 1614.68 1376.9 1614.68 Q1369.77 1614.68 1366.23 1616.51 Q1362.67 1618.31 1362.67 1621.94 M1358.96 1621.94 Q1358.96 1616.13 1363.57 1613.08 Q1368.15 1610 1376.9 1610 Q1385.63 1610 1390.23 1613.08 Q1394.82 1616.13 1394.82 1621.94 Q1394.82 1627.75 1390.23 1630.83 Q1385.63 1633.89 1376.9 1633.89 Q1368.15 1633.89 1363.57 1630.83 Q1358.96 1627.75 1358.96 1621.94 Z" fill="#000000" fill-rule="nonzero" fill-opacity="1" /><path clip-path="url(#clip770)" d="M1362.67 1591.78 Q1362.67 1595.39 1366.23 1597.22 Q1369.77 1599.03 1376.9 1599.03 Q1384.01 1599.03 1387.57 1597.22 Q1391.11 1595.39 1391.11 1591.78 Q1391.11 1588.15 1387.57 1586.34 Q1384.01 1584.51 1376.9 1584.51 Q1369.77 1584.51 1366.23 1586.34 Q1362.67 1588.15 1362.67 1591.78 M1358.96 1591.78 Q1358.96 1585.97 1363.57 1582.92 Q1368.15 1579.84 1376.9 1579.84 Q1385.63 1579.84 1390.23 1582.92 Q1394.82 1585.97 1394.82 1591.78 Q1394.82 1597.59 1390.23 1600.67 Q1385.63 1603.73 1376.9 1603.73 Q1368.15 1603.73 1363.57 1600.67 Q1358.96 1597.59 1358.96 1591.78 Z" fill="#000000" fill-rule="nonzero" fill-opacity="1" /><path clip-path="url(#clip770)" d="M1362.67 1561.62 Q1362.67 1565.23 1366.23 1567.06 Q1369.77 1568.87 1376.9 1568.87 Q1384.01 1568.87 1387.57 1567.06 Q1391.11 1565.23 1391.11 1561.62 Q1391.11 1557.99 1387.57 1556.18 Q1384.01 1554.35 1376.9 1554.35 Q1369.77 1554.35 1366.23 1556.18 Q1362.67 1557.99 1362.67 1561.62 M1358.96 1561.62 Q1358.96 1555.81 1363.57 1552.76 Q1368.15 1549.68 1376.9 1549.68 Q1385.63 1549.68 1390.23 1552.76 Q1394.82 1555.81 1394.82 1561.62 Q1394.82 1567.43 1390.23 1570.51 Q1385.63 1573.57 1376.9 1573.57 Q1368.15 1573.57 1363.57 1570.51 Q1358.96 1567.43 1358.96 1561.62 Z" fill="#000000" fill-rule="nonzero" fill-opacity="1" /><path clip-path="url(#clip770)" d="M1390.21 1540.65 L1390.21 1533.01 L1363.85 1533.01 L1365.51 1541.32 L1361.25 1541.32 L1359.59 1533.06 L1359.59 1528.38 L1390.21 1528.38 L1390.21 1520.74 L1394.15 1520.74 L1394.15 1540.65 L1390.21 1540.65 Z" fill="#000000" fill-rule="nonzero" fill-opacity="1" /><path clip-path="url(#clip770)" d="M1362.67 1501.3 Q1362.67 1504.91 1366.23 1506.74 Q1369.77 1508.54 1376.9 1508.54 Q1384.01 1508.54 1387.57 1506.74 Q1391.11 1504.91 1391.11 1501.3 Q1391.11 1497.66 1387.57 1495.86 Q1384.01 1494.03 1376.9 1494.03 Q1369.77 1494.03 1366.23 1495.86 Q1362.67 1497.66 1362.67 1501.3 M1358.96 1501.3 Q1358.96 1495.49 1363.57 1492.43 Q1368.15 1489.35 1376.9 1489.35 Q1385.63 1489.35 1390.23 1492.43 Q1394.82 1495.49 1394.82 1501.3 Q1394.82 1507.11 1390.23 1510.19 Q1385.63 1513.24 1376.9 1513.24 Q1368.15 1513.24 1363.57 1510.19 Q1358.96 1507.11 1358.96 1501.3 Z" fill="#000000" fill-rule="nonzero" fill-opacity="1" /><path clip-path="url(#clip770)" d="M1521.1 1621.94 Q1521.1 1625.56 1524.66 1627.38 Q1528.2 1629.19 1535.33 1629.19 Q1542.44 1629.19 1546 1627.38 Q1549.54 1625.56 1549.54 1621.94 Q1549.54 1618.31 1546 1616.51 Q1542.44 1614.68 1535.33 1614.68 Q1528.2 1614.68 1524.66 1616.51 Q1521.1 1618.31 1521.1 1621.94 M1517.39 1621.94 Q1517.39 1616.13 1522 1613.08 Q1526.58 1610 1535.33 1610 Q1544.06 1610 1548.67 1613.08 Q1553.25 1616.13 1553.25 1621.94 Q1553.25 1627.75 1548.67 1630.83 Q1544.06 1633.89 1535.33 1633.89 Q1526.58 1633.89 1522 1630.83 Q1517.39 1627.75 1517.39 1621.94 Z" fill="#000000" fill-rule="nonzero" fill-opacity="1" /><path clip-path="url(#clip770)" d="M1521.1 1591.78 Q1521.1 1595.39 1524.66 1597.22 Q1528.2 1599.03 1535.33 1599.03 Q1542.44 1599.03 1546 1597.22 Q1549.54 1595.39 1549.54 1591.78 Q1549.54 1588.15 1546 1586.34 Q1542.44 1584.51 1535.33 1584.51 Q1528.2 1584.51 1524.66 1586.34 Q1521.1 1588.15 1521.1 1591.78 M1517.39 1591.78 Q1517.39 1585.97 1522 1582.92 Q1526.58 1579.84 1535.33 1579.84 Q1544.06 1579.84 1548.67 1582.92 Q1553.25 1585.97 1553.25 1591.78 Q1553.25 1597.59 1548.67 1600.67 Q1544.06 1603.73 1535.33 1603.73 Q1526.58 1603.73 1522 1600.67 Q1517.39 1597.59 1517.39 1591.78 Z" fill="#000000" fill-rule="nonzero" fill-opacity="1" /><path clip-path="url(#clip770)" d="M1548.64 1570.81 L1548.64 1563.17 L1522.28 1563.17 L1523.94 1571.48 L1519.68 1571.48 L1518.02 1563.22 L1518.02 1558.54 L1548.64 1558.54 L1548.64 1550.9 L1552.58 1550.9 L1552.58 1570.81 L1548.64 1570.81 Z" fill="#000000" fill-rule="nonzero" fill-opacity="1" /><path clip-path="url(#clip770)" d="M1521.1 1531.46 Q1521.1 1535.07 1524.66 1536.9 Q1528.2 1538.7 1535.33 1538.7 Q1542.44 1538.7 1546 1536.9 Q1549.54 1535.07 1549.54 1531.46 Q1549.54 1527.82 1546 1526.02 Q1542.44 1524.19 1535.33 1524.19 Q1528.2 1524.19 1524.66 1526.02 Q1521.1 1527.82 1521.1 1531.46 M1517.39 1531.46 Q1517.39 1525.65 1522 1522.59 Q1526.58 1519.51 1535.33 1519.51 Q1544.06 1519.51 1548.67 1522.59 Q1553.25 1525.65 1553.25 1531.46 Q1553.25 1537.27 1548.67 1540.35 Q1544.06 1543.4 1535.33 1543.4 Q1526.58 1543.4 1522 1540.35 Q1517.39 1537.27 1517.39 1531.46 Z" fill="#000000" fill-rule="nonzero" fill-opacity="1" /><path clip-path="url(#clip770)" d="M1521.1 1501.3 Q1521.1 1504.91 1524.66 1506.74 Q1528.2 1508.54 1535.33 1508.54 Q1542.44 1508.54 1546 1506.74 Q1549.54 1504.91 1549.54 1501.3 Q1549.54 1497.66 1546 1495.86 Q1542.44 1494.03 1535.33 1494.03 Q1528.2 1494.03 1524.66 1495.86 Q1521.1 1497.66 1521.1 1501.3 M1517.39 1501.3 Q1517.39 1495.49 1522 1492.43 Q1526.58 1489.35 1535.33 1489.35 Q1544.06 1489.35 1548.67 1492.43 Q1553.25 1495.49 1553.25 1501.3 Q1553.25 1507.11 1548.67 1510.19 Q1544.06 1513.24 1535.33 1513.24 Q1526.58 1513.24 1522 1510.19 Q1517.39 1507.11 1517.39 1501.3 Z" fill="#000000" fill-rule="nonzero" fill-opacity="1" /><path clip-path="url(#clip770)" d="M1707.07 1631.13 L1707.07 1623.5 L1680.71 1623.5 L1682.37 1631.81 L1678.11 1631.81 L1676.45 1623.54 L1676.45 1618.87 L1707.07 1618.87 L1707.07 1611.23 L1711.01 1611.23 L1711.01 1631.13 L1707.07 1631.13 Z" fill="#000000" fill-rule="nonzero" fill-opacity="1" /><path clip-path="url(#clip770)" d="M1707.07 1600.97 L1707.07 1593.33 L1680.71 1593.33 L1682.37 1601.64 L1678.11 1601.64 L1676.45 1593.38 L1676.45 1588.7 L1707.07 1588.7 L1707.07 1581.07 L1711.01 1581.07 L1711.01 1600.97 L1707.07 1600.97 Z" fill="#000000" fill-rule="nonzero" fill-opacity="1" /><path clip-path="url(#clip770)" d="M1707.07 1570.81 L1707.07 1563.17 L1680.71 1563.17 L1682.37 1571.48 L1678.11 1571.48 L1676.45 1563.22 L1676.45 1558.54 L1707.07 1558.54 L1707.07 1550.9 L1711.01 1550.9 L1711.01 1570.81 L1707.07 1570.81 Z" fill="#000000" fill-rule="nonzero" fill-opacity="1" /><path clip-path="url(#clip770)" d="M1707.07 1540.65 L1707.07 1533.01 L1680.71 1533.01 L1682.37 1541.32 L1678.11 1541.32 L1676.45 1533.06 L1676.45 1528.38 L1707.07 1528.38 L1707.07 1520.74 L1711.01 1520.74 L1711.01 1540.65 L1707.07 1540.65 Z" fill="#000000" fill-rule="nonzero" fill-opacity="1" /><path clip-path="url(#clip770)" d="M1679.53 1501.3 Q1679.53 1504.91 1683.09 1506.74 Q1686.63 1508.54 1693.76 1508.54 Q1700.87 1508.54 1704.43 1506.74 Q1707.98 1504.91 1707.98 1501.3 Q1707.98 1497.66 1704.43 1495.86 Q1700.87 1494.03 1693.76 1494.03 Q1686.63 1494.03 1683.09 1495.86 Q1679.53 1497.66 1679.53 1501.3 M1675.82 1501.3 Q1675.82 1495.49 1680.43 1492.43 Q1685.01 1489.35 1693.76 1489.35 Q1702.49 1489.35 1707.1 1492.43 Q1711.68 1495.49 1711.68 1501.3 Q1711.68 1507.11 1707.1 1510.19 Q1702.49 1513.24 1693.76 1513.24 Q1685.01 1513.24 1680.43 1510.19 Q1675.82 1507.11 1675.82 1501.3 Z" fill="#000000" fill-rule="nonzero" fill-opacity="1" /><path clip-path="url(#clip770)" d="M1865.5 1631.13 L1865.5 1623.5 L1839.14 1623.5 L1840.8 1631.81 L1836.55 1631.81 L1834.88 1623.54 L1834.88 1618.87 L1865.5 1618.87 L1865.5 1611.23 L1869.44 1611.23 L1869.44 1631.13 L1865.5 1631.13 Z" fill="#000000" fill-rule="nonzero" fill-opacity="1" /><path clip-path="url(#clip770)" d="M1837.96 1591.78 Q1837.96 1595.39 1841.52 1597.22 Q1845.06 1599.03 1852.19 1599.03 Q1859.3 1599.03 1862.86 1597.22 Q1866.41 1595.39 1866.41 1591.78 Q1866.41 1588.15 1862.86 1586.34 Q1859.3 1584.51 1852.19 1584.51 Q1845.06 1584.51 1841.52 1586.34 Q1837.96 1588.15 1837.96 1591.78 M1834.25 1591.78 Q1834.25 1585.97 1838.86 1582.92 Q1843.44 1579.84 1852.19 1579.84 Q1860.92 1579.84 1865.53 1582.92 Q1870.11 1585.97 1870.11 1591.78 Q1870.11 1597.59 1865.53 1600.67 Q1860.92 1603.73 1852.19 1603.73 Q1843.44 1603.73 1838.86 1600.67 Q1834.25 1597.59 1834.25 1591.78 Z" fill="#000000" fill-rule="nonzero" fill-opacity="1" /><path clip-path="url(#clip770)" d="M1837.96 1561.62 Q1837.96 1565.23 1841.52 1567.06 Q1845.06 1568.87 1852.19 1568.87 Q1859.3 1568.87 1862.86 1567.06 Q1866.41 1565.23 1866.41 1561.62 Q1866.41 1557.99 1862.86 1556.18 Q1859.3 1554.35 1852.19 1554.35 Q1845.06 1554.35 1841.52 1556.18 Q1837.96 1557.99 1837.96 1561.62 M1834.25 1561.62 Q1834.25 1555.81 1838.86 1552.76 Q1843.44 1549.68 1852.19 1549.68 Q1860.92 1549.68 1865.53 1552.76 Q1870.11 1555.81 1870.11 1561.62 Q1870.11 1567.43 1865.53 1570.51 Q1860.92 1573.57 1852.19 1573.57 Q1843.44 1573.57 1838.86 1570.51 Q1834.25 1567.43 1834.25 1561.62 Z" fill="#000000" fill-rule="nonzero" fill-opacity="1" /><path clip-path="url(#clip770)" d="M1837.96 1531.46 Q1837.96 1535.07 1841.52 1536.9 Q1845.06 1538.7 1852.19 1538.7 Q1859.3 1538.7 1862.86 1536.9 Q1866.41 1535.07 1866.41 1531.46 Q1866.41 1527.82 1862.86 1526.02 Q1859.3 1524.19 1852.19 1524.19 Q1845.06 1524.19 1841.52 1526.02 Q1837.96 1527.82 1837.96 1531.46 M1834.25 1531.46 Q1834.25 1525.65 1838.86 1522.59 Q1843.44 1519.51 1852.19 1519.51 Q1860.92 1519.51 1865.53 1522.59 Q1870.11 1525.65 1870.11 1531.46 Q1870.11 1537.27 1865.53 1540.35 Q1860.92 1543.4 1852.19 1543.4 Q1843.44 1543.4 1838.86 1540.35 Q1834.25 1537.27 1834.25 1531.46 Z" fill="#000000" fill-rule="nonzero" fill-opacity="1" /><path clip-path="url(#clip770)" d="M1837.96 1501.3 Q1837.96 1504.91 1841.52 1506.74 Q1845.06 1508.54 1852.19 1508.54 Q1859.3 1508.54 1862.86 1506.74 Q1866.41 1504.91 1866.41 1501.3 Q1866.41 1497.66 1862.86 1495.86 Q1859.3 1494.03 1852.19 1494.03 Q1845.06 1494.03 1841.52 1495.86 Q1837.96 1497.66 1837.96 1501.3 M1834.25 1501.3 Q1834.25 1495.49 1838.86 1492.43 Q1843.44 1489.35 1852.19 1489.35 Q1860.92 1489.35 1865.53 1492.43 Q1870.11 1495.49 1870.11 1501.3 Q1870.11 1507.11 1865.53 1510.19 Q1860.92 1513.24 1852.19 1513.24 Q1843.44 1513.24 1838.86 1510.19 Q1834.25 1507.11 1834.25 1501.3 Z" fill="#000000" fill-rule="nonzero" fill-opacity="1" /><path clip-path="url(#clip770)" d="M1996.39 1621.94 Q1996.39 1625.56 1999.95 1627.38 Q2003.49 1629.19 2010.62 1629.19 Q2017.73 1629.19 2021.3 1627.38 Q2024.84 1625.56 2024.84 1621.94 Q2024.84 1618.31 2021.3 1616.51 Q2017.73 1614.68 2010.62 1614.68 Q2003.49 1614.68 1999.95 1616.51 Q1996.39 1618.31 1996.39 1621.94 M1992.68 1621.94 Q1992.68 1616.13 1997.29 1613.08 Q2001.87 1610 2010.62 1610 Q2019.35 1610 2023.96 1613.08 Q2028.54 1616.13 2028.54 1621.94 Q2028.54 1627.75 2023.96 1630.83 Q2019.35 1633.89 2010.62 1633.89 Q2001.87 1633.89 1997.29 1630.83 Q1992.68 1627.75 1992.68 1621.94 Z" fill="#000000" fill-rule="nonzero" fill-opacity="1" /><path clip-path="url(#clip770)" d="M2023.93 1600.97 L2023.93 1593.33 L1997.57 1593.33 L1999.24 1601.64 L1994.98 1601.64 L1993.31 1593.38 L1993.31 1588.7 L2023.93 1588.7 L2023.93 1581.07 L2027.87 1581.07 L2027.87 1600.97 L2023.93 1600.97 Z" fill="#000000" fill-rule="nonzero" fill-opacity="1" /><path clip-path="url(#clip770)" d="M2023.93 1570.81 L2023.93 1563.17 L1997.57 1563.17 L1999.24 1571.48 L1994.98 1571.48 L1993.31 1563.22 L1993.31 1558.54 L2023.93 1558.54 L2023.93 1550.9 L2027.87 1550.9 L2027.87 1570.81 L2023.93 1570.81 Z" fill="#000000" fill-rule="nonzero" fill-opacity="1" /><path clip-path="url(#clip770)" d="M2023.93 1540.65 L2023.93 1533.01 L1997.57 1533.01 L1999.24 1541.32 L1994.98 1541.32 L1993.31 1533.06 L1993.31 1528.38 L2023.93 1528.38 L2023.93 1520.74 L2027.87 1520.74 L2027.87 1540.65 L2023.93 1540.65 Z" fill="#000000" fill-rule="nonzero" fill-opacity="1" /><path clip-path="url(#clip770)" d="M1996.39 1501.3 Q1996.39 1504.91 1999.95 1506.74 Q2003.49 1508.54 2010.62 1508.54 Q2017.73 1508.54 2021.3 1506.74 Q2024.84 1504.91 2024.84 1501.3 Q2024.84 1497.66 2021.3 1495.86 Q2017.73 1494.03 2010.62 1494.03 Q2003.49 1494.03 1999.95 1495.86 Q1996.39 1497.66 1996.39 1501.3 M1992.68 1501.3 Q1992.68 1495.49 1997.29 1492.43 Q2001.87 1489.35 2010.62 1489.35 Q2019.35 1489.35 2023.96 1492.43 Q2028.54 1495.49 2028.54 1501.3 Q2028.54 1507.11 2023.96 1510.19 Q2019.35 1513.24 2010.62 1513.24 Q2001.87 1513.24 1997.29 1510.19 Q1992.68 1507.11 1992.68 1501.3 Z" fill="#000000" fill-rule="nonzero" fill-opacity="1" /><path clip-path="url(#clip770)" d="M2182.37 1629.91 L2182.37 1622.27 L2156 1622.27 L2157.67 1630.58 L2153.41 1630.58 L2151.74 1622.32 L2151.74 1617.64 L2182.37 1617.64 L2182.37 1610 L2186.3 1610 L2186.3 1629.91 L2182.37 1629.91 Z" fill="#000000" fill-rule="nonzero" fill-opacity="1" /><path clip-path="url(#clip770)" d="M2154.82 1590.56 Q2154.82 1594.17 2158.38 1596 Q2161.93 1597.8 2169.06 1597.8 Q2176.16 1597.8 2179.73 1596 Q2183.27 1594.17 2183.27 1590.56 Q2183.27 1586.92 2179.73 1585.12 Q2176.16 1583.29 2169.06 1583.29 Q2161.93 1583.29 2158.38 1585.12 Q2154.82 1586.92 2154.82 1590.56 M2151.12 1590.56 Q2151.12 1584.75 2155.72 1581.69 Q2160.31 1578.61 2169.06 1578.61 Q2177.78 1578.61 2182.39 1581.69 Q2186.97 1584.75 2186.97 1590.56 Q2186.97 1596.37 2182.39 1599.44 Q2177.78 1602.5 2169.06 1602.5 Q2160.31 1602.5 2155.72 1599.44 Q2151.12 1596.37 2151.12 1590.56 Z" fill="#000000" fill-rule="nonzero" fill-opacity="1" /><path clip-path="url(#clip770)" d="M2154.82 1560.39 Q2154.82 1564.01 2158.38 1565.83 Q2161.93 1567.64 2169.06 1567.64 Q2176.16 1567.64 2179.73 1565.83 Q2183.27 1564.01 2183.27 1560.39 Q2183.27 1556.76 2179.73 1554.95 Q2176.16 1553.13 2169.06 1553.13 Q2161.93 1553.13 2158.38 1554.95 Q2154.82 1556.76 2154.82 1560.39 M2151.12 1560.39 Q2151.12 1554.58 2155.72 1551.53 Q2160.31 1548.45 2169.06 1548.45 Q2177.78 1548.45 2182.39 1551.53 Q2186.97 1554.58 2186.97 1560.39 Q2186.97 1566.2 2182.39 1569.28 Q2177.78 1572.34 2169.06 1572.34 Q2160.31 1572.34 2155.72 1569.28 Q2151.12 1566.2 2151.12 1560.39 Z" fill="#000000" fill-rule="nonzero" fill-opacity="1" /><path clip-path="url(#clip770)" d="M2154.82 1530.23 Q2154.82 1533.84 2158.38 1535.67 Q2161.93 1537.48 2169.06 1537.48 Q2176.16 1537.48 2179.73 1535.67 Q2183.27 1533.84 2183.27 1530.23 Q2183.27 1526.6 2179.73 1524.79 Q2176.16 1522.96 2169.06 1522.96 Q2161.93 1522.96 2158.38 1524.79 Q2154.82 1526.6 2154.82 1530.23 M2151.12 1530.23 Q2151.12 1524.42 2155.72 1521.37 Q2160.31 1518.29 2169.06 1518.29 Q2177.78 1518.29 2182.39 1521.37 Q2186.97 1524.42 2186.97 1530.23 Q2186.97 1536.04 2182.39 1539.12 Q2177.78 1542.18 2169.06 1542.18 Q2160.31 1542.18 2155.72 1539.12 Q2151.12 1536.04 2151.12 1530.23 Z" fill="#000000" fill-rule="nonzero" fill-opacity="1" /><path clip-path="url(#clip770)" d="M2182.37 1509.26 L2182.37 1501.62 L2156 1501.62 L2157.67 1509.93 L2153.41 1509.93 L2151.74 1501.67 L2151.74 1496.99 L2182.37 1496.99 L2182.37 1489.35 L2186.3 1489.35 L2186.3 1509.26 L2182.37 1509.26 Z" fill="#000000" fill-rule="nonzero" fill-opacity="1" /><path clip-path="url(#clip770)" d="M2340.8 1629.91 L2340.8 1622.27 L2314.43 1622.27 L2316.1 1630.58 L2311.84 1630.58 L2310.17 1622.32 L2310.17 1617.64 L2340.8 1617.64 L2340.8 1610 L2344.73 1610 L2344.73 1629.91 L2340.8 1629.91 Z" fill="#000000" fill-rule="nonzero" fill-opacity="1" /><path clip-path="url(#clip770)" d="M2340.8 1599.75 L2340.8 1592.11 L2314.43 1592.11 L2316.1 1600.42 L2311.84 1600.42 L2310.17 1592.15 L2310.17 1587.48 L2340.8 1587.48 L2340.8 1579.84 L2344.73 1579.84 L2344.73 1599.75 L2340.8 1599.75 Z" fill="#000000" fill-rule="nonzero" fill-opacity="1" /><path clip-path="url(#clip770)" d="M2340.8 1569.58 L2340.8 1561.95 L2314.43 1561.95 L2316.1 1570.26 L2311.84 1570.26 L2310.17 1561.99 L2310.17 1557.32 L2340.8 1557.32 L2340.8 1549.68 L2344.73 1549.68 L2344.73 1569.58 L2340.8 1569.58 Z" fill="#000000" fill-rule="nonzero" fill-opacity="1" /><path clip-path="url(#clip770)" d="M2313.25 1530.23 Q2313.25 1533.84 2316.82 1535.67 Q2320.36 1537.48 2327.49 1537.48 Q2334.59 1537.48 2338.16 1535.67 Q2341.7 1533.84 2341.7 1530.23 Q2341.7 1526.6 2338.16 1524.79 Q2334.59 1522.96 2327.49 1522.96 Q2320.36 1522.96 2316.82 1524.79 Q2313.25 1526.6 2313.25 1530.23 M2309.55 1530.23 Q2309.55 1524.42 2314.15 1521.37 Q2318.74 1518.29 2327.49 1518.29 Q2336.21 1518.29 2340.82 1521.37 Q2345.4 1524.42 2345.4 1530.23 Q2345.4 1536.04 2340.82 1539.12 Q2336.21 1542.18 2327.49 1542.18 Q2318.74 1542.18 2314.15 1539.12 Q2309.55 1536.04 2309.55 1530.23 Z" fill="#000000" fill-rule="nonzero" fill-opacity="1" /><path clip-path="url(#clip770)" d="M2340.8 1509.26 L2340.8 1501.62 L2314.43 1501.62 L2316.1 1509.93 L2311.84 1509.93 L2310.17 1501.67 L2310.17 1496.99 L2340.8 1496.99 L2340.8 1489.35 L2344.73 1489.35 L2344.73 1509.26 L2340.8 1509.26 Z" fill="#000000" fill-rule="nonzero" fill-opacity="1" /><path clip-path="url(#clip770)" d="M2471.68 1620.72 Q2471.68 1624.33 2475.25 1626.16 Q2478.79 1627.96 2485.92 1627.96 Q2493.02 1627.96 2496.59 1626.16 Q2500.13 1624.33 2500.13 1620.72 Q2500.13 1617.08 2496.59 1615.28 Q2493.02 1613.45 2485.92 1613.45 Q2478.79 1613.45 2475.25 1615.28 Q2471.68 1617.08 2471.68 1620.72 M2467.98 1620.72 Q2467.98 1614.91 2472.58 1611.85 Q2477.17 1608.77 2485.92 1608.77 Q2494.64 1608.77 2499.25 1611.85 Q2503.83 1614.91 2503.83 1620.72 Q2503.83 1626.53 2499.25 1629.61 Q2494.64 1632.66 2485.92 1632.66 Q2477.17 1632.66 2472.58 1629.61 Q2467.98 1626.53 2467.98 1620.72 Z" fill="#000000" fill-rule="nonzero" fill-opacity="1" /><path clip-path="url(#clip770)" d="M2471.68 1590.56 Q2471.68 1594.17 2475.25 1596 Q2478.79 1597.8 2485.92 1597.8 Q2493.02 1597.8 2496.59 1596 Q2500.13 1594.17 2500.13 1590.56 Q2500.13 1586.92 2496.59 1585.12 Q2493.02 1583.29 2485.92 1583.29 Q2478.79 1583.29 2475.25 1585.12 Q2471.68 1586.92 2471.68 1590.56 M2467.98 1590.56 Q2467.98 1584.75 2472.58 1581.69 Q2477.17 1578.61 2485.92 1578.61 Q2494.64 1578.61 2499.25 1581.69 Q2503.83 1584.75 2503.83 1590.56 Q2503.83 1596.37 2499.25 1599.44 Q2494.64 1602.5 2485.92 1602.5 Q2477.17 1602.5 2472.58 1599.44 Q2467.98 1596.37 2467.98 1590.56 Z" fill="#000000" fill-rule="nonzero" fill-opacity="1" /><path clip-path="url(#clip770)" d="M2471.68 1560.39 Q2471.68 1564.01 2475.25 1565.83 Q2478.79 1567.64 2485.92 1567.64 Q2493.02 1567.64 2496.59 1565.83 Q2500.13 1564.01 2500.13 1560.39 Q2500.13 1556.76 2496.59 1554.95 Q2493.02 1553.13 2485.92 1553.13 Q2478.79 1553.13 2475.25 1554.95 Q2471.68 1556.76 2471.68 1560.39 M2467.98 1560.39 Q2467.98 1554.58 2472.58 1551.53 Q2477.17 1548.45 2485.92 1548.45 Q2494.64 1548.45 2499.25 1551.53 Q2503.83 1554.58 2503.83 1560.39 Q2503.83 1566.2 2499.25 1569.28 Q2494.64 1572.34 2485.92 1572.34 Q2477.17 1572.34 2472.58 1569.28 Q2467.98 1566.2 2467.98 1560.39 Z" fill="#000000" fill-rule="nonzero" fill-opacity="1" /><path clip-path="url(#clip770)" d="M2471.68 1530.23 Q2471.68 1533.84 2475.25 1535.67 Q2478.79 1537.48 2485.92 1537.48 Q2493.02 1537.48 2496.59 1535.67 Q2500.13 1533.84 2500.13 1530.23 Q2500.13 1526.6 2496.59 1524.79 Q2493.02 1522.96 2485.92 1522.96 Q2478.79 1522.96 2475.25 1524.79 Q2471.68 1526.6 2471.68 1530.23 M2467.98 1530.23 Q2467.98 1524.42 2472.58 1521.37 Q2477.17 1518.29 2485.92 1518.29 Q2494.64 1518.29 2499.25 1521.37 Q2503.83 1524.42 2503.83 1530.23 Q2503.83 1536.04 2499.25 1539.12 Q2494.64 1542.18 2485.92 1542.18 Q2477.17 1542.18 2472.58 1539.12 Q2467.98 1536.04 2467.98 1530.23 Z" fill="#000000" fill-rule="nonzero" fill-opacity="1" /><path clip-path="url(#clip770)" d="M2499.23 1509.26 L2499.23 1501.62 L2472.86 1501.62 L2474.53 1509.93 L2470.27 1509.93 L2468.6 1501.67 L2468.6 1496.99 L2499.23 1496.99 L2499.23 1489.35 L2503.16 1489.35 L2503.16 1509.26 L2499.23 1509.26 Z" fill="#000000" fill-rule="nonzero" fill-opacity="1" /><path clip-path="url(#clip770)" d="M2657.66 1629.91 L2657.66 1622.27 L2631.29 1622.27 L2632.96 1630.58 L2628.7 1630.58 L2627.03 1622.32 L2627.03 1617.64 L2657.66 1617.64 L2657.66 1610 L2661.59 1610 L2661.59 1629.91 L2657.66 1629.91 Z" fill="#000000" fill-rule="nonzero" fill-opacity="1" /><path clip-path="url(#clip770)" d="M2630.11 1590.56 Q2630.11 1594.17 2633.68 1596 Q2637.22 1597.8 2644.35 1597.8 Q2651.45 1597.8 2655.02 1596 Q2658.56 1594.17 2658.56 1590.56 Q2658.56 1586.92 2655.02 1585.12 Q2651.45 1583.29 2644.35 1583.29 Q2637.22 1583.29 2633.68 1585.12 Q2630.11 1586.92 2630.11 1590.56 M2626.41 1590.56 Q2626.41 1584.75 2631.01 1581.69 Q2635.6 1578.61 2644.35 1578.61 Q2653.07 1578.61 2657.68 1581.69 Q2662.26 1584.75 2662.26 1590.56 Q2662.26 1596.37 2657.68 1599.44 Q2653.07 1602.5 2644.35 1602.5 Q2635.6 1602.5 2631.01 1599.44 Q2626.41 1596.37 2626.41 1590.56 Z" fill="#000000" fill-rule="nonzero" fill-opacity="1" /><path clip-path="url(#clip770)" d="M2630.11 1560.39 Q2630.11 1564.01 2633.68 1565.83 Q2637.22 1567.64 2644.35 1567.64 Q2651.45 1567.64 2655.02 1565.83 Q2658.56 1564.01 2658.56 1560.39 Q2658.56 1556.76 2655.02 1554.95 Q2651.45 1553.13 2644.35 1553.13 Q2637.22 1553.13 2633.68 1554.95 Q2630.11 1556.76 2630.11 1560.39 M2626.41 1560.39 Q2626.41 1554.58 2631.01 1551.53 Q2635.6 1548.45 2644.35 1548.45 Q2653.07 1548.45 2657.68 1551.53 Q2662.26 1554.58 2662.26 1560.39 Q2662.26 1566.2 2657.68 1569.28 Q2653.07 1572.34 2644.35 1572.34 Q2635.6 1572.34 2631.01 1569.28 Q2626.41 1566.2 2626.41 1560.39 Z" fill="#000000" fill-rule="nonzero" fill-opacity="1" /><path clip-path="url(#clip770)" d="M2657.66 1539.42 L2657.66 1531.78 L2631.29 1531.78 L2632.96 1540.09 L2628.7 1540.09 L2627.03 1531.83 L2627.03 1527.15 L2657.66 1527.15 L2657.66 1519.51 L2661.59 1519.51 L2661.59 1539.42 L2657.66 1539.42 Z" fill="#000000" fill-rule="nonzero" fill-opacity="1" /><path clip-path="url(#clip770)" d="M2657.66 1509.26 L2657.66 1501.62 L2631.29 1501.62 L2632.96 1509.93 L2628.7 1509.93 L2627.03 1501.67 L2627.03 1496.99 L2657.66 1496.99 L2657.66 1489.35 L2661.59 1489.35 L2661.59 1509.26 L2657.66 1509.26 Z" fill="#000000" fill-rule="nonzero" fill-opacity="1" /><path clip-path="url(#clip770)" d="M2788.54 1621.94 Q2788.54 1625.56 2792.11 1627.38 Q2795.65 1629.19 2802.78 1629.19 Q2809.89 1629.19 2813.45 1627.38 Q2816.99 1625.56 2816.99 1621.94 Q2816.99 1618.31 2813.45 1616.51 Q2809.89 1614.68 2802.78 1614.68 Q2795.65 1614.68 2792.11 1616.51 Q2788.54 1618.31 2788.54 1621.94 M2784.84 1621.94 Q2784.84 1616.13 2789.45 1613.08 Q2794.03 1610 2802.78 1610 Q2811.51 1610 2816.11 1613.08 Q2820.7 1616.13 2820.7 1621.94 Q2820.7 1627.75 2816.11 1630.83 Q2811.51 1633.89 2802.78 1633.89 Q2794.03 1633.89 2789.45 1630.83 Q2784.84 1627.75 2784.84 1621.94 Z" fill="#000000" fill-rule="nonzero" fill-opacity="1" /><path clip-path="url(#clip770)" d="M2816.09 1600.97 L2816.09 1593.33 L2789.72 1593.33 L2791.39 1601.64 L2787.13 1601.64 L2785.46 1593.38 L2785.46 1588.7 L2816.09 1588.7 L2816.09 1581.07 L2820.02 1581.07 L2820.02 1600.97 L2816.09 1600.97 Z" fill="#000000" fill-rule="nonzero" fill-opacity="1" /><path clip-path="url(#clip770)" d="M2816.09 1570.81 L2816.09 1563.17 L2789.72 1563.17 L2791.39 1571.48 L2787.13 1571.48 L2785.46 1563.22 L2785.46 1558.54 L2816.09 1558.54 L2816.09 1550.9 L2820.02 1550.9 L2820.02 1570.81 L2816.09 1570.81 Z" fill="#000000" fill-rule="nonzero" fill-opacity="1" /><path clip-path="url(#clip770)" d="M2788.54 1531.46 Q2788.54 1535.07 2792.11 1536.9 Q2795.65 1538.7 2802.78 1538.7 Q2809.89 1538.7 2813.45 1536.9 Q2816.99 1535.07 2816.99 1531.46 Q2816.99 1527.82 2813.45 1526.02 Q2809.89 1524.19 2802.78 1524.19 Q2795.65 1524.19 2792.11 1526.02 Q2788.54 1527.82 2788.54 1531.46 M2784.84 1531.46 Q2784.84 1525.65 2789.45 1522.59 Q2794.03 1519.51 2802.78 1519.51 Q2811.51 1519.51 2816.11 1522.59 Q2820.7 1525.65 2820.7 1531.46 Q2820.7 1537.27 2816.11 1540.35 Q2811.51 1543.4 2802.78 1543.4 Q2794.03 1543.4 2789.45 1540.35 Q2784.84 1537.27 2784.84 1531.46 Z" fill="#000000" fill-rule="nonzero" fill-opacity="1" /><path clip-path="url(#clip770)" d="M2788.54 1501.3 Q2788.54 1504.91 2792.11 1506.74 Q2795.65 1508.54 2802.78 1508.54 Q2809.89 1508.54 2813.45 1506.74 Q2816.99 1504.91 2816.99 1501.3 Q2816.99 1497.66 2813.45 1495.86 Q2809.89 1494.03 2802.78 1494.03 Q2795.65 1494.03 2792.11 1495.86 Q2788.54 1497.66 2788.54 1501.3 M2784.84 1501.3 Q2784.84 1495.49 2789.45 1492.43 Q2794.03 1489.35 2802.78 1489.35 Q2811.51 1489.35 2816.11 1492.43 Q2820.7 1495.49 2820.7 1501.3 Q2820.7 1507.11 2816.11 1510.19 Q2811.51 1513.24 2802.78 1513.24 Q2794.03 1513.24 2789.45 1510.19 Q2784.84 1507.11 2784.84 1501.3 Z" fill="#000000" fill-rule="nonzero" fill-opacity="1" /><path clip-path="url(#clip770)" d="M1568.56 1690.62 L1568.56 1708.03 L1578.87 1708.03 Q1584.06 1708.03 1586.55 1705.9 Q1589.06 1703.73 1589.06 1699.31 Q1589.06 1694.85 1586.55 1692.75 Q1584.06 1690.62 1578.87 1690.62 L1568.56 1690.62 M1568.56 1671.08 L1568.56 1685.4 L1578.08 1685.4 Q1582.79 1685.4 1585.08 1683.65 Q1587.4 1681.87 1587.4 1678.24 Q1587.4 1674.64 1585.08 1672.86 Q1582.79 1671.08 1578.08 1671.08 L1568.56 1671.08 M1562.13 1665.79 L1578.56 1665.79 Q1585.91 1665.79 1589.89 1668.85 Q1593.87 1671.9 1593.87 1677.54 Q1593.87 1681.9 1591.83 1684.48 Q1589.79 1687.05 1585.85 1687.69 Q1590.59 1688.71 1593.2 1691.96 Q1595.84 1695.17 1595.84 1700.01 Q1595.84 1706.37 1591.51 1709.84 Q1587.18 1713.31 1579.19 1713.31 L1562.13 1713.31 L1562.13 1665.79 Z" fill="#000000" fill-rule="nonzero" fill-opacity="1" /><path clip-path="url(#clip770)" d="M1606.6 1677.67 L1612.45 1677.67 L1612.45 1713.31 L1606.6 1713.31 L1606.6 1677.67 M1606.6 1663.79 L1612.45 1663.79 L1612.45 1671.2 L1606.6 1671.2 L1606.6 1663.79 Z" fill="#000000" fill-rule="nonzero" fill-opacity="1" /><path clip-path="url(#clip770)" d="M1630.5 1667.54 L1630.5 1677.67 L1642.56 1677.67 L1642.56 1682.22 L1630.5 1682.22 L1630.5 1701.57 Q1630.5 1705.93 1631.68 1707.17 Q1632.89 1708.41 1636.55 1708.41 L1642.56 1708.41 L1642.56 1713.31 L1636.55 1713.31 Q1629.77 1713.31 1627.19 1710.8 Q1624.61 1708.25 1624.61 1701.57 L1624.61 1682.22 L1620.32 1682.22 L1620.32 1677.67 L1624.61 1677.67 L1624.61 1667.54 L1630.5 1667.54 Z" fill="#000000" fill-rule="nonzero" fill-opacity="1" /><path clip-path="url(#clip770)" d="M1672.99 1678.72 L1672.99 1684.25 Q1670.51 1682.98 1667.84 1682.34 Q1665.16 1681.71 1662.3 1681.71 Q1657.94 1681.71 1655.74 1683.04 Q1653.58 1684.38 1653.58 1687.05 Q1653.58 1689.09 1655.14 1690.27 Q1656.7 1691.42 1661.41 1692.47 L1663.41 1692.91 Q1669.65 1694.25 1672.26 1696.7 Q1674.9 1699.12 1674.9 1703.48 Q1674.9 1708.44 1670.95 1711.34 Q1667.04 1714.24 1660.16 1714.24 Q1657.3 1714.24 1654.18 1713.66 Q1651.09 1713.12 1647.66 1712.01 L1647.66 1705.96 Q1650.9 1707.65 1654.05 1708.51 Q1657.2 1709.33 1660.29 1709.33 Q1664.43 1709.33 1666.66 1707.93 Q1668.89 1706.5 1668.89 1703.92 Q1668.89 1701.54 1667.26 1700.26 Q1665.67 1698.99 1660.23 1697.81 L1658.19 1697.34 Q1652.75 1696.19 1650.33 1693.83 Q1647.91 1691.45 1647.91 1687.31 Q1647.91 1682.28 1651.48 1679.54 Q1655.04 1676.81 1661.6 1676.81 Q1664.84 1676.81 1667.71 1677.28 Q1670.57 1677.76 1672.99 1678.72 Z" fill="#000000" fill-rule="nonzero" fill-opacity="1" /><path clip-path="url(#clip770)" d="M1690.02 1667.54 L1690.02 1677.67 L1702.08 1677.67 L1702.08 1682.22 L1690.02 1682.22 L1690.02 1701.57 Q1690.02 1705.93 1691.2 1707.17 Q1692.41 1708.41 1696.07 1708.41 L1702.08 1708.41 L1702.08 1713.31 L1696.07 1713.31 Q1689.29 1713.31 1686.71 1710.8 Q1684.13 1708.25 1684.13 1701.57 L1684.13 1682.22 L1679.84 1682.22 L1679.84 1677.67 L1684.13 1677.67 L1684.13 1667.54 L1690.02 1667.54 Z" fill="#000000" fill-rule="nonzero" fill-opacity="1" /><path clip-path="url(#clip770)" d="M1730.44 1683.14 Q1729.46 1682.57 1728.28 1682.31 Q1727.13 1682.03 1725.73 1682.03 Q1720.77 1682.03 1718.09 1685.27 Q1715.45 1688.49 1715.45 1694.53 L1715.45 1713.31 L1709.56 1713.31 L1709.56 1677.67 L1715.45 1677.67 L1715.45 1683.2 Q1717.3 1679.96 1720.26 1678.4 Q1723.22 1676.81 1727.45 1676.81 Q1728.06 1676.81 1728.79 1676.9 Q1729.52 1676.97 1730.41 1677.12 L1730.44 1683.14 Z" fill="#000000" fill-rule="nonzero" fill-opacity="1" /><path clip-path="url(#clip770)" d="M1736.59 1677.67 L1742.44 1677.67 L1742.44 1713.31 L1736.59 1713.31 L1736.59 1677.67 M1736.59 1663.79 L1742.44 1663.79 L1742.44 1671.2 L1736.59 1671.2 L1736.59 1663.79 Z" fill="#000000" fill-rule="nonzero" fill-opacity="1" /><path clip-path="url(#clip770)" d="M1784.33 1691.8 L1784.33 1713.31 L1778.47 1713.31 L1778.47 1691.99 Q1778.47 1686.93 1776.5 1684.41 Q1774.52 1681.9 1770.58 1681.9 Q1765.84 1681.9 1763.1 1684.92 Q1760.36 1687.95 1760.36 1693.17 L1760.36 1713.31 L1754.47 1713.31 L1754.47 1677.67 L1760.36 1677.67 L1760.36 1683.2 Q1762.46 1679.99 1765.29 1678.4 Q1768.16 1676.81 1771.88 1676.81 Q1778.03 1676.81 1781.18 1680.63 Q1784.33 1684.41 1784.33 1691.8 Z" fill="#000000" fill-rule="nonzero" fill-opacity="1" /><path clip-path="url(#clip770)" d="M1819.47 1695.08 Q1819.47 1688.71 1816.83 1685.21 Q1814.22 1681.71 1809.47 1681.71 Q1804.76 1681.71 1802.12 1685.21 Q1799.51 1688.71 1799.51 1695.08 Q1799.51 1701.41 1802.12 1704.91 Q1804.76 1708.41 1809.47 1708.41 Q1814.22 1708.41 1816.83 1704.91 Q1819.47 1701.41 1819.47 1695.08 M1825.32 1708.89 Q1825.32 1717.99 1821.28 1722.42 Q1817.24 1726.87 1808.9 1726.87 Q1805.81 1726.87 1803.08 1726.39 Q1800.34 1725.95 1797.76 1724.99 L1797.76 1719.3 Q1800.34 1720.7 1802.85 1721.37 Q1805.37 1722.03 1807.98 1722.03 Q1813.74 1722.03 1816.6 1719.01 Q1819.47 1716.02 1819.47 1709.94 L1819.47 1707.04 Q1817.65 1710.19 1814.82 1711.75 Q1811.99 1713.31 1808.04 1713.31 Q1801.48 1713.31 1797.47 1708.32 Q1793.46 1703.32 1793.46 1695.08 Q1793.46 1686.8 1797.47 1681.8 Q1801.48 1676.81 1808.04 1676.81 Q1811.99 1676.81 1814.82 1678.37 Q1817.65 1679.93 1819.47 1683.08 L1819.47 1677.67 L1825.32 1677.67 L1825.32 1708.89 Z" fill="#000000" fill-rule="nonzero" fill-opacity="1" /><polyline clip-path="url(#clip770)" style="stroke:#000000; stroke-linecap:round; stroke-linejoin:round; stroke-width:4; stroke-opacity:1; fill:none" points="376.433,1463.75 376.433,255.754 "/>
<polyline clip-path="url(#clip770)" style="stroke:#000000; stroke-linecap:round; stroke-linejoin:round; stroke-width:4; stroke-opacity:1; fill:none" points="376.433,1463.75 395.33,1463.75 "/>
<polyline clip-path="url(#clip770)" style="stroke:#000000; stroke-linecap:round; stroke-linejoin:round; stroke-width:4; stroke-opacity:1; fill:none" points="376.433,1246.49 395.33,1246.49 "/>
<polyline clip-path="url(#clip770)" style="stroke:#000000; stroke-linecap:round; stroke-linejoin:round; stroke-width:4; stroke-opacity:1; fill:none" points="376.433,1029.22 395.33,1029.22 "/>
<polyline clip-path="url(#clip770)" style="stroke:#000000; stroke-linecap:round; stroke-linejoin:round; stroke-width:4; stroke-opacity:1; fill:none" points="376.433,811.955 395.33,811.955 "/>
<polyline clip-path="url(#clip770)" style="stroke:#000000; stroke-linecap:round; stroke-linejoin:round; stroke-width:4; stroke-opacity:1; fill:none" points="376.433,594.689 395.33,594.689 "/>
<polyline clip-path="url(#clip770)" style="stroke:#000000; stroke-linecap:round; stroke-linejoin:round; stroke-width:4; stroke-opacity:1; fill:none" points="376.433,377.423 395.33,377.423 "/>
<path clip-path="url(#clip770)" d="M316.488 1449.55 Q312.877 1449.55 311.049 1453.12 Q309.243 1456.66 309.243 1463.79 Q309.243 1470.89 311.049 1474.46 Q312.877 1478 316.488 1478 Q320.123 1478 321.928 1474.46 Q323.757 1470.89 323.757 1463.79 Q323.757 1456.66 321.928 1453.12 Q320.123 1449.55 316.488 1449.55 M316.488 1445.85 Q322.299 1445.85 325.354 1450.45 Q328.433 1455.04 328.433 1463.79 Q328.433 1472.51 325.354 1477.12 Q322.299 1481.7 316.488 1481.7 Q310.678 1481.7 307.6 1477.12 Q304.544 1472.51 304.544 1463.79 Q304.544 1455.04 307.6 1450.45 Q310.678 1445.85 316.488 1445.85 Z" fill="#000000" fill-rule="nonzero" fill-opacity="1" /><path clip-path="url(#clip770)" d="M276.373 1229.21 L294.729 1229.21 L294.729 1233.14 L280.655 1233.14 L280.655 1241.61 Q281.674 1241.27 282.692 1241.11 Q283.711 1240.92 284.729 1240.92 Q290.516 1240.92 293.896 1244.09 Q297.275 1247.26 297.275 1252.68 Q297.275 1258.26 293.803 1261.36 Q290.331 1264.44 284.012 1264.44 Q281.836 1264.44 279.567 1264.07 Q277.322 1263.7 274.915 1262.96 L274.915 1258.26 Q276.998 1259.39 279.22 1259.95 Q281.442 1260.5 283.919 1260.5 Q287.924 1260.5 290.262 1258.4 Q292.6 1256.29 292.6 1252.68 Q292.6 1249.07 290.262 1246.96 Q287.924 1244.86 283.919 1244.86 Q282.044 1244.86 280.169 1245.27 Q278.317 1245.69 276.373 1246.57 L276.373 1229.21 Z" fill="#000000" fill-rule="nonzero" fill-opacity="1" /><path clip-path="url(#clip770)" d="M316.488 1232.29 Q312.877 1232.29 311.049 1235.85 Q309.243 1239.39 309.243 1246.52 Q309.243 1253.63 311.049 1257.19 Q312.877 1260.73 316.488 1260.73 Q320.123 1260.73 321.928 1257.19 Q323.757 1253.63 323.757 1246.52 Q323.757 1239.39 321.928 1235.85 Q320.123 1232.29 316.488 1232.29 M316.488 1228.58 Q322.299 1228.58 325.354 1233.19 Q328.433 1237.77 328.433 1246.52 Q328.433 1255.25 325.354 1259.86 Q322.299 1264.44 316.488 1264.44 Q310.678 1264.44 307.6 1259.86 Q304.544 1255.25 304.544 1246.52 Q304.544 1237.77 307.6 1233.19 Q310.678 1228.58 316.488 1228.58 Z" fill="#000000" fill-rule="nonzero" fill-opacity="1" /><path clip-path="url(#clip770)" d="M246.975 1042.57 L254.614 1042.57 L254.614 1016.2 L246.304 1017.87 L246.304 1013.61 L254.567 1011.94 L259.243 1011.94 L259.243 1042.57 L266.882 1042.57 L266.882 1046.5 L246.975 1046.5 L246.975 1042.57 Z" fill="#000000" fill-rule="nonzero" fill-opacity="1" /><path clip-path="url(#clip770)" d="M286.326 1015.02 Q282.715 1015.02 280.887 1018.58 Q279.081 1022.13 279.081 1029.26 Q279.081 1036.36 280.887 1039.93 Q282.715 1043.47 286.326 1043.47 Q289.961 1043.47 291.766 1039.93 Q293.595 1036.36 293.595 1029.26 Q293.595 1022.13 291.766 1018.58 Q289.961 1015.02 286.326 1015.02 M286.326 1011.32 Q292.137 1011.32 295.192 1015.92 Q298.271 1020.51 298.271 1029.26 Q298.271 1037.98 295.192 1042.59 Q292.137 1047.17 286.326 1047.17 Q280.516 1047.17 277.438 1042.59 Q274.382 1037.98 274.382 1029.26 Q274.382 1020.51 277.438 1015.92 Q280.516 1011.32 286.326 1011.32 Z" fill="#000000" fill-rule="nonzero" fill-opacity="1" /><path clip-path="url(#clip770)" d="M316.488 1015.02 Q312.877 1015.02 311.049 1018.58 Q309.243 1022.13 309.243 1029.26 Q309.243 1036.36 311.049 1039.93 Q312.877 1043.47 316.488 1043.47 Q320.123 1043.47 321.928 1039.93 Q323.757 1036.36 323.757 1029.26 Q323.757 1022.13 321.928 1018.58 Q320.123 1015.02 316.488 1015.02 M316.488 1011.32 Q322.299 1011.32 325.354 1015.92 Q328.433 1020.51 328.433 1029.26 Q328.433 1037.98 325.354 1042.59 Q322.299 1047.17 316.488 1047.17 Q310.678 1047.17 307.6 1042.59 Q304.544 1037.98 304.544 1029.26 Q304.544 1020.51 307.6 1015.92 Q310.678 1011.32 316.488 1011.32 Z" fill="#000000" fill-rule="nonzero" fill-opacity="1" /><path clip-path="url(#clip770)" d="M246.975 825.3 L254.614 825.3 L254.614 798.934 L246.304 800.601 L246.304 796.342 L254.567 794.675 L259.243 794.675 L259.243 825.3 L266.882 825.3 L266.882 829.235 L246.975 829.235 L246.975 825.3 Z" fill="#000000" fill-rule="nonzero" fill-opacity="1" /><path clip-path="url(#clip770)" d="M276.373 794.675 L294.729 794.675 L294.729 798.61 L280.655 798.61 L280.655 807.083 Q281.674 806.735 282.692 806.573 Q283.711 806.388 284.729 806.388 Q290.516 806.388 293.896 809.559 Q297.275 812.731 297.275 818.147 Q297.275 823.726 293.803 826.828 Q290.331 829.906 284.012 829.906 Q281.836 829.906 279.567 829.536 Q277.322 829.166 274.915 828.425 L274.915 823.726 Q276.998 824.86 279.22 825.416 Q281.442 825.971 283.919 825.971 Q287.924 825.971 290.262 823.865 Q292.6 821.758 292.6 818.147 Q292.6 814.536 290.262 812.43 Q287.924 810.323 283.919 810.323 Q282.044 810.323 280.169 810.74 Q278.317 811.157 276.373 812.036 L276.373 794.675 Z" fill="#000000" fill-rule="nonzero" fill-opacity="1" /><path clip-path="url(#clip770)" d="M316.488 797.754 Q312.877 797.754 311.049 801.319 Q309.243 804.86 309.243 811.99 Q309.243 819.096 311.049 822.661 Q312.877 826.203 316.488 826.203 Q320.123 826.203 321.928 822.661 Q323.757 819.096 323.757 811.99 Q323.757 804.86 321.928 801.319 Q320.123 797.754 316.488 797.754 M316.488 794.05 Q322.299 794.05 325.354 798.657 Q328.433 803.24 328.433 811.99 Q328.433 820.717 325.354 825.323 Q322.299 829.906 316.488 829.906 Q310.678 829.906 307.6 825.323 Q304.544 820.717 304.544 811.99 Q304.544 803.24 307.6 798.657 Q310.678 794.05 316.488 794.05 Z" fill="#000000" fill-rule="nonzero" fill-opacity="1" /><path clip-path="url(#clip770)" d="M250.192 608.034 L266.512 608.034 L266.512 611.969 L244.567 611.969 L244.567 608.034 Q247.229 605.279 251.813 600.65 Q256.419 595.997 257.6 594.655 Q259.845 592.131 260.725 590.395 Q261.628 588.636 261.628 586.946 Q261.628 584.192 259.683 582.456 Q257.762 580.719 254.66 580.719 Q252.461 580.719 250.007 581.483 Q247.577 582.247 244.799 583.798 L244.799 579.076 Q247.623 577.942 250.077 577.363 Q252.53 576.784 254.567 576.784 Q259.938 576.784 263.132 579.469 Q266.327 582.155 266.327 586.645 Q266.327 588.775 265.516 590.696 Q264.729 592.594 262.623 595.187 Q262.044 595.858 258.942 599.076 Q255.841 602.27 250.192 608.034 Z" fill="#000000" fill-rule="nonzero" fill-opacity="1" /><path clip-path="url(#clip770)" d="M286.326 580.488 Q282.715 580.488 280.887 584.053 Q279.081 587.594 279.081 594.724 Q279.081 601.83 280.887 605.395 Q282.715 608.937 286.326 608.937 Q289.961 608.937 291.766 605.395 Q293.595 601.83 293.595 594.724 Q293.595 587.594 291.766 584.053 Q289.961 580.488 286.326 580.488 M286.326 576.784 Q292.137 576.784 295.192 581.391 Q298.271 585.974 298.271 594.724 Q298.271 603.451 295.192 608.057 Q292.137 612.641 286.326 612.641 Q280.516 612.641 277.438 608.057 Q274.382 603.451 274.382 594.724 Q274.382 585.974 277.438 581.391 Q280.516 576.784 286.326 576.784 Z" fill="#000000" fill-rule="nonzero" fill-opacity="1" /><path clip-path="url(#clip770)" d="M316.488 580.488 Q312.877 580.488 311.049 584.053 Q309.243 587.594 309.243 594.724 Q309.243 601.83 311.049 605.395 Q312.877 608.937 316.488 608.937 Q320.123 608.937 321.928 605.395 Q323.757 601.83 323.757 594.724 Q323.757 587.594 321.928 584.053 Q320.123 580.488 316.488 580.488 M316.488 576.784 Q322.299 576.784 325.354 581.391 Q328.433 585.974 328.433 594.724 Q328.433 603.451 325.354 608.057 Q322.299 612.641 316.488 612.641 Q310.678 612.641 307.6 608.057 Q304.544 603.451 304.544 594.724 Q304.544 585.974 307.6 581.391 Q310.678 576.784 316.488 576.784 Z" fill="#000000" fill-rule="nonzero" fill-opacity="1" /><path clip-path="url(#clip770)" d="M250.192 390.768 L266.512 390.768 L266.512 394.703 L244.567 394.703 L244.567 390.768 Q247.229 388.014 251.813 383.384 Q256.419 378.731 257.6 377.389 Q259.845 374.865 260.725 373.129 Q261.628 371.37 261.628 369.68 Q261.628 366.926 259.683 365.19 Q257.762 363.453 254.66 363.453 Q252.461 363.453 250.007 364.217 Q247.577 364.981 244.799 366.532 L244.799 361.81 Q247.623 360.676 250.077 360.097 Q252.53 359.518 254.567 359.518 Q259.938 359.518 263.132 362.204 Q266.327 364.889 266.327 369.379 Q266.327 371.509 265.516 373.43 Q264.729 375.328 262.623 377.921 Q262.044 378.592 258.942 381.81 Q255.841 385.004 250.192 390.768 Z" fill="#000000" fill-rule="nonzero" fill-opacity="1" /><path clip-path="url(#clip770)" d="M276.373 360.143 L294.729 360.143 L294.729 364.078 L280.655 364.078 L280.655 372.551 Q281.674 372.203 282.692 372.041 Q283.711 371.856 284.729 371.856 Q290.516 371.856 293.896 375.028 Q297.275 378.199 297.275 383.615 Q297.275 389.194 293.803 392.296 Q290.331 395.375 284.012 395.375 Q281.836 395.375 279.567 395.004 Q277.322 394.634 274.915 393.893 L274.915 389.194 Q276.998 390.328 279.22 390.884 Q281.442 391.439 283.919 391.439 Q287.924 391.439 290.262 389.333 Q292.6 387.227 292.6 383.615 Q292.6 380.004 290.262 377.898 Q287.924 375.791 283.919 375.791 Q282.044 375.791 280.169 376.208 Q278.317 376.625 276.373 377.504 L276.373 360.143 Z" fill="#000000" fill-rule="nonzero" fill-opacity="1" /><path clip-path="url(#clip770)" d="M316.488 363.222 Q312.877 363.222 311.049 366.787 Q309.243 370.328 309.243 377.458 Q309.243 384.564 311.049 388.129 Q312.877 391.671 316.488 391.671 Q320.123 391.671 321.928 388.129 Q323.757 384.564 323.757 377.458 Q323.757 370.328 321.928 366.787 Q320.123 363.222 316.488 363.222 M316.488 359.518 Q322.299 359.518 325.354 364.125 Q328.433 368.708 328.433 377.458 Q328.433 386.185 325.354 390.791 Q322.299 395.375 316.488 395.375 Q310.678 395.375 307.6 390.791 Q304.544 386.185 304.544 377.458 Q304.544 368.708 307.6 364.125 Q310.678 359.518 316.488 359.518 Z" fill="#000000" fill-rule="nonzero" fill-opacity="1" /><path clip-path="url(#clip770)" d="M138.452 1195.15 L145.231 1195.15 Q142.207 1198.39 140.712 1202.09 Q139.216 1205.75 139.216 1209.88 Q139.216 1218.03 144.213 1222.36 Q149.178 1226.69 158.599 1226.69 Q167.989 1226.69 172.986 1222.36 Q177.951 1218.03 177.951 1209.88 Q177.951 1205.75 176.455 1202.09 Q174.959 1198.39 171.935 1195.15 L178.651 1195.15 Q180.943 1198.52 182.089 1202.31 Q183.234 1206.06 183.234 1210.27 Q183.234 1221.06 176.646 1227.26 Q170.026 1233.47 158.599 1233.47 Q147.141 1233.47 140.552 1227.26 Q133.932 1221.06 133.932 1210.27 Q133.932 1206 135.078 1202.24 Q136.192 1198.46 138.452 1195.15 Z" fill="#000000" fill-rule="nonzero" fill-opacity="1" /><path clip-path="url(#clip770)" d="M150.769 1171.66 Q150.769 1176.37 154.461 1179.11 Q158.122 1181.84 164.519 1181.84 Q170.917 1181.84 174.609 1179.14 Q178.269 1176.4 178.269 1171.66 Q178.269 1166.98 174.577 1164.24 Q170.885 1161.5 164.519 1161.5 Q158.185 1161.5 154.493 1164.24 Q150.769 1166.98 150.769 1171.66 M145.804 1171.66 Q145.804 1164.02 150.769 1159.66 Q155.735 1155.3 164.519 1155.3 Q173.272 1155.3 178.269 1159.66 Q183.234 1164.02 183.234 1171.66 Q183.234 1179.33 178.269 1183.69 Q173.272 1188.02 164.519 1188.02 Q155.735 1188.02 150.769 1183.69 Q145.804 1179.33 145.804 1171.66 Z" fill="#000000" fill-rule="nonzero" fill-opacity="1" /><path clip-path="url(#clip770)" d="M168.243 1146.19 L146.663 1146.19 L146.663 1140.34 L168.02 1140.34 Q173.081 1140.34 175.627 1138.36 Q178.142 1136.39 178.142 1132.44 Q178.142 1127.7 175.118 1124.96 Q172.094 1122.2 166.875 1122.2 L146.663 1122.2 L146.663 1116.34 L182.311 1116.34 L182.311 1122.2 L176.837 1122.2 Q180.083 1124.33 181.675 1127.16 Q183.234 1129.96 183.234 1133.69 Q183.234 1139.83 179.415 1143.01 Q175.596 1146.19 168.243 1146.19 M145.804 1131.46 L145.804 1131.46 Z" fill="#000000" fill-rule="nonzero" fill-opacity="1" /><path clip-path="url(#clip770)" d="M160.795 1074.64 L182.311 1074.64 L182.311 1080.5 L160.986 1080.5 Q155.926 1080.5 153.411 1082.47 Q150.897 1084.45 150.897 1088.39 Q150.897 1093.14 153.92 1095.87 Q156.944 1098.61 162.164 1098.61 L182.311 1098.61 L182.311 1104.5 L146.663 1104.5 L146.663 1098.61 L152.202 1098.61 Q148.987 1096.51 147.396 1093.68 Q145.804 1090.81 145.804 1087.09 Q145.804 1080.95 149.624 1077.8 Q153.411 1074.64 160.795 1074.64 Z" fill="#000000" fill-rule="nonzero" fill-opacity="1" /><path clip-path="url(#clip770)" d="M136.542 1057.17 L146.663 1057.17 L146.663 1045.11 L151.215 1045.11 L151.215 1057.17 L170.567 1057.17 Q174.927 1057.17 176.169 1055.99 Q177.41 1054.78 177.41 1051.12 L177.41 1045.11 L182.311 1045.11 L182.311 1051.12 Q182.311 1057.9 179.797 1060.48 Q177.251 1063.06 170.567 1063.06 L151.215 1063.06 L151.215 1067.36 L146.663 1067.36 L146.663 1063.06 L136.542 1063.06 L136.542 1057.17 Z" fill="#000000" fill-rule="nonzero" fill-opacity="1" /><path clip-path="url(#clip770)" d="M147.714 1014.68 L153.252 1014.68 Q151.979 1017.16 151.342 1019.84 Q150.706 1022.51 150.706 1025.37 Q150.706 1029.73 152.043 1031.93 Q153.379 1034.09 156.053 1034.09 Q158.09 1034.09 159.268 1032.53 Q160.413 1030.98 161.464 1026.26 L161.909 1024.26 Q163.246 1018.02 165.697 1015.41 Q168.116 1012.77 172.476 1012.77 Q177.442 1012.77 180.338 1016.72 Q183.234 1020.63 183.234 1027.51 Q183.234 1030.37 182.662 1033.49 Q182.12 1036.58 181.006 1040.01 L174.959 1040.01 Q176.646 1036.77 177.505 1033.62 Q178.333 1030.47 178.333 1027.38 Q178.333 1023.24 176.932 1021.01 Q175.5 1018.78 172.922 1018.78 Q170.535 1018.78 169.262 1020.41 Q167.989 1022 166.811 1027.44 L166.334 1029.48 Q165.188 1034.92 162.832 1037.34 Q160.445 1039.76 156.308 1039.76 Q151.279 1039.76 148.541 1036.2 Q145.804 1032.63 145.804 1026.07 Q145.804 1022.83 146.282 1019.96 Q146.759 1017.1 147.714 1014.68 Z" fill="#000000" fill-rule="nonzero" fill-opacity="1" /><path clip-path="url(#clip770)" d="M132.85 968.655 Q140.17 972.92 147.332 974.989 Q154.493 977.058 161.846 977.058 Q169.198 977.058 176.423 974.989 Q183.616 972.888 190.905 968.655 L190.905 973.748 Q183.425 978.522 176.2 980.909 Q168.975 983.264 161.846 983.264 Q154.748 983.264 147.555 980.909 Q140.361 978.554 132.85 973.748 L132.85 968.655 Z" fill="#000000" fill-rule="nonzero" fill-opacity="1" /><path clip-path="url(#clip770)" d="M176.901 955.351 L176.901 944.847 L140.648 944.847 L142.94 956.274 L137.083 956.274 L134.791 944.911 L134.791 938.482 L176.901 938.482 L176.901 927.978 L182.311 927.978 L182.311 955.351 L176.901 955.351 Z" fill="#000000" fill-rule="nonzero" fill-opacity="1" /><path clip-path="url(#clip770)" d="M139.025 901.242 Q139.025 906.207 143.926 908.722 Q148.796 911.205 158.599 911.205 Q168.371 911.205 173.272 908.722 Q178.142 906.207 178.142 901.242 Q178.142 896.245 173.272 893.762 Q168.371 891.248 158.599 891.248 Q148.796 891.248 143.926 893.762 Q139.025 896.245 139.025 901.242 M133.932 901.242 Q133.932 893.253 140.266 889.052 Q146.568 884.819 158.599 884.819 Q170.599 884.819 176.932 889.052 Q183.234 893.253 183.234 901.242 Q183.234 909.231 176.932 913.464 Q170.599 917.666 158.599 917.666 Q146.568 917.666 140.266 913.464 Q133.932 909.231 133.932 901.242 Z" fill="#000000" fill-rule="nonzero" fill-opacity="1" /><path clip-path="url(#clip770)" d="M139.025 859.77 Q139.025 864.735 143.926 867.249 Q148.796 869.732 158.599 869.732 Q168.371 869.732 173.272 867.249 Q178.142 864.735 178.142 859.77 Q178.142 854.773 173.272 852.29 Q168.371 849.775 158.599 849.775 Q148.796 849.775 143.926 852.29 Q139.025 854.773 139.025 859.77 M133.932 859.77 Q133.932 851.781 140.266 847.579 Q146.568 843.346 158.599 843.346 Q170.599 843.346 176.932 847.579 Q183.234 851.781 183.234 859.77 Q183.234 867.759 176.932 871.992 Q170.599 876.193 158.599 876.193 Q146.568 876.193 140.266 871.992 Q133.932 867.759 133.932 859.77 Z" fill="#000000" fill-rule="nonzero" fill-opacity="1" /><path clip-path="url(#clip770)" d="M139.025 818.297 Q139.025 823.262 143.926 825.777 Q148.796 828.259 158.599 828.259 Q168.371 828.259 173.272 825.777 Q178.142 823.262 178.142 818.297 Q178.142 813.3 173.272 810.817 Q168.371 808.303 158.599 808.303 Q148.796 808.303 143.926 810.817 Q139.025 813.3 139.025 818.297 M133.932 818.297 Q133.932 810.308 140.266 806.107 Q146.568 801.873 158.599 801.873 Q170.599 801.873 176.932 806.107 Q183.234 810.308 183.234 818.297 Q183.234 826.286 176.932 830.519 Q170.599 834.721 158.599 834.721 Q146.568 834.721 140.266 830.519 Q133.932 826.286 133.932 818.297 Z" fill="#000000" fill-rule="nonzero" fill-opacity="1" /><path clip-path="url(#clip770)" d="M147.714 747.956 L153.252 747.956 Q151.979 750.439 151.342 753.112 Q150.706 755.786 150.706 758.65 Q150.706 763.011 152.043 765.207 Q153.379 767.371 156.053 767.371 Q158.09 767.371 159.268 765.812 Q160.413 764.252 161.464 759.542 L161.909 757.536 Q163.246 751.298 165.697 748.688 Q168.116 746.046 172.476 746.046 Q177.442 746.046 180.338 749.993 Q183.234 753.908 183.234 760.783 Q183.234 763.647 182.662 766.767 Q182.12 769.854 181.006 773.291 L174.959 773.291 Q176.646 770.045 177.505 766.894 Q178.333 763.743 178.333 760.656 Q178.333 756.518 176.932 754.29 Q175.5 752.062 172.922 752.062 Q170.535 752.062 169.262 753.685 Q167.989 755.277 166.811 760.719 L166.334 762.756 Q165.188 768.199 162.832 770.618 Q160.445 773.037 156.308 773.037 Q151.279 773.037 148.541 769.472 Q145.804 765.907 145.804 759.351 Q145.804 756.104 146.282 753.239 Q146.759 750.375 147.714 747.956 Z" fill="#000000" fill-rule="nonzero" fill-opacity="1" /><path clip-path="url(#clip770)" d="M164.392 720.52 Q164.392 727.618 166.015 730.355 Q167.638 733.092 171.553 733.092 Q174.673 733.092 176.519 731.055 Q178.333 728.986 178.333 725.453 Q178.333 720.583 174.895 717.655 Q171.426 714.695 165.697 714.695 L164.392 714.695 L164.392 720.52 M161.973 708.839 L182.311 708.839 L182.311 714.695 L176.901 714.695 Q180.147 716.7 181.707 719.692 Q183.234 722.684 183.234 727.013 Q183.234 732.487 180.179 735.734 Q177.092 738.948 171.935 738.948 Q165.92 738.948 162.864 734.938 Q159.809 730.896 159.809 722.907 L159.809 714.695 L159.236 714.695 Q155.194 714.695 152.997 717.369 Q150.769 720.011 150.769 724.817 Q150.769 727.872 151.501 730.769 Q152.233 733.665 153.698 736.339 L148.287 736.339 Q147.045 733.124 146.441 730.1 Q145.804 727.076 145.804 724.212 Q145.804 716.478 149.815 712.658 Q153.825 708.839 161.973 708.839 Z" fill="#000000" fill-rule="nonzero" fill-opacity="1" /><path clip-path="url(#clip770)" d="M153.507 669.021 Q149.56 666.825 147.682 663.769 Q145.804 660.714 145.804 656.576 Q145.804 651.006 149.719 647.983 Q153.602 644.959 160.795 644.959 L182.311 644.959 L182.311 650.847 L160.986 650.847 Q155.862 650.847 153.379 652.661 Q150.897 654.476 150.897 658.199 Q150.897 662.751 153.92 665.393 Q156.944 668.035 162.164 668.035 L182.311 668.035 L182.311 673.923 L160.986 673.923 Q155.83 673.923 153.379 675.737 Q150.897 677.551 150.897 681.339 Q150.897 685.827 153.952 688.468 Q156.976 691.11 162.164 691.11 L182.311 691.11 L182.311 696.998 L146.663 696.998 L146.663 691.11 L152.202 691.11 Q148.923 689.105 147.364 686.304 Q145.804 683.503 145.804 679.652 Q145.804 675.769 147.777 673.063 Q149.751 670.326 153.507 669.021 Z" fill="#000000" fill-rule="nonzero" fill-opacity="1" /><path clip-path="url(#clip770)" d="M176.964 627.612 L195.87 627.612 L195.87 633.501 L146.663 633.501 L146.663 627.612 L152.074 627.612 Q148.891 625.766 147.364 622.965 Q145.804 620.133 145.804 616.218 Q145.804 609.725 150.96 605.682 Q156.117 601.608 164.519 601.608 Q172.922 601.608 178.078 605.682 Q183.234 609.725 183.234 616.218 Q183.234 620.133 181.707 622.965 Q180.147 625.766 176.964 627.612 M164.519 607.688 Q158.058 607.688 154.398 610.361 Q150.706 613.003 150.706 617.65 Q150.706 622.297 154.398 624.971 Q158.058 627.612 164.519 627.612 Q170.98 627.612 174.673 624.971 Q178.333 622.297 178.333 617.65 Q178.333 613.003 174.673 610.361 Q170.98 607.688 164.519 607.688 Z" fill="#000000" fill-rule="nonzero" fill-opacity="1" /><path clip-path="url(#clip770)" d="M132.786 591.901 L132.786 586.044 L182.311 586.044 L182.311 591.901 L132.786 591.901 Z" fill="#000000" fill-rule="nonzero" fill-opacity="1" /><path clip-path="url(#clip770)" d="M163.023 543.298 L165.888 543.298 L165.888 570.225 Q171.935 569.843 175.118 566.597 Q178.269 563.319 178.269 557.494 Q178.269 554.12 177.442 550.969 Q176.614 547.786 174.959 544.667 L180.497 544.667 Q181.834 547.818 182.534 551.128 Q183.234 554.438 183.234 557.844 Q183.234 566.374 178.269 571.371 Q173.304 576.337 164.838 576.337 Q156.085 576.337 150.96 571.626 Q145.804 566.883 145.804 558.863 Q145.804 551.669 150.451 547.5 Q155.066 543.298 163.023 543.298 M161.305 549.155 Q156.499 549.219 153.634 551.86 Q150.769 554.47 150.769 558.799 Q150.769 563.701 153.538 566.661 Q156.308 569.589 161.336 570.034 L161.305 549.155 Z" fill="#000000" fill-rule="nonzero" fill-opacity="1" /><path clip-path="url(#clip770)" d="M147.714 510.961 L153.252 510.961 Q151.979 513.443 151.342 516.117 Q150.706 518.791 150.706 521.655 Q150.706 526.016 152.043 528.212 Q153.379 530.376 156.053 530.376 Q158.09 530.376 159.268 528.817 Q160.413 527.257 161.464 522.546 L161.909 520.541 Q163.246 514.303 165.697 511.693 Q168.116 509.051 172.476 509.051 Q177.442 509.051 180.338 512.998 Q183.234 516.913 183.234 523.788 Q183.234 526.652 182.662 529.771 Q182.12 532.859 181.006 536.296 L174.959 536.296 Q176.646 533.05 177.505 529.899 Q178.333 526.748 178.333 523.66 Q178.333 519.523 176.932 517.295 Q175.5 515.067 172.922 515.067 Q170.535 515.067 169.262 516.69 Q167.989 518.281 166.811 523.724 L166.334 525.761 Q165.188 531.204 162.832 533.623 Q160.445 536.042 156.308 536.042 Q151.279 536.042 148.541 532.477 Q145.804 528.912 145.804 522.355 Q145.804 519.109 146.282 516.244 Q146.759 513.38 147.714 510.961 Z" fill="#000000" fill-rule="nonzero" fill-opacity="1" /><path clip-path="url(#clip770)" d="M132.85 500.648 L132.85 495.556 Q140.361 490.781 147.555 488.426 Q154.748 486.039 161.846 486.039 Q168.975 486.039 176.2 488.426 Q183.425 490.781 190.905 495.556 L190.905 500.648 Q183.616 496.415 176.423 494.346 Q169.198 492.246 161.846 492.246 Q154.493 492.246 147.332 494.346 Q140.17 496.415 132.85 500.648 Z" fill="#000000" fill-rule="nonzero" fill-opacity="1" /><path clip-path="url(#clip770)" d="M912.876 12.096 L925.069 12.096 L940.503 53.2532 L956.018 12.096 L968.211 12.096 L968.211 72.576 L960.231 72.576 L960.231 19.4686 L944.635 60.9499 L936.412 60.9499 L920.816 19.4686 L920.816 72.576 L912.876 72.576 L912.876 12.096 Z" fill="#000000" fill-rule="nonzero" fill-opacity="1" /><path clip-path="url(#clip770)" d="M984.455 12.096 L992.638 12.096 L992.638 72.576 L984.455 72.576 L984.455 12.096 Z" fill="#000000" fill-rule="nonzero" fill-opacity="1" /><path clip-path="url(#clip770)" d="M1008.92 12.096 L1021.12 12.096 L1036.55 53.2532 L1052.06 12.096 L1064.26 12.096 L1064.26 72.576 L1056.28 72.576 L1056.28 19.4686 L1040.68 60.9499 L1032.46 60.9499 L1016.86 19.4686 L1016.86 72.576 L1008.92 72.576 L1008.92 12.096 Z" fill="#000000" fill-rule="nonzero" fill-opacity="1" /><path clip-path="url(#clip770)" d="M1080.5 12.096 L1088.69 12.096 L1088.69 72.576 L1080.5 72.576 L1080.5 12.096 Z" fill="#000000" fill-rule="nonzero" fill-opacity="1" /><path clip-path="url(#clip770)" d="M1129.52 17.6457 Q1120.61 17.6457 1115.34 24.2892 Q1110.11 30.9327 1110.11 42.3968 Q1110.11 53.8203 1115.34 60.4638 Q1120.61 67.1073 1129.52 67.1073 Q1138.43 67.1073 1143.62 60.4638 Q1148.84 53.8203 1148.84 42.3968 Q1148.84 30.9327 1143.62 24.2892 Q1138.43 17.6457 1129.52 17.6457 M1140.98 71.4823 L1151.76 83.2704 L1141.87 83.2704 L1132.92 73.5887 Q1131.58 73.6697 1130.86 73.7103 Q1130.17 73.7508 1129.52 73.7508 Q1116.76 73.7508 1109.1 65.2439 Q1101.49 56.6965 1101.49 42.3968 Q1101.49 28.0566 1109.1 19.5497 Q1116.76 11.0023 1129.52 11.0023 Q1142.24 11.0023 1149.85 19.5497 Q1157.47 28.0566 1157.47 42.3968 Q1157.47 52.9291 1153.22 60.4233 Q1149 67.9175 1140.98 71.4823 Z" fill="#000000" fill-rule="nonzero" fill-opacity="1" /><path clip-path="url(#clip770)" d="M1168.49 46.5287 L1190.32 46.5287 L1190.32 53.1722 L1168.49 53.1722 L1168.49 46.5287 Z" fill="#000000" fill-rule="nonzero" fill-opacity="1" /><path clip-path="url(#clip770)" d="M1238.77 14.0809 L1238.77 22.0612 Q1234.11 19.8332 1229.98 18.7395 Q1225.85 17.6457 1222 17.6457 Q1215.32 17.6457 1211.67 20.2383 Q1208.07 22.8309 1208.07 27.611 Q1208.07 31.6214 1210.46 33.6873 Q1212.89 35.7128 1219.61 36.9686 L1224.55 37.9813 Q1233.71 39.7232 1238.04 44.1387 Q1242.42 48.5136 1242.42 55.8863 Q1242.42 64.6767 1236.5 69.2137 Q1230.63 73.7508 1219.25 73.7508 Q1214.95 73.7508 1210.09 72.7785 Q1205.27 71.8063 1200.08 69.9024 L1200.08 61.4765 Q1205.07 64.2716 1209.85 65.6895 Q1214.63 67.1073 1219.25 67.1073 Q1226.25 67.1073 1230.06 64.3527 Q1233.87 61.598 1233.87 56.4939 Q1233.87 52.0379 1231.11 49.5264 Q1228.4 47.0148 1222.16 45.759 L1217.18 44.7868 Q1208.02 42.9639 1203.93 39.075 Q1199.84 35.1862 1199.84 28.2591 Q1199.84 20.2383 1205.47 15.6203 Q1211.14 11.0023 1221.07 11.0023 Q1225.32 11.0023 1229.74 11.7719 Q1234.15 12.5416 1238.77 14.0809 Z" fill="#000000" fill-rule="nonzero" fill-opacity="1" /><path clip-path="url(#clip770)" d="M1262.23 14.324 L1262.23 27.2059 L1277.58 27.2059 L1277.58 32.9987 L1262.23 32.9987 L1262.23 57.6282 Q1262.23 63.1779 1263.72 64.7578 Q1265.26 66.3376 1269.92 66.3376 L1277.58 66.3376 L1277.58 72.576 L1269.92 72.576 Q1261.29 72.576 1258.01 69.3758 Q1254.73 66.1351 1254.73 57.6282 L1254.73 32.9987 L1249.26 32.9987 L1249.26 27.2059 L1254.73 27.2059 L1254.73 14.324 L1262.23 14.324 Z" fill="#000000" fill-rule="nonzero" fill-opacity="1" /><path clip-path="url(#clip770)" d="M1308 49.7694 Q1298.97 49.7694 1295.48 51.8354 Q1292 53.9013 1292 58.8839 Q1292 62.8538 1294.59 65.2034 Q1297.23 67.5124 1301.72 67.5124 Q1307.92 67.5124 1311.65 63.1374 Q1315.41 58.7219 1315.41 51.4303 L1315.41 49.7694 L1308 49.7694 M1322.87 46.6907 L1322.87 72.576 L1315.41 72.576 L1315.41 65.6895 Q1312.86 69.8214 1309.05 71.8063 Q1305.25 73.7508 1299.74 73.7508 Q1292.77 73.7508 1288.64 69.8619 Q1284.55 65.9325 1284.55 59.3701 Q1284.55 51.7138 1289.65 47.825 Q1294.8 43.9361 1304.96 43.9361 L1315.41 43.9361 L1315.41 43.2069 Q1315.41 38.0623 1312.01 35.2672 Q1308.65 32.4315 1302.53 32.4315 Q1298.64 32.4315 1294.96 33.3632 Q1291.27 34.295 1287.87 36.1584 L1287.87 29.2718 Q1291.96 27.692 1295.81 26.9223 Q1299.66 26.1121 1303.3 26.1121 Q1313.15 26.1121 1318.01 31.2163 Q1322.87 36.3204 1322.87 46.6907 Z" fill="#000000" fill-rule="nonzero" fill-opacity="1" /><path clip-path="url(#clip770)" d="M1345.59 14.324 L1345.59 27.2059 L1360.95 27.2059 L1360.95 32.9987 L1345.59 32.9987 L1345.59 57.6282 Q1345.59 63.1779 1347.09 64.7578 Q1348.63 66.3376 1353.29 66.3376 L1360.95 66.3376 L1360.95 72.576 L1353.29 72.576 Q1344.66 72.576 1341.38 69.3758 Q1338.1 66.1351 1338.1 57.6282 L1338.1 32.9987 L1332.63 32.9987 L1332.63 27.2059 L1338.1 27.2059 L1338.1 14.324 L1345.59 14.324 Z" fill="#000000" fill-rule="nonzero" fill-opacity="1" /><path clip-path="url(#clip770)" d="M1409.56 48.0275 L1409.56 51.6733 L1375.29 51.6733 Q1375.77 59.3701 1379.9 63.421 Q1384.08 67.4314 1391.49 67.4314 Q1395.78 67.4314 1399.79 66.3781 Q1403.85 65.3249 1407.82 63.2184 L1407.82 70.267 Q1403.8 71.9684 1399.59 72.8596 Q1395.38 73.7508 1391.04 73.7508 Q1380.19 73.7508 1373.83 67.4314 Q1367.51 61.1119 1367.51 50.3365 Q1367.51 39.1965 1373.5 32.6746 Q1379.54 26.1121 1389.75 26.1121 Q1398.9 26.1121 1404.21 32.0264 Q1409.56 37.9003 1409.56 48.0275 M1402.1 45.84 Q1402.02 39.7232 1398.66 36.0774 Q1395.34 32.4315 1389.83 32.4315 Q1383.59 32.4315 1379.82 35.9558 Q1376.1 39.4801 1375.53 45.8805 L1402.1 45.84 Z" fill="#000000" fill-rule="nonzero" fill-opacity="1" /><path clip-path="url(#clip770)" d="M1437.71 72.576 L1414.62 12.096 L1423.17 12.096 L1442.33 63.0159 L1461.53 12.096 L1470.04 12.096 L1446.99 72.576 L1437.71 72.576 Z" fill="#000000" fill-rule="nonzero" fill-opacity="1" /><path clip-path="url(#clip770)" d="M1510.91 48.0275 L1510.91 51.6733 L1476.64 51.6733 Q1477.13 59.3701 1481.26 63.421 Q1485.43 67.4314 1492.84 67.4314 Q1497.14 67.4314 1501.15 66.3781 Q1505.2 65.3249 1509.17 63.2184 L1509.17 70.267 Q1505.16 71.9684 1500.95 72.8596 Q1496.73 73.7508 1492.4 73.7508 Q1481.54 73.7508 1475.18 67.4314 Q1468.86 61.1119 1468.86 50.3365 Q1468.86 39.1965 1474.86 32.6746 Q1480.89 26.1121 1491.1 26.1121 Q1500.26 26.1121 1505.56 32.0264 Q1510.91 37.9003 1510.91 48.0275 M1503.46 45.84 Q1503.38 39.7232 1500.01 36.0774 Q1496.69 32.4315 1491.18 32.4315 Q1484.94 32.4315 1481.18 35.9558 Q1477.45 39.4801 1476.88 45.8805 L1503.46 45.84 Z" fill="#000000" fill-rule="nonzero" fill-opacity="1" /><path clip-path="url(#clip770)" d="M1555.79 28.9478 L1555.79 35.9153 Q1552.64 34.1734 1549.43 33.3227 Q1546.28 32.4315 1543.03 32.4315 Q1535.78 32.4315 1531.77 37.0496 Q1527.76 41.6271 1527.76 49.9314 Q1527.76 58.2358 1531.77 62.8538 Q1535.78 67.4314 1543.03 67.4314 Q1546.28 67.4314 1549.43 66.5807 Q1552.64 65.6895 1555.79 63.9476 L1555.79 70.8341 Q1552.68 72.2924 1549.31 73.0216 Q1545.99 73.7508 1542.22 73.7508 Q1531.98 73.7508 1525.94 67.3098 Q1519.9 60.8689 1519.9 49.9314 Q1519.9 38.832 1525.98 32.472 Q1532.1 26.1121 1542.71 26.1121 Q1546.15 26.1121 1549.43 26.8413 Q1552.72 27.5299 1555.79 28.9478 Z" fill="#000000" fill-rule="nonzero" fill-opacity="1" /><path clip-path="url(#clip770)" d="M1576.13 14.324 L1576.13 27.2059 L1591.48 27.2059 L1591.48 32.9987 L1576.13 32.9987 L1576.13 57.6282 Q1576.13 63.1779 1577.63 64.7578 Q1579.17 66.3376 1583.83 66.3376 L1591.48 66.3376 L1591.48 72.576 L1583.83 72.576 Q1575.2 72.576 1571.92 69.3758 Q1568.64 66.1351 1568.64 57.6282 L1568.64 32.9987 L1563.17 32.9987 L1563.17 27.2059 L1568.64 27.2059 L1568.64 14.324 L1576.13 14.324 Z" fill="#000000" fill-rule="nonzero" fill-opacity="1" /><path clip-path="url(#clip770)" d="M1618.87 32.4315 Q1612.87 32.4315 1609.39 37.1306 Q1605.9 41.7891 1605.9 49.9314 Q1605.9 58.0738 1609.35 62.7728 Q1612.83 67.4314 1618.87 67.4314 Q1624.82 67.4314 1628.31 62.7323 Q1631.79 58.0333 1631.79 49.9314 Q1631.79 41.8701 1628.31 37.1711 Q1624.82 32.4315 1618.87 32.4315 M1618.87 26.1121 Q1628.59 26.1121 1634.14 32.4315 Q1639.69 38.7509 1639.69 49.9314 Q1639.69 61.0714 1634.14 67.4314 Q1628.59 73.7508 1618.87 73.7508 Q1609.1 73.7508 1603.56 67.4314 Q1598.05 61.0714 1598.05 49.9314 Q1598.05 38.7509 1603.56 32.4315 Q1609.1 26.1121 1618.87 26.1121 Z" fill="#000000" fill-rule="nonzero" fill-opacity="1" /><path clip-path="url(#clip770)" d="M1678.33 34.1734 Q1677.08 33.4443 1675.58 33.1202 Q1674.12 32.7556 1672.34 32.7556 Q1666.02 32.7556 1662.62 36.8875 Q1659.25 40.9789 1659.25 48.6757 L1659.25 72.576 L1651.76 72.576 L1651.76 27.2059 L1659.25 27.2059 L1659.25 34.2544 Q1661.6 30.1225 1665.37 28.1376 Q1669.14 26.1121 1674.53 26.1121 Q1675.3 26.1121 1676.23 26.2337 Q1677.16 26.3147 1678.29 26.5172 L1678.33 34.1734 Z" fill="#000000" fill-rule="nonzero" fill-opacity="1" /><path clip-path="url(#clip770)" d="M1731.08 17.4837 Q1724.76 17.4837 1721.56 23.7221 Q1718.4 29.92 1718.4 42.3968 Q1718.4 54.833 1721.56 61.0714 Q1724.76 67.2693 1731.08 67.2693 Q1737.44 67.2693 1740.6 61.0714 Q1743.8 54.833 1743.8 42.3968 Q1743.8 29.92 1740.6 23.7221 Q1737.44 17.4837 1731.08 17.4837 M1731.08 11.0023 Q1741.25 11.0023 1746.59 19.0636 Q1751.98 27.0843 1751.98 42.3968 Q1751.98 57.6687 1746.59 65.73 Q1741.25 73.7508 1731.08 73.7508 Q1720.91 73.7508 1715.52 65.73 Q1710.17 57.6687 1710.17 42.3968 Q1710.17 27.0843 1715.52 19.0636 Q1720.91 11.0023 1731.08 11.0023 Z" fill="#000000" fill-rule="nonzero" fill-opacity="1" /><path clip-path="url(#clip770)" d="M1766.36 62.2867 L1774.91 62.2867 L1774.91 72.576 L1766.36 72.576 L1766.36 62.2867 Z" fill="#000000" fill-rule="nonzero" fill-opacity="1" /><path clip-path="url(#clip770)" d="M1799.78 65.6895 L1828.34 65.6895 L1828.34 72.576 L1789.94 72.576 L1789.94 65.6895 Q1794.6 60.8689 1802.62 52.7671 Q1810.68 44.6248 1812.74 42.2752 Q1816.67 37.8598 1818.21 34.8216 Q1819.79 31.7429 1819.79 28.7857 Q1819.79 23.9651 1816.39 20.927 Q1813.03 17.8888 1807.6 17.8888 Q1803.75 17.8888 1799.46 19.2256 Q1795.2 20.5624 1790.34 23.2765 L1790.34 15.0127 Q1795.28 13.0277 1799.58 12.015 Q1803.87 11.0023 1807.44 11.0023 Q1816.84 11.0023 1822.43 15.7013 Q1828.02 20.4004 1828.02 28.2591 Q1828.02 31.9859 1826.6 35.3482 Q1825.22 38.6699 1821.53 43.2069 Q1820.52 44.3817 1815.09 50.0125 Q1809.67 55.6027 1799.78 65.6895 Z" fill="#000000" fill-rule="nonzero" fill-opacity="1" /><path clip-path="url(#clip770)" d="M1868 19.2256 L1847.34 51.5113 L1868 51.5113 L1868 19.2256 M1865.85 12.096 L1876.14 12.096 L1876.14 51.5113 L1884.77 51.5113 L1884.77 58.3168 L1876.14 58.3168 L1876.14 72.576 L1868 72.576 L1868 58.3168 L1840.69 58.3168 L1840.69 50.4176 L1865.85 12.096 Z" fill="#000000" fill-rule="nonzero" fill-opacity="1" /><path clip-path="url(#clip770)" d="M1898.3 62.2867 L1906.85 62.2867 L1906.85 72.576 L1898.3 72.576 L1898.3 62.2867 Z" fill="#000000" fill-rule="nonzero" fill-opacity="1" /><path clip-path="url(#clip770)" d="M1931.72 65.6895 L1960.28 65.6895 L1960.28 72.576 L1921.88 72.576 L1921.88 65.6895 Q1926.53 60.8689 1934.55 52.7671 Q1942.62 44.6248 1944.68 42.2752 Q1948.61 37.8598 1950.15 34.8216 Q1951.73 31.7429 1951.73 28.7857 Q1951.73 23.9651 1948.33 20.927 Q1944.97 17.8888 1939.54 17.8888 Q1935.69 17.8888 1931.39 19.2256 Q1927.14 20.5624 1922.28 23.2765 L1922.28 15.0127 Q1927.22 13.0277 1931.52 12.015 Q1935.81 11.0023 1939.38 11.0023 Q1948.77 11.0023 1954.36 15.7013 Q1959.95 20.4004 1959.95 28.2591 Q1959.95 31.9859 1958.54 35.3482 Q1957.16 38.6699 1953.47 43.2069 Q1952.46 44.3817 1947.03 50.0125 Q1941.6 55.6027 1931.72 65.6895 Z" fill="#000000" fill-rule="nonzero" fill-opacity="1" /><path clip-path="url(#clip770)" d="M2025.74 9.54393 L2025.74 15.7418 L2018.61 15.7418 Q2014.6 15.7418 2013.02 17.3622 Q2011.48 18.9825 2011.48 23.1955 L2011.48 27.2059 L2023.76 27.2059 L2023.76 32.9987 L2011.48 32.9987 L2011.48 72.576 L2003.99 72.576 L2003.99 32.9987 L1996.86 32.9987 L1996.86 27.2059 L2003.99 27.2059 L2003.99 24.0462 Q2003.99 16.471 2007.51 13.0277 Q2011.04 9.54393 2018.69 9.54393 L2025.74 9.54393 Z" fill="#000000" fill-rule="nonzero" fill-opacity="1" /><path clip-path="url(#clip770)" d="M2031.98 27.2059 L2039.43 27.2059 L2039.43 72.576 L2031.98 72.576 L2031.98 27.2059 M2031.98 9.54393 L2039.43 9.54393 L2039.43 18.9825 L2031.98 18.9825 L2031.98 9.54393 Z" fill="#000000" fill-rule="nonzero" fill-opacity="1" /><path clip-path="url(#clip770)" d="M2084.88 34.0924 L2084.88 9.54393 L2092.34 9.54393 L2092.34 72.576 L2084.88 72.576 L2084.88 65.7705 Q2082.53 69.8214 2078.93 71.8063 Q2075.36 73.7508 2070.34 73.7508 Q2062.12 73.7508 2056.93 67.1883 Q2051.79 60.6258 2051.79 49.9314 Q2051.79 39.2371 2056.93 32.6746 Q2062.12 26.1121 2070.34 26.1121 Q2075.36 26.1121 2078.93 28.0971 Q2082.53 30.0415 2084.88 34.0924 M2059.48 49.9314 Q2059.48 58.1548 2062.85 62.8538 Q2066.25 67.5124 2072.16 67.5124 Q2078.08 67.5124 2081.48 62.8538 Q2084.88 58.1548 2084.88 49.9314 Q2084.88 41.7081 2081.48 37.0496 Q2078.08 32.3505 2072.16 32.3505 Q2066.25 32.3505 2062.85 37.0496 Q2059.48 41.7081 2059.48 49.9314 Z" fill="#000000" fill-rule="nonzero" fill-opacity="1" /><path clip-path="url(#clip770)" d="M2146.5 48.0275 L2146.5 51.6733 L2112.23 51.6733 Q2112.71 59.3701 2116.85 63.421 Q2121.02 67.4314 2128.43 67.4314 Q2132.72 67.4314 2136.74 66.3781 Q2140.79 65.3249 2144.76 63.2184 L2144.76 70.267 Q2140.75 71.9684 2136.53 72.8596 Q2132.32 73.7508 2127.99 73.7508 Q2117.13 73.7508 2110.77 67.4314 Q2104.45 61.1119 2104.45 50.3365 Q2104.45 39.1965 2110.44 32.6746 Q2116.48 26.1121 2126.69 26.1121 Q2135.84 26.1121 2141.15 32.0264 Q2146.5 37.9003 2146.5 48.0275 M2139.04 45.84 Q2138.96 39.7232 2135.6 36.0774 Q2132.28 32.4315 2126.77 32.4315 Q2120.53 32.4315 2116.76 35.9558 Q2113.04 39.4801 2112.47 45.8805 L2139.04 45.84 Z" fill="#000000" fill-rule="nonzero" fill-opacity="1" /><path clip-path="url(#clip770)" d="M2158.73 9.54393 L2166.19 9.54393 L2166.19 72.576 L2158.73 72.576 L2158.73 9.54393 Z" fill="#000000" fill-rule="nonzero" fill-opacity="1" /><path clip-path="url(#clip770)" d="M2181.78 27.2059 L2189.23 27.2059 L2189.23 72.576 L2181.78 72.576 L2181.78 27.2059 M2181.78 9.54393 L2189.23 9.54393 L2189.23 18.9825 L2181.78 18.9825 L2181.78 9.54393 Z" fill="#000000" fill-rule="nonzero" fill-opacity="1" /><path clip-path="url(#clip770)" d="M2212.2 14.324 L2212.2 27.2059 L2227.56 27.2059 L2227.56 32.9987 L2212.2 32.9987 L2212.2 57.6282 Q2212.2 63.1779 2213.7 64.7578 Q2215.24 66.3376 2219.9 66.3376 L2227.56 66.3376 L2227.56 72.576 L2219.9 72.576 Q2211.27 72.576 2207.99 69.3758 Q2204.71 66.1351 2204.71 57.6282 L2204.71 32.9987 L2199.24 32.9987 L2199.24 27.2059 L2204.71 27.2059 L2204.71 14.324 L2212.2 14.324 Z" fill="#000000" fill-rule="nonzero" fill-opacity="1" /><path clip-path="url(#clip770)" d="M2256.24 76.7889 Q2253.08 84.8907 2250.08 87.3618 Q2247.08 89.8329 2242.06 89.8329 L2236.1 89.8329 L2236.1 83.5945 L2240.48 83.5945 Q2243.56 83.5945 2245.26 82.1361 Q2246.96 80.6778 2249.03 75.2496 L2250.36 71.8468 L2232.01 27.2059 L2239.91 27.2059 L2254.09 62.6918 L2268.27 27.2059 L2276.17 27.2059 L2256.24 76.7889 Z" fill="#000000" fill-rule="nonzero" fill-opacity="1" /><path clip-path="url(#clip770)" d="M2287.43 34.9026 L2339.36 34.9026 L2339.36 41.7081 L2287.43 41.7081 L2287.43 34.9026 M2287.43 51.4303 L2339.36 51.4303 L2339.36 58.3168 L2287.43 58.3168 L2287.43 51.4303 Z" fill="#000000" fill-rule="nonzero" fill-opacity="1" /><path clip-path="url(#clip770)" d="M2358.44 65.6895 L2371.81 65.6895 L2371.81 19.5497 L2357.27 22.4663 L2357.27 15.0127 L2371.73 12.096 L2379.91 12.096 L2379.91 65.6895 L2393.28 65.6895 L2393.28 72.576 L2358.44 72.576 L2358.44 65.6895 Z" fill="#000000" fill-rule="nonzero" fill-opacity="1" /><path clip-path="url(#clip770)" d="M2409.81 62.2867 L2418.35 62.2867 L2418.35 72.576 L2409.81 72.576 L2409.81 62.2867 Z" fill="#000000" fill-rule="nonzero" fill-opacity="1" /><path clip-path="url(#clip770)" d="M2453.68 17.4837 Q2447.36 17.4837 2444.16 23.7221 Q2441 29.92 2441 42.3968 Q2441 54.833 2444.16 61.0714 Q2447.36 67.2693 2453.68 67.2693 Q2460.04 67.2693 2463.2 61.0714 Q2466.4 54.833 2466.4 42.3968 Q2466.4 29.92 2463.2 23.7221 Q2460.04 17.4837 2453.68 17.4837 M2453.68 11.0023 Q2463.85 11.0023 2469.19 19.0636 Q2474.58 27.0843 2474.58 42.3968 Q2474.58 57.6687 2469.19 65.73 Q2463.85 73.7508 2453.68 73.7508 Q2443.51 73.7508 2438.12 65.73 Q2432.78 57.6687 2432.78 42.3968 Q2432.78 27.0843 2438.12 19.0636 Q2443.51 11.0023 2453.68 11.0023 Z" fill="#000000" fill-rule="nonzero" fill-opacity="1" /><path clip-path="url(#clip771)" d="M521.34 255.754 L521.34 1463.75 L648.085 1463.75 L648.085 255.754 L521.34 255.754 L521.34 255.754  Z" fill="#0c7e8f" fill-rule="evenodd" fill-opacity="1"/>
<polyline clip-path="url(#clip771)" style="stroke:#000000; stroke-linecap:round; stroke-linejoin:round; stroke-width:4; stroke-opacity:1; fill:none" points="521.34,255.754 521.34,1463.75 648.085,1463.75 648.085,255.754 521.34,255.754 "/>
<path clip-path="url(#clip771)" d="M679.771 260.1 L679.771 1463.75 L806.515 1463.75 L806.515 260.1 L679.771 260.1 L679.771 260.1  Z" fill="#0c7e8f" fill-rule="evenodd" fill-opacity="1"/>
<polyline clip-path="url(#clip771)" style="stroke:#000000; stroke-linecap:round; stroke-linejoin:round; stroke-width:4; stroke-opacity:1; fill:none" points="679.771,260.1 679.771,1463.75 806.515,1463.75 806.515,260.1 679.771,260.1 "/>
<path clip-path="url(#clip771)" d="M838.202 1259.52 L838.202 1463.75 L964.946 1463.75 L964.946 1259.52 L838.202 1259.52 L838.202 1259.52  Z" fill="#0c7e8f" fill-rule="evenodd" fill-opacity="1"/>
<polyline clip-path="url(#clip771)" style="stroke:#000000; stroke-linecap:round; stroke-linejoin:round; stroke-width:4; stroke-opacity:1; fill:none" points="838.202,1259.52 838.202,1463.75 964.946,1463.75 964.946,1259.52 838.202,1259.52 "/>
<path clip-path="url(#clip771)" d="M996.632 1285.59 L996.632 1463.75 L1123.38 1463.75 L1123.38 1285.59 L996.632 1285.59 L996.632 1285.59  Z" fill="#0c7e8f" fill-rule="evenodd" fill-opacity="1"/>
<polyline clip-path="url(#clip771)" style="stroke:#000000; stroke-linecap:round; stroke-linejoin:round; stroke-width:4; stroke-opacity:1; fill:none" points="996.632,1285.59 996.632,1463.75 1123.38,1463.75 1123.38,1285.59 996.632,1285.59 "/>
<path clip-path="url(#clip771)" d="M1155.06 1311.67 L1155.06 1463.75 L1281.81 1463.75 L1281.81 1311.67 L1155.06 1311.67 L1155.06 1311.67  Z" fill="#0c7e8f" fill-rule="evenodd" fill-opacity="1"/>
<polyline clip-path="url(#clip771)" style="stroke:#000000; stroke-linecap:round; stroke-linejoin:round; stroke-width:4; stroke-opacity:1; fill:none" points="1155.06,1311.67 1155.06,1463.75 1281.81,1463.75 1281.81,1311.67 1155.06,1311.67 "/>
<path clip-path="url(#clip771)" d="M1313.49 1311.67 L1313.49 1463.75 L1440.24 1463.75 L1440.24 1311.67 L1313.49 1311.67 L1313.49 1311.67  Z" fill="#0c7e8f" fill-rule="evenodd" fill-opacity="1"/>
<polyline clip-path="url(#clip771)" style="stroke:#000000; stroke-linecap:round; stroke-linejoin:round; stroke-width:4; stroke-opacity:1; fill:none" points="1313.49,1311.67 1313.49,1463.75 1440.24,1463.75 1440.24,1311.67 1313.49,1311.67 "/>
<path clip-path="url(#clip771)" d="M1471.92 1333.39 L1471.92 1463.75 L1598.67 1463.75 L1598.67 1333.39 L1471.92 1333.39 L1471.92 1333.39  Z" fill="#0c7e8f" fill-rule="evenodd" fill-opacity="1"/>
<polyline clip-path="url(#clip771)" style="stroke:#000000; stroke-linecap:round; stroke-linejoin:round; stroke-width:4; stroke-opacity:1; fill:none" points="1471.92,1333.39 1471.92,1463.75 1598.67,1463.75 1598.67,1333.39 1471.92,1333.39 "/>
<path clip-path="url(#clip771)" d="M1630.36 1350.77 L1630.36 1463.75 L1757.1 1463.75 L1757.1 1350.77 L1630.36 1350.77 L1630.36 1350.77  Z" fill="#0c7e8f" fill-rule="evenodd" fill-opacity="1"/>
<polyline clip-path="url(#clip771)" style="stroke:#000000; stroke-linecap:round; stroke-linejoin:round; stroke-width:4; stroke-opacity:1; fill:none" points="1630.36,1350.77 1630.36,1463.75 1757.1,1463.75 1757.1,1350.77 1630.36,1350.77 "/>
<path clip-path="url(#clip771)" d="M1788.79 1355.12 L1788.79 1463.75 L1915.53 1463.75 L1915.53 1355.12 L1788.79 1355.12 L1788.79 1355.12  Z" fill="#0c7e8f" fill-rule="evenodd" fill-opacity="1"/>
<polyline clip-path="url(#clip771)" style="stroke:#000000; stroke-linecap:round; stroke-linejoin:round; stroke-width:4; stroke-opacity:1; fill:none" points="1788.79,1355.12 1788.79,1463.75 1915.53,1463.75 1915.53,1355.12 1788.79,1355.12 "/>
<path clip-path="url(#clip771)" d="M1947.22 1355.12 L1947.22 1463.75 L2073.96 1463.75 L2073.96 1355.12 L1947.22 1355.12 L1947.22 1355.12  Z" fill="#0c7e8f" fill-rule="evenodd" fill-opacity="1"/>
<polyline clip-path="url(#clip771)" style="stroke:#000000; stroke-linecap:round; stroke-linejoin:round; stroke-width:4; stroke-opacity:1; fill:none" points="1947.22,1355.12 1947.22,1463.75 2073.96,1463.75 2073.96,1355.12 1947.22,1355.12 "/>
<path clip-path="url(#clip771)" d="M2105.65 1359.47 L2105.65 1463.75 L2232.39 1463.75 L2232.39 1359.47 L2105.65 1359.47 L2105.65 1359.47  Z" fill="#0c7e8f" fill-rule="evenodd" fill-opacity="1"/>
<polyline clip-path="url(#clip771)" style="stroke:#000000; stroke-linecap:round; stroke-linejoin:round; stroke-width:4; stroke-opacity:1; fill:none" points="2105.65,1359.47 2105.65,1463.75 2232.39,1463.75 2232.39,1359.47 2105.65,1359.47 "/>
<path clip-path="url(#clip771)" d="M2264.08 1359.47 L2264.08 1463.75 L2390.82 1463.75 L2390.82 1359.47 L2264.08 1359.47 L2264.08 1359.47  Z" fill="#0c7e8f" fill-rule="evenodd" fill-opacity="1"/>
<polyline clip-path="url(#clip771)" style="stroke:#000000; stroke-linecap:round; stroke-linejoin:round; stroke-width:4; stroke-opacity:1; fill:none" points="2264.08,1359.47 2264.08,1463.75 2390.82,1463.75 2390.82,1359.47 2264.08,1359.47 "/>
<path clip-path="url(#clip771)" d="M2422.51 1363.81 L2422.51 1463.75 L2549.25 1463.75 L2549.25 1363.81 L2422.51 1363.81 L2422.51 1363.81  Z" fill="#0c7e8f" fill-rule="evenodd" fill-opacity="1"/>
<polyline clip-path="url(#clip771)" style="stroke:#000000; stroke-linecap:round; stroke-linejoin:round; stroke-width:4; stroke-opacity:1; fill:none" points="2422.51,1363.81 2422.51,1463.75 2549.25,1463.75 2549.25,1363.81 2422.51,1363.81 "/>
<path clip-path="url(#clip771)" d="M2580.94 1376.85 L2580.94 1463.75 L2707.69 1463.75 L2707.69 1376.85 L2580.94 1376.85 L2580.94 1376.85  Z" fill="#0c7e8f" fill-rule="evenodd" fill-opacity="1"/>
<polyline clip-path="url(#clip771)" style="stroke:#000000; stroke-linecap:round; stroke-linejoin:round; stroke-width:4; stroke-opacity:1; fill:none" points="2580.94,1376.85 2580.94,1463.75 2707.69,1463.75 2707.69,1376.85 2580.94,1376.85 "/>
<path clip-path="url(#clip771)" d="M2739.37 1381.19 L2739.37 1463.75 L2866.12 1463.75 L2866.12 1381.19 L2739.37 1381.19 L2739.37 1381.19  Z" fill="#0c7e8f" fill-rule="evenodd" fill-opacity="1"/>
<polyline clip-path="url(#clip771)" style="stroke:#000000; stroke-linecap:round; stroke-linejoin:round; stroke-width:4; stroke-opacity:1; fill:none" points="2739.37,1381.19 2739.37,1463.75 2866.12,1463.75 2866.12,1381.19 2739.37,1381.19 "/>
<circle clip-path="url(#clip771)" style="fill:#009af9; stroke:none; fill-opacity:0" cx="584.712" cy="255.754" r="2"/>
<circle clip-path="url(#clip771)" style="fill:#009af9; stroke:none; fill-opacity:0" cx="743.143" cy="260.1" r="2"/>
<circle clip-path="url(#clip771)" style="fill:#009af9; stroke:none; fill-opacity:0" cx="901.574" cy="1259.52" r="2"/>
<circle clip-path="url(#clip771)" style="fill:#009af9; stroke:none; fill-opacity:0" cx="1060" cy="1285.59" r="2"/>
<circle clip-path="url(#clip771)" style="fill:#009af9; stroke:none; fill-opacity:0" cx="1218.44" cy="1311.67" r="2"/>
<circle clip-path="url(#clip771)" style="fill:#009af9; stroke:none; fill-opacity:0" cx="1376.87" cy="1311.67" r="2"/>
<circle clip-path="url(#clip771)" style="fill:#009af9; stroke:none; fill-opacity:0" cx="1535.3" cy="1333.39" r="2"/>
<circle clip-path="url(#clip771)" style="fill:#009af9; stroke:none; fill-opacity:0" cx="1693.73" cy="1350.77" r="2"/>
<circle clip-path="url(#clip771)" style="fill:#009af9; stroke:none; fill-opacity:0" cx="1852.16" cy="1355.12" r="2"/>
<circle clip-path="url(#clip771)" style="fill:#009af9; stroke:none; fill-opacity:0" cx="2010.59" cy="1355.12" r="2"/>
<circle clip-path="url(#clip771)" style="fill:#009af9; stroke:none; fill-opacity:0" cx="2169.02" cy="1359.47" r="2"/>
<circle clip-path="url(#clip771)" style="fill:#009af9; stroke:none; fill-opacity:0" cx="2327.45" cy="1359.47" r="2"/>
<circle clip-path="url(#clip771)" style="fill:#009af9; stroke:none; fill-opacity:0" cx="2485.88" cy="1363.81" r="2"/>
<circle clip-path="url(#clip771)" style="fill:#009af9; stroke:none; fill-opacity:0" cx="2644.31" cy="1376.85" r="2"/>
<circle clip-path="url(#clip771)" style="fill:#009af9; stroke:none; fill-opacity:0" cx="2802.74" cy="1381.19" r="2"/>
</svg>
